  0
SECTION
  2
HEADER
  9
$ACADVER
  1
AC1014
  9
$HANDSEED
  5
FFFF
  9
$MEASUREMENT
 70
     1
  0
ENDSEC
  0
SECTION
  2
TABLES
  0
TABLE
  2
VPORT
  5
8
330
0
100
AcDbSymbolTable
 70
     4
  0
VPORT
  5
2E
330
8
100
AcDbSymbolTableRecord
100
AcDbViewportTableRecord
  2
*ACTIVE
 70
     0
 10
0.0
 20
0.0
 11
1.0
 21
1.0
 12
210.0
 22
148.5
 13
0.0
 23
0.0
 14
10.0
 24
10.0
 15
10.0
 25
10.0
 16
0.0
 26
0.0
 36
1.0
 17
0.0
 27
0.0
 37
0.0
 40
341.0
 41
1.24
 42
50.0
 43
0.0
 44
0.0
 50
0.0
 51
0.0
 71
     0
 72
   100
 73
     1
 74
     3
 75
     0
 76
     0
 77
     0
 78
     0
  0
ENDTAB
  0
TABLE
  2
LTYPE
  5
5
330
0
100
AcDbSymbolTable
 70
     1
  0
LTYPE
  5
14
330
5
100
AcDbSymbolTableRecord
100
AcDbLinetypeTableRecord
  2
BYBLOCK
 70
     0
  3

 72
    65
 73
     0
 40
0.0
  0
LTYPE
  5
15
330
5
100
AcDbSymbolTableRecord
100
AcDbLinetypeTableRecord
  2
BYLAYER
 70
     0
  3

 72
    65
 73
     0
 40
0.0
  0
LTYPE
  5
16
330
5
100
AcDbSymbolTableRecord
100
AcDbLinetypeTableRecord
  2
CONTINUOUS
 70
     0
  3
Solid line
 72
    65
 73
     0
 40
0.0
  0
ENDTAB
  0
TABLE
  2
LAYER
  5
2
100
AcDbSymbolTable
 70
2
  0
LAYER
  5
50
100
AcDbSymbolTableRecord
100
AcDbLayerTableRecord
  2
0
 70
0
  6
CONTINUOUS
  0
LAYER
  5
51
100
AcDbSymbolTableRecord
100
AcDbLayerTableRecord
  2
Layer_1
 70
0
  6
CONTINUOUS
  0
ENDTAB
  0
TABLE
  2
STYLE
  5
3
330
0
100
AcDbSymbolTable
 70
     1
  0
STYLE
  5
11
330
3
100
AcDbSymbolTableRecord
100
AcDbTextStyleTableRecord
  2
STANDARD
 70
     0
 40
0.0
 41
1.0
 50
0.0
 71
     0
 42
2.5
  3
txt
  4

  0
ENDTAB
  0
TABLE
  2
VIEW
  5
6
330
0
100
AcDbSymbolTable
 70
     0
  0
ENDTAB
  0
TABLE
  2
UCS
  5
7
330
0
100
AcDbSymbolTable
 70
     0
  0
ENDTAB
  0
TABLE
  2
APPID
  5
9
330
0
100
AcDbSymbolTable
 70
     2
  0
APPID
  5
12
330
9
100
AcDbSymbolTableRecord
100
AcDbRegAppTableRecord
  2
ACAD
 70
     0
  0
ENDTAB
  0
TABLE
  2
DIMSTYLE
  5
A
330
0
100
AcDbSymbolTable
 70
     1
  0
DIMSTYLE
105
27
330
A
100
AcDbSymbolTableRecord
100
AcDbDimStyleTableRecord
  2
ISO-25
 70
     0
  3

  4

  5

  6

  7

 40
1.0
 41
2.5
 42
0.625
 43
3.75
 44
1.25
 45
0.0
 46
0.0
 47
0.0
 48
0.0
140
2.5
141
2.5
142
0.0
143
0.03937007874016
144
1.0
145
0.0
146
1.0
147
0.625
 71
     0
 72
     0
 73
     0
 74
     0
 75
     0
 76
     0
 77
     1
 78
     8
170
     0
171
     3
172
     1
173
     0
174
     0
175
     0
176
     0
177
     0
178
     0
270
     2
271
     2
272
     2
273
     2
274
     3
340
11
275
     0
280
     0
281
     0
282
     0
283
     0
284
     8
285
     0
286
     0
287
     3
288
     0
  0
ENDTAB
  0
TABLE
  2
BLOCK_RECORD
  5
1
330
0
100
AcDbSymbolTable
 70
     1
  0
BLOCK_RECORD
  5
1F
330
1
100
AcDbSymbolTableRecord
100
AcDbBlockTableRecord
  2
*MODEL_SPACE
  0
BLOCK_RECORD
  5
1B
330
1
100
AcDbSymbolTableRecord
100
AcDbBlockTableRecord
  2
*PAPER_SPACE
  0
ENDTAB
  0
ENDSEC
  0
SECTION
  2
BLOCKS
  0
BLOCK
  5
20
330
1F
100
AcDbEntity
  8
0
100
AcDbBlockBegin
  2
*MODEL_SPACE
 70
     0
 10
0.0
 20
0.0
 30
0.0
  3
*MODEL_SPACE
  1

  0
ENDBLK
  5
21
330
1F
100
AcDbEntity
  8
0
100
AcDbBlockEnd
  0
BLOCK
  5
1C
330
1B
100
AcDbEntity
 67
     1
  8
0
100
AcDbBlockBegin
  2
*PAPER_SPACE
  1

  0
ENDBLK
  5
1D
330
1B
100
AcDbEntity
 67
     1
  8
0
100
AcDbBlockEnd
  0
ENDSEC
  0
SECTION
  2
ENTITIES
  0
SPLINE
  5
100
100
AcDbEntity
  8
Layer_1
 62
7
100
AcDbSpline
 70
8
 71
3
 72
8
 73
4
 74
0
 40
0
 40
0
 40
0
 40
0
 40
1
 40
1
 40
1
 40
1
 10
49.704636
 20
78.396458
 30
0.0
 10
52.216104
 20
75.061579
 30
0.0
 10
53.420162
 20
70.758325
 30
0.0
 10
52.558326
 20
66.455774
 30
0.0
  0
SPLINE
  5
101
100
AcDbEntity
  8
Layer_1
 62
7
100
AcDbSpline
 70
8
 71
3
 72
8
 73
4
 74
0
 40
0
 40
0
 40
0
 40
0
 40
1
 40
1
 40
1
 40
1
 10
38.299695
 20
84.581363
 30
0.0
 10
41.820298
 20
84.397431
 30
0.0
 10
45.041778
 20
82.950748
 30
0.0
 10
47.543579
 20
80.735293
 30
0.0
  0
SPLINE
  5
102
100
AcDbEntity
  8
Layer_1
 62
7
100
AcDbSpline
 70
8
 71
3
 72
8
 73
4
 74
0
 40
0
 40
0
 40
0
 40
0
 40
1
 40
1
 40
1
 40
1
 10
41.624510
 20
0.607208
 30
0.0
 10
40.982288
 20
0.685440
 30
0.0
 10
40.390758
 20
0.811650
 30
0.0
 10
40.011522
 20
0.869872
 30
0.0
  0
SPLINE
  5
103
100
AcDbEntity
  8
Layer_1
 62
7
100
AcDbSpline
 70
8
 71
3
 72
8
 73
4
 74
0
 40
0
 40
0
 40
0
 40
0
 40
1
 40
1
 40
1
 40
1
 10
40.011522
 20
0.869872
 30
0.0
 10
39.687644
 20
0.919600
 30
0.0
 10
39.002253
 20
0.973194
 30
0.0
 10
38.473851
 20
0.973194
 30
0.0
  0
SPLINE
  5
104
100
AcDbEntity
  8
Layer_1
 62
7
100
AcDbSpline
 70
8
 71
3
 72
8
 73
4
 74
0
 40
0
 40
0
 40
0
 40
0
 40
1
 40
1
 40
1
 40
1
 10
38.473851
 20
0.973194
 30
0.0
 10
37.161865
 20
0.973194
 30
0.0
 10
36.519084
 20
1.886606
 30
0.0
 10
36.594184
 20
2.938900
 30
0.0
  0
SPLINE
  5
105
100
AcDbEntity
  8
Layer_1
 62
7
100
AcDbSpline
 70
8
 71
3
 72
8
 73
4
 74
0
 40
0
 40
0
 40
0
 40
0
 40
1
 40
1
 40
1
 40
1
 10
36.594184
 20
2.938900
 30
0.0
 10
36.700017
 20
4.421865
 30
0.0
 10
38.677331
 20
5.487874
 30
0.0
 10
39.808034
 20
4.058927
 30
0.0
  0
SPLINE
  5
106
100
AcDbEntity
  8
Layer_1
 62
7
100
AcDbSpline
 70
8
 71
3
 72
8
 73
4
 74
0
 40
0
 40
0
 40
0
 40
0
 40
1
 40
1
 40
1
 40
1
 10
39.808034
 20
4.058927
 30
0.0
 10
40.111240
 20
3.675754
 30
0.0
 10
40.162872
 20
3.243954
 30
0.0
 10
40.162872
 20
2.933961
 30
0.0
  0
SPLINE
  5
107
100
AcDbEntity
  8
Layer_1
 62
7
100
AcDbSpline
 70
8
 71
3
 72
8
 73
4
 74
0
 40
0
 40
0
 40
0
 40
0
 40
1
 40
1
 40
1
 40
1
 10
40.162872
 20
2.933961
 30
0.0
 10
40.162872
 20
2.444390
 30
0.0
 10
41.436087
 20
2.374596
 30
0.0
 10
42.639031
 20
2.133014
 30
0.0
  0
SPLINE
  5
108
100
AcDbEntity
  8
Layer_1
 62
7
100
AcDbSpline
 70
8
 71
3
 72
8
 73
4
 74
0
 40
0
 40
0
 40
0
 40
0
 40
1
 40
1
 40
1
 40
1
 10
42.639031
 20
2.133014
 30
0.0
 10
44.378728
 20
1.783623
 30
0.0
 10
44.905557
 20
2.383007
 30
0.0
 10
45.405181
 20
2.747384
 30
0.0
  0
SPLINE
  5
109
100
AcDbEntity
  8
Layer_1
 62
7
100
AcDbSpline
 70
8
 71
3
 72
8
 73
4
 74
0
 40
0
 40
0
 40
0
 40
0
 40
1
 40
1
 40
1
 40
1
 10
45.405181
 20
2.747384
 30
0.0
 10
46.236769
 20
3.353851
 30
0.0
 10
46.825408
 20
4.256228
 30
0.0
 10
46.998444
 20
5.044052
 30
0.0
  0
SPLINE
  5
10a
100
AcDbEntity
  8
Layer_1
 62
7
100
AcDbSpline
 70
8
 71
3
 72
8
 73
4
 74
0
 40
0
 40
0
 40
0
 40
0
 40
1
 40
1
 40
1
 40
1
 10
46.998444
 20
5.044052
 30
0.0
 10
47.204091
 20
5.980352
 30
0.0
 10
46.307338
 20
7.614391
 30
0.0
 10
44.235424
 20
11.717620
 30
0.0
  0
SPLINE
  5
10b
100
AcDbEntity
  8
Layer_1
 62
7
100
AcDbSpline
 70
8
 71
3
 72
8
 73
4
 74
0
 40
0
 40
0
 40
0
 40
0
 40
1
 40
1
 40
1
 40
1
 10
44.235424
 20
11.717620
 30
0.0
 10
41.812828
 20
16.515327
 30
0.0
 10
41.039121
 20
18.475411
 30
0.0
 10
40.258128
 20
20.721093
 30
0.0
  0
SPLINE
  5
10c
100
AcDbEntity
  8
Layer_1
 62
7
100
AcDbSpline
 70
8
 71
3
 72
8
 73
4
 74
0
 40
0
 40
0
 40
0
 40
0
 40
1
 40
1
 40
1
 40
1
 10
40.258128
 20
20.721093
 30
0.0
 10
40.258128
 20
20.721093
 30
0.0
 10
40.020150
 20
21.772077
 30
0.0
 10
39.903784
 20
22.431571
 30
0.0
  0
SPLINE
  5
10d
100
AcDbEntity
  8
Layer_1
 62
7
100
AcDbSpline
 70
8
 71
3
 72
8
 73
4
 74
0
 40
0
 40
0
 40
0
 40
0
 40
1
 40
1
 40
1
 40
1
 10
39.903784
 20
22.431571
 30
0.0
 10
39.546759
 20
24.454989
 30
0.0
 10
39.132256
 20
27.033958
 30
0.0
 10
39.185593
 20
30.706470
 30
0.0
  0
SPLINE
  5
10e
100
AcDbEntity
  8
Layer_1
 62
7
100
AcDbSpline
 70
8
 71
3
 72
8
 73
4
 74
0
 40
0
 40
0
 40
0
 40
0
 40
1
 40
1
 40
1
 40
1
 10
39.185593
 20
30.706470
 30
0.0
 10
39.238930
 20
34.378983
 30
0.0
 10
38.813991
 20
34.498654
 30
0.0
 10
38.459351
 20
34.955027
 30
0.0
  0
SPLINE
  5
10f
100
AcDbEntity
  8
Layer_1
 62
7
100
AcDbSpline
 70
8
 71
3
 72
8
 73
4
 74
0
 40
0
 40
0
 40
0
 40
0
 40
1
 40
1
 40
1
 40
1
 10
38.459351
 20
34.955027
 30
0.0
 10
38.104710
 20
35.411403
 30
0.0
 10
36.880430
 20
35.914436
 30
0.0
 10
36.300746
 20
34.695535
 30
0.0
  0
SPLINE
  5
110
100
AcDbEntity
  8
Layer_1
 62
7
100
AcDbSpline
 70
8
 71
3
 72
8
 73
4
 74
0
 40
0
 40
0
 40
0
 40
0
 40
1
 40
1
 40
1
 40
1
 10
36.300746
 20
34.695535
 30
0.0
 10
35.898551
 20
33.849842
 30
0.0
 10
35.859057
 20
33.120613
 30
0.0
 10
35.852264
 20
31.806296
 30
0.0
  0
SPLINE
  5
111
100
AcDbEntity
  8
Layer_1
 62
7
100
AcDbSpline
 70
8
 71
3
 72
8
 73
4
 74
0
 40
0
 40
0
 40
0
 40
0
 40
1
 40
1
 40
1
 40
1
 10
35.852264
 20
31.806296
 30
0.0
 10
35.836600
 20
28.772498
 30
0.0
 10
36.105417
 20
23.617390
 30
0.0
 10
34.809944
 20
19.952618
 30
0.0
  0
SPLINE
  5
112
100
AcDbEntity
  8
Layer_1
 62
7
100
AcDbSpline
 70
8
 71
3
 72
8
 73
4
 74
0
 40
0
 40
0
 40
0
 40
0
 40
1
 40
1
 40
1
 40
1
 10
34.809944
 20
19.952618
 30
0.0
 10
34.168453
 20
18.137907
 30
0.0
 10
33.321450
 20
15.737203
 30
0.0
 10
32.927719
 20
14.617707
 30
0.0
  0
SPLINE
  5
113
100
AcDbEntity
  8
Layer_1
 62
7
100
AcDbSpline
 70
8
 71
3
 72
8
 73
4
 74
0
 40
0
 40
0
 40
0
 40
0
 40
1
 40
1
 40
1
 40
1
 10
32.927719
 20
14.617707
 30
0.0
 10
32.247513
 20
12.683723
 30
0.0
 10
32.030608
 20
10.933070
 30
0.0
 10
32.363658
 20
10.065152
 30
0.0
  0
SPLINE
  5
114
100
AcDbEntity
  8
Layer_1
 62
7
100
AcDbSpline
 70
8
 71
3
 72
8
 73
4
 74
0
 40
0
 40
0
 40
0
 40
0
 40
1
 40
1
 40
1
 40
1
 10
32.363658
 20
10.065152
 30
0.0
 10
32.695405
 20
9.200621
 30
0.0
 10
35.159335
 20
8.562488
 30
0.0
 10
36.402018
 20
9.039331
 30
0.0
  0
SPLINE
  5
115
100
AcDbEntity
  8
Layer_1
 62
7
100
AcDbSpline
 70
8
 71
3
 72
8
 73
4
 74
0
 40
0
 40
0
 40
0
 40
0
 40
1
 40
1
 40
1
 40
1
 10
36.402018
 20
9.039331
 30
0.0
 10
37.016142
 20
9.275014
 30
0.0
 10
37.226903
 20
10.204288
 30
0.0
 10
37.180839
 20
11.245180
 30
0.0
  0
SPLINE
  5
116
100
AcDbEntity
  8
Layer_1
 62
7
100
AcDbSpline
 70
8
 71
3
 72
8
 73
4
 74
0
 40
0
 40
0
 40
0
 40
0
 40
1
 40
1
 40
1
 40
1
 10
37.180839
 20
11.245180
 30
0.0
 10
37.149583
 20
11.951441
 30
0.0
 10
37.292986
 20
12.367295
 30
0.0
 10
36.471386
 20
12.787806
 30
0.0
  0
SPLINE
  5
117
100
AcDbEntity
  8
Layer_1
 62
7
100
AcDbSpline
 70
8
 71
3
 72
8
 73
4
 74
0
 40
0
 40
0
 40
0
 40
0
 40
1
 40
1
 40
1
 40
1
 10
36.471386
 20
12.787806
 30
0.0
 10
34.782653
 20
13.652112
 30
0.0
 10
36.285593
 20
15.835270
 30
0.0
 10
37.086817
 20
15.992739
 30
0.0
  0
SPLINE
  5
118
100
AcDbEntity
  8
Layer_1
 62
7
100
AcDbSpline
 70
8
 71
3
 72
8
 73
4
 74
0
 40
0
 40
0
 40
0
 40
0
 40
1
 40
1
 40
1
 40
1
 10
37.086817
 20
15.992739
 30
0.0
 10
37.749271
 20
16.122933
 30
0.0
 10
38.425123
 20
15.835795
 30
0.0
 10
39.005428
 20
15.401571
 30
0.0
  0
SPLINE
  5
119
100
AcDbEntity
  8
Layer_1
 62
7
100
AcDbSpline
 70
8
 71
3
 72
8
 73
4
 74
0
 40
0
 40
0
 40
0
 40
0
 40
1
 40
1
 40
1
 40
1
 10
39.005428
 20
15.401571
 30
0.0
 10
39.861583
 20
14.760935
 30
0.0
 10
39.218348
 20
13.207584
 30
0.0
 10
38.846038
 20
12.932727
 30
0.0
  0
SPLINE
  5
11a
100
AcDbEntity
  8
Layer_1
 62
7
100
AcDbSpline
 70
8
 71
3
 72
8
 73
4
 74
0
 40
0
 40
0
 40
0
 40
0
 40
1
 40
1
 40
1
 40
1
 10
38.846038
 20
12.932727
 30
0.0
 10
38.540673
 20
12.468359
 30
0.0
 10
38.562746
 20
12.231518
 30
0.0
 10
38.699087
 20
11.585257
 30
0.0
  0
SPLINE
  5
11b
100
AcDbEntity
  8
Layer_1
 62
7
100
AcDbSpline
 70
8
 71
3
 72
8
 73
4
 74
0
 40
0
 40
0
 40
0
 40
0
 40
1
 40
1
 40
1
 40
1
 10
38.699087
 20
11.585257
 30
0.0
 10
39.151856
 20
9.439127
 30
0.0
 10
38.181887
 20
7.802238
 30
0.0
 10
36.422426
 20
7.221566
 30
0.0
  0
SPLINE
  5
11c
100
AcDbEntity
  8
Layer_1
 62
7
100
AcDbSpline
 70
8
 71
3
 72
8
 73
4
 74
0
 40
0
 40
0
 40
0
 40
0
 40
1
 40
1
 40
1
 40
1
 10
36.422426
 20
7.221566
 30
0.0
 10
35.060055
 20
6.771957
 30
0.0
 10
32.400184
 20
7.072580
 30
0.0
 10
31.432283
 20
7.831278
 30
0.0
  0
SPLINE
  5
11d
100
AcDbEntity
  8
Layer_1
 62
7
100
AcDbSpline
 70
8
 71
3
 72
8
 73
4
 74
0
 40
0
 40
0
 40
0
 40
0
 40
1
 40
1
 40
1
 40
1
 10
31.432283
 20
7.831278
 30
0.0
 10
30.110340
 20
8.867514
 30
0.0
 10
29.260419
 20
11.607101
 30
0.0
 10
31.551623
 20
17.818779
 30
0.0
  0
SPLINE
  5
11e
100
AcDbEntity
  8
Layer_1
 62
7
100
AcDbSpline
 70
8
 71
3
 72
8
 73
4
 74
0
 40
0
 40
0
 40
0
 40
0
 40
1
 40
1
 40
1
 40
1
 10
31.551623
 20
17.818779
 30
0.0
 10
33.258639
 20
22.446656
 30
0.0
 10
33.252461
 20
25.211652
 30
0.0
 10
32.452762
 20
30.095457
 30
0.0
  0
SPLINE
  5
11f
100
AcDbEntity
  8
Layer_1
 62
7
100
AcDbSpline
 70
8
 71
3
 72
8
 73
4
 74
0
 40
0
 40
0
 40
0
 40
0
 40
1
 40
1
 40
1
 40
1
 10
32.452762
 20
30.095457
 30
0.0
 10
32.225626
 20
31.482582
 30
0.0
 10
32.076867
 20
31.609494
 30
0.0
 10
31.667283
 20
31.992323
 30
0.0
  0
SPLINE
  5
120
100
AcDbEntity
  8
Layer_1
 62
7
100
AcDbSpline
 70
8
 71
3
 72
8
 73
4
 74
0
 40
0
 40
0
 40
0
 40
0
 40
1
 40
1
 40
1
 40
1
 10
31.667283
 20
31.992323
 30
0.0
 10
31.441588
 20
32.203278
 30
0.0
 10
31.314283
 20
32.172355
 30
0.0
 10
31.016846
 20
32.225563
 30
0.0
  0
SPLINE
  5
121
100
AcDbEntity
  8
Layer_1
 62
7
100
AcDbSpline
 70
8
 71
3
 72
8
 73
4
 74
0
 40
0
 40
0
 40
0
 40
0
 40
1
 40
1
 40
1
 40
1
 10
31.016846
 20
32.225563
 30
0.0
 10
30.313554
 20
32.351369
 30
0.0
 10
30.213444
 20
32.018877
 30
0.0
 10
29.854237
 20
31.195282
 30
0.0
  0
SPLINE
  5
122
100
AcDbEntity
  8
Layer_1
 62
7
100
AcDbSpline
 70
8
 71
3
 72
8
 73
4
 74
0
 40
0
 40
0
 40
0
 40
0
 40
1
 40
1
 40
1
 40
1
 10
29.854237
 20
31.195282
 30
0.0
 10
29.637014
 20
30.697228
 30
0.0
 10
28.994845
 20
27.878942
 30
0.0
 10
28.794589
 20
22.396677
 30
0.0
  0
SPLINE
  5
123
100
AcDbEntity
  8
Layer_1
 62
7
100
AcDbSpline
 70
8
 71
3
 72
8
 73
4
 74
0
 40
0
 40
0
 40
0
 40
0
 40
1
 40
1
 40
1
 40
1
 10
28.794589
 20
22.396677
 30
0.0
 10
28.573662
 20
16.348556
 30
0.0
 10
28.293004
 20
14.425401
 30
0.0
 10
27.206229
 20
11.512811
 30
0.0
  0
SPLINE
  5
124
100
AcDbEntity
  8
Layer_1
 62
7
100
AcDbSpline
 70
8
 71
3
 72
8
 73
4
 74
0
 40
0
 40
0
 40
0
 40
0
 40
1
 40
1
 40
1
 40
1
 10
27.206229
 20
11.512811
 30
0.0
 10
25.973537
 20
8.209146
 30
0.0
 10
23.691569
 20
5.738572
 30
0.0
 10
21.091380
 20
4.892498
 30
0.0
  0
SPLINE
  5
125
100
AcDbEntity
  8
Layer_1
 62
7
100
AcDbSpline
 70
8
 71
3
 72
8
 73
4
 74
0
 40
0
 40
0
 40
0
 40
0
 40
1
 40
1
 40
1
 40
1
 10
21.091380
 20
4.892498
 30
0.0
 10
20.419264
 20
4.673804
 30
0.0
 10
19.526422
 20
4.288458
 30
0.0
 10
19.107285
 20
4.036152
 30
0.0
  0
SPLINE
  5
126
100
AcDbEntity
  8
Layer_1
 62
7
100
AcDbSpline
 70
8
 71
3
 72
8
 73
4
 74
0
 40
0
 40
0
 40
0
 40
0
 40
1
 40
1
 40
1
 40
1
 10
19.107285
 20
4.036152
 30
0.0
 10
18.009126
 20
3.375131
 30
0.0
 10
17.144452
 20
3.454068
 30
0.0
 10
16.306668
 20
4.291845
 30
0.0
  0
SPLINE
  5
127
100
AcDbEntity
  8
Layer_1
 62
7
100
AcDbSpline
 70
8
 71
3
 72
8
 73
4
 74
0
 40
0
 40
0
 40
0
 40
0
 40
1
 40
1
 40
1
 40
1
 10
16.306668
 20
4.291845
 30
0.0
 10
15.206685
 20
5.391834
 30
0.0
 10
15.461332
 20
6.520723
 30
0.0
 10
16.949725
 20
7.142600
 30
0.0
  0
SPLINE
  5
128
100
AcDbEntity
  8
Layer_1
 62
7
100
AcDbSpline
 70
8
 71
3
 72
8
 73
4
 74
0
 40
0
 40
0
 40
0
 40
0
 40
1
 40
1
 40
1
 40
1
 10
16.949725
 20
7.142600
 30
0.0
 10
17.680060
 20
7.447767
 30
0.0
 10
17.897979
 20
7.441530
 30
0.0
 10
18.775530
 20
7.090389
 30
0.0
  0
SPLINE
  5
129
100
AcDbEntity
  8
Layer_1
 62
7
100
AcDbSpline
 70
8
 71
3
 72
8
 73
4
 74
0
 40
0
 40
0
 40
0
 40
0
 40
1
 40
1
 40
1
 40
1
 10
18.775530
 20
7.090389
 30
0.0
 10
19.709280
 20
6.716783
 30
0.0
 10
19.833538
 20
6.719436
 30
0.0
 10
20.749243
 20
7.132355
 30
0.0
  0
SPLINE
  5
12a
100
AcDbEntity
  8
Layer_1
 62
7
100
AcDbSpline
 70
8
 71
3
 72
8
 73
4
 74
0
 40
0
 40
0
 40
0
 40
0
 40
1
 40
1
 40
1
 40
1
 10
20.749243
 20
7.132355
 30
0.0
 10
22.567578
 20
7.952295
 30
0.0
 10
23.831700
 20
9.868754
 30
0.0
 10
24.664483
 20
13.067940
 30
0.0
  0
SPLINE
  5
12b
100
AcDbEntity
  8
Layer_1
 62
7
100
AcDbSpline
 70
8
 71
3
 72
8
 73
4
 74
0
 40
0
 40
0
 40
0
 40
0
 40
1
 40
1
 40
1
 40
1
 10
24.664483
 20
13.067940
 30
0.0
 10
25.053282
 20
14.561545
 30
0.0
 10
25.174965
 20
16.283713
 30
0.0
 10
25.381063
 20
21.541259
 30
0.0
  0
SPLINE
  5
12c
100
AcDbEntity
  8
Layer_1
 62
7
100
AcDbSpline
 70
8
 71
3
 72
8
 73
4
 74
0
 40
0
 40
0
 40
0
 40
0
 40
1
 40
1
 40
1
 40
1
 10
25.381063
 20
21.541259
 30
0.0
 10
25.573678
 20
26.454869
 30
0.0
 10
25.694433
 20
27.043127
 30
0.0
 10
25.452663
 20
28.121024
 30
0.0
  0
SPLINE
  5
12d
100
AcDbEntity
  8
Layer_1
 62
7
100
AcDbSpline
 70
8
 71
3
 72
8
 73
4
 74
0
 40
0
 40
0
 40
0
 40
0
 40
1
 40
1
 40
1
 40
1
 10
25.452663
 20
28.121024
 30
0.0
 10
25.320974
 20
28.708137
 30
0.0
 10
24.474336
 20
29.215033
 30
0.0
 10
24.117275
 20
29.203987
 30
0.0
  0
SPLINE
  5
12e
100
AcDbEntity
  8
Layer_1
 62
7
100
AcDbSpline
 70
8
 71
3
 72
8
 73
4
 74
0
 40
0
 40
0
 40
0
 40
0
 40
1
 40
1
 40
1
 40
1
 10
24.117275
 20
29.203987
 30
0.0
 10
24.117275
 20
29.203987
 30
0.0
 10
23.282426
 20
29.294267
 30
0.0
 10
22.864091
 20
28.383386
 30
0.0
  0
SPLINE
  5
12f
100
AcDbEntity
  8
Layer_1
 62
7
100
AcDbSpline
 70
8
 71
3
 72
8
 73
4
 74
0
 40
0
 40
0
 40
0
 40
0
 40
1
 40
1
 40
1
 40
1
 10
22.864091
 20
28.383386
 30
0.0
 10
22.333759
 20
27.228640
 30
0.0
 10
22.271135
 20
24.339704
 30
0.0
 10
21.715217
 20
21.785663
 30
0.0
  0
SPLINE
  5
130
100
AcDbEntity
  8
Layer_1
 62
7
100
AcDbSpline
 70
8
 71
3
 72
8
 73
4
 74
0
 40
0
 40
0
 40
0
 40
0
 40
1
 40
1
 40
1
 40
1
 10
21.715217
 20
21.785663
 30
0.0
 10
19.745290
 20
12.735256
 30
0.0
 10
18.169445
 20
11.378784
 30
0.0
 10
15.800535
 20
10.785129
 30
0.0
  0
SPLINE
  5
131
100
AcDbEntity
  8
Layer_1
 62
7
100
AcDbSpline
 70
8
 71
3
 72
8
 73
4
 74
0
 40
0
 40
0
 40
0
 40
0
 40
1
 40
1
 40
1
 40
1
 10
15.800535
 20
10.785129
 30
0.0
 10
13.152736
 20
10.121596
 30
0.0
 10
10.030902
 20
11.782192
 30
0.0
 10
10.030902
 20
14.365739
 30
0.0
  0
SPLINE
  5
132
100
AcDbEntity
  8
Layer_1
 62
7
100
AcDbSpline
 70
8
 71
3
 72
8
 73
4
 74
0
 40
0
 40
0
 40
0
 40
0
 40
1
 40
1
 40
1
 40
1
 10
10.030902
 20
14.365739
 30
0.0
 10
10.030902
 20
14.718517
 30
0.0
 10
9.636320
 20
15.087243
 30
0.0
 10
9.367473
 20
15.429022
 30
0.0
  0
SPLINE
  5
133
100
AcDbEntity
  8
Layer_1
 62
7
100
AcDbSpline
 70
8
 71
3
 72
8
 73
4
 74
0
 40
0
 40
0
 40
0
 40
0
 40
1
 40
1
 40
1
 40
1
 10
9.367473
 20
15.429022
 30
0.0
 10
8.726854
 20
16.243440
 30
0.0
 10
8.412357
 20
17.278145
 30
0.0
 10
9.098685
 20
18.076047
 30
0.0
  0
SPLINE
  5
134
100
AcDbEntity
  8
Layer_1
 62
7
100
AcDbSpline
 70
8
 71
3
 72
8
 73
4
 74
0
 40
0
 40
0
 40
0
 40
0
 40
1
 40
1
 40
1
 40
1
 10
9.098685
 20
18.076047
 30
0.0
 10
10.284606
 20
19.454762
 30
0.0
 10
12.821526
 20
18.666681
 30
0.0
 10
12.896361
 20
17.075546
 30
0.0
  0
SPLINE
  5
135
100
AcDbEntity
  8
Layer_1
 62
7
100
AcDbSpline
 70
8
 71
3
 72
8
 73
4
 74
0
 40
0
 40
0
 40
0
 40
0
 40
1
 40
1
 40
1
 40
1
 10
12.896361
 20
17.075546
 30
0.0
 10
12.925193
 20
16.462537
 30
0.0
 10
12.555592
 20
16.027997
 30
0.0
 10
12.070823
 20
15.486830
 30
0.0
  0
SPLINE
  5
136
100
AcDbEntity
  8
Layer_1
 62
7
100
AcDbSpline
 70
8
 71
3
 72
8
 73
4
 74
0
 40
0
 40
0
 40
0
 40
0
 40
1
 40
1
 40
1
 40
1
 10
12.070823
 20
15.486830
 30
0.0
 10
11.408116
 20
14.747021
 30
0.0
 10
11.575612
 20
14.509390
 30
0.0
 10
11.889473
 20
13.893130
 30
0.0
  0
SPLINE
  5
137
100
AcDbEntity
  8
Layer_1
 62
7
100
AcDbSpline
 70
8
 71
3
 72
8
 73
4
 74
0
 40
0
 40
0
 40
0
 40
0
 40
1
 40
1
 40
1
 40
1
 10
11.889473
 20
13.893130
 30
0.0
 10
12.629669
 20
12.439713
 30
0.0
 10
14.206571
 20
12.371387
 30
0.0
 10
15.341234
 20
12.863075
 30
0.0
  0
SPLINE
  5
138
100
AcDbEntity
  8
Layer_1
 62
7
100
AcDbSpline
 70
8
 71
3
 72
8
 73
4
 74
0
 40
0
 40
0
 40
0
 40
0
 40
1
 40
1
 40
1
 40
1
 10
15.341234
 20
12.863075
 30
0.0
 10
17.171839
 20
13.656345
 30
0.0
 10
18.104318
 20
15.268252
 30
0.0
 10
19.256172
 20
21.690582
 30
0.0
  0
SPLINE
  5
139
100
AcDbEntity
  8
Layer_1
 62
7
100
AcDbSpline
 70
8
 71
3
 72
8
 73
4
 74
0
 40
0
 40
0
 40
0
 40
0
 40
1
 40
1
 40
1
 40
1
 10
19.256172
 20
21.690582
 30
0.0
 10
20.473619
 20
28.478656
 30
0.0
 10
20.362304
 20
27.069744
 30
0.0
 10
20.906355
 20
31.355170
 30
0.0
  0
SPLINE
  5
13a
100
AcDbEntity
  8
Layer_1
 62
7
100
AcDbSpline
 70
8
 71
3
 72
8
 73
4
 74
0
 40
0
 40
0
 40
0
 40
0
 40
1
 40
1
 40
1
 40
1
 10
20.906355
 20
31.355170
 30
0.0
 10
20.990605
 20
32.018793
 30
0.0
 10
20.746544
 20
32.269801
 30
0.0
 10
20.548324
 20
32.684735
 30
0.0
  0
SPLINE
  5
13b
100
AcDbEntity
  8
Layer_1
 62
7
100
AcDbSpline
 70
8
 71
3
 72
8
 73
4
 74
0
 40
0
 40
0
 40
0
 40
0
 40
1
 40
1
 40
1
 40
1
 10
20.548324
 20
32.684735
 30
0.0
 10
20.363306
 20
33.072032
 30
0.0
 10
19.250442
 20
33.598246
 30
0.0
 10
18.435983
 20
33.227313
 30
0.0
  0
SPLINE
  5
13c
100
AcDbEntity
  8
Layer_1
 62
7
100
AcDbSpline
 70
8
 71
3
 72
8
 73
4
 74
0
 40
0
 40
0
 40
0
 40
0
 40
1
 40
1
 40
1
 40
1
 10
18.435983
 20
33.227313
 30
0.0
 10
15.941315
 20
32.091160
 30
0.0
 10
17.696505
 20
32.690109
 30
0.0
 10
12.477698
 20
30.800978
 30
0.0
  0
SPLINE
  5
13d
100
AcDbEntity
  8
Layer_1
 62
7
100
AcDbSpline
 70
8
 71
3
 72
8
 73
4
 74
0
 40
0
 40
0
 40
0
 40
0
 40
1
 40
1
 40
1
 40
1
 10
12.477698
 20
30.800978
 30
0.0
 10
8.541203
 20
29.376027
 30
0.0
 10
7.131910
 20
28.395310
 30
0.0
 10
6.200653
 20
26.432833
 30
0.0
  0
SPLINE
  5
13e
100
AcDbEntity
  8
Layer_1
 62
7
100
AcDbSpline
 70
8
 71
3
 72
8
 73
4
 74
0
 40
0
 40
0
 40
0
 40
0
 40
1
 40
1
 40
1
 40
1
 10
6.200653
 20
26.432833
 30
0.0
 10
4.977421
 20
23.855063
 30
0.0
 10
7.249508
 20
21.269117
 30
0.0
 10
9.312112
 20
22.891562
 30
0.0
  0
SPLINE
  5
13f
100
AcDbEntity
  8
Layer_1
 62
7
100
AcDbSpline
 70
8
 71
3
 72
8
 73
4
 74
0
 40
0
 40
0
 40
0
 40
0
 40
1
 40
1
 40
1
 40
1
 10
9.312112
 20
22.891562
 30
0.0
 10
9.858163
 20
23.321085
 30
0.0
 10
9.909670
 20
23.477052
 30
0.0
 10
9.702102
 20
24.072484
 30
0.0
  0
SPLINE
  5
140
100
AcDbEntity
  8
Layer_1
 62
7
100
AcDbSpline
 70
8
 71
3
 72
8
 73
4
 74
0
 40
0
 40
0
 40
0
 40
0
 40
1
 40
1
 40
1
 40
1
 10
9.702102
 20
24.072484
 30
0.0
 10
9.155392
 20
25.640776
 30
0.0
 10
10.755830
 20
27.093335
 30
0.0
 10
12.399266
 20
26.520426
 30
0.0
  0
SPLINE
  5
141
100
AcDbEntity
  8
Layer_1
 62
7
100
AcDbSpline
 70
8
 71
3
 72
8
 73
4
 74
0
 40
0
 40
0
 40
0
 40
0
 40
1
 40
1
 40
1
 40
1
 10
12.399266
 20
26.520426
 30
0.0
 10
13.787351
 20
26.036537
 30
0.0
 10
14.120889
 20
24.279212
 30
0.0
 10
12.993029
 20
23.392038
 30
0.0
  0
SPLINE
  5
142
100
AcDbEntity
  8
Layer_1
 62
7
100
AcDbSpline
 70
8
 71
3
 72
8
 73
4
 74
0
 40
0
 40
0
 40
0
 40
0
 40
1
 40
1
 40
1
 40
1
 10
12.993029
 20
23.392038
 30
0.0
 10
12.638843
 20
23.113437
 30
0.0
 10
12.244918
 20
22.885489
 30
0.0
 10
12.117641
 20
22.885489
 30
0.0
  0
SPLINE
  5
143
100
AcDbEntity
  8
Layer_1
 62
7
100
AcDbSpline
 70
8
 71
3
 72
8
 73
4
 74
0
 40
0
 40
0
 40
0
 40
0
 40
1
 40
1
 40
1
 40
1
 10
12.117641
 20
22.885489
 30
0.0
 10
11.990363
 20
22.885489
 30
0.0
 10
11.427786
 20
22.515089
 30
0.0
 10
10.867470
 20
22.062376
 30
0.0
  0
SPLINE
  5
144
100
AcDbEntity
  8
Layer_1
 62
7
100
AcDbSpline
 70
8
 71
3
 72
8
 73
4
 74
0
 40
0
 40
0
 40
0
 40
0
 40
1
 40
1
 40
1
 40
1
 10
10.867470
 20
22.062376
 30
0.0
 10
9.438357
 20
20.907712
 30
0.0
 10
8.931336
 20
20.685837
 30
0.0
 10
7.721867
 20
20.685837
 30
0.0
  0
SPLINE
  5
145
100
AcDbEntity
  8
Layer_1
 62
7
100
AcDbSpline
 70
8
 71
3
 72
8
 73
4
 74
0
 40
0
 40
0
 40
0
 40
0
 40
1
 40
1
 40
1
 40
1
 10
7.721867
 20
20.685837
 30
0.0
 10
4.529557
 20
20.685837
 30
0.0
 10
2.872040
 20
24.590297
 30
0.0
 10
4.557341
 20
28.140210
 30
0.0
  0
SPLINE
  5
146
100
AcDbEntity
  8
Layer_1
 62
7
100
AcDbSpline
 70
8
 71
3
 72
8
 73
4
 74
0
 40
0
 40
0
 40
0
 40
0
 40
1
 40
1
 40
1
 40
1
 10
4.557341
 20
28.140210
 30
0.0
 10
5.774242
 20
30.703490
 30
0.0
 10
7.085731
 20
31.641580
 30
0.0
 10
12.781583
 20
34.022915
 30
0.0
  0
SPLINE
  5
147
100
AcDbEntity
  8
Layer_1
 62
7
100
AcDbSpline
 70
8
 71
3
 72
8
 73
4
 74
0
 40
0
 40
0
 40
0
 40
0
 40
1
 40
1
 40
1
 40
1
 10
12.781583
 20
34.022915
 30
0.0
 10
13.991392
 20
34.528716
 30
0.0
 10
15.531149
 20
35.293352
 30
0.0
 10
16.203263
 20
35.722113
 30
0.0
  0
SPLINE
  5
148
100
AcDbEntity
  8
Layer_1
 62
7
100
AcDbSpline
 70
8
 71
3
 72
8
 73
4
 74
0
 40
0
 40
0
 40
0
 40
0
 40
1
 40
1
 40
1
 40
1
 10
16.203263
 20
35.722113
 30
0.0
 10
19.106605
 20
37.574227
 30
0.0
 10
21.855469
 20
41.355477
 30
0.0
 10
25.389206
 20
48.358006
 30
0.0
  0
LINE
  5
149
100
AcDbEntity
  8
Layer_1
 62
7
100
AcDbLine
 10
25.389206
 20
48.358006
 30
0.0
 11
27.609979
 21
52.758739
 31
0.0
  0
LINE
  5
14a
100
AcDbEntity
  8
Layer_1
 62
7
100
AcDbLine
 10
27.609979
 20
52.758739
 30
0.0
 11
26.813771
 21
53.580220
 31
0.0
  0
LINE
  5
14b
100
AcDbEntity
  8
Layer_1
 62
7
100
AcDbLine
 10
26.813771
 20
53.580220
 30
0.0
 11
26.017563
 21
54.401696
 31
0.0
  0
LINE
  5
14c
100
AcDbEntity
  8
Layer_1
 62
7
100
AcDbLine
 10
26.017563
 20
54.401696
 30
0.0
 11
25.201346
 21
53.897246
 31
0.0
  0
LINE
  5
14d
100
AcDbEntity
  8
Layer_1
 62
7
100
AcDbLine
 10
25.201346
 20
53.897246
 30
0.0
 11
24.385130
 21
53.392797
 31
0.0
  0
LINE
  5
14e
100
AcDbEntity
  8
Layer_1
 62
7
100
AcDbLine
 10
24.385130
 20
53.392797
 30
0.0
 11
22.982660
 21
54.613569
 31
0.0
  0
SPLINE
  5
14f
100
AcDbEntity
  8
Layer_1
 62
7
100
AcDbSpline
 70
8
 71
3
 72
8
 73
4
 74
0
 40
0
 40
0
 40
0
 40
0
 40
1
 40
1
 40
1
 40
1
 10
22.982660
 20
54.613569
 30
0.0
 10
22.211301
 20
55.284992
 30
0.0
 10
21.280495
 20
56.150263
 30
0.0
 10
20.914200
 20
56.536394
 30
0.0
  0
LINE
  5
150
100
AcDbEntity
  8
Layer_1
 62
7
100
AcDbLine
 10
20.914200
 20
56.536394
 30
0.0
 11
20.248211
 21
57.238450
 31
0.0
  0
LINE
  5
151
100
AcDbEntity
  8
Layer_1
 62
7
100
AcDbLine
 10
20.248211
 20
57.238450
 30
0.0
 11
21.708035
 21
59.308917
 31
0.0
  0
SPLINE
  5
152
100
AcDbEntity
  8
Layer_1
 62
7
100
AcDbSpline
 70
8
 71
3
 72
8
 73
4
 74
0
 40
0
 40
0
 40
0
 40
0
 40
1
 40
1
 40
1
 40
1
 10
21.708035
 20
59.308917
 30
0.0
 10
22.510939
 20
60.447678
 30
0.0
 10
23.162935
 20
61.489371
 30
0.0
 10
23.156917
 20
61.623794
 30
0.0
  0
SPLINE
  5
153
100
AcDbEntity
  8
Layer_1
 62
7
100
AcDbSpline
 70
8
 71
3
 72
8
 73
4
 74
0
 40
0
 40
0
 40
0
 40
0
 40
1
 40
1
 40
1
 40
1
 10
23.156917
 20
61.623794
 30
0.0
 10
23.150905
 20
61.758219
 30
0.0
 10
22.787533
 20
62.748060
 30
0.0
 10
22.349436
 20
63.823445
 30
0.0
  0
LINE
  5
154
100
AcDbEntity
  8
Layer_1
 62
7
100
AcDbLine
 10
22.349436
 20
63.823445
 30
0.0
 11
21.552897
 21
65.778692
 31
0.0
  0
LINE
  5
155
100
AcDbEntity
  8
Layer_1
 62
7
100
AcDbLine
 10
21.552897
 20
65.778692
 30
0.0
 11
19.489095
 21
66.206117
 31
0.0
  0
SPLINE
  5
156
100
AcDbEntity
  8
Layer_1
 62
7
100
AcDbSpline
 70
8
 71
3
 72
8
 73
4
 74
0
 40
0
 40
0
 40
0
 40
0
 40
1
 40
1
 40
1
 40
1
 10
19.489095
 20
66.206117
 30
0.0
 10
18.354004
 20
66.441203
 30
0.0
 10
17.177831
 20
66.690758
 30
0.0
 10
16.875379
 20
66.760687
 30
0.0
  0
SPLINE
  5
157
100
AcDbEntity
  8
Layer_1
 62
7
100
AcDbSpline
 70
8
 71
3
 72
8
 73
4
 74
0
 40
0
 40
0
 40
0
 40
0
 40
1
 40
1
 40
1
 40
1
 10
16.875379
 20
66.760687
 30
0.0
 10
16.344823
 20
66.883355
 30
0.0
 10
16.325467
 20
66.985581
 30
0.0
 10
16.325467
 20
69.664979
 30
0.0
  0
LINE
  5
158
100
AcDbEntity
  8
Layer_1
 62
7
100
AcDbLine
 10
16.325467
 20
69.664979
 30
0.0
 11
16.325467
 21
72.442128
 31
0.0
  0
LINE
  5
159
100
AcDbEntity
  8
Layer_1
 62
7
100
AcDbLine
 10
16.325467
 20
72.442128
 30
0.0
 11
18.708422
 21
72.866962
 31
0.0
  0
SPLINE
  5
15a
100
AcDbEntity
  8
Layer_1
 62
7
100
AcDbSpline
 70
8
 71
3
 72
8
 73
4
 74
0
 40
0
 40
0
 40
0
 40
0
 40
1
 40
1
 40
1
 40
1
 10
18.708422
 20
72.866962
 30
0.0
 10
21.526745
 20
73.369417
 30
0.0
 10
21.819278
 20
73.499222
 30
0.0
 10
22.138130
 20
74.388835
 30
0.0
  0
SPLINE
  5
15b
100
AcDbEntity
  8
Layer_1
 62
7
100
AcDbSpline
 70
8
 71
3
 72
8
 73
4
 74
0
 40
0
 40
0
 40
0
 40
0
 40
1
 40
1
 40
1
 40
1
 10
22.138130
 20
74.388835
 30
0.0
 10
22.271641
 20
74.761334
 30
0.0
 10
22.600254
 20
75.616021
 30
0.0
 10
22.868383
 20
76.288136
 30
0.0
  0
LINE
  5
15c
100
AcDbEntity
  8
Layer_1
 62
7
100
AcDbLine
 10
22.868383
 20
76.288136
 30
0.0
 11
23.355887
 21
77.510164
 31
0.0
  0
LINE
  5
15d
100
AcDbEntity
  8
Layer_1
 62
7
100
AcDbLine
 10
23.355887
 20
77.510164
 30
0.0
 11
21.787961
 21
79.696709
 31
0.0
  0
LINE
  5
15e
100
AcDbEntity
  8
Layer_1
 62
7
100
AcDbLine
 10
21.787961
 20
79.696709
 30
0.0
 11
20.220035
 21
81.883254
 31
0.0
  0
LINE
  5
15f
100
AcDbEntity
  8
Layer_1
 62
7
100
AcDbLine
 10
20.220035
 20
81.883254
 30
0.0
 11
22.220378
 21
83.894042
 31
0.0
  0
LINE
  5
160
100
AcDbEntity
  8
Layer_1
 62
7
100
AcDbLine
 10
22.220378
 20
83.894042
 30
0.0
 11
24.220722
 21
85.904830
 31
0.0
  0
LINE
  5
161
100
AcDbEntity
  8
Layer_1
 62
7
100
AcDbLine
 10
24.220722
 20
85.904830
 30
0.0
 11
26.373862
 21
84.457061
 31
0.0
  0
SPLINE
  5
162
100
AcDbEntity
  8
Layer_1
 62
7
100
AcDbSpline
 70
8
 71
3
 72
8
 73
4
 74
0
 40
0
 40
0
 40
0
 40
0
 40
1
 40
1
 40
1
 40
1
 10
26.373862
 20
84.457061
 30
0.0
 10
27.558088
 20
83.660791
 30
0.0
 10
28.695035
 20
83.009295
 30
0.0
 10
28.900414
 20
83.009295
 30
0.0
  0
SPLINE
  5
163
100
AcDbEntity
  8
Layer_1
 62
7
100
AcDbSpline
 70
8
 71
3
 72
8
 73
4
 74
0
 40
0
 40
0
 40
0
 40
0
 40
1
 40
1
 40
1
 40
1
 10
28.900414
 20
83.009295
 30
0.0
 10
29.105789
 20
83.009295
 30
0.0
 10
29.998326
 20
83.299332
 30
0.0
 10
30.883823
 20
83.653820
 30
0.0
  0
SPLINE
  5
164
100
AcDbEntity
  8
Layer_1
 62
7
100
AcDbSpline
 70
8
 71
3
 72
8
 73
4
 74
0
 40
0
 40
0
 40
0
 40
0
 40
1
 40
1
 40
1
 40
1
 10
30.883823
 20
83.653820
 30
0.0
 10
32.707591
 20
84.383924
 30
0.0
 10
32.801820
 20
84.325710
 30
0.0
 10
33.305933
 20
87.591901
 30
0.0
  0
LINE
  5
165
100
AcDbEntity
  8
Layer_1
 62
7
100
AcDbLine
 10
33.305933
 20
87.591901
 30
0.0
 11
34.140964
 21
93.002127
 31
0.0
  0
SPLINE
  5
166
100
AcDbEntity
  8
Layer_1
 62
7
100
AcDbSpline
 70
8
 71
3
 72
8
 73
4
 74
0
 40
0
 40
0
 40
0
 40
0
 40
1
 40
1
 40
1
 40
1
 10
34.140964
 20
93.002127
 30
0.0
 10
34.197965
 20
92.996962
 30
0.0
 10
33.878830
 20
93.095260
 30
0.0
 10
33.562440
 20
93.154956
 30
0.0
  0
SPLINE
  5
167
100
AcDbEntity
  8
Layer_1
 62
7
100
AcDbSpline
 70
8
 71
3
 72
8
 73
4
 74
0
 40
0
 40
0
 40
0
 40
0
 40
1
 40
1
 40
1
 40
1
 10
33.562440
 20
93.154956
 30
0.0
 10
33.246052
 20
93.214654
 30
0.0
 10
32.941760
 20
93.238883
 30
0.0
 10
32.997270
 20
93.229070
 30
0.0
  0
SPLINE
  5
168
100
AcDbEntity
  8
Layer_1
 62
7
100
AcDbSpline
 70
8
 71
3
 72
8
 73
4
 74
0
 40
0
 40
0
 40
0
 40
0
 40
1
 40
1
 40
1
 40
1
 10
32.997270
 20
93.229070
 30
0.0
 10
33.052780
 20
93.219249
 30
0.0
 10
32.730643
 20
93.268378
 30
0.0
 10
32.133786
 20
93.241657
 30
0.0
  0
SPLINE
  5
169
100
AcDbEntity
  8
Layer_1
 62
7
100
AcDbSpline
 70
8
 71
3
 72
8
 73
4
 74
0
 40
0
 40
0
 40
0
 40
0
 40
1
 40
1
 40
1
 40
1
 10
32.133786
 20
93.241657
 30
0.0
 10
31.536928
 20
93.214931
 30
0.0
 10
30.665660
 20
93.103439
 30
0.0
 10
30.721122
 20
93.110921
 30
0.0
  0
SPLINE
  5
16a
100
AcDbEntity
  8
Layer_1
 62
7
100
AcDbSpline
 70
8
 71
3
 72
8
 73
4
 74
0
 40
0
 40
0
 40
0
 40
0
 40
1
 40
1
 40
1
 40
1
 10
30.721122
 20
93.110921
 30
0.0
 10
30.780011
 20
93.118851
 30
0.0
 10
30.440447
 20
93.050886
 30
0.0
 10
30.063189
 20
92.883822
 30
0.0
  0
SPLINE
  5
16b
100
AcDbEntity
  8
Layer_1
 62
7
100
AcDbSpline
 70
8
 71
3
 72
8
 73
4
 74
0
 40
0
 40
0
 40
0
 40
0
 40
1
 40
1
 40
1
 40
1
 10
30.063189
 20
92.883822
 30
0.0
 10
29.685928
 20
92.716760
 30
0.0
 10
29.335185
 20
92.400787
 30
0.0
 10
29.375532
 20
92.439449
 30
0.0
  0
SPLINE
  5
16c
100
AcDbEntity
  8
Layer_1
 62
7
100
AcDbSpline
 70
8
 71
3
 72
8
 73
4
 74
0
 40
0
 40
0
 40
0
 40
0
 40
1
 40
1
 40
1
 40
1
 10
29.375532
 20
92.439449
 30
0.0
 10
29.458260
 20
92.518728
 30
0.0
 10
29.272270
 20
92.322586
 30
0.0
 10
29.079817
 20
92.113251
 30
0.0
  0
SPLINE
  5
16d
100
AcDbEntity
  8
Layer_1
 62
7
100
AcDbSpline
 70
8
 71
3
 72
8
 73
4
 74
0
 40
0
 40
0
 40
0
 40
0
 40
1
 40
1
 40
1
 40
1
 10
29.079817
 20
92.113251
 30
0.0
 10
28.887364
 20
91.903915
 30
0.0
 10
28.730660
 20
91.593042
 30
0.0
 10
28.706341
 20
91.542598
 30
0.0
  0
SPLINE
  5
16e
100
AcDbEntity
  8
Layer_1
 62
7
100
AcDbSpline
 70
8
 71
3
 72
8
 73
4
 74
0
 40
0
 40
0
 40
0
 40
0
 40
1
 40
1
 40
1
 40
1
 10
28.706341
 20
91.542598
 30
0.0
 10
28.664987
 20
91.456825
 30
0.0
 10
28.540608
 20
91.190198
 30
0.0
 10
28.341213
 20
91.004067
 30
0.0
  0
SPLINE
  5
16f
100
AcDbEntity
  8
Layer_1
 62
7
100
AcDbSpline
 70
8
 71
3
 72
8
 73
4
 74
0
 40
0
 40
0
 40
0
 40
0
 40
1
 40
1
 40
1
 40
1
 10
28.341213
 20
91.004067
 30
0.0
 10
28.141817
 20
90.817936
 30
0.0
 10
28.018930
 20
90.779350
 30
0.0
 10
27.965651
 20
90.761404
 30
0.0
  0
SPLINE
  5
170
100
AcDbEntity
  8
Layer_1
 62
7
100
AcDbSpline
 70
8
 71
3
 72
8
 73
4
 74
0
 40
0
 40
0
 40
0
 40
0
 40
1
 40
1
 40
1
 40
1
 10
27.965651
 20
90.761404
 30
0.0
 10
27.889280
 20
90.735693
 30
0.0
 10
27.680232
 20
90.694300
 30
0.0
 10
27.396216
 20
90.705487
 30
0.0
  0
SPLINE
  5
171
100
AcDbEntity
  8
Layer_1
 62
7
100
AcDbSpline
 70
8
 71
3
 72
8
 73
4
 74
0
 40
0
 40
0
 40
0
 40
0
 40
1
 40
1
 40
1
 40
1
 10
27.396216
 20
90.705487
 30
0.0
 10
27.112200
 20
90.716691
 30
0.0
 10
27.037323
 20
90.712147
 30
0.0
 10
26.978781
 20
90.711018
 30
0.0
  0
SPLINE
  5
172
100
AcDbEntity
  8
Layer_1
 62
7
100
AcDbSpline
 70
8
 71
3
 72
8
 73
4
 74
0
 40
0
 40
0
 40
0
 40
0
 40
1
 40
1
 40
1
 40
1
 10
26.978781
 20
90.711018
 30
0.0
 10
26.962056
 20
90.710736
 30
0.0
 10
26.944963
 20
90.709890
 30
0.0
 10
26.929731
 20
90.709325
 30
0.0
  0
SPLINE
  5
173
100
AcDbEntity
  8
Layer_1
 62
7
100
AcDbSpline
 70
8
 71
3
 72
8
 73
4
 74
0
 40
0
 40
0
 40
0
 40
0
 40
1
 40
1
 40
1
 40
1
 10
26.929731
 20
90.709325
 30
0.0
 10
26.900397
 20
90.708196
 30
0.0
 10
26.871062
 20
90.707914
 30
0.0
 10
26.844110
 20
90.707067
 30
0.0
  0
SPLINE
  5
174
100
AcDbEntity
  8
Layer_1
 62
7
100
AcDbSpline
 70
8
 71
3
 72
8
 73
4
 74
0
 40
0
 40
0
 40
0
 40
0
 40
1
 40
1
 40
1
 40
1
 10
26.844110
 20
90.707067
 30
0.0
 10
26.827094
 20
90.706785
 30
0.0
 10
26.808786
 20
90.706503
 30
0.0
 10
26.789294
 20
90.706221
 30
0.0
  0
SPLINE
  5
175
100
AcDbEntity
  8
Layer_1
 62
7
100
AcDbSpline
 70
8
 71
3
 72
8
 73
4
 74
0
 40
0
 40
0
 40
0
 40
0
 40
1
 40
1
 40
1
 40
1
 10
26.789294
 20
90.706221
 30
0.0
 10
26.769801
 20
90.706060
 30
0.0
 10
26.749129
 20
90.706006
 30
0.0
 10
26.727388
 20
90.706105
 30
0.0
  0
SPLINE
  5
176
100
AcDbEntity
  8
Layer_1
 62
7
100
AcDbSpline
 70
8
 71
3
 72
8
 73
4
 74
0
 40
0
 40
0
 40
0
 40
0
 40
1
 40
1
 40
1
 40
1
 10
26.727388
 20
90.706105
 30
0.0
 10
26.705645
 20
90.706204
 30
0.0
 10
26.682837
 20
90.706387
 30
0.0
 10
26.659073
 20
90.706952
 30
0.0
  0
SPLINE
  5
177
100
AcDbEntity
  8
Layer_1
 62
7
100
AcDbSpline
 70
8
 71
3
 72
8
 73
4
 74
0
 40
0
 40
0
 40
0
 40
0
 40
1
 40
1
 40
1
 40
1
 10
26.659073
 20
90.706952
 30
0.0
 10
26.635310
 20
90.707516
 30
0.0
 10
26.610593
 20
90.708081
 30
0.0
 10
26.585036
 20
90.708927
 30
0.0
  0
SPLINE
  5
178
100
AcDbEntity
  8
Layer_1
 62
7
100
AcDbSpline
 70
8
 71
3
 72
8
 73
4
 74
0
 40
0
 40
0
 40
0
 40
0
 40
1
 40
1
 40
1
 40
1
 10
26.585036
 20
90.708927
 30
0.0
 10
26.559478
 20
90.709774
 30
0.0
 10
26.535109
 20
90.710338
 30
0.0
 10
26.511918
 20
90.710621
 30
0.0
  0
SPLINE
  5
179
100
AcDbEntity
  8
Layer_1
 62
7
100
AcDbSpline
 70
8
 71
3
 72
8
 73
4
 74
0
 40
0
 40
0
 40
0
 40
0
 40
1
 40
1
 40
1
 40
1
 10
26.511918
 20
90.710621
 30
0.0
 10
26.488728
 20
90.710872
 30
0.0
 10
26.466716
 20
90.710841
 30
0.0
 10
26.445875
 20
90.710598
 30
0.0
  0
SPLINE
  5
17a
100
AcDbEntity
  8
Layer_1
 62
7
100
AcDbSpline
 70
8
 71
3
 72
8
 73
4
 74
0
 40
0
 40
0
 40
0
 40
0
 40
1
 40
1
 40
1
 40
1
 10
26.445875
 20
90.710598
 30
0.0
 10
26.425036
 20
90.710355
 30
0.0
 10
26.405366
 20
90.710033
 30
0.0
 10
26.386860
 20
90.709187
 30
0.0
  0
SPLINE
  5
17b
100
AcDbEntity
  8
Layer_1
 62
7
100
AcDbSpline
 70
8
 71
3
 72
8
 73
4
 74
0
 40
0
 40
0
 40
0
 40
0
 40
1
 40
1
 40
1
 40
1
 10
26.386860
 20
90.709187
 30
0.0
 10
26.353433
 20
90.708340
 30
0.0
 10
26.321138
 20
90.705941
 30
0.0
 10
26.289712
 20
90.704389
 30
0.0
  0
SPLINE
  5
17c
100
AcDbEntity
  8
Layer_1
 62
7
100
AcDbSpline
 70
8
 71
3
 72
8
 73
4
 74
0
 40
0
 40
0
 40
0
 40
0
 40
1
 40
1
 40
1
 40
1
 10
26.289712
 20
90.704389
 30
0.0
 10
26.255832
 20
90.701849
 30
0.0
 10
26.226914
 20
90.700635
 30
0.0
 10
26.195468
 20
90.698745
 30
0.0
  0
SPLINE
  5
17d
100
AcDbEntity
  8
Layer_1
 62
7
100
AcDbSpline
 70
8
 71
3
 72
8
 73
4
 74
0
 40
0
 40
0
 40
0
 40
0
 40
1
 40
1
 40
1
 40
1
 10
26.195468
 20
90.698745
 30
0.0
 10
26.186203
 20
90.698482
 30
0.0
 10
26.194340
 20
90.722903
 30
0.0
 10
26.208168
 20
90.759504
 30
0.0
  0
SPLINE
  5
17e
100
AcDbEntity
  8
Layer_1
 62
7
100
AcDbSpline
 70
8
 71
3
 72
8
 73
4
 74
0
 40
0
 40
0
 40
0
 40
0
 40
1
 40
1
 40
1
 40
1
 10
26.208168
 20
90.759504
 30
0.0
 10
26.221052
 20
90.793619
 30
0.0
 10
26.248658
 20
90.850532
 30
0.0
 10
26.267090
 20
90.922756
 30
0.0
  0
SPLINE
  5
17f
100
AcDbEntity
  8
Layer_1
 62
7
100
AcDbSpline
 70
8
 71
3
 72
8
 73
4
 74
0
 40
0
 40
0
 40
0
 40
0
 40
1
 40
1
 40
1
 40
1
 10
26.267090
 20
90.922756
 30
0.0
 10
26.285522
 20
90.994979
 30
0.0
 10
26.318167
 20
91.066920
 30
0.0
 10
26.348930
 20
91.166954
 30
0.0
  0
SPLINE
  5
180
100
AcDbEntity
  8
Layer_1
 62
7
100
AcDbSpline
 70
8
 71
3
 72
8
 73
4
 74
0
 40
0
 40
0
 40
0
 40
0
 40
1
 40
1
 40
1
 40
1
 10
26.348930
 20
91.166954
 30
0.0
 10
26.379693
 20
91.266985
 30
0.0
 10
26.427282
 20
91.396663
 30
0.0
 10
26.469364
 20
91.518882
 30
0.0
  0
SPLINE
  5
181
100
AcDbEntity
  8
Layer_1
 62
7
100
AcDbSpline
 70
8
 71
3
 72
8
 73
4
 74
0
 40
0
 40
0
 40
0
 40
0
 40
1
 40
1
 40
1
 40
1
 10
26.469364
 20
91.518882
 30
0.0
 10
26.511447
 20
91.641099
 30
0.0
 10
26.555818
 20
91.762090
 30
0.0
 10
26.608208
 20
91.900870
 30
0.0
  0
SPLINE
  5
182
100
AcDbEntity
  8
Layer_1
 62
7
100
AcDbSpline
 70
8
 71
3
 72
8
 73
4
 74
0
 40
0
 40
0
 40
0
 40
0
 40
1
 40
1
 40
1
 40
1
 10
26.608208
 20
91.900870
 30
0.0
 10
26.660598
 20
92.039650
 30
0.0
 10
26.700740
 20
92.194663
 30
0.0
 10
26.762426
 20
92.344382
 30
0.0
  0
SPLINE
  5
183
100
AcDbEntity
  8
Layer_1
 62
7
100
AcDbSpline
 70
8
 71
3
 72
8
 73
4
 74
0
 40
0
 40
0
 40
0
 40
0
 40
1
 40
1
 40
1
 40
1
 10
26.762426
 20
92.344382
 30
0.0
 10
26.824113
 20
92.494104
 30
0.0
 10
26.860573
 20
92.649448
 30
0.0
 10
26.930544
 20
92.804486
 30
0.0
  0
SPLINE
  5
184
100
AcDbEntity
  8
Layer_1
 62
7
100
AcDbSpline
 70
8
 71
3
 72
8
 73
4
 74
0
 40
0
 40
0
 40
0
 40
0
 40
1
 40
1
 40
1
 40
1
 10
26.930544
 20
92.804486
 30
0.0
 10
27.000516
 20
92.959522
 30
0.0
 10
27.063464
 20
93.117372
 30
0.0
 10
27.140709
 20
93.272106
 30
0.0
  0
SPLINE
  5
185
100
AcDbEntity
  8
Layer_1
 62
7
100
AcDbSpline
 70
8
 71
3
 72
8
 73
4
 74
0
 40
0
 40
0
 40
0
 40
0
 40
1
 40
1
 40
1
 40
1
 10
27.140709
 20
93.272106
 30
0.0
 10
27.295199
 20
93.581571
 30
0.0
 10
27.401732
 20
93.902051
 30
0.0
 10
27.581251
 20
94.181832
 30
0.0
  0
SPLINE
  5
186
100
AcDbEntity
  8
Layer_1
 62
7
100
AcDbSpline
 70
8
 71
3
 72
8
 73
4
 74
0
 40
0
 40
0
 40
0
 40
0
 40
1
 40
1
 40
1
 40
1
 10
27.581251
 20
94.181832
 30
0.0
 10
27.760771
 20
94.461616
 30
0.0
 10
27.933460
 20
94.725644
 30
0.0
 10
28.097678
 20
94.942867
 30
0.0
  0
SPLINE
  5
187
100
AcDbEntity
  8
Layer_1
 62
7
100
AcDbSpline
 70
8
 71
3
 72
8
 73
4
 74
0
 40
0
 40
0
 40
0
 40
0
 40
1
 40
1
 40
1
 40
1
 10
28.097678
 20
94.942867
 30
0.0
 10
28.261894
 20
95.160094
 30
0.0
 10
28.525611
 20
95.362766
 30
0.0
 10
28.634196
 20
95.484562
 30
0.0
  0
SPLINE
  5
188
100
AcDbEntity
  8
Layer_1
 62
7
100
AcDbSpline
 70
8
 71
3
 72
8
 73
4
 74
0
 40
0
 40
0
 40
0
 40
0
 40
1
 40
1
 40
1
 40
1
 10
28.634196
 20
95.484562
 30
0.0
 10
28.742778
 20
95.606358
 30
0.0
 10
29.256592
 20
96.047880
 30
0.0
 10
29.349988
 20
96.103469
 30
0.0
  0
SPLINE
  5
189
100
AcDbEntity
  8
Layer_1
 62
7
100
AcDbSpline
 70
8
 71
3
 72
8
 73
4
 74
0
 40
0
 40
0
 40
0
 40
0
 40
1
 40
1
 40
1
 40
1
 10
29.349988
 20
96.103469
 30
0.0
 10
29.581577
 20
96.241310
 30
0.0
 10
30.044009
 20
96.684867
 30
0.0
 10
31.202715
 20
97.001498
 30
0.0
  0
SPLINE
  5
18a
100
AcDbEntity
  8
Layer_1
 62
7
100
AcDbSpline
 70
8
 71
3
 72
8
 73
4
 74
0
 40
0
 40
0
 40
0
 40
0
 40
1
 40
1
 40
1
 40
1
 10
31.202715
 20
97.001498
 30
0.0
 10
31.562472
 20
97.099804
 30
0.0
 10
31.934441
 20
97.146117
 30
0.0
 10
32.306562
 20
97.194216
 30
0.0
  0
SPLINE
  5
18b
100
AcDbEntity
  8
Layer_1
 62
7
100
AcDbSpline
 70
8
 71
3
 72
8
 73
4
 74
0
 40
0
 40
0
 40
0
 40
0
 40
1
 40
1
 40
1
 40
1
 10
32.306562
 20
97.194216
 30
0.0
 10
32.678686
 20
97.242315
 30
0.0
 10
32.852278
 20
97.237283
 30
0.0
 10
33.174192
 20
97.261238
 30
0.0
  0
SPLINE
  5
18c
100
AcDbEntity
  8
Layer_1
 62
7
100
AcDbSpline
 70
8
 71
3
 72
8
 73
4
 74
0
 40
0
 40
0
 40
0
 40
0
 40
1
 40
1
 40
1
 40
1
 10
33.174192
 20
97.261238
 30
0.0
 10
33.506224
 20
97.285933
 30
0.0
 10
33.840214
 20
97.297159
 30
0.0
 10
34.043058
 20
97.300199
 30
0.0
  0
SPLINE
  5
18d
100
AcDbEntity
  8
Layer_1
 62
7
100
AcDbSpline
 70
8
 71
3
 72
8
 73
4
 74
0
 40
0
 40
0
 40
0
 40
0
 40
1
 40
1
 40
1
 40
1
 10
34.043058
 20
97.300199
 30
0.0
 10
34.228645
 20
97.302457
 30
0.0
 10
34.430149
 20
97.298223
 30
0.0
 10
34.574926
 20
97.286539
 30
0.0
  0
SPLINE
  5
18e
100
AcDbEntity
  8
Layer_1
 62
7
100
AcDbSpline
 70
8
 71
3
 72
8
 73
4
 74
0
 40
0
 40
0
 40
0
 40
0
 40
1
 40
1
 40
1
 40
1
 10
34.574926
 20
97.286539
 30
0.0
 10
34.696730
 20
97.273727
 30
0.0
 10
34.772563
 20
97.277141
 30
0.0
 10
34.859273
 20
97.263792
 30
0.0
  0
SPLINE
  5
18f
100
AcDbEntity
  8
Layer_1
 62
7
100
AcDbSpline
 70
8
 71
3
 72
8
 73
4
 74
0
 40
0
 40
0
 40
0
 40
0
 40
1
 40
1
 40
1
 40
1
 10
34.859273
 20
97.263792
 30
0.0
 10
34.945357
 20
97.250528
 30
0.0
 10
35.119643
 20
97.228052
 30
0.0
 10
35.222124
 20
97.203352
 30
0.0
  0
SPLINE
  5
190
100
AcDbEntity
  8
Layer_1
 62
7
100
AcDbSpline
 70
8
 71
3
 72
8
 73
4
 74
0
 40
0
 40
0
 40
0
 40
0
 40
1
 40
1
 40
1
 40
1
 10
35.222124
 20
97.203352
 30
0.0
 10
35.324604
 20
97.178657
 30
0.0
 10
35.397798
 20
97.135105
 30
0.0
 10
35.506273
 20
97.109208
 30
0.0
  0
SPLINE
  5
191
100
AcDbEntity
  8
Layer_1
 62
7
100
AcDbSpline
 70
8
 71
3
 72
8
 73
4
 74
0
 40
0
 40
0
 40
0
 40
0
 40
1
 40
1
 40
1
 40
1
 10
35.506273
 20
97.109208
 30
0.0
 10
35.940176
 20
97.005618
 30
0.0
 10
36.294763
 20
96.849270
 30
0.0
 10
36.345532
 20
96.823890
 30
0.0
  0
SPLINE
  5
192
100
AcDbEntity
  8
Layer_1
 62
7
100
AcDbSpline
 70
8
 71
3
 72
8
 73
4
 74
0
 40
0
 40
0
 40
0
 40
0
 40
1
 40
1
 40
1
 40
1
 10
36.345532
 20
96.823890
 30
0.0
 10
36.396303
 20
96.798518
 30
0.0
 10
36.384797
 20
96.782716
 30
0.0
 10
37.021973
 20
96.492826
 30
0.0
  0
SPLINE
  5
193
100
AcDbEntity
  8
Layer_1
 62
7
100
AcDbSpline
 70
8
 71
3
 72
8
 73
4
 74
0
 40
0
 40
0
 40
0
 40
0
 40
1
 40
1
 40
1
 40
1
 10
37.021973
 20
96.492826
 30
0.0
 10
37.659149
 20
96.202939
 30
0.0
 10
37.854269
 20
96.117575
 30
0.0
 10
37.905481
 20
96.093414
 30
0.0
  0
SPLINE
  5
194
100
AcDbEntity
  8
Layer_1
 62
7
100
AcDbSpline
 70
8
 71
3
 72
8
 73
4
 74
0
 40
0
 40
0
 40
0
 40
0
 40
1
 40
1
 40
1
 40
1
 10
37.905481
 20
96.093414
 30
0.0
 10
37.918294
 20
96.087374
 30
0.0
 10
38.432249
 20
95.868948
 30
0.0
 10
38.504653
 20
95.848626
 30
0.0
  0
SPLINE
  5
195
100
AcDbEntity
  8
Layer_1
 62
7
100
AcDbSpline
 70
8
 71
3
 72
8
 73
4
 74
0
 40
0
 40
0
 40
0
 40
0
 40
1
 40
1
 40
1
 40
1
 10
38.504653
 20
95.848626
 30
0.0
 10
38.577060
 20
95.828306
 30
0.0
 10
38.882636
 20
95.659511
 30
0.0
 10
38.997622
 20
95.629012
 30
0.0
  0
SPLINE
  5
196
100
AcDbEntity
  8
Layer_1
 62
7
100
AcDbSpline
 70
8
 71
3
 72
8
 73
4
 74
0
 40
0
 40
0
 40
0
 40
0
 40
1
 40
1
 40
1
 40
1
 10
38.997622
 20
95.629012
 30
0.0
 10
39.112605
 20
95.598512
 30
0.0
 10
39.634166
 20
95.396635
 30
0.0
 10
39.774704
 20
95.360051
 30
0.0
  0
SPLINE
  5
197
100
AcDbEntity
  8
Layer_1
 62
7
100
AcDbSpline
 70
8
 71
3
 72
8
 73
4
 74
0
 40
0
 40
0
 40
0
 40
0
 40
1
 40
1
 40
1
 40
1
 10
39.774704
 20
95.360051
 30
0.0
 10
39.915245
 20
95.323464
 30
0.0
 10
40.059895
 20
95.271634
 30
0.0
 10
40.208968
 20
95.233057
 30
0.0
  0
SPLINE
  5
198
100
AcDbEntity
  8
Layer_1
 62
7
100
AcDbSpline
 70
8
 71
3
 72
8
 73
4
 74
0
 40
0
 40
0
 40
0
 40
0
 40
1
 40
1
 40
1
 40
1
 10
40.208968
 20
95.233057
 30
0.0
 10
40.358040
 20
95.194480
 30
0.0
 10
40.485071
 20
95.164753
 30
0.0
 10
40.625649
 20
95.128279
 30
0.0
  0
SPLINE
  5
199
100
AcDbEntity
  8
Layer_1
 62
7
100
AcDbSpline
 70
8
 71
3
 72
8
 73
4
 74
0
 40
0
 40
0
 40
0
 40
0
 40
1
 40
1
 40
1
 40
1
 10
40.625649
 20
95.128279
 30
0.0
 10
40.766227
 20
95.091807
 30
0.0
 10
40.880665
 20
95.066229
 30
0.0
 10
40.995727
 20
95.035955
 30
0.0
  0
SPLINE
  5
19a
100
AcDbEntity
  8
Layer_1
 62
7
100
AcDbSpline
 70
8
 71
3
 72
8
 73
4
 74
0
 40
0
 40
0
 40
0
 40
0
 40
1
 40
1
 40
1
 40
1
 10
40.995727
 20
95.035955
 30
0.0
 10
41.110792
 20
95.005681
 30
0.0
 10
41.200019
 20
94.997167
 30
0.0
 10
41.272542
 20
94.977186
 30
0.0
  0
SPLINE
  5
19b
100
AcDbEntity
  8
Layer_1
 62
7
100
AcDbSpline
 70
8
 71
3
 72
8
 73
4
 74
0
 40
0
 40
0
 40
0
 40
0
 40
1
 40
1
 40
1
 40
1
 10
41.272542
 20
94.977186
 30
0.0
 10
41.345064
 20
94.957204
 30
0.0
 10
41.414110
 20
94.957740
 30
0.0
 10
41.503140
 20
94.941106
 30
0.0
  0
SPLINE
  5
19c
100
AcDbEntity
  8
Layer_1
 62
7
100
AcDbSpline
 70
8
 71
3
 72
8
 73
4
 74
0
 40
0
 40
0
 40
0
 40
0
 40
1
 40
1
 40
1
 40
1
 10
41.503140
 20
94.941106
 30
0.0
 10
41.633357
 20
94.919601
 30
0.0
 10
41.715727
 20
94.919516
 30
0.0
 10
41.809024
 20
94.903362
 30
0.0
  0
SPLINE
  5
19d
100
AcDbEntity
  8
Layer_1
 62
7
100
AcDbSpline
 70
8
 71
3
 72
8
 73
4
 74
0
 40
0
 40
0
 40
0
 40
0
 40
1
 40
1
 40
1
 40
1
 10
41.809024
 20
94.903362
 30
0.0
 10
41.901559
 20
94.894274
 30
0.0
 10
42.014323
 20
94.882901
 30
0.0
 10
42.127980
 20
94.876353
 30
0.0
  0
SPLINE
  5
19e
100
AcDbEntity
  8
Layer_1
 62
7
100
AcDbSpline
 70
8
 71
3
 72
8
 73
4
 74
0
 40
0
 40
0
 40
0
 40
0
 40
1
 40
1
 40
1
 40
1
 10
42.127980
 20
94.876353
 30
0.0
 10
42.241800
 20
94.869777
 30
0.0
 10
42.335896
 20
94.860746
 30
0.0
 10
42.456461
 20
94.863738
 30
0.0
  0
SPLINE
  5
19f
100
AcDbEntity
  8
Layer_1
 62
7
100
AcDbSpline
 70
8
 71
3
 72
8
 73
4
 74
0
 40
0
 40
0
 40
0
 40
0
 40
1
 40
1
 40
1
 40
1
 10
42.456461
 20
94.863738
 30
0.0
 10
42.577027
 20
94.866729
 30
0.0
 10
42.743905
 20
94.878554
 30
0.0
 10
42.857778
 20
94.881066
 30
0.0
  0
SPLINE
  5
1a0
100
AcDbEntity
  8
Layer_1
 62
7
100
AcDbSpline
 70
8
 71
3
 72
8
 73
4
 74
0
 40
0
 40
0
 40
0
 40
0
 40
1
 40
1
 40
1
 40
1
 10
42.857778
 20
94.881066
 30
0.0
 10
42.971649
 20
94.883606
 30
0.0
 10
43.086678
 20
94.895685
 30
0.0
 10
43.179173
 20
94.910937
 30
0.0
  0
SPLINE
  5
1a1
100
AcDbEntity
  8
Layer_1
 62
7
100
AcDbSpline
 70
8
 71
3
 72
8
 73
4
 74
0
 40
0
 40
0
 40
0
 40
0
 40
1
 40
1
 40
1
 40
1
 10
43.179173
 20
94.910937
 30
0.0
 10
43.279531
 20
94.927503
 30
0.0
 10
43.318594
 20
94.932668
 30
0.0
 10
43.378126
 20
94.941521
 30
0.0
  0
SPLINE
  5
1a2
100
AcDbEntity
  8
Layer_1
 62
7
100
AcDbSpline
 70
8
 71
3
 72
8
 73
4
 74
0
 40
0
 40
0
 40
0
 40
0
 40
1
 40
1
 40
1
 40
1
 10
43.378126
 20
94.941521
 30
0.0
 10
43.442712
 20
94.951145
 30
0.0
 10
43.467209
 20
94.961192
 30
0.0
 10
43.614967
 20
95.004855
 30
0.0
  0
SPLINE
  5
1a3
100
AcDbEntity
  8
Layer_1
 62
7
100
AcDbSpline
 70
8
 71
3
 72
8
 73
4
 74
0
 40
0
 40
0
 40
0
 40
0
 40
1
 40
1
 40
1
 40
1
 10
43.614967
 20
95.004855
 30
0.0
 10
43.741168
 20
95.042147
 30
0.0
 10
43.804800
 20
95.047834
 30
0.0
 10
43.929450
 20
95.102145
 30
0.0
  0
SPLINE
  5
1a4
100
AcDbEntity
  8
Layer_1
 62
7
100
AcDbSpline
 70
8
 71
3
 72
8
 73
4
 74
0
 40
0
 40
0
 40
0
 40
0
 40
1
 40
1
 40
1
 40
1
 10
43.929450
 20
95.102145
 30
0.0
 10
44.044246
 20
95.152163
 30
0.0
 10
44.047410
 20
95.140476
 30
0.0
 10
44.249927
 20
95.241159
 30
0.0
  0
SPLINE
  5
1a5
100
AcDbEntity
  8
Layer_1
 62
7
100
AcDbSpline
 70
8
 71
3
 72
8
 73
4
 74
0
 40
0
 40
0
 40
0
 40
0
 40
1
 40
1
 40
1
 40
1
 10
44.249927
 20
95.241159
 30
0.0
 10
44.452444
 20
95.341842
 30
0.0
 10
44.726595
 20
95.541864
 30
0.0
 10
44.937957
 20
95.726062
 30
0.0
  0
SPLINE
  5
1a6
100
AcDbEntity
  8
Layer_1
 62
7
100
AcDbSpline
 70
8
 71
3
 72
8
 73
4
 74
0
 40
0
 40
0
 40
0
 40
0
 40
1
 40
1
 40
1
 40
1
 10
44.937957
 20
95.726062
 30
0.0
 10
45.128584
 20
95.892187
 30
0.0
 10
45.282033
 20
96.111651
 30
0.0
 10
45.449905
 20
96.358449
 30
0.0
  0
SPLINE
  5
1a7
100
AcDbEntity
  8
Layer_1
 62
7
100
AcDbSpline
 70
8
 71
3
 72
8
 73
4
 74
0
 40
0
 40
0
 40
0
 40
0
 40
1
 40
1
 40
1
 40
1
 10
45.449905
 20
96.358449
 30
0.0
 10
45.625154
 20
96.616089
 30
0.0
 10
45.843771
 20
97.032743
 30
0.0
 10
46.093705
 20
97.160078
 30
0.0
  0
SPLINE
  5
1a8
100
AcDbEntity
  8
Layer_1
 62
7
100
AcDbSpline
 70
8
 71
3
 72
8
 73
4
 74
0
 40
0
 40
0
 40
0
 40
0
 40
1
 40
1
 40
1
 40
1
 10
46.093705
 20
97.160078
 30
0.0
 10
46.343641
 20
97.287414
 30
0.0
 10
46.585209
 20
97.283167
 30
0.0
 10
46.811063
 20
97.299491
 30
0.0
  0
SPLINE
  5
1a9
100
AcDbEntity
  8
Layer_1
 62
7
100
AcDbSpline
 70
8
 71
3
 72
8
 73
4
 74
0
 40
0
 40
0
 40
0
 40
0
 40
1
 40
1
 40
1
 40
1
 10
46.811063
 20
97.299491
 30
0.0
 10
47.001235
 20
97.313235
 30
0.0
 10
47.389105
 20
97.295455
 30
0.0
 10
47.522342
 20
97.266341
 30
0.0
  0
SPLINE
  5
1aa
100
AcDbEntity
  8
Layer_1
 62
7
100
AcDbSpline
 70
8
 71
3
 72
8
 73
4
 74
0
 40
0
 40
0
 40
0
 40
0
 40
1
 40
1
 40
1
 40
1
 10
47.522342
 20
97.266341
 30
0.0
 10
47.660179
 20
97.236225
 30
0.0
 10
47.739839
 20
97.180161
 30
0.0
 10
47.836153
 20
97.080303
 30
0.0
  0
SPLINE
  5
1ab
100
AcDbEntity
  8
Layer_1
 62
7
100
AcDbSpline
 70
8
 71
3
 72
8
 73
4
 74
0
 40
0
 40
0
 40
0
 40
0
 40
1
 40
1
 40
1
 40
1
 10
47.836153
 20
97.080303
 30
0.0
 10
47.923625
 20
96.989611
 30
0.0
 10
47.916603
 20
96.706195
 30
0.0
 10
47.853058
 20
96.506319
 30
0.0
  0
SPLINE
  5
1ac
100
AcDbEntity
  8
Layer_1
 62
7
100
AcDbSpline
 70
8
 71
3
 72
8
 73
4
 74
0
 40
0
 40
0
 40
0
 40
0
 40
1
 40
1
 40
1
 40
1
 10
47.853058
 20
96.506319
 30
0.0
 10
47.790789
 20
96.310451
 30
0.0
 10
47.694771
 20
95.953432
 30
0.0
 10
47.531734
 20
95.646823
 30
0.0
  0
SPLINE
  5
1ad
100
AcDbEntity
  8
Layer_1
 62
7
100
AcDbSpline
 70
8
 71
3
 72
8
 73
4
 74
0
 40
0
 40
0
 40
0
 40
0
 40
1
 40
1
 40
1
 40
1
 10
47.531734
 20
95.646823
 30
0.0
 10
47.364639
 20
95.332585
 30
0.0
 10
47.084240
 20
94.657391
 30
0.0
 10
46.855276
 20
94.289280
 30
0.0
  0
SPLINE
  5
1ae
100
AcDbEntity
  8
Layer_1
 62
7
100
AcDbSpline
 70
8
 71
3
 72
8
 73
4
 74
0
 40
0
 40
0
 40
0
 40
0
 40
1
 40
1
 40
1
 40
1
 10
46.855276
 20
94.289280
 30
0.0
 10
46.619645
 20
93.910448
 30
0.0
 10
46.448907
 20
93.617809
 30
0.0
 10
46.119003
 20
93.233430
 30
0.0
  0
SPLINE
  5
1af
100
AcDbEntity
  8
Layer_1
 62
7
100
AcDbSpline
 70
8
 71
3
 72
8
 73
4
 74
0
 40
0
 40
0
 40
0
 40
0
 40
1
 40
1
 40
1
 40
1
 10
46.119003
 20
93.233430
 30
0.0
 10
45.808894
 20
92.872118
 30
0.0
 10
45.658868
 20
92.697126
 30
0.0
 10
45.325524
 20
92.407194
 30
0.0
  0
SPLINE
  5
1b0
100
AcDbEntity
  8
Layer_1
 62
7
100
AcDbSpline
 70
8
 71
3
 72
8
 73
4
 74
0
 40
0
 40
0
 40
0
 40
0
 40
1
 40
1
 40
1
 40
1
 10
45.325524
 20
92.407194
 30
0.0
 10
44.989067
 20
92.114555
 30
0.0
 10
44.730766
 20
91.964209
 30
0.0
 10
44.468096
 20
91.810836
 30
0.0
  0
SPLINE
  5
1b1
100
AcDbEntity
  8
Layer_1
 62
7
100
AcDbSpline
 70
8
 71
3
 72
8
 73
4
 74
0
 40
0
 40
0
 40
0
 40
0
 40
1
 40
1
 40
1
 40
1
 10
44.468096
 20
91.810836
 30
0.0
 10
44.161134
 20
91.631599
 30
0.0
 10
44.060705
 20
91.598322
 30
0.0
 10
43.903849
 20
91.522280
 30
0.0
  0
SPLINE
  5
1b2
100
AcDbEntity
  8
Layer_1
 62
7
100
AcDbSpline
 70
8
 71
3
 72
8
 73
4
 74
0
 40
0
 40
0
 40
0
 40
0
 40
1
 40
1
 40
1
 40
1
 10
43.903849
 20
91.522280
 30
0.0
 10
43.719507
 20
91.432915
 30
0.0
 10
43.376881
 20
91.319236
 30
0.0
 10
43.225971
 20
91.255270
 30
0.0
  0
SPLINE
  5
1b3
100
AcDbEntity
  8
Layer_1
 62
7
100
AcDbSpline
 70
8
 71
3
 72
8
 73
4
 74
0
 40
0
 40
0
 40
0
 40
0
 40
1
 40
1
 40
1
 40
1
 10
43.225971
 20
91.255270
 30
0.0
 10
43.091735
 20
91.198371
 30
0.0
 10
43.065553
 20
91.204004
 30
0.0
 10
42.986331
 20
91.187000
 30
0.0
  0
SPLINE
  5
1b4
100
AcDbEntity
  8
Layer_1
 62
7
100
AcDbSpline
 70
8
 71
3
 72
8
 73
4
 74
0
 40
0
 40
0
 40
0
 40
0
 40
1
 40
1
 40
1
 40
1
 10
42.986331
 20
91.187000
 30
0.0
 10
42.888769
 20
91.166059
 30
0.0
 10
42.754426
 20
91.121567
 30
0.0
 10
42.583439
 20
91.084396
 30
0.0
  0
SPLINE
  5
1b5
100
AcDbEntity
  8
Layer_1
 62
7
100
AcDbSpline
 70
8
 71
3
 72
8
 73
4
 74
0
 40
0
 40
0
 40
0
 40
0
 40
1
 40
1
 40
1
 40
1
 10
42.583439
 20
91.084396
 30
0.0
 10
42.406906
 20
91.046016
 30
0.0
 10
42.086050
 20
90.986335
 30
0.0
 10
41.866569
 20
90.961457
 30
0.0
  0
SPLINE
  5
1b6
100
AcDbEntity
  8
Layer_1
 62
7
100
AcDbSpline
 70
8
 71
3
 72
8
 73
4
 74
0
 40
0
 40
0
 40
0
 40
0
 40
1
 40
1
 40
1
 40
1
 10
41.866569
 20
90.961457
 30
0.0
 10
41.638852
 20
90.935633
 30
0.0
 10
41.444091
 20
90.915788
 30
0.0
 10
41.199119
 20
90.902873
 30
0.0
  0
SPLINE
  5
1b7
100
AcDbEntity
  8
Layer_1
 62
7
100
AcDbSpline
 70
8
 71
3
 72
8
 73
4
 74
0
 40
0
 40
0
 40
0
 40
0
 40
1
 40
1
 40
1
 40
1
 10
41.199119
 20
90.902873
 30
0.0
 10
40.954144
 20
90.889947
 30
0.0
 10
40.689998
 20
90.895225
 30
0.0
 10
40.462807
 20
90.900333
 30
0.0
  0
SPLINE
  5
1b8
100
AcDbEntity
  8
Layer_1
 62
7
100
AcDbSpline
 70
8
 71
3
 72
8
 73
4
 74
0
 40
0
 40
0
 40
0
 40
0
 40
1
 40
1
 40
1
 40
1
 10
40.462807
 20
90.900333
 30
0.0
 10
40.233789
 20
90.905357
 30
0.0
 10
40.019949
 20
90.904115
 30
0.0
 10
39.849137
 20
90.915799
 30
0.0
  0
SPLINE
  5
1b9
100
AcDbEntity
  8
Layer_1
 62
7
100
AcDbSpline
 70
8
 71
3
 72
8
 73
4
 74
0
 40
0
 40
0
 40
0
 40
0
 40
1
 40
1
 40
1
 40
1
 10
39.849137
 20
90.915799
 30
0.0
 10
39.669108
 20
90.928132
 30
0.0
 10
39.504524
 20
90.956476
 30
0.0
 10
39.414653
 20
90.973005
 30
0.0
  0
SPLINE
  5
1ba
100
AcDbEntity
  8
Layer_1
 62
7
100
AcDbSpline
 70
8
 71
3
 72
8
 73
4
 74
0
 40
0
 40
0
 40
0
 40
0
 40
1
 40
1
 40
1
 40
1
 10
39.414653
 20
90.973005
 30
0.0
 10
39.316829
 20
90.990983
 30
0.0
 10
39.281907
 20
90.987737
 30
0.0
 10
39.295982
 20
90.985423
 30
0.0
  0
SPLINE
  5
1bb
100
AcDbEntity
  8
Layer_1
 62
7
100
AcDbSpline
 70
8
 71
3
 72
8
 73
4
 74
0
 40
0
 40
0
 40
0
 40
0
 40
1
 40
1
 40
1
 40
1
 10
39.295982
 20
90.985423
 30
0.0
 10
39.300102
 20
90.644177
 30
0.0
 10
40.396626
 20
84.859812
 30
0.0
 10
40.481766
 20
84.774669
 30
0.0
  0
SPLINE
  5
1bc
100
AcDbEntity
  8
Layer_1
 62
7
100
AcDbSpline
 70
8
 71
3
 72
8
 73
4
 74
0
 40
0
 40
0
 40
0
 40
0
 40
1
 40
1
 40
1
 40
1
 10
40.481766
 20
84.774669
 30
0.0
 10
40.698112
 20
84.558323
 30
0.0
 10
43.884082
 20
83.274254
 30
0.0
 10
44.204523
 20
83.274254
 30
0.0
  0
SPLINE
  5
1bd
100
AcDbEntity
  8
Layer_1
 62
7
100
AcDbSpline
 70
8
 71
3
 72
8
 73
4
 74
0
 40
0
 40
0
 40
0
 40
0
 40
1
 40
1
 40
1
 40
1
 10
44.204523
 20
83.274254
 30
0.0
 10
44.381589
 20
83.274254
 30
0.0
 10
45.450735
 20
83.681980
 30
0.0
 10
46.672796
 20
84.503696
 30
0.0
  0
LINE
  5
1be
100
AcDbEntity
  8
Layer_1
 62
7
100
AcDbLine
 10
46.672796
 20
84.503696
 30
0.0
 11
48.894732
 21
85.997721
 31
0.0
  0
LINE
  5
1bf
100
AcDbEntity
  8
Layer_1
 62
7
100
AcDbLine
 10
48.894732
 20
85.997721
 30
0.0
 11
50.856010
 21
84.036443
 31
0.0
  0
LINE
  5
1c0
100
AcDbEntity
  8
Layer_1
 62
7
100
AcDbLine
 10
50.856010
 20
84.036443
 30
0.0
 11
52.817288
 21
82.075165
 31
0.0
  0
LINE
  5
1c1
100
AcDbEntity
  8
Layer_1
 62
7
100
AcDbLine
 10
52.817288
 20
82.075165
 30
0.0
 11
51.299807
 21
79.709045
 31
0.0
  0
LINE
  5
1c2
100
AcDbEntity
  8
Layer_1
 62
7
100
AcDbLine
 10
51.299807
 20
79.709045
 30
0.0
 11
49.782329
 21
77.342925
 31
0.0
  0
LINE
  5
1c3
100
AcDbEntity
  8
Layer_1
 62
7
100
AcDbLine
 10
49.782329
 20
77.342925
 30
0.0
 11
50.556919
 21
75.471487
 31
0.0
  0
SPLINE
  5
1c4
100
AcDbEntity
  8
Layer_1
 62
7
100
AcDbSpline
 70
8
 71
3
 72
8
 73
4
 74
0
 40
0
 40
0
 40
0
 40
0
 40
1
 40
1
 40
1
 40
1
 10
50.556919
 20
75.471487
 30
0.0
 10
50.982945
 20
74.442197
 30
0.0
 10
51.368379
 20
73.559739
 30
0.0
 10
51.413438
 20
73.510469
 30
0.0
  0
SPLINE
  5
1c5
100
AcDbEntity
  8
Layer_1
 62
7
100
AcDbSpline
 70
8
 71
3
 72
8
 73
4
 74
0
 40
0
 40
0
 40
0
 40
0
 40
1
 40
1
 40
1
 40
1
 10
51.413438
 20
73.510469
 30
0.0
 10
51.458501
 20
73.461201
 30
0.0
 10
52.612547
 20
73.220228
 30
0.0
 10
53.977989
 20
72.974977
 30
0.0
  0
SPLINE
  5
1c6
100
AcDbEntity
  8
Layer_1
 62
7
100
AcDbSpline
 70
8
 71
3
 72
8
 73
4
 74
0
 40
0
 40
0
 40
0
 40
0
 40
1
 40
1
 40
1
 40
1
 10
53.977989
 20
72.974977
 30
0.0
 10
55.343436
 20
72.729726
 30
0.0
 10
56.510817
 20
72.478867
 30
0.0
 10
56.572173
 20
72.417509
 30
0.0
  0
SPLINE
  5
1c7
100
AcDbEntity
  8
Layer_1
 62
7
100
AcDbSpline
 70
8
 71
3
 72
8
 73
4
 74
0
 40
0
 40
0
 40
0
 40
0
 40
1
 40
1
 40
1
 40
1
 10
56.572173
 20
72.417509
 30
0.0
 10
56.633528
 20
72.356154
 30
0.0
 10
56.748003
 20
71.087678
 30
0.0
 10
56.826551
 20
69.598677
 30
0.0
  0
SPLINE
  5
1c8
100
AcDbEntity
  8
Layer_1
 62
7
100
AcDbSpline
 70
8
 71
3
 72
8
 73
4
 74
0
 40
0
 40
0
 40
0
 40
0
 40
1
 40
1
 40
1
 40
1
 10
56.826551
 20
69.598677
 30
0.0
 10
56.942406
 20
67.402539
 30
0.0
 10
56.904842
 20
66.870866
 30
0.0
 10
56.627581
 20
66.782644
 30
0.0
  0
SPLINE
  5
1c9
100
AcDbEntity
  8
Layer_1
 62
7
100
AcDbSpline
 70
8
 71
3
 72
8
 73
4
 74
0
 40
0
 40
0
 40
0
 40
0
 40
1
 40
1
 40
1
 40
1
 10
56.627581
 20
66.782644
 30
0.0
 10
56.439596
 20
66.722829
 30
0.0
 10
55.240956
 20
66.493442
 30
0.0
 10
53.963934
 20
66.272894
 30
0.0
  0
LINE
  5
1ca
100
AcDbEntity
  8
Layer_1
 62
7
100
AcDbLine
 10
53.963934
 20
66.272894
 30
0.0
 11
51.642081
 21
65.871901
 31
0.0
  0
LINE
  5
1cb
100
AcDbEntity
  8
Layer_1
 62
7
100
AcDbLine
 10
51.642081
 20
65.871901
 30
0.0
 11
50.732634
 21
63.789237
 31
0.0
  0
LINE
  5
1cc
100
AcDbEntity
  8
Layer_1
 62
7
100
AcDbLine
 10
50.732634
 20
63.789237
 30
0.0
 11
49.823189
 21
61.706575
 31
0.0
  0
LINE
  5
1cd
100
AcDbEntity
  8
Layer_1
 62
7
100
AcDbLine
 10
49.823189
 20
61.706575
 30
0.0
 11
51.310142
 21
59.495164
 31
0.0
  0
LINE
  5
1ce
100
AcDbEntity
  8
Layer_1
 62
7
100
AcDbLine
 10
51.310142
 20
59.495164
 30
0.0
 11
52.797086
 21
57.283752
 31
0.0
  0
LINE
  5
1cf
100
AcDbEntity
  8
Layer_1
 62
7
100
AcDbLine
 10
52.797086
 20
57.283752
 30
0.0
 11
50.847247
 21
55.333910
 31
0.0
  0
SPLINE
  5
1d0
100
AcDbEntity
  8
Layer_1
 62
7
100
AcDbSpline
 70
8
 71
3
 72
8
 73
4
 74
0
 40
0
 40
0
 40
0
 40
0
 40
1
 40
1
 40
1
 40
1
 10
50.847247
 20
55.333910
 30
0.0
 10
49.185088
 20
53.671751
 30
0.0
 10
48.828655
 20
53.420858
 30
0.0
 10
48.431461
 20
53.633428
 30
0.0
  0
SPLINE
  5
1d1
100
AcDbEntity
  8
Layer_1
 62
7
100
AcDbSpline
 70
8
 71
3
 72
8
 73
4
 74
0
 40
0
 40
0
 40
0
 40
0
 40
1
 40
1
 40
1
 40
1
 10
48.431461
 20
53.633428
 30
0.0
 10
48.042308
 20
53.841699
 30
0.0
 10
47.832315
 20
53.724128
 30
0.0
 10
47.157217
 20
52.920009
 30
0.0
  0
LINE
  5
1d2
100
AcDbEntity
  8
Layer_1
 62
7
100
AcDbLine
 10
47.157217
 20
52.920009
 30
0.0
 11
46.348915
 21
51.957231
 31
0.0
  0
LINE
  5
1d3
100
AcDbEntity
  8
Layer_1
 62
7
100
AcDbLine
 10
46.348915
 20
51.957231
 30
0.0
 11
48.657377
 21
48.725310
 31
0.0
  0
SPLINE
  5
1d4
100
AcDbEntity
  8
Layer_1
 62
7
100
AcDbSpline
 70
8
 71
3
 72
8
 73
4
 74
0
 40
0
 40
0
 40
0
 40
0
 40
1
 40
1
 40
1
 40
1
 10
48.657377
 20
48.725310
 30
0.0
 10
54.288998
 20
40.840876
 30
0.0
 10
58.712729
 20
35.865987
 30
0.0
 10
61.610333
 20
34.158545
 30
0.0
  0
SPLINE
  5
1d5
100
AcDbEntity
  8
Layer_1
 62
7
100
AcDbSpline
 70
8
 71
3
 72
8
 73
4
 74
0
 40
0
 40
0
 40
0
 40
0
 40
1
 40
1
 40
1
 40
1
 10
61.610333
 20
34.158545
 30
0.0
 10
65.870272
 20
31.648331
 30
0.0
 10
70.152088
 20
31.506514
 30
0.0
 10
73.561445
 20
33.762723
 30
0.0
  0
SPLINE
  5
1d6
100
AcDbEntity
  8
Layer_1
 62
7
100
AcDbSpline
 70
8
 71
3
 72
8
 73
4
 74
0
 40
0
 40
0
 40
0
 40
0
 40
1
 40
1
 40
1
 40
1
 10
73.561445
 20
33.762723
 30
0.0
 10
74.329948
 20
34.271293
 30
0.0
 10
74.494015
 20
34.522256
 30
0.0
 10
74.494015
 20
35.189215
 30
0.0
  0
SPLINE
  5
1d7
100
AcDbEntity
  8
Layer_1
 62
7
100
AcDbSpline
 70
8
 71
3
 72
8
 73
4
 74
0
 40
0
 40
0
 40
0
 40
0
 40
1
 40
1
 40
1
 40
1
 10
74.494015
 20
35.189215
 30
0.0
 10
74.494015
 20
37.003441
 30
0.0
 10
76.880031
 20
37.868556
 30
0.0
 10
78.069570
 20
36.485634
 30
0.0
  0
SPLINE
  5
1d8
100
AcDbEntity
  8
Layer_1
 62
7
100
AcDbSpline
 70
8
 71
3
 72
8
 73
4
 74
0
 40
0
 40
0
 40
0
 40
0
 40
1
 40
1
 40
1
 40
1
 10
78.069570
 20
36.485634
 30
0.0
 10
78.718190
 20
35.731567
 30
0.0
 10
78.770971
 20
35.397041
 30
0.0
 10
78.377556
 20
34.533584
 30
0.0
  0
SPLINE
  5
1d9
100
AcDbEntity
  8
Layer_1
 62
7
100
AcDbSpline
 70
8
 71
3
 72
8
 73
4
 74
0
 40
0
 40
0
 40
0
 40
0
 40
1
 40
1
 40
1
 40
1
 10
78.377556
 20
34.533584
 30
0.0
 10
78.088484
 20
33.899143
 30
0.0
 10
77.226693
 20
33.395309
 30
0.0
 10
76.430570
 20
33.395309
 30
0.0
  0
SPLINE
  5
1da
100
AcDbEntity
  8
Layer_1
 62
7
100
AcDbSpline
 70
8
 71
3
 72
8
 73
4
 74
0
 40
0
 40
0
 40
0
 40
0
 40
1
 40
1
 40
1
 40
1
 10
76.430570
 20
33.395309
 30
0.0
 10
76.164096
 20
33.395309
 30
0.0
 10
75.399621
 20
32.963368
 30
0.0
 10
74.731742
 20
32.435437
 30
0.0
  0
SPLINE
  5
1db
100
AcDbEntity
  8
Layer_1
 62
7
100
AcDbSpline
 70
8
 71
3
 72
8
 73
4
 74
0
 40
0
 40
0
 40
0
 40
0
 40
1
 40
1
 40
1
 40
1
 10
74.731742
 20
32.435437
 30
0.0
 10
72.604799
 20
30.754189
 30
0.0
 10
71.148253
 20
29.992699
 30
0.0
 10
67.406249
 20
30.348268
 30
0.0
  0
SPLINE
  5
1dc
100
AcDbEntity
  8
Layer_1
 62
7
100
AcDbSpline
 70
8
 71
3
 72
8
 73
4
 74
0
 40
0
 40
0
 40
0
 40
0
 40
1
 40
1
 40
1
 40
1
 10
67.406249
 20
30.348268
 30
0.0
 10
64.658471
 20
30.609366
 30
0.0
 10
65.016259
 20
30.519464
 30
0.0
 10
63.748886
 20
30.785496
 30
0.0
  0
SPLINE
  5
1dd
100
AcDbEntity
  8
Layer_1
 62
7
100
AcDbSpline
 70
8
 71
3
 72
8
 73
4
 74
0
 40
0
 40
0
 40
0
 40
0
 40
1
 40
1
 40
1
 40
1
 10
63.748886
 20
30.785496
 30
0.0
 10
62.942868
 20
30.954685
 30
0.0
 10
61.360744
 20
31.265121
 30
0.0
 10
60.729859
 20
31.503985
 30
0.0
  0
SPLINE
  5
1de
100
AcDbEntity
  8
Layer_1
 62
7
100
AcDbSpline
 70
8
 71
3
 72
8
 73
4
 74
0
 40
0
 40
0
 40
0
 40
0
 40
1
 40
1
 40
1
 40
1
 10
60.729859
 20
31.503985
 30
0.0
 10
60.184789
 20
31.710358
 30
0.0
 10
60.151236
 20
31.710626
 30
0.0
 10
59.637244
 20
31.894273
 30
0.0
  0
SPLINE
  5
1df
100
AcDbEntity
  8
Layer_1
 62
7
100
AcDbSpline
 70
8
 71
3
 72
8
 73
4
 74
0
 40
0
 40
0
 40
0
 40
0
 40
1
 40
1
 40
1
 40
1
 10
59.637244
 20
31.894273
 30
0.0
 10
59.022615
 20
32.113879
 30
0.0
 10
58.638652
 20
32.147060
 30
0.0
 10
58.205356
 20
31.802935
 30
0.0
  0
SPLINE
  5
1e0
100
AcDbEntity
  8
Layer_1
 62
7
100
AcDbSpline
 70
8
 71
3
 72
8
 73
4
 74
0
 40
0
 40
0
 40
0
 40
0
 40
1
 40
1
 40
1
 40
1
 10
58.205356
 20
31.802935
 30
0.0
 10
57.740431
 20
31.433692
 30
0.0
 10
57.694407
 20
30.917268
 30
0.0
 10
57.660263
 20
30.613814
 30
0.0
  0
SPLINE
  5
1e1
100
AcDbEntity
  8
Layer_1
 62
7
100
AcDbSpline
 70
8
 71
3
 72
8
 73
4
 74
0
 40
0
 40
0
 40
0
 40
0
 40
1
 40
1
 40
1
 40
1
 10
57.660263
 20
30.613814
 30
0.0
 10
57.600017
 20
30.078365
 30
0.0
 10
58.290262
 20
29.781947
 30
0.0
 10
58.721331
 20
29.598776
 30
0.0
  0
SPLINE
  5
1e2
100
AcDbEntity
  8
Layer_1
 62
7
100
AcDbSpline
 70
8
 71
3
 72
8
 73
4
 74
0
 40
0
 40
0
 40
0
 40
0
 40
1
 40
1
 40
1
 40
1
 10
58.721331
 20
29.598776
 30
0.0
 10
58.957856
 20
29.498272
 30
0.0
 10
59.610738
 20
29.242121
 30
0.0
 10
60.068652
 20
29.093302
 30
0.0
  0
SPLINE
  5
1e3
100
AcDbEntity
  8
Layer_1
 62
7
100
AcDbSpline
 70
8
 71
3
 72
8
 73
4
 74
0
 40
0
 40
0
 40
0
 40
0
 40
1
 40
1
 40
1
 40
1
 10
60.068652
 20
29.093302
 30
0.0
 10
60.566227
 20
28.931598
 30
0.0
 10
62.097062
 20
28.572989
 30
0.0
 10
63.566322
 20
28.349650
 30
0.0
  0
SPLINE
  5
1e4
100
AcDbEntity
  8
Layer_1
 62
7
100
AcDbSpline
 70
8
 71
3
 72
8
 73
4
 74
0
 40
0
 40
0
 40
0
 40
0
 40
1
 40
1
 40
1
 40
1
 10
63.566322
 20
28.349650
 30
0.0
 10
66.060808
 20
27.970467
 30
0.0
 10
69.631286
 20
27.274327
 30
0.0
 10
71.122043
 20
26.328713
 30
0.0
  0
SPLINE
  5
1e5
100
AcDbEntity
  8
Layer_1
 62
7
100
AcDbSpline
 70
8
 71
3
 72
8
 73
4
 74
0
 40
0
 40
0
 40
0
 40
0
 40
1
 40
1
 40
1
 40
1
 10
71.122043
 20
26.328713
 30
0.0
 10
73.205560
 20
25.007111
 30
0.0
 10
73.448743
 20
22.989163
 30
0.0
 10
72.691820
 20
20.564011
 30
0.0
  0
SPLINE
  5
1e6
100
AcDbEntity
  8
Layer_1
 62
7
100
AcDbSpline
 70
8
 71
3
 72
8
 73
4
 74
0
 40
0
 40
0
 40
0
 40
0
 40
1
 40
1
 40
1
 40
1
 10
72.691820
 20
20.564011
 30
0.0
 10
72.165410
 20
18.877414
 30
0.0
 10
71.011209
 20
18.051259
 30
0.0
 10
69.685989
 20
17.376931
 30
0.0
  0
SPLINE
  5
1e7
100
AcDbEntity
  8
Layer_1
 62
7
100
AcDbSpline
 70
8
 71
3
 72
8
 73
4
 74
0
 40
0
 40
0
 40
0
 40
0
 40
1
 40
1
 40
1
 40
1
 10
69.685989
 20
17.376931
 30
0.0
 10
68.177867
 20
16.609535
 30
0.0
 10
66.473708
 20
16.479437
 30
0.0
 10
64.793667
 20
18.212103
 30
0.0
  0
SPLINE
  5
1e8
100
AcDbEntity
  8
Layer_1
 62
7
100
AcDbSpline
 70
8
 71
3
 72
8
 73
4
 74
0
 40
0
 40
0
 40
0
 40
0
 40
1
 40
1
 40
1
 40
1
 10
64.793667
 20
18.212103
 30
0.0
 10
64.212143
 20
18.811845
 30
0.0
 10
63.508582
 20
20.236650
 30
0.0
 10
62.830775
 20
20.204304
 30
0.0
  0
SPLINE
  5
1e9
100
AcDbEntity
  8
Layer_1
 62
7
100
AcDbSpline
 70
8
 71
3
 72
8
 73
4
 74
0
 40
0
 40
0
 40
0
 40
0
 40
1
 40
1
 40
1
 40
1
 10
62.830775
 20
20.204304
 30
0.0
 10
61.584784
 20
20.144846
 30
0.0
 10
60.880337
 20
22.338929
 30
0.0
 10
62.068287
 20
23.265493
 30
0.0
  0
SPLINE
  5
1ea
100
AcDbEntity
  8
Layer_1
 62
7
100
AcDbSpline
 70
8
 71
3
 72
8
 73
4
 74
0
 40
0
 40
0
 40
0
 40
0
 40
1
 40
1
 40
1
 40
1
 10
62.068287
 20
23.265493
 30
0.0
 10
62.690516
 20
23.750813
 30
0.0
 10
63.912358
 20
24.071638
 30
0.0
 10
64.666038
 20
23.436237
 30
0.0
  0
SPLINE
  5
1eb
100
AcDbEntity
  8
Layer_1
 62
7
100
AcDbSpline
 70
8
 71
3
 72
8
 73
4
 74
0
 40
0
 40
0
 40
0
 40
0
 40
1
 40
1
 40
1
 40
1
 10
64.666038
 20
23.436237
 30
0.0
 10
65.494267
 20
22.737985
 30
0.0
 10
65.366643
 20
21.726642
 30
0.0
 10
65.186972
 20
21.291227
 30
0.0
  0
SPLINE
  5
1ec
100
AcDbEntity
  8
Layer_1
 62
7
100
AcDbSpline
 70
8
 71
3
 72
8
 73
4
 74
0
 40
0
 40
0
 40
0
 40
0
 40
1
 40
1
 40
1
 40
1
 10
65.186972
 20
21.291227
 30
0.0
 10
64.997104
 20
20.831103
 30
0.0
 10
66.231045
 20
19.377114
 30
0.0
 10
66.729740
 20
18.909124
 30
0.0
  0
SPLINE
  5
1ed
100
AcDbEntity
  8
Layer_1
 62
7
100
AcDbSpline
 70
8
 71
3
 72
8
 73
4
 74
0
 40
0
 40
0
 40
0
 40
0
 40
1
 40
1
 40
1
 40
1
 10
66.729740
 20
18.909124
 30
0.0
 10
68.776633
 20
16.988264
 30
0.0
 10
71.095060
 20
19.930732
 30
0.0
 10
71.095060
 20
22.862888
 30
0.0
  0
SPLINE
  5
1ee
100
AcDbEntity
  8
Layer_1
 62
7
100
AcDbSpline
 70
8
 71
3
 72
8
 73
4
 74
0
 40
0
 40
0
 40
0
 40
0
 40
1
 40
1
 40
1
 40
1
 10
71.095060
 20
22.862888
 30
0.0
 10
71.095060
 20
23.860160
 30
0.0
 10
69.319561
 20
25.191213
 30
0.0
 10
68.002508
 20
25.544138
 30
0.0
  0
SPLINE
  5
1ef
100
AcDbEntity
  8
Layer_1
 62
7
100
AcDbSpline
 70
8
 71
3
 72
8
 73
4
 74
0
 40
0
 40
0
 40
0
 40
0
 40
1
 40
1
 40
1
 40
1
 10
68.002508
 20
25.544138
 30
0.0
 10
67.472935
 20
25.686042
 30
0.0
 10
65.537540
 20
25.856408
 30
0.0
 10
63.740171
 20
26.182649
 30
0.0
  0
SPLINE
  5
1f0
100
AcDbEntity
  8
Layer_1
 62
7
100
AcDbSpline
 70
8
 71
3
 72
8
 73
4
 74
0
 40
0
 40
0
 40
0
 40
0
 40
1
 40
1
 40
1
 40
1
 10
63.740171
 20
26.182649
 30
0.0
 10
59.395425
 20
26.971265
 30
0.0
 10
56.998198
 20
27.753783
 30
0.0
 10
56.040319
 20
28.220271
 30
0.0
  0
SPLINE
  5
1f1
100
AcDbEntity
  8
Layer_1
 62
7
100
AcDbSpline
 70
8
 71
3
 72
8
 73
4
 74
0
 40
0
 40
0
 40
0
 40
0
 40
1
 40
1
 40
1
 40
1
 10
56.040319
 20
28.220271
 30
0.0
 10
54.510615
 20
28.965241
 30
0.0
 10
54.078787
 20
29.469191
 30
0.0
 10
53.676223
 20
29.836845
 30
0.0
  0
SPLINE
  5
1f2
100
AcDbEntity
  8
Layer_1
 62
7
100
AcDbSpline
 70
8
 71
3
 72
8
 73
4
 74
0
 40
0
 40
0
 40
0
 40
0
 40
1
 40
1
 40
1
 40
1
 10
53.676223
 20
29.836845
 30
0.0
 10
52.936662
 20
30.512271
 30
0.0
 10
51.212448
 20
30.895252
 30
0.0
 10
50.468657
 20
30.718104
 30
0.0
  0
SPLINE
  5
1f3
100
AcDbEntity
  8
Layer_1
 62
7
100
AcDbSpline
 70
8
 71
3
 72
8
 73
4
 74
0
 40
0
 40
0
 40
0
 40
0
 40
1
 40
1
 40
1
 40
1
 10
50.468657
 20
30.718104
 30
0.0
 10
49.558169
 20
30.501255
 30
0.0
 10
49.320837
 20
30.010011
 30
0.0
 10
49.393602
 20
28.895778
 30
0.0
  0
SPLINE
  5
1f4
100
AcDbEntity
  8
Layer_1
 62
7
100
AcDbSpline
 70
8
 71
3
 72
8
 73
4
 74
0
 40
0
 40
0
 40
0
 40
0
 40
1
 40
1
 40
1
 40
1
 10
49.393602
 20
28.895778
 30
0.0
 10
49.440711
 20
28.174426
 30
0.0
 10
49.399529
 20
27.198942
 30
0.0
 10
49.448122
 20
26.732477
 30
0.0
  0
SPLINE
  5
1f5
100
AcDbEntity
  8
Layer_1
 62
7
100
AcDbSpline
 70
8
 71
3
 72
8
 73
4
 74
0
 40
0
 40
0
 40
0
 40
0
 40
1
 40
1
 40
1
 40
1
 10
49.448122
 20
26.732477
 30
0.0
 10
49.489165
 20
26.338376
 30
0.0
 10
49.067672
 20
22.060102
 30
0.0
 10
49.433333
 20
20.793378
 30
0.0
  0
SPLINE
  5
1f6
100
AcDbEntity
  8
Layer_1
 62
7
100
AcDbSpline
 70
8
 71
3
 72
8
 73
4
 74
0
 40
0
 40
0
 40
0
 40
0
 40
1
 40
1
 40
1
 40
1
 10
49.433333
 20
20.793378
 30
0.0
 10
50.237940
 20
18.005982
 30
0.0
 10
51.459477
 20
16.778341
 30
0.0
 10
53.430108
 20
16.776634
 30
0.0
  0
SPLINE
  5
1f7
100
AcDbEntity
  8
Layer_1
 62
7
100
AcDbSpline
 70
8
 71
3
 72
8
 73
4
 74
0
 40
0
 40
0
 40
0
 40
0
 40
1
 40
1
 40
1
 40
1
 10
53.430108
 20
16.776634
 30
0.0
 10
54.623739
 20
16.775787
 30
0.0
 10
55.360192
 20
17.084222
 30
0.0
 10
55.974866
 20
17.843050
 30
0.0
  0
SPLINE
  5
1f8
100
AcDbEntity
  8
Layer_1
 62
7
100
AcDbSpline
 70
8
 71
3
 72
8
 73
4
 74
0
 40
0
 40
0
 40
0
 40
0
 40
1
 40
1
 40
1
 40
1
 10
55.974866
 20
17.843050
 30
0.0
 10
56.790573
 20
18.850055
 30
0.0
 10
56.335950
 20
21.175025
 30
0.0
 10
55.323336
 20
21.175025
 30
0.0
  0
SPLINE
  5
1f9
100
AcDbEntity
  8
Layer_1
 62
7
100
AcDbSpline
 70
8
 71
3
 72
8
 73
4
 74
0
 40
0
 40
0
 40
0
 40
0
 40
1
 40
1
 40
1
 40
1
 10
55.323336
 20
21.175025
 30
0.0
 10
53.978435
 20
21.175025
 30
0.0
 10
52.991261
 20
22.691450
 30
0.0
 10
53.586645
 20
23.842798
 30
0.0
  0
SPLINE
  5
1fa
100
AcDbEntity
  8
Layer_1
 62
7
100
AcDbSpline
 70
8
 71
3
 72
8
 73
4
 74
0
 40
0
 40
0
 40
0
 40
0
 40
1
 40
1
 40
1
 40
1
 10
53.586645
 20
23.842798
 30
0.0
 10
54.718935
 20
26.032405
 30
0.0
 10
58.051254
 20
24.846634
 30
0.0
 10
57.412388
 20
22.481451
 30
0.0
  0
SPLINE
  5
1fb
100
AcDbEntity
  8
Layer_1
 62
7
100
AcDbSpline
 70
8
 71
3
 72
8
 73
4
 74
0
 40
0
 40
0
 40
0
 40
0
 40
1
 40
1
 40
1
 40
1
 10
57.412388
 20
22.481451
 30
0.0
 10
57.274607
 20
21.971374
 30
0.0
 10
57.375651
 20
21.460351
 30
0.0
 10
57.791514
 20
20.564011
 30
0.0
  0
SPLINE
  5
1fc
100
AcDbEntity
  8
Layer_1
 62
7
100
AcDbSpline
 70
8
 71
3
 72
8
 73
4
 74
0
 40
0
 40
0
 40
0
 40
0
 40
1
 40
1
 40
1
 40
1
 10
57.791514
 20
20.564011
 30
0.0
 10
58.633123
 20
18.750022
 30
0.0
 10
58.566598
 20
17.268730
 30
0.0
 10
57.593761
 20
16.160726
 30
0.0
  0
SPLINE
  5
1fd
100
AcDbEntity
  8
Layer_1
 62
7
100
AcDbSpline
 70
8
 71
3
 72
8
 73
4
 74
0
 40
0
 40
0
 40
0
 40
0
 40
1
 40
1
 40
1
 40
1
 10
57.593761
 20
16.160726
 30
0.0
 10
56.668365
 20
15.106761
 30
0.0
 10
55.859742
 20
14.662975
 30
0.0
 10
54.226333
 20
14.312681
 30
0.0
  0
SPLINE
  5
1fe
100
AcDbEntity
  8
Layer_1
 62
7
100
AcDbSpline
 70
8
 71
3
 72
8
 73
4
 74
0
 40
0
 40
0
 40
0
 40
0
 40
1
 40
1
 40
1
 40
1
 10
54.226333
 20
14.312681
 30
0.0
 10
51.545236
 20
13.737682
 30
0.0
 10
48.840209
 20
15.360149
 30
0.0
 10
47.279839
 20
18.479148
 30
0.0
  0
SPLINE
  5
1ff
100
AcDbEntity
  8
Layer_1
 62
7
100
AcDbSpline
 70
8
 71
3
 72
8
 73
4
 74
0
 40
0
 40
0
 40
0
 40
0
 40
1
 40
1
 40
1
 40
1
 10
47.279839
 20
18.479148
 30
0.0
 10
46.046077
 20
20.945296
 30
0.0
 10
46.760311
 20
23.012353
 30
0.0
 10
46.405092
 20
27.057845
 30
0.0
  0
SPLINE
  5
200
100
AcDbEntity
  8
Layer_1
 62
7
100
AcDbSpline
 70
8
 71
3
 72
8
 73
4
 74
0
 40
0
 40
0
 40
0
 40
0
 40
1
 40
1
 40
1
 40
1
 10
46.405092
 20
27.057845
 30
0.0
 10
46.256747
 20
28.747270
 30
0.0
 10
46.365691
 20
30.934718
 30
0.0
 10
45.703944
 20
33.341035
 30
0.0
  0
SPLINE
  5
201
100
AcDbEntity
  8
Layer_1
 62
7
100
AcDbSpline
 70
8
 71
3
 72
8
 73
4
 74
0
 40
0
 40
0
 40
0
 40
0
 40
1
 40
1
 40
1
 40
1
 10
45.703944
 20
33.341035
 30
0.0
 10
45.520904
 20
34.006628
 30
0.0
 10
44.600910
 20
34.954987
 30
0.0
 10
43.921900
 20
35.020912
 30
0.0
  0
SPLINE
  5
202
100
AcDbEntity
  8
Layer_1
 62
7
100
AcDbSpline
 70
8
 71
3
 72
8
 73
4
 74
0
 40
0
 40
0
 40
0
 40
0
 40
1
 40
1
 40
1
 40
1
 10
43.921900
 20
35.020912
 30
0.0
 10
42.864165
 20
35.123607
 30
0.0
 10
42.264519
 20
34.960505
 30
0.0
 10
42.248241
 20
33.478508
 30
0.0
  0
SPLINE
  5
203
100
AcDbEntity
  8
Layer_1
 62
7
100
AcDbSpline
 70
8
 71
3
 72
8
 73
4
 74
0
 40
0
 40
0
 40
0
 40
0
 40
1
 40
1
 40
1
 40
1
 10
42.248241
 20
33.478508
 30
0.0
 10
42.232605
 20
32.056001
 30
0.0
 10
42.208171
 20
34.170692
 30
0.0
 10
42.213194
 20
31.244643
 30
0.0
  0
SPLINE
  5
204
100
AcDbEntity
  8
Layer_1
 62
7
100
AcDbSpline
 70
8
 71
3
 72
8
 73
4
 74
0
 40
0
 40
0
 40
0
 40
0
 40
1
 40
1
 40
1
 40
1
 10
42.213194
 20
31.244643
 30
0.0
 10
42.220899
 20
26.780754
 30
0.0
 10
42.305024
 20
26.140423
 30
0.0
 10
42.735918
 20
24.144547
 30
0.0
  0
SPLINE
  5
205
100
AcDbEntity
  8
Layer_1
 62
7
100
AcDbSpline
 70
8
 71
3
 72
8
 73
4
 74
0
 40
0
 40
0
 40
0
 40
0
 40
1
 40
1
 40
1
 40
1
 10
42.735918
 20
24.144547
 30
0.0
 10
43.493018
 20
20.637671
 30
0.0
 10
45.054602
 20
16.937847
 30
0.0
 10
47.409238
 20
11.887602
 30
0.0
  0
SPLINE
  5
206
100
AcDbEntity
  8
Layer_1
 62
7
100
AcDbSpline
 70
8
 71
3
 72
8
 73
4
 74
0
 40
0
 40
0
 40
0
 40
0
 40
1
 40
1
 40
1
 40
1
 10
47.409238
 20
11.887602
 30
0.0
 10
50.149142
 20
6.011030
 30
0.0
 10
49.916241
 20
4.506306
 30
0.0
 10
49.022082
 20
2.972315
 30
0.0
  0
SPLINE
  5
207
100
AcDbEntity
  8
Layer_1
 62
7
100
AcDbSpline
 70
8
 71
3
 72
8
 73
4
 74
0
 40
0
 40
0
 40
0
 40
0
 40
1
 40
1
 40
1
 40
1
 10
49.022082
 20
2.972315
 30
0.0
 10
48.617254
 20
2.277794
 30
0.0
 10
48.048703
 20
1.792174
 30
0.0
 10
47.031035
 20
1.271728
 30
0.0
  0
SPLINE
  5
208
100
AcDbEntity
  8
Layer_1
 62
7
100
AcDbSpline
 70
8
 71
3
 72
8
 73
4
 74
0
 40
0
 40
0
 40
0
 40
0
 40
1
 40
1
 40
1
 40
1
 10
47.031035
 20
1.271728
 30
0.0
 10
45.813537
 20
0.649062
 30
0.0
 10
45.451641
 20
0.630407
 30
0.0
 10
44.953648
 20
0.566512
 30
0.0
  0
SPLINE
  5
209
100
AcDbEntity
  8
Layer_1
 62
7
100
AcDbSpline
 70
8
 71
3
 72
8
 73
4
 74
0
 40
0
 40
0
 40
0
 40
0
 40
1
 40
1
 40
1
 40
1
 10
44.953648
 20
0.566512
 30
0.0
 10
44.348324
 20
0.488816
 30
0.0
 10
43.776178
 20
0.445128
 30
0.0
 10
43.269645
 20
0.485768
 30
0.0
  0
SPLINE
  5
20a
100
AcDbEntity
  8
Layer_1
 62
7
100
AcDbSpline
 70
8
 71
3
 72
8
 73
4
 74
0
 40
0
 40
0
 40
0
 40
0
 40
1
 40
1
 40
1
 40
1
 10
43.269645
 20
0.485768
 30
0.0
 10
42.680594
 20
0.533012
 30
0.0
 10
42.221170
 20
0.534536
 30
0.0
 10
41.624510
 20
0.607208
 30
0.0
  0
LINE
  5
20b
100
AcDbEntity
  8
Layer_1
 62
7
100
AcDbLine
 10
41.624510
 20
0.607208
 30
0.0
 11
41.624510
 21
0.607208
 31
0.0
  0
ENDSEC
  0
SECTION
  2
OBJECTS
  0
DICTIONARY
  5
C
330
0
100
AcDbDictionary
  3
ACAD_GROUP
350
D
  3
ACAD_MLINESTYLE
350
17
  0
DICTIONARY
  5
D
330
C
100
AcDbDictionary
  0
DICTIONARY
  5
1A
330
C
100
AcDbDictionary
  0
DICTIONARY
  5
17
330
C
100
AcDbDictionary
  3
STANDARD
350
18
  0
DICTIONARY
  5
19
330
C
100
AcDbDictionary
  0
ENDSEC
  0
EOF
