%TF.GenerationSoftware,KiCad,Pcbnew,no-vcs-found-d190aa4~59~ubuntu16.04.1*%
%TF.CreationDate,2017-09-30T09:09:17-06:00*%
%TF.ProjectId,001,3030312E6B696361645F706362000000,rev?*%
%TF.SameCoordinates,Original*%
%TF.FileFunction,Soldermask,Top*%
%TF.FilePolarity,Negative*%
%FSLAX46Y46*%
G04 Gerber Fmt 4.6, Leading zero omitted, Abs format (unit mm)*
G04 Created by KiCad (PCBNEW no-vcs-found-d190aa4~59~ubuntu16.04.1) date Sat Sep 30 09:09:17 2017*
%MOMM*%
%LPD*%
G01*
G04 APERTURE LIST*
%ADD10C,0.100000*%
G04 APERTURE END LIST*
D10*
G36*
X131837300Y-135217681D02*
X132092062Y-135269977D01*
X132331829Y-135370765D01*
X132547445Y-135516200D01*
X132730707Y-135700745D01*
X132874632Y-135917372D01*
X132973742Y-136157828D01*
X133024189Y-136412610D01*
X133024189Y-136412615D01*
X133024257Y-136412959D01*
X133020109Y-136710021D01*
X133020032Y-136710359D01*
X133020032Y-136710368D01*
X132962490Y-136963643D01*
X132856707Y-137201235D01*
X132706786Y-137413760D01*
X132518442Y-137593118D01*
X132298847Y-137732478D01*
X132056367Y-137826529D01*
X131800239Y-137871692D01*
X131540213Y-137866245D01*
X131286197Y-137810396D01*
X131047867Y-137706272D01*
X130834304Y-137557842D01*
X130653636Y-137370755D01*
X130512747Y-137152138D01*
X130417003Y-136910315D01*
X130370055Y-136654513D01*
X130373685Y-136394456D01*
X130427760Y-136140055D01*
X130530216Y-135901006D01*
X130677155Y-135686409D01*
X130862974Y-135504440D01*
X131080603Y-135362028D01*
X131321748Y-135264599D01*
X131577219Y-135215866D01*
X131837300Y-135217681D01*
X131837300Y-135217681D01*
G37*
G36*
X111223300Y-132555681D02*
X111478062Y-132607977D01*
X111717829Y-132708765D01*
X111933445Y-132854200D01*
X112116707Y-133038745D01*
X112260632Y-133255372D01*
X112359742Y-133495828D01*
X112410189Y-133750610D01*
X112410189Y-133750615D01*
X112410257Y-133750959D01*
X112406109Y-134048021D01*
X112406032Y-134048359D01*
X112406032Y-134048368D01*
X112348490Y-134301643D01*
X112242707Y-134539235D01*
X112092786Y-134751760D01*
X111904442Y-134931118D01*
X111684847Y-135070478D01*
X111442367Y-135164529D01*
X111186239Y-135209692D01*
X110926213Y-135204245D01*
X110672197Y-135148396D01*
X110433867Y-135044272D01*
X110220304Y-134895842D01*
X110039636Y-134708755D01*
X109898747Y-134490138D01*
X109803003Y-134248315D01*
X109756055Y-133992513D01*
X109759685Y-133732456D01*
X109813760Y-133478055D01*
X109916216Y-133239006D01*
X110063155Y-133024409D01*
X110248974Y-132842440D01*
X110466603Y-132700028D01*
X110707748Y-132602599D01*
X110963219Y-132553866D01*
X111223300Y-132555681D01*
X111223300Y-132555681D01*
G37*
G36*
X130969300Y-123878681D02*
X131224062Y-123930977D01*
X131463829Y-124031765D01*
X131679445Y-124177200D01*
X131862707Y-124361745D01*
X132006632Y-124578372D01*
X132105742Y-124818828D01*
X132156189Y-125073610D01*
X132156189Y-125073615D01*
X132156257Y-125073959D01*
X132152109Y-125371021D01*
X132152032Y-125371359D01*
X132152032Y-125371368D01*
X132094490Y-125624643D01*
X131988707Y-125862235D01*
X131838786Y-126074760D01*
X131650442Y-126254118D01*
X131430847Y-126393478D01*
X131188367Y-126487529D01*
X130932239Y-126532692D01*
X130672213Y-126527245D01*
X130418197Y-126471396D01*
X130179867Y-126367272D01*
X129966304Y-126218842D01*
X129785636Y-126031755D01*
X129644747Y-125813138D01*
X129549003Y-125571315D01*
X129502055Y-125315513D01*
X129505685Y-125055456D01*
X129559760Y-124801055D01*
X129662216Y-124562006D01*
X129809155Y-124347409D01*
X129994974Y-124165440D01*
X130212603Y-124023028D01*
X130453748Y-123925599D01*
X130709219Y-123876866D01*
X130969300Y-123878681D01*
X130969300Y-123878681D01*
G37*
G36*
X104222300Y-121293681D02*
X104477062Y-121345977D01*
X104716829Y-121446765D01*
X104932445Y-121592200D01*
X105115707Y-121776745D01*
X105259632Y-121993372D01*
X105358742Y-122233828D01*
X105409189Y-122488610D01*
X105409189Y-122488615D01*
X105409257Y-122488959D01*
X105405109Y-122786021D01*
X105405032Y-122786359D01*
X105405032Y-122786368D01*
X105347490Y-123039643D01*
X105241707Y-123277235D01*
X105091786Y-123489760D01*
X104903442Y-123669118D01*
X104683847Y-123808478D01*
X104441367Y-123902529D01*
X104185239Y-123947692D01*
X103925213Y-123942245D01*
X103671197Y-123886396D01*
X103432867Y-123782272D01*
X103219304Y-123633842D01*
X103038636Y-123446755D01*
X102897747Y-123228138D01*
X102802003Y-122986315D01*
X102755055Y-122730513D01*
X102758685Y-122470456D01*
X102812760Y-122216055D01*
X102915216Y-121977006D01*
X103062155Y-121762409D01*
X103247974Y-121580440D01*
X103465603Y-121438028D01*
X103706748Y-121340599D01*
X103962219Y-121291866D01*
X104222300Y-121293681D01*
X104222300Y-121293681D01*
G37*
G36*
X156922300Y-116248681D02*
X157177062Y-116300977D01*
X157416829Y-116401765D01*
X157632445Y-116547200D01*
X157815707Y-116731745D01*
X157959632Y-116948372D01*
X158058742Y-117188828D01*
X158109189Y-117443610D01*
X158109189Y-117443615D01*
X158109257Y-117443959D01*
X158105109Y-117741021D01*
X158105032Y-117741359D01*
X158105032Y-117741368D01*
X158047490Y-117994643D01*
X157941707Y-118232235D01*
X157791786Y-118444760D01*
X157603442Y-118624118D01*
X157383847Y-118763478D01*
X157141367Y-118857529D01*
X156885239Y-118902692D01*
X156625213Y-118897245D01*
X156371197Y-118841396D01*
X156132867Y-118737272D01*
X155919304Y-118588842D01*
X155738636Y-118401755D01*
X155597747Y-118183138D01*
X155502003Y-117941315D01*
X155455055Y-117685513D01*
X155458685Y-117425456D01*
X155512760Y-117171055D01*
X155615216Y-116932006D01*
X155762155Y-116717409D01*
X155947974Y-116535440D01*
X156165603Y-116393028D01*
X156406748Y-116295599D01*
X156662219Y-116246866D01*
X156922300Y-116248681D01*
X156922300Y-116248681D01*
G37*
G36*
X148942300Y-115004681D02*
X149197062Y-115056977D01*
X149436829Y-115157765D01*
X149652445Y-115303200D01*
X149835707Y-115487745D01*
X149979632Y-115704372D01*
X150078742Y-115944828D01*
X150129189Y-116199610D01*
X150129189Y-116199615D01*
X150129257Y-116199959D01*
X150125109Y-116497021D01*
X150125032Y-116497359D01*
X150125032Y-116497368D01*
X150067490Y-116750643D01*
X149961707Y-116988235D01*
X149811786Y-117200760D01*
X149623442Y-117380118D01*
X149403847Y-117519478D01*
X149161367Y-117613529D01*
X148905239Y-117658692D01*
X148645213Y-117653245D01*
X148391197Y-117597396D01*
X148152867Y-117493272D01*
X147939304Y-117344842D01*
X147758636Y-117157755D01*
X147617747Y-116939138D01*
X147522003Y-116697315D01*
X147475055Y-116441513D01*
X147478685Y-116181456D01*
X147532760Y-115927055D01*
X147635216Y-115688006D01*
X147782155Y-115473409D01*
X147967974Y-115291440D01*
X148185603Y-115149028D01*
X148426748Y-115051599D01*
X148682219Y-115002866D01*
X148942300Y-115004681D01*
X148942300Y-115004681D01*
G37*
G36*
X105127300Y-113414681D02*
X105382062Y-113466977D01*
X105621829Y-113567765D01*
X105837445Y-113713200D01*
X106020707Y-113897745D01*
X106164632Y-114114372D01*
X106263742Y-114354828D01*
X106314189Y-114609610D01*
X106314189Y-114609615D01*
X106314257Y-114609959D01*
X106310109Y-114907021D01*
X106310032Y-114907359D01*
X106310032Y-114907368D01*
X106252490Y-115160643D01*
X106146707Y-115398235D01*
X105996786Y-115610760D01*
X105808442Y-115790118D01*
X105588847Y-115929478D01*
X105346367Y-116023529D01*
X105090239Y-116068692D01*
X104830213Y-116063245D01*
X104576197Y-116007396D01*
X104337867Y-115903272D01*
X104124304Y-115754842D01*
X103943636Y-115567755D01*
X103802747Y-115349138D01*
X103707003Y-115107315D01*
X103660055Y-114851513D01*
X103663685Y-114591456D01*
X103717760Y-114337055D01*
X103820216Y-114098006D01*
X103967155Y-113883409D01*
X104152974Y-113701440D01*
X104370603Y-113559028D01*
X104611748Y-113461599D01*
X104867219Y-113412866D01*
X105127300Y-113414681D01*
X105127300Y-113414681D01*
G37*
G36*
X170026300Y-103007681D02*
X170281062Y-103059977D01*
X170520829Y-103160765D01*
X170736445Y-103306200D01*
X170919707Y-103490745D01*
X171063632Y-103707372D01*
X171162742Y-103947828D01*
X171213189Y-104202610D01*
X171213189Y-104202615D01*
X171213257Y-104202959D01*
X171209109Y-104500021D01*
X171209032Y-104500359D01*
X171209032Y-104500368D01*
X171151490Y-104753643D01*
X171045707Y-104991235D01*
X170895786Y-105203760D01*
X170707442Y-105383118D01*
X170487847Y-105522478D01*
X170245367Y-105616529D01*
X169989239Y-105661692D01*
X169729213Y-105656245D01*
X169475197Y-105600396D01*
X169236867Y-105496272D01*
X169023304Y-105347842D01*
X168842636Y-105160755D01*
X168701747Y-104942138D01*
X168606003Y-104700315D01*
X168559055Y-104444513D01*
X168562685Y-104184456D01*
X168616760Y-103930055D01*
X168719216Y-103691006D01*
X168866155Y-103476409D01*
X169051974Y-103294440D01*
X169269603Y-103152028D01*
X169510748Y-103054599D01*
X169766219Y-103005866D01*
X170026300Y-103007681D01*
X170026300Y-103007681D01*
G37*
G36*
X150483394Y-102372993D02*
X150712721Y-102420068D01*
X150928551Y-102510794D01*
X151122638Y-102641708D01*
X151287610Y-102807834D01*
X151417164Y-103002831D01*
X151506379Y-103219281D01*
X151551783Y-103448593D01*
X151551783Y-103448598D01*
X151551851Y-103448942D01*
X151548117Y-103716347D01*
X151548040Y-103716685D01*
X151548040Y-103716693D01*
X151496250Y-103944649D01*
X151401028Y-104158521D01*
X151266075Y-104349829D01*
X151096534Y-104511281D01*
X150898863Y-104636726D01*
X150680588Y-104721389D01*
X150450033Y-104762043D01*
X150215965Y-104757140D01*
X149987309Y-104706866D01*
X149772772Y-104613138D01*
X149580534Y-104479529D01*
X149417898Y-104311114D01*
X149291076Y-104114325D01*
X149204890Y-103896644D01*
X149162629Y-103666380D01*
X149165897Y-103432286D01*
X149214574Y-103203283D01*
X149306801Y-102988099D01*
X149439070Y-102794926D01*
X149606338Y-102631124D01*
X149802241Y-102502929D01*
X150019311Y-102415227D01*
X150249277Y-102371359D01*
X150483394Y-102372993D01*
X150483394Y-102372993D01*
G37*
G36*
X114048394Y-100708993D02*
X114277721Y-100756068D01*
X114493551Y-100846794D01*
X114687638Y-100977708D01*
X114852610Y-101143834D01*
X114982164Y-101338831D01*
X115071379Y-101555281D01*
X115116783Y-101784593D01*
X115116783Y-101784598D01*
X115116851Y-101784942D01*
X115113117Y-102052347D01*
X115113040Y-102052685D01*
X115113040Y-102052693D01*
X115061250Y-102280649D01*
X114966028Y-102494521D01*
X114831075Y-102685829D01*
X114661534Y-102847281D01*
X114463863Y-102972726D01*
X114245588Y-103057389D01*
X114015033Y-103098043D01*
X113780965Y-103093140D01*
X113552309Y-103042866D01*
X113337772Y-102949138D01*
X113145534Y-102815529D01*
X112982898Y-102647114D01*
X112856076Y-102450325D01*
X112769890Y-102232644D01*
X112727629Y-102002380D01*
X112730897Y-101768286D01*
X112779574Y-101539283D01*
X112871801Y-101324099D01*
X113004070Y-101130926D01*
X113171338Y-100967124D01*
X113367241Y-100838929D01*
X113584311Y-100751227D01*
X113814277Y-100707359D01*
X114048394Y-100708993D01*
X114048394Y-100708993D01*
G37*
G36*
X124022200Y-102707200D02*
X122969800Y-102707200D01*
X122969800Y-100854800D01*
X124022200Y-100854800D01*
X124022200Y-102707200D01*
X124022200Y-102707200D01*
G37*
G36*
X127422200Y-102707200D02*
X126369800Y-102707200D01*
X126369800Y-100854800D01*
X127422200Y-100854800D01*
X127422200Y-102707200D01*
X127422200Y-102707200D01*
G37*
G36*
X135564200Y-102701200D02*
X134511800Y-102701200D01*
X134511800Y-100848800D01*
X135564200Y-100848800D01*
X135564200Y-102701200D01*
X135564200Y-102701200D01*
G37*
G36*
X138964200Y-102701200D02*
X137911800Y-102701200D01*
X137911800Y-100848800D01*
X138964200Y-100848800D01*
X138964200Y-102701200D01*
X138964200Y-102701200D01*
G37*
G36*
X148353394Y-100132993D02*
X148582721Y-100180068D01*
X148798551Y-100270794D01*
X148992638Y-100401708D01*
X149157610Y-100567834D01*
X149287164Y-100762831D01*
X149376379Y-100979281D01*
X149421783Y-101208593D01*
X149421783Y-101208598D01*
X149421851Y-101208942D01*
X149418117Y-101476347D01*
X149418040Y-101476685D01*
X149418040Y-101476693D01*
X149366250Y-101704649D01*
X149271028Y-101918521D01*
X149136075Y-102109829D01*
X148966534Y-102271281D01*
X148768863Y-102396726D01*
X148550588Y-102481389D01*
X148320033Y-102522043D01*
X148085965Y-102517140D01*
X147857309Y-102466866D01*
X147642772Y-102373138D01*
X147450534Y-102239529D01*
X147287898Y-102071114D01*
X147161076Y-101874325D01*
X147074890Y-101656644D01*
X147032629Y-101426380D01*
X147035897Y-101192286D01*
X147084574Y-100963283D01*
X147176801Y-100748099D01*
X147309070Y-100554926D01*
X147476338Y-100391124D01*
X147672241Y-100262929D01*
X147889311Y-100175227D01*
X148119277Y-100131359D01*
X148353394Y-100132993D01*
X148353394Y-100132993D01*
G37*
G36*
X132852200Y-102481200D02*
X131199800Y-102481200D01*
X131199800Y-101028800D01*
X132852200Y-101028800D01*
X132852200Y-102481200D01*
X132852200Y-102481200D01*
G37*
G36*
X130652200Y-102481200D02*
X128999800Y-102481200D01*
X128999800Y-101028800D01*
X130652200Y-101028800D01*
X130652200Y-102481200D01*
X130652200Y-102481200D01*
G37*
G36*
X115938394Y-98245693D02*
X116167721Y-98292768D01*
X116383551Y-98383494D01*
X116577638Y-98514408D01*
X116742610Y-98680534D01*
X116872164Y-98875531D01*
X116961379Y-99091981D01*
X117006783Y-99321293D01*
X117006783Y-99321298D01*
X117006851Y-99321642D01*
X117003117Y-99589047D01*
X117003040Y-99589385D01*
X117003040Y-99589393D01*
X116951250Y-99817349D01*
X116856028Y-100031221D01*
X116721075Y-100222529D01*
X116551534Y-100383981D01*
X116353863Y-100509426D01*
X116135588Y-100594089D01*
X115905033Y-100634743D01*
X115670965Y-100629840D01*
X115442309Y-100579566D01*
X115227772Y-100485838D01*
X115035534Y-100352229D01*
X114872898Y-100183814D01*
X114746076Y-99987025D01*
X114659890Y-99769344D01*
X114617629Y-99539080D01*
X114620897Y-99304986D01*
X114669574Y-99075983D01*
X114761801Y-98860799D01*
X114894070Y-98667626D01*
X115061338Y-98503824D01*
X115257241Y-98375629D01*
X115474311Y-98287927D01*
X115704277Y-98244059D01*
X115938394Y-98245693D01*
X115938394Y-98245693D01*
G37*
G36*
X146383394Y-97783193D02*
X146612721Y-97830268D01*
X146828551Y-97920994D01*
X147022638Y-98051908D01*
X147187610Y-98218034D01*
X147317164Y-98413031D01*
X147406379Y-98629481D01*
X147451783Y-98858793D01*
X147451783Y-98858798D01*
X147451851Y-98859142D01*
X147448117Y-99126547D01*
X147448040Y-99126885D01*
X147448040Y-99126893D01*
X147396250Y-99354849D01*
X147301028Y-99568721D01*
X147166075Y-99760029D01*
X146996534Y-99921481D01*
X146798863Y-100046926D01*
X146580588Y-100131589D01*
X146350033Y-100172243D01*
X146115965Y-100167340D01*
X145887309Y-100117066D01*
X145672772Y-100023338D01*
X145480534Y-99889729D01*
X145317898Y-99721314D01*
X145191076Y-99524525D01*
X145104890Y-99306844D01*
X145062629Y-99076580D01*
X145065897Y-98842486D01*
X145114574Y-98613483D01*
X145206801Y-98398299D01*
X145339070Y-98205126D01*
X145506338Y-98041324D01*
X145702241Y-97913129D01*
X145919311Y-97825427D01*
X146149277Y-97781559D01*
X146383394Y-97783193D01*
X146383394Y-97783193D01*
G37*
G36*
X117589394Y-95609193D02*
X117818721Y-95656268D01*
X118034551Y-95746994D01*
X118228638Y-95877908D01*
X118393610Y-96044034D01*
X118523164Y-96239031D01*
X118612379Y-96455481D01*
X118657783Y-96684793D01*
X118657783Y-96684798D01*
X118657851Y-96685142D01*
X118654117Y-96952547D01*
X118654040Y-96952885D01*
X118654040Y-96952893D01*
X118602250Y-97180849D01*
X118507028Y-97394721D01*
X118372075Y-97586029D01*
X118202534Y-97747481D01*
X118004863Y-97872926D01*
X117786588Y-97957589D01*
X117556033Y-97998243D01*
X117321965Y-97993340D01*
X117093309Y-97943066D01*
X116878772Y-97849338D01*
X116686534Y-97715729D01*
X116523898Y-97547314D01*
X116397076Y-97350525D01*
X116310890Y-97132844D01*
X116268629Y-96902580D01*
X116271897Y-96668486D01*
X116320574Y-96439483D01*
X116412801Y-96224299D01*
X116545070Y-96031126D01*
X116712338Y-95867324D01*
X116908241Y-95739129D01*
X117125311Y-95651427D01*
X117355277Y-95607559D01*
X117589394Y-95609193D01*
X117589394Y-95609193D01*
G37*
G36*
X144429394Y-95377993D02*
X144658721Y-95425068D01*
X144874551Y-95515794D01*
X145068638Y-95646708D01*
X145233610Y-95812834D01*
X145363164Y-96007831D01*
X145452379Y-96224281D01*
X145497783Y-96453593D01*
X145497783Y-96453598D01*
X145497851Y-96453942D01*
X145494117Y-96721347D01*
X145494040Y-96721685D01*
X145494040Y-96721693D01*
X145442250Y-96949649D01*
X145347028Y-97163521D01*
X145212075Y-97354829D01*
X145042534Y-97516281D01*
X144844863Y-97641726D01*
X144626588Y-97726389D01*
X144396033Y-97767043D01*
X144161965Y-97762140D01*
X143933309Y-97711866D01*
X143718772Y-97618138D01*
X143526534Y-97484529D01*
X143363898Y-97316114D01*
X143237076Y-97119325D01*
X143150890Y-96901644D01*
X143108629Y-96671380D01*
X143111897Y-96437286D01*
X143160574Y-96208283D01*
X143252801Y-95993099D01*
X143385070Y-95799926D01*
X143552338Y-95636124D01*
X143748241Y-95507929D01*
X143965311Y-95420227D01*
X144195277Y-95376359D01*
X144429394Y-95377993D01*
X144429394Y-95377993D01*
G37*
G36*
X119098394Y-92926893D02*
X119327721Y-92973968D01*
X119543551Y-93064694D01*
X119737638Y-93195608D01*
X119902610Y-93361734D01*
X120032164Y-93556731D01*
X120121379Y-93773181D01*
X120166783Y-94002493D01*
X120166783Y-94002498D01*
X120166851Y-94002842D01*
X120163117Y-94270247D01*
X120163040Y-94270585D01*
X120163040Y-94270593D01*
X120111250Y-94498549D01*
X120016028Y-94712421D01*
X119881075Y-94903729D01*
X119711534Y-95065181D01*
X119513863Y-95190626D01*
X119295588Y-95275289D01*
X119065033Y-95315943D01*
X118830965Y-95311040D01*
X118602309Y-95260766D01*
X118387772Y-95167038D01*
X118195534Y-95033429D01*
X118032898Y-94865014D01*
X117906076Y-94668225D01*
X117819890Y-94450544D01*
X117777629Y-94220280D01*
X117780897Y-93986186D01*
X117829574Y-93757183D01*
X117921801Y-93541999D01*
X118054070Y-93348826D01*
X118221338Y-93185024D01*
X118417241Y-93056829D01*
X118634311Y-92969127D01*
X118864277Y-92925259D01*
X119098394Y-92926893D01*
X119098394Y-92926893D01*
G37*
G36*
X142595394Y-92891393D02*
X142824721Y-92938468D01*
X143040551Y-93029194D01*
X143234638Y-93160108D01*
X143399610Y-93326234D01*
X143529164Y-93521231D01*
X143618379Y-93737681D01*
X143663783Y-93966993D01*
X143663783Y-93966998D01*
X143663851Y-93967342D01*
X143660117Y-94234747D01*
X143660040Y-94235085D01*
X143660040Y-94235093D01*
X143608250Y-94463049D01*
X143513028Y-94676921D01*
X143378075Y-94868229D01*
X143208534Y-95029681D01*
X143010863Y-95155126D01*
X142792588Y-95239789D01*
X142562033Y-95280443D01*
X142327965Y-95275540D01*
X142099309Y-95225266D01*
X141884772Y-95131538D01*
X141692534Y-94997929D01*
X141529898Y-94829514D01*
X141403076Y-94632725D01*
X141316890Y-94415044D01*
X141274629Y-94184780D01*
X141277897Y-93950686D01*
X141326574Y-93721683D01*
X141418801Y-93506499D01*
X141551070Y-93313326D01*
X141718338Y-93149524D01*
X141914241Y-93021329D01*
X142131311Y-92933627D01*
X142361277Y-92889759D01*
X142595394Y-92891393D01*
X142595394Y-92891393D01*
G37*
G36*
X140772394Y-90407193D02*
X141001721Y-90454268D01*
X141217551Y-90544994D01*
X141411638Y-90675908D01*
X141576610Y-90842034D01*
X141706164Y-91037031D01*
X141795379Y-91253481D01*
X141840783Y-91482793D01*
X141840783Y-91482798D01*
X141840851Y-91483142D01*
X141837117Y-91750547D01*
X141837040Y-91750885D01*
X141837040Y-91750893D01*
X141785250Y-91978849D01*
X141690028Y-92192721D01*
X141555075Y-92384029D01*
X141385534Y-92545481D01*
X141187863Y-92670926D01*
X140969588Y-92755589D01*
X140739033Y-92796243D01*
X140504965Y-92791340D01*
X140276309Y-92741066D01*
X140061772Y-92647338D01*
X139869534Y-92513729D01*
X139706898Y-92345314D01*
X139580076Y-92148525D01*
X139493890Y-91930844D01*
X139451629Y-91700580D01*
X139454897Y-91466486D01*
X139503574Y-91237483D01*
X139595801Y-91022299D01*
X139728070Y-90829126D01*
X139895338Y-90665324D01*
X140091241Y-90537129D01*
X140308311Y-90449427D01*
X140538277Y-90405559D01*
X140772394Y-90407193D01*
X140772394Y-90407193D01*
G37*
G36*
X120515394Y-90178593D02*
X120744721Y-90225668D01*
X120960551Y-90316394D01*
X121154638Y-90447308D01*
X121319610Y-90613434D01*
X121449164Y-90808431D01*
X121538379Y-91024881D01*
X121583783Y-91254193D01*
X121583783Y-91254198D01*
X121583851Y-91254542D01*
X121580117Y-91521947D01*
X121580040Y-91522285D01*
X121580040Y-91522293D01*
X121528250Y-91750249D01*
X121433028Y-91964121D01*
X121298075Y-92155429D01*
X121128534Y-92316881D01*
X120930863Y-92442326D01*
X120712588Y-92526989D01*
X120482033Y-92567643D01*
X120247965Y-92562740D01*
X120019309Y-92512466D01*
X119804772Y-92418738D01*
X119612534Y-92285129D01*
X119449898Y-92116714D01*
X119323076Y-91919925D01*
X119236890Y-91702244D01*
X119194629Y-91471980D01*
X119197897Y-91237886D01*
X119246574Y-91008883D01*
X119338801Y-90793699D01*
X119471070Y-90600526D01*
X119638338Y-90436724D01*
X119834241Y-90308529D01*
X120051311Y-90220827D01*
X120281277Y-90176959D01*
X120515394Y-90178593D01*
X120515394Y-90178593D01*
G37*
G36*
X138984394Y-87892593D02*
X139213721Y-87939668D01*
X139429551Y-88030394D01*
X139623638Y-88161308D01*
X139788610Y-88327434D01*
X139918164Y-88522431D01*
X140007379Y-88738881D01*
X140052783Y-88968193D01*
X140052783Y-88968198D01*
X140052851Y-88968542D01*
X140049117Y-89235947D01*
X140049040Y-89236285D01*
X140049040Y-89236293D01*
X139997250Y-89464249D01*
X139902028Y-89678121D01*
X139767075Y-89869429D01*
X139597534Y-90030881D01*
X139399863Y-90156326D01*
X139181588Y-90240989D01*
X138951033Y-90281643D01*
X138716965Y-90276740D01*
X138488309Y-90226466D01*
X138273772Y-90132738D01*
X138081534Y-89999129D01*
X137918898Y-89830714D01*
X137792076Y-89633925D01*
X137705890Y-89416244D01*
X137663629Y-89185980D01*
X137666897Y-88951886D01*
X137715574Y-88722883D01*
X137807801Y-88507699D01*
X137940070Y-88314526D01*
X138107338Y-88150724D01*
X138303241Y-88022529D01*
X138520311Y-87934827D01*
X138750277Y-87890959D01*
X138984394Y-87892593D01*
X138984394Y-87892593D01*
G37*
G36*
X121882394Y-87420193D02*
X122111721Y-87467268D01*
X122327551Y-87557994D01*
X122521638Y-87688908D01*
X122686610Y-87855034D01*
X122816164Y-88050031D01*
X122905379Y-88266481D01*
X122950783Y-88495793D01*
X122950783Y-88495798D01*
X122950851Y-88496142D01*
X122947117Y-88763547D01*
X122947040Y-88763885D01*
X122947040Y-88763893D01*
X122895250Y-88991849D01*
X122800028Y-89205721D01*
X122665075Y-89397029D01*
X122495534Y-89558481D01*
X122297863Y-89683926D01*
X122079588Y-89768589D01*
X121849033Y-89809243D01*
X121614965Y-89804340D01*
X121386309Y-89754066D01*
X121171772Y-89660338D01*
X120979534Y-89526729D01*
X120816898Y-89358314D01*
X120690076Y-89161525D01*
X120603890Y-88943844D01*
X120561629Y-88713580D01*
X120564897Y-88479486D01*
X120613574Y-88250483D01*
X120705801Y-88035299D01*
X120838070Y-87842126D01*
X121005338Y-87678324D01*
X121201241Y-87550129D01*
X121418311Y-87462427D01*
X121648277Y-87418559D01*
X121882394Y-87420193D01*
X121882394Y-87420193D01*
G37*
G36*
X118113394Y-82763193D02*
X118342721Y-82810268D01*
X118558551Y-82900994D01*
X118752638Y-83031908D01*
X118917610Y-83198034D01*
X119047164Y-83393031D01*
X119136379Y-83609481D01*
X119181783Y-83838793D01*
X119181783Y-83838798D01*
X119181851Y-83839142D01*
X119178117Y-84106547D01*
X119178040Y-84106885D01*
X119178040Y-84106893D01*
X119126250Y-84334849D01*
X119031028Y-84548721D01*
X118896075Y-84740029D01*
X118726534Y-84901481D01*
X118528863Y-85026926D01*
X118310588Y-85111589D01*
X118080033Y-85152243D01*
X117845965Y-85147340D01*
X117617309Y-85097066D01*
X117402772Y-85003338D01*
X117210534Y-84869729D01*
X117047898Y-84701314D01*
X116921076Y-84504525D01*
X116834890Y-84286844D01*
X116792629Y-84056580D01*
X116795897Y-83822486D01*
X116844574Y-83593483D01*
X116936801Y-83378299D01*
X117069070Y-83185126D01*
X117236338Y-83021324D01*
X117432241Y-82893129D01*
X117649311Y-82805427D01*
X117879277Y-82761559D01*
X118113394Y-82763193D01*
X118113394Y-82763193D01*
G37*
G36*
X115923394Y-80643193D02*
X116152721Y-80690268D01*
X116368551Y-80780994D01*
X116562638Y-80911908D01*
X116727610Y-81078034D01*
X116857164Y-81273031D01*
X116946379Y-81489481D01*
X116991783Y-81718793D01*
X116991783Y-81718798D01*
X116991851Y-81719142D01*
X116988117Y-81986547D01*
X116988040Y-81986885D01*
X116988040Y-81986893D01*
X116936250Y-82214849D01*
X116841028Y-82428721D01*
X116706075Y-82620029D01*
X116536534Y-82781481D01*
X116338863Y-82906926D01*
X116120588Y-82991589D01*
X115890033Y-83032243D01*
X115655965Y-83027340D01*
X115427309Y-82977066D01*
X115212772Y-82883338D01*
X115020534Y-82749729D01*
X114857898Y-82581314D01*
X114731076Y-82384525D01*
X114644890Y-82166844D01*
X114602629Y-81936580D01*
X114605897Y-81702486D01*
X114654574Y-81473483D01*
X114746801Y-81258299D01*
X114879070Y-81065126D01*
X115046338Y-80901324D01*
X115242241Y-80773129D01*
X115459311Y-80685427D01*
X115689277Y-80641559D01*
X115923394Y-80643193D01*
X115923394Y-80643193D01*
G37*
G36*
X111922800Y-72083400D02*
X109970400Y-72083400D01*
X109970400Y-70731000D01*
X111922800Y-70731000D01*
X111922800Y-72083400D01*
X111922800Y-72083400D01*
G37*
G36*
X116799600Y-72083400D02*
X114847200Y-72083400D01*
X114847200Y-70731000D01*
X116799600Y-70731000D01*
X116799600Y-72083400D01*
X116799600Y-72083400D01*
G37*
G36*
X144810800Y-72078400D02*
X142858400Y-72078400D01*
X142858400Y-70726000D01*
X144810800Y-70726000D01*
X144810800Y-72078400D01*
X144810800Y-72078400D01*
G37*
G36*
X149687600Y-72078400D02*
X147735200Y-72078400D01*
X147735200Y-70726000D01*
X149687600Y-70726000D01*
X149687600Y-72078400D01*
X149687600Y-72078400D01*
G37*
G36*
X116799600Y-68781400D02*
X114847200Y-68781400D01*
X114847200Y-67429000D01*
X116799600Y-67429000D01*
X116799600Y-68781400D01*
X116799600Y-68781400D01*
G37*
G36*
X111922800Y-68781400D02*
X109970400Y-68781400D01*
X109970400Y-67429000D01*
X111922800Y-67429000D01*
X111922800Y-68781400D01*
X111922800Y-68781400D01*
G37*
G36*
X149687600Y-68776400D02*
X147735200Y-68776400D01*
X147735200Y-67424000D01*
X149687600Y-67424000D01*
X149687600Y-68776400D01*
X149687600Y-68776400D01*
G37*
G36*
X144810800Y-68776400D02*
X142858400Y-68776400D01*
X142858400Y-67424000D01*
X144810800Y-67424000D01*
X144810800Y-68776400D01*
X144810800Y-68776400D01*
G37*
G36*
X119905199Y-61399574D02*
X118948908Y-62355865D01*
X117568353Y-60975310D01*
X118524644Y-60019019D01*
X119905199Y-61399574D01*
X119905199Y-61399574D01*
G37*
G36*
X142261647Y-60833010D02*
X140881092Y-62213565D01*
X139924801Y-61257274D01*
X141305356Y-59876719D01*
X142261647Y-60833010D01*
X142261647Y-60833010D01*
G37*
G36*
X122240065Y-59064708D02*
X121283774Y-60020999D01*
X119903219Y-58640444D01*
X120859510Y-57684153D01*
X122240065Y-59064708D01*
X122240065Y-59064708D01*
G37*
G36*
X139926781Y-58498144D02*
X138546226Y-59878699D01*
X137589935Y-58922408D01*
X138970490Y-57541853D01*
X139926781Y-58498144D01*
X139926781Y-58498144D01*
G37*
G36*
X116456781Y-57951156D02*
X115500490Y-58907447D01*
X114119935Y-57526892D01*
X115076226Y-56570601D01*
X116456781Y-57951156D01*
X116456781Y-57951156D01*
G37*
G36*
X145710065Y-57384592D02*
X144329510Y-58765147D01*
X143373219Y-57808856D01*
X144753774Y-56428301D01*
X145710065Y-57384592D01*
X145710065Y-57384592D01*
G37*
G36*
X129057200Y-56889400D02*
X127704800Y-56889400D01*
X127704800Y-54937000D01*
X129057200Y-54937000D01*
X129057200Y-56889400D01*
X129057200Y-56889400D01*
G37*
G36*
X132359200Y-56889400D02*
X131006800Y-56889400D01*
X131006800Y-54937000D01*
X132359200Y-54937000D01*
X132359200Y-56889400D01*
X132359200Y-56889400D01*
G37*
G36*
X118791647Y-55616290D02*
X117835356Y-56572581D01*
X116454801Y-55192026D01*
X117411092Y-54235735D01*
X118791647Y-55616290D01*
X118791647Y-55616290D01*
G37*
G36*
X143375199Y-55049726D02*
X141994644Y-56430281D01*
X141038353Y-55473990D01*
X142418908Y-54093435D01*
X143375199Y-55049726D01*
X143375199Y-55049726D01*
G37*
G36*
X129057200Y-52012600D02*
X127704800Y-52012600D01*
X127704800Y-50060200D01*
X129057200Y-50060200D01*
X129057200Y-52012600D01*
X129057200Y-52012600D01*
G37*
G36*
X132359200Y-52012600D02*
X131006800Y-52012600D01*
X131006800Y-50060200D01*
X132359200Y-50060200D01*
X132359200Y-52012600D01*
X132359200Y-52012600D01*
G37*
G36*
X130817103Y-43453013D02*
X131369628Y-43566431D01*
X131889613Y-43785012D01*
X132357233Y-44100426D01*
X132754683Y-44500660D01*
X133066823Y-44970470D01*
X133281767Y-45491961D01*
X133391256Y-46044925D01*
X133391256Y-46044930D01*
X133391324Y-46045274D01*
X133382328Y-46689528D01*
X133382251Y-46689866D01*
X133382251Y-46689874D01*
X133257364Y-47239566D01*
X133027945Y-47754850D01*
X132702806Y-48215763D01*
X132294335Y-48604745D01*
X131818090Y-48906979D01*
X131292208Y-49110955D01*
X130736729Y-49208902D01*
X130172799Y-49197088D01*
X129621903Y-49075966D01*
X129105025Y-48850148D01*
X128641858Y-48528238D01*
X128250034Y-48122493D01*
X127944481Y-47648368D01*
X127736838Y-47123920D01*
X127635017Y-46569141D01*
X127642892Y-46005143D01*
X127760166Y-45453414D01*
X127982368Y-44934975D01*
X128301040Y-44469567D01*
X128704039Y-44074921D01*
X129176020Y-43766066D01*
X129699001Y-43554767D01*
X130253059Y-43449076D01*
X130817103Y-43453013D01*
X130817103Y-43453013D01*
G37*
M02*
