%TF.GenerationSoftware,KiCad,Pcbnew,4.0.7-e2-6376~58~ubuntu16.04.1*%
%TF.CreationDate,2018-02-19T14:40:51-07:00*%
%TF.ProjectId,001,3030312E6B696361645F706362000000,rev?*%
%TF.FileFunction,Legend,Top*%
%FSLAX46Y46*%
G04 Gerber Fmt 4.6, Leading zero omitted, Abs format (unit mm)*
G04 Created by KiCad (PCBNEW 4.0.7-e2-6376~58~ubuntu16.04.1) date Mon Feb 19 14:40:51 2018*
%MOMM*%
%LPD*%
G01*
G04 APERTURE LIST*
%ADD10C,0.100000*%
%ADD11C,1.000000*%
%ADD12C,0.495744*%
%ADD13C,0.050000*%
%ADD14C,0.152400*%
%ADD15C,0.120000*%
%ADD16C,0.150000*%
G04 APERTURE END LIST*
D10*
D11*
X154127201Y-112058724D02*
X154127201Y-113011105D01*
X153174820Y-112630152D02*
X154127201Y-113011105D01*
X155079581Y-112630152D01*
X153555772Y-113773010D02*
X154127201Y-113011105D01*
X154698629Y-113773010D01*
D12*
X136271035Y-61362287D02*
X130722202Y-71565701D01*
X130722202Y-71565701D02*
X130585667Y-71582268D01*
X130585667Y-71582268D02*
X121032110Y-64260435D01*
X121032110Y-64260435D02*
X120163207Y-75201371D01*
X120163207Y-75201371D02*
X118156317Y-76374064D01*
X118156317Y-76374064D02*
X116250048Y-77669815D01*
X116250048Y-77669815D02*
X114448359Y-79081986D01*
X114448359Y-79081986D02*
X112755210Y-80603972D01*
X112755210Y-80603972D02*
X111174563Y-82229126D01*
X111174563Y-82229126D02*
X109710374Y-83950841D01*
X109710374Y-83950841D02*
X108366605Y-85762471D01*
X108366605Y-85762471D02*
X107147215Y-87657400D01*
X107147215Y-87657400D02*
X106056165Y-89628990D01*
X106056165Y-89628990D02*
X105097414Y-91670635D01*
X105097414Y-91670635D02*
X104274922Y-93775688D01*
X104274922Y-93775688D02*
X103592648Y-95937534D01*
X103592648Y-95937534D02*
X103054553Y-98149545D01*
X103054553Y-98149545D02*
X102664594Y-100405096D01*
X102664594Y-100405096D02*
X102426736Y-102697548D01*
X102426736Y-102697548D02*
X102344935Y-105020286D01*
X102344935Y-105020286D02*
X102510944Y-108373038D01*
X102510944Y-108373038D02*
X103002833Y-111669008D01*
X103002833Y-111669008D02*
X103811388Y-114885944D01*
X103811388Y-114885944D02*
X104927396Y-118001608D01*
X104927396Y-118001608D02*
X106341640Y-120993758D01*
X106341640Y-120993758D02*
X108044907Y-123840143D01*
X108044907Y-123840143D02*
X110027981Y-126518513D01*
X110027981Y-126518513D02*
X112281649Y-129006648D01*
X112281649Y-129006648D02*
X114770093Y-131260035D01*
X114770093Y-131260035D02*
X117448809Y-133242855D01*
X117448809Y-133242855D02*
X120295551Y-134945911D01*
X120295551Y-134945911D02*
X123288073Y-136359977D01*
X123288073Y-136359977D02*
X126404129Y-137475838D01*
X126404129Y-137475838D02*
X129621472Y-138284298D01*
X129621472Y-138284298D02*
X132917856Y-138776122D01*
X132917856Y-138776122D02*
X136271036Y-138942113D01*
X136271036Y-138942113D02*
X139624210Y-138776112D01*
X139624210Y-138776112D02*
X142920589Y-138284288D01*
X142920589Y-138284288D02*
X146137927Y-137475828D01*
X146137927Y-137475828D02*
X149253977Y-136359957D01*
X149253977Y-136359957D02*
X152246492Y-134945881D01*
X152246492Y-134945881D02*
X155093228Y-133242835D01*
X155093228Y-133242835D02*
X157771938Y-131260006D01*
X157771938Y-131260006D02*
X160260376Y-129006618D01*
X160260376Y-129006618D02*
X162514039Y-126518494D01*
X162514039Y-126518494D02*
X164497108Y-123840113D01*
X164497108Y-123840113D02*
X166200370Y-120993738D01*
X166200370Y-120993738D02*
X167614611Y-118001598D01*
X167614611Y-118001598D02*
X168730616Y-114885935D01*
X168730616Y-114885935D02*
X169539169Y-111668998D01*
X169539169Y-111668998D02*
X170031057Y-108373038D01*
X170031057Y-108373038D02*
X170197065Y-105020286D01*
X170197065Y-105020286D02*
X170116921Y-102695604D01*
X170116921Y-102695604D02*
X169880450Y-100401157D01*
X169880450Y-100401157D02*
X169491618Y-98143584D01*
X169491618Y-98143584D02*
X168954389Y-95929539D01*
X168954389Y-95929539D02*
X168272732Y-93765669D01*
X168272732Y-93765669D02*
X167450613Y-91658602D01*
X167450613Y-91658602D02*
X166491997Y-89614983D01*
X166491997Y-89614983D02*
X165400854Y-87641468D01*
X165400854Y-87641468D02*
X164181148Y-85744704D01*
X164181148Y-85744704D02*
X162836848Y-83931309D01*
X162836848Y-83931309D02*
X161371919Y-82207957D01*
X161371919Y-82207957D02*
X159790329Y-80581265D01*
X159790329Y-80581265D02*
X158096045Y-79057900D01*
X158096045Y-79057900D02*
X156293031Y-77644489D01*
X156293031Y-77644489D02*
X154385256Y-76347687D01*
X154385256Y-76347687D02*
X152376687Y-75174121D01*
X152376687Y-75174121D02*
X151509891Y-64260435D01*
X151509891Y-64260435D02*
X141920352Y-71609885D01*
X141920352Y-71609885D02*
X141836964Y-71597287D01*
X141836964Y-71597287D02*
X136271037Y-61362317D01*
X136271037Y-61362317D02*
X136271035Y-61362287D01*
D10*
G36*
X135585866Y-78468424D02*
X135351963Y-78205961D01*
X135067954Y-77986362D01*
X134744542Y-77811036D01*
X134392436Y-77681312D01*
X134022336Y-77598579D01*
X133644949Y-77564157D01*
X133270982Y-77579433D01*
X132911137Y-77645798D01*
X132352772Y-77808496D01*
X131891706Y-78009287D01*
X131455646Y-78318374D01*
X130972295Y-78805942D01*
X130794347Y-79140881D01*
X130754716Y-79484887D01*
X130830436Y-79808021D01*
X130998529Y-80080256D01*
X131236016Y-80271632D01*
X131519921Y-80352083D01*
X131827269Y-80291770D01*
X131982552Y-80199415D01*
X132135081Y-80060604D01*
X132334158Y-79837354D01*
X132510532Y-79609651D01*
X133014892Y-80144904D01*
X133484907Y-80685197D01*
X133102899Y-81012011D01*
X132759126Y-81369736D01*
X132457500Y-81754990D01*
X132201938Y-82164438D01*
X131996356Y-82594747D01*
X131844664Y-83042546D01*
X131750781Y-83504491D01*
X131718621Y-83977238D01*
X131726656Y-90315563D01*
X133044988Y-90507197D01*
X134280286Y-90643022D01*
X134920997Y-90929125D01*
X135602213Y-91126503D01*
X135597452Y-91374275D01*
X135168610Y-91746106D01*
X133357639Y-91603397D01*
X131650346Y-91374384D01*
X131057906Y-91233619D01*
X130281961Y-91099411D01*
X129840157Y-91116970D01*
X129382970Y-91246545D01*
X128958511Y-91507490D01*
X128773586Y-91693272D01*
X128614887Y-91919160D01*
X128427332Y-92331376D01*
X128100428Y-92582848D01*
X127823940Y-92887918D01*
X126239414Y-92518071D01*
X126016455Y-92189381D01*
X125726421Y-91918684D01*
X125658132Y-91548837D01*
X125507468Y-91225981D01*
X125283712Y-90967118D01*
X124996145Y-90789243D01*
X124060310Y-90424127D01*
X123204354Y-90136199D01*
X121681576Y-89741076D01*
X120326808Y-89502152D01*
X119039050Y-89317750D01*
X119070725Y-89207251D01*
X119185236Y-88835340D01*
X119221643Y-88623211D01*
X119223924Y-88378316D01*
X119184641Y-88140543D01*
X119105559Y-87918474D01*
X118989939Y-87719757D01*
X118841029Y-87552089D01*
X118666962Y-87422434D01*
X118478212Y-87331170D01*
X118083712Y-87254985D01*
X117692534Y-87307362D01*
X117330741Y-87479623D01*
X117038996Y-87765389D01*
X116932102Y-87948819D01*
X116857970Y-88158221D01*
X116676145Y-88836203D01*
X116030189Y-88646701D01*
X115790248Y-88597002D01*
X115556135Y-88594026D01*
X115123528Y-88703920D01*
X113616051Y-88309967D01*
X113304087Y-88268799D01*
X112999305Y-88292309D01*
X112715047Y-88375240D01*
X112464659Y-88512861D01*
X112261482Y-88700101D01*
X112118859Y-88932000D01*
X112050134Y-89203560D01*
X112068654Y-89509811D01*
X111809719Y-89646548D01*
X111619274Y-89849233D01*
X111494716Y-90097462D01*
X111433440Y-90370926D01*
X111432843Y-90649192D01*
X111490339Y-90911953D01*
X111603325Y-91138804D01*
X111769196Y-91309388D01*
X111648240Y-91598645D01*
X111622517Y-91869193D01*
X111677920Y-92117402D01*
X111800388Y-92339630D01*
X111975832Y-92532226D01*
X112190166Y-92691561D01*
X112429312Y-92813994D01*
X112679184Y-92895834D01*
X114119178Y-93250434D01*
X114416254Y-93484854D01*
X114793489Y-93631670D01*
X116076331Y-93933803D01*
X117162498Y-94241016D01*
X119025248Y-94840104D01*
X119939588Y-95114779D01*
X120924994Y-95357234D01*
X122039935Y-95555555D01*
X123342879Y-95697847D01*
X123374325Y-95702807D01*
X123512100Y-95715604D01*
X123894426Y-95717588D01*
X124140054Y-95682670D01*
X124408945Y-95597159D01*
X124670873Y-95437288D01*
X124895611Y-95179309D01*
X124941382Y-95098659D01*
X125326034Y-94994261D01*
X125677333Y-94806952D01*
X127561634Y-95232877D01*
X127824415Y-95668434D01*
X128171959Y-96031834D01*
X127939333Y-96259170D01*
X127740153Y-96517388D01*
X127578317Y-96803153D01*
X127457718Y-97113104D01*
X124591537Y-97820420D01*
X124236237Y-97639469D01*
X123848770Y-97542253D01*
X123623536Y-97262033D01*
X123350686Y-97056014D01*
X123044660Y-96934078D01*
X122719895Y-96906004D01*
X121719411Y-96996276D01*
X120824841Y-97120058D01*
X119285567Y-97445106D01*
X117966322Y-97835091D01*
X116731351Y-98244014D01*
X116710439Y-98130995D01*
X116647209Y-97747032D01*
X116585259Y-97540894D01*
X116478086Y-97320680D01*
X116336930Y-97125345D01*
X116167136Y-96961794D01*
X115975045Y-96835443D01*
X115766998Y-96751718D01*
X115553394Y-96713229D01*
X115343776Y-96716205D01*
X114956691Y-96823837D01*
X114629834Y-97045023D01*
X114382740Y-97360499D01*
X114248944Y-97746357D01*
X114235017Y-97958208D01*
X114261989Y-98178710D01*
X114401424Y-98866652D01*
X113738740Y-98984879D01*
X113501825Y-99047375D01*
X113291393Y-99149918D01*
X112953180Y-99441110D01*
X111428002Y-99760415D01*
X111085339Y-99884008D01*
X110801796Y-100050842D01*
X110581577Y-100253161D01*
X110428893Y-100483146D01*
X110347946Y-100733041D01*
X110342887Y-100995028D01*
X110418051Y-101261350D01*
X110577580Y-101524191D01*
X110407641Y-101769145D01*
X110319969Y-102035001D01*
X110307241Y-102307474D01*
X110362148Y-102572248D01*
X110477367Y-102815050D01*
X110645570Y-103021555D01*
X110859432Y-103177458D01*
X111111635Y-103268523D01*
X111178645Y-103577819D01*
X111292858Y-103828904D01*
X111448272Y-104024824D01*
X111638886Y-104168615D01*
X111858698Y-104263351D01*
X112101708Y-104312058D01*
X112361915Y-104318010D01*
X112633319Y-104283587D01*
X114080473Y-103959114D01*
X114450878Y-104036589D01*
X114854004Y-103999786D01*
X115327272Y-103850748D01*
X115897885Y-103716739D01*
X117263182Y-103474919D01*
X118813948Y-103236650D01*
X120414243Y-102964287D01*
X121928123Y-102620172D01*
X122610175Y-102409441D01*
X123219645Y-102166649D01*
X123739539Y-101887094D01*
X124152866Y-101566063D01*
X124442632Y-101198864D01*
X124535870Y-100996476D01*
X124591849Y-100780776D01*
X124933167Y-100484029D01*
X125188822Y-100110124D01*
X128026535Y-99411925D01*
X128328577Y-99668972D01*
X128667816Y-99869802D01*
X129036685Y-100010061D01*
X129427628Y-100085453D01*
X129561069Y-100330775D01*
X129728523Y-100537408D01*
X130142524Y-100851902D01*
X130623736Y-101063694D01*
X131126269Y-101207514D01*
X130981654Y-101570775D01*
X130901887Y-101983774D01*
X130885242Y-102425938D01*
X130930030Y-102876673D01*
X131034526Y-103315366D01*
X131197019Y-103721451D01*
X131415799Y-104074305D01*
X131689152Y-104353365D01*
X131708744Y-104367253D01*
X131200069Y-104543303D01*
X130701887Y-104801421D01*
X130351806Y-105100628D01*
X130074285Y-105499978D01*
X129902444Y-105983846D01*
X129866504Y-106252608D01*
X129869381Y-106536657D01*
X129878805Y-106957077D01*
X129851594Y-107412187D01*
X129746976Y-108402451D01*
X129674838Y-109459576D01*
X129688220Y-109998251D01*
X129754446Y-110535677D01*
X129901048Y-110915812D01*
X130101468Y-111180983D01*
X130346706Y-111346766D01*
X130627760Y-111428705D01*
X130935628Y-111442494D01*
X131261310Y-111403509D01*
X131930104Y-111229770D01*
X132219169Y-111643950D01*
X130943015Y-114442759D01*
X130609723Y-114469146D01*
X130303888Y-114553962D01*
X130025798Y-114684995D01*
X129775738Y-114850074D01*
X129360867Y-115233541D01*
X129061577Y-115606781D01*
X128508588Y-116098159D01*
X127923140Y-116675602D01*
X127378735Y-117268064D01*
X126948874Y-117804547D01*
X124479570Y-122074135D01*
X123269381Y-124147762D01*
X122140937Y-126143924D01*
X121735018Y-126456444D01*
X121448967Y-126785441D01*
X121236348Y-127188074D01*
X121050729Y-127721522D01*
X121000306Y-127943105D01*
X121095171Y-128147268D01*
X121241919Y-128499914D01*
X121349527Y-128730197D01*
X121502648Y-128974011D01*
X121261873Y-129414826D01*
X122893654Y-130356294D01*
X123706094Y-130775900D01*
X124511756Y-131145945D01*
X125316737Y-131117177D01*
X126627426Y-131651707D01*
X127853983Y-132150038D01*
X128700637Y-132035660D01*
X129072763Y-131944595D01*
X129411469Y-131813839D01*
X129586941Y-131659286D01*
X129726106Y-131442444D01*
X129909772Y-130892251D01*
X129990977Y-130304055D01*
X129998219Y-129818620D01*
X130881090Y-127595290D01*
X131690382Y-125385153D01*
X133332194Y-120736701D01*
X133349723Y-120688093D01*
X133357857Y-120637104D01*
X133494878Y-119272459D01*
X133531632Y-118000457D01*
X133418320Y-117574542D01*
X133562079Y-117159529D01*
X133624486Y-116670741D01*
X133595063Y-116332925D01*
X133511358Y-116014206D01*
X133380167Y-115718014D01*
X133208308Y-115447803D01*
X134660845Y-112328201D01*
X135154884Y-112102561D01*
X135577208Y-111772959D01*
X135912178Y-111356002D01*
X136144149Y-110868275D01*
X137274110Y-110835241D01*
X137516202Y-111353561D01*
X137873710Y-111792551D01*
X138327750Y-112132539D01*
X138859439Y-112353835D01*
X140296050Y-115493445D01*
X140133315Y-115758339D01*
X140009362Y-116047487D01*
X139930419Y-116357626D01*
X139902722Y-116685492D01*
X139965148Y-117174191D01*
X140108896Y-117589135D01*
X139995525Y-118015218D01*
X140051493Y-119396162D01*
X140177548Y-120702775D01*
X141891367Y-125478282D01*
X142712576Y-127743872D01*
X143529052Y-129833281D01*
X143531532Y-130309828D01*
X143585309Y-130756050D01*
X143911663Y-131727317D01*
X144356442Y-131909547D01*
X144797031Y-132037476D01*
X145673319Y-132164640D01*
X147008159Y-131645288D01*
X148210562Y-131131839D01*
X149015541Y-131160607D01*
X150698891Y-130338100D01*
X152265422Y-129429418D01*
X152024593Y-128988494D01*
X152299444Y-128479618D01*
X152543314Y-127958312D01*
X152287511Y-127258575D01*
X152142457Y-126930531D01*
X151966105Y-126623784D01*
X151386201Y-126158566D01*
X150159546Y-123964441D01*
X148920370Y-121820064D01*
X146590752Y-117837343D01*
X146114600Y-117239147D01*
X145605935Y-116687813D01*
X144585919Y-115664674D01*
X144259449Y-115552271D01*
X143952501Y-115135561D01*
X143556767Y-114799224D01*
X143085234Y-114565013D01*
X142550902Y-114454623D01*
X141233149Y-111617592D01*
X141513909Y-111200040D01*
X142125175Y-111256782D01*
X142788619Y-111210257D01*
X143100410Y-111124350D01*
X143377855Y-110983952D01*
X143605149Y-110779481D01*
X143766503Y-110501364D01*
X143830517Y-110243484D01*
X143846101Y-109986397D01*
X143780699Y-109475200D01*
X143667798Y-108969012D01*
X143604916Y-108469034D01*
X143652988Y-107129973D01*
X143641679Y-106422964D01*
X143559155Y-105697088D01*
X143486907Y-105428207D01*
X143374105Y-105184234D01*
X143228022Y-104970656D01*
X143055950Y-104792999D01*
X142767570Y-104597585D01*
X142462789Y-104453696D01*
X141836049Y-104252399D01*
X142052026Y-104035964D01*
X142230166Y-103782181D01*
X142484605Y-103203508D01*
X142622680Y-102598209D01*
X142667707Y-102048056D01*
X142621708Y-101610514D01*
X142549302Y-101387166D01*
X142430787Y-101172884D01*
X142949878Y-101010216D01*
X143442259Y-100773504D01*
X143865837Y-100447494D01*
X144038671Y-100246207D01*
X144178519Y-100016847D01*
X144507846Y-99921912D01*
X144817645Y-99780245D01*
X145103145Y-99594522D01*
X145359579Y-99367444D01*
X148197688Y-100065693D01*
X148453818Y-100438089D01*
X148797474Y-100734965D01*
X148803724Y-100995881D01*
X148903101Y-101241113D01*
X149085221Y-101470890D01*
X149339587Y-101685430D01*
X150023106Y-102069681D01*
X150869732Y-102395623D01*
X151795545Y-102665030D01*
X152716618Y-102879649D01*
X154208849Y-103151626D01*
X156143374Y-103445645D01*
X157252612Y-103654788D01*
X158535645Y-103956138D01*
X158938774Y-103992941D01*
X159309174Y-103915466D01*
X160756271Y-104239820D01*
X161280680Y-104278012D01*
X161522741Y-104235753D01*
X161748694Y-104146870D01*
X161977495Y-103951843D01*
X162145312Y-103736291D01*
X162247140Y-103495652D01*
X162277952Y-103225381D01*
X162539556Y-103080103D01*
X162756150Y-102878072D01*
X162918466Y-102638038D01*
X163017220Y-102378719D01*
X163036078Y-102151273D01*
X162998749Y-101909920D01*
X162919369Y-101678526D01*
X162812056Y-101480969D01*
X162976678Y-101101797D01*
X163020058Y-100770042D01*
X162964089Y-100484664D01*
X162830724Y-100244630D01*
X162641872Y-100048908D01*
X162419460Y-99896457D01*
X161961654Y-99717253D01*
X160436590Y-99397938D01*
X160097286Y-99123322D01*
X159753493Y-98974185D01*
X158988231Y-98823480D01*
X159127668Y-98135528D01*
X159154631Y-97915037D01*
X159140703Y-97703185D01*
X159006906Y-97317327D01*
X158759815Y-97001861D01*
X158432959Y-96780655D01*
X157976298Y-96683042D01*
X157558082Y-96742562D01*
X157196955Y-96945446D01*
X156911559Y-97278073D01*
X156806577Y-97507553D01*
X156739855Y-97741377D01*
X156658233Y-98201397D01*
X155423279Y-97792465D01*
X154104035Y-97402450D01*
X152564770Y-97077402D01*
X151670212Y-96953610D01*
X150669748Y-96863338D01*
X150344963Y-96891412D01*
X150038897Y-97013348D01*
X149766008Y-97219387D01*
X149540759Y-97499627D01*
X149153414Y-97596843D01*
X148798219Y-97777724D01*
X145905571Y-97063950D01*
X145784585Y-96761043D01*
X145623824Y-96481567D01*
X145427067Y-96228656D01*
X145198091Y-96005417D01*
X145548131Y-95636214D01*
X145811053Y-95194080D01*
X147616814Y-94785862D01*
X148027116Y-95006820D01*
X148482002Y-95113599D01*
X148587337Y-95328942D01*
X148773942Y-95490658D01*
X149031893Y-95603538D01*
X149351272Y-95672283D01*
X150134635Y-95696687D01*
X151044678Y-95602149D01*
X152002045Y-95426843D01*
X152927375Y-95208920D01*
X154364510Y-94798113D01*
X156227294Y-94199015D01*
X157313477Y-93891802D01*
X158596330Y-93589669D01*
X158973507Y-93442853D01*
X159270521Y-93208423D01*
X159903731Y-93078600D01*
X160556974Y-92920297D01*
X161138747Y-92685986D01*
X161374238Y-92525471D01*
X161557549Y-92328112D01*
X161695916Y-92063020D01*
X161747778Y-91793960D01*
X161720280Y-91526755D01*
X161620556Y-91267238D01*
X161787800Y-90999844D01*
X161884679Y-90679607D01*
X161910679Y-90357058D01*
X161865295Y-90082681D01*
X161647913Y-89730273D01*
X161321194Y-89467720D01*
X161357720Y-89070246D01*
X161275830Y-88760563D01*
X161101881Y-88530112D01*
X160862231Y-88370370D01*
X160583241Y-88272757D01*
X160291265Y-88228811D01*
X160012665Y-88229645D01*
X159773799Y-88267440D01*
X158266263Y-88661452D01*
X157841193Y-88544704D01*
X157466881Y-88566925D01*
X156713702Y-88792763D01*
X156531877Y-88114791D01*
X156457874Y-87903902D01*
X156351308Y-87716870D01*
X156060338Y-87422603D01*
X155698701Y-87248626D01*
X155306129Y-87211624D01*
X154931060Y-87292076D01*
X154634849Y-87447413D01*
X154414588Y-87665574D01*
X154267366Y-87934455D01*
X154190278Y-88241916D01*
X154180358Y-88575823D01*
X154234799Y-88924064D01*
X154350652Y-89274508D01*
X153062854Y-89458911D01*
X151708048Y-89697805D01*
X150185228Y-90092908D01*
X149329246Y-90380826D01*
X148393384Y-90745952D01*
X148105431Y-90924165D01*
X147881518Y-91183622D01*
X147730954Y-91507213D01*
X147663052Y-91877854D01*
X147346575Y-92149533D01*
X147103311Y-92485831D01*
X145536197Y-92851492D01*
X145330575Y-92616358D01*
X145094758Y-92411024D01*
X144941893Y-91993630D01*
X144695872Y-91591205D01*
X144518322Y-91393678D01*
X144320125Y-91237547D01*
X143884292Y-91036747D01*
X143433387Y-90963438D01*
X143012420Y-90992206D01*
X142298281Y-91184634D01*
X141773553Y-91346290D01*
X140098330Y-91609478D01*
X138355193Y-91753129D01*
X137950298Y-91394462D01*
X137950769Y-91143555D01*
X138677594Y-90939303D01*
X139352324Y-90630275D01*
X140584763Y-90490006D01*
X141767093Y-90316059D01*
X141767093Y-83977496D01*
X141730280Y-83493995D01*
X141622854Y-83015603D01*
X141449338Y-82547350D01*
X141214253Y-82094234D01*
X140922120Y-81661265D01*
X140577457Y-81253464D01*
X140184784Y-80875859D01*
X139748631Y-80533421D01*
X140188069Y-79812763D01*
X140362078Y-80116563D01*
X140571022Y-80404024D01*
X140820569Y-80622136D01*
X140962339Y-80688600D01*
X141116383Y-80717864D01*
X141444088Y-80670446D01*
X141706574Y-80510903D01*
X141895000Y-80270045D01*
X142000532Y-79978576D01*
X142011563Y-79681491D01*
X141972131Y-79520291D01*
X141891422Y-79357078D01*
X141552064Y-78856852D01*
X141029670Y-78233657D01*
X140683742Y-77887420D01*
X140308725Y-77673554D01*
X139913570Y-77577826D01*
X139507235Y-77585762D01*
X139098677Y-77683276D01*
X138696846Y-77856102D01*
X138310696Y-78089877D01*
X137949184Y-78370335D01*
X137800697Y-77955342D01*
X137643524Y-77644687D01*
X137427588Y-77407302D01*
X137102770Y-77212026D01*
X136898411Y-77254186D01*
X136555666Y-77396757D01*
X136342604Y-77543612D01*
X136107184Y-77761088D01*
X135853489Y-78064313D01*
X135585597Y-78468464D01*
X135585675Y-78468523D01*
X135585866Y-78468424D01*
X135585866Y-78468424D01*
G37*
D13*
X139896400Y-71866000D02*
X139896400Y-73366000D01*
D14*
X133756400Y-69977000D02*
X133756400Y-71755000D01*
X138836400Y-73406000D02*
X133883400Y-73406000D01*
X133756400Y-68326000D02*
X138836400Y-68326000D01*
X138836400Y-69977000D02*
X138836400Y-71755000D01*
D13*
X120465400Y-83931000D02*
X120465400Y-85431000D01*
D14*
X114325400Y-82042000D02*
X114325400Y-83820000D01*
X119405400Y-85471000D02*
X114452400Y-85471000D01*
X114325400Y-80391000D02*
X119405400Y-80391000D01*
X119405400Y-82042000D02*
X119405400Y-83820000D01*
D13*
X110280000Y-109077000D02*
X110280000Y-110577000D01*
D14*
X104140000Y-107188000D02*
X104140000Y-108966000D01*
X109220000Y-110617000D02*
X104267000Y-110617000D01*
X104140000Y-105537000D02*
X109220000Y-105537000D01*
X109220000Y-107188000D02*
X109220000Y-108966000D01*
D13*
X120414600Y-127619000D02*
X120414600Y-129119000D01*
D14*
X114274600Y-125730000D02*
X114274600Y-127508000D01*
X119354600Y-129159000D02*
X114401600Y-129159000D01*
X114274600Y-124079000D02*
X119354600Y-124079000D01*
X119354600Y-125730000D02*
X119354600Y-127508000D01*
D13*
X139642400Y-136509000D02*
X139642400Y-138009000D01*
D14*
X133502400Y-134620000D02*
X133502400Y-136398000D01*
X138582400Y-138049000D02*
X133629400Y-138049000D01*
X133502400Y-132969000D02*
X138582400Y-132969000D01*
X138582400Y-134620000D02*
X138582400Y-136398000D01*
D13*
X159708400Y-127492000D02*
X159708400Y-128992000D01*
D14*
X153568400Y-125603000D02*
X153568400Y-127381000D01*
X158648400Y-129032000D02*
X153695400Y-129032000D01*
X153568400Y-123952000D02*
X158648400Y-123952000D01*
X158648400Y-125603000D02*
X158648400Y-127381000D01*
D13*
X168852400Y-109077000D02*
X168852400Y-110577000D01*
D14*
X162712400Y-107188000D02*
X162712400Y-108966000D01*
X167792400Y-110617000D02*
X162839400Y-110617000D01*
X162712400Y-105537000D02*
X167792400Y-105537000D01*
X167792400Y-107188000D02*
X167792400Y-108966000D01*
D13*
X159784600Y-84312000D02*
X159784600Y-85812000D01*
D14*
X153644600Y-82423000D02*
X153644600Y-84201000D01*
X158724600Y-85852000D02*
X153771600Y-85852000D01*
X153644600Y-80772000D02*
X158724600Y-80772000D01*
X158724600Y-82423000D02*
X158724600Y-84201000D01*
D15*
X139955200Y-84668400D02*
X135255200Y-84668400D01*
X139955200Y-82768400D02*
X135255200Y-82768400D01*
X139955200Y-84668400D02*
X139955200Y-82768400D01*
D16*
X136117105Y-86020781D02*
X136117105Y-85020781D01*
X136355200Y-85020781D01*
X136498058Y-85068400D01*
X136593296Y-85163638D01*
X136640915Y-85258876D01*
X136688534Y-85449352D01*
X136688534Y-85592210D01*
X136640915Y-85782686D01*
X136593296Y-85877924D01*
X136498058Y-85973162D01*
X136355200Y-86020781D01*
X136117105Y-86020781D01*
X137069486Y-85116019D02*
X137117105Y-85068400D01*
X137212343Y-85020781D01*
X137450439Y-85020781D01*
X137545677Y-85068400D01*
X137593296Y-85116019D01*
X137640915Y-85211257D01*
X137640915Y-85306495D01*
X137593296Y-85449352D01*
X137021867Y-86020781D01*
X137640915Y-86020781D01*
M02*
