G04 #@! TF.GenerationSoftware,KiCad,Pcbnew,(2017-05-14 revision 14bb238b3)-makepkg*
G04 #@! TF.CreationDate,2017-07-12T11:42:09-06:00*
G04 #@! TF.ProjectId,001,3030312E6B696361645F706362000000,rev?*
G04 #@! TF.FileFunction,Legend,Top*
G04 #@! TF.FilePolarity,Positive*
%FSLAX46Y46*%
G04 Gerber Fmt 4.6, Leading zero omitted, Abs format (unit mm)*
G04 Created by KiCad (PCBNEW (2017-05-14 revision 14bb238b3)-makepkg) date 07/12/17 11:42:09*
%MOMM*%
%LPD*%
G01*
G04 APERTURE LIST*
%ADD10C,0.100000*%
%ADD11C,0.152400*%
%ADD12C,0.050000*%
%ADD13C,0.120000*%
%ADD14C,0.010000*%
G04 APERTURE END LIST*
D10*
D11*
X122020920Y-93693079D02*
X121682253Y-93209269D01*
X121440348Y-93693079D02*
X121440348Y-92677079D01*
X121827396Y-92677079D01*
X121924158Y-92725460D01*
X121972539Y-92773840D01*
X122020920Y-92870602D01*
X122020920Y-93015745D01*
X121972539Y-93112507D01*
X121924158Y-93160888D01*
X121827396Y-93209269D01*
X121440348Y-93209269D01*
X122456348Y-93160888D02*
X122795015Y-93160888D01*
X122940158Y-93693079D02*
X122456348Y-93693079D01*
X122456348Y-92677079D01*
X122940158Y-92677079D01*
X123327205Y-93644698D02*
X123472348Y-93693079D01*
X123714253Y-93693079D01*
X123811015Y-93644698D01*
X123859396Y-93596317D01*
X123907777Y-93499555D01*
X123907777Y-93402793D01*
X123859396Y-93306031D01*
X123811015Y-93257650D01*
X123714253Y-93209269D01*
X123520729Y-93160888D01*
X123423967Y-93112507D01*
X123375586Y-93064126D01*
X123327205Y-92967364D01*
X123327205Y-92870602D01*
X123375586Y-92773840D01*
X123423967Y-92725460D01*
X123520729Y-92677079D01*
X123762634Y-92677079D01*
X123907777Y-92725460D01*
X124198062Y-92677079D02*
X124778634Y-92677079D01*
X124488348Y-93693079D02*
X124488348Y-92677079D01*
X122845815Y-90456393D02*
X123329624Y-90456393D01*
X122749053Y-90746679D02*
X123087720Y-89730679D01*
X123426386Y-90746679D01*
X123765053Y-90746679D02*
X123765053Y-89730679D01*
X124006958Y-89730679D01*
X124152100Y-89779060D01*
X124248862Y-89875821D01*
X124297243Y-89972583D01*
X124345624Y-90166107D01*
X124345624Y-90311250D01*
X124297243Y-90504774D01*
X124248862Y-90601536D01*
X124152100Y-90698298D01*
X124006958Y-90746679D01*
X123765053Y-90746679D01*
X125361624Y-90649917D02*
X125313243Y-90698298D01*
X125168100Y-90746679D01*
X125071339Y-90746679D01*
X124926196Y-90698298D01*
X124829434Y-90601536D01*
X124781053Y-90504774D01*
X124732672Y-90311250D01*
X124732672Y-90166107D01*
X124781053Y-89972583D01*
X124829434Y-89875821D01*
X124926196Y-89779060D01*
X125071339Y-89730679D01*
X125168100Y-89730679D01*
X125313243Y-89779060D01*
X125361624Y-89827440D01*
X131771496Y-100817779D02*
X131287686Y-100817779D01*
X131287686Y-99801779D01*
X135320239Y-93657398D02*
X135465381Y-93705779D01*
X135707286Y-93705779D01*
X135804048Y-93657398D01*
X135852429Y-93609017D01*
X135900810Y-93512255D01*
X135900810Y-93415493D01*
X135852429Y-93318731D01*
X135804048Y-93270350D01*
X135707286Y-93221969D01*
X135513762Y-93173588D01*
X135417000Y-93125207D01*
X135368620Y-93076826D01*
X135320239Y-92980064D01*
X135320239Y-92883302D01*
X135368620Y-92786540D01*
X135417000Y-92738160D01*
X135513762Y-92689779D01*
X135755667Y-92689779D01*
X135900810Y-92738160D01*
X136916810Y-93609017D02*
X136868429Y-93657398D01*
X136723286Y-93705779D01*
X136626524Y-93705779D01*
X136481381Y-93657398D01*
X136384620Y-93560636D01*
X136336239Y-93463874D01*
X136287858Y-93270350D01*
X136287858Y-93125207D01*
X136336239Y-92931683D01*
X136384620Y-92834921D01*
X136481381Y-92738160D01*
X136626524Y-92689779D01*
X136723286Y-92689779D01*
X136868429Y-92738160D01*
X136916810Y-92786540D01*
X137836048Y-93705779D02*
X137352239Y-93705779D01*
X137352239Y-92689779D01*
X139432620Y-92689779D02*
X138948810Y-92689779D01*
X138900429Y-93173588D01*
X138948810Y-93125207D01*
X139045572Y-93076826D01*
X139287477Y-93076826D01*
X139384239Y-93125207D01*
X139432620Y-93173588D01*
X139481000Y-93270350D01*
X139481000Y-93512255D01*
X139432620Y-93609017D01*
X139384239Y-93657398D01*
X139287477Y-93705779D01*
X139045572Y-93705779D01*
X138948810Y-93657398D01*
X138900429Y-93609017D01*
X133403748Y-90736398D02*
X133548891Y-90784779D01*
X133790796Y-90784779D01*
X133887558Y-90736398D01*
X133935939Y-90688017D01*
X133984320Y-90591255D01*
X133984320Y-90494493D01*
X133935939Y-90397731D01*
X133887558Y-90349350D01*
X133790796Y-90300969D01*
X133597272Y-90252588D01*
X133500510Y-90204207D01*
X133452129Y-90155826D01*
X133403748Y-90059064D01*
X133403748Y-89962302D01*
X133452129Y-89865540D01*
X133500510Y-89817160D01*
X133597272Y-89768779D01*
X133839177Y-89768779D01*
X133984320Y-89817160D01*
X134419748Y-90784779D02*
X134419748Y-89768779D01*
X134661653Y-89768779D01*
X134806796Y-89817160D01*
X134903558Y-89913921D01*
X134951939Y-90010683D01*
X135000320Y-90204207D01*
X135000320Y-90349350D01*
X134951939Y-90542874D01*
X134903558Y-90639636D01*
X134806796Y-90736398D01*
X134661653Y-90784779D01*
X134419748Y-90784779D01*
X135387367Y-90494493D02*
X135871177Y-90494493D01*
X135290605Y-90784779D02*
X135629272Y-89768779D01*
X135967939Y-90784779D01*
X137516129Y-90107445D02*
X137516129Y-90784779D01*
X137274224Y-89720398D02*
X137032320Y-90446112D01*
X137661272Y-90446112D01*
X147448739Y-102938679D02*
X147545500Y-102938679D01*
X147642262Y-102987060D01*
X147690643Y-103035440D01*
X147739024Y-103132202D01*
X147787405Y-103325726D01*
X147787405Y-103567631D01*
X147739024Y-103761155D01*
X147690643Y-103857917D01*
X147642262Y-103906298D01*
X147545500Y-103954679D01*
X147448739Y-103954679D01*
X147351977Y-103906298D01*
X147303596Y-103857917D01*
X147255215Y-103761155D01*
X147206834Y-103567631D01*
X147206834Y-103325726D01*
X147255215Y-103132202D01*
X147303596Y-103035440D01*
X147351977Y-102987060D01*
X147448739Y-102938679D01*
X119808096Y-64952979D02*
X119227524Y-64952979D01*
X119517810Y-64952979D02*
X119517810Y-63936979D01*
X119421048Y-64082121D01*
X119324286Y-64178883D01*
X119227524Y-64227264D01*
X120678953Y-63936979D02*
X120485429Y-63936979D01*
X120388667Y-63985360D01*
X120340286Y-64033740D01*
X120243524Y-64178883D01*
X120195143Y-64372407D01*
X120195143Y-64759455D01*
X120243524Y-64856217D01*
X120291905Y-64904598D01*
X120388667Y-64952979D01*
X120582191Y-64952979D01*
X120678953Y-64904598D01*
X120727334Y-64856217D01*
X120775715Y-64759455D01*
X120775715Y-64517550D01*
X120727334Y-64420788D01*
X120678953Y-64372407D01*
X120582191Y-64324026D01*
X120388667Y-64324026D01*
X120291905Y-64372407D01*
X120243524Y-64420788D01*
X120195143Y-64517550D01*
X126022024Y-58895079D02*
X126215548Y-58895079D01*
X126312310Y-58943460D01*
X126409072Y-59040221D01*
X126457453Y-59233745D01*
X126457453Y-59572412D01*
X126409072Y-59765936D01*
X126312310Y-59862698D01*
X126215548Y-59911079D01*
X126022024Y-59911079D01*
X125925262Y-59862698D01*
X125828500Y-59765936D01*
X125780120Y-59572412D01*
X125780120Y-59233745D01*
X125828500Y-59040221D01*
X125925262Y-58943460D01*
X126022024Y-58895079D01*
X126844500Y-59862698D02*
X126989643Y-59911079D01*
X127231548Y-59911079D01*
X127328310Y-59862698D01*
X127376691Y-59814317D01*
X127425072Y-59717555D01*
X127425072Y-59620793D01*
X127376691Y-59524031D01*
X127328310Y-59475650D01*
X127231548Y-59427269D01*
X127038024Y-59378888D01*
X126941262Y-59330507D01*
X126892881Y-59282126D01*
X126844500Y-59185364D01*
X126844500Y-59088602D01*
X126892881Y-58991840D01*
X126941262Y-58943460D01*
X127038024Y-58895079D01*
X127279929Y-58895079D01*
X127425072Y-58943460D01*
X127860500Y-59911079D02*
X127860500Y-58895079D01*
X127860500Y-59378888D02*
X128441072Y-59378888D01*
X128441072Y-59911079D02*
X128441072Y-58895079D01*
X128828120Y-58895079D02*
X129070024Y-59911079D01*
X129263548Y-59185364D01*
X129457072Y-59911079D01*
X129698977Y-58895079D01*
X130086024Y-59911079D02*
X130086024Y-58895079D01*
X130327929Y-58895079D01*
X130473072Y-58943460D01*
X130569834Y-59040221D01*
X130618215Y-59136983D01*
X130666596Y-59330507D01*
X130666596Y-59475650D01*
X130618215Y-59669174D01*
X130569834Y-59765936D01*
X130473072Y-59862698D01*
X130327929Y-59911079D01*
X130086024Y-59911079D01*
X131489072Y-59862698D02*
X131392310Y-59911079D01*
X131198786Y-59911079D01*
X131102024Y-59862698D01*
X131053643Y-59765936D01*
X131053643Y-59378888D01*
X131102024Y-59282126D01*
X131198786Y-59233745D01*
X131392310Y-59233745D01*
X131489072Y-59282126D01*
X131537453Y-59378888D01*
X131537453Y-59475650D01*
X131053643Y-59572412D01*
X131972881Y-59911079D02*
X131972881Y-59233745D01*
X131972881Y-59330507D02*
X132021262Y-59282126D01*
X132118024Y-59233745D01*
X132263167Y-59233745D01*
X132359929Y-59282126D01*
X132408310Y-59378888D01*
X132408310Y-59911079D01*
X132408310Y-59378888D02*
X132456691Y-59282126D01*
X132553453Y-59233745D01*
X132698596Y-59233745D01*
X132795358Y-59282126D01*
X132843739Y-59378888D01*
X132843739Y-59911079D01*
X123723929Y-61297193D02*
X124207739Y-61297193D01*
X123627167Y-61587479D02*
X123965834Y-60571479D01*
X124304500Y-61587479D01*
X125997834Y-61490717D02*
X125949453Y-61539098D01*
X125804310Y-61587479D01*
X125707548Y-61587479D01*
X125562405Y-61539098D01*
X125465643Y-61442336D01*
X125417262Y-61345574D01*
X125368881Y-61152050D01*
X125368881Y-61006907D01*
X125417262Y-60813383D01*
X125465643Y-60716621D01*
X125562405Y-60619860D01*
X125707548Y-60571479D01*
X125804310Y-60571479D01*
X125949453Y-60619860D01*
X125997834Y-60668240D01*
X126578405Y-61587479D02*
X126481643Y-61539098D01*
X126433262Y-61490717D01*
X126384881Y-61393955D01*
X126384881Y-61103669D01*
X126433262Y-61006907D01*
X126481643Y-60958526D01*
X126578405Y-60910145D01*
X126723548Y-60910145D01*
X126820310Y-60958526D01*
X126868691Y-61006907D01*
X126917072Y-61103669D01*
X126917072Y-61393955D01*
X126868691Y-61490717D01*
X126820310Y-61539098D01*
X126723548Y-61587479D01*
X126578405Y-61587479D01*
X127352500Y-61587479D02*
X127352500Y-60910145D01*
X127352500Y-61103669D02*
X127400881Y-61006907D01*
X127449262Y-60958526D01*
X127546024Y-60910145D01*
X127642786Y-60910145D01*
X128416881Y-60910145D02*
X128416881Y-61587479D01*
X127981453Y-60910145D02*
X127981453Y-61442336D01*
X128029834Y-61539098D01*
X128126596Y-61587479D01*
X128271739Y-61587479D01*
X128368500Y-61539098D01*
X128416881Y-61490717D01*
X128900691Y-60910145D02*
X128900691Y-61587479D01*
X128900691Y-61006907D02*
X128949072Y-60958526D01*
X129045834Y-60910145D01*
X129190977Y-60910145D01*
X129287739Y-60958526D01*
X129336120Y-61055288D01*
X129336120Y-61587479D01*
X128852310Y-60668240D02*
X128900691Y-60619860D01*
X128997453Y-60571479D01*
X129190977Y-60668240D01*
X129287739Y-60619860D01*
X129336120Y-60571479D01*
X130255358Y-61587479D02*
X130255358Y-61055288D01*
X130206977Y-60958526D01*
X130110215Y-60910145D01*
X129916691Y-60910145D01*
X129819929Y-60958526D01*
X130255358Y-61539098D02*
X130158596Y-61587479D01*
X129916691Y-61587479D01*
X129819929Y-61539098D01*
X129771548Y-61442336D01*
X129771548Y-61345574D01*
X129819929Y-61248812D01*
X129916691Y-61200431D01*
X130158596Y-61200431D01*
X130255358Y-61152050D01*
X131464881Y-60668240D02*
X131513262Y-60619860D01*
X131610024Y-60571479D01*
X131851929Y-60571479D01*
X131948691Y-60619860D01*
X131997072Y-60668240D01*
X132045453Y-60765002D01*
X132045453Y-60861764D01*
X131997072Y-61006907D01*
X131416500Y-61587479D01*
X132045453Y-61587479D01*
X132674405Y-60571479D02*
X132771167Y-60571479D01*
X132867929Y-60619860D01*
X132916310Y-60668240D01*
X132964691Y-60765002D01*
X133013072Y-60958526D01*
X133013072Y-61200431D01*
X132964691Y-61393955D01*
X132916310Y-61490717D01*
X132867929Y-61539098D01*
X132771167Y-61587479D01*
X132674405Y-61587479D01*
X132577643Y-61539098D01*
X132529262Y-61490717D01*
X132480881Y-61393955D01*
X132432500Y-61200431D01*
X132432500Y-60958526D01*
X132480881Y-60765002D01*
X132529262Y-60668240D01*
X132577643Y-60619860D01*
X132674405Y-60571479D01*
X133980691Y-61587479D02*
X133400120Y-61587479D01*
X133690405Y-61587479D02*
X133690405Y-60571479D01*
X133593643Y-60716621D01*
X133496881Y-60813383D01*
X133400120Y-60861764D01*
X134319358Y-60571479D02*
X134996691Y-60571479D01*
X134561262Y-61587479D01*
X124787100Y-62984479D02*
X124206529Y-62984479D01*
X124496815Y-62984479D02*
X124496815Y-61968479D01*
X124400053Y-62113621D01*
X124303291Y-62210383D01*
X124206529Y-62258764D01*
X125754720Y-62984479D02*
X125174148Y-62984479D01*
X125464434Y-62984479D02*
X125464434Y-61968479D01*
X125367672Y-62113621D01*
X125270910Y-62210383D01*
X125174148Y-62258764D01*
X126964243Y-62984479D02*
X126964243Y-61968479D01*
X127544815Y-62984479D01*
X127544815Y-61968479D01*
X128173767Y-62984479D02*
X128077005Y-62936098D01*
X128028624Y-62887717D01*
X127980243Y-62790955D01*
X127980243Y-62500669D01*
X128028624Y-62403907D01*
X128077005Y-62355526D01*
X128173767Y-62307145D01*
X128318910Y-62307145D01*
X128415672Y-62355526D01*
X128464053Y-62403907D01*
X128512434Y-62500669D01*
X128512434Y-62790955D01*
X128464053Y-62887717D01*
X128415672Y-62936098D01*
X128318910Y-62984479D01*
X128173767Y-62984479D01*
X128851100Y-62307145D02*
X129093005Y-62984479D01*
X129334910Y-62307145D01*
X129721958Y-62984479D02*
X129721958Y-62307145D01*
X129721958Y-61968479D02*
X129673577Y-62016860D01*
X129721958Y-62065240D01*
X129770339Y-62016860D01*
X129721958Y-61968479D01*
X129721958Y-62065240D01*
X130592815Y-62936098D02*
X130496053Y-62984479D01*
X130302529Y-62984479D01*
X130205767Y-62936098D01*
X130157386Y-62839336D01*
X130157386Y-62452288D01*
X130205767Y-62355526D01*
X130302529Y-62307145D01*
X130496053Y-62307145D01*
X130592815Y-62355526D01*
X130641196Y-62452288D01*
X130641196Y-62549050D01*
X130157386Y-62645812D01*
X131076624Y-62984479D02*
X131076624Y-62307145D01*
X131076624Y-62403907D02*
X131125005Y-62355526D01*
X131221767Y-62307145D01*
X131366910Y-62307145D01*
X131463672Y-62355526D01*
X131512053Y-62452288D01*
X131512053Y-62984479D01*
X131512053Y-62452288D02*
X131560434Y-62355526D01*
X131657196Y-62307145D01*
X131802339Y-62307145D01*
X131899100Y-62355526D01*
X131947481Y-62452288D01*
X131947481Y-62984479D01*
X132431291Y-62984479D02*
X132431291Y-61968479D01*
X132431291Y-62355526D02*
X132528053Y-62307145D01*
X132721577Y-62307145D01*
X132818339Y-62355526D01*
X132866720Y-62403907D01*
X132915100Y-62500669D01*
X132915100Y-62790955D01*
X132866720Y-62887717D01*
X132818339Y-62936098D01*
X132721577Y-62984479D01*
X132528053Y-62984479D01*
X132431291Y-62936098D01*
X133350529Y-62984479D02*
X133350529Y-62307145D01*
X133350529Y-62500669D02*
X133398910Y-62403907D01*
X133447291Y-62355526D01*
X133544053Y-62307145D01*
X133640815Y-62307145D01*
X134366529Y-62936098D02*
X134269767Y-62984479D01*
X134076243Y-62984479D01*
X133979481Y-62936098D01*
X133931100Y-62839336D01*
X133931100Y-62452288D01*
X133979481Y-62355526D01*
X134076243Y-62307145D01*
X134269767Y-62307145D01*
X134366529Y-62355526D01*
X134414910Y-62452288D01*
X134414910Y-62549050D01*
X133931100Y-62645812D01*
X124303291Y-64660879D02*
X124303291Y-63644879D01*
X124641958Y-64370593D01*
X124980624Y-63644879D01*
X124980624Y-64660879D01*
X125899862Y-63983545D02*
X125899862Y-64660879D01*
X125464434Y-63983545D02*
X125464434Y-64515736D01*
X125512815Y-64612498D01*
X125609577Y-64660879D01*
X125754720Y-64660879D01*
X125851481Y-64612498D01*
X125899862Y-64564117D01*
X126335291Y-64612498D02*
X126432053Y-64660879D01*
X126625577Y-64660879D01*
X126722339Y-64612498D01*
X126770720Y-64515736D01*
X126770720Y-64467355D01*
X126722339Y-64370593D01*
X126625577Y-64322212D01*
X126480434Y-64322212D01*
X126383672Y-64273831D01*
X126335291Y-64177069D01*
X126335291Y-64128688D01*
X126383672Y-64031926D01*
X126480434Y-63983545D01*
X126625577Y-63983545D01*
X126722339Y-64031926D01*
X127593196Y-64612498D02*
X127496434Y-64660879D01*
X127302910Y-64660879D01*
X127206148Y-64612498D01*
X127157767Y-64515736D01*
X127157767Y-64128688D01*
X127206148Y-64031926D01*
X127302910Y-63983545D01*
X127496434Y-63983545D01*
X127593196Y-64031926D01*
X127641577Y-64128688D01*
X127641577Y-64225450D01*
X127157767Y-64322212D01*
X128222148Y-64660879D02*
X128125386Y-64612498D01*
X128077005Y-64564117D01*
X128028624Y-64467355D01*
X128028624Y-64177069D01*
X128077005Y-64080307D01*
X128125386Y-64031926D01*
X128222148Y-63983545D01*
X128367291Y-63983545D01*
X128464053Y-64031926D01*
X128512434Y-64080307D01*
X128560815Y-64177069D01*
X128560815Y-64467355D01*
X128512434Y-64564117D01*
X128464053Y-64612498D01*
X128367291Y-64660879D01*
X128222148Y-64660879D01*
X129770339Y-64660879D02*
X129770339Y-63644879D01*
X130012243Y-63644879D01*
X130157386Y-63693260D01*
X130254148Y-63790021D01*
X130302529Y-63886783D01*
X130350910Y-64080307D01*
X130350910Y-64225450D01*
X130302529Y-64418974D01*
X130254148Y-64515736D01*
X130157386Y-64612498D01*
X130012243Y-64660879D01*
X129770339Y-64660879D01*
X130931481Y-64660879D02*
X130834720Y-64612498D01*
X130786339Y-64564117D01*
X130737958Y-64467355D01*
X130737958Y-64177069D01*
X130786339Y-64080307D01*
X130834720Y-64031926D01*
X130931481Y-63983545D01*
X131076624Y-63983545D01*
X131173386Y-64031926D01*
X131221767Y-64080307D01*
X131270148Y-64177069D01*
X131270148Y-64467355D01*
X131221767Y-64564117D01*
X131173386Y-64612498D01*
X131076624Y-64660879D01*
X130931481Y-64660879D01*
X131705577Y-64660879D02*
X131705577Y-63983545D01*
X131705577Y-64080307D02*
X131753958Y-64031926D01*
X131850720Y-63983545D01*
X131995862Y-63983545D01*
X132092624Y-64031926D01*
X132141005Y-64128688D01*
X132141005Y-64660879D01*
X132141005Y-64128688D02*
X132189386Y-64031926D01*
X132286148Y-63983545D01*
X132431291Y-63983545D01*
X132528053Y-64031926D01*
X132576434Y-64128688D01*
X132576434Y-64660879D01*
X133495672Y-63983545D02*
X133495672Y-64660879D01*
X133060243Y-63983545D02*
X133060243Y-64515736D01*
X133108624Y-64612498D01*
X133205386Y-64660879D01*
X133350529Y-64660879D01*
X133447291Y-64612498D01*
X133495672Y-64564117D01*
X133931100Y-64612498D02*
X134027862Y-64660879D01*
X134221386Y-64660879D01*
X134318148Y-64612498D01*
X134366529Y-64515736D01*
X134366529Y-64467355D01*
X134318148Y-64370593D01*
X134221386Y-64322212D01*
X134076243Y-64322212D01*
X133979481Y-64273831D01*
X133931100Y-64177069D01*
X133931100Y-64128688D01*
X133979481Y-64031926D01*
X134076243Y-63983545D01*
X134221386Y-63983545D01*
X134318148Y-64031926D01*
X118725572Y-99166779D02*
X118145000Y-99166779D01*
X118435286Y-99166779D02*
X118435286Y-98150779D01*
X118338524Y-98295921D01*
X118241762Y-98392683D01*
X118145000Y-98441064D01*
X119112620Y-98247540D02*
X119161000Y-98199160D01*
X119257762Y-98150779D01*
X119499667Y-98150779D01*
X119596429Y-98199160D01*
X119644810Y-98247540D01*
X119693191Y-98344302D01*
X119693191Y-98441064D01*
X119644810Y-98586207D01*
X119064239Y-99166779D01*
X119693191Y-99166779D01*
X120902715Y-99166779D02*
X120902715Y-98150779D01*
X121241381Y-98876493D01*
X121580048Y-98150779D01*
X121580048Y-99166779D01*
X122063858Y-99166779D02*
X122063858Y-98150779D01*
X122499286Y-99118398D02*
X122644429Y-99166779D01*
X122886334Y-99166779D01*
X122983096Y-99118398D01*
X123031477Y-99070017D01*
X123079858Y-98973255D01*
X123079858Y-98876493D01*
X123031477Y-98779731D01*
X122983096Y-98731350D01*
X122886334Y-98682969D01*
X122692810Y-98634588D01*
X122596048Y-98586207D01*
X122547667Y-98537826D01*
X122499286Y-98441064D01*
X122499286Y-98344302D01*
X122547667Y-98247540D01*
X122596048Y-98199160D01*
X122692810Y-98150779D01*
X122934715Y-98150779D01*
X123079858Y-98199160D01*
X123708810Y-98150779D02*
X123902334Y-98150779D01*
X123999096Y-98199160D01*
X124095858Y-98295921D01*
X124144239Y-98489445D01*
X124144239Y-98828112D01*
X124095858Y-99021636D01*
X123999096Y-99118398D01*
X123902334Y-99166779D01*
X123708810Y-99166779D01*
X123612048Y-99118398D01*
X123515286Y-99021636D01*
X123466905Y-98828112D01*
X123466905Y-98489445D01*
X123515286Y-98295921D01*
X123612048Y-98199160D01*
X123708810Y-98150779D01*
X116744372Y-101884579D02*
X116163800Y-101884579D01*
X116454086Y-101884579D02*
X116454086Y-100868579D01*
X116357324Y-101013721D01*
X116260562Y-101110483D01*
X116163800Y-101158864D01*
X117083039Y-100868579D02*
X117711991Y-100868579D01*
X117373324Y-101255626D01*
X117518467Y-101255626D01*
X117615229Y-101304007D01*
X117663610Y-101352388D01*
X117711991Y-101449150D01*
X117711991Y-101691055D01*
X117663610Y-101787817D01*
X117615229Y-101836198D01*
X117518467Y-101884579D01*
X117228181Y-101884579D01*
X117131420Y-101836198D01*
X117083039Y-101787817D01*
X118921515Y-101884579D02*
X118921515Y-100868579D01*
X119260181Y-101594293D01*
X119598848Y-100868579D01*
X119598848Y-101884579D01*
X120276181Y-100868579D02*
X120469705Y-100868579D01*
X120566467Y-100916960D01*
X120663229Y-101013721D01*
X120711610Y-101207245D01*
X120711610Y-101545912D01*
X120663229Y-101739436D01*
X120566467Y-101836198D01*
X120469705Y-101884579D01*
X120276181Y-101884579D01*
X120179420Y-101836198D01*
X120082658Y-101739436D01*
X120034277Y-101545912D01*
X120034277Y-101207245D01*
X120082658Y-101013721D01*
X120179420Y-100916960D01*
X120276181Y-100868579D01*
X121098658Y-101836198D02*
X121243800Y-101884579D01*
X121485705Y-101884579D01*
X121582467Y-101836198D01*
X121630848Y-101787817D01*
X121679229Y-101691055D01*
X121679229Y-101594293D01*
X121630848Y-101497531D01*
X121582467Y-101449150D01*
X121485705Y-101400769D01*
X121292181Y-101352388D01*
X121195420Y-101304007D01*
X121147039Y-101255626D01*
X121098658Y-101158864D01*
X121098658Y-101062102D01*
X121147039Y-100965340D01*
X121195420Y-100916960D01*
X121292181Y-100868579D01*
X121534086Y-100868579D01*
X121679229Y-100916960D01*
X122114658Y-101884579D02*
X122114658Y-100868579D01*
X120346939Y-96664879D02*
X119766367Y-96664879D01*
X120056653Y-96664879D02*
X120056653Y-95648879D01*
X119959891Y-95794021D01*
X119863129Y-95890783D01*
X119766367Y-95939164D01*
X121217796Y-95987545D02*
X121217796Y-96664879D01*
X120975891Y-95600498D02*
X120733986Y-96326212D01*
X121362939Y-96326212D01*
X122475700Y-96616498D02*
X122620843Y-96664879D01*
X122862748Y-96664879D01*
X122959510Y-96616498D01*
X123007891Y-96568117D01*
X123056272Y-96471355D01*
X123056272Y-96374593D01*
X123007891Y-96277831D01*
X122959510Y-96229450D01*
X122862748Y-96181069D01*
X122669224Y-96132688D01*
X122572462Y-96084307D01*
X122524081Y-96035926D01*
X122475700Y-95939164D01*
X122475700Y-95842402D01*
X122524081Y-95745640D01*
X122572462Y-95697260D01*
X122669224Y-95648879D01*
X122911129Y-95648879D01*
X123056272Y-95697260D01*
X124072272Y-96568117D02*
X124023891Y-96616498D01*
X123878748Y-96664879D01*
X123781986Y-96664879D01*
X123636843Y-96616498D01*
X123540081Y-96519736D01*
X123491700Y-96422974D01*
X123443320Y-96229450D01*
X123443320Y-96084307D01*
X123491700Y-95890783D01*
X123540081Y-95794021D01*
X123636843Y-95697260D01*
X123781986Y-95648879D01*
X123878748Y-95648879D01*
X124023891Y-95697260D01*
X124072272Y-95745640D01*
X124507700Y-96664879D02*
X124507700Y-95648879D01*
X125088272Y-96664879D02*
X124652843Y-96084307D01*
X125088272Y-95648879D02*
X124507700Y-96229450D01*
X140317386Y-96067979D02*
X139978720Y-95584169D01*
X139736815Y-96067979D02*
X139736815Y-95051979D01*
X140123862Y-95051979D01*
X140220624Y-95100360D01*
X140269005Y-95148740D01*
X140317386Y-95245502D01*
X140317386Y-95390645D01*
X140269005Y-95487407D01*
X140220624Y-95535788D01*
X140123862Y-95584169D01*
X139736815Y-95584169D01*
X140656053Y-95051979D02*
X141333386Y-96067979D01*
X141333386Y-95051979D02*
X140656053Y-96067979D01*
X140775796Y-63238479D02*
X140195224Y-63238479D01*
X140485510Y-63238479D02*
X140485510Y-62222479D01*
X140388748Y-62367621D01*
X140291986Y-62464383D01*
X140195224Y-62512764D01*
X141695034Y-62222479D02*
X141211224Y-62222479D01*
X141162843Y-62706288D01*
X141211224Y-62657907D01*
X141307986Y-62609526D01*
X141549891Y-62609526D01*
X141646653Y-62657907D01*
X141695034Y-62706288D01*
X141743415Y-62803050D01*
X141743415Y-63044955D01*
X141695034Y-63141717D01*
X141646653Y-63190098D01*
X141549891Y-63238479D01*
X141307986Y-63238479D01*
X141211224Y-63190098D01*
X141162843Y-63141717D01*
X141596458Y-101419517D02*
X141548077Y-101467898D01*
X141402934Y-101516279D01*
X141306172Y-101516279D01*
X141161029Y-101467898D01*
X141064267Y-101371136D01*
X141015886Y-101274374D01*
X140967505Y-101080850D01*
X140967505Y-100935707D01*
X141015886Y-100742183D01*
X141064267Y-100645421D01*
X141161029Y-100548660D01*
X141306172Y-100500279D01*
X141402934Y-100500279D01*
X141548077Y-100548660D01*
X141596458Y-100597040D01*
X142031886Y-101516279D02*
X142031886Y-100500279D01*
X142031886Y-100984088D02*
X142612458Y-100984088D01*
X142612458Y-101516279D02*
X142612458Y-100500279D01*
X142854362Y-101613040D02*
X143628458Y-101613040D01*
X143870362Y-101516279D02*
X143870362Y-100500279D01*
X144257410Y-100500279D01*
X144354172Y-100548660D01*
X144402553Y-100597040D01*
X144450934Y-100693802D01*
X144450934Y-100838945D01*
X144402553Y-100935707D01*
X144354172Y-100984088D01*
X144257410Y-101032469D01*
X143870362Y-101032469D01*
X144886362Y-101516279D02*
X144886362Y-100500279D01*
X145128267Y-100500279D01*
X145273410Y-100548660D01*
X145370172Y-100645421D01*
X145418553Y-100742183D01*
X145466934Y-100935707D01*
X145466934Y-101080850D01*
X145418553Y-101274374D01*
X145370172Y-101371136D01*
X145273410Y-101467898D01*
X145128267Y-101516279D01*
X144886362Y-101516279D01*
X142024024Y-97795179D02*
X142604596Y-97795179D01*
X142314310Y-98811179D02*
X142314310Y-97795179D01*
X142846500Y-97795179D02*
X143523834Y-98811179D01*
X143523834Y-97795179D02*
X142846500Y-98811179D01*
X121014858Y-92824520D02*
G75*
G03X121014858Y-92824520I-1457738J0D01*
G01*
X147009218Y-98082320D02*
G75*
G03X147009218Y-98082320I-1457738J0D01*
G01*
X122508378Y-89837480D02*
G75*
G03X122508378Y-89837480I-1457738J0D01*
G01*
X149224098Y-100657880D02*
G75*
G03X149224098Y-100657880I-1457738J0D01*
G01*
X119424818Y-95730280D02*
G75*
G03X119424818Y-95730280I-1457738J0D01*
G01*
X141177378Y-90127040D02*
G75*
G03X141177378Y-90127040I-1457738J0D01*
G01*
X117768738Y-98458240D02*
G75*
G03X117768738Y-98458240I-1457738J0D01*
G01*
X151540578Y-103172480D02*
G75*
G03X151540578Y-103172480I-1457738J0D01*
G01*
X115848498Y-101176040D02*
G75*
G03X115848498Y-101176040I-1457738J0D01*
G01*
X142741273Y-55799971D02*
X143998509Y-57057207D01*
X137981738Y-58224640D02*
X141573840Y-54632538D01*
X145165942Y-58224640D02*
X141663643Y-61726940D01*
X139149171Y-59392073D02*
X140406407Y-60649309D01*
D12*
X144826531Y-56386162D02*
X145887191Y-57446823D01*
X130920320Y-49707200D02*
X132420320Y-49707200D01*
D11*
X129031320Y-55847200D02*
X130809320Y-55847200D01*
X132460320Y-50767200D02*
X132460320Y-55720200D01*
X127380320Y-55847200D02*
X127380320Y-50767200D01*
X129031320Y-50767200D02*
X130809320Y-50767200D01*
X120640669Y-59447953D02*
X119383433Y-60705189D01*
X118216000Y-54688418D02*
X121808102Y-58280520D01*
X118216000Y-61872622D02*
X114713700Y-58370323D01*
X117048567Y-55855851D02*
X115791331Y-57113087D01*
D12*
X120054478Y-61533211D02*
X118993817Y-62593871D01*
X117167800Y-70796880D02*
X117167800Y-72296880D01*
D11*
X111027800Y-68907880D02*
X111027800Y-70685880D01*
X116107800Y-72336880D02*
X111154800Y-72336880D01*
X111027800Y-67256880D02*
X116107800Y-67256880D01*
X116107800Y-68907880D02*
X116107800Y-70685880D01*
X119495193Y-79101931D02*
X120752429Y-80359167D01*
X114735658Y-81526600D02*
X118327760Y-77934498D01*
X121919862Y-81526600D02*
X118417563Y-85028900D01*
X115903091Y-82694033D02*
X117160327Y-83951269D01*
D12*
X121580451Y-79688122D02*
X122641111Y-80748783D01*
X143244678Y-84698011D02*
X142184017Y-85758671D01*
D11*
X140238767Y-79020651D02*
X138981531Y-80277887D01*
X141406200Y-85037422D02*
X137903900Y-81535123D01*
X141406200Y-77853218D02*
X144998302Y-81445320D01*
X143830869Y-82612753D02*
X142573633Y-83869989D01*
X148721400Y-69029800D02*
X148721400Y-70807800D01*
X143641400Y-67378800D02*
X148721400Y-67378800D01*
X148721400Y-72458800D02*
X143768400Y-72458800D01*
X143641400Y-69029800D02*
X143641400Y-70807800D01*
D12*
X149781400Y-70918800D02*
X149781400Y-72418800D01*
D11*
X144936578Y-95440720D02*
G75*
G03X144936578Y-95440720I-1457738J0D01*
G01*
X142985858Y-92758480D02*
G75*
G03X142985858Y-92758480I-1457738J0D01*
G01*
X118774578Y-64452720D02*
G75*
G03X118774578Y-64452720I-1457738J0D01*
G01*
D13*
X130858000Y-101246000D02*
X130858000Y-99546000D01*
X130808000Y-99546000D02*
X126758000Y-99546000D01*
X130808000Y-101246000D02*
X126758000Y-101246000D01*
D11*
X144042498Y-64737200D02*
G75*
G03X144042498Y-64737200I-1457738J0D01*
G01*
D14*
G36*
X132686555Y-51127845D02*
X132910139Y-52231506D01*
X133112805Y-53329963D01*
X133168493Y-53662517D01*
X133303352Y-54341299D01*
X133521765Y-54817651D01*
X133934817Y-55192562D01*
X134653591Y-55567019D01*
X135783195Y-56039594D01*
X137582070Y-56767705D01*
X139851234Y-55204595D01*
X142120397Y-53641486D01*
X143908470Y-55413664D01*
X144704385Y-56227272D01*
X145318052Y-56901721D01*
X145657624Y-57333890D01*
X145696543Y-57421279D01*
X145553005Y-57747979D01*
X145168132Y-58428062D01*
X144610530Y-59343177D01*
X144279283Y-59866098D01*
X142862024Y-62075480D01*
X143621325Y-63872148D01*
X144038686Y-64818115D01*
X144400745Y-65565808D01*
X144627547Y-65951038D01*
X145002111Y-66124158D01*
X145791325Y-66345161D01*
X146851942Y-66576222D01*
X147331616Y-66665018D01*
X149788765Y-67096776D01*
X149949783Y-72539110D01*
X148317052Y-72855201D01*
X146876181Y-73131475D01*
X145877194Y-73349095D01*
X145212213Y-73577307D01*
X144773358Y-73885355D01*
X144452752Y-74342486D01*
X144142516Y-75017945D01*
X143844739Y-75725907D01*
X142929007Y-77871830D01*
X144345860Y-80017195D01*
X145762712Y-82162561D01*
X144629070Y-83511244D01*
X143591421Y-84701411D01*
X142822853Y-85470596D01*
X142271509Y-85862142D01*
X141885533Y-85919392D01*
X141796166Y-85879060D01*
X141612093Y-85627846D01*
X141669985Y-85150606D01*
X141940442Y-84410384D01*
X142341802Y-82871200D01*
X142450898Y-81102212D01*
X142272036Y-79345471D01*
X141824221Y-77874927D01*
X141212726Y-76534371D01*
X141808456Y-75193816D01*
X142182112Y-73973096D01*
X142432872Y-72369887D01*
X142552232Y-70554431D01*
X142531691Y-68696968D01*
X142362747Y-66967742D01*
X142250426Y-66343969D01*
X142051722Y-65291884D01*
X142001270Y-64619438D01*
X142098981Y-64161668D01*
X142249084Y-63890222D01*
X142509428Y-63096902D01*
X142266082Y-62414897D01*
X141578934Y-61986740D01*
X141434638Y-61951879D01*
X140721376Y-61739851D01*
X140463227Y-61392033D01*
X140592626Y-60762824D01*
X140726645Y-60426110D01*
X140954829Y-59346147D01*
X140752350Y-58426521D01*
X140217164Y-57750204D01*
X139447229Y-57400169D01*
X138540503Y-57459387D01*
X137736022Y-57892986D01*
X137037520Y-58241211D01*
X136374030Y-58265507D01*
X135919611Y-57988022D01*
X135818765Y-57649011D01*
X135606096Y-56968816D01*
X135093872Y-56587285D01*
X134470763Y-56557986D01*
X133925440Y-56934491D01*
X133830645Y-57084515D01*
X133674368Y-57646756D01*
X133964934Y-58168051D01*
X133996054Y-58202893D01*
X134283648Y-58758286D01*
X134266290Y-59292441D01*
X133964777Y-59589114D01*
X133861589Y-59601038D01*
X133501011Y-59457000D01*
X132813446Y-59077451D01*
X131940709Y-58541234D01*
X131847775Y-58481426D01*
X129312687Y-57105891D01*
X126782512Y-56248445D01*
X125792760Y-56057441D01*
X124396713Y-55848091D01*
X125263723Y-55437482D01*
X125675178Y-55207630D01*
X125964518Y-54901779D01*
X126185929Y-54398495D01*
X126393595Y-53576343D01*
X126630189Y-52375067D01*
X127129646Y-49723260D01*
X132385326Y-49723260D01*
X132686555Y-51127845D01*
X132686555Y-51127845D01*
G37*
X132686555Y-51127845D02*
X132910139Y-52231506D01*
X133112805Y-53329963D01*
X133168493Y-53662517D01*
X133303352Y-54341299D01*
X133521765Y-54817651D01*
X133934817Y-55192562D01*
X134653591Y-55567019D01*
X135783195Y-56039594D01*
X137582070Y-56767705D01*
X139851234Y-55204595D01*
X142120397Y-53641486D01*
X143908470Y-55413664D01*
X144704385Y-56227272D01*
X145318052Y-56901721D01*
X145657624Y-57333890D01*
X145696543Y-57421279D01*
X145553005Y-57747979D01*
X145168132Y-58428062D01*
X144610530Y-59343177D01*
X144279283Y-59866098D01*
X142862024Y-62075480D01*
X143621325Y-63872148D01*
X144038686Y-64818115D01*
X144400745Y-65565808D01*
X144627547Y-65951038D01*
X145002111Y-66124158D01*
X145791325Y-66345161D01*
X146851942Y-66576222D01*
X147331616Y-66665018D01*
X149788765Y-67096776D01*
X149949783Y-72539110D01*
X148317052Y-72855201D01*
X146876181Y-73131475D01*
X145877194Y-73349095D01*
X145212213Y-73577307D01*
X144773358Y-73885355D01*
X144452752Y-74342486D01*
X144142516Y-75017945D01*
X143844739Y-75725907D01*
X142929007Y-77871830D01*
X144345860Y-80017195D01*
X145762712Y-82162561D01*
X144629070Y-83511244D01*
X143591421Y-84701411D01*
X142822853Y-85470596D01*
X142271509Y-85862142D01*
X141885533Y-85919392D01*
X141796166Y-85879060D01*
X141612093Y-85627846D01*
X141669985Y-85150606D01*
X141940442Y-84410384D01*
X142341802Y-82871200D01*
X142450898Y-81102212D01*
X142272036Y-79345471D01*
X141824221Y-77874927D01*
X141212726Y-76534371D01*
X141808456Y-75193816D01*
X142182112Y-73973096D01*
X142432872Y-72369887D01*
X142552232Y-70554431D01*
X142531691Y-68696968D01*
X142362747Y-66967742D01*
X142250426Y-66343969D01*
X142051722Y-65291884D01*
X142001270Y-64619438D01*
X142098981Y-64161668D01*
X142249084Y-63890222D01*
X142509428Y-63096902D01*
X142266082Y-62414897D01*
X141578934Y-61986740D01*
X141434638Y-61951879D01*
X140721376Y-61739851D01*
X140463227Y-61392033D01*
X140592626Y-60762824D01*
X140726645Y-60426110D01*
X140954829Y-59346147D01*
X140752350Y-58426521D01*
X140217164Y-57750204D01*
X139447229Y-57400169D01*
X138540503Y-57459387D01*
X137736022Y-57892986D01*
X137037520Y-58241211D01*
X136374030Y-58265507D01*
X135919611Y-57988022D01*
X135818765Y-57649011D01*
X135606096Y-56968816D01*
X135093872Y-56587285D01*
X134470763Y-56557986D01*
X133925440Y-56934491D01*
X133830645Y-57084515D01*
X133674368Y-57646756D01*
X133964934Y-58168051D01*
X133996054Y-58202893D01*
X134283648Y-58758286D01*
X134266290Y-59292441D01*
X133964777Y-59589114D01*
X133861589Y-59601038D01*
X133501011Y-59457000D01*
X132813446Y-59077451D01*
X131940709Y-58541234D01*
X131847775Y-58481426D01*
X129312687Y-57105891D01*
X126782512Y-56248445D01*
X125792760Y-56057441D01*
X124396713Y-55848091D01*
X125263723Y-55437482D01*
X125675178Y-55207630D01*
X125964518Y-54901779D01*
X126185929Y-54398495D01*
X126393595Y-53576343D01*
X126630189Y-52375067D01*
X127129646Y-49723260D01*
X132385326Y-49723260D01*
X132686555Y-51127845D01*
G36*
X137878390Y-61152157D02*
X138627740Y-61475892D01*
X139293034Y-61576594D01*
X139802145Y-61610887D01*
X139997865Y-61819487D01*
X139967102Y-62360973D01*
X139911158Y-62704470D01*
X139826951Y-63452622D01*
X139972844Y-63886807D01*
X140448120Y-64242131D01*
X140596436Y-64327248D01*
X141201461Y-64815077D01*
X141637106Y-65543525D01*
X141924616Y-66591240D01*
X142085235Y-68036868D01*
X142140209Y-69959055D01*
X142140501Y-70043260D01*
X142097175Y-71865218D01*
X141945227Y-73272936D01*
X141668674Y-74408966D01*
X141642099Y-74488260D01*
X141333838Y-75297344D01*
X141069810Y-75830544D01*
X140946639Y-75958179D01*
X140643688Y-75779347D01*
X140077591Y-75335361D01*
X139682366Y-74996392D01*
X139084623Y-74442322D01*
X138781206Y-73998336D01*
X138699378Y-73453089D01*
X138766406Y-72595235D01*
X138787978Y-72397584D01*
X138792156Y-70394899D01*
X138428672Y-68184625D01*
X137738595Y-65948450D01*
X136927224Y-64165479D01*
X136413303Y-63159905D01*
X136025932Y-62312675D01*
X135830316Y-61769465D01*
X135818765Y-61689049D01*
X136057931Y-61233970D01*
X136635025Y-60966863D01*
X137339444Y-60942627D01*
X137878390Y-61152157D01*
X137878390Y-61152157D01*
G37*
X137878390Y-61152157D02*
X138627740Y-61475892D01*
X139293034Y-61576594D01*
X139802145Y-61610887D01*
X139997865Y-61819487D01*
X139967102Y-62360973D01*
X139911158Y-62704470D01*
X139826951Y-63452622D01*
X139972844Y-63886807D01*
X140448120Y-64242131D01*
X140596436Y-64327248D01*
X141201461Y-64815077D01*
X141637106Y-65543525D01*
X141924616Y-66591240D01*
X142085235Y-68036868D01*
X142140209Y-69959055D01*
X142140501Y-70043260D01*
X142097175Y-71865218D01*
X141945227Y-73272936D01*
X141668674Y-74408966D01*
X141642099Y-74488260D01*
X141333838Y-75297344D01*
X141069810Y-75830544D01*
X140946639Y-75958179D01*
X140643688Y-75779347D01*
X140077591Y-75335361D01*
X139682366Y-74996392D01*
X139084623Y-74442322D01*
X138781206Y-73998336D01*
X138699378Y-73453089D01*
X138766406Y-72595235D01*
X138787978Y-72397584D01*
X138792156Y-70394899D01*
X138428672Y-68184625D01*
X137738595Y-65948450D01*
X136927224Y-64165479D01*
X136413303Y-63159905D01*
X136025932Y-62312675D01*
X135830316Y-61769465D01*
X135818765Y-61689049D01*
X136057931Y-61233970D01*
X136635025Y-60966863D01*
X137339444Y-60942627D01*
X137878390Y-61152157D01*
G36*
X136378569Y-58614454D02*
X136836712Y-59047491D01*
X136899697Y-59772772D01*
X136620431Y-60446002D01*
X136082339Y-60690885D01*
X135435564Y-60468100D01*
X135168193Y-60226239D01*
X134790788Y-59571799D01*
X134689876Y-59084927D01*
X134816657Y-58628000D01*
X135298411Y-58479574D01*
X135465987Y-58476471D01*
X136378569Y-58614454D01*
X136378569Y-58614454D01*
G37*
X136378569Y-58614454D02*
X136836712Y-59047491D01*
X136899697Y-59772772D01*
X136620431Y-60446002D01*
X136082339Y-60690885D01*
X135435564Y-60468100D01*
X135168193Y-60226239D01*
X134790788Y-59571799D01*
X134689876Y-59084927D01*
X134816657Y-58628000D01*
X135298411Y-58479574D01*
X135465987Y-58476471D01*
X136378569Y-58614454D01*
G36*
X134670120Y-73908456D02*
X136242106Y-74011953D01*
X137530746Y-74361274D01*
X138729215Y-75026200D01*
X139574464Y-75680096D01*
X140484443Y-76714222D01*
X141228728Y-78070893D01*
X141729530Y-79572316D01*
X141909120Y-81016059D01*
X141667246Y-82818763D01*
X140983154Y-84485492D01*
X139919140Y-85939694D01*
X138537498Y-87104813D01*
X136900525Y-87904294D01*
X136130620Y-88117244D01*
X135305120Y-88295423D01*
X135305120Y-86655057D01*
X135318436Y-85763422D01*
X135394737Y-85240761D01*
X135588547Y-84948119D01*
X135954392Y-84746539D01*
X136073710Y-84696330D01*
X136987776Y-84066243D01*
X137618289Y-83132788D01*
X137925662Y-82035538D01*
X137870303Y-80914066D01*
X137426561Y-79926835D01*
X136486058Y-79011995D01*
X135380962Y-78532739D01*
X134209579Y-78497571D01*
X133070213Y-78914997D01*
X132338687Y-79486692D01*
X131792531Y-80121679D01*
X131548340Y-80737611D01*
X131495120Y-81532179D01*
X131690752Y-82831990D01*
X132242699Y-83883723D01*
X133098532Y-84599761D01*
X133413712Y-84738559D01*
X133889682Y-84931251D01*
X134151489Y-85165660D01*
X134263150Y-85581938D01*
X134288683Y-86320237D01*
X134289120Y-86655085D01*
X134259531Y-87590252D01*
X134106863Y-88100034D01*
X133735265Y-88248224D01*
X133048885Y-88098617D01*
X132435599Y-87888709D01*
X130723508Y-87025298D01*
X129297258Y-85790881D01*
X128225613Y-84258619D01*
X127650618Y-82797965D01*
X127430566Y-81055819D01*
X127669785Y-79313166D01*
X128327796Y-77660696D01*
X129364122Y-76189096D01*
X130738286Y-74989056D01*
X131285938Y-74653095D01*
X132062013Y-74260340D01*
X132750625Y-74034251D01*
X133549071Y-73931417D01*
X134654648Y-73908425D01*
X134670120Y-73908456D01*
X134670120Y-73908456D01*
G37*
X134670120Y-73908456D02*
X136242106Y-74011953D01*
X137530746Y-74361274D01*
X138729215Y-75026200D01*
X139574464Y-75680096D01*
X140484443Y-76714222D01*
X141228728Y-78070893D01*
X141729530Y-79572316D01*
X141909120Y-81016059D01*
X141667246Y-82818763D01*
X140983154Y-84485492D01*
X139919140Y-85939694D01*
X138537498Y-87104813D01*
X136900525Y-87904294D01*
X136130620Y-88117244D01*
X135305120Y-88295423D01*
X135305120Y-86655057D01*
X135318436Y-85763422D01*
X135394737Y-85240761D01*
X135588547Y-84948119D01*
X135954392Y-84746539D01*
X136073710Y-84696330D01*
X136987776Y-84066243D01*
X137618289Y-83132788D01*
X137925662Y-82035538D01*
X137870303Y-80914066D01*
X137426561Y-79926835D01*
X136486058Y-79011995D01*
X135380962Y-78532739D01*
X134209579Y-78497571D01*
X133070213Y-78914997D01*
X132338687Y-79486692D01*
X131792531Y-80121679D01*
X131548340Y-80737611D01*
X131495120Y-81532179D01*
X131690752Y-82831990D01*
X132242699Y-83883723D01*
X133098532Y-84599761D01*
X133413712Y-84738559D01*
X133889682Y-84931251D01*
X134151489Y-85165660D01*
X134263150Y-85581938D01*
X134288683Y-86320237D01*
X134289120Y-86655085D01*
X134259531Y-87590252D01*
X134106863Y-88100034D01*
X133735265Y-88248224D01*
X133048885Y-88098617D01*
X132435599Y-87888709D01*
X130723508Y-87025298D01*
X129297258Y-85790881D01*
X128225613Y-84258619D01*
X127650618Y-82797965D01*
X127430566Y-81055819D01*
X127669785Y-79313166D01*
X128327796Y-77660696D01*
X129364122Y-76189096D01*
X130738286Y-74989056D01*
X131285938Y-74653095D01*
X132062013Y-74260340D01*
X132750625Y-74034251D01*
X133549071Y-73931417D01*
X134654648Y-73908425D01*
X134670120Y-73908456D01*
G36*
X127181154Y-74957315D02*
X127714246Y-75214427D01*
X128491433Y-75664200D01*
X128861772Y-75981965D01*
X128878712Y-76250632D01*
X128595704Y-76553111D01*
X128583711Y-76563099D01*
X128272498Y-76997553D01*
X127907872Y-77749218D01*
X127558249Y-78642131D01*
X127292044Y-79500326D01*
X127177672Y-80147841D01*
X127177120Y-80180863D01*
X127177120Y-80723611D01*
X126605620Y-80190164D01*
X125714555Y-79588320D01*
X124865428Y-79490893D01*
X124048404Y-79896946D01*
X123995532Y-79941296D01*
X123390468Y-80731458D01*
X123268605Y-81590701D01*
X123627495Y-82439079D01*
X124086786Y-82921568D01*
X124552975Y-83362980D01*
X124793537Y-83807606D01*
X124881377Y-84447019D01*
X124891120Y-85035057D01*
X124859814Y-85906668D01*
X124710741Y-86346922D01*
X124361166Y-86431251D01*
X123728354Y-86235089D01*
X123621120Y-86192979D01*
X122436394Y-85468314D01*
X121435003Y-84366701D01*
X120691574Y-83007423D01*
X120280732Y-81509765D01*
X120223445Y-80762060D01*
X120373708Y-79003414D01*
X120873968Y-77546153D01*
X121655459Y-76407310D01*
X122896599Y-75315680D01*
X124258488Y-74704777D01*
X125700287Y-74582642D01*
X127181154Y-74957315D01*
X127181154Y-74957315D01*
G37*
X127181154Y-74957315D02*
X127714246Y-75214427D01*
X128491433Y-75664200D01*
X128861772Y-75981965D01*
X128878712Y-76250632D01*
X128595704Y-76553111D01*
X128583711Y-76563099D01*
X128272498Y-76997553D01*
X127907872Y-77749218D01*
X127558249Y-78642131D01*
X127292044Y-79500326D01*
X127177672Y-80147841D01*
X127177120Y-80180863D01*
X127177120Y-80723611D01*
X126605620Y-80190164D01*
X125714555Y-79588320D01*
X124865428Y-79490893D01*
X124048404Y-79896946D01*
X123995532Y-79941296D01*
X123390468Y-80731458D01*
X123268605Y-81590701D01*
X123627495Y-82439079D01*
X124086786Y-82921568D01*
X124552975Y-83362980D01*
X124793537Y-83807606D01*
X124881377Y-84447019D01*
X124891120Y-85035057D01*
X124859814Y-85906668D01*
X124710741Y-86346922D01*
X124361166Y-86431251D01*
X123728354Y-86235089D01*
X123621120Y-86192979D01*
X122436394Y-85468314D01*
X121435003Y-84366701D01*
X120691574Y-83007423D01*
X120280732Y-81509765D01*
X120223445Y-80762060D01*
X120373708Y-79003414D01*
X120873968Y-77546153D01*
X121655459Y-76407310D01*
X122896599Y-75315680D01*
X124258488Y-74704777D01*
X125700287Y-74582642D01*
X127181154Y-74957315D01*
G36*
X127271069Y-82650357D02*
X127539338Y-83293773D01*
X127709073Y-83738392D01*
X128027003Y-84569590D01*
X128272937Y-85201530D01*
X128391649Y-85492753D01*
X128230823Y-85668616D01*
X127748577Y-85923561D01*
X127109555Y-86188998D01*
X126478398Y-86396335D01*
X126028979Y-86477060D01*
X125817460Y-86362391D01*
X125699991Y-85956479D01*
X125655433Y-85166464D01*
X125653120Y-84826060D01*
X125687370Y-83985316D01*
X125776984Y-83390674D01*
X125897225Y-83175060D01*
X126234750Y-83006184D01*
X126622213Y-82658892D01*
X126884420Y-82404344D01*
X127076734Y-82377690D01*
X127271069Y-82650357D01*
X127271069Y-82650357D01*
G37*
X127271069Y-82650357D02*
X127539338Y-83293773D01*
X127709073Y-83738392D01*
X128027003Y-84569590D01*
X128272937Y-85201530D01*
X128391649Y-85492753D01*
X128230823Y-85668616D01*
X127748577Y-85923561D01*
X127109555Y-86188998D01*
X126478398Y-86396335D01*
X126028979Y-86477060D01*
X125817460Y-86362391D01*
X125699991Y-85956479D01*
X125655433Y-85166464D01*
X125653120Y-84826060D01*
X125687370Y-83985316D01*
X125776984Y-83390674D01*
X125897225Y-83175060D01*
X126234750Y-83006184D01*
X126622213Y-82658892D01*
X126884420Y-82404344D01*
X127076734Y-82377690D01*
X127271069Y-82650357D01*
G36*
X128266600Y-91393484D02*
X128311589Y-91480860D01*
X128862539Y-92122464D01*
X129540757Y-92241613D01*
X130246929Y-91832819D01*
X130455019Y-91599272D01*
X130845973Y-91167900D01*
X131045454Y-91076178D01*
X131052031Y-91107361D01*
X130831841Y-91592564D01*
X130313257Y-92126719D01*
X129709260Y-92519835D01*
X129367862Y-92609748D01*
X128738616Y-92418496D01*
X128391078Y-92166256D01*
X128030491Y-91602478D01*
X127951747Y-91249034D01*
X128030542Y-91056402D01*
X128266600Y-91393484D01*
X128266600Y-91393484D01*
G37*
X128266600Y-91393484D02*
X128311589Y-91480860D01*
X128862539Y-92122464D01*
X129540757Y-92241613D01*
X130246929Y-91832819D01*
X130455019Y-91599272D01*
X130845973Y-91167900D01*
X131045454Y-91076178D01*
X131052031Y-91107361D01*
X130831841Y-91592564D01*
X130313257Y-92126719D01*
X129709260Y-92519835D01*
X129367862Y-92609748D01*
X128738616Y-92418496D01*
X128391078Y-92166256D01*
X128030491Y-91602478D01*
X127951747Y-91249034D01*
X128030542Y-91056402D01*
X128266600Y-91393484D01*
M02*
