G04 #@! TF.GenerationSoftware,KiCad,Pcbnew,(2017-05-14 revision 14bb238b3)-makepkg*
G04 #@! TF.CreationDate,2017-07-12T11:42:09-06:00*
G04 #@! TF.ProjectId,001,3030312E6B696361645F706362000000,rev?*
G04 #@! TF.FileFunction,Legend,Bot*
G04 #@! TF.FilePolarity,Positive*
%FSLAX46Y46*%
G04 Gerber Fmt 4.6, Leading zero omitted, Abs format (unit mm)*
G04 Created by KiCad (PCBNEW (2017-05-14 revision 14bb238b3)-makepkg) date 07/12/17 11:42:09*
%MOMM*%
%LPD*%
G01*
G04 APERTURE LIST*
%ADD10C,0.100000*%
%ADD11C,0.152400*%
%ADD12C,0.120000*%
%ADD13C,0.010000*%
%ADD14C,0.150000*%
G04 APERTURE END LIST*
D10*
D11*
X128193361Y-104653179D02*
X128193361Y-103637179D01*
X127951457Y-103637179D01*
X127806314Y-103685560D01*
X127709552Y-103782321D01*
X127661171Y-103879083D01*
X127612790Y-104072607D01*
X127612790Y-104217750D01*
X127661171Y-104411274D01*
X127709552Y-104508036D01*
X127806314Y-104604798D01*
X127951457Y-104653179D01*
X128193361Y-104653179D01*
X126790314Y-104604798D02*
X126887076Y-104653179D01*
X127080600Y-104653179D01*
X127177361Y-104604798D01*
X127225742Y-104508036D01*
X127225742Y-104120988D01*
X127177361Y-104024226D01*
X127080600Y-103975845D01*
X126887076Y-103975845D01*
X126790314Y-104024226D01*
X126741933Y-104120988D01*
X126741933Y-104217750D01*
X127225742Y-104314512D01*
X126354885Y-104604798D02*
X126258123Y-104653179D01*
X126064600Y-104653179D01*
X125967838Y-104604798D01*
X125919457Y-104508036D01*
X125919457Y-104459655D01*
X125967838Y-104362893D01*
X126064600Y-104314512D01*
X126209742Y-104314512D01*
X126306504Y-104266131D01*
X126354885Y-104169369D01*
X126354885Y-104120988D01*
X126306504Y-104024226D01*
X126209742Y-103975845D01*
X126064600Y-103975845D01*
X125967838Y-104024226D01*
X125484028Y-104653179D02*
X125484028Y-103975845D01*
X125484028Y-103637179D02*
X125532409Y-103685560D01*
X125484028Y-103733940D01*
X125435647Y-103685560D01*
X125484028Y-103637179D01*
X125484028Y-103733940D01*
X124564790Y-103975845D02*
X124564790Y-104798321D01*
X124613171Y-104895083D01*
X124661552Y-104943464D01*
X124758314Y-104991845D01*
X124903457Y-104991845D01*
X125000219Y-104943464D01*
X124564790Y-104604798D02*
X124661552Y-104653179D01*
X124855076Y-104653179D01*
X124951838Y-104604798D01*
X125000219Y-104556417D01*
X125048600Y-104459655D01*
X125048600Y-104169369D01*
X125000219Y-104072607D01*
X124951838Y-104024226D01*
X124855076Y-103975845D01*
X124661552Y-103975845D01*
X124564790Y-104024226D01*
X124080980Y-103975845D02*
X124080980Y-104653179D01*
X124080980Y-104072607D02*
X124032600Y-104024226D01*
X123935838Y-103975845D01*
X123790695Y-103975845D01*
X123693933Y-104024226D01*
X123645552Y-104120988D01*
X123645552Y-104653179D01*
X122774695Y-104604798D02*
X122871457Y-104653179D01*
X123064980Y-104653179D01*
X123161742Y-104604798D01*
X123210123Y-104508036D01*
X123210123Y-104120988D01*
X123161742Y-104024226D01*
X123064980Y-103975845D01*
X122871457Y-103975845D01*
X122774695Y-104024226D01*
X122726314Y-104120988D01*
X122726314Y-104217750D01*
X123210123Y-104314512D01*
X121855457Y-104653179D02*
X121855457Y-103637179D01*
X121855457Y-104604798D02*
X121952219Y-104653179D01*
X122145742Y-104653179D01*
X122242504Y-104604798D01*
X122290885Y-104556417D01*
X122339266Y-104459655D01*
X122339266Y-104169369D01*
X122290885Y-104072607D01*
X122242504Y-104024226D01*
X122145742Y-103975845D01*
X121952219Y-103975845D01*
X121855457Y-104024226D01*
X120597552Y-104653179D02*
X120597552Y-103975845D01*
X120597552Y-103637179D02*
X120645933Y-103685560D01*
X120597552Y-103733940D01*
X120549171Y-103685560D01*
X120597552Y-103637179D01*
X120597552Y-103733940D01*
X120113742Y-103975845D02*
X120113742Y-104653179D01*
X120113742Y-104072607D02*
X120065361Y-104024226D01*
X119968600Y-103975845D01*
X119823457Y-103975845D01*
X119726695Y-104024226D01*
X119678314Y-104120988D01*
X119678314Y-104653179D01*
X118420409Y-104653179D02*
X118420409Y-103637179D01*
X118081742Y-104362893D01*
X117743076Y-103637179D01*
X117743076Y-104653179D01*
X116872219Y-104604798D02*
X116968980Y-104653179D01*
X117162504Y-104653179D01*
X117259266Y-104604798D01*
X117307647Y-104508036D01*
X117307647Y-104120988D01*
X117259266Y-104024226D01*
X117162504Y-103975845D01*
X116968980Y-103975845D01*
X116872219Y-104024226D01*
X116823838Y-104120988D01*
X116823838Y-104217750D01*
X117307647Y-104314512D01*
X116485171Y-104653179D02*
X115952980Y-103975845D01*
X116485171Y-103975845D02*
X115952980Y-104653179D01*
X115565933Y-104653179D02*
X115565933Y-103975845D01*
X115565933Y-103637179D02*
X115614314Y-103685560D01*
X115565933Y-103733940D01*
X115517552Y-103685560D01*
X115565933Y-103637179D01*
X115565933Y-103733940D01*
X114646695Y-104604798D02*
X114743457Y-104653179D01*
X114936980Y-104653179D01*
X115033742Y-104604798D01*
X115082123Y-104556417D01*
X115130504Y-104459655D01*
X115130504Y-104169369D01*
X115082123Y-104072607D01*
X115033742Y-104024226D01*
X114936980Y-103975845D01*
X114743457Y-103975845D01*
X114646695Y-104024226D01*
X114066123Y-104653179D02*
X114162885Y-104604798D01*
X114211266Y-104556417D01*
X114259647Y-104459655D01*
X114259647Y-104169369D01*
X114211266Y-104072607D01*
X114162885Y-104024226D01*
X114066123Y-103975845D01*
X113920980Y-103975845D01*
X113824219Y-104024226D01*
X113775838Y-104072607D01*
X113727457Y-104169369D01*
X113727457Y-104459655D01*
X113775838Y-104556417D01*
X113824219Y-104604798D01*
X113920980Y-104653179D01*
X114066123Y-104653179D01*
X147736363Y-108356499D02*
X147736363Y-107340499D01*
X147397697Y-108066213D01*
X147059030Y-107340499D01*
X147059030Y-108356499D01*
X146623601Y-108066213D02*
X146139792Y-108066213D01*
X146720363Y-108356499D02*
X146381697Y-107340499D01*
X146043030Y-108356499D01*
X145801125Y-107340499D02*
X145123792Y-107340499D01*
X145801125Y-108356499D01*
X145123792Y-108356499D01*
X144736744Y-108356499D02*
X144736744Y-107340499D01*
X144398078Y-108066213D01*
X144059411Y-107340499D01*
X144059411Y-108356499D01*
X143623982Y-108066213D02*
X143140173Y-108066213D01*
X143720744Y-108356499D02*
X143382078Y-107340499D01*
X143043411Y-108356499D01*
X142704744Y-108356499D02*
X142704744Y-107340499D01*
X142124173Y-108356499D02*
X142559601Y-107775927D01*
X142124173Y-107340499D02*
X142704744Y-107921070D01*
X141688744Y-107824308D02*
X141350078Y-107824308D01*
X141204935Y-108356499D02*
X141688744Y-108356499D01*
X141688744Y-107340499D01*
X141204935Y-107340499D01*
X140188935Y-108356499D02*
X140527601Y-107872689D01*
X140769506Y-108356499D02*
X140769506Y-107340499D01*
X140382459Y-107340499D01*
X140285697Y-107388880D01*
X140237316Y-107437260D01*
X140188935Y-107534022D01*
X140188935Y-107679165D01*
X140237316Y-107775927D01*
X140285697Y-107824308D01*
X140382459Y-107872689D01*
X140769506Y-107872689D01*
X122254600Y-60632560D02*
X122254600Y-59870560D01*
X122254600Y-59870560D02*
X138256600Y-59870560D01*
X138256600Y-59870560D02*
X138256600Y-60632560D01*
D12*
X141654877Y-79869842D02*
X142993138Y-81356132D01*
X141477123Y-82721158D02*
X140138862Y-81234868D01*
X135588000Y-101466000D02*
X137588000Y-101466000D01*
X137588000Y-99326000D02*
X135588000Y-99326000D01*
X125681000Y-92173100D02*
X131691000Y-92173100D01*
X127931000Y-85353100D02*
X131691000Y-85353100D01*
X131691000Y-92173100D02*
X131691000Y-90913100D01*
X131691000Y-85353100D02*
X131691000Y-86613100D01*
X134391000Y-93563700D02*
X133121000Y-93563700D01*
X134391000Y-94833700D02*
X134391000Y-93563700D01*
X132211000Y-97753700D02*
X131781000Y-97753700D01*
X132211000Y-96993700D02*
X131781000Y-96993700D01*
X123161000Y-96993700D02*
X129161000Y-96993700D01*
X123161000Y-97753700D02*
X123161000Y-96993700D01*
X129161000Y-97753700D02*
X123161000Y-97753700D01*
X129161000Y-96993700D02*
X129161000Y-97753700D01*
X129161000Y-96103700D02*
X131781000Y-96103700D01*
X129161000Y-98703700D02*
X129161000Y-96103700D01*
X131781000Y-98703700D02*
X129161000Y-98703700D01*
X131781000Y-96103700D02*
X131781000Y-98703700D01*
X129161000Y-95173700D02*
X123161000Y-95173700D01*
X129161000Y-95053700D02*
X123161000Y-95053700D01*
X129161000Y-94933700D02*
X123161000Y-94933700D01*
X129161000Y-94813700D02*
X123161000Y-94813700D01*
X129161000Y-94693700D02*
X123161000Y-94693700D01*
X129161000Y-94573700D02*
X123161000Y-94573700D01*
X132211000Y-95213700D02*
X131781000Y-95213700D01*
X132211000Y-94453700D02*
X131781000Y-94453700D01*
X123161000Y-94453700D02*
X129161000Y-94453700D01*
X123161000Y-95213700D02*
X123161000Y-94453700D01*
X129161000Y-95213700D02*
X123161000Y-95213700D01*
X129161000Y-94453700D02*
X129161000Y-95213700D01*
X129161000Y-93503700D02*
X131781000Y-93503700D01*
X129161000Y-96103700D02*
X129161000Y-93503700D01*
X131781000Y-96103700D02*
X129161000Y-96103700D01*
X131781000Y-93503700D02*
X131781000Y-96103700D01*
D13*
G36*
X142181263Y-103928674D02*
X143342406Y-103928674D01*
X143342406Y-102985245D01*
X143124692Y-102985245D01*
X143124692Y-103710960D01*
X142398977Y-103710960D01*
X142398977Y-102985245D01*
X143124692Y-102985245D01*
X143342406Y-102985245D01*
X143342406Y-102767531D01*
X142181263Y-102767531D01*
X142181263Y-103928674D01*
X142181263Y-103928674D01*
G37*
X142181263Y-103928674D02*
X143342406Y-103928674D01*
X143342406Y-102985245D01*
X143124692Y-102985245D01*
X143124692Y-103710960D01*
X142398977Y-103710960D01*
X142398977Y-102985245D01*
X143124692Y-102985245D01*
X143342406Y-102985245D01*
X143342406Y-102767531D01*
X142181263Y-102767531D01*
X142181263Y-103928674D01*
G36*
X144539834Y-103928674D02*
X145700977Y-103928674D01*
X145700977Y-102985245D01*
X145483263Y-102985245D01*
X145483263Y-103710960D01*
X144757549Y-103710960D01*
X144757549Y-102985245D01*
X145483263Y-102985245D01*
X145700977Y-102985245D01*
X145700977Y-102767531D01*
X144539834Y-102767531D01*
X144539834Y-103928674D01*
X144539834Y-103928674D01*
G37*
X144539834Y-103928674D02*
X145700977Y-103928674D01*
X145700977Y-102985245D01*
X145483263Y-102985245D01*
X145483263Y-103710960D01*
X144757549Y-103710960D01*
X144757549Y-102985245D01*
X145483263Y-102985245D01*
X145700977Y-102985245D01*
X145700977Y-102767531D01*
X144539834Y-102767531D01*
X144539834Y-103928674D01*
G36*
X141963549Y-106577531D02*
X145882406Y-106577531D01*
X145882406Y-105706674D01*
X145664692Y-105706674D01*
X145664692Y-106323531D01*
X145156692Y-106323531D01*
X145156692Y-105706674D01*
X144902692Y-105706674D01*
X144902692Y-106323531D01*
X144394692Y-106323531D01*
X144394692Y-105706674D01*
X144176977Y-105706674D01*
X144176977Y-106363133D01*
X143932049Y-106352403D01*
X143687120Y-106341674D01*
X143666152Y-105706674D01*
X143451263Y-105706674D01*
X143451263Y-106359817D01*
X142943263Y-106359817D01*
X142943263Y-105706674D01*
X142689263Y-105706674D01*
X142689263Y-106323531D01*
X142181263Y-106323531D01*
X142181263Y-105706674D01*
X142689263Y-105706674D01*
X142943263Y-105706674D01*
X143451263Y-105706674D01*
X143666152Y-105706674D01*
X144176977Y-105706674D01*
X144394692Y-105706674D01*
X144902692Y-105706674D01*
X145156692Y-105706674D01*
X145664692Y-105706674D01*
X145882406Y-105706674D01*
X145882406Y-105017245D01*
X145664692Y-105017245D01*
X145664692Y-105634103D01*
X145156692Y-105634103D01*
X145156692Y-105017245D01*
X144938977Y-105017245D01*
X144938977Y-105634103D01*
X144394692Y-105634103D01*
X144394692Y-105017245D01*
X144176977Y-105017245D01*
X144176977Y-105634103D01*
X143668977Y-105634103D01*
X143668977Y-105017245D01*
X143451263Y-105017245D01*
X143451263Y-105634103D01*
X142943263Y-105634103D01*
X142943263Y-105017245D01*
X142689263Y-105017245D01*
X142689263Y-105634103D01*
X142181263Y-105634103D01*
X142181263Y-105017245D01*
X142689263Y-105017245D01*
X142943263Y-105017245D01*
X143451263Y-105017245D01*
X143668977Y-105017245D01*
X144176977Y-105017245D01*
X144394692Y-105017245D01*
X144938977Y-105017245D01*
X145156692Y-105017245D01*
X145664692Y-105017245D01*
X145882406Y-105017245D01*
X145882406Y-104799531D01*
X141963549Y-104799531D01*
X141963549Y-106577531D01*
X141963549Y-106577531D01*
G37*
X141963549Y-106577531D02*
X145882406Y-106577531D01*
X145882406Y-105706674D01*
X145664692Y-105706674D01*
X145664692Y-106323531D01*
X145156692Y-106323531D01*
X145156692Y-105706674D01*
X144902692Y-105706674D01*
X144902692Y-106323531D01*
X144394692Y-106323531D01*
X144394692Y-105706674D01*
X144176977Y-105706674D01*
X144176977Y-106363133D01*
X143932049Y-106352403D01*
X143687120Y-106341674D01*
X143666152Y-105706674D01*
X143451263Y-105706674D01*
X143451263Y-106359817D01*
X142943263Y-106359817D01*
X142943263Y-105706674D01*
X142689263Y-105706674D01*
X142689263Y-106323531D01*
X142181263Y-106323531D01*
X142181263Y-105706674D01*
X142689263Y-105706674D01*
X142943263Y-105706674D01*
X143451263Y-105706674D01*
X143666152Y-105706674D01*
X144176977Y-105706674D01*
X144394692Y-105706674D01*
X144902692Y-105706674D01*
X145156692Y-105706674D01*
X145664692Y-105706674D01*
X145882406Y-105706674D01*
X145882406Y-105017245D01*
X145664692Y-105017245D01*
X145664692Y-105634103D01*
X145156692Y-105634103D01*
X145156692Y-105017245D01*
X144938977Y-105017245D01*
X144938977Y-105634103D01*
X144394692Y-105634103D01*
X144394692Y-105017245D01*
X144176977Y-105017245D01*
X144176977Y-105634103D01*
X143668977Y-105634103D01*
X143668977Y-105017245D01*
X143451263Y-105017245D01*
X143451263Y-105634103D01*
X142943263Y-105634103D01*
X142943263Y-105017245D01*
X142689263Y-105017245D01*
X142689263Y-105634103D01*
X142181263Y-105634103D01*
X142181263Y-105017245D01*
X142689263Y-105017245D01*
X142943263Y-105017245D01*
X143451263Y-105017245D01*
X143668977Y-105017245D01*
X144176977Y-105017245D01*
X144394692Y-105017245D01*
X144938977Y-105017245D01*
X145156692Y-105017245D01*
X145664692Y-105017245D01*
X145882406Y-105017245D01*
X145882406Y-104799531D01*
X141963549Y-104799531D01*
X141963549Y-106577531D01*
G36*
X145530923Y-101651745D02*
X145428835Y-101842245D01*
X142616321Y-101861241D01*
X142606296Y-101840800D01*
X142362692Y-101840800D01*
X142330566Y-101853312D01*
X142250759Y-101860026D01*
X142224269Y-101860388D01*
X142127810Y-101851776D01*
X142070316Y-101812420D01*
X142025525Y-101733892D01*
X141965204Y-101607396D01*
X142076605Y-101549788D01*
X142153497Y-101514400D01*
X142196376Y-101502953D01*
X142198318Y-101503927D01*
X142222952Y-101545401D01*
X142263988Y-101624921D01*
X142309136Y-101717304D01*
X142346109Y-101797365D01*
X142362620Y-101839922D01*
X142362692Y-101840800D01*
X142606296Y-101840800D01*
X142518233Y-101661243D01*
X142420145Y-101461246D01*
X142066988Y-101461246D01*
X141913874Y-101464632D01*
X141789458Y-101473740D01*
X141710605Y-101486994D01*
X141692175Y-101496287D01*
X141694231Y-101547176D01*
X141724731Y-101634519D01*
X141744462Y-101676270D01*
X141789095Y-101767754D01*
X141815412Y-101829424D01*
X141818406Y-101840800D01*
X141785580Y-101851530D01*
X141700907Y-101858645D01*
X141618834Y-101860388D01*
X141419263Y-101860388D01*
X141419263Y-107012960D01*
X146644406Y-107012960D01*
X146644406Y-102078103D01*
X146390406Y-102078103D01*
X146390406Y-106904103D01*
X141636977Y-106904103D01*
X141636977Y-102078103D01*
X146390406Y-102078103D01*
X146644406Y-102078103D01*
X146644406Y-101860388D01*
X146249344Y-101860388D01*
X146321758Y-101696684D01*
X146347607Y-101627265D01*
X146100120Y-101627265D01*
X146085059Y-101669393D01*
X146048432Y-101746190D01*
X146044760Y-101753333D01*
X145995959Y-101824942D01*
X145930392Y-101855117D01*
X145845188Y-101860388D01*
X145754603Y-101856013D01*
X145704489Y-101845093D01*
X145700977Y-101840800D01*
X145715709Y-101801595D01*
X145751713Y-101723229D01*
X145796701Y-101630883D01*
X145838385Y-101549742D01*
X145864477Y-101504988D01*
X145865351Y-101503927D01*
X145900689Y-101510249D01*
X145969061Y-101540920D01*
X146042368Y-101581178D01*
X146092514Y-101616262D01*
X146100120Y-101627265D01*
X146347607Y-101627265D01*
X146359682Y-101594838D01*
X146375225Y-101518675D01*
X146372005Y-101497113D01*
X146328435Y-101481877D01*
X146229064Y-101469856D01*
X146090642Y-101462627D01*
X145991425Y-101461246D01*
X145633012Y-101461246D01*
X145530923Y-101651745D01*
X145530923Y-101651745D01*
G37*
X145530923Y-101651745D02*
X145428835Y-101842245D01*
X142616321Y-101861241D01*
X142606296Y-101840800D01*
X142362692Y-101840800D01*
X142330566Y-101853312D01*
X142250759Y-101860026D01*
X142224269Y-101860388D01*
X142127810Y-101851776D01*
X142070316Y-101812420D01*
X142025525Y-101733892D01*
X141965204Y-101607396D01*
X142076605Y-101549788D01*
X142153497Y-101514400D01*
X142196376Y-101502953D01*
X142198318Y-101503927D01*
X142222952Y-101545401D01*
X142263988Y-101624921D01*
X142309136Y-101717304D01*
X142346109Y-101797365D01*
X142362620Y-101839922D01*
X142362692Y-101840800D01*
X142606296Y-101840800D01*
X142518233Y-101661243D01*
X142420145Y-101461246D01*
X142066988Y-101461246D01*
X141913874Y-101464632D01*
X141789458Y-101473740D01*
X141710605Y-101486994D01*
X141692175Y-101496287D01*
X141694231Y-101547176D01*
X141724731Y-101634519D01*
X141744462Y-101676270D01*
X141789095Y-101767754D01*
X141815412Y-101829424D01*
X141818406Y-101840800D01*
X141785580Y-101851530D01*
X141700907Y-101858645D01*
X141618834Y-101860388D01*
X141419263Y-101860388D01*
X141419263Y-107012960D01*
X146644406Y-107012960D01*
X146644406Y-102078103D01*
X146390406Y-102078103D01*
X146390406Y-106904103D01*
X141636977Y-106904103D01*
X141636977Y-102078103D01*
X146390406Y-102078103D01*
X146644406Y-102078103D01*
X146644406Y-101860388D01*
X146249344Y-101860388D01*
X146321758Y-101696684D01*
X146347607Y-101627265D01*
X146100120Y-101627265D01*
X146085059Y-101669393D01*
X146048432Y-101746190D01*
X146044760Y-101753333D01*
X145995959Y-101824942D01*
X145930392Y-101855117D01*
X145845188Y-101860388D01*
X145754603Y-101856013D01*
X145704489Y-101845093D01*
X145700977Y-101840800D01*
X145715709Y-101801595D01*
X145751713Y-101723229D01*
X145796701Y-101630883D01*
X145838385Y-101549742D01*
X145864477Y-101504988D01*
X145865351Y-101503927D01*
X145900689Y-101510249D01*
X145969061Y-101540920D01*
X146042368Y-101581178D01*
X146092514Y-101616262D01*
X146100120Y-101627265D01*
X146347607Y-101627265D01*
X146359682Y-101594838D01*
X146375225Y-101518675D01*
X146372005Y-101497113D01*
X146328435Y-101481877D01*
X146229064Y-101469856D01*
X146090642Y-101462627D01*
X145991425Y-101461246D01*
X145633012Y-101461246D01*
X145530923Y-101651745D01*
D14*
X131057664Y-72835700D02*
X131057664Y-73645224D01*
X131010045Y-73740462D01*
X130962426Y-73788081D01*
X130867188Y-73835700D01*
X130676712Y-73835700D01*
X130581474Y-73788081D01*
X130533855Y-73740462D01*
X130486236Y-73645224D01*
X130486236Y-72835700D01*
X129486236Y-73835700D02*
X130057664Y-73835700D01*
X129771950Y-73835700D02*
X129771950Y-72835700D01*
X129867188Y-72978558D01*
X129962426Y-73073796D01*
X130057664Y-73121415D01*
X140111609Y-82829311D02*
X140108085Y-82896562D01*
X140168287Y-83034589D01*
X140232014Y-83105365D01*
X140362992Y-83179665D01*
X140497494Y-83186714D01*
X140600133Y-83158375D01*
X140773548Y-83066310D01*
X140879712Y-82970720D01*
X140989400Y-82807878D01*
X141028312Y-82708764D01*
X141035361Y-82574261D01*
X140975159Y-82436234D01*
X140911432Y-82365459D01*
X140780454Y-82291159D01*
X140713203Y-82287634D01*
X139403566Y-82185281D02*
X139785927Y-82609935D01*
X139594747Y-82397608D02*
X140337891Y-81728477D01*
X140295455Y-81894843D01*
X140288406Y-82029346D01*
X140316745Y-82131985D01*
X136678466Y-99133880D02*
X137011800Y-98657690D01*
X137249895Y-99133880D02*
X137249895Y-98133880D01*
X136868942Y-98133880D01*
X136773704Y-98181500D01*
X136726085Y-98229119D01*
X136678466Y-98324357D01*
X136678466Y-98467214D01*
X136726085Y-98562452D01*
X136773704Y-98610071D01*
X136868942Y-98657690D01*
X137249895Y-98657690D01*
X135726085Y-99133880D02*
X136297514Y-99133880D01*
X136011800Y-99133880D02*
X136011800Y-98133880D01*
X136107038Y-98276738D01*
X136202276Y-98371976D01*
X136297514Y-98419595D01*
X130454004Y-86551780D02*
X130454004Y-87361304D01*
X130406385Y-87456542D01*
X130358766Y-87504161D01*
X130263528Y-87551780D01*
X130073052Y-87551780D01*
X129977814Y-87504161D01*
X129930195Y-87456542D01*
X129882576Y-87361304D01*
X129882576Y-86551780D01*
X129454004Y-86647019D02*
X129406385Y-86599400D01*
X129311147Y-86551780D01*
X129073052Y-86551780D01*
X128977814Y-86599400D01*
X128930195Y-86647019D01*
X128882576Y-86742257D01*
X128882576Y-86837495D01*
X128930195Y-86980352D01*
X129501623Y-87551780D01*
X128882576Y-87551780D01*
X129139333Y-92016080D02*
X129139333Y-92730366D01*
X129186952Y-92873223D01*
X129282190Y-92968461D01*
X129425047Y-93016080D01*
X129520285Y-93016080D01*
X128139333Y-93016080D02*
X128710761Y-93016080D01*
X128425047Y-93016080D02*
X128425047Y-92016080D01*
X128520285Y-92158938D01*
X128615523Y-92254176D01*
X128710761Y-92301795D01*
M02*
