G04 #@! TF.GenerationSoftware,KiCad,Pcbnew,(2017-05-14 revision 14bb238b3)-makepkg*
G04 #@! TF.CreationDate,2017-07-12T11:42:09-06:00*
G04 #@! TF.ProjectId,001,3030312E6B696361645F706362000000,rev?*
G04 #@! TF.FileFunction,Soldermask,Bot*
G04 #@! TF.FilePolarity,Negative*
%FSLAX46Y46*%
G04 Gerber Fmt 4.6, Leading zero omitted, Abs format (unit mm)*
G04 Created by KiCad (PCBNEW (2017-05-14 revision 14bb238b3)-makepkg) date 07/12/17 11:42:09*
%MOMM*%
%LPD*%
G01*
G04 APERTURE LIST*
%ADD10C,0.100000*%
%ADD11C,0.152400*%
G04 APERTURE END LIST*
D10*
D11*
X125281796Y-105817708D02*
X125136653Y-105866089D01*
X125088272Y-105914470D01*
X125039891Y-106011232D01*
X125039891Y-106156375D01*
X125088272Y-106253137D01*
X125136653Y-106301518D01*
X125233415Y-106349899D01*
X125620462Y-106349899D01*
X125620462Y-105333899D01*
X125281796Y-105333899D01*
X125185034Y-105382280D01*
X125136653Y-105430660D01*
X125088272Y-105527422D01*
X125088272Y-105624184D01*
X125136653Y-105720946D01*
X125185034Y-105769327D01*
X125281796Y-105817708D01*
X125620462Y-105817708D01*
X124701224Y-105672565D02*
X124459320Y-106349899D01*
X124217415Y-105672565D02*
X124459320Y-106349899D01*
X124556081Y-106591803D01*
X124604462Y-106640184D01*
X124701224Y-106688565D01*
X122524081Y-105382280D02*
X122620843Y-105333899D01*
X122765986Y-105333899D01*
X122911129Y-105382280D01*
X123007891Y-105479041D01*
X123056272Y-105575803D01*
X123104653Y-105769327D01*
X123104653Y-105914470D01*
X123056272Y-106107994D01*
X123007891Y-106204756D01*
X122911129Y-106301518D01*
X122765986Y-106349899D01*
X122669224Y-106349899D01*
X122524081Y-106301518D01*
X122475700Y-106253137D01*
X122475700Y-105914470D01*
X122669224Y-105914470D01*
X121459700Y-106349899D02*
X121798367Y-105866089D01*
X122040272Y-106349899D02*
X122040272Y-105333899D01*
X121653224Y-105333899D01*
X121556462Y-105382280D01*
X121508081Y-105430660D01*
X121459700Y-105527422D01*
X121459700Y-105672565D01*
X121508081Y-105769327D01*
X121556462Y-105817708D01*
X121653224Y-105866089D01*
X122040272Y-105866089D01*
X120637224Y-106301518D02*
X120733986Y-106349899D01*
X120927510Y-106349899D01*
X121024272Y-106301518D01*
X121072653Y-106204756D01*
X121072653Y-105817708D01*
X121024272Y-105720946D01*
X120927510Y-105672565D01*
X120733986Y-105672565D01*
X120637224Y-105720946D01*
X120588843Y-105817708D01*
X120588843Y-105914470D01*
X121072653Y-106011232D01*
X120250177Y-105672565D02*
X120008272Y-106349899D01*
X119766367Y-105672565D02*
X120008272Y-106349899D01*
X120105034Y-106591803D01*
X120153415Y-106640184D01*
X120250177Y-106688565D01*
X119379320Y-105672565D02*
X119379320Y-106349899D01*
X119379320Y-105769327D02*
X119330939Y-105720946D01*
X119234177Y-105672565D01*
X119089034Y-105672565D01*
X118992272Y-105720946D01*
X118943891Y-105817708D01*
X118943891Y-106349899D01*
X118024653Y-106349899D02*
X118024653Y-105817708D01*
X118073034Y-105720946D01*
X118169796Y-105672565D01*
X118363320Y-105672565D01*
X118460081Y-105720946D01*
X118024653Y-106301518D02*
X118121415Y-106349899D01*
X118363320Y-106349899D01*
X118460081Y-106301518D01*
X118508462Y-106204756D01*
X118508462Y-106107994D01*
X118460081Y-106011232D01*
X118363320Y-105962851D01*
X118121415Y-105962851D01*
X118024653Y-105914470D01*
X117105415Y-105672565D02*
X117105415Y-106495041D01*
X117153796Y-106591803D01*
X117202177Y-106640184D01*
X117298939Y-106688565D01*
X117444081Y-106688565D01*
X117540843Y-106640184D01*
X117105415Y-106301518D02*
X117202177Y-106349899D01*
X117395700Y-106349899D01*
X117492462Y-106301518D01*
X117540843Y-106253137D01*
X117589224Y-106156375D01*
X117589224Y-105866089D01*
X117540843Y-105769327D01*
X117492462Y-105720946D01*
X117395700Y-105672565D01*
X117202177Y-105672565D01*
X117105415Y-105720946D01*
X116186177Y-106349899D02*
X116186177Y-105817708D01*
X116234558Y-105720946D01*
X116331320Y-105672565D01*
X116524843Y-105672565D01*
X116621605Y-105720946D01*
X116186177Y-106301518D02*
X116282939Y-106349899D01*
X116524843Y-106349899D01*
X116621605Y-106301518D01*
X116669986Y-106204756D01*
X116669986Y-106107994D01*
X116621605Y-106011232D01*
X116524843Y-105962851D01*
X116282939Y-105962851D01*
X116186177Y-105914470D01*
D10*
G36*
X131832540Y-135222761D02*
X132087302Y-135275057D01*
X132327069Y-135375845D01*
X132542685Y-135521280D01*
X132725947Y-135705825D01*
X132869872Y-135922452D01*
X132968982Y-136162908D01*
X133019429Y-136417690D01*
X133019429Y-136417695D01*
X133019497Y-136418039D01*
X133015349Y-136715101D01*
X133015272Y-136715439D01*
X133015272Y-136715448D01*
X132957730Y-136968723D01*
X132851947Y-137206315D01*
X132702026Y-137418840D01*
X132513682Y-137598198D01*
X132294087Y-137737558D01*
X132051607Y-137831609D01*
X131795479Y-137876772D01*
X131535453Y-137871325D01*
X131281437Y-137815476D01*
X131043107Y-137711352D01*
X130829544Y-137562922D01*
X130648876Y-137375835D01*
X130507987Y-137157218D01*
X130412243Y-136915395D01*
X130365295Y-136659593D01*
X130368925Y-136399536D01*
X130423000Y-136145135D01*
X130525456Y-135906086D01*
X130672395Y-135691489D01*
X130858214Y-135509520D01*
X131075843Y-135367108D01*
X131316988Y-135269679D01*
X131572459Y-135220946D01*
X131832540Y-135222761D01*
X131832540Y-135222761D01*
G37*
G36*
X111192500Y-132540521D02*
X111447262Y-132592817D01*
X111687029Y-132693605D01*
X111902645Y-132839040D01*
X112085907Y-133023585D01*
X112229832Y-133240212D01*
X112328942Y-133480668D01*
X112379389Y-133735450D01*
X112379389Y-133735455D01*
X112379457Y-133735799D01*
X112375309Y-134032861D01*
X112375232Y-134033199D01*
X112375232Y-134033208D01*
X112317690Y-134286483D01*
X112211907Y-134524075D01*
X112061986Y-134736600D01*
X111873642Y-134915958D01*
X111654047Y-135055318D01*
X111411567Y-135149369D01*
X111155439Y-135194532D01*
X110895413Y-135189085D01*
X110641397Y-135133236D01*
X110403067Y-135029112D01*
X110189504Y-134880682D01*
X110008836Y-134693595D01*
X109867947Y-134474978D01*
X109772203Y-134233155D01*
X109725255Y-133977353D01*
X109728885Y-133717296D01*
X109782960Y-133462895D01*
X109885416Y-133223846D01*
X110032355Y-133009249D01*
X110218174Y-132827280D01*
X110435803Y-132684868D01*
X110676948Y-132587439D01*
X110932419Y-132538706D01*
X111192500Y-132540521D01*
X111192500Y-132540521D01*
G37*
G36*
X130979100Y-123868961D02*
X131233862Y-123921257D01*
X131473629Y-124022045D01*
X131689245Y-124167480D01*
X131872507Y-124352025D01*
X132016432Y-124568652D01*
X132115542Y-124809108D01*
X132165989Y-125063890D01*
X132165989Y-125063895D01*
X132166057Y-125064239D01*
X132161909Y-125361301D01*
X132161832Y-125361639D01*
X132161832Y-125361648D01*
X132104290Y-125614923D01*
X131998507Y-125852515D01*
X131848586Y-126065040D01*
X131660242Y-126244398D01*
X131440647Y-126383758D01*
X131198167Y-126477809D01*
X130942039Y-126522972D01*
X130682013Y-126517525D01*
X130427997Y-126461676D01*
X130189667Y-126357552D01*
X129976104Y-126209122D01*
X129795436Y-126022035D01*
X129654547Y-125803418D01*
X129558803Y-125561595D01*
X129511855Y-125305793D01*
X129515485Y-125045736D01*
X129569560Y-124791335D01*
X129672016Y-124552286D01*
X129818955Y-124337689D01*
X130004774Y-124155720D01*
X130222403Y-124013308D01*
X130463548Y-123915879D01*
X130719019Y-123867146D01*
X130979100Y-123868961D01*
X130979100Y-123868961D01*
G37*
G36*
X104232900Y-121283241D02*
X104487662Y-121335537D01*
X104727429Y-121436325D01*
X104943045Y-121581760D01*
X105126307Y-121766305D01*
X105270232Y-121982932D01*
X105369342Y-122223388D01*
X105419789Y-122478170D01*
X105419789Y-122478175D01*
X105419857Y-122478519D01*
X105415709Y-122775581D01*
X105415632Y-122775919D01*
X105415632Y-122775928D01*
X105358090Y-123029203D01*
X105252307Y-123266795D01*
X105102386Y-123479320D01*
X104914042Y-123658678D01*
X104694447Y-123798038D01*
X104451967Y-123892089D01*
X104195839Y-123937252D01*
X103935813Y-123931805D01*
X103681797Y-123875956D01*
X103443467Y-123771832D01*
X103229904Y-123623402D01*
X103049236Y-123436315D01*
X102908347Y-123217698D01*
X102812603Y-122975875D01*
X102765655Y-122720073D01*
X102769285Y-122460016D01*
X102823360Y-122205615D01*
X102925816Y-121966566D01*
X103072755Y-121751969D01*
X103258574Y-121570000D01*
X103476203Y-121427588D01*
X103717348Y-121330159D01*
X103972819Y-121281426D01*
X104232900Y-121283241D01*
X104232900Y-121283241D01*
G37*
G36*
X156922660Y-116213401D02*
X157177422Y-116265697D01*
X157417189Y-116366485D01*
X157632805Y-116511920D01*
X157816067Y-116696465D01*
X157959992Y-116913092D01*
X158059102Y-117153548D01*
X158109549Y-117408330D01*
X158109549Y-117408335D01*
X158109617Y-117408679D01*
X158105469Y-117705741D01*
X158105392Y-117706079D01*
X158105392Y-117706088D01*
X158047850Y-117959363D01*
X157942067Y-118196955D01*
X157792146Y-118409480D01*
X157603802Y-118588838D01*
X157384207Y-118728198D01*
X157141727Y-118822249D01*
X156885599Y-118867412D01*
X156625573Y-118861965D01*
X156371557Y-118806116D01*
X156133227Y-118701992D01*
X155919664Y-118553562D01*
X155738996Y-118366475D01*
X155598107Y-118147858D01*
X155502363Y-117906035D01*
X155455415Y-117650233D01*
X155459045Y-117390176D01*
X155513120Y-117135775D01*
X155615576Y-116896726D01*
X155762515Y-116682129D01*
X155948334Y-116500160D01*
X156165963Y-116357748D01*
X156407108Y-116260319D01*
X156662579Y-116211586D01*
X156922660Y-116213401D01*
X156922660Y-116213401D01*
G37*
G36*
X148921660Y-115024681D02*
X149176422Y-115076977D01*
X149416189Y-115177765D01*
X149631805Y-115323200D01*
X149815067Y-115507745D01*
X149958992Y-115724372D01*
X150058102Y-115964828D01*
X150108549Y-116219610D01*
X150108549Y-116219615D01*
X150108617Y-116219959D01*
X150104469Y-116517021D01*
X150104392Y-116517359D01*
X150104392Y-116517368D01*
X150046850Y-116770643D01*
X149941067Y-117008235D01*
X149791146Y-117220760D01*
X149602802Y-117400118D01*
X149383207Y-117539478D01*
X149140727Y-117633529D01*
X148884599Y-117678692D01*
X148624573Y-117673245D01*
X148370557Y-117617396D01*
X148132227Y-117513272D01*
X147918664Y-117364842D01*
X147737996Y-117177755D01*
X147597107Y-116959138D01*
X147501363Y-116717315D01*
X147454415Y-116461513D01*
X147458045Y-116201456D01*
X147512120Y-115947055D01*
X147614576Y-115708006D01*
X147761515Y-115493409D01*
X147947334Y-115311440D01*
X148164963Y-115169028D01*
X148406108Y-115071599D01*
X148661579Y-115022866D01*
X148921660Y-115024681D01*
X148921660Y-115024681D01*
G37*
G36*
X105111740Y-113399081D02*
X105366502Y-113451377D01*
X105606269Y-113552165D01*
X105821885Y-113697600D01*
X106005147Y-113882145D01*
X106149072Y-114098772D01*
X106248182Y-114339228D01*
X106298629Y-114594010D01*
X106298629Y-114594015D01*
X106298697Y-114594359D01*
X106294549Y-114891421D01*
X106294472Y-114891759D01*
X106294472Y-114891768D01*
X106236930Y-115145043D01*
X106131147Y-115382635D01*
X105981226Y-115595160D01*
X105792882Y-115774518D01*
X105573287Y-115913878D01*
X105330807Y-116007929D01*
X105074679Y-116053092D01*
X104814653Y-116047645D01*
X104560637Y-115991796D01*
X104322307Y-115887672D01*
X104108744Y-115739242D01*
X103928076Y-115552155D01*
X103787187Y-115333538D01*
X103691443Y-115091715D01*
X103644495Y-114835913D01*
X103648125Y-114575856D01*
X103702200Y-114321455D01*
X103804656Y-114082406D01*
X103951595Y-113867809D01*
X104137414Y-113685840D01*
X104355043Y-113543428D01*
X104596188Y-113445999D01*
X104851659Y-113397266D01*
X105111740Y-113399081D01*
X105111740Y-113399081D01*
G37*
G36*
X170034140Y-103000321D02*
X170288902Y-103052617D01*
X170528669Y-103153405D01*
X170744285Y-103298840D01*
X170927547Y-103483385D01*
X171071472Y-103700012D01*
X171170582Y-103940468D01*
X171221029Y-104195250D01*
X171221029Y-104195255D01*
X171221097Y-104195599D01*
X171216949Y-104492661D01*
X171216872Y-104492999D01*
X171216872Y-104493008D01*
X171159330Y-104746283D01*
X171053547Y-104983875D01*
X170903626Y-105196400D01*
X170715282Y-105375758D01*
X170495687Y-105515118D01*
X170253207Y-105609169D01*
X169997079Y-105654332D01*
X169737053Y-105648885D01*
X169483037Y-105593036D01*
X169244707Y-105488912D01*
X169031144Y-105340482D01*
X168850476Y-105153395D01*
X168709587Y-104934778D01*
X168613843Y-104692955D01*
X168566895Y-104437153D01*
X168570525Y-104177096D01*
X168624600Y-103922695D01*
X168727056Y-103683646D01*
X168873995Y-103469049D01*
X169059814Y-103287080D01*
X169277443Y-103144668D01*
X169518588Y-103047239D01*
X169774059Y-102998506D01*
X170034140Y-103000321D01*
X170034140Y-103000321D01*
G37*
G36*
X150208234Y-101979473D02*
X150437561Y-102026548D01*
X150653391Y-102117274D01*
X150847478Y-102248188D01*
X151012450Y-102414314D01*
X151142004Y-102609311D01*
X151231219Y-102825761D01*
X151276623Y-103055073D01*
X151276623Y-103055078D01*
X151276691Y-103055422D01*
X151272957Y-103322827D01*
X151272880Y-103323165D01*
X151272880Y-103323173D01*
X151221090Y-103551129D01*
X151125868Y-103765001D01*
X150990915Y-103956309D01*
X150821374Y-104117761D01*
X150623703Y-104243206D01*
X150405428Y-104327869D01*
X150174873Y-104368523D01*
X149940805Y-104363620D01*
X149712149Y-104313346D01*
X149497612Y-104219618D01*
X149305374Y-104086009D01*
X149142738Y-103917594D01*
X149015916Y-103720805D01*
X148929730Y-103503124D01*
X148887469Y-103272860D01*
X148890737Y-103038766D01*
X148939414Y-102809763D01*
X149031641Y-102594579D01*
X149163910Y-102401406D01*
X149331178Y-102237604D01*
X149527081Y-102109409D01*
X149744151Y-102021707D01*
X149974117Y-101977839D01*
X150208234Y-101979473D01*
X150208234Y-101979473D01*
G37*
G36*
X114516154Y-99983033D02*
X114745481Y-100030108D01*
X114961311Y-100120834D01*
X115155398Y-100251748D01*
X115320370Y-100417874D01*
X115449924Y-100612871D01*
X115539139Y-100829321D01*
X115584543Y-101058633D01*
X115584543Y-101058638D01*
X115584611Y-101058982D01*
X115580877Y-101326387D01*
X115580800Y-101326725D01*
X115580800Y-101326733D01*
X115529010Y-101554689D01*
X115433788Y-101768561D01*
X115298835Y-101959869D01*
X115129294Y-102121321D01*
X114931623Y-102246766D01*
X114713348Y-102331429D01*
X114482793Y-102372083D01*
X114248725Y-102367180D01*
X114020069Y-102316906D01*
X113805532Y-102223178D01*
X113613294Y-102089569D01*
X113450658Y-101921154D01*
X113323836Y-101724365D01*
X113237650Y-101506684D01*
X113195389Y-101276420D01*
X113198657Y-101042326D01*
X113247334Y-100813323D01*
X113339561Y-100598139D01*
X113471830Y-100404966D01*
X113639098Y-100241164D01*
X113835001Y-100112969D01*
X114052071Y-100025267D01*
X114282037Y-99981399D01*
X114516154Y-99983033D01*
X114516154Y-99983033D01*
G37*
G36*
X147891754Y-99464873D02*
X148121081Y-99511948D01*
X148336911Y-99602674D01*
X148530998Y-99733588D01*
X148695970Y-99899714D01*
X148825524Y-100094711D01*
X148914739Y-100311161D01*
X148960143Y-100540473D01*
X148960143Y-100540478D01*
X148960211Y-100540822D01*
X148956477Y-100808227D01*
X148956400Y-100808565D01*
X148956400Y-100808573D01*
X148904610Y-101036529D01*
X148809388Y-101250401D01*
X148674435Y-101441709D01*
X148504894Y-101603161D01*
X148307223Y-101728606D01*
X148088948Y-101813269D01*
X147858393Y-101853923D01*
X147624325Y-101849020D01*
X147395669Y-101798746D01*
X147181132Y-101705018D01*
X146988894Y-101571409D01*
X146826258Y-101402994D01*
X146699436Y-101206205D01*
X146613250Y-100988524D01*
X146570989Y-100758260D01*
X146574257Y-100524166D01*
X146622934Y-100295163D01*
X146715161Y-100079979D01*
X146847430Y-99886806D01*
X147014698Y-99723004D01*
X147210601Y-99594809D01*
X147427671Y-99507107D01*
X147657637Y-99463239D01*
X147891754Y-99464873D01*
X147891754Y-99464873D01*
G37*
G36*
X139664200Y-101322200D02*
X137511800Y-101322200D01*
X137511800Y-99469800D01*
X139664200Y-99469800D01*
X139664200Y-101322200D01*
X139664200Y-101322200D01*
G37*
G36*
X135664200Y-101322200D02*
X133511800Y-101322200D01*
X133511800Y-99469800D01*
X135664200Y-99469800D01*
X135664200Y-101322200D01*
X135664200Y-101322200D01*
G37*
G36*
X116436394Y-97265233D02*
X116665721Y-97312308D01*
X116881551Y-97403034D01*
X117075638Y-97533948D01*
X117240610Y-97700074D01*
X117370164Y-97895071D01*
X117459379Y-98111521D01*
X117504783Y-98340833D01*
X117504783Y-98340838D01*
X117504851Y-98341182D01*
X117501117Y-98608587D01*
X117501040Y-98608925D01*
X117501040Y-98608933D01*
X117449250Y-98836889D01*
X117354028Y-99050761D01*
X117219075Y-99242069D01*
X117049534Y-99403521D01*
X116851863Y-99528966D01*
X116633588Y-99613629D01*
X116403033Y-99654283D01*
X116168965Y-99649380D01*
X115940309Y-99599106D01*
X115725772Y-99505378D01*
X115533534Y-99371769D01*
X115370898Y-99203354D01*
X115244076Y-99006565D01*
X115157890Y-98788884D01*
X115115629Y-98558620D01*
X115118897Y-98324526D01*
X115167574Y-98095523D01*
X115259801Y-97880339D01*
X115392070Y-97687166D01*
X115559338Y-97523364D01*
X115755241Y-97395169D01*
X115972311Y-97307467D01*
X116202277Y-97263599D01*
X116436394Y-97265233D01*
X116436394Y-97265233D01*
G37*
G36*
X145676874Y-96889313D02*
X145906201Y-96936388D01*
X146122031Y-97027114D01*
X146316118Y-97158028D01*
X146481090Y-97324154D01*
X146610644Y-97519151D01*
X146699859Y-97735601D01*
X146745263Y-97964913D01*
X146745263Y-97964918D01*
X146745331Y-97965262D01*
X146741597Y-98232667D01*
X146741520Y-98233005D01*
X146741520Y-98233013D01*
X146689730Y-98460969D01*
X146594508Y-98674841D01*
X146459555Y-98866149D01*
X146290014Y-99027601D01*
X146092343Y-99153046D01*
X145874068Y-99237709D01*
X145643513Y-99278363D01*
X145409445Y-99273460D01*
X145180789Y-99223186D01*
X144966252Y-99129458D01*
X144774014Y-98995849D01*
X144611378Y-98827434D01*
X144484556Y-98630645D01*
X144398370Y-98412964D01*
X144356109Y-98182700D01*
X144359377Y-97948606D01*
X144408054Y-97719603D01*
X144500281Y-97504419D01*
X144632550Y-97311246D01*
X144799818Y-97147444D01*
X144995721Y-97019249D01*
X145212791Y-96931547D01*
X145442757Y-96887679D01*
X145676874Y-96889313D01*
X145676874Y-96889313D01*
G37*
G36*
X133136357Y-96447575D02*
X133136364Y-96447576D01*
X133138413Y-96447590D01*
X133318049Y-96467740D01*
X133490350Y-96522397D01*
X133648753Y-96609480D01*
X133787226Y-96725672D01*
X133900492Y-96866547D01*
X133984239Y-97026739D01*
X134035275Y-97200147D01*
X134035278Y-97200178D01*
X134035282Y-97200192D01*
X134051660Y-97380163D01*
X134032770Y-97559891D01*
X134032768Y-97559896D01*
X134032764Y-97559938D01*
X133979311Y-97732617D01*
X133893336Y-97891624D01*
X133778113Y-98030904D01*
X133638032Y-98145152D01*
X133478428Y-98230015D01*
X133305381Y-98282261D01*
X133125481Y-98299900D01*
X133116483Y-98299900D01*
X133105643Y-98299825D01*
X133105636Y-98299824D01*
X133103587Y-98299810D01*
X132923951Y-98279660D01*
X132751650Y-98225003D01*
X132593247Y-98137920D01*
X132454774Y-98021728D01*
X132341508Y-97880853D01*
X132257761Y-97720661D01*
X132206725Y-97547253D01*
X132206722Y-97547222D01*
X132206718Y-97547208D01*
X132190340Y-97367237D01*
X132209230Y-97187509D01*
X132209232Y-97187504D01*
X132209236Y-97187462D01*
X132262689Y-97014783D01*
X132348664Y-96855776D01*
X132463887Y-96716496D01*
X132603968Y-96602248D01*
X132763572Y-96517385D01*
X132936619Y-96465139D01*
X133116519Y-96447500D01*
X133125517Y-96447500D01*
X133136357Y-96447575D01*
X133136357Y-96447575D01*
G37*
G36*
X118092474Y-94537273D02*
X118321801Y-94584348D01*
X118537631Y-94675074D01*
X118731718Y-94805988D01*
X118896690Y-94972114D01*
X119026244Y-95167111D01*
X119115459Y-95383561D01*
X119160863Y-95612873D01*
X119160863Y-95612878D01*
X119160931Y-95613222D01*
X119157197Y-95880627D01*
X119157120Y-95880965D01*
X119157120Y-95880973D01*
X119105330Y-96108929D01*
X119010108Y-96322801D01*
X118875155Y-96514109D01*
X118705614Y-96675561D01*
X118507943Y-96801006D01*
X118289668Y-96885669D01*
X118059113Y-96926323D01*
X117825045Y-96921420D01*
X117596389Y-96871146D01*
X117381852Y-96777418D01*
X117189614Y-96643809D01*
X117026978Y-96475394D01*
X116900156Y-96278605D01*
X116813970Y-96060924D01*
X116771709Y-95830660D01*
X116774977Y-95596566D01*
X116823654Y-95367563D01*
X116915881Y-95152379D01*
X117048150Y-94959206D01*
X117215418Y-94795404D01*
X117411321Y-94667209D01*
X117628391Y-94579507D01*
X117858357Y-94535639D01*
X118092474Y-94537273D01*
X118092474Y-94537273D01*
G37*
G36*
X143604234Y-94247713D02*
X143833561Y-94294788D01*
X144049391Y-94385514D01*
X144243478Y-94516428D01*
X144408450Y-94682554D01*
X144538004Y-94877551D01*
X144627219Y-95094001D01*
X144672623Y-95323313D01*
X144672623Y-95323318D01*
X144672691Y-95323662D01*
X144668957Y-95591067D01*
X144668880Y-95591405D01*
X144668880Y-95591413D01*
X144617090Y-95819369D01*
X144521868Y-96033241D01*
X144386915Y-96224549D01*
X144217374Y-96386001D01*
X144019703Y-96511446D01*
X143801428Y-96596109D01*
X143570873Y-96636763D01*
X143336805Y-96631860D01*
X143108149Y-96581586D01*
X142893612Y-96487858D01*
X142701374Y-96354249D01*
X142538738Y-96185834D01*
X142411916Y-95989045D01*
X142325730Y-95771364D01*
X142283469Y-95541100D01*
X142286737Y-95307006D01*
X142335414Y-95078003D01*
X142427641Y-94862819D01*
X142559910Y-94669646D01*
X142727178Y-94505844D01*
X142923081Y-94377649D01*
X143140151Y-94289947D01*
X143370117Y-94246079D01*
X143604234Y-94247713D01*
X143604234Y-94247713D01*
G37*
G36*
X134047200Y-95759900D02*
X132194800Y-95759900D01*
X132194800Y-93907500D01*
X134047200Y-93907500D01*
X134047200Y-95759900D01*
X134047200Y-95759900D01*
G37*
G36*
X119682514Y-91631513D02*
X119911841Y-91678588D01*
X120127671Y-91769314D01*
X120321758Y-91900228D01*
X120486730Y-92066354D01*
X120616284Y-92261351D01*
X120705499Y-92477801D01*
X120750903Y-92707113D01*
X120750903Y-92707118D01*
X120750971Y-92707462D01*
X120747237Y-92974867D01*
X120747160Y-92975205D01*
X120747160Y-92975213D01*
X120695370Y-93203169D01*
X120600148Y-93417041D01*
X120465195Y-93608349D01*
X120295654Y-93769801D01*
X120097983Y-93895246D01*
X119879708Y-93979909D01*
X119649153Y-94020563D01*
X119415085Y-94015660D01*
X119186429Y-93965386D01*
X118971892Y-93871658D01*
X118779654Y-93738049D01*
X118617018Y-93569634D01*
X118490196Y-93372845D01*
X118404010Y-93155164D01*
X118361749Y-92924900D01*
X118365017Y-92690806D01*
X118413694Y-92461803D01*
X118505921Y-92246619D01*
X118638190Y-92053446D01*
X118805458Y-91889644D01*
X119001361Y-91761449D01*
X119218431Y-91673747D01*
X119448397Y-91629879D01*
X119682514Y-91631513D01*
X119682514Y-91631513D01*
G37*
G36*
X141653514Y-91565473D02*
X141882841Y-91612548D01*
X142098671Y-91703274D01*
X142292758Y-91834188D01*
X142457730Y-92000314D01*
X142587284Y-92195311D01*
X142676499Y-92411761D01*
X142721903Y-92641073D01*
X142721903Y-92641078D01*
X142721971Y-92641422D01*
X142718237Y-92908827D01*
X142718160Y-92909165D01*
X142718160Y-92909173D01*
X142666370Y-93137129D01*
X142571148Y-93351001D01*
X142436195Y-93542309D01*
X142266654Y-93703761D01*
X142068983Y-93829206D01*
X141850708Y-93913869D01*
X141620153Y-93954523D01*
X141386085Y-93949620D01*
X141157429Y-93899346D01*
X140942892Y-93805618D01*
X140750654Y-93672009D01*
X140588018Y-93503594D01*
X140461196Y-93306805D01*
X140375010Y-93089124D01*
X140332749Y-92858860D01*
X140336017Y-92624766D01*
X140384694Y-92395763D01*
X140476921Y-92180579D01*
X140609190Y-91987406D01*
X140776458Y-91823604D01*
X140972361Y-91695409D01*
X141189431Y-91607707D01*
X141419397Y-91563839D01*
X141653514Y-91565473D01*
X141653514Y-91565473D01*
G37*
G36*
X127707200Y-91889300D02*
X125554800Y-91889300D01*
X125554800Y-90236900D01*
X127707200Y-90236900D01*
X127707200Y-91889300D01*
X127707200Y-91889300D01*
G37*
G36*
X139845034Y-88934033D02*
X140074361Y-88981108D01*
X140290191Y-89071834D01*
X140484278Y-89202748D01*
X140649250Y-89368874D01*
X140778804Y-89563871D01*
X140868019Y-89780321D01*
X140913423Y-90009633D01*
X140913423Y-90009638D01*
X140913491Y-90009982D01*
X140909757Y-90277387D01*
X140909680Y-90277725D01*
X140909680Y-90277733D01*
X140857890Y-90505689D01*
X140762668Y-90719561D01*
X140627715Y-90910869D01*
X140458174Y-91072321D01*
X140260503Y-91197766D01*
X140042228Y-91282429D01*
X139811673Y-91323083D01*
X139577605Y-91318180D01*
X139348949Y-91267906D01*
X139134412Y-91174178D01*
X138942174Y-91040569D01*
X138779538Y-90872154D01*
X138652716Y-90675365D01*
X138566530Y-90457684D01*
X138524269Y-90227420D01*
X138527537Y-89993326D01*
X138576214Y-89764323D01*
X138668441Y-89549139D01*
X138800710Y-89355966D01*
X138967978Y-89192164D01*
X139163881Y-89063969D01*
X139380951Y-88976267D01*
X139610917Y-88932399D01*
X139845034Y-88934033D01*
X139845034Y-88934033D01*
G37*
G36*
X121176034Y-88644473D02*
X121405361Y-88691548D01*
X121621191Y-88782274D01*
X121815278Y-88913188D01*
X121980250Y-89079314D01*
X122109804Y-89274311D01*
X122199019Y-89490761D01*
X122244423Y-89720073D01*
X122244423Y-89720078D01*
X122244491Y-89720422D01*
X122240757Y-89987827D01*
X122240680Y-89988165D01*
X122240680Y-89988173D01*
X122188890Y-90216129D01*
X122093668Y-90430001D01*
X121958715Y-90621309D01*
X121789174Y-90782761D01*
X121591503Y-90908206D01*
X121373228Y-90992869D01*
X121142673Y-91033523D01*
X120908605Y-91028620D01*
X120679949Y-90978346D01*
X120465412Y-90884618D01*
X120273174Y-90751009D01*
X120110538Y-90582594D01*
X119983716Y-90385805D01*
X119897530Y-90168124D01*
X119855269Y-89937860D01*
X119858537Y-89703766D01*
X119907214Y-89474763D01*
X119999441Y-89259579D01*
X120131710Y-89066406D01*
X120298978Y-88902604D01*
X120494881Y-88774409D01*
X120711951Y-88686707D01*
X120941917Y-88642839D01*
X121176034Y-88644473D01*
X121176034Y-88644473D01*
G37*
G36*
X134007200Y-90739300D02*
X131854800Y-90739300D01*
X131854800Y-86786900D01*
X134007200Y-86786900D01*
X134007200Y-90739300D01*
X134007200Y-90739300D01*
G37*
G36*
X127707200Y-89589300D02*
X125554800Y-89589300D01*
X125554800Y-87936900D01*
X127707200Y-87936900D01*
X127707200Y-89589300D01*
X127707200Y-89589300D01*
G37*
G36*
X127707200Y-87289300D02*
X125554800Y-87289300D01*
X125554800Y-85636900D01*
X127707200Y-85636900D01*
X127707200Y-87289300D01*
X127707200Y-87289300D01*
G37*
G36*
X144275523Y-82995270D02*
X142973236Y-84167855D01*
X141532999Y-82568310D01*
X142835286Y-81395725D01*
X144275523Y-82995270D01*
X144275523Y-82995270D01*
G37*
G36*
X141599001Y-80022690D02*
X140296714Y-81195275D01*
X138856477Y-79595730D01*
X140158764Y-78423145D01*
X141599001Y-80022690D01*
X141599001Y-80022690D01*
G37*
G36*
X123896800Y-76117760D02*
X121244400Y-76117760D01*
X121244400Y-74865360D01*
X123896800Y-74865360D01*
X123896800Y-76117760D01*
X123896800Y-76117760D01*
G37*
G36*
X139296800Y-76117760D02*
X136644400Y-76117760D01*
X136644400Y-74865360D01*
X139296800Y-74865360D01*
X139296800Y-76117760D01*
X139296800Y-76117760D01*
G37*
G36*
X123896800Y-74117760D02*
X121244400Y-74117760D01*
X121244400Y-72865360D01*
X123896800Y-72865360D01*
X123896800Y-74117760D01*
X123896800Y-74117760D01*
G37*
G36*
X139296800Y-74117760D02*
X136644400Y-74117760D01*
X136644400Y-72865360D01*
X139296800Y-72865360D01*
X139296800Y-74117760D01*
X139296800Y-74117760D01*
G37*
G36*
X139296800Y-72117760D02*
X136644400Y-72117760D01*
X136644400Y-70865360D01*
X139296800Y-70865360D01*
X139296800Y-72117760D01*
X139296800Y-72117760D01*
G37*
G36*
X123896800Y-72117760D02*
X121244400Y-72117760D01*
X121244400Y-70865360D01*
X123896800Y-70865360D01*
X123896800Y-72117760D01*
X123896800Y-72117760D01*
G37*
G36*
X139296800Y-70117760D02*
X136644400Y-70117760D01*
X136644400Y-68865360D01*
X139296800Y-68865360D01*
X139296800Y-70117760D01*
X139296800Y-70117760D01*
G37*
G36*
X123896800Y-70117760D02*
X121244400Y-70117760D01*
X121244400Y-68865360D01*
X123896800Y-68865360D01*
X123896800Y-70117760D01*
X123896800Y-70117760D01*
G37*
G36*
X139296800Y-68117760D02*
X136644400Y-68117760D01*
X136644400Y-66865360D01*
X139296800Y-66865360D01*
X139296800Y-68117760D01*
X139296800Y-68117760D01*
G37*
G36*
X123896800Y-68117760D02*
X121244400Y-68117760D01*
X121244400Y-66865360D01*
X123896800Y-66865360D01*
X123896800Y-68117760D01*
X123896800Y-68117760D01*
G37*
G36*
X139296800Y-66117760D02*
X136644400Y-66117760D01*
X136644400Y-64865360D01*
X139296800Y-64865360D01*
X139296800Y-66117760D01*
X139296800Y-66117760D01*
G37*
G36*
X123896800Y-66117760D02*
X121244400Y-66117760D01*
X121244400Y-64865360D01*
X123896800Y-64865360D01*
X123896800Y-66117760D01*
X123896800Y-66117760D01*
G37*
G36*
X142710154Y-63544193D02*
X142939481Y-63591268D01*
X143155311Y-63681994D01*
X143349398Y-63812908D01*
X143514370Y-63979034D01*
X143643924Y-64174031D01*
X143733139Y-64390481D01*
X143778543Y-64619793D01*
X143778543Y-64619798D01*
X143778611Y-64620142D01*
X143774877Y-64887547D01*
X143774800Y-64887885D01*
X143774800Y-64887893D01*
X143723010Y-65115849D01*
X143627788Y-65329721D01*
X143492835Y-65521029D01*
X143323294Y-65682481D01*
X143125623Y-65807926D01*
X142907348Y-65892589D01*
X142676793Y-65933243D01*
X142442725Y-65928340D01*
X142214069Y-65878066D01*
X141999532Y-65784338D01*
X141807294Y-65650729D01*
X141644658Y-65482314D01*
X141517836Y-65285525D01*
X141431650Y-65067844D01*
X141389389Y-64837580D01*
X141392657Y-64603486D01*
X141441334Y-64374483D01*
X141533561Y-64159299D01*
X141665830Y-63966126D01*
X141833098Y-63802324D01*
X142029001Y-63674129D01*
X142246071Y-63586427D01*
X142476037Y-63542559D01*
X142710154Y-63544193D01*
X142710154Y-63544193D01*
G37*
G36*
X117442234Y-63259713D02*
X117671561Y-63306788D01*
X117887391Y-63397514D01*
X118081478Y-63528428D01*
X118246450Y-63694554D01*
X118376004Y-63889551D01*
X118465219Y-64106001D01*
X118510623Y-64335313D01*
X118510623Y-64335318D01*
X118510691Y-64335662D01*
X118506957Y-64603067D01*
X118506880Y-64603405D01*
X118506880Y-64603413D01*
X118455090Y-64831369D01*
X118359868Y-65045241D01*
X118224915Y-65236549D01*
X118055374Y-65398001D01*
X117857703Y-65523446D01*
X117639428Y-65608109D01*
X117408873Y-65648763D01*
X117174805Y-65643860D01*
X116946149Y-65593586D01*
X116731612Y-65499858D01*
X116539374Y-65366249D01*
X116376738Y-65197834D01*
X116249916Y-65001045D01*
X116163730Y-64783364D01*
X116121469Y-64553100D01*
X116124737Y-64319006D01*
X116173414Y-64090003D01*
X116265641Y-63874819D01*
X116397910Y-63681646D01*
X116565178Y-63517844D01*
X116761081Y-63389649D01*
X116978151Y-63301947D01*
X117208117Y-63258079D01*
X117442234Y-63259713D01*
X117442234Y-63259713D01*
G37*
G36*
X139296800Y-64117760D02*
X136644400Y-64117760D01*
X136644400Y-62865360D01*
X139296800Y-62865360D01*
X139296800Y-64117760D01*
X139296800Y-64117760D01*
G37*
G36*
X123896800Y-64117760D02*
X121244400Y-64117760D01*
X121244400Y-62865360D01*
X123896800Y-62865360D01*
X123896800Y-64117760D01*
X123896800Y-64117760D01*
G37*
G36*
X139296800Y-62117760D02*
X136644400Y-62117760D01*
X136644400Y-60865360D01*
X139296800Y-60865360D01*
X139296800Y-62117760D01*
X139296800Y-62117760D01*
G37*
G36*
X123896800Y-62117760D02*
X121244400Y-62117760D01*
X121244400Y-60865360D01*
X123896800Y-60865360D01*
X123896800Y-62117760D01*
X123896800Y-62117760D01*
G37*
G36*
X131886800Y-61117760D02*
X130634400Y-61117760D01*
X130634400Y-58465360D01*
X131886800Y-58465360D01*
X131886800Y-61117760D01*
X131886800Y-61117760D01*
G37*
G36*
X135886800Y-61117760D02*
X134634400Y-61117760D01*
X134634400Y-58465360D01*
X135886800Y-58465360D01*
X135886800Y-61117760D01*
X135886800Y-61117760D01*
G37*
G36*
X133886800Y-61117760D02*
X132634400Y-61117760D01*
X132634400Y-58465360D01*
X133886800Y-58465360D01*
X133886800Y-61117760D01*
X133886800Y-61117760D01*
G37*
G36*
X129886800Y-61117760D02*
X128634400Y-61117760D01*
X128634400Y-58465360D01*
X129886800Y-58465360D01*
X129886800Y-61117760D01*
X129886800Y-61117760D01*
G37*
G36*
X127886800Y-61117760D02*
X126634400Y-61117760D01*
X126634400Y-58465360D01*
X127886800Y-58465360D01*
X127886800Y-61117760D01*
X127886800Y-61117760D01*
G37*
G36*
X125886800Y-61117760D02*
X124634400Y-61117760D01*
X124634400Y-58465360D01*
X125886800Y-58465360D01*
X125886800Y-61117760D01*
X125886800Y-61117760D01*
G37*
G36*
X130816783Y-43452993D02*
X131369308Y-43566411D01*
X131889293Y-43784992D01*
X132356913Y-44100406D01*
X132754363Y-44500640D01*
X133066503Y-44970450D01*
X133281447Y-45491941D01*
X133390936Y-46044905D01*
X133390936Y-46044910D01*
X133391004Y-46045254D01*
X133382008Y-46689508D01*
X133381931Y-46689846D01*
X133381931Y-46689854D01*
X133257044Y-47239546D01*
X133027625Y-47754830D01*
X132702486Y-48215743D01*
X132294015Y-48604725D01*
X131817770Y-48906959D01*
X131291888Y-49110935D01*
X130736409Y-49208882D01*
X130172479Y-49197068D01*
X129621583Y-49075946D01*
X129104705Y-48850128D01*
X128641538Y-48528218D01*
X128249714Y-48122473D01*
X127944161Y-47648348D01*
X127736518Y-47123900D01*
X127634697Y-46569121D01*
X127642572Y-46005123D01*
X127759846Y-45453394D01*
X127982048Y-44934955D01*
X128300720Y-44469547D01*
X128703719Y-44074901D01*
X129175700Y-43766046D01*
X129698681Y-43554747D01*
X130252739Y-43449056D01*
X130816783Y-43452993D01*
X130816783Y-43452993D01*
G37*
M02*
