G04 #@! TF.GenerationSoftware,KiCad,Pcbnew,(2017-05-14 revision 14bb238b3)-makepkg*
G04 #@! TF.CreationDate,2017-07-12T11:42:09-06:00*
G04 #@! TF.ProjectId,001,3030312E6B696361645F706362000000,rev?*
G04 #@! TF.FileFunction,Soldermask,Top*
G04 #@! TF.FilePolarity,Negative*
%FSLAX46Y46*%
G04 Gerber Fmt 4.6, Leading zero omitted, Abs format (unit mm)*
G04 Created by KiCad (PCBNEW (2017-05-14 revision 14bb238b3)-makepkg) date 07/12/17 11:42:09*
%MOMM*%
%LPD*%
G01*
G04 APERTURE LIST*
%ADD10C,0.100000*%
%ADD11C,0.300000*%
G04 APERTURE END LIST*
D10*
D11*
X124684788Y-65577441D02*
X124684788Y-65958394D01*
X125446693Y-65577441D02*
X125446693Y-65958394D01*
X126684788Y-65577441D02*
X127065740Y-65577441D01*
X127256217Y-65672680D01*
X127446693Y-65863156D01*
X127541931Y-66244108D01*
X127541931Y-66910775D01*
X127446693Y-67291727D01*
X127256217Y-67482203D01*
X127065740Y-67577441D01*
X126684788Y-67577441D01*
X126494312Y-67482203D01*
X126303836Y-67291727D01*
X126208598Y-66910775D01*
X126208598Y-66244108D01*
X126303836Y-65863156D01*
X126494312Y-65672680D01*
X126684788Y-65577441D01*
X128303836Y-67482203D02*
X128494312Y-67577441D01*
X128875264Y-67577441D01*
X129065740Y-67482203D01*
X129160979Y-67291727D01*
X129160979Y-67196489D01*
X129065740Y-67006013D01*
X128875264Y-66910775D01*
X128589550Y-66910775D01*
X128399074Y-66815537D01*
X128303836Y-66625060D01*
X128303836Y-66529822D01*
X128399074Y-66339346D01*
X128589550Y-66244108D01*
X128875264Y-66244108D01*
X129065740Y-66339346D01*
X130018121Y-67577441D02*
X130018121Y-65577441D01*
X130875264Y-67577441D02*
X130875264Y-66529822D01*
X130780026Y-66339346D01*
X130589550Y-66244108D01*
X130303836Y-66244108D01*
X130113360Y-66339346D01*
X130018121Y-66434584D01*
X131637169Y-66244108D02*
X132018121Y-67577441D01*
X132399074Y-66625060D01*
X132780026Y-67577441D01*
X133160979Y-66244108D01*
X133922883Y-67577441D02*
X133922883Y-66244108D01*
X133922883Y-65577441D02*
X133827645Y-65672680D01*
X133922883Y-65767918D01*
X134018121Y-65672680D01*
X133922883Y-65577441D01*
X133922883Y-65767918D01*
X134780026Y-65577441D02*
X134780026Y-65958394D01*
X135541931Y-65577441D02*
X135541931Y-65958394D01*
D10*
G36*
X131837620Y-135217681D02*
X132092382Y-135269977D01*
X132332149Y-135370765D01*
X132547765Y-135516200D01*
X132731027Y-135700745D01*
X132874952Y-135917372D01*
X132974062Y-136157828D01*
X133024509Y-136412610D01*
X133024509Y-136412615D01*
X133024577Y-136412959D01*
X133020429Y-136710021D01*
X133020352Y-136710359D01*
X133020352Y-136710368D01*
X132962810Y-136963643D01*
X132857027Y-137201235D01*
X132707106Y-137413760D01*
X132518762Y-137593118D01*
X132299167Y-137732478D01*
X132056687Y-137826529D01*
X131800559Y-137871692D01*
X131540533Y-137866245D01*
X131286517Y-137810396D01*
X131048187Y-137706272D01*
X130834624Y-137557842D01*
X130653956Y-137370755D01*
X130513067Y-137152138D01*
X130417323Y-136910315D01*
X130370375Y-136654513D01*
X130374005Y-136394456D01*
X130428080Y-136140055D01*
X130530536Y-135901006D01*
X130677475Y-135686409D01*
X130863294Y-135504440D01*
X131080923Y-135362028D01*
X131322068Y-135264599D01*
X131577539Y-135215866D01*
X131837620Y-135217681D01*
X131837620Y-135217681D01*
G37*
G36*
X111222980Y-132555761D02*
X111477742Y-132608057D01*
X111717509Y-132708845D01*
X111933125Y-132854280D01*
X112116387Y-133038825D01*
X112260312Y-133255452D01*
X112359422Y-133495908D01*
X112409869Y-133750690D01*
X112409869Y-133750695D01*
X112409937Y-133751039D01*
X112405789Y-134048101D01*
X112405712Y-134048439D01*
X112405712Y-134048448D01*
X112348170Y-134301723D01*
X112242387Y-134539315D01*
X112092466Y-134751840D01*
X111904122Y-134931198D01*
X111684527Y-135070558D01*
X111442047Y-135164609D01*
X111185919Y-135209772D01*
X110925893Y-135204325D01*
X110671877Y-135148476D01*
X110433547Y-135044352D01*
X110219984Y-134895922D01*
X110039316Y-134708835D01*
X109898427Y-134490218D01*
X109802683Y-134248395D01*
X109755735Y-133992593D01*
X109759365Y-133732536D01*
X109813440Y-133478135D01*
X109915896Y-133239086D01*
X110062835Y-133024489D01*
X110248654Y-132842520D01*
X110466283Y-132700108D01*
X110707428Y-132602679D01*
X110962899Y-132553946D01*
X111222980Y-132555761D01*
X111222980Y-132555761D01*
G37*
G36*
X130968940Y-123879121D02*
X131223702Y-123931417D01*
X131463469Y-124032205D01*
X131679085Y-124177640D01*
X131862347Y-124362185D01*
X132006272Y-124578812D01*
X132105382Y-124819268D01*
X132155829Y-125074050D01*
X132155829Y-125074055D01*
X132155897Y-125074399D01*
X132151749Y-125371461D01*
X132151672Y-125371799D01*
X132151672Y-125371808D01*
X132094130Y-125625083D01*
X131988347Y-125862675D01*
X131838426Y-126075200D01*
X131650082Y-126254558D01*
X131430487Y-126393918D01*
X131188007Y-126487969D01*
X130931879Y-126533132D01*
X130671853Y-126527685D01*
X130417837Y-126471836D01*
X130179507Y-126367712D01*
X129965944Y-126219282D01*
X129785276Y-126032195D01*
X129644387Y-125813578D01*
X129548643Y-125571755D01*
X129501695Y-125315953D01*
X129505325Y-125055896D01*
X129559400Y-124801495D01*
X129661856Y-124562446D01*
X129808795Y-124347849D01*
X129994614Y-124165880D01*
X130212243Y-124023468D01*
X130453388Y-123926039D01*
X130708859Y-123877306D01*
X130968940Y-123879121D01*
X130968940Y-123879121D01*
G37*
G36*
X104222740Y-121293401D02*
X104477502Y-121345697D01*
X104717269Y-121446485D01*
X104932885Y-121591920D01*
X105116147Y-121776465D01*
X105260072Y-121993092D01*
X105359182Y-122233548D01*
X105409629Y-122488330D01*
X105409629Y-122488335D01*
X105409697Y-122488679D01*
X105405549Y-122785741D01*
X105405472Y-122786079D01*
X105405472Y-122786088D01*
X105347930Y-123039363D01*
X105242147Y-123276955D01*
X105092226Y-123489480D01*
X104903882Y-123668838D01*
X104684287Y-123808198D01*
X104441807Y-123902249D01*
X104185679Y-123947412D01*
X103925653Y-123941965D01*
X103671637Y-123886116D01*
X103433307Y-123781992D01*
X103219744Y-123633562D01*
X103039076Y-123446475D01*
X102898187Y-123227858D01*
X102802443Y-122986035D01*
X102755495Y-122730233D01*
X102759125Y-122470176D01*
X102813200Y-122215775D01*
X102915656Y-121976726D01*
X103062595Y-121762129D01*
X103248414Y-121580160D01*
X103466043Y-121437748D01*
X103707188Y-121340319D01*
X103962659Y-121291586D01*
X104222740Y-121293401D01*
X104222740Y-121293401D01*
G37*
G36*
X156922660Y-116248961D02*
X157177422Y-116301257D01*
X157417189Y-116402045D01*
X157632805Y-116547480D01*
X157816067Y-116732025D01*
X157959992Y-116948652D01*
X158059102Y-117189108D01*
X158109549Y-117443890D01*
X158109549Y-117443895D01*
X158109617Y-117444239D01*
X158105469Y-117741301D01*
X158105392Y-117741639D01*
X158105392Y-117741648D01*
X158047850Y-117994923D01*
X157942067Y-118232515D01*
X157792146Y-118445040D01*
X157603802Y-118624398D01*
X157384207Y-118763758D01*
X157141727Y-118857809D01*
X156885599Y-118902972D01*
X156625573Y-118897525D01*
X156371557Y-118841676D01*
X156133227Y-118737552D01*
X155919664Y-118589122D01*
X155738996Y-118402035D01*
X155598107Y-118183418D01*
X155502363Y-117941595D01*
X155455415Y-117685793D01*
X155459045Y-117425736D01*
X155513120Y-117171335D01*
X155615576Y-116932286D01*
X155762515Y-116717689D01*
X155948334Y-116535720D01*
X156165963Y-116393308D01*
X156407108Y-116295879D01*
X156662579Y-116247146D01*
X156922660Y-116248961D01*
X156922660Y-116248961D01*
G37*
G36*
X148941980Y-115004361D02*
X149196742Y-115056657D01*
X149436509Y-115157445D01*
X149652125Y-115302880D01*
X149835387Y-115487425D01*
X149979312Y-115704052D01*
X150078422Y-115944508D01*
X150128869Y-116199290D01*
X150128869Y-116199295D01*
X150128937Y-116199639D01*
X150124789Y-116496701D01*
X150124712Y-116497039D01*
X150124712Y-116497048D01*
X150067170Y-116750323D01*
X149961387Y-116987915D01*
X149811466Y-117200440D01*
X149623122Y-117379798D01*
X149403527Y-117519158D01*
X149161047Y-117613209D01*
X148904919Y-117658372D01*
X148644893Y-117652925D01*
X148390877Y-117597076D01*
X148152547Y-117492952D01*
X147938984Y-117344522D01*
X147758316Y-117157435D01*
X147617427Y-116938818D01*
X147521683Y-116696995D01*
X147474735Y-116441193D01*
X147478365Y-116181136D01*
X147532440Y-115926735D01*
X147634896Y-115687686D01*
X147781835Y-115473089D01*
X147967654Y-115291120D01*
X148185283Y-115148708D01*
X148426428Y-115051279D01*
X148681899Y-115002546D01*
X148941980Y-115004361D01*
X148941980Y-115004361D01*
G37*
G36*
X105126980Y-113414321D02*
X105381742Y-113466617D01*
X105621509Y-113567405D01*
X105837125Y-113712840D01*
X106020387Y-113897385D01*
X106164312Y-114114012D01*
X106263422Y-114354468D01*
X106313869Y-114609250D01*
X106313869Y-114609255D01*
X106313937Y-114609599D01*
X106309789Y-114906661D01*
X106309712Y-114906999D01*
X106309712Y-114907008D01*
X106252170Y-115160283D01*
X106146387Y-115397875D01*
X105996466Y-115610400D01*
X105808122Y-115789758D01*
X105588527Y-115929118D01*
X105346047Y-116023169D01*
X105089919Y-116068332D01*
X104829893Y-116062885D01*
X104575877Y-116007036D01*
X104337547Y-115902912D01*
X104123984Y-115754482D01*
X103943316Y-115567395D01*
X103802427Y-115348778D01*
X103706683Y-115106955D01*
X103659735Y-114851153D01*
X103663365Y-114591096D01*
X103717440Y-114336695D01*
X103819896Y-114097646D01*
X103966835Y-113883049D01*
X104152654Y-113701080D01*
X104370283Y-113558668D01*
X104611428Y-113461239D01*
X104866899Y-113412506D01*
X105126980Y-113414321D01*
X105126980Y-113414321D01*
G37*
G36*
X170026520Y-103007941D02*
X170281282Y-103060237D01*
X170521049Y-103161025D01*
X170736665Y-103306460D01*
X170919927Y-103491005D01*
X171063852Y-103707632D01*
X171162962Y-103948088D01*
X171213409Y-104202870D01*
X171213409Y-104202875D01*
X171213477Y-104203219D01*
X171209329Y-104500281D01*
X171209252Y-104500619D01*
X171209252Y-104500628D01*
X171151710Y-104753903D01*
X171045927Y-104991495D01*
X170896006Y-105204020D01*
X170707662Y-105383378D01*
X170488067Y-105522738D01*
X170245587Y-105616789D01*
X169989459Y-105661952D01*
X169729433Y-105656505D01*
X169475417Y-105600656D01*
X169237087Y-105496532D01*
X169023524Y-105348102D01*
X168842856Y-105161015D01*
X168701967Y-104942398D01*
X168606223Y-104700575D01*
X168559275Y-104444773D01*
X168562905Y-104184716D01*
X168616980Y-103930315D01*
X168719436Y-103691266D01*
X168866375Y-103476669D01*
X169052194Y-103294700D01*
X169269823Y-103152288D01*
X169510968Y-103054859D01*
X169766439Y-103006126D01*
X170026520Y-103007941D01*
X170026520Y-103007941D01*
G37*
G36*
X150208234Y-101979473D02*
X150437561Y-102026548D01*
X150653391Y-102117274D01*
X150847478Y-102248188D01*
X151012450Y-102414314D01*
X151142004Y-102609311D01*
X151231219Y-102825761D01*
X151276623Y-103055073D01*
X151276623Y-103055078D01*
X151276691Y-103055422D01*
X151272957Y-103322827D01*
X151272880Y-103323165D01*
X151272880Y-103323173D01*
X151221090Y-103551129D01*
X151125868Y-103765001D01*
X150990915Y-103956309D01*
X150821374Y-104117761D01*
X150623703Y-104243206D01*
X150405428Y-104327869D01*
X150174873Y-104368523D01*
X149940805Y-104363620D01*
X149712149Y-104313346D01*
X149497612Y-104219618D01*
X149305374Y-104086009D01*
X149142738Y-103917594D01*
X149015916Y-103720805D01*
X148929730Y-103503124D01*
X148887469Y-103272860D01*
X148890737Y-103038766D01*
X148939414Y-102809763D01*
X149031641Y-102594579D01*
X149163910Y-102401406D01*
X149331178Y-102237604D01*
X149527081Y-102109409D01*
X149744151Y-102021707D01*
X149974117Y-101977839D01*
X150208234Y-101979473D01*
X150208234Y-101979473D01*
G37*
G36*
X114516154Y-99983033D02*
X114745481Y-100030108D01*
X114961311Y-100120834D01*
X115155398Y-100251748D01*
X115320370Y-100417874D01*
X115449924Y-100612871D01*
X115539139Y-100829321D01*
X115584543Y-101058633D01*
X115584543Y-101058638D01*
X115584611Y-101058982D01*
X115580877Y-101326387D01*
X115580800Y-101326725D01*
X115580800Y-101326733D01*
X115529010Y-101554689D01*
X115433788Y-101768561D01*
X115298835Y-101959869D01*
X115129294Y-102121321D01*
X114931623Y-102246766D01*
X114713348Y-102331429D01*
X114482793Y-102372083D01*
X114248725Y-102367180D01*
X114020069Y-102316906D01*
X113805532Y-102223178D01*
X113613294Y-102089569D01*
X113450658Y-101921154D01*
X113323836Y-101724365D01*
X113237650Y-101506684D01*
X113195389Y-101276420D01*
X113198657Y-101042326D01*
X113247334Y-100813323D01*
X113339561Y-100598139D01*
X113471830Y-100404966D01*
X113639098Y-100241164D01*
X113835001Y-100112969D01*
X114052071Y-100025267D01*
X114282037Y-99981399D01*
X114516154Y-99983033D01*
X114516154Y-99983033D01*
G37*
G36*
X147891754Y-99464873D02*
X148121081Y-99511948D01*
X148336911Y-99602674D01*
X148530998Y-99733588D01*
X148695970Y-99899714D01*
X148825524Y-100094711D01*
X148914739Y-100311161D01*
X148960143Y-100540473D01*
X148960143Y-100540478D01*
X148960211Y-100540822D01*
X148956477Y-100808227D01*
X148956400Y-100808565D01*
X148956400Y-100808573D01*
X148904610Y-101036529D01*
X148809388Y-101250401D01*
X148674435Y-101441709D01*
X148504894Y-101603161D01*
X148307223Y-101728606D01*
X148088948Y-101813269D01*
X147858393Y-101853923D01*
X147624325Y-101849020D01*
X147395669Y-101798746D01*
X147181132Y-101705018D01*
X146988894Y-101571409D01*
X146826258Y-101402994D01*
X146699436Y-101206205D01*
X146613250Y-100988524D01*
X146570989Y-100758260D01*
X146574257Y-100524166D01*
X146622934Y-100295163D01*
X146715161Y-100079979D01*
X146847430Y-99886806D01*
X147014698Y-99723004D01*
X147210601Y-99594809D01*
X147427671Y-99507107D01*
X147657637Y-99463239D01*
X147891754Y-99464873D01*
X147891754Y-99464873D01*
G37*
G36*
X127534200Y-101222200D02*
X125881800Y-101222200D01*
X125881800Y-99569800D01*
X127534200Y-99569800D01*
X127534200Y-101222200D01*
X127534200Y-101222200D01*
G37*
G36*
X130834200Y-101222200D02*
X129181800Y-101222200D01*
X129181800Y-99569800D01*
X130834200Y-99569800D01*
X130834200Y-101222200D01*
X130834200Y-101222200D01*
G37*
G36*
X116436394Y-97265233D02*
X116665721Y-97312308D01*
X116881551Y-97403034D01*
X117075638Y-97533948D01*
X117240610Y-97700074D01*
X117370164Y-97895071D01*
X117459379Y-98111521D01*
X117504783Y-98340833D01*
X117504783Y-98340838D01*
X117504851Y-98341182D01*
X117501117Y-98608587D01*
X117501040Y-98608925D01*
X117501040Y-98608933D01*
X117449250Y-98836889D01*
X117354028Y-99050761D01*
X117219075Y-99242069D01*
X117049534Y-99403521D01*
X116851863Y-99528966D01*
X116633588Y-99613629D01*
X116403033Y-99654283D01*
X116168965Y-99649380D01*
X115940309Y-99599106D01*
X115725772Y-99505378D01*
X115533534Y-99371769D01*
X115370898Y-99203354D01*
X115244076Y-99006565D01*
X115157890Y-98788884D01*
X115115629Y-98558620D01*
X115118897Y-98324526D01*
X115167574Y-98095523D01*
X115259801Y-97880339D01*
X115392070Y-97687166D01*
X115559338Y-97523364D01*
X115755241Y-97395169D01*
X115972311Y-97307467D01*
X116202277Y-97263599D01*
X116436394Y-97265233D01*
X116436394Y-97265233D01*
G37*
G36*
X145676874Y-96889313D02*
X145906201Y-96936388D01*
X146122031Y-97027114D01*
X146316118Y-97158028D01*
X146481090Y-97324154D01*
X146610644Y-97519151D01*
X146699859Y-97735601D01*
X146745263Y-97964913D01*
X146745263Y-97964918D01*
X146745331Y-97965262D01*
X146741597Y-98232667D01*
X146741520Y-98233005D01*
X146741520Y-98233013D01*
X146689730Y-98460969D01*
X146594508Y-98674841D01*
X146459555Y-98866149D01*
X146290014Y-99027601D01*
X146092343Y-99153046D01*
X145874068Y-99237709D01*
X145643513Y-99278363D01*
X145409445Y-99273460D01*
X145180789Y-99223186D01*
X144966252Y-99129458D01*
X144774014Y-98995849D01*
X144611378Y-98827434D01*
X144484556Y-98630645D01*
X144398370Y-98412964D01*
X144356109Y-98182700D01*
X144359377Y-97948606D01*
X144408054Y-97719603D01*
X144500281Y-97504419D01*
X144632550Y-97311246D01*
X144799818Y-97147444D01*
X144995721Y-97019249D01*
X145212791Y-96931547D01*
X145442757Y-96887679D01*
X145676874Y-96889313D01*
X145676874Y-96889313D01*
G37*
G36*
X133136357Y-96447575D02*
X133136364Y-96447576D01*
X133138413Y-96447590D01*
X133318049Y-96467740D01*
X133490350Y-96522397D01*
X133648753Y-96609480D01*
X133787226Y-96725672D01*
X133900492Y-96866547D01*
X133984239Y-97026739D01*
X134035275Y-97200147D01*
X134035278Y-97200178D01*
X134035282Y-97200192D01*
X134051660Y-97380163D01*
X134032770Y-97559891D01*
X134032768Y-97559896D01*
X134032764Y-97559938D01*
X133979311Y-97732617D01*
X133893336Y-97891624D01*
X133778113Y-98030904D01*
X133638032Y-98145152D01*
X133478428Y-98230015D01*
X133305381Y-98282261D01*
X133125481Y-98299900D01*
X133116483Y-98299900D01*
X133105643Y-98299825D01*
X133105636Y-98299824D01*
X133103587Y-98299810D01*
X132923951Y-98279660D01*
X132751650Y-98225003D01*
X132593247Y-98137920D01*
X132454774Y-98021728D01*
X132341508Y-97880853D01*
X132257761Y-97720661D01*
X132206725Y-97547253D01*
X132206722Y-97547222D01*
X132206718Y-97547208D01*
X132190340Y-97367237D01*
X132209230Y-97187509D01*
X132209232Y-97187504D01*
X132209236Y-97187462D01*
X132262689Y-97014783D01*
X132348664Y-96855776D01*
X132463887Y-96716496D01*
X132603968Y-96602248D01*
X132763572Y-96517385D01*
X132936619Y-96465139D01*
X133116519Y-96447500D01*
X133125517Y-96447500D01*
X133136357Y-96447575D01*
X133136357Y-96447575D01*
G37*
G36*
X118092474Y-94537273D02*
X118321801Y-94584348D01*
X118537631Y-94675074D01*
X118731718Y-94805988D01*
X118896690Y-94972114D01*
X119026244Y-95167111D01*
X119115459Y-95383561D01*
X119160863Y-95612873D01*
X119160863Y-95612878D01*
X119160931Y-95613222D01*
X119157197Y-95880627D01*
X119157120Y-95880965D01*
X119157120Y-95880973D01*
X119105330Y-96108929D01*
X119010108Y-96322801D01*
X118875155Y-96514109D01*
X118705614Y-96675561D01*
X118507943Y-96801006D01*
X118289668Y-96885669D01*
X118059113Y-96926323D01*
X117825045Y-96921420D01*
X117596389Y-96871146D01*
X117381852Y-96777418D01*
X117189614Y-96643809D01*
X117026978Y-96475394D01*
X116900156Y-96278605D01*
X116813970Y-96060924D01*
X116771709Y-95830660D01*
X116774977Y-95596566D01*
X116823654Y-95367563D01*
X116915881Y-95152379D01*
X117048150Y-94959206D01*
X117215418Y-94795404D01*
X117411321Y-94667209D01*
X117628391Y-94579507D01*
X117858357Y-94535639D01*
X118092474Y-94537273D01*
X118092474Y-94537273D01*
G37*
G36*
X143604234Y-94247713D02*
X143833561Y-94294788D01*
X144049391Y-94385514D01*
X144243478Y-94516428D01*
X144408450Y-94682554D01*
X144538004Y-94877551D01*
X144627219Y-95094001D01*
X144672623Y-95323313D01*
X144672623Y-95323318D01*
X144672691Y-95323662D01*
X144668957Y-95591067D01*
X144668880Y-95591405D01*
X144668880Y-95591413D01*
X144617090Y-95819369D01*
X144521868Y-96033241D01*
X144386915Y-96224549D01*
X144217374Y-96386001D01*
X144019703Y-96511446D01*
X143801428Y-96596109D01*
X143570873Y-96636763D01*
X143336805Y-96631860D01*
X143108149Y-96581586D01*
X142893612Y-96487858D01*
X142701374Y-96354249D01*
X142538738Y-96185834D01*
X142411916Y-95989045D01*
X142325730Y-95771364D01*
X142283469Y-95541100D01*
X142286737Y-95307006D01*
X142335414Y-95078003D01*
X142427641Y-94862819D01*
X142559910Y-94669646D01*
X142727178Y-94505844D01*
X142923081Y-94377649D01*
X143140151Y-94289947D01*
X143370117Y-94246079D01*
X143604234Y-94247713D01*
X143604234Y-94247713D01*
G37*
G36*
X134047200Y-95759900D02*
X132194800Y-95759900D01*
X132194800Y-93907500D01*
X134047200Y-93907500D01*
X134047200Y-95759900D01*
X134047200Y-95759900D01*
G37*
G36*
X119682514Y-91631513D02*
X119911841Y-91678588D01*
X120127671Y-91769314D01*
X120321758Y-91900228D01*
X120486730Y-92066354D01*
X120616284Y-92261351D01*
X120705499Y-92477801D01*
X120750903Y-92707113D01*
X120750903Y-92707118D01*
X120750971Y-92707462D01*
X120747237Y-92974867D01*
X120747160Y-92975205D01*
X120747160Y-92975213D01*
X120695370Y-93203169D01*
X120600148Y-93417041D01*
X120465195Y-93608349D01*
X120295654Y-93769801D01*
X120097983Y-93895246D01*
X119879708Y-93979909D01*
X119649153Y-94020563D01*
X119415085Y-94015660D01*
X119186429Y-93965386D01*
X118971892Y-93871658D01*
X118779654Y-93738049D01*
X118617018Y-93569634D01*
X118490196Y-93372845D01*
X118404010Y-93155164D01*
X118361749Y-92924900D01*
X118365017Y-92690806D01*
X118413694Y-92461803D01*
X118505921Y-92246619D01*
X118638190Y-92053446D01*
X118805458Y-91889644D01*
X119001361Y-91761449D01*
X119218431Y-91673747D01*
X119448397Y-91629879D01*
X119682514Y-91631513D01*
X119682514Y-91631513D01*
G37*
G36*
X141653514Y-91565473D02*
X141882841Y-91612548D01*
X142098671Y-91703274D01*
X142292758Y-91834188D01*
X142457730Y-92000314D01*
X142587284Y-92195311D01*
X142676499Y-92411761D01*
X142721903Y-92641073D01*
X142721903Y-92641078D01*
X142721971Y-92641422D01*
X142718237Y-92908827D01*
X142718160Y-92909165D01*
X142718160Y-92909173D01*
X142666370Y-93137129D01*
X142571148Y-93351001D01*
X142436195Y-93542309D01*
X142266654Y-93703761D01*
X142068983Y-93829206D01*
X141850708Y-93913869D01*
X141620153Y-93954523D01*
X141386085Y-93949620D01*
X141157429Y-93899346D01*
X140942892Y-93805618D01*
X140750654Y-93672009D01*
X140588018Y-93503594D01*
X140461196Y-93306805D01*
X140375010Y-93089124D01*
X140332749Y-92858860D01*
X140336017Y-92624766D01*
X140384694Y-92395763D01*
X140476921Y-92180579D01*
X140609190Y-91987406D01*
X140776458Y-91823604D01*
X140972361Y-91695409D01*
X141189431Y-91607707D01*
X141419397Y-91563839D01*
X141653514Y-91565473D01*
X141653514Y-91565473D01*
G37*
G36*
X139845034Y-88934033D02*
X140074361Y-88981108D01*
X140290191Y-89071834D01*
X140484278Y-89202748D01*
X140649250Y-89368874D01*
X140778804Y-89563871D01*
X140868019Y-89780321D01*
X140913423Y-90009633D01*
X140913423Y-90009638D01*
X140913491Y-90009982D01*
X140909757Y-90277387D01*
X140909680Y-90277725D01*
X140909680Y-90277733D01*
X140857890Y-90505689D01*
X140762668Y-90719561D01*
X140627715Y-90910869D01*
X140458174Y-91072321D01*
X140260503Y-91197766D01*
X140042228Y-91282429D01*
X139811673Y-91323083D01*
X139577605Y-91318180D01*
X139348949Y-91267906D01*
X139134412Y-91174178D01*
X138942174Y-91040569D01*
X138779538Y-90872154D01*
X138652716Y-90675365D01*
X138566530Y-90457684D01*
X138524269Y-90227420D01*
X138527537Y-89993326D01*
X138576214Y-89764323D01*
X138668441Y-89549139D01*
X138800710Y-89355966D01*
X138967978Y-89192164D01*
X139163881Y-89063969D01*
X139380951Y-88976267D01*
X139610917Y-88932399D01*
X139845034Y-88934033D01*
X139845034Y-88934033D01*
G37*
G36*
X121176034Y-88644473D02*
X121405361Y-88691548D01*
X121621191Y-88782274D01*
X121815278Y-88913188D01*
X121980250Y-89079314D01*
X122109804Y-89274311D01*
X122199019Y-89490761D01*
X122244423Y-89720073D01*
X122244423Y-89720078D01*
X122244491Y-89720422D01*
X122240757Y-89987827D01*
X122240680Y-89988165D01*
X122240680Y-89988173D01*
X122188890Y-90216129D01*
X122093668Y-90430001D01*
X121958715Y-90621309D01*
X121789174Y-90782761D01*
X121591503Y-90908206D01*
X121373228Y-90992869D01*
X121142673Y-91033523D01*
X120908605Y-91028620D01*
X120679949Y-90978346D01*
X120465412Y-90884618D01*
X120273174Y-90751009D01*
X120110538Y-90582594D01*
X119983716Y-90385805D01*
X119897530Y-90168124D01*
X119855269Y-89937860D01*
X119858537Y-89703766D01*
X119907214Y-89474763D01*
X119999441Y-89259579D01*
X120131710Y-89066406D01*
X120298978Y-88902604D01*
X120494881Y-88774409D01*
X120711951Y-88686707D01*
X120941917Y-88642839D01*
X121176034Y-88644473D01*
X121176034Y-88644473D01*
G37*
G36*
X118722891Y-84202716D02*
X117555458Y-85370149D01*
X116819077Y-84633768D01*
X117986510Y-83466335D01*
X118722891Y-84202716D01*
X118722891Y-84202716D01*
G37*
G36*
X142914883Y-84552488D02*
X142178502Y-85288869D01*
X141011069Y-84121436D01*
X141747450Y-83385055D01*
X142914883Y-84552488D01*
X142914883Y-84552488D01*
G37*
G36*
X116388025Y-81867850D02*
X115220592Y-83035283D01*
X114484211Y-82298902D01*
X115651644Y-81131469D01*
X116388025Y-81867850D01*
X116388025Y-81867850D01*
G37*
G36*
X145249749Y-82217622D02*
X144513368Y-82954003D01*
X143345935Y-81786570D01*
X144082316Y-81050189D01*
X145249749Y-82217622D01*
X145249749Y-82217622D01*
G37*
G36*
X122171309Y-80754298D02*
X121003876Y-81921731D01*
X120267495Y-81185350D01*
X121434928Y-80017917D01*
X122171309Y-80754298D01*
X122171309Y-80754298D01*
G37*
G36*
X139466465Y-81104070D02*
X138730084Y-81840451D01*
X137562651Y-80673018D01*
X138299032Y-79936637D01*
X139466465Y-81104070D01*
X139466465Y-81104070D01*
G37*
G36*
X119836443Y-78419432D02*
X118669010Y-79586865D01*
X117932629Y-78850484D01*
X119100062Y-77683051D01*
X119836443Y-78419432D01*
X119836443Y-78419432D01*
G37*
G36*
X141801331Y-78769204D02*
X141064950Y-79505585D01*
X139897517Y-78338152D01*
X140633898Y-77601771D01*
X141801331Y-78769204D01*
X141801331Y-78769204D01*
G37*
G36*
X149445300Y-72090500D02*
X147794300Y-72090500D01*
X147794300Y-71049100D01*
X149445300Y-71049100D01*
X149445300Y-72090500D01*
X149445300Y-72090500D01*
G37*
G36*
X144568500Y-72090500D02*
X142917500Y-72090500D01*
X142917500Y-71049100D01*
X144568500Y-71049100D01*
X144568500Y-72090500D01*
X144568500Y-72090500D01*
G37*
G36*
X111954900Y-71968580D02*
X110303900Y-71968580D01*
X110303900Y-70927180D01*
X111954900Y-70927180D01*
X111954900Y-71968580D01*
X111954900Y-71968580D01*
G37*
G36*
X116831700Y-71968580D02*
X115180700Y-71968580D01*
X115180700Y-70927180D01*
X116831700Y-70927180D01*
X116831700Y-71968580D01*
X116831700Y-71968580D01*
G37*
G36*
X144568500Y-68788500D02*
X142917500Y-68788500D01*
X142917500Y-67747100D01*
X144568500Y-67747100D01*
X144568500Y-68788500D01*
X144568500Y-68788500D01*
G37*
G36*
X149445300Y-68788500D02*
X147794300Y-68788500D01*
X147794300Y-67747100D01*
X149445300Y-67747100D01*
X149445300Y-68788500D01*
X149445300Y-68788500D01*
G37*
G36*
X116831700Y-68666580D02*
X115180700Y-68666580D01*
X115180700Y-67625180D01*
X116831700Y-67625180D01*
X116831700Y-68666580D01*
X116831700Y-68666580D01*
G37*
G36*
X111954900Y-68666580D02*
X110303900Y-68666580D01*
X110303900Y-67625180D01*
X111954900Y-67625180D01*
X111954900Y-68666580D01*
X111954900Y-68666580D01*
G37*
G36*
X142710154Y-63544193D02*
X142939481Y-63591268D01*
X143155311Y-63681994D01*
X143349398Y-63812908D01*
X143514370Y-63979034D01*
X143643924Y-64174031D01*
X143733139Y-64390481D01*
X143778543Y-64619793D01*
X143778543Y-64619798D01*
X143778611Y-64620142D01*
X143774877Y-64887547D01*
X143774800Y-64887885D01*
X143774800Y-64887893D01*
X143723010Y-65115849D01*
X143627788Y-65329721D01*
X143492835Y-65521029D01*
X143323294Y-65682481D01*
X143125623Y-65807926D01*
X142907348Y-65892589D01*
X142676793Y-65933243D01*
X142442725Y-65928340D01*
X142214069Y-65878066D01*
X141999532Y-65784338D01*
X141807294Y-65650729D01*
X141644658Y-65482314D01*
X141517836Y-65285525D01*
X141431650Y-65067844D01*
X141389389Y-64837580D01*
X141392657Y-64603486D01*
X141441334Y-64374483D01*
X141533561Y-64159299D01*
X141665830Y-63966126D01*
X141833098Y-63802324D01*
X142029001Y-63674129D01*
X142246071Y-63586427D01*
X142476037Y-63542559D01*
X142710154Y-63544193D01*
X142710154Y-63544193D01*
G37*
G36*
X117442234Y-63259713D02*
X117671561Y-63306788D01*
X117887391Y-63397514D01*
X118081478Y-63528428D01*
X118246450Y-63694554D01*
X118376004Y-63889551D01*
X118465219Y-64106001D01*
X118510623Y-64335313D01*
X118510623Y-64335318D01*
X118510691Y-64335662D01*
X118506957Y-64603067D01*
X118506880Y-64603405D01*
X118506880Y-64603413D01*
X118455090Y-64831369D01*
X118359868Y-65045241D01*
X118224915Y-65236549D01*
X118055374Y-65398001D01*
X117857703Y-65523446D01*
X117639428Y-65608109D01*
X117408873Y-65648763D01*
X117174805Y-65643860D01*
X116946149Y-65593586D01*
X116731612Y-65499858D01*
X116539374Y-65366249D01*
X116376738Y-65197834D01*
X116249916Y-65001045D01*
X116163730Y-64783364D01*
X116121469Y-64553100D01*
X116124737Y-64319006D01*
X116173414Y-64090003D01*
X116265641Y-63874819D01*
X116397910Y-63681646D01*
X116565178Y-63517844D01*
X116761081Y-63389649D01*
X116978151Y-63301947D01*
X117208117Y-63258079D01*
X117442234Y-63259713D01*
X117442234Y-63259713D01*
G37*
G36*
X119724683Y-61387688D02*
X118988302Y-62124069D01*
X117820869Y-60956636D01*
X118557250Y-60220255D01*
X119724683Y-61387688D01*
X119724683Y-61387688D01*
G37*
G36*
X141968971Y-60900756D02*
X140801538Y-62068189D01*
X140065157Y-61331808D01*
X141232590Y-60164375D01*
X141968971Y-60900756D01*
X141968971Y-60900756D01*
G37*
G36*
X122059549Y-59052822D02*
X121323168Y-59789203D01*
X120155735Y-58621770D01*
X120892116Y-57885389D01*
X122059549Y-59052822D01*
X122059549Y-59052822D01*
G37*
G36*
X139634105Y-58565890D02*
X138466672Y-59733323D01*
X137730291Y-58996942D01*
X138897724Y-57829509D01*
X139634105Y-58565890D01*
X139634105Y-58565890D01*
G37*
G36*
X116276265Y-57939270D02*
X115539884Y-58675651D01*
X114372451Y-57508218D01*
X115108832Y-56771837D01*
X116276265Y-57939270D01*
X116276265Y-57939270D01*
G37*
G36*
X145417389Y-57452338D02*
X144249956Y-58619771D01*
X143513575Y-57883390D01*
X144681008Y-56715957D01*
X145417389Y-57452338D01*
X145417389Y-57452338D01*
G37*
G36*
X132092020Y-56571100D02*
X131050620Y-56571100D01*
X131050620Y-54920100D01*
X132092020Y-54920100D01*
X132092020Y-56571100D01*
X132092020Y-56571100D01*
G37*
G36*
X128790020Y-56571100D02*
X127748620Y-56571100D01*
X127748620Y-54920100D01*
X128790020Y-54920100D01*
X128790020Y-56571100D01*
X128790020Y-56571100D01*
G37*
G36*
X118611131Y-55604404D02*
X117874750Y-56340785D01*
X116707317Y-55173352D01*
X117443698Y-54436971D01*
X118611131Y-55604404D01*
X118611131Y-55604404D01*
G37*
G36*
X143082523Y-55117472D02*
X141915090Y-56284905D01*
X141178709Y-55548524D01*
X142346142Y-54381091D01*
X143082523Y-55117472D01*
X143082523Y-55117472D01*
G37*
G36*
X128790020Y-51694300D02*
X127748620Y-51694300D01*
X127748620Y-50043300D01*
X128790020Y-50043300D01*
X128790020Y-51694300D01*
X128790020Y-51694300D01*
G37*
G36*
X132092020Y-51694300D02*
X131050620Y-51694300D01*
X131050620Y-50043300D01*
X132092020Y-50043300D01*
X132092020Y-51694300D01*
X132092020Y-51694300D01*
G37*
G36*
X130816783Y-43452993D02*
X131369308Y-43566411D01*
X131889293Y-43784992D01*
X132356913Y-44100406D01*
X132754363Y-44500640D01*
X133066503Y-44970450D01*
X133281447Y-45491941D01*
X133390936Y-46044905D01*
X133390936Y-46044910D01*
X133391004Y-46045254D01*
X133382008Y-46689508D01*
X133381931Y-46689846D01*
X133381931Y-46689854D01*
X133257044Y-47239546D01*
X133027625Y-47754830D01*
X132702486Y-48215743D01*
X132294015Y-48604725D01*
X131817770Y-48906959D01*
X131291888Y-49110935D01*
X130736409Y-49208882D01*
X130172479Y-49197068D01*
X129621583Y-49075946D01*
X129104705Y-48850128D01*
X128641538Y-48528218D01*
X128249714Y-48122473D01*
X127944161Y-47648348D01*
X127736518Y-47123900D01*
X127634697Y-46569121D01*
X127642572Y-46005123D01*
X127759846Y-45453394D01*
X127982048Y-44934955D01*
X128300720Y-44469547D01*
X128703719Y-44074901D01*
X129175700Y-43766046D01*
X129698681Y-43554747D01*
X130252739Y-43449056D01*
X130816783Y-43452993D01*
X130816783Y-43452993D01*
G37*
M02*
