G04 #@! TF.GenerationSoftware,KiCad,Pcbnew,(2017-05-14 revision 14bb238b3)-makepkg*
G04 #@! TF.CreationDate,2017-07-12T11:42:09-06:00*
G04 #@! TF.ProjectId,001,3030312E6B696361645F706362000000,rev?*
G04 #@! TF.FileFunction,Paste,Bot*
G04 #@! TF.FilePolarity,Positive*
%FSLAX46Y46*%
G04 Gerber Fmt 4.6, Leading zero omitted, Abs format (unit mm)*
G04 Created by KiCad (PCBNEW (2017-05-14 revision 14bb238b3)-makepkg) date 07/12/17 11:42:09*
%MOMM*%
%LPD*%
G01*
G04 APERTURE LIST*
%ADD10C,0.100000*%
%ADD11R,2.347600X0.947600*%
%ADD12R,0.947600X2.347600*%
%ADD13C,1.447600*%
%ADD14R,1.847600X1.547600*%
%ADD15R,1.847600X1.347600*%
%ADD16R,1.847600X3.647600*%
G04 APERTURE END LIST*
D10*
D11*
X122570600Y-75491560D03*
X122570600Y-73491560D03*
X122570600Y-71491560D03*
X122570600Y-69491560D03*
X122570600Y-67491560D03*
X122570600Y-65491560D03*
X122570600Y-63491560D03*
X122570600Y-61491560D03*
X137970600Y-61491560D03*
X137970600Y-63491560D03*
X137970600Y-65491560D03*
X137970600Y-67491560D03*
X137970600Y-69491560D03*
X137970600Y-71491560D03*
X137970600Y-73491560D03*
X137970600Y-75491560D03*
D12*
X125260600Y-59791560D03*
X127260600Y-59791560D03*
X129260600Y-59791560D03*
X131260600Y-59791560D03*
X133260600Y-59791560D03*
X135260600Y-59791560D03*
D13*
X142904261Y-82781790D03*
D10*
G36*
X141748230Y-82579590D02*
X142824006Y-81610956D01*
X144060292Y-82983990D01*
X142984516Y-83952624D01*
X141748230Y-82579590D01*
X141748230Y-82579590D01*
G37*
D13*
X140227739Y-79809210D03*
D10*
G36*
X139071708Y-79607010D02*
X140147484Y-78638376D01*
X141383770Y-80011410D01*
X140307994Y-80980044D01*
X139071708Y-79607010D01*
X139071708Y-79607010D01*
G37*
D14*
X138588000Y-100396000D03*
X134588000Y-100396000D03*
D15*
X126631000Y-91063100D03*
X126631000Y-86463100D03*
X126631000Y-88763100D03*
D16*
X132931000Y-88763100D03*
M02*
