G04 #@! TF.GenerationSoftware,KiCad,Pcbnew,(2017-05-14 revision 14bb238b3)-makepkg*
G04 #@! TF.CreationDate,2017-07-12T11:42:09-06:00*
G04 #@! TF.ProjectId,001,3030312E6B696361645F706362000000,rev?*
G04 #@! TF.FileFunction,Paste,Top*
G04 #@! TF.FilePolarity,Positive*
%FSLAX46Y46*%
G04 Gerber Fmt 4.6, Leading zero omitted, Abs format (unit mm)*
G04 Created by KiCad (PCBNEW (2017-05-14 revision 14bb238b3)-makepkg) date 07/12/17 11:42:09*
%MOMM*%
%LPD*%
G01*
G04 APERTURE LIST*
%ADD10C,0.100000*%
%ADD11C,0.736600*%
%ADD12R,0.736600X1.346200*%
%ADD13R,1.346200X0.736600*%
%ADD14R,1.347600X1.347600*%
G04 APERTURE END LIST*
D10*
D11*
X141017064Y-61116282D03*
D10*
G36*
X140801538Y-61852663D02*
X140280683Y-61331808D01*
X141232590Y-60379901D01*
X141753445Y-60900756D01*
X140801538Y-61852663D01*
X140801538Y-61852663D01*
G37*
D11*
X138682198Y-58781416D03*
D10*
G36*
X138466672Y-59517797D02*
X137945817Y-58996942D01*
X138897724Y-58045035D01*
X139418579Y-58565890D01*
X138466672Y-59517797D01*
X138466672Y-59517797D01*
G37*
D11*
X142130616Y-55332998D03*
D10*
G36*
X141915090Y-56069379D02*
X141394235Y-55548524D01*
X142346142Y-54596617D01*
X142866997Y-55117472D01*
X141915090Y-56069379D01*
X141915090Y-56069379D01*
G37*
D11*
X144465482Y-57667864D03*
D10*
G36*
X144249956Y-58404245D02*
X143729101Y-57883390D01*
X144681008Y-56931483D01*
X145201863Y-57452338D01*
X144249956Y-58404245D01*
X144249956Y-58404245D01*
G37*
D12*
X131571320Y-50868800D03*
X128269320Y-50868800D03*
X128269320Y-55745600D03*
X131571320Y-55745600D03*
D11*
X115324358Y-57723744D03*
D10*
G36*
X114587977Y-57508218D02*
X115108832Y-56987363D01*
X116060739Y-57939270D01*
X115539884Y-58460125D01*
X114587977Y-57508218D01*
X114587977Y-57508218D01*
G37*
D11*
X117659224Y-55388878D03*
D10*
G36*
X116922843Y-55173352D02*
X117443698Y-54652497D01*
X118395605Y-55604404D01*
X117874750Y-56125259D01*
X116922843Y-55173352D01*
X116922843Y-55173352D01*
G37*
D11*
X121107642Y-58837296D03*
D10*
G36*
X120371261Y-58621770D02*
X120892116Y-58100915D01*
X121844023Y-59052822D01*
X121323168Y-59573677D01*
X120371261Y-58621770D01*
X120371261Y-58621770D01*
G37*
D11*
X118772776Y-61172162D03*
D10*
G36*
X118036395Y-60956636D02*
X118557250Y-60435781D01*
X119509157Y-61387688D01*
X118988302Y-61908543D01*
X118036395Y-60956636D01*
X118036395Y-60956636D01*
G37*
D13*
X116006200Y-71447880D03*
X116006200Y-68145880D03*
X111129400Y-68145880D03*
X111129400Y-71447880D03*
D11*
X117770984Y-84418242D03*
D10*
G36*
X117555458Y-85154623D02*
X117034603Y-84633768D01*
X117986510Y-83681861D01*
X118507365Y-84202716D01*
X117555458Y-85154623D01*
X117555458Y-85154623D01*
G37*
D11*
X115436118Y-82083376D03*
D10*
G36*
X115220592Y-82819757D02*
X114699737Y-82298902D01*
X115651644Y-81346995D01*
X116172499Y-81867850D01*
X115220592Y-82819757D01*
X115220592Y-82819757D01*
G37*
D11*
X118884536Y-78634958D03*
D10*
G36*
X118669010Y-79371339D02*
X118148155Y-78850484D01*
X119100062Y-77898577D01*
X119620917Y-78419432D01*
X118669010Y-79371339D01*
X118669010Y-79371339D01*
G37*
D11*
X121219402Y-80969824D03*
D10*
G36*
X121003876Y-81706205D02*
X120483021Y-81185350D01*
X121434928Y-80233443D01*
X121955783Y-80754298D01*
X121003876Y-81706205D01*
X121003876Y-81706205D01*
G37*
D11*
X141962976Y-84336962D03*
D10*
G36*
X141226595Y-84121436D02*
X141747450Y-83600581D01*
X142699357Y-84552488D01*
X142178502Y-85073343D01*
X141226595Y-84121436D01*
X141226595Y-84121436D01*
G37*
D11*
X144297842Y-82002096D03*
D10*
G36*
X143561461Y-81786570D02*
X144082316Y-81265715D01*
X145034223Y-82217622D01*
X144513368Y-82738477D01*
X143561461Y-81786570D01*
X143561461Y-81786570D01*
G37*
D11*
X140849424Y-78553678D03*
D10*
G36*
X140113043Y-78338152D02*
X140633898Y-77817297D01*
X141585805Y-78769204D01*
X141064950Y-79290059D01*
X140113043Y-78338152D01*
X140113043Y-78338152D01*
G37*
D11*
X138514558Y-80888544D03*
D10*
G36*
X137778177Y-80673018D02*
X138299032Y-80152163D01*
X139250939Y-81104070D01*
X138730084Y-81624925D01*
X137778177Y-80673018D01*
X137778177Y-80673018D01*
G37*
D13*
X143743000Y-71569800D03*
X143743000Y-68267800D03*
X148619800Y-68267800D03*
X148619800Y-71569800D03*
D14*
X126708000Y-100396000D03*
X130008000Y-100396000D03*
M02*
