  0
SECTION
  2
HEADER
  9
$ACADVER
  1
AC1014
  9
$HANDSEED
  5
FFFF
  9
$MEASUREMENT
 70
     1
  0
ENDSEC
  0
SECTION
  2
TABLES
  0
TABLE
  2
VPORT
  5
8
330
0
100
AcDbSymbolTable
 70
     4
  0
VPORT
  5
2E
330
8
100
AcDbSymbolTableRecord
100
AcDbViewportTableRecord
  2
*ACTIVE
 70
     0
 10
0.0
 20
0.0
 11
1.0
 21
1.0
 12
210.0
 22
148.5
 13
0.0
 23
0.0
 14
10.0
 24
10.0
 15
10.0
 25
10.0
 16
0.0
 26
0.0
 36
1.0
 17
0.0
 27
0.0
 37
0.0
 40
341.0
 41
1.24
 42
50.0
 43
0.0
 44
0.0
 50
0.0
 51
0.0
 71
     0
 72
   100
 73
     1
 74
     3
 75
     0
 76
     0
 77
     0
 78
     0
  0
ENDTAB
  0
TABLE
  2
LTYPE
  5
5
330
0
100
AcDbSymbolTable
 70
     1
  0
LTYPE
  5
14
330
5
100
AcDbSymbolTableRecord
100
AcDbLinetypeTableRecord
  2
BYBLOCK
 70
     0
  3

 72
    65
 73
     0
 40
0.0
  0
LTYPE
  5
15
330
5
100
AcDbSymbolTableRecord
100
AcDbLinetypeTableRecord
  2
BYLAYER
 70
     0
  3

 72
    65
 73
     0
 40
0.0
  0
LTYPE
  5
16
330
5
100
AcDbSymbolTableRecord
100
AcDbLinetypeTableRecord
  2
CONTINUOUS
 70
     0
  3
Solid line
 72
    65
 73
     0
 40
0.0
  0
ENDTAB
  0
TABLE
  2
LAYER
  5
2
100
AcDbSymbolTable
 70
2
  0
LAYER
  5
50
100
AcDbSymbolTableRecord
100
AcDbLayerTableRecord
  2
0
 70
0
  6
CONTINUOUS
  0
LAYER
  5
51
100
AcDbSymbolTableRecord
100
AcDbLayerTableRecord
  2
Layer_1
 70
0
  6
CONTINUOUS
  0
ENDTAB
  0
TABLE
  2
STYLE
  5
3
330
0
100
AcDbSymbolTable
 70
     1
  0
STYLE
  5
11
330
3
100
AcDbSymbolTableRecord
100
AcDbTextStyleTableRecord
  2
STANDARD
 70
     0
 40
0.0
 41
1.0
 50
0.0
 71
     0
 42
2.5
  3
txt
  4

  0
ENDTAB
  0
TABLE
  2
VIEW
  5
6
330
0
100
AcDbSymbolTable
 70
     0
  0
ENDTAB
  0
TABLE
  2
UCS
  5
7
330
0
100
AcDbSymbolTable
 70
     0
  0
ENDTAB
  0
TABLE
  2
APPID
  5
9
330
0
100
AcDbSymbolTable
 70
     2
  0
APPID
  5
12
330
9
100
AcDbSymbolTableRecord
100
AcDbRegAppTableRecord
  2
ACAD
 70
     0
  0
ENDTAB
  0
TABLE
  2
DIMSTYLE
  5
A
330
0
100
AcDbSymbolTable
 70
     1
  0
DIMSTYLE
105
27
330
A
100
AcDbSymbolTableRecord
100
AcDbDimStyleTableRecord
  2
ISO-25
 70
     0
  3

  4

  5

  6

  7

 40
1.0
 41
2.5
 42
0.625
 43
3.75
 44
1.25
 45
0.0
 46
0.0
 47
0.0
 48
0.0
140
2.5
141
2.5
142
0.0
143
0.03937007874016
144
1.0
145
0.0
146
1.0
147
0.625
 71
     0
 72
     0
 73
     0
 74
     0
 75
     0
 76
     0
 77
     1
 78
     8
170
     0
171
     3
172
     1
173
     0
174
     0
175
     0
176
     0
177
     0
178
     0
270
     2
271
     2
272
     2
273
     2
274
     3
340
11
275
     0
280
     0
281
     0
282
     0
283
     0
284
     8
285
     0
286
     0
287
     3
288
     0
  0
ENDTAB
  0
TABLE
  2
BLOCK_RECORD
  5
1
330
0
100
AcDbSymbolTable
 70
     1
  0
BLOCK_RECORD
  5
1F
330
1
100
AcDbSymbolTableRecord
100
AcDbBlockTableRecord
  2
*MODEL_SPACE
  0
BLOCK_RECORD
  5
1B
330
1
100
AcDbSymbolTableRecord
100
AcDbBlockTableRecord
  2
*PAPER_SPACE
  0
ENDTAB
  0
ENDSEC
  0
SECTION
  2
BLOCKS
  0
BLOCK
  5
20
330
1F
100
AcDbEntity
  8
0
100
AcDbBlockBegin
  2
*MODEL_SPACE
 70
     0
 10
0.0
 20
0.0
 30
0.0
  3
*MODEL_SPACE
  1

  0
ENDBLK
  5
21
330
1F
100
AcDbEntity
  8
0
100
AcDbBlockEnd
  0
BLOCK
  5
1C
330
1B
100
AcDbEntity
 67
     1
  8
0
100
AcDbBlockBegin
  2
*PAPER_SPACE
  1

  0
ENDBLK
  5
1D
330
1B
100
AcDbEntity
 67
     1
  8
0
100
AcDbBlockEnd
  0
ENDSEC
  0
SECTION
  2
ENTITIES
  0
SPLINE
  5
100
100
AcDbEntity
  8
Layer_1
 62
7
100
AcDbSpline
 70
8
 71
3
 72
8
 73
4
 74
0
 40
0
 40
0
 40
0
 40
0
 40
1
 40
1
 40
1
 40
1
 10
30.697785
 20
0.579658
 30
0.0
 10
30.306498
 20
0.628962
 30
0.0
 10
29.673211
 20
0.808935
 30
0.0
 10
29.290476
 20
0.979595
 30
0.0
  0
SPLINE
  5
101
100
AcDbEntity
  8
Layer_1
 62
7
100
AcDbSpline
 70
8
 71
3
 72
8
 73
4
 74
0
 40
0
 40
0
 40
0
 40
0
 40
1
 40
1
 40
1
 40
1
 10
29.290476
 20
0.979595
 30
0.0
 10
28.907743
 20
1.150283
 30
0.0
 10
28.315279
 20
1.306634
 30
0.0
 10
27.973895
 20
1.327067
 30
0.0
  0
SPLINE
  5
102
100
AcDbEntity
  8
Layer_1
 62
7
100
AcDbSpline
 70
8
 71
3
 72
8
 73
4
 74
0
 40
0
 40
0
 40
0
 40
0
 40
1
 40
1
 40
1
 40
1
 10
27.973895
 20
1.327067
 30
0.0
 10
26.768695
 20
1.399175
 30
0.0
 10
26.316088
 20
2.571977
 30
0.0
 10
27.194984
 20
3.345379
 30
0.0
  0
SPLINE
  5
103
100
AcDbEntity
  8
Layer_1
 62
7
100
AcDbSpline
 70
8
 71
3
 72
8
 73
4
 74
0
 40
0
 40
0
 40
0
 40
0
 40
1
 40
1
 40
1
 40
1
 10
27.194984
 20
3.345379
 30
0.0
 10
27.938336
 20
3.999542
 30
0.0
 10
29.057360
 20
3.631976
 30
0.0
 10
29.300015
 20
2.653963
 30
0.0
  0
SPLINE
  5
104
100
AcDbEntity
  8
Layer_1
 62
7
100
AcDbSpline
 70
8
 71
3
 72
8
 73
4
 74
0
 40
0
 40
0
 40
0
 40
0
 40
1
 40
1
 40
1
 40
1
 10
29.300015
 20
2.653963
 30
0.0
 10
29.404127
 20
2.234298
 30
0.0
 10
29.574586
 20
2.169415
 30
0.0
 10
30.916654
 20
2.038464
 30
0.0
  0
SPLINE
  5
105
100
AcDbEntity
  8
Layer_1
 62
7
100
AcDbSpline
 70
8
 71
3
 72
8
 73
4
 74
0
 40
0
 40
0
 40
0
 40
0
 40
1
 40
1
 40
1
 40
1
 10
30.916654
 20
2.038464
 30
0.0
 10
32.112433
 20
1.921765
 30
0.0
 10
32.835506
 20
2.159481
 30
0.0
 10
33.276057
 20
2.814152
 30
0.0
  0
SPLINE
  5
106
100
AcDbEntity
  8
Layer_1
 62
7
100
AcDbSpline
 70
8
 71
3
 72
8
 73
4
 74
0
 40
0
 40
0
 40
0
 40
0
 40
1
 40
1
 40
1
 40
1
 10
33.276057
 20
2.814152
 30
0.0
 10
33.751325
 20
3.520385
 30
0.0
 10
33.666890
 20
3.771647
 30
0.0
 10
31.927210
 20
6.828481
 30
0.0
  0
SPLINE
  5
107
100
AcDbEntity
  8
Layer_1
 62
7
100
AcDbSpline
 70
8
 71
3
 72
8
 73
4
 74
0
 40
0
 40
0
 40
0
 40
0
 40
1
 40
1
 40
1
 40
1
 10
31.927210
 20
6.828481
 30
0.0
 10
30.699055
 20
8.986493
 30
0.0
 10
30.281612
 20
9.815803
 30
0.0
 10
29.943724
 20
10.768952
 30
0.0
  0
SPLINE
  5
108
100
AcDbEntity
  8
Layer_1
 62
7
100
AcDbSpline
 70
8
 71
3
 72
8
 73
4
 74
0
 40
0
 40
0
 40
0
 40
0
 40
1
 40
1
 40
1
 40
1
 10
29.943724
 20
10.768952
 30
0.0
 10
29.806527
 20
11.155992
 30
0.0
 10
29.605170
 20
11.725911
 30
0.0
 10
29.496264
 20
12.035537
 30
0.0
  0
SPLINE
  5
109
100
AcDbEntity
  8
Layer_1
 62
7
100
AcDbSpline
 70
8
 71
3
 72
8
 73
4
 74
0
 40
0
 40
0
 40
0
 40
0
 40
1
 40
1
 40
1
 40
1
 10
29.496264
 20
12.035537
 30
0.0
 10
29.340423
 20
12.478570
 30
0.0
 10
29.308092
 20
13.382471
 30
0.0
 10
29.344448
 20
16.279525
 30
0.0
  0
SPLINE
  5
10a
100
AcDbEntity
  8
Layer_1
 62
7
100
AcDbSpline
 70
8
 71
3
 72
8
 73
4
 74
0
 40
0
 40
0
 40
0
 40
0
 40
1
 40
1
 40
1
 40
1
 10
29.344448
 20
16.279525
 30
0.0
 10
29.387670
 20
19.723477
 30
0.0
 10
29.221904
 20
22.566705
 30
0.0
 10
28.962093
 20
22.837666
 30
0.0
  0
SPLINE
  5
10b
100
AcDbEntity
  8
Layer_1
 62
7
100
AcDbSpline
 70
8
 71
3
 72
8
 73
4
 74
0
 40
0
 40
0
 40
0
 40
0
 40
1
 40
1
 40
1
 40
1
 10
28.962093
 20
22.837666
 30
0.0
 10
28.837142
 20
22.967985
 30
0.0
 10
28.345147
 20
21.535595
 30
0.0
 10
28.055409
 20
20.197921
 30
0.0
  0
SPLINE
  5
10c
100
AcDbEntity
  8
Layer_1
 62
7
100
AcDbSpline
 70
8
 71
3
 72
8
 73
4
 74
0
 40
0
 40
0
 40
0
 40
0
 40
1
 40
1
 40
1
 40
1
 10
28.055409
 20
20.197921
 30
0.0
 10
27.673968
 20
18.436885
 30
0.0
 10
27.637195
 20
17.474214
 30
0.0
 10
27.889823
 20
15.863168
 30
0.0
  0
SPLINE
  5
10d
100
AcDbEntity
  8
Layer_1
 62
7
100
AcDbSpline
 70
8
 71
3
 72
8
 73
4
 74
0
 40
0
 40
0
 40
0
 40
0
 40
1
 40
1
 40
1
 40
1
 10
27.889823
 20
15.863168
 30
0.0
 10
28.207714
 20
13.835946
 30
0.0
 10
28.003460
 20
12.677311
 30
0.0
 10
26.773683
 20
9.531916
 30
0.0
  0
SPLINE
  5
10e
100
AcDbEntity
  8
Layer_1
 62
7
100
AcDbSpline
 70
8
 71
3
 72
8
 73
4
 74
0
 40
0
 40
0
 40
0
 40
0
 40
1
 40
1
 40
1
 40
1
 10
26.773683
 20
9.531916
 30
0.0
 10
25.678354
 20
6.730409
 30
0.0
 10
25.627580
 20
5.977581
 30
0.0
 10
26.505867
 20
5.560795
 30
0.0
  0
SPLINE
  5
10f
100
AcDbEntity
  8
Layer_1
 62
7
100
AcDbSpline
 70
8
 71
3
 72
8
 73
4
 74
0
 40
0
 40
0
 40
0
 40
0
 40
1
 40
1
 40
1
 40
1
 10
26.505867
 20
5.560795
 30
0.0
 10
27.105994
 20
5.276033
 30
0.0
 10
27.891149
 20
5.378959
 30
0.0
 10
28.100347
 20
5.769865
 30
0.0
  0
SPLINE
  5
110
100
AcDbEntity
  8
Layer_1
 62
7
100
AcDbSpline
 70
8
 71
3
 72
8
 73
4
 74
0
 40
0
 40
0
 40
0
 40
0
 40
1
 40
1
 40
1
 40
1
 10
28.100347
 20
5.769865
 30
0.0
 10
28.312203
 20
6.165682
 30
0.0
 10
28.049960
 20
6.705093
 30
0.0
 10
27.509979
 20
6.984127
 30
0.0
  0
SPLINE
  5
111
100
AcDbEntity
  8
Layer_1
 62
7
100
AcDbSpline
 70
8
 71
3
 72
8
 73
4
 74
0
 40
0
 40
0
 40
0
 40
0
 40
1
 40
1
 40
1
 40
1
 10
27.509979
 20
6.984127
 30
0.0
 10
26.655497
 20
7.425663
 30
0.0
 10
26.452217
 20
8.100626
 30
0.0
 10
26.973965
 20
8.763933
 30
0.0
  0
SPLINE
  5
112
100
AcDbEntity
  8
Layer_1
 62
7
100
AcDbSpline
 70
8
 71
3
 72
8
 73
4
 74
0
 40
0
 40
0
 40
0
 40
0
 40
1
 40
1
 40
1
 40
1
 10
26.973965
 20
8.763933
 30
0.0
 10
27.791218
 20
9.802906
 30
0.0
 10
29.441005
 20
9.055130
 30
0.0
 10
29.182554
 20
7.762891
 30
0.0
  0
SPLINE
  5
113
100
AcDbEntity
  8
Layer_1
 62
7
100
AcDbSpline
 70
8
 71
3
 72
8
 73
4
 74
0
 40
0
 40
0
 40
0
 40
0
 40
1
 40
1
 40
1
 40
1
 10
29.182554
 20
7.762891
 30
0.0
 10
29.138457
 20
7.542390
 30
0.0
 10
29.187408
 20
7.079461
 30
0.0
 10
29.291311
 20
6.734219
 30
0.0
  0
SPLINE
  5
114
100
AcDbEntity
  8
Layer_1
 62
7
100
AcDbSpline
 70
8
 71
3
 72
8
 73
4
 74
0
 40
0
 40
0
 40
0
 40
0
 40
1
 40
1
 40
1
 40
1
 10
29.291311
 20
6.734219
 30
0.0
 10
29.670578
 20
5.474012
 30
0.0
 10
29.141550
 20
4.512086
 30
0.0
 10
27.865118
 20
4.141048
 30
0.0
  0
SPLINE
  5
115
100
AcDbEntity
  8
Layer_1
 62
7
100
AcDbSpline
 70
8
 71
3
 72
8
 73
4
 74
0
 40
0
 40
0
 40
0
 40
0
 40
1
 40
1
 40
1
 40
1
 10
27.865118
 20
4.141048
 30
0.0
 10
26.319620
 20
3.691750
 30
0.0
 10
24.631448
 20
4.202544
 30
0.0
 10
24.148708
 20
5.265563
 30
0.0
  0
SPLINE
  5
116
100
AcDbEntity
  8
Layer_1
 62
7
100
AcDbSpline
 70
8
 71
3
 72
8
 73
4
 74
0
 40
0
 40
0
 40
0
 40
0
 40
1
 40
1
 40
1
 40
1
 10
24.148708
 20
5.265563
 30
0.0
 10
24.004383
 20
5.583345
 30
0.0
 10
23.884907
 20
6.042125
 30
0.0
 10
23.883207
 20
6.285006
 30
0.0
  0
SPLINE
  5
117
100
AcDbEntity
  8
Layer_1
 62
7
100
AcDbSpline
 70
8
 71
3
 72
8
 73
4
 74
0
 40
0
 40
0
 40
0
 40
0
 40
1
 40
1
 40
1
 40
1
 10
23.883207
 20
6.285006
 30
0.0
 10
23.879365
 20
6.833702
 30
0.0
 10
24.454831
 20
8.873548
 30
0.0
 10
25.009221
 20
10.276390
 30
0.0
  0
SPLINE
  5
118
100
AcDbEntity
  8
Layer_1
 62
7
100
AcDbSpline
 70
8
 71
3
 72
8
 73
4
 74
0
 40
0
 40
0
 40
0
 40
0
 40
1
 40
1
 40
1
 40
1
 10
25.009221
 20
10.276390
 30
0.0
 10
25.882283
 20
12.485625
 30
0.0
 10
26.190838
 20
14.459318
 30
0.0
 10
25.845402
 20
15.625099
 30
0.0
  0
SPLINE
  5
119
100
AcDbEntity
  8
Layer_1
 62
7
100
AcDbSpline
 70
8
 71
3
 72
8
 73
4
 74
0
 40
0
 40
0
 40
0
 40
0
 40
1
 40
1
 40
1
 40
1
 10
25.845402
 20
15.625099
 30
0.0
 10
25.690123
 20
16.149124
 30
0.0
 10
25.635465
 20
18.998081
 30
0.0
 10
25.762927
 20
19.923888
 30
0.0
  0
SPLINE
  5
11a
100
AcDbEntity
  8
Layer_1
 62
7
100
AcDbSpline
 70
8
 71
3
 72
8
 73
4
 74
0
 40
0
 40
0
 40
0
 40
0
 40
1
 40
1
 40
1
 40
1
 10
25.762927
 20
19.923888
 30
0.0
 10
25.804989
 20
20.229411
 30
0.0
 10
25.803387
 20
20.352722
 30
0.0
 10
25.759363
 20
20.197921
 30
0.0
  0
SPLINE
  5
11b
100
AcDbEntity
  8
Layer_1
 62
7
100
AcDbSpline
 70
8
 71
3
 72
8
 73
4
 74
0
 40
0
 40
0
 40
0
 40
0
 40
1
 40
1
 40
1
 40
1
 10
25.759363
 20
20.197921
 30
0.0
 10
25.715343
 20
20.043116
 30
0.0
 10
25.622207
 20
19.845910
 30
0.0
 10
25.552392
 20
19.759683
 30
0.0
  0
SPLINE
  5
11c
100
AcDbEntity
  8
Layer_1
 62
7
100
AcDbSpline
 70
8
 71
3
 72
8
 73
4
 74
0
 40
0
 40
0
 40
0
 40
0
 40
1
 40
1
 40
1
 40
1
 10
25.552392
 20
19.759683
 30
0.0
 10
25.433362
 20
19.612671
 30
0.0
 10
25.032448
 20
18.426525
 30
0.0
 10
24.725402
 20
17.312938
 30
0.0
  0
SPLINE
  5
11d
100
AcDbEntity
  8
Layer_1
 62
7
100
AcDbSpline
 70
8
 71
3
 72
8
 73
4
 74
0
 40
0
 40
0
 40
0
 40
0
 40
1
 40
1
 40
1
 40
1
 10
24.725402
 20
17.312938
 30
0.0
 10
24.650706
 20
17.042033
 30
0.0
 10
24.519213
 20
16.567064
 30
0.0
 10
24.433196
 20
16.257461
 30
0.0
  0
SPLINE
  5
11e
100
AcDbEntity
  8
Layer_1
 62
7
100
AcDbSpline
 70
8
 71
3
 72
8
 73
4
 74
0
 40
0
 40
0
 40
0
 40
0
 40
1
 40
1
 40
1
 40
1
 10
24.433196
 20
16.257461
 30
0.0
 10
24.347178
 20
15.947852
 30
0.0
 10
24.225858
 20
14.301302
 30
0.0
 10
24.163595
 20
12.598458
 30
0.0
  0
SPLINE
  5
11f
100
AcDbEntity
  8
Layer_1
 62
7
100
AcDbSpline
 70
8
 71
3
 72
8
 73
4
 74
0
 40
0
 40
0
 40
0
 40
0
 40
1
 40
1
 40
1
 40
1
 10
24.163595
 20
12.598458
 30
0.0
 10
24.053596
 20
9.590054
 30
0.0
 10
23.946473
 20
8.714911
 30
0.0
 10
23.509006
 20
7.250657
 30
0.0
  0
SPLINE
  5
120
100
AcDbEntity
  8
Layer_1
 62
7
100
AcDbSpline
 70
8
 71
3
 72
8
 73
4
 74
0
 40
0
 40
0
 40
0
 40
0
 40
1
 40
1
 40
1
 40
1
 10
23.509006
 20
7.250657
 30
0.0
 10
22.828325
 20
4.972447
 30
0.0
 10
21.373524
 20
3.292970
 30
0.0
 10
19.739664
 20
2.899270
 30
0.0
  0
SPLINE
  5
121
100
AcDbEntity
  8
Layer_1
 62
7
100
AcDbSpline
 70
8
 71
3
 72
8
 73
4
 74
0
 40
0
 40
0
 40
0
 40
0
 40
1
 40
1
 40
1
 40
1
 10
19.739664
 20
2.899270
 30
0.0
 10
19.513568
 20
2.844801
 30
0.0
 10
19.172551
 20
2.677472
 30
0.0
 10
18.981849
 20
2.527499
 30
0.0
  0
SPLINE
  5
122
100
AcDbEntity
  8
Layer_1
 62
7
100
AcDbSpline
 70
8
 71
3
 72
8
 73
4
 74
0
 40
0
 40
0
 40
0
 40
0
 40
1
 40
1
 40
1
 40
1
 10
18.981849
 20
2.527499
 30
0.0
 10
18.492918
 20
2.142887
 30
0.0
 10
17.662531
 20
2.169077
 30
0.0
 10
17.179798
 20
2.584310
 30
0.0
  0
SPLINE
  5
123
100
AcDbEntity
  8
Layer_1
 62
7
100
AcDbSpline
 70
8
 71
3
 72
8
 73
4
 74
0
 40
0
 40
0
 40
0
 40
0
 40
1
 40
1
 40
1
 40
1
 10
17.179798
 20
2.584310
 30
0.0
 10
16.377519
 20
3.274400
 30
0.0
 10
16.905307
 20
4.506441
 30
0.0
 10
18.003206
 20
4.506441
 30
0.0
  0
SPLINE
  5
124
100
AcDbEntity
  8
Layer_1
 62
7
100
AcDbSpline
 70
8
 71
3
 72
8
 73
4
 74
0
 40
0
 40
0
 40
0
 40
0
 40
1
 40
1
 40
1
 40
1
 10
18.003206
 20
4.506441
 30
0.0
 10
18.304410
 20
4.506441
 30
0.0
 10
18.669198
 20
4.443111
 30
0.0
 10
18.813845
 20
4.365697
 30
0.0
  0
SPLINE
  5
125
100
AcDbEntity
  8
Layer_1
 62
7
100
AcDbSpline
 70
8
 71
3
 72
8
 73
4
 74
0
 40
0
 40
0
 40
0
 40
0
 40
1
 40
1
 40
1
 40
1
 10
18.813845
 20
4.365697
 30
0.0
 10
19.169017
 20
4.175620
 30
0.0
 10
19.744859
 20
4.404728
 30
0.0
 10
20.338669
 20
4.972447
 30
0.0
  0
SPLINE
  5
126
100
AcDbEntity
  8
Layer_1
 62
7
100
AcDbSpline
 70
8
 71
3
 72
8
 73
4
 74
0
 40
0
 40
0
 40
0
 40
0
 40
1
 40
1
 40
1
 40
1
 10
20.338669
 20
4.972447
 30
0.0
 10
20.909286
 20
5.517954
 30
0.0
 10
21.100847
 20
5.870308
 30
0.0
 10
21.466383
 20
7.046554
 30
0.0
  0
SPLINE
  5
127
100
AcDbEntity
  8
Layer_1
 62
7
100
AcDbSpline
 70
8
 71
3
 72
8
 73
4
 74
0
 40
0
 40
0
 40
0
 40
0
 40
1
 40
1
 40
1
 40
1
 10
21.466383
 20
7.046554
 30
0.0
 10
21.837539
 20
8.240919
 30
0.0
 10
21.910451
 20
8.969503
 30
0.0
 10
22.047529
 20
12.853671
 30
0.0
  0
SPLINE
  5
128
100
AcDbEntity
  8
Layer_1
 62
7
100
AcDbSpline
 70
8
 71
3
 72
8
 73
4
 74
0
 40
0
 40
0
 40
0
 40
0
 40
1
 40
1
 40
1
 40
1
 10
22.047529
 20
12.853671
 30
0.0
 10
22.147290
 20
15.680477
 30
0.0
 10
22.210762
 20
16.295467
 30
0.0
 10
22.522293
 20
17.453668
 30
0.0
  0
SPLINE
  5
129
100
AcDbEntity
  8
Layer_1
 62
7
100
AcDbSpline
 70
8
 71
3
 72
8
 73
4
 74
0
 40
0
 40
0
 40
0
 40
0
 40
1
 40
1
 40
1
 40
1
 10
22.522293
 20
17.453668
 30
0.0
 10
22.720078
 20
18.188987
 30
0.0
 10
22.921904
 20
18.948932
 30
0.0
 10
22.970797
 20
19.142438
 30
0.0
  0
LINE
  5
12a
100
AcDbEntity
  8
Layer_1
 62
7
100
AcDbLine
 10
22.970797
 20
19.142438
 30
0.0
 11
23.059691
 21
19.494267
 31
0.0
  0
LINE
  5
12b
100
AcDbEntity
  8
Layer_1
 62
7
100
AcDbLine
 10
23.059691
 20
19.494267
 30
0.0
 11
22.772137
 21
19.142438
 31
0.0
  0
SPLINE
  5
12c
100
AcDbEntity
  8
Layer_1
 62
7
100
AcDbSpline
 70
8
 71
3
 72
8
 73
4
 74
0
 40
0
 40
0
 40
0
 40
0
 40
1
 40
1
 40
1
 40
1
 10
22.772137
 20
19.142438
 30
0.0
 10
22.052812
 20
18.262328
 30
0.0
 10
20.661224
 20
14.194622
 30
0.0
 10
20.292669
 20
11.894793
 30
0.0
  0
SPLINE
  5
12d
100
AcDbEntity
  8
Layer_1
 62
7
100
AcDbSpline
 70
8
 71
3
 72
8
 73
4
 74
0
 40
0
 40
0
 40
0
 40
0
 40
1
 40
1
 40
1
 40
1
 10
20.292669
 20
11.894793
 30
0.0
 10
20.003487
 20
10.090264
 30
0.0
 10
19.443718
 20
8.113015
 30
0.0
 10
19.008840
 20
7.359962
 30
0.0
  0
SPLINE
  5
12e
100
AcDbEntity
  8
Layer_1
 62
7
100
AcDbSpline
 70
8
 71
3
 72
8
 73
4
 74
0
 40
0
 40
0
 40
0
 40
0
 40
1
 40
1
 40
1
 40
1
 10
19.008840
 20
7.359962
 30
0.0
 10
18.530403
 20
6.531499
 30
0.0
 10
17.676875
 20
6.054458
 30
0.0
 10
16.672993
 20
6.054458
 30
0.0
  0
SPLINE
  5
12f
100
AcDbEntity
  8
Layer_1
 62
7
100
AcDbSpline
 70
8
 71
3
 72
8
 73
4
 74
0
 40
0
 40
0
 40
0
 40
0
 40
1
 40
1
 40
1
 40
1
 10
16.672993
 20
6.054458
 30
0.0
 10
14.898181
 20
6.054458
 30
0.0
 10
13.728475
 20
6.924324
 30
0.0
 10
13.548140
 20
8.378276
 30
0.0
  0
SPLINE
  5
130
100
AcDbEntity
  8
Layer_1
 62
7
100
AcDbSpline
 70
8
 71
3
 72
8
 73
4
 74
0
 40
0
 40
0
 40
0
 40
0
 40
1
 40
1
 40
1
 40
1
 10
13.548140
 20
8.378276
 30
0.0
 10
13.512702
 20
8.663998
 30
0.0
 10
13.384738
 20
9.007124
 30
0.0
 10
13.263777
 20
9.140812
 30
0.0
  0
SPLINE
  5
131
100
AcDbEntity
  8
Layer_1
 62
7
100
AcDbSpline
 70
8
 71
3
 72
8
 73
4
 74
0
 40
0
 40
0
 40
0
 40
0
 40
1
 40
1
 40
1
 40
1
 10
13.263777
 20
9.140812
 30
0.0
 10
13.015651
 20
9.414991
 30
0.0
 10
12.973217
 20
10.162937
 30
0.0
 10
13.183498
 20
10.555846
 30
0.0
  0
SPLINE
  5
132
100
AcDbEntity
  8
Layer_1
 62
7
100
AcDbSpline
 70
8
 71
3
 72
8
 73
4
 74
0
 40
0
 40
0
 40
0
 40
0
 40
1
 40
1
 40
1
 40
1
 10
13.183498
 20
10.555846
 30
0.0
 10
13.360968
 20
10.887457
 30
0.0
 10
14.174033
 20
11.160366
 30
0.0
 10
14.637724
 20
11.044006
 30
0.0
  0
SPLINE
  5
133
100
AcDbEntity
  8
Layer_1
 62
7
100
AcDbSpline
 70
8
 71
3
 72
8
 73
4
 74
0
 40
0
 40
0
 40
0
 40
0
 40
1
 40
1
 40
1
 40
1
 10
14.637724
 20
11.044006
 30
0.0
 10
15.529960
 20
10.820063
 30
0.0
 10
15.807329
 20
9.666282
 30
0.0
 10
15.112589
 20
9.068705
 30
0.0
  0
SPLINE
  5
134
100
AcDbEntity
  8
Layer_1
 62
7
100
AcDbSpline
 70
8
 71
3
 72
8
 73
4
 74
0
 40
0
 40
0
 40
0
 40
0
 40
1
 40
1
 40
1
 40
1
 10
15.112589
 20
9.068705
 30
0.0
 10
14.649579
 20
8.670433
 30
0.0
 10
14.629449
 20
8.307833
 30
0.0
 10
15.049261
 20
7.927991
 30
0.0
  0
SPLINE
  5
135
100
AcDbEntity
  8
Layer_1
 62
7
100
AcDbSpline
 70
8
 71
3
 72
8
 73
4
 74
0
 40
0
 40
0
 40
0
 40
0
 40
1
 40
1
 40
1
 40
1
 10
15.049261
 20
7.927991
 30
0.0
 10
15.791324
 20
7.256584
 30
0.0
 10
16.877210
 20
7.261071
 30
0.0
 10
17.445568
 20
7.937868
 30
0.0
  0
SPLINE
  5
136
100
AcDbEntity
  8
Layer_1
 62
7
100
AcDbSpline
 70
8
 71
3
 72
8
 73
4
 74
0
 40
0
 40
0
 40
0
 40
0
 40
1
 40
1
 40
1
 40
1
 10
17.445568
 20
7.937868
 30
0.0
 10
17.957766
 20
8.547835
 30
0.0
 10
18.497866
 20
10.337350
 30
0.0
 10
18.746007
 20
12.246640
 30
0.0
  0
SPLINE
  5
137
100
AcDbEntity
  8
Layer_1
 62
7
100
AcDbSpline
 70
8
 71
3
 72
8
 73
4
 74
0
 40
0
 40
0
 40
0
 40
0
 40
1
 40
1
 40
1
 40
1
 10
18.746007
 20
12.246640
 30
0.0
 10
18.801336
 20
12.672344
 30
0.0
 10
18.935428
 20
13.432283
 30
0.0
 10
19.043990
 20
13.935401
 30
0.0
  0
SPLINE
  5
138
100
AcDbEntity
  8
Layer_1
 62
7
100
AcDbSpline
 70
8
 71
3
 72
8
 73
4
 74
0
 40
0
 40
0
 40
0
 40
0
 40
1
 40
1
 40
1
 40
1
 10
19.043990
 20
13.935401
 30
0.0
 10
19.152553
 20
14.438519
 30
0.0
 10
19.302697
 20
15.135128
 30
0.0
 10
19.377643
 20
15.483435
 30
0.0
  0
SPLINE
  5
139
100
AcDbEntity
  8
Layer_1
 62
7
100
AcDbSpline
 70
8
 71
3
 72
8
 73
4
 74
0
 40
0
 40
0
 40
0
 40
0
 40
1
 40
1
 40
1
 40
1
 10
19.377643
 20
15.483435
 30
0.0
 10
19.452589
 20
15.831745
 30
0.0
 10
19.574465
 20
16.338377
 30
0.0
 10
19.648480
 20
16.609284
 30
0.0
  0
SPLINE
  5
13a
100
AcDbEntity
  8
Layer_1
 62
7
100
AcDbSpline
 70
8
 71
3
 72
8
 73
4
 74
0
 40
0
 40
0
 40
0
 40
0
 40
1
 40
1
 40
1
 40
1
 10
19.648480
 20
16.609284
 30
0.0
 10
19.722495
 20
16.880190
 30
0.0
 10
19.841767
 20
17.323490
 30
0.0
 10
19.913530
 20
17.594398
 30
0.0
  0
SPLINE
  5
13b
100
AcDbEntity
  8
Layer_1
 62
7
100
AcDbSpline
 70
8
 71
3
 72
8
 73
4
 74
0
 40
0
 40
0
 40
0
 40
0
 40
1
 40
1
 40
1
 40
1
 10
19.913530
 20
17.594398
 30
0.0
 10
19.985293
 20
17.865306
 30
0.0
 10
20.178850
 20
18.480762
 30
0.0
 10
20.343657
 20
18.962081
 30
0.0
  0
SPLINE
  5
13c
100
AcDbEntity
  8
Layer_1
 62
7
100
AcDbSpline
 70
8
 71
3
 72
8
 73
4
 74
0
 40
0
 40
0
 40
0
 40
0
 40
1
 40
1
 40
1
 40
1
 10
20.343657
 20
18.962081
 30
0.0
 10
20.508464
 20
19.443405
 30
0.0
 10
20.643306
 20
19.884541
 30
0.0
 10
20.643306
 20
19.942391
 30
0.0
  0
SPLINE
  5
13d
100
AcDbEntity
  8
Layer_1
 62
7
100
AcDbSpline
 70
8
 71
3
 72
8
 73
4
 74
0
 40
0
 40
0
 40
0
 40
0
 40
1
 40
1
 40
1
 40
1
 10
20.643306
 20
19.942391
 30
0.0
 10
20.643306
 20
20.000241
 30
0.0
 10
20.310830
 20
19.723528
 30
0.0
 10
19.904470
 20
19.327477
 30
0.0
  0
SPLINE
  5
13e
100
AcDbEntity
  8
Layer_1
 62
7
100
AcDbSpline
 70
8
 71
3
 72
8
 73
4
 74
0
 40
0
 40
0
 40
0
 40
0
 40
1
 40
1
 40
1
 40
1
 10
19.904470
 20
19.327477
 30
0.0
 10
19.264652
 20
18.703893
 30
0.0
 10
17.713881
 20
17.594398
 30
0.0
 10
17.482092
 20
17.594398
 30
0.0
  0
SPLINE
  5
13f
100
AcDbEntity
  8
Layer_1
 62
7
100
AcDbSpline
 70
8
 71
3
 72
8
 73
4
 74
0
 40
0
 40
0
 40
0
 40
0
 40
1
 40
1
 40
1
 40
1
 10
17.482092
 20
17.594398
 30
0.0
 10
17.438829
 20
17.594398
 30
0.0
 10
17.134975
 20
17.475021
 30
0.0
 10
16.806861
 20
17.329120
 30
0.0
  0
SPLINE
  5
140
100
AcDbEntity
  8
Layer_1
 62
7
100
AcDbSpline
 70
8
 71
3
 72
8
 73
4
 74
0
 40
0
 40
0
 40
0
 40
0
 40
1
 40
1
 40
1
 40
1
 10
16.806861
 20
17.329120
 30
0.0
 10
16.478747
 20
17.183214
 30
0.0
 10
15.830316
 20
16.924518
 30
0.0
 10
15.365904
 20
16.754231
 30
0.0
  0
SPLINE
  5
141
100
AcDbEntity
  8
Layer_1
 62
7
100
AcDbSpline
 70
8
 71
3
 72
8
 73
4
 74
0
 40
0
 40
0
 40
0
 40
0
 40
1
 40
1
 40
1
 40
1
 10
15.365904
 20
16.754231
 30
0.0
 10
13.795862
 20
16.178560
 30
0.0
 10
13.204920
 20
15.867974
 30
0.0
 10
12.709745
 20
15.358210
 30
0.0
  0
SPLINE
  5
142
100
AcDbEntity
  8
Layer_1
 62
7
100
AcDbSpline
 70
8
 71
3
 72
8
 73
4
 74
0
 40
0
 40
0
 40
0
 40
0
 40
1
 40
1
 40
1
 40
1
 10
12.709745
 20
15.358210
 30
0.0
 10
11.878600
 20
14.502583
 30
0.0
 10
11.687497
 20
13.562755
 30
0.0
 10
12.209678
 20
12.898912
 30
0.0
  0
SPLINE
  5
143
100
AcDbEntity
  8
Layer_1
 62
7
100
AcDbSpline
 70
8
 71
3
 72
8
 73
4
 74
0
 40
0
 40
0
 40
0
 40
0
 40
1
 40
1
 40
1
 40
1
 10
12.209678
 20
12.898912
 30
0.0
 10
12.739239
 20
12.225671
 30
0.0
 10
13.718944
 20
12.565325
 30
0.0
 10
13.558690
 20
13.366610
 30
0.0
  0
SPLINE
  5
144
100
AcDbEntity
  8
Layer_1
 62
7
100
AcDbSpline
 70
8
 71
3
 72
8
 73
4
 74
0
 40
0
 40
0
 40
0
 40
0
 40
1
 40
1
 40
1
 40
1
 10
13.558690
 20
13.366610
 30
0.0
 10
13.430395
 20
14.008073
 30
0.0
 10
13.674636
 20
14.482235
 30
0.0
 10
14.259151
 20
14.726470
 30
0.0
  0
SPLINE
  5
145
100
AcDbEntity
  8
Layer_1
 62
7
100
AcDbSpline
 70
8
 71
3
 72
8
 73
4
 74
0
 40
0
 40
0
 40
0
 40
0
 40
1
 40
1
 40
1
 40
1
 10
14.259151
 20
14.726470
 30
0.0
 10
15.094927
 20
15.075675
 30
0.0
 10
15.922583
 20
14.680129
 30
0.0
 10
16.081602
 20
13.855476
 30
0.0
  0
SPLINE
  5
146
100
AcDbEntity
  8
Layer_1
 62
7
100
AcDbSpline
 70
8
 71
3
 72
8
 73
4
 74
0
 40
0
 40
0
 40
0
 40
0
 40
1
 40
1
 40
1
 40
1
 10
16.081602
 20
13.855476
 30
0.0
 10
16.146788
 20
13.517430
 30
0.0
 10
16.083098
 20
13.326507
 30
0.0
 10
15.788055
 20
12.975902
 30
0.0
  0
SPLINE
  5
147
100
AcDbEntity
  8
Layer_1
 62
7
100
AcDbSpline
 70
8
 71
3
 72
8
 73
4
 74
0
 40
0
 40
0
 40
0
 40
0
 40
1
 40
1
 40
1
 40
1
 10
15.788055
 20
12.975902
 30
0.0
 10
15.580812
 20
12.729607
 30
0.0
 10
15.316121
 20
12.528100
 30
0.0
 10
15.199852
 20
12.528100
 30
0.0
  0
SPLINE
  5
148
100
AcDbEntity
  8
Layer_1
 62
7
100
AcDbSpline
 70
8
 71
3
 72
8
 73
4
 74
0
 40
0
 40
0
 40
0
 40
0
 40
1
 40
1
 40
1
 40
1
 10
15.199852
 20
12.528100
 30
0.0
 10
15.083583
 20
12.528100
 30
0.0
 10
14.731691
 20
12.308305
 30
0.0
 10
14.417868
 20
12.039686
 30
0.0
  0
SPLINE
  5
149
100
AcDbEntity
  8
Layer_1
 62
7
100
AcDbSpline
 70
8
 71
3
 72
8
 73
4
 74
0
 40
0
 40
0
 40
0
 40
0
 40
1
 40
1
 40
1
 40
1
 10
14.417868
 20
12.039686
 30
0.0
 10
13.341451
 20
11.118315
 30
0.0
 10
12.323537
 20
11.054759
 30
0.0
 10
11.415247
 20
11.852291
 30
0.0
  0
SPLINE
  5
14a
100
AcDbEntity
  8
Layer_1
 62
7
100
AcDbSpline
 70
8
 71
3
 72
8
 73
4
 74
0
 40
0
 40
0
 40
0
 40
0
 40
1
 40
1
 40
1
 40
1
 10
11.415247
 20
11.852291
 30
0.0
 10
10.723861
 20
12.459322
 30
0.0
 10
10.487442
 20
12.987501
 30
0.0
 10
10.491879
 20
13.915109
 30
0.0
  0
SPLINE
  5
14b
100
AcDbEntity
  8
Layer_1
 62
7
100
AcDbSpline
 70
8
 71
3
 72
8
 73
4
 74
0
 40
0
 40
0
 40
0
 40
0
 40
1
 40
1
 40
1
 40
1
 10
10.491879
 20
13.915109
 30
0.0
 10
10.498370
 20
15.271766
 30
0.0
 10
11.261843
 20
16.628191
 30
0.0
 10
12.460705
 20
17.413036
 30
0.0
  0
SPLINE
  5
14c
100
AcDbEntity
  8
Layer_1
 62
7
100
AcDbSpline
 70
8
 71
3
 72
8
 73
4
 74
0
 40
0
 40
0
 40
0
 40
0
 40
1
 40
1
 40
1
 40
1
 10
12.460705
 20
17.413036
 30
0.0
 10
12.836158
 20
17.658827
 30
0.0
 10
13.881893
 20
18.155478
 30
0.0
 10
14.784561
 20
18.516703
 30
0.0
  0
SPLINE
  5
14d
100
AcDbEntity
  8
Layer_1
 62
7
100
AcDbSpline
 70
8
 71
3
 72
8
 73
4
 74
0
 40
0
 40
0
 40
0
 40
0
 40
1
 40
1
 40
1
 40
1
 10
14.784561
 20
18.516703
 30
0.0
 10
16.550091
 20
19.223227
 30
0.0
 10
17.774619
 20
19.948038
 30
0.0
 10
18.485228
 20
20.707174
 30
0.0
  0
SPLINE
  5
14e
100
AcDbEntity
  8
Layer_1
 62
7
100
AcDbSpline
 70
8
 71
3
 72
8
 73
4
 74
0
 40
0
 40
0
 40
0
 40
0
 40
1
 40
1
 40
1
 40
1
 10
18.485228
 20
20.707174
 30
0.0
 10
19.906167
 20
22.225143
 30
0.0
 10
23.245616
 20
28.207193
 30
0.0
 10
22.941352
 20
28.689550
 30
0.0
  0
SPLINE
  5
14f
100
AcDbEntity
  8
Layer_1
 62
7
100
AcDbSpline
 70
8
 71
3
 72
8
 73
4
 74
0
 40
0
 40
0
 40
0
 40
0
 40
1
 40
1
 40
1
 40
1
 10
22.941352
 20
28.689550
 30
0.0
 10
22.656125
 20
29.141726
 30
0.0
 10
22.361117
 20
29.212158
 30
0.0
 10
21.898066
 20
28.938625
 30
0.0
  0
LINE
  5
150
100
AcDbEntity
  8
Layer_1
 62
7
100
AcDbLine
 10
21.898066
 20
28.938625
 30
0.0
 11
21.457308
 21
28.678267
 31
0.0
  0
LINE
  5
151
100
AcDbEntity
  8
Layer_1
 62
7
100
AcDbLine
 10
21.457308
 20
28.678267
 30
0.0
 11
20.328312
 21
29.811815
 31
0.0
  0
LINE
  5
152
100
AcDbEntity
  8
Layer_1
 62
7
100
AcDbLine
 10
20.328312
 20
29.811815
 30
0.0
 11
19.199314
 21
30.945366
 31
0.0
  0
LINE
  5
153
100
AcDbEntity
  8
Layer_1
 62
7
100
AcDbLine
 10
19.199314
 20
30.945366
 30
0.0
 11
19.463935
 21
31.358867
 31
0.0
  0
SPLINE
  5
154
100
AcDbEntity
  8
Layer_1
 62
7
100
AcDbSpline
 70
8
 71
3
 72
8
 73
4
 74
0
 40
0
 40
0
 40
0
 40
0
 40
1
 40
1
 40
1
 40
1
 10
19.463935
 20
31.358867
 30
0.0
 10
19.609477
 20
31.586298
 30
0.0
 10
19.969246
 20
32.120068
 30
0.0
 10
20.263422
 20
32.545027
 30
0.0
  0
LINE
  5
155
100
AcDbEntity
  8
Layer_1
 62
7
100
AcDbLine
 10
20.263422
 20
32.545027
 30
0.0
 11
20.798286
 21
33.317681
 31
0.0
  0
LINE
  5
156
100
AcDbEntity
  8
Layer_1
 62
7
100
AcDbLine
 10
20.798286
 20
33.317681
 30
0.0
 11
20.427254
 21
34.244504
 31
0.0
  0
SPLINE
  5
157
100
AcDbEntity
  8
Layer_1
 62
7
100
AcDbSpline
 70
8
 71
3
 72
8
 73
4
 74
0
 40
0
 40
0
 40
0
 40
0
 40
1
 40
1
 40
1
 40
1
 10
20.427254
 20
34.244504
 30
0.0
 10
20.223187
 20
34.754257
 30
0.0
 10
19.973996
 20
35.239569
 30
0.0
 10
19.873497
 20
35.322977
 30
0.0
  0
SPLINE
  5
158
100
AcDbEntity
  8
Layer_1
 62
7
100
AcDbSpline
 70
8
 71
3
 72
8
 73
4
 74
0
 40
0
 40
0
 40
0
 40
0
 40
1
 40
1
 40
1
 40
1
 10
19.873497
 20
35.322977
 30
0.0
 10
19.772998
 20
35.406382
 30
0.0
 10
19.165033
 20
35.567057
 30
0.0
 10
18.522465
 20
35.680031
 30
0.0
  0
SPLINE
  5
159
100
AcDbEntity
  8
Layer_1
 62
7
100
AcDbSpline
 70
8
 71
3
 72
8
 73
4
 74
0
 40
0
 40
0
 40
0
 40
0
 40
1
 40
1
 40
1
 40
1
 10
18.522465
 20
35.680031
 30
0.0
 10
17.879896
 20
35.793010
 30
0.0
 10
17.300358
 20
35.939243
 30
0.0
 10
17.234602
 20
36.004998
 30
0.0
  0
SPLINE
  5
15a
100
AcDbEntity
  8
Layer_1
 62
7
100
AcDbSpline
 70
8
 71
3
 72
8
 73
4
 74
0
 40
0
 40
0
 40
0
 40
0
 40
1
 40
1
 40
1
 40
1
 10
17.234602
 20
36.004998
 30
0.0
 10
17.168846
 20
36.070750
 30
0.0
 10
17.133126
 20
36.813808
 30
0.0
 10
17.155225
 20
37.656230
 30
0.0
  0
LINE
  5
15b
100
AcDbEntity
  8
Layer_1
 62
7
100
AcDbLine
 10
17.155225
 20
37.656230
 30
0.0
 11
17.195404
 21
39.187903
 31
0.0
  0
LINE
  5
15c
100
AcDbEntity
  8
Layer_1
 62
7
100
AcDbLine
 10
17.195404
 20
39.187903
 30
0.0
 11
18.659164
 21
39.475547
 31
0.0
  0
LINE
  5
15d
100
AcDbEntity
  8
Layer_1
 62
7
100
AcDbLine
 10
18.659164
 20
39.475547
 30
0.0
 11
20.122924
 21
39.763193
 31
0.0
  0
LINE
  5
15e
100
AcDbEntity
  8
Layer_1
 62
7
100
AcDbLine
 10
20.122924
 20
39.763193
 30
0.0
 11
20.479086
 21
40.759057
 31
0.0
  0
LINE
  5
15f
100
AcDbEntity
  8
Layer_1
 62
7
100
AcDbLine
 10
20.479086
 20
40.759057
 30
0.0
 11
20.835249
 21
41.754923
 31
0.0
  0
LINE
  5
160
100
AcDbEntity
  8
Layer_1
 62
7
100
AcDbLine
 10
20.835249
 20
41.754923
 30
0.0
 11
20.019319
 21
42.912729
 31
0.0
  0
LINE
  5
161
100
AcDbEntity
  8
Layer_1
 62
7
100
AcDbLine
 10
20.019319
 20
42.912729
 30
0.0
 11
19.203389
 21
44.070540
 31
0.0
  0
LINE
  5
162
100
AcDbEntity
  8
Layer_1
 62
7
100
AcDbLine
 10
19.203389
 20
44.070540
 30
0.0
 11
20.239992
 21
45.169171
 31
0.0
  0
SPLINE
  5
163
100
AcDbEntity
  8
Layer_1
 62
7
100
AcDbSpline
 70
8
 71
3
 72
8
 73
4
 74
0
 40
0
 40
0
 40
0
 40
0
 40
1
 40
1
 40
1
 40
1
 10
20.239992
 20
45.169171
 30
0.0
 10
20.810123
 20
45.773418
 30
0.0
 10
21.382371
 20
46.275830
 30
0.0
 10
21.511653
 20
46.285634
 30
0.0
  0
SPLINE
  5
164
100
AcDbEntity
  8
Layer_1
 62
7
100
AcDbSpline
 70
8
 71
3
 72
8
 73
4
 74
0
 40
0
 40
0
 40
0
 40
0
 40
1
 40
1
 40
1
 40
1
 10
21.511653
 20
46.285634
 30
0.0
 10
21.640935
 20
46.295455
 30
0.0
 10
22.254821
 20
45.953453
 30
0.0
 10
22.875844
 20
45.525660
 30
0.0
  0
LINE
  5
165
100
AcDbEntity
  8
Layer_1
 62
7
100
AcDbLine
 10
22.875844
 20
45.525660
 30
0.0
 11
24.004979
 21
44.747862
 31
0.0
  0
LINE
  5
166
100
AcDbEntity
  8
Layer_1
 62
7
100
AcDbLine
 10
24.004979
 20
44.747862
 30
0.0
 11
24.962843
 21
45.209018
 31
0.0
  0
SPLINE
  5
167
100
AcDbEntity
  8
Layer_1
 62
7
100
AcDbSpline
 70
8
 71
3
 72
8
 73
4
 74
0
 40
0
 40
0
 40
0
 40
0
 40
1
 40
1
 40
1
 40
1
 10
24.962843
 20
45.209018
 30
0.0
 10
25.912667
 20
45.666303
 30
0.0
 10
25.921750
 20
45.676082
 30
0.0
 10
26.044715
 20
46.373829
 30
0.0
  0
SPLINE
  5
168
100
AcDbEntity
  8
Layer_1
 62
7
100
AcDbSpline
 70
8
 71
3
 72
8
 73
4
 74
0
 40
0
 40
0
 40
0
 40
0
 40
1
 40
1
 40
1
 40
1
 10
26.044715
 20
46.373829
 30
0.0
 10
26.112917
 20
46.760837
 30
0.0
 10
26.243408
 20
47.394127
 30
0.0
 10
26.334697
 20
47.781138
 30
0.0
  0
LINE
  5
169
100
AcDbEntity
  8
Layer_1
 62
7
100
AcDbLine
 10
26.334697
 20
47.781138
 30
0.0
 11
26.500672
 21
48.484791
 31
0.0
  0
LINE
  5
16a
100
AcDbEntity
  8
Layer_1
 62
7
100
AcDbLine
 10
26.500672
 20
48.484791
 30
0.0
 11
27.997548
 21
48.524658
 31
0.0
  0
SPLINE
  5
16b
100
AcDbEntity
  8
Layer_1
 62
7
100
AcDbSpline
 70
8
 71
3
 72
8
 73
4
 74
0
 40
0
 40
0
 40
0
 40
0
 40
1
 40
1
 40
1
 40
1
 10
27.997548
 20
48.524658
 30
0.0
 10
29.757198
 20
48.571524
 30
0.0
 10
29.678018
 20
48.637567
 30
0.0
 10
29.985343
 20
46.866622
 30
0.0
  0
SPLINE
  5
16c
100
AcDbEntity
  8
Layer_1
 62
7
100
AcDbSpline
 70
8
 71
3
 72
8
 73
4
 74
0
 40
0
 40
0
 40
0
 40
0
 40
1
 40
1
 40
1
 40
1
 10
29.985343
 20
46.866622
 30
0.0
 10
30.095599
 20
46.231270
 30
0.0
 10
30.239422
 20
45.665293
 30
0.0
 10
30.304952
 20
45.608902
 30
0.0
  0
SPLINE
  5
16d
100
AcDbEntity
  8
Layer_1
 62
7
100
AcDbSpline
 70
8
 71
3
 72
8
 73
4
 74
0
 40
0
 40
0
 40
0
 40
0
 40
1
 40
1
 40
1
 40
1
 10
30.304952
 20
45.608902
 30
0.0
 10
30.478242
 20
45.459767
 30
0.0
 10
31.908654
 20
44.896155
 30
0.0
 10
32.113852
 20
44.896155
 30
0.0
  0
SPLINE
  5
16e
100
AcDbEntity
  8
Layer_1
 62
7
100
AcDbSpline
 70
8
 71
3
 72
8
 73
4
 74
0
 40
0
 40
0
 40
0
 40
0
 40
1
 40
1
 40
1
 40
1
 10
32.113852
 20
44.896155
 30
0.0
 10
32.209856
 20
44.896155
 30
0.0
 10
32.799867
 20
45.244466
 30
0.0
 10
33.424989
 20
45.670175
 30
0.0
  0
SPLINE
  5
16f
100
AcDbEntity
  8
Layer_1
 62
7
100
AcDbSpline
 70
8
 71
3
 72
8
 73
4
 74
0
 40
0
 40
0
 40
0
 40
0
 40
1
 40
1
 40
1
 40
1
 10
33.424989
 20
45.670175
 30
0.0
 10
34.050111
 20
46.095888
 30
0.0
 10
34.619664
 20
46.444195
 30
0.0
 10
34.690668
 20
46.444195
 30
0.0
  0
SPLINE
  5
170
100
AcDbEntity
  8
Layer_1
 62
7
100
AcDbSpline
 70
8
 71
3
 72
8
 73
4
 74
0
 40
0
 40
0
 40
0
 40
0
 40
1
 40
1
 40
1
 40
1
 10
34.690668
 20
46.444195
 30
0.0
 10
34.957354
 20
46.444195
 30
0.0
 10
36.978788
 20
44.186482
 30
0.0
 10
36.867473
 20
44.012947
 30
0.0
  0
SPLINE
  5
171
100
AcDbEntity
  8
Layer_1
 62
7
100
AcDbSpline
 70
8
 71
3
 72
8
 73
4
 74
0
 40
0
 40
0
 40
0
 40
0
 40
1
 40
1
 40
1
 40
1
 10
36.867473
 20
44.012947
 30
0.0
 10
36.806697
 20
43.918199
 30
0.0
 10
36.456160
 20
43.380896
 30
0.0
 10
36.088501
 20
42.818940
 30
0.0
  0
SPLINE
  5
172
100
AcDbEntity
  8
Layer_1
 62
7
100
AcDbSpline
 70
8
 71
3
 72
8
 73
4
 74
0
 40
0
 40
0
 40
0
 40
0
 40
1
 40
1
 40
1
 40
1
 10
36.088501
 20
42.818940
 30
0.0
 10
35.720844
 20
42.256985
 30
0.0
 10
35.420032
 20
41.735187
 30
0.0
 10
35.420032
 20
41.659394
 30
0.0
  0
SPLINE
  5
173
100
AcDbEntity
  8
Layer_1
 62
7
100
AcDbSpline
 70
8
 71
3
 72
8
 73
4
 74
0
 40
0
 40
0
 40
0
 40
0
 40
1
 40
1
 40
1
 40
1
 10
35.420032
 20
41.659394
 30
0.0
 10
35.420032
 20
41.583595
 30
0.0
 10
35.579883
 20
41.122283
 30
0.0
 10
35.775254
 20
40.634247
 30
0.0
  0
LINE
  5
174
100
AcDbEntity
  8
Layer_1
 62
7
100
AcDbLine
 10
35.775254
 20
40.634247
 30
0.0
 11
36.130478
 21
39.746915
 31
0.0
  0
LINE
  5
175
100
AcDbEntity
  8
Layer_1
 62
7
100
AcDbLine
 10
36.130478
 20
39.746915
 30
0.0
 11
37.516249
 21
39.494572
 31
0.0
  0
LINE
  5
176
100
AcDbEntity
  8
Layer_1
 62
7
100
AcDbLine
 10
37.516249
 20
39.494572
 30
0.0
 11
38.902019
 21
39.242228
 31
0.0
  0
LINE
  5
177
100
AcDbEntity
  8
Layer_1
 62
7
100
AcDbLine
 10
38.902019
 20
39.242228
 30
0.0
 11
38.989299
 21
38.515743
 31
0.0
  0
SPLINE
  5
178
100
AcDbEntity
  8
Layer_1
 62
7
100
AcDbSpline
 70
8
 71
3
 72
8
 73
4
 74
0
 40
0
 40
0
 40
0
 40
0
 40
1
 40
1
 40
1
 40
1
 10
38.989299
 20
38.515743
 30
0.0
 10
39.037305
 20
38.116176
 30
0.0
 10
39.077135
 20
37.391883
 30
0.0
 10
39.077804
 20
36.906204
 30
0.0
  0
SPLINE
  5
179
100
AcDbEntity
  8
Layer_1
 62
7
100
AcDbSpline
 70
8
 71
3
 72
8
 73
4
 74
0
 40
0
 40
0
 40
0
 40
0
 40
1
 40
1
 40
1
 40
1
 10
39.077804
 20
36.906204
 30
0.0
 10
39.079215
 20
35.880787
 30
0.0
 10
39.041925
 20
35.851204
 30
0.0
 10
37.530989
 20
35.679579
 30
0.0
  0
SPLINE
  5
17a
100
AcDbEntity
  8
Layer_1
 62
7
100
AcDbSpline
 70
8
 71
3
 72
8
 73
4
 74
0
 40
0
 40
0
 40
0
 40
0
 40
1
 40
1
 40
1
 40
1
 10
37.530989
 20
35.679579
 30
0.0
 10
36.371375
 20
35.547860
 30
0.0
 10
36.184473
 20
35.444522
 30
0.0
 10
35.978818
 20
34.821386
 30
0.0
  0
SPLINE
  5
17b
100
AcDbEntity
  8
Layer_1
 62
7
100
AcDbSpline
 70
8
 71
3
 72
8
 73
4
 74
0
 40
0
 40
0
 40
0
 40
0
 40
1
 40
1
 40
1
 40
1
 10
35.978818
 20
34.821386
 30
0.0
 10
35.886746
 20
34.542407
 30
0.0
 10
35.723743
 20
34.146110
 30
0.0
 10
35.616588
 20
33.940740
 30
0.0
  0
SPLINE
  5
17c
100
AcDbEntity
  8
Layer_1
 62
7
100
AcDbSpline
 70
8
 71
3
 72
8
 73
4
 74
0
 40
0
 40
0
 40
0
 40
0
 40
1
 40
1
 40
1
 40
1
 10
35.616588
 20
33.940740
 30
0.0
 10
35.509437
 20
33.735367
 30
0.0
 10
35.421372
 20
33.499774
 30
0.0
 10
35.420898
 20
33.417204
 30
0.0
  0
SPLINE
  5
17d
100
AcDbEntity
  8
Layer_1
 62
7
100
AcDbSpline
 70
8
 71
3
 72
8
 73
4
 74
0
 40
0
 40
0
 40
0
 40
0
 40
1
 40
1
 40
1
 40
1
 10
35.420898
 20
33.417204
 30
0.0
 10
35.420334
 20
33.334631
 30
0.0
 10
35.762390
 20
32.768920
 30
0.0
 10
36.180832
 20
32.160068
 30
0.0
  0
LINE
  5
17e
100
AcDbEntity
  8
Layer_1
 62
7
100
AcDbLine
 10
36.180832
 20
32.160068
 30
0.0
 11
36.941633
 21
31.053059
 31
0.0
  0
LINE
  5
17f
100
AcDbEntity
  8
Layer_1
 62
7
100
AcDbLine
 10
36.941633
 20
31.053059
 30
0.0
 11
36.004918
 21
30.009859
 31
0.0
  0
SPLINE
  5
180
100
AcDbEntity
  8
Layer_1
 62
7
100
AcDbSpline
 70
8
 71
3
 72
8
 73
4
 74
0
 40
0
 40
0
 40
0
 40
0
 40
1
 40
1
 40
1
 40
1
 10
36.004918
 20
30.009859
 30
0.0
 10
34.983104
 20
28.871888
 30
0.0
 10
34.710415
 20
28.669241
 30
0.0
 10
34.374418
 20
28.798180
 30
0.0
  0
SPLINE
  5
181
100
AcDbEntity
  8
Layer_1
 62
7
100
AcDbSpline
 70
8
 71
3
 72
8
 73
4
 74
0
 40
0
 40
0
 40
0
 40
0
 40
1
 40
1
 40
1
 40
1
 10
34.374418
 20
28.798180
 30
0.0
 10
34.174385
 20
28.874933
 30
0.0
 10
33.608137
 20
28.385822
 30
0.0
 10
33.595217
 20
28.125117
 30
0.0
  0
SPLINE
  5
182
100
AcDbEntity
  8
Layer_1
 62
7
100
AcDbSpline
 70
8
 71
3
 72
8
 73
4
 74
0
 40
0
 40
0
 40
0
 40
0
 40
1
 40
1
 40
1
 40
1
 10
33.595217
 20
28.125117
 30
0.0
 10
33.585452
 20
27.927793
 30
0.0
 10
37.195117
 20
23.092186
 30
0.0
 10
38.339477
 20
21.769608
 30
0.0
  0
SPLINE
  5
183
100
AcDbEntity
  8
Layer_1
 62
7
100
AcDbSpline
 70
8
 71
3
 72
8
 73
4
 74
0
 40
0
 40
0
 40
0
 40
0
 40
1
 40
1
 40
1
 40
1
 10
38.339477
 20
21.769608
 30
0.0
 10
41.313402
 20
18.332536
 30
0.0
 10
44.003045
 20
17.103687
 30
0.0
 10
46.532981
 20
18.026147
 30
0.0
  0
SPLINE
  5
184
100
AcDbEntity
  8
Layer_1
 62
7
100
AcDbSpline
 70
8
 71
3
 72
8
 73
4
 74
0
 40
0
 40
0
 40
0
 40
0
 40
1
 40
1
 40
1
 40
1
 10
46.532981
 20
18.026147
 30
0.0
 10
47.642108
 20
18.430552
 30
0.0
 10
48.114418
 20
18.836997
 30
0.0
 10
48.160830
 20
19.426980
 30
0.0
  0
SPLINE
  5
185
100
AcDbEntity
  8
Layer_1
 62
7
100
AcDbSpline
 70
8
 71
3
 72
8
 73
4
 74
0
 40
0
 40
0
 40
0
 40
0
 40
1
 40
1
 40
1
 40
1
 10
48.160830
 20
19.426980
 30
0.0
 10
48.209894
 20
20.050649
 30
0.0
 10
48.655470
 20
20.409014
 30
0.0
 10
49.381862
 20
20.409014
 30
0.0
  0
SPLINE
  5
186
100
AcDbEntity
  8
Layer_1
 62
7
100
AcDbSpline
 70
8
 71
3
 72
8
 73
4
 74
0
 40
0
 40
0
 40
0
 40
0
 40
1
 40
1
 40
1
 40
1
 10
49.381862
 20
20.409014
 30
0.0
 10
49.828244
 20
20.409014
 30
0.0
 10
50.026655
 20
20.319567
 30
0.0
 10
50.351391
 20
19.971937
 30
0.0
  0
SPLINE
  5
187
100
AcDbEntity
  8
Layer_1
 62
7
100
AcDbSpline
 70
8
 71
3
 72
8
 73
4
 74
0
 40
0
 40
0
 40
0
 40
0
 40
1
 40
1
 40
1
 40
1
 10
50.351391
 20
19.971937
 30
0.0
 10
50.575947
 20
19.731548
 30
0.0
 10
50.759676
 20
19.421598
 30
0.0
 10
50.759676
 20
19.283168
 30
0.0
  0
SPLINE
  5
188
100
AcDbEntity
  8
Layer_1
 62
7
100
AcDbSpline
 70
8
 71
3
 72
8
 73
4
 74
0
 40
0
 40
0
 40
0
 40
0
 40
1
 40
1
 40
1
 40
1
 10
50.759676
 20
19.283168
 30
0.0
 10
50.759676
 20
18.858996
 30
0.0
 10
49.994247
 20
18.157321
 30
0.0
 10
49.531535
 20
18.157321
 30
0.0
  0
SPLINE
  5
189
100
AcDbEntity
  8
Layer_1
 62
7
100
AcDbSpline
 70
8
 71
3
 72
8
 73
4
 74
0
 40
0
 40
0
 40
0
 40
0
 40
1
 40
1
 40
1
 40
1
 10
49.531535
 20
18.157321
 30
0.0
 10
49.269286
 20
18.157321
 30
0.0
 10
48.996194
 20
18.024347
 30
0.0
 10
48.778795
 20
17.790796
 30
0.0
  0
SPLINE
  5
18a
100
AcDbEntity
  8
Layer_1
 62
7
100
AcDbSpline
 70
8
 71
3
 72
8
 73
4
 74
0
 40
0
 40
0
 40
0
 40
0
 40
1
 40
1
 40
1
 40
1
 10
48.778795
 20
17.790796
 30
0.0
 10
48.401153
 20
17.385096
 30
0.0
 10
47.320928
 20
16.820169
 30
0.0
 10
46.500237
 20
16.599181
 30
0.0
  0
SPLINE
  5
18b
100
AcDbEntity
  8
Layer_1
 62
7
100
AcDbSpline
 70
8
 71
3
 72
8
 73
4
 74
0
 40
0
 40
0
 40
0
 40
0
 40
1
 40
1
 40
1
 40
1
 10
46.500237
 20
16.599181
 30
0.0
 10
45.273705
 20
16.268910
 30
0.0
 10
42.468885
 20
16.471024
 30
0.0
 10
40.611250
 20
17.023536
 30
0.0
  0
SPLINE
  5
18c
100
AcDbEntity
  8
Layer_1
 62
7
100
AcDbSpline
 70
8
 71
3
 72
8
 73
4
 74
0
 40
0
 40
0
 40
0
 40
0
 40
1
 40
1
 40
1
 40
1
 10
40.611250
 20
17.023536
 30
0.0
 10
39.757629
 20
17.277429
 30
0.0
 10
38.631769
 20
18.212507
 30
0.0
 10
37.287846
 20
19.783765
 30
0.0
  0
SPLINE
  5
18d
100
AcDbEntity
  8
Layer_1
 62
7
100
AcDbSpline
 70
8
 71
3
 72
8
 73
4
 74
0
 40
0
 40
0
 40
0
 40
0
 40
1
 40
1
 40
1
 40
1
 10
37.287846
 20
19.783765
 30
0.0
 10
36.442577
 20
20.772020
 30
0.0
 10
36.546169
 20
20.388429
 30
0.0
 10
37.520886
 20
18.920874
 30
0.0
  0
SPLINE
  5
18e
100
AcDbEntity
  8
Layer_1
 62
7
100
AcDbSpline
 70
8
 71
3
 72
8
 73
4
 74
0
 40
0
 40
0
 40
0
 40
0
 40
1
 40
1
 40
1
 40
1
 10
37.520886
 20
18.920874
 30
0.0
 10
39.128477
 20
16.500440
 30
0.0
 10
39.629828
 20
16.198851
 30
0.0
 10
42.667662
 20
15.824786
 30
0.0
  0
SPLINE
  5
18f
100
AcDbEntity
  8
Layer_1
 62
7
100
AcDbSpline
 70
8
 71
3
 72
8
 73
4
 74
0
 40
0
 40
0
 40
0
 40
0
 40
1
 40
1
 40
1
 40
1
 10
42.667662
 20
15.824786
 30
0.0
 10
43.764908
 20
15.689675
 30
0.0
 10
45.450689
 20
15.251341
 30
0.0
 10
46.165778
 20
14.915209
 30
0.0
  0
SPLINE
  5
190
100
AcDbEntity
  8
Layer_1
 62
7
100
AcDbSpline
 70
8
 71
3
 72
8
 73
4
 74
0
 40
0
 40
0
 40
0
 40
0
 40
1
 40
1
 40
1
 40
1
 10
46.165778
 20
14.915209
 30
0.0
 10
47.399123
 20
14.335451
 30
0.0
 10
47.949302
 20
13.350439
 30
0.0
 10
47.746858
 20
12.084447
 30
0.0
  0
SPLINE
  5
191
100
AcDbEntity
  8
Layer_1
 62
7
100
AcDbSpline
 70
8
 71
3
 72
8
 73
4
 74
0
 40
0
 40
0
 40
0
 40
0
 40
1
 40
1
 40
1
 40
1
 10
47.746858
 20
12.084447
 30
0.0
 10
47.630193
 20
11.354846
 30
0.0
 10
47.383034
 20
10.888558
 30
0.0
 10
46.796136
 20
10.290783
 30
0.0
  0
SPLINE
  5
192
100
AcDbEntity
  8
Layer_1
 62
7
100
AcDbSpline
 70
8
 71
3
 72
8
 73
4
 74
0
 40
0
 40
0
 40
0
 40
0
 40
1
 40
1
 40
1
 40
1
 10
46.796136
 20
10.290783
 30
0.0
 10
46.198028
 20
9.681607
 30
0.0
 10
45.598975
 20
9.432009
 30
0.0
 10
44.734912
 20
9.432009
 30
0.0
  0
SPLINE
  5
193
100
AcDbEntity
  8
Layer_1
 62
7
100
AcDbSpline
 70
8
 71
3
 72
8
 73
4
 74
0
 40
0
 40
0
 40
0
 40
0
 40
1
 40
1
 40
1
 40
1
 10
44.734912
 20
9.432009
 30
0.0
 10
43.686253
 20
9.432009
 30
0.0
 10
42.904331
 20
9.909586
 30
0.0
 10
42.413911
 20
10.849611
 30
0.0
  0
SPLINE
  5
194
100
AcDbEntity
  8
Layer_1
 62
7
100
AcDbSpline
 70
8
 71
3
 72
8
 73
4
 74
0
 40
0
 40
0
 40
0
 40
0
 40
1
 40
1
 40
1
 40
1
 10
42.413911
 20
10.849611
 30
0.0
 10
42.194771
 20
11.269671
 30
0.0
 10
41.862996
 20
11.693682
 30
0.0
 10
41.676633
 20
11.791895
 30
0.0
  0
SPLINE
  5
195
100
AcDbEntity
  8
Layer_1
 62
7
100
AcDbSpline
 70
8
 71
3
 72
8
 73
4
 74
0
 40
0
 40
0
 40
0
 40
0
 40
1
 40
1
 40
1
 40
1
 10
41.676633
 20
11.791895
 30
0.0
 10
40.670139
 20
12.322275
 30
0.0
 10
40.959021
 20
13.800132
 30
0.0
 10
42.111459
 20
14.016314
 30
0.0
  0
SPLINE
  5
196
100
AcDbEntity
  8
Layer_1
 62
7
100
AcDbSpline
 70
8
 71
3
 72
8
 73
4
 74
0
 40
0
 40
0
 40
0
 40
0
 40
1
 40
1
 40
1
 40
1
 10
42.111459
 20
14.016314
 30
0.0
 10
42.664157
 20
14.120003
 30
0.0
 10
43.151394
 20
13.872296
 30
0.0
 10
43.529346
 20
13.295462
 30
0.0
  0
SPLINE
  5
197
100
AcDbEntity
  8
Layer_1
 62
7
100
AcDbSpline
 70
8
 71
3
 72
8
 73
4
 74
0
 40
0
 40
0
 40
0
 40
0
 40
1
 40
1
 40
1
 40
1
 10
43.529346
 20
13.295462
 30
0.0
 10
43.745920
 20
12.964923
 30
0.0
 10
43.745113
 20
12.904217
 30
0.0
 10
43.517436
 20
12.399322
 30
0.0
  0
SPLINE
  5
198
100
AcDbEntity
  8
Layer_1
 62
7
100
AcDbSpline
 70
8
 71
3
 72
8
 73
4
 74
0
 40
0
 40
0
 40
0
 40
0
 40
1
 40
1
 40
1
 40
1
 10
43.517436
 20
12.399322
 30
0.0
 10
43.212741
 20
11.723654
 30
0.0
 10
43.372047
 20
11.352785
 30
0.0
 10
44.065266
 20
11.123960
 30
0.0
  0
SPLINE
  5
199
100
AcDbEntity
  8
Layer_1
 62
7
100
AcDbSpline
 70
8
 71
3
 72
8
 73
4
 74
0
 40
0
 40
0
 40
0
 40
0
 40
1
 40
1
 40
1
 40
1
 10
44.065266
 20
11.123960
 30
0.0
 10
44.666436
 20
10.925586
 30
0.0
 10
45.221438
 20
11.171317
 30
0.0
 10
45.756460
 20
11.872752
 30
0.0
  0
SPLINE
  5
19a
100
AcDbEntity
  8
Layer_1
 62
7
100
AcDbSpline
 70
8
 71
3
 72
8
 73
4
 74
0
 40
0
 40
0
 40
0
 40
0
 40
1
 40
1
 40
1
 40
1
 10
45.756460
 20
11.872752
 30
0.0
 10
46.679062
 20
13.082356
 30
0.0
 10
45.743393
 20
13.920754
 30
0.0
 10
43.140661
 20
14.216607
 30
0.0
  0
SPLINE
  5
19b
100
AcDbEntity
  8
Layer_1
 62
7
100
AcDbSpline
 70
8
 71
3
 72
8
 73
4
 74
0
 40
0
 40
0
 40
0
 40
0
 40
1
 40
1
 40
1
 40
1
 10
43.140661
 20
14.216607
 30
0.0
 10
40.520273
 20
14.514493
 30
0.0
 10
39.697688
 20
14.675388
 30
0.0
 10
38.867929
 20
15.052437
 30
0.0
  0
SPLINE
  5
19c
100
AcDbEntity
  8
Layer_1
 62
7
100
AcDbSpline
 70
8
 71
3
 72
8
 73
4
 74
0
 40
0
 40
0
 40
0
 40
0
 40
1
 40
1
 40
1
 40
1
 10
38.867929
 20
15.052437
 30
0.0
 10
37.823783
 20
15.526906
 30
0.0
 10
36.775991
 20
16.624039
 30
0.0
 10
35.720994
 20
18.347562
 30
0.0
  0
SPLINE
  5
19d
100
AcDbEntity
  8
Layer_1
 62
7
100
AcDbSpline
 70
8
 71
3
 72
8
 73
4
 74
0
 40
0
 40
0
 40
0
 40
0
 40
1
 40
1
 40
1
 40
1
 10
35.720994
 20
18.347562
 30
0.0
 10
35.306014
 20
19.025505
 30
0.0
 10
34.932679
 20
19.546388
 30
0.0
 10
34.891368
 20
19.505071
 30
0.0
  0
SPLINE
  5
19e
100
AcDbEntity
  8
Layer_1
 62
7
100
AcDbSpline
 70
8
 71
3
 72
8
 73
4
 74
0
 40
0
 40
0
 40
0
 40
0
 40
1
 40
1
 40
1
 40
1
 10
34.891368
 20
19.505071
 30
0.0
 10
34.850056
 20
19.463759
 30
0.0
 10
34.896391
 20
18.961497
 30
0.0
 10
34.994328
 20
18.388933
 30
0.0
  0
SPLINE
  5
19f
100
AcDbEntity
  8
Layer_1
 62
7
100
AcDbSpline
 70
8
 71
3
 72
8
 73
4
 74
0
 40
0
 40
0
 40
0
 40
0
 40
1
 40
1
 40
1
 40
1
 10
34.994328
 20
18.388933
 30
0.0
 10
35.138007
 20
17.548966
 30
0.0
 10
35.137923
 20
17.018357
 30
0.0
 10
34.994046
 20
15.641578
 30
0.0
  0
SPLINE
  5
1a0
100
AcDbEntity
  8
Layer_1
 62
7
100
AcDbSpline
 70
8
 71
3
 72
8
 73
4
 74
0
 40
0
 40
0
 40
0
 40
0
 40
1
 40
1
 40
1
 40
1
 10
34.994046
 20
15.641578
 30
0.0
 10
34.584279
 20
11.724529
 30
0.0
 10
35.342020
 20
9.575068
 30
0.0
 10
37.133327
 20
9.573261
 30
0.0
  0
SPLINE
  5
1a1
100
AcDbEntity
  8
Layer_1
 62
7
100
AcDbSpline
 70
8
 71
3
 72
8
 73
4
 74
0
 40
0
 40
0
 40
0
 40
0
 40
1
 40
1
 40
1
 40
1
 10
37.133327
 20
9.573261
 30
0.0
 10
37.486915
 20
9.573261
 30
0.0
 10
37.789426
 20
9.689847
 30
0.0
 10
38.090639
 20
9.943283
 30
0.0
  0
SPLINE
  5
1a2
100
AcDbEntity
  8
Layer_1
 62
7
100
AcDbSpline
 70
8
 71
3
 72
8
 73
4
 74
0
 40
0
 40
0
 40
0
 40
0
 40
1
 40
1
 40
1
 40
1
 10
38.090639
 20
9.943283
 30
0.0
 10
38.457832
 20
10.252260
 30
0.0
 10
38.523934
 20
10.398395
 30
0.0
 10
38.488448
 20
10.822857
 30
0.0
  0
SPLINE
  5
1a3
100
AcDbEntity
  8
Layer_1
 62
7
100
AcDbSpline
 70
8
 71
3
 72
8
 73
4
 74
0
 40
0
 40
0
 40
0
 40
0
 40
1
 40
1
 40
1
 40
1
 10
38.488448
 20
10.822857
 30
0.0
 10
38.451344
 20
11.266623
 30
0.0
 10
38.371997
 20
11.365316
 30
0.0
 10
37.869662
 20
11.592477
 30
0.0
  0
SPLINE
  5
1a4
100
AcDbEntity
  8
Layer_1
 62
7
100
AcDbSpline
 70
8
 71
3
 72
8
 73
4
 74
0
 40
0
 40
0
 40
0
 40
0
 40
1
 40
1
 40
1
 40
1
 10
37.869662
 20
11.592477
 30
0.0
 10
37.295816
 20
11.852037
 30
0.0
 10
36.827480
 20
12.429379
 30
0.0
 10
36.827480
 20
12.877293
 30
0.0
  0
SPLINE
  5
1a5
100
AcDbEntity
  8
Layer_1
 62
7
100
AcDbSpline
 70
8
 71
3
 72
8
 73
4
 74
0
 40
0
 40
0
 40
0
 40
0
 40
1
 40
1
 40
1
 40
1
 10
36.827480
 20
12.877293
 30
0.0
 10
36.827480
 20
13.006749
 30
0.0
 10
37.012595
 20
13.297776
 30
0.0
 10
37.238847
 20
13.524034
 30
0.0
  0
SPLINE
  5
1a6
100
AcDbEntity
  8
Layer_1
 62
7
100
AcDbSpline
 70
8
 71
3
 72
8
 73
4
 74
0
 40
0
 40
0
 40
0
 40
0
 40
1
 40
1
 40
1
 40
1
 10
37.238847
 20
13.524034
 30
0.0
 10
37.768270
 20
14.053455
 30
0.0
 10
38.471467
 20
14.081507
 30
0.0
 10
39.036142
 20
13.595690
 30
0.0
  0
SPLINE
  5
1a7
100
AcDbEntity
  8
Layer_1
 62
7
100
AcDbSpline
 70
8
 71
3
 72
8
 73
4
 74
0
 40
0
 40
0
 40
0
 40
0
 40
1
 40
1
 40
1
 40
1
 10
39.036142
 20
13.595690
 30
0.0
 10
39.371851
 20
13.306892
 30
0.0
 10
39.433254
 20
13.143514
 30
0.0
 10
39.446062
 20
12.505042
 30
0.0
  0
SPLINE
  5
1a8
100
AcDbEntity
  8
Layer_1
 62
7
100
AcDbSpline
 70
8
 71
3
 72
8
 73
4
 74
0
 40
0
 40
0
 40
0
 40
0
 40
1
 40
1
 40
1
 40
1
 10
39.446062
 20
12.505042
 30
0.0
 10
39.454359
 20
12.092010
 30
0.0
 10
39.570874
 20
11.469089
 30
0.0
 10
39.705015
 20
11.120799
 30
0.0
  0
SPLINE
  5
1a9
100
AcDbEntity
  8
Layer_1
 62
7
100
AcDbSpline
 70
8
 71
3
 72
8
 73
4
 74
0
 40
0
 40
0
 40
0
 40
0
 40
1
 40
1
 40
1
 40
1
 10
39.705015
 20
11.120799
 30
0.0
 10
39.991772
 20
10.376184
 30
0.0
 10
39.927157
 20
9.556667
 30
0.0
 10
39.539539
 20
9.021997
 30
0.0
  0
SPLINE
  5
1aa
100
AcDbEntity
  8
Layer_1
 62
7
100
AcDbSpline
 70
8
 71
3
 72
8
 73
4
 74
0
 40
0
 40
0
 40
0
 40
0
 40
1
 40
1
 40
1
 40
1
 10
39.539539
 20
9.021997
 30
0.0
 10
39.156482
 20
8.493620
 30
0.0
 10
38.028524
 20
7.977718
 30
0.0
 10
37.111282
 20
7.911396
 30
0.0
  0
SPLINE
  5
1ab
100
AcDbEntity
  8
Layer_1
 62
7
100
AcDbSpline
 70
8
 71
3
 72
8
 73
4
 74
0
 40
0
 40
0
 40
0
 40
0
 40
1
 40
1
 40
1
 40
1
 10
37.111282
 20
7.911396
 30
0.0
 10
35.530564
 20
7.797039
 30
0.0
 10
34.088640
 20
8.953022
 30
0.0
 10
33.376537
 20
10.905491
 30
0.0
  0
SPLINE
  5
1ac
100
AcDbEntity
  8
Layer_1
 62
7
100
AcDbSpline
 70
8
 71
3
 72
8
 73
4
 74
0
 40
0
 40
0
 40
0
 40
0
 40
1
 40
1
 40
1
 40
1
 10
33.376537
 20
10.905491
 30
0.0
 10
32.967399
 20
12.027268
 30
0.0
 10
32.937899
 20
12.500781
 30
0.0
 10
33.029943
 20
16.468552
 30
0.0
  0
SPLINE
  5
1ad
100
AcDbEntity
  8
Layer_1
 62
7
100
AcDbSpline
 70
8
 71
3
 72
8
 73
4
 74
0
 40
0
 40
0
 40
0
 40
0
 40
1
 40
1
 40
1
 40
1
 10
33.029943
 20
16.468552
 30
0.0
 10
33.057234
 20
17.644673
 30
0.0
 10
33.001833
 20
18.336942
 30
0.0
 10
32.827259
 20
19.001705
 30
0.0
  0
SPLINE
  5
1ae
100
AcDbEntity
  8
Layer_1
 62
7
100
AcDbSpline
 70
8
 71
3
 72
8
 73
4
 74
0
 40
0
 40
0
 40
0
 40
0
 40
1
 40
1
 40
1
 40
1
 10
32.827259
 20
19.001705
 30
0.0
 10
32.695134
 20
19.504820
 30
0.0
 10
32.536802
 20
20.106444
 30
0.0
 10
32.475407
 20
20.338648
 30
0.0
  0
SPLINE
  5
1af
100
AcDbEntity
  8
Layer_1
 62
7
100
AcDbSpline
 70
8
 71
3
 72
8
 73
4
 74
0
 40
0
 40
0
 40
0
 40
0
 40
1
 40
1
 40
1
 40
1
 10
32.475407
 20
20.338648
 30
0.0
 10
32.372918
 20
20.726294
 30
0.0
 10
32.164658
 20
21.260592
 30
0.0
 10
31.721157
 20
22.273696
 30
0.0
  0
SPLINE
  5
1b0
100
AcDbEntity
  8
Layer_1
 62
7
100
AcDbSpline
 70
8
 71
3
 72
8
 73
4
 74
0
 40
0
 40
0
 40
0
 40
0
 40
1
 40
1
 40
1
 40
1
 10
31.721157
 20
22.273696
 30
0.0
 10
31.442510
 20
22.910209
 30
0.0
 10
31.299494
 20
22.714745
 30
0.0
 10
31.412236
 20
21.851503
 30
0.0
  0
SPLINE
  5
1b1
100
AcDbEntity
  8
Layer_1
 62
7
100
AcDbSpline
 70
8
 71
3
 72
8
 73
4
 74
0
 40
0
 40
0
 40
0
 40
0
 40
1
 40
1
 40
1
 40
1
 10
31.412236
 20
21.851503
 30
0.0
 10
31.470363
 20
21.406441
 30
0.0
 10
31.529314
 20
19.617401
 30
0.0
 10
31.543241
 20
17.875861
 30
0.0
  0
SPLINE
  5
1b2
100
AcDbEntity
  8
Layer_1
 62
7
100
AcDbSpline
 70
8
 71
3
 72
8
 73
4
 74
0
 40
0
 40
0
 40
0
 40
0
 40
1
 40
1
 40
1
 40
1
 10
31.543241
 20
17.875861
 30
0.0
 10
31.557889
 20
16.039941
 30
0.0
 10
31.635105
 20
14.472893
 30
0.0
 10
31.726923
 20
14.146503
 30
0.0
  0
SPLINE
  5
1b3
100
AcDbEntity
  8
Layer_1
 62
7
100
AcDbSpline
 70
8
 71
3
 72
8
 73
4
 74
0
 40
0
 40
0
 40
0
 40
0
 40
1
 40
1
 40
1
 40
1
 10
31.726923
 20
14.146503
 30
0.0
 10
31.814025
 20
13.836877
 30
0.0
 10
31.959632
 20
13.266929
 30
0.0
 10
32.050499
 20
12.879918
 30
0.0
  0
SPLINE
  5
1b4
100
AcDbEntity
  8
Layer_1
 62
7
100
AcDbSpline
 70
8
 71
3
 72
8
 73
4
 74
0
 40
0
 40
0
 40
0
 40
0
 40
1
 40
1
 40
1
 40
1
 10
32.050499
 20
12.879918
 30
0.0
 10
32.451782
 20
11.170724
 30
0.0
 10
33.318117
 20
8.610150
 30
0.0
 10
34.631774
 20
5.250577
 30
0.0
  0
SPLINE
  5
1b5
100
AcDbEntity
  8
Layer_1
 62
7
100
AcDbSpline
 70
8
 71
3
 72
8
 73
4
 74
0
 40
0
 40
0
 40
0
 40
0
 40
1
 40
1
 40
1
 40
1
 10
34.631774
 20
5.250577
 30
0.0
 10
35.517043
 20
2.986562
 30
0.0
 10
35.262038
 20
1.689355
 30
0.0
 10
33.796269
 20
1.000366
 30
0.0
  0
SPLINE
  5
1b6
100
AcDbEntity
  8
Layer_1
 62
7
100
AcDbSpline
 70
8
 71
3
 72
8
 73
4
 74
0
 40
0
 40
0
 40
0
 40
0
 40
1
 40
1
 40
1
 40
1
 10
33.796269
 20
1.000366
 30
0.0
 10
33.020404
 20
0.635651
 30
0.0
 10
31.688622
 20
0.454831
 30
0.0
 10
30.697921
 20
0.579658
 30
0.0
  0
LINE
  5
1b7
100
AcDbEntity
  8
Layer_1
 62
7
100
AcDbLine
 10
30.697921
 20
0.579658
 30
0.0
 11
30.697785
 21
0.579658
 31
0.0
  0
SPLINE
  5
1b8
100
AcDbEntity
  8
Layer_1
 62
7
100
AcDbSpline
 70
8
 71
3
 72
8
 73
4
 74
0
 40
0
 40
0
 40
0
 40
0
 40
1
 40
1
 40
1
 40
1
 10
33.449808
 20
1.451442
 30
0.0
 10
34.247760
 20
1.824596
 30
0.0
 10
34.352521
 20
1.930458
 30
0.0
 10
34.567131
 20
2.580754
 30
0.0
  0
SPLINE
  5
1b9
100
AcDbEntity
  8
Layer_1
 62
7
100
AcDbSpline
 70
8
 71
3
 72
8
 73
4
 74
0
 40
0
 40
0
 40
0
 40
0
 40
1
 40
1
 40
1
 40
1
 10
34.567131
 20
2.580754
 30
0.0
 10
34.777974
 20
3.219621
 30
0.0
 10
34.600250
 20
4.121575
 30
0.0
 10
34.041032
 20
5.250746
 30
0.0
  0
SPLINE
  5
1ba
100
AcDbEntity
  8
Layer_1
 62
7
100
AcDbSpline
 70
8
 71
3
 72
8
 73
4
 74
0
 40
0
 40
0
 40
0
 40
0
 40
1
 40
1
 40
1
 40
1
 10
34.041032
 20
5.250746
 30
0.0
 10
33.841284
 20
5.654098
 30
0.0
 10
33.692849
 20
6.040545
 30
0.0
 10
33.711176
 20
6.109520
 30
0.0
  0
SPLINE
  5
1bb
100
AcDbEntity
  8
Layer_1
 62
7
100
AcDbSpline
 70
8
 71
3
 72
8
 73
4
 74
0
 40
0
 40
0
 40
0
 40
0
 40
1
 40
1
 40
1
 40
1
 10
33.711176
 20
6.109520
 30
0.0
 10
33.729493
 20
6.178467
 30
0.0
 10
33.651893
 20
6.431789
 30
0.0
 10
33.538705
 20
6.672412
 30
0.0
  0
SPLINE
  5
1bc
100
AcDbEntity
  8
Layer_1
 62
7
100
AcDbSpline
 70
8
 71
3
 72
8
 73
4
 74
0
 40
0
 40
0
 40
0
 40
0
 40
1
 40
1
 40
1
 40
1
 10
33.538705
 20
6.672412
 30
0.0
 10
33.034763
 20
7.743812
 30
0.0
 10
31.625594
 20
12.076403
 30
0.0
 10
31.622086
 20
12.565184
 30
0.0
  0
SPLINE
  5
1bd
100
AcDbEntity
  8
Layer_1
 62
7
100
AcDbSpline
 70
8
 71
3
 72
8
 73
4
 74
0
 40
0
 40
0
 40
0
 40
0
 40
1
 40
1
 40
1
 40
1
 10
31.622086
 20
12.565184
 30
0.0
 10
31.620957
 20
12.701695
 30
0.0
 10
31.563138
 20
12.923352
 30
0.0
 10
31.493265
 20
13.057746
 30
0.0
  0
SPLINE
  5
1be
100
AcDbEntity
  8
Layer_1
 62
7
100
AcDbSpline
 70
8
 71
3
 72
8
 73
4
 74
0
 40
0
 40
0
 40
0
 40
0
 40
1
 40
1
 40
1
 40
1
 10
31.493265
 20
13.057746
 30
0.0
 10
31.178923
 20
13.662379
 30
0.0
 10
31.010688
 20
15.393576
 30
0.0
 10
31.038721
 20
17.735131
 30
0.0
  0
SPLINE
  5
1bf
100
AcDbEntity
  8
Layer_1
 62
7
100
AcDbSpline
 70
8
 71
3
 72
8
 73
4
 74
0
 40
0
 40
0
 40
0
 40
0
 40
1
 40
1
 40
1
 40
1
 10
31.038721
 20
17.735131
 30
0.0
 10
31.057827
 20
19.329545
 30
0.0
 10
30.986008
 20
20.886069
 30
0.0
 10
30.835089
 20
22.149578
 30
0.0
  0
SPLINE
  5
1c0
100
AcDbEntity
  8
Layer_1
 62
7
100
AcDbSpline
 70
8
 71
3
 72
8
 73
4
 74
0
 40
0
 40
0
 40
0
 40
0
 40
1
 40
1
 40
1
 40
1
 10
30.835089
 20
22.149578
 30
0.0
 10
30.638651
 20
23.794168
 30
0.0
 10
30.632265
 20
24.120750
 30
0.0
 10
30.794497
 20
24.225249
 30
0.0
  0
SPLINE
  5
1c1
100
AcDbEntity
  8
Layer_1
 62
7
100
AcDbSpline
 70
8
 71
3
 72
8
 73
4
 74
0
 40
0
 40
0
 40
0
 40
0
 40
1
 40
1
 40
1
 40
1
 10
30.794497
 20
24.225249
 30
0.0
 10
30.927207
 20
24.310734
 30
0.0
 10
31.085392
 20
24.237554
 30
0.0
 10
31.303663
 20
23.989695
 30
0.0
  0
SPLINE
  5
1c2
100
AcDbEntity
  8
Layer_1
 62
7
100
AcDbSpline
 70
8
 71
3
 72
8
 73
4
 74
0
 40
0
 40
0
 40
0
 40
0
 40
1
 40
1
 40
1
 40
1
 10
31.303663
 20
23.989695
 30
0.0
 10
31.477816
 20
23.791930
 30
0.0
 10
31.623881
 20
23.681152
 30
0.0
 10
31.628249
 20
23.743524
 30
0.0
  0
SPLINE
  5
1c3
100
AcDbEntity
  8
Layer_1
 62
7
100
AcDbSpline
 70
8
 71
3
 72
8
 73
4
 74
0
 40
0
 40
0
 40
0
 40
0
 40
1
 40
1
 40
1
 40
1
 10
31.628249
 20
23.743524
 30
0.0
 10
31.632624
 20
23.805886
 30
0.0
 10
31.711781
 20
23.659726
 30
0.0
 10
31.804164
 20
23.418717
 30
0.0
  0
SPLINE
  5
1c4
100
AcDbEntity
  8
Layer_1
 62
7
100
AcDbSpline
 70
8
 71
3
 72
8
 73
4
 74
0
 40
0
 40
0
 40
0
 40
0
 40
1
 40
1
 40
1
 40
1
 10
31.804164
 20
23.418717
 30
0.0
 10
31.896544
 20
23.177708
 30
0.0
 10
32.153787
 20
22.512755
 30
0.0
 10
32.375797
 20
21.941044
 30
0.0
  0
SPLINE
  5
1c5
100
AcDbEntity
  8
Layer_1
 62
7
100
AcDbSpline
 70
8
 71
3
 72
8
 73
4
 74
0
 40
0
 40
0
 40
0
 40
0
 40
1
 40
1
 40
1
 40
1
 10
32.375797
 20
21.941044
 30
0.0
 10
32.597812
 20
21.369332
 30
0.0
 10
32.828399
 20
20.774915
 30
0.0
 10
32.888211
 20
20.620108
 30
0.0
  0
SPLINE
  5
1c6
100
AcDbEntity
  8
Layer_1
 62
7
100
AcDbSpline
 70
8
 71
3
 72
8
 73
4
 74
0
 40
0
 40
0
 40
0
 40
0
 40
1
 40
1
 40
1
 40
1
 10
32.888211
 20
20.620108
 30
0.0
 10
33.493614
 20
19.053151
 30
0.0
 10
33.755773
 20
16.379121
 30
0.0
 10
33.477604
 20
14.608219
 30
0.0
  0
SPLINE
  5
1c7
100
AcDbEntity
  8
Layer_1
 62
7
100
AcDbSpline
 70
8
 71
3
 72
8
 73
4
 74
0
 40
0
 40
0
 40
0
 40
0
 40
1
 40
1
 40
1
 40
1
 10
33.477604
 20
14.608219
 30
0.0
 10
33.094933
 20
12.171992
 30
0.0
 10
34.110456
 20
9.541878
 30
0.0
 10
35.759080
 20
8.699445
 30
0.0
  0
SPLINE
  5
1c8
100
AcDbEntity
  8
Layer_1
 62
7
100
AcDbSpline
 70
8
 71
3
 72
8
 73
4
 74
0
 40
0
 40
0
 40
0
 40
0
 40
1
 40
1
 40
1
 40
1
 10
35.759080
 20
8.699445
 30
0.0
 10
36.942079
 20
8.094925
 30
0.0
 10
38.734032
 20
8.552125
 30
0.0
 10
39.238326
 20
9.587203
 30
0.0
  0
SPLINE
  5
1c9
100
AcDbEntity
  8
Layer_1
 62
7
100
AcDbSpline
 70
8
 71
3
 72
8
 73
4
 74
0
 40
0
 40
0
 40
0
 40
0
 40
1
 40
1
 40
1
 40
1
 10
39.238326
 20
9.587203
 30
0.0
 10
39.364641
 20
9.846424
 30
0.0
 10
39.449090
 20
10.123397
 30
0.0
 10
39.425996
 20
10.202645
 30
0.0
  0
SPLINE
  5
1ca
100
AcDbEntity
  8
Layer_1
 62
7
100
AcDbSpline
 70
8
 71
3
 72
8
 73
4
 74
0
 40
0
 40
0
 40
0
 40
0
 40
1
 40
1
 40
1
 40
1
 10
39.425996
 20
10.202645
 30
0.0
 10
39.402882
 20
10.281921
 30
0.0
 10
39.345845
 20
10.520907
 30
0.0
 10
39.299205
 20
10.733759
 30
0.0
  0
SPLINE
  5
1cb
100
AcDbEntity
  8
Layer_1
 62
7
100
AcDbSpline
 70
8
 71
3
 72
8
 73
4
 74
0
 40
0
 40
0
 40
0
 40
0
 40
1
 40
1
 40
1
 40
1
 10
39.299205
 20
10.733759
 30
0.0
 10
39.252565
 20
10.946639
 30
0.0
 10
39.163252
 20
11.120799
 30
0.0
 10
39.100729
 20
11.120799
 30
0.0
  0
SPLINE
  5
1cc
100
AcDbEntity
  8
Layer_1
 62
7
100
AcDbSpline
 70
8
 71
3
 72
8
 73
4
 74
0
 40
0
 40
0
 40
0
 40
0
 40
1
 40
1
 40
1
 40
1
 10
39.100729
 20
11.120799
 30
0.0
 10
39.038205
 20
11.120799
 30
0.0
 10
39.010296
 20
10.946639
 30
0.0
 10
39.038705
 20
10.733759
 30
0.0
  0
SPLINE
  5
1cd
100
AcDbEntity
  8
Layer_1
 62
7
100
AcDbSpline
 70
8
 71
3
 72
8
 73
4
 74
0
 40
0
 40
0
 40
0
 40
0
 40
1
 40
1
 40
1
 40
1
 10
39.038705
 20
10.733759
 30
0.0
 10
39.105086
 20
10.236399
 30
0.0
 10
38.662858
 20
9.525820
 30
0.0
 10
38.117642
 20
9.253842
 30
0.0
  0
SPLINE
  5
1ce
100
AcDbEntity
  8
Layer_1
 62
7
100
AcDbSpline
 70
8
 71
3
 72
8
 73
4
 74
0
 40
0
 40
0
 40
0
 40
0
 40
1
 40
1
 40
1
 40
1
 10
38.117642
 20
9.253842
 30
0.0
 10
37.864714
 20
9.127661
 30
0.0
 10
37.407300
 20
9.058657
 30
0.0
 10
36.977585
 20
9.081856
 30
0.0
  0
SPLINE
  5
1cf
100
AcDbEntity
  8
Layer_1
 62
7
100
AcDbSpline
 70
8
 71
3
 72
8
 73
4
 74
0
 40
0
 40
0
 40
0
 40
0
 40
1
 40
1
 40
1
 40
1
 10
36.977585
 20
9.081856
 30
0.0
 10
36.038127
 20
9.132543
 30
0.0
 10
35.424090
 20
9.600581
 30
0.0
 10
34.904903
 20
10.661764
 30
0.0
  0
SPLINE
  5
1d0
100
AcDbEntity
  8
Layer_1
 62
7
100
AcDbSpline
 70
8
 71
3
 72
8
 73
4
 74
0
 40
0
 40
0
 40
0
 40
0
 40
1
 40
1
 40
1
 40
1
 10
34.904903
 20
10.661764
 30
0.0
 10
34.440080
 20
11.611837
 30
0.0
 10
34.297564
 20
13.090541
 30
0.0
 10
34.474105
 20
15.131614
 30
0.0
  0
SPLINE
  5
1d1
100
AcDbEntity
  8
Layer_1
 62
7
100
AcDbSpline
 70
8
 71
3
 72
8
 73
4
 74
0
 40
0
 40
0
 40
0
 40
0
 40
1
 40
1
 40
1
 40
1
 10
34.474105
 20
15.131614
 30
0.0
 10
34.618916
 20
16.805824
 30
0.0
 10
34.469364
 20
18.902309
 30
0.0
 10
34.143755
 20
19.762412
 30
0.0
  0
SPLINE
  5
1d2
100
AcDbEntity
  8
Layer_1
 62
7
100
AcDbSpline
 70
8
 71
3
 72
8
 73
4
 74
0
 40
0
 40
0
 40
0
 40
0
 40
1
 40
1
 40
1
 40
1
 10
34.143755
 20
19.762412
 30
0.0
 10
34.000022
 20
20.142100
 30
0.0
 10
33.915480
 20
20.506240
 30
0.0
 10
33.955880
 20
20.571614
 30
0.0
  0
SPLINE
  5
1d3
100
AcDbEntity
  8
Layer_1
 62
7
100
AcDbSpline
 70
8
 71
3
 72
8
 73
4
 74
0
 40
0
 40
0
 40
0
 40
0
 40
1
 40
1
 40
1
 40
1
 10
33.955880
 20
20.571614
 30
0.0
 10
33.996283
 20
20.636988
 30
0.0
 10
33.970527
 20
20.690475
 30
0.0
 10
33.898716
 20
20.690475
 30
0.0
  0
SPLINE
  5
1d4
100
AcDbEntity
  8
Layer_1
 62
7
100
AcDbSpline
 70
8
 71
3
 72
8
 73
4
 74
0
 40
0
 40
0
 40
0
 40
0
 40
1
 40
1
 40
1
 40
1
 10
33.898716
 20
20.690475
 30
0.0
 10
33.826873
 20
20.690475
 30
0.0
 10
33.733006
 20
20.906708
 30
0.0
 10
33.690120
 20
21.170989
 30
0.0
  0
SPLINE
  5
1d5
100
AcDbEntity
  8
Layer_1
 62
7
100
AcDbSpline
 70
8
 71
3
 72
8
 73
4
 74
0
 40
0
 40
0
 40
0
 40
0
 40
1
 40
1
 40
1
 40
1
 10
33.690120
 20
21.170989
 30
0.0
 10
33.647230
 20
21.435276
 30
0.0
 10
33.309001
 20
22.257914
 30
0.0
 10
32.938497
 20
22.999081
 30
0.0
  0
SPLINE
  5
1d6
100
AcDbEntity
  8
Layer_1
 62
7
100
AcDbSpline
 70
8
 71
3
 72
8
 73
4
 74
0
 40
0
 40
0
 40
0
 40
0
 40
1
 40
1
 40
1
 40
1
 10
32.938497
 20
22.999081
 30
0.0
 10
32.424932
 20
24.026434
 30
0.0
 10
32.303901
 20
24.385709
 30
0.0
 10
32.429173
 20
24.510979
 30
0.0
  0
SPLINE
  5
1d7
100
AcDbEntity
  8
Layer_1
 62
7
100
AcDbSpline
 70
8
 71
3
 72
8
 73
4
 74
0
 40
0
 40
0
 40
0
 40
0
 40
1
 40
1
 40
1
 40
1
 10
32.429173
 20
24.510979
 30
0.0
 10
32.675218
 20
24.757023
 30
0.0
 10
32.927380
 20
24.485889
 30
0.0
 10
33.468612
 20
23.393297
 30
0.0
  0
SPLINE
  5
1d8
100
AcDbEntity
  8
Layer_1
 62
7
100
AcDbSpline
 70
8
 71
3
 72
8
 73
4
 74
0
 40
0
 40
0
 40
0
 40
0
 40
1
 40
1
 40
1
 40
1
 10
33.468612
 20
23.393297
 30
0.0
 10
33.725719
 20
22.874271
 30
0.0
 10
34.279428
 20
21.847986
 30
0.0
 10
34.699073
 20
21.112668
 30
0.0
  0
SPLINE
  5
1d9
100
AcDbEntity
  8
Layer_1
 62
7
100
AcDbSpline
 70
8
 71
3
 72
8
 73
4
 74
0
 40
0
 40
0
 40
0
 40
0
 40
1
 40
1
 40
1
 40
1
 10
34.699073
 20
21.112668
 30
0.0
 10
35.118715
 20
20.377349
 30
0.0
 10
35.550876
 20
19.617404
 30
0.0
 10
35.659430
 20
19.423901
 30
0.0
  0
SPLINE
  5
1da
100
AcDbEntity
  8
Layer_1
 62
7
100
AcDbSpline
 70
8
 71
3
 72
8
 73
4
 74
0
 40
0
 40
0
 40
0
 40
0
 40
1
 40
1
 40
1
 40
1
 10
35.659430
 20
19.423901
 30
0.0
 10
36.541402
 20
17.851711
 30
0.0
 10
37.664074
 20
16.368984
 30
0.0
 10
38.309245
 20
15.924252
 30
0.0
  0
SPLINE
  5
1db
100
AcDbEntity
  8
Layer_1
 62
7
100
AcDbSpline
 70
8
 71
3
 72
8
 73
4
 74
0
 40
0
 40
0
 40
0
 40
0
 40
1
 40
1
 40
1
 40
1
 10
38.309245
 20
15.924252
 30
0.0
 10
39.029567
 20
15.427719
 30
0.0
 10
40.346356
 20
15.057028
 30
0.0
 10
41.893648
 20
14.915206
 30
0.0
  0
SPLINE
  5
1dc
100
AcDbEntity
  8
Layer_1
 62
7
100
AcDbSpline
 70
8
 71
3
 72
8
 73
4
 74
0
 40
0
 40
0
 40
0
 40
0
 40
1
 40
1
 40
1
 40
1
 10
41.893648
 20
14.915206
 30
0.0
 10
44.704076
 20
14.657608
 30
0.0
 10
45.894902
 20
14.262271
 30
0.0
 10
46.390453
 20
13.422377
 30
0.0
  0
SPLINE
  5
1dd
100
AcDbEntity
  8
Layer_1
 62
7
100
AcDbSpline
 70
8
 71
3
 72
8
 73
4
 74
0
 40
0
 40
0
 40
0
 40
0
 40
1
 40
1
 40
1
 40
1
 10
46.390453
 20
13.422377
 30
0.0
 10
46.759221
 20
12.797368
 30
0.0
 10
46.752781
 20
12.440921
 30
0.0
 10
46.361130
 20
11.799938
 30
0.0
  0
SPLINE
  5
1de
100
AcDbEntity
  8
Layer_1
 62
7
100
AcDbSpline
 70
8
 71
3
 72
8
 73
4
 74
0
 40
0
 40
0
 40
0
 40
0
 40
1
 40
1
 40
1
 40
1
 10
46.361130
 20
11.799938
 30
0.0
 10
45.583642
 20
10.527455
 30
0.0
 10
44.127553
 20
10.114620
 30
0.0
 10
43.295483
 20
10.930779
 30
0.0
  0
SPLINE
  5
1df
100
AcDbEntity
  8
Layer_1
 62
7
100
AcDbSpline
 70
8
 71
3
 72
8
 73
4
 74
0
 40
0
 40
0
 40
0
 40
0
 40
1
 40
1
 40
1
 40
1
 10
43.295483
 20
10.930779
 30
0.0
 10
43.070588
 20
11.151392
 30
0.0
 10
42.884824
 20
11.411064
 30
0.0
 10
42.882673
 20
11.507810
 30
0.0
  0
SPLINE
  5
1e0
100
AcDbEntity
  8
Layer_1
 62
7
100
AcDbSpline
 70
8
 71
3
 72
8
 73
4
 74
0
 40
0
 40
0
 40
0
 40
0
 40
1
 40
1
 40
1
 40
1
 10
42.882673
 20
11.507810
 30
0.0
 10
42.880415
 20
11.604556
 30
0.0
 10
42.815437
 20
11.683719
 30
0.0
 10
42.738034
 20
11.683719
 30
0.0
  0
SPLINE
  5
1e1
100
AcDbEntity
  8
Layer_1
 62
7
100
AcDbSpline
 70
8
 71
3
 72
8
 73
4
 74
0
 40
0
 40
0
 40
0
 40
0
 40
1
 40
1
 40
1
 40
1
 10
42.738034
 20
11.683719
 30
0.0
 10
42.551226
 20
11.683719
 30
0.0
 10
42.560090
 20
11.600520
 30
0.0
 10
42.795029
 20
11.148993
 30
0.0
  0
SPLINE
  5
1e2
100
AcDbEntity
  8
Layer_1
 62
7
100
AcDbSpline
 70
8
 71
3
 72
8
 73
4
 74
0
 40
0
 40
0
 40
0
 40
0
 40
1
 40
1
 40
1
 40
1
 10
42.795029
 20
11.148993
 30
0.0
 10
43.271750
 20
10.232730
 30
0.0
 10
44.413613
 20
9.726113
 30
0.0
 10
45.402105
 20
9.992277
 30
0.0
  0
SPLINE
  5
1e3
100
AcDbEntity
  8
Layer_1
 62
7
100
AcDbSpline
 70
8
 71
3
 72
8
 73
4
 74
0
 40
0
 40
0
 40
0
 40
0
 40
1
 40
1
 40
1
 40
1
 10
45.402105
 20
9.992277
 30
0.0
 10
46.828498
 20
10.376381
 30
0.0
 10
47.776799
 20
12.653886
 30
0.0
 10
46.948688
 20
13.706660
 30
0.0
  0
SPLINE
  5
1e4
100
AcDbEntity
  8
Layer_1
 62
7
100
AcDbSpline
 70
8
 71
3
 72
8
 73
4
 74
0
 40
0
 40
0
 40
0
 40
0
 40
1
 40
1
 40
1
 40
1
 10
46.948688
 20
13.706660
 30
0.0
 10
46.787683
 20
13.911356
 30
0.0
 10
46.597697
 20
14.042815
 30
0.0
 10
46.526495
 20
13.998816
 30
0.0
  0
SPLINE
  5
1e5
100
AcDbEntity
  8
Layer_1
 62
7
100
AcDbSpline
 70
8
 71
3
 72
8
 73
4
 74
0
 40
0
 40
0
 40
0
 40
0
 40
1
 40
1
 40
1
 40
1
 10
46.526495
 20
13.998816
 30
0.0
 10
46.455293
 20
13.954790
 30
0.0
 10
46.397034
 20
14.001921
 30
0.0
 10
46.397034
 20
14.103831
 30
0.0
  0
SPLINE
  5
1e6
100
AcDbEntity
  8
Layer_1
 62
7
100
AcDbSpline
 70
8
 71
3
 72
8
 73
4
 74
0
 40
0
 40
0
 40
0
 40
0
 40
1
 40
1
 40
1
 40
1
 10
46.397034
 20
14.103831
 30
0.0
 10
46.397034
 20
14.316232
 30
0.0
 10
45.951992
 20
14.525245
 30
0.0
 10
44.848994
 20
14.830853
 30
0.0
  0
SPLINE
  5
1e7
100
AcDbEntity
  8
Layer_1
 62
7
100
AcDbSpline
 70
8
 71
3
 72
8
 73
4
 74
0
 40
0
 40
0
 40
0
 40
0
 40
1
 40
1
 40
1
 40
1
 10
44.848994
 20
14.830853
 30
0.0
 10
44.089645
 20
15.041255
 30
0.0
 10
41.774031
 20
15.469253
 30
0.0
 10
40.732623
 20
15.591690
 30
0.0
  0
SPLINE
  5
1e8
100
AcDbEntity
  8
Layer_1
 62
7
100
AcDbSpline
 70
8
 71
3
 72
8
 73
4
 74
0
 40
0
 40
0
 40
0
 40
0
 40
1
 40
1
 40
1
 40
1
 10
40.732623
 20
15.591690
 30
0.0
 10
40.442365
 20
15.625813
 30
0.0
 10
40.204884
 20
15.710409
 30
0.0
 10
40.204884
 20
15.779684
 30
0.0
  0
SPLINE
  5
1e9
100
AcDbEntity
  8
Layer_1
 62
7
100
AcDbSpline
 70
8
 71
3
 72
8
 73
4
 74
0
 40
0
 40
0
 40
0
 40
0
 40
1
 40
1
 40
1
 40
1
 10
40.204884
 20
15.779684
 30
0.0
 10
40.204884
 20
15.848955
 30
0.0
 10
40.069866
 20
15.905631
 30
0.0
 10
39.904848
 20
15.905631
 30
0.0
  0
SPLINE
  5
1ea
100
AcDbEntity
  8
Layer_1
 62
7
100
AcDbSpline
 70
8
 71
3
 72
8
 73
4
 74
0
 40
0
 40
0
 40
0
 40
0
 40
1
 40
1
 40
1
 40
1
 10
39.904848
 20
15.905631
 30
0.0
 10
38.810822
 20
15.905631
 30
0.0
 10
37.271043
 20
17.897922
 30
0.0
 10
35.282279
 20
21.886685
 30
0.0
  0
SPLINE
  5
1eb
100
AcDbEntity
  8
Layer_1
 62
7
100
AcDbSpline
 70
8
 71
3
 72
8
 73
4
 74
0
 40
0
 40
0
 40
0
 40
0
 40
1
 40
1
 40
1
 40
1
 10
35.282279
 20
21.886685
 30
0.0
 10
34.703402
 20
23.047716
 30
0.0
 10
34.180938
 20
24.018758
 30
0.0
 10
34.121251
 20
24.044559
 30
0.0
  0
SPLINE
  5
1ec
100
AcDbEntity
  8
Layer_1
 62
7
100
AcDbSpline
 70
8
 71
3
 72
8
 73
4
 74
0
 40
0
 40
0
 40
0
 40
0
 40
1
 40
1
 40
1
 40
1
 10
34.121251
 20
24.044559
 30
0.0
 10
34.061564
 20
24.070354
 30
0.0
 10
34.012728
 20
24.173430
 30
0.0
 10
34.012728
 20
24.273605
 30
0.0
  0
SPLINE
  5
1ed
100
AcDbEntity
  8
Layer_1
 62
7
100
AcDbSpline
 70
8
 71
3
 72
8
 73
4
 74
0
 40
0
 40
0
 40
0
 40
0
 40
1
 40
1
 40
1
 40
1
 10
34.012728
 20
24.273605
 30
0.0
 10
34.012728
 20
24.373779
 30
0.0
 10
33.914856
 20
24.536972
 30
0.0
 10
33.795228
 20
24.636249
 30
0.0
  0
SPLINE
  5
1ee
100
AcDbEntity
  8
Layer_1
 62
7
100
AcDbSpline
 70
8
 71
3
 72
8
 73
4
 74
0
 40
0
 40
0
 40
0
 40
0
 40
1
 40
1
 40
1
 40
1
 10
33.795228
 20
24.636249
 30
0.0
 10
33.675602
 20
24.735532
 30
0.0
 10
33.610812
 20
24.902977
 30
0.0
 10
33.651249
 20
25.008350
 30
0.0
  0
SPLINE
  5
1ef
100
AcDbEntity
  8
Layer_1
 62
7
100
AcDbSpline
 70
8
 71
3
 72
8
 73
4
 74
0
 40
0
 40
0
 40
0
 40
0
 40
1
 40
1
 40
1
 40
1
 10
33.651249
 20
25.008350
 30
0.0
 10
33.731849
 20
25.218397
 30
0.0
 10
32.881398
 20
26.409572
 30
0.0
 10
32.420196
 20
26.732612
 30
0.0
  0
SPLINE
  5
1f0
100
AcDbEntity
  8
Layer_1
 62
7
100
AcDbSpline
 70
8
 71
3
 72
8
 73
4
 74
0
 40
0
 40
0
 40
0
 40
0
 40
1
 40
1
 40
1
 40
1
 10
32.420196
 20
26.732612
 30
0.0
 10
32.214984
 20
26.876345
 30
0.0
 10
31.698458
 20
26.937864
 30
0.0
 10
30.644174
 20
26.944141
 30
0.0
  0
SPLINE
  5
1f1
100
AcDbEntity
  8
Layer_1
 62
7
100
AcDbSpline
 70
8
 71
3
 72
8
 73
4
 74
0
 40
0
 40
0
 40
0
 40
0
 40
1
 40
1
 40
1
 40
1
 10
30.644174
 20
26.944141
 30
0.0
 10
29.015650
 20
26.953821
 30
0.0
 10
28.274659
 20
27.196191
 30
0.0
 10
27.325485
 20
28.029576
 30
0.0
  0
SPLINE
  5
1f2
100
AcDbEntity
  8
Layer_1
 62
7
100
AcDbSpline
 70
8
 71
3
 72
8
 73
4
 74
0
 40
0
 40
0
 40
0
 40
0
 40
1
 40
1
 40
1
 40
1
 10
27.325485
 20
28.029576
 30
0.0
 10
26.884823
 20
28.416483
 30
0.0
 10
26.859929
 20
28.421300
 30
0.0
 10
26.424250
 20
28.203953
 30
0.0
  0
SPLINE
  5
1f3
100
AcDbEntity
  8
Layer_1
 62
7
100
AcDbSpline
 70
8
 71
3
 72
8
 73
4
 74
0
 40
0
 40
0
 40
0
 40
0
 40
1
 40
1
 40
1
 40
1
 10
26.424250
 20
28.203953
 30
0.0
 10
25.794637
 20
27.889859
 30
0.0
 10
24.377112
 20
27.780145
 30
0.0
 10
23.943928
 20
28.011982
 30
0.0
  0
SPLINE
  5
1f4
100
AcDbEntity
  8
Layer_1
 62
7
100
AcDbSpline
 70
8
 71
3
 72
8
 73
4
 74
0
 40
0
 40
0
 40
0
 40
0
 40
1
 40
1
 40
1
 40
1
 10
23.943928
 20
28.011982
 30
0.0
 10
23.754261
 20
28.113486
 30
0.0
 10
23.573937
 20
28.170055
 30
0.0
 10
23.543207
 20
28.137687
 30
0.0
  0
SPLINE
  5
1f5
100
AcDbEntity
  8
Layer_1
 62
7
100
AcDbSpline
 70
8
 71
3
 72
8
 73
4
 74
0
 40
0
 40
0
 40
0
 40
0
 40
1
 40
1
 40
1
 40
1
 10
23.543207
 20
28.137687
 30
0.0
 10
23.512477
 20
28.105322
 30
0.0
 10
22.974286
 20
27.080468
 30
0.0
 10
22.347228
 20
25.860235
 30
0.0
  0
SPLINE
  5
1f6
100
AcDbEntity
  8
Layer_1
 62
7
100
AcDbSpline
 70
8
 71
3
 72
8
 73
4
 74
0
 40
0
 40
0
 40
0
 40
0
 40
1
 40
1
 40
1
 40
1
 10
22.347228
 20
25.860235
 30
0.0
 10
21.301137
 20
23.824586
 30
0.0
 10
20.670444
 20
22.711682
 30
0.0
 10
20.340898
 20
22.319913
 30
0.0
  0
SPLINE
  5
1f7
100
AcDbEntity
  8
Layer_1
 62
7
100
AcDbSpline
 70
8
 71
3
 72
8
 73
4
 74
0
 40
0
 40
0
 40
0
 40
0
 40
1
 40
1
 40
1
 40
1
 10
20.340898
 20
22.319913
 30
0.0
 10
20.270684
 20
22.236440
 30
0.0
 10
20.009191
 20
21.875537
 30
0.0
 10
19.759802
 20
21.517899
 30
0.0
  0
SPLINE
  5
1f8
100
AcDbEntity
  8
Layer_1
 62
7
100
AcDbSpline
 70
8
 71
3
 72
8
 73
4
 74
0
 40
0
 40
0
 40
0
 40
0
 40
1
 40
1
 40
1
 40
1
 10
19.759802
 20
21.517899
 30
0.0
 10
19.265997
 20
20.809759
 30
0.0
 10
18.418637
 20
19.858571
 30
0.0
 10
18.082427
 20
19.634995
 30
0.0
  0
SPLINE
  5
1f9
100
AcDbEntity
  8
Layer_1
 62
7
100
AcDbSpline
 70
8
 71
3
 72
8
 73
4
 74
0
 40
0
 40
0
 40
0
 40
0
 40
1
 40
1
 40
1
 40
1
 10
18.082427
 20
19.634995
 30
0.0
 10
17.087948
 20
18.973674
 30
0.0
 10
16.688488
 20
18.744750
 30
0.0
 10
16.139927
 20
18.521772
 30
0.0
  0
SPLINE
  5
1fa
100
AcDbEntity
  8
Layer_1
 62
7
100
AcDbSpline
 70
8
 71
3
 72
8
 73
4
 74
0
 40
0
 40
0
 40
0
 40
0
 40
1
 40
1
 40
1
 40
1
 10
16.139927
 20
18.521772
 30
0.0
 10
15.791619
 20
18.380195
 30
0.0
 10
15.379981
 20
18.212005
 30
0.0
 10
15.225178
 20
18.148014
 30
0.0
  0
SPLINE
  5
1fb
100
AcDbEntity
  8
Layer_1
 62
7
100
AcDbSpline
 70
8
 71
3
 72
8
 73
4
 74
0
 40
0
 40
0
 40
0
 40
0
 40
1
 40
1
 40
1
 40
1
 10
15.225178
 20
18.148014
 30
0.0
 10
15.070373
 20
18.084025
 30
0.0
 10
14.595408
 20
17.890026
 30
0.0
 10
14.169697
 20
17.716899
 30
0.0
  0
SPLINE
  5
1fc
100
AcDbEntity
  8
Layer_1
 62
7
100
AcDbSpline
 70
8
 71
3
 72
8
 73
4
 74
0
 40
0
 40
0
 40
0
 40
0
 40
1
 40
1
 40
1
 40
1
 10
14.169697
 20
17.716899
 30
0.0
 10
12.708956
 20
17.122861
 30
0.0
 10
12.053783
 20
16.583899
 30
0.0
 10
11.381899
 20
15.423601
 30
0.0
  0
SPLINE
  5
1fd
100
AcDbEntity
  8
Layer_1
 62
7
100
AcDbSpline
 70
8
 71
3
 72
8
 73
4
 74
0
 40
0
 40
0
 40
0
 40
0
 40
1
 40
1
 40
1
 40
1
 10
11.381899
 20
15.423601
 30
0.0
 10
10.736498
 20
14.309035
 30
0.0
 10
11.017550
 20
12.589596
 30
0.0
 10
11.929948
 20
12.070731
 30
0.0
  0
SPLINE
  5
1fe
100
AcDbEntity
  8
Layer_1
 62
7
100
AcDbSpline
 70
8
 71
3
 72
8
 73
4
 74
0
 40
0
 40
0
 40
0
 40
0
 40
1
 40
1
 40
1
 40
1
 10
11.929948
 20
12.070731
 30
0.0
 10
12.712638
 20
11.625610
 30
0.0
 10
13.577743
 20
11.812187
 30
0.0
 10
14.295940
 20
12.581017
 30
0.0
  0
SPLINE
  5
1ff
100
AcDbEntity
  8
Layer_1
 62
7
100
AcDbSpline
 70
8
 71
3
 72
8
 73
4
 74
0
 40
0
 40
0
 40
0
 40
0
 40
1
 40
1
 40
1
 40
1
 10
14.295940
 20
12.581017
 30
0.0
 10
14.481476
 20
12.779616
 30
0.0
 10
14.845617
 20
13.012196
 30
0.0
 10
15.105141
 20
13.097850
 30
0.0
  0
SPLINE
  5
200
100
AcDbEntity
  8
Layer_1
 62
7
100
AcDbSpline
 70
8
 71
3
 72
8
 73
4
 74
0
 40
0
 40
0
 40
0
 40
0
 40
1
 40
1
 40
1
 40
1
 10
15.105141
 20
13.097850
 30
0.0
 10
15.486789
 20
13.223806
 30
0.0
 10
15.577004
 20
13.326817
 30
0.0
 10
15.577004
 20
13.636697
 30
0.0
  0
SPLINE
  5
201
100
AcDbEntity
  8
Layer_1
 62
7
100
AcDbSpline
 70
8
 71
3
 72
8
 73
4
 74
0
 40
0
 40
0
 40
0
 40
0
 40
1
 40
1
 40
1
 40
1
 10
15.577004
 20
13.636697
 30
0.0
 10
15.577004
 20
14.112721
 30
0.0
 10
15.344140
 20
14.357605
 30
0.0
 10
14.891469
 20
14.357605
 30
0.0
  0
SPLINE
  5
202
100
AcDbEntity
  8
Layer_1
 62
7
100
AcDbSpline
 70
8
 71
3
 72
8
 73
4
 74
0
 40
0
 40
0
 40
0
 40
0
 40
1
 40
1
 40
1
 40
1
 10
14.891469
 20
14.357605
 30
0.0
 10
14.234452
 20
14.357605
 30
0.0
 10
13.794990
 20
13.662746
 30
0.0
 10
14.197460
 20
13.260269
 30
0.0
  0
SPLINE
  5
203
100
AcDbEntity
  8
Layer_1
 62
7
100
AcDbSpline
 70
8
 71
3
 72
8
 73
4
 74
0
 40
0
 40
0
 40
0
 40
0
 40
1
 40
1
 40
1
 40
1
 10
14.197460
 20
13.260269
 30
0.0
 10
14.443549
 20
13.014171
 30
0.0
 10
13.917377
 20
12.366556
 30
0.0
 10
13.271680
 20
12.120797
 30
0.0
  0
SPLINE
  5
204
100
AcDbEntity
  8
Layer_1
 62
7
100
AcDbSpline
 70
8
 71
3
 72
8
 73
4
 74
0
 40
0
 40
0
 40
0
 40
0
 40
1
 40
1
 40
1
 40
1
 10
13.271680
 20
12.120797
 30
0.0
 10
12.808760
 20
11.944634
 30
0.0
 10
12.706394
 20
11.951012
 30
0.0
 10
12.275846
 20
12.182886
 30
0.0
  0
SPLINE
  5
205
100
AcDbEntity
  8
Layer_1
 62
7
100
AcDbSpline
 70
8
 71
3
 72
8
 73
4
 74
0
 40
0
 40
0
 40
0
 40
0
 40
1
 40
1
 40
1
 40
1
 10
12.275846
 20
12.182886
 30
0.0
 10
11.650948
 20
12.519407
 30
0.0
 10
11.434459
 20
12.949091
 30
0.0
 10
11.440070
 20
13.841760
 30
0.0
  0
SPLINE
  5
206
100
AcDbEntity
  8
Layer_1
 62
7
100
AcDbSpline
 70
8
 71
3
 72
8
 73
4
 74
0
 40
0
 40
0
 40
0
 40
0
 40
1
 40
1
 40
1
 40
1
 10
11.440070
 20
13.841760
 30
0.0
 10
11.445703
 20
14.737900
 30
0.0
 10
11.757320
 20
15.275437
 30
0.0
 10
12.700566
 20
16.016138
 30
0.0
  0
SPLINE
  5
207
100
AcDbEntity
  8
Layer_1
 62
7
100
AcDbSpline
 70
8
 71
3
 72
8
 73
4
 74
0
 40
0
 40
0
 40
0
 40
0
 40
1
 40
1
 40
1
 40
1
 10
12.700566
 20
16.016138
 30
0.0
 10
13.356111
 20
16.530917
 30
0.0
 10
15.049176
 20
17.312938
 30
0.0
 10
15.508119
 20
17.312938
 30
0.0
  0
SPLINE
  5
208
100
AcDbEntity
  8
Layer_1
 62
7
100
AcDbSpline
 70
8
 71
3
 72
8
 73
4
 74
0
 40
0
 40
0
 40
0
 40
0
 40
1
 40
1
 40
1
 40
1
 10
15.508119
 20
17.312938
 30
0.0
 10
15.623407
 20
17.312938
 30
0.0
 10
15.717735
 20
17.376266
 30
0.0
 10
15.717735
 20
17.453668
 30
0.0
  0
SPLINE
  5
209
100
AcDbEntity
  8
Layer_1
 62
7
100
AcDbSpline
 70
8
 71
3
 72
8
 73
4
 74
0
 40
0
 40
0
 40
0
 40
0
 40
1
 40
1
 40
1
 40
1
 10
15.717735
 20
17.453668
 30
0.0
 10
15.717735
 20
17.531073
 30
0.0
 10
15.851360
 20
17.594404
 30
0.0
 10
16.014680
 20
17.594404
 30
0.0
  0
SPLINE
  5
20a
100
AcDbEntity
  8
Layer_1
 62
7
100
AcDbSpline
 70
8
 71
3
 72
8
 73
4
 74
0
 40
0
 40
0
 40
0
 40
0
 40
1
 40
1
 40
1
 40
1
 10
16.014680
 20
17.594404
 30
0.0
 10
16.461512
 20
17.594404
 30
0.0
 10
18.851639
 20
18.888714
 30
0.0
 10
19.382906
 20
19.418383
 30
0.0
  0
SPLINE
  5
20b
100
AcDbEntity
  8
Layer_1
 62
7
100
AcDbSpline
 70
8
 71
3
 72
8
 73
4
 74
0
 40
0
 40
0
 40
0
 40
0
 40
1
 40
1
 40
1
 40
1
 10
19.382906
 20
19.418383
 30
0.0
 10
19.746541
 20
19.780926
 30
0.0
 10
20.725148
 20
21.152774
 30
0.0
 10
20.993081
 20
21.675591
 30
0.0
  0
SPLINE
  5
20c
100
AcDbEntity
  8
Layer_1
 62
7
100
AcDbSpline
 70
8
 71
3
 72
8
 73
4
 74
0
 40
0
 40
0
 40
0
 40
0
 40
1
 40
1
 40
1
 40
1
 10
20.993081
 20
21.675591
 30
0.0
 10
21.131914
 20
21.946496
 30
0.0
 10
21.290530
 20
22.199813
 30
0.0
 10
21.345562
 20
22.238514
 30
0.0
  0
SPLINE
  5
20d
100
AcDbEntity
  8
Layer_1
 62
7
100
AcDbSpline
 70
8
 71
3
 72
8
 73
4
 74
0
 40
0
 40
0
 40
0
 40
0
 40
1
 40
1
 40
1
 40
1
 10
21.345562
 20
22.238514
 30
0.0
 10
21.472505
 20
22.327790
 30
0.0
 10
22.111631
 20
23.346160
 30
0.0
 10
22.620958
 20
24.270709
 30
0.0
  0
SPLINE
  5
20e
100
AcDbEntity
  8
Layer_1
 62
7
100
AcDbSpline
 70
8
 71
3
 72
8
 73
4
 74
0
 40
0
 40
0
 40
0
 40
0
 40
1
 40
1
 40
1
 40
1
 10
22.620958
 20
24.270709
 30
0.0
 10
22.878935
 20
24.739000
 30
0.0
 10
23.119848
 20
24.998998
 30
0.0
 10
23.324686
 20
25.030189
 30
0.0
  0
SPLINE
  5
20f
100
AcDbEntity
  8
Layer_1
 62
7
100
AcDbSpline
 70
8
 71
3
 72
8
 73
4
 74
0
 40
0
 40
0
 40
0
 40
0
 40
1
 40
1
 40
1
 40
1
 10
23.324686
 20
25.030189
 30
0.0
 10
23.585774
 20
25.069948
 30
0.0
 10
23.624846
 20
25.024431
 30
0.0
 10
23.566273
 20
24.748729
 30
0.0
  0
SPLINE
  5
210
100
AcDbEntity
  8
Layer_1
 62
7
100
AcDbSpline
 70
8
 71
3
 72
8
 73
4
 74
0
 40
0
 40
0
 40
0
 40
0
 40
1
 40
1
 40
1
 40
1
 10
23.566273
 20
24.748729
 30
0.0
 10
23.444539
 20
24.175758
 30
0.0
 10
23.389659
 20
23.999564
 30
0.0
 10
23.310413
 20
23.927281
 30
0.0
  0
SPLINE
  5
211
100
AcDbEntity
  8
Layer_1
 62
7
100
AcDbSpline
 70
8
 71
3
 72
8
 73
4
 74
0
 40
0
 40
0
 40
0
 40
0
 40
1
 40
1
 40
1
 40
1
 10
23.310413
 20
23.927281
 30
0.0
 10
22.833300
 20
23.492103
 30
0.0
 10
21.900511
 20
21.675918
 30
0.0
 10
21.286601
 20
19.986821
 30
0.0
  0
SPLINE
  5
212
100
AcDbEntity
  8
Layer_1
 62
7
100
AcDbSpline
 70
8
 71
3
 72
8
 73
4
 74
0
 40
0
 40
0
 40
0
 40
0
 40
1
 40
1
 40
1
 40
1
 10
21.286601
 20
19.986821
 30
0.0
 10
20.991214
 20
19.174100
 30
0.0
 10
20.702745
 20
18.382492
 30
0.0
 10
20.645557
 20
18.227691
 30
0.0
  0
SPLINE
  5
213
100
AcDbEntity
  8
Layer_1
 62
7
100
AcDbSpline
 70
8
 71
3
 72
8
 73
4
 74
0
 40
0
 40
0
 40
0
 40
0
 40
1
 40
1
 40
1
 40
1
 10
20.645557
 20
18.227691
 30
0.0
 10
20.539389
 20
17.940298
 30
0.0
 10
20.379609
 20
17.399885
 30
0.0
 10
20.104642
 20
16.398191
 30
0.0
  0
SPLINE
  5
214
100
AcDbEntity
  8
Layer_1
 62
7
100
AcDbSpline
 70
8
 71
3
 72
8
 73
4
 74
0
 40
0
 40
0
 40
0
 40
0
 40
1
 40
1
 40
1
 40
1
 10
20.104642
 20
16.398191
 30
0.0
 10
19.783946
 20
15.229912
 30
0.0
 10
19.281633
 20
12.536228
 30
0.0
 10
19.002429
 20
10.487492
 30
0.0
  0
SPLINE
  5
215
100
AcDbEntity
  8
Layer_1
 62
7
100
AcDbSpline
 70
8
 71
3
 72
8
 73
4
 74
0
 40
0
 40
0
 40
0
 40
0
 40
1
 40
1
 40
1
 40
1
 10
19.002429
 20
10.487492
 30
0.0
 10
18.960235
 20
10.177866
 30
0.0
 10
18.868870
 20
9.864402
 30
0.0
 10
18.799396
 20
9.790855
 30
0.0
  0
SPLINE
  5
216
100
AcDbEntity
  8
Layer_1
 62
7
100
AcDbSpline
 70
8
 71
3
 72
8
 73
4
 74
0
 40
0
 40
0
 40
0
 40
0
 40
1
 40
1
 40
1
 40
1
 10
18.799396
 20
9.790855
 30
0.0
 10
18.729922
 20
9.717364
 30
0.0
 10
18.673080
 20
9.520429
 30
0.0
 10
18.673080
 20
9.353269
 30
0.0
  0
SPLINE
  5
217
100
AcDbEntity
  8
Layer_1
 62
7
100
AcDbSpline
 70
8
 71
3
 72
8
 73
4
 74
0
 40
0
 40
0
 40
0
 40
0
 40
1
 40
1
 40
1
 40
1
 10
18.673080
 20
9.353269
 30
0.0
 10
18.673080
 20
9.186109
 30
0.0
 10
18.474246
 20
8.663829
 30
0.0
 10
18.231225
 20
8.192630
 30
0.0
  0
SPLINE
  5
218
100
AcDbEntity
  8
Layer_1
 62
7
100
AcDbSpline
 70
8
 71
3
 72
8
 73
4
 74
0
 40
0
 40
0
 40
0
 40
0
 40
1
 40
1
 40
1
 40
1
 10
18.231225
 20
8.192630
 30
0.0
 10
17.872426
 20
7.496896
 30
0.0
 10
17.686720
 20
7.294797
 30
0.0
 10
17.243263
 20
7.117364
 30
0.0
  0
SPLINE
  5
219
100
AcDbEntity
  8
Layer_1
 62
7
100
AcDbSpline
 70
8
 71
3
 72
8
 73
4
 74
0
 40
0
 40
0
 40
0
 40
0
 40
1
 40
1
 40
1
 40
1
 10
17.243263
 20
7.117364
 30
0.0
 10
16.125747
 20
6.670239
 30
0.0
 10
14.990299
 20
6.985848
 30
0.0
 10
14.478110
 20
7.886024
 30
0.0
  0
SPLINE
  5
21a
100
AcDbEntity
  8
Layer_1
 62
7
100
AcDbSpline
 70
8
 71
3
 72
8
 73
4
 74
0
 40
0
 40
0
 40
0
 40
0
 40
1
 40
1
 40
1
 40
1
 10
14.478110
 20
7.886024
 30
0.0
 10
14.257761
 20
8.273289
 30
0.0
 10
14.015228
 20
8.447167
 30
0.0
 10
14.039252
 20
8.200645
 30
0.0
  0
SPLINE
  5
21b
100
AcDbEntity
  8
Layer_1
 62
7
100
AcDbSpline
 70
8
 71
3
 72
8
 73
4
 74
0
 40
0
 40
0
 40
0
 40
0
 40
1
 40
1
 40
1
 40
1
 10
14.039252
 20
8.200645
 30
0.0
 10
14.072260
 20
7.861894
 30
0.0
 10
14.618886
 20
7.207393
 30
0.0
 10
15.095071
 20
6.936346
 30
0.0
  0
SPLINE
  5
21c
100
AcDbEntity
  8
Layer_1
 62
7
100
AcDbSpline
 70
8
 71
3
 72
8
 73
4
 74
0
 40
0
 40
0
 40
0
 40
0
 40
1
 40
1
 40
1
 40
1
 10
15.095071
 20
6.936346
 30
0.0
 10
15.501349
 20
6.705150
 30
0.0
 10
15.870614
 20
6.623193
 30
0.0
 10
16.491754
 20
6.626495
 30
0.0
  0
SPLINE
  5
21d
100
AcDbEntity
  8
Layer_1
 62
7
100
AcDbSpline
 70
8
 71
3
 72
8
 73
4
 74
0
 40
0
 40
0
 40
0
 40
0
 40
1
 40
1
 40
1
 40
1
 10
16.491754
 20
6.626495
 30
0.0
 10
18.359357
 20
6.636372
 30
0.0
 10
18.882325
 20
7.427300
 30
0.0
 10
19.670952
 20
11.435166
 30
0.0
  0
SPLINE
  5
21e
100
AcDbEntity
  8
Layer_1
 62
7
100
AcDbSpline
 70
8
 71
3
 72
8
 73
4
 74
0
 40
0
 40
0
 40
0
 40
0
 40
1
 40
1
 40
1
 40
1
 10
19.670952
 20
11.435166
 30
0.0
 10
19.827313
 20
12.229791
 30
0.0
 10
20.018581
 20
13.164906
 30
0.0
 10
20.095991
 20
13.513197
 30
0.0
  0
SPLINE
  5
21f
100
AcDbEntity
  8
Layer_1
 62
7
100
AcDbSpline
 70
8
 71
3
 72
8
 73
4
 74
0
 40
0
 40
0
 40
0
 40
0
 40
1
 40
1
 40
1
 40
1
 10
20.095991
 20
13.513197
 30
0.0
 10
20.173403
 20
13.861515
 30
0.0
 10
20.271886
 20
14.352892
 30
0.0
 10
20.314843
 20
14.605171
 30
0.0
  0
SPLINE
  5
220
100
AcDbEntity
  8
Layer_1
 62
7
100
AcDbSpline
 70
8
 71
3
 72
8
 73
4
 74
0
 40
0
 40
0
 40
0
 40
0
 40
1
 40
1
 40
1
 40
1
 10
20.314843
 20
14.605171
 30
0.0
 10
20.357800
 20
14.857452
 30
0.0
 10
20.449279
 20
15.098673
 30
0.0
 10
20.518128
 20
15.141224
 30
0.0
  0
SPLINE
  5
221
100
AcDbEntity
  8
Layer_1
 62
7
100
AcDbSpline
 70
8
 71
3
 72
8
 73
4
 74
0
 40
0
 40
0
 40
0
 40
0
 40
1
 40
1
 40
1
 40
1
 10
20.518128
 20
15.141224
 30
0.0
 10
20.586978
 20
15.183774
 30
0.0
 10
20.643310
 20
15.335178
 30
0.0
 10
20.643310
 20
15.477678
 30
0.0
  0
SPLINE
  5
222
100
AcDbEntity
  8
Layer_1
 62
7
100
AcDbSpline
 70
8
 71
3
 72
8
 73
4
 74
0
 40
0
 40
0
 40
0
 40
0
 40
1
 40
1
 40
1
 40
1
 10
20.643310
 20
15.477678
 30
0.0
 10
20.643310
 20
15.902899
 30
0.0
 10
21.595884
 20
18.057392
 30
0.0
 10
23.041394
 20
20.901571
 30
0.0
  0
SPLINE
  5
223
100
AcDbEntity
  8
Layer_1
 62
7
100
AcDbSpline
 70
8
 71
3
 72
8
 73
4
 74
0
 40
0
 40
0
 40
0
 40
0
 40
1
 40
1
 40
1
 40
1
 10
23.041394
 20
20.901571
 30
0.0
 10
24.698551
 20
24.162186
 30
0.0
 10
24.887053
 20
24.488187
 30
0.0
 10
25.115926
 20
24.489316
 30
0.0
  0
SPLINE
  5
224
100
AcDbEntity
  8
Layer_1
 62
7
100
AcDbSpline
 70
8
 71
3
 72
8
 73
4
 74
0
 40
0
 40
0
 40
0
 40
0
 40
1
 40
1
 40
1
 40
1
 10
25.115926
 20
24.489316
 30
0.0
 10
25.557405
 20
24.491573
 30
0.0
 10
25.450314
 20
24.076930
 30
0.0
 10
24.370898
 20
21.605225
 30
0.0
  0
SPLINE
  5
225
100
AcDbEntity
  8
Layer_1
 62
7
100
AcDbSpline
 70
8
 71
3
 72
8
 73
4
 74
0
 40
0
 40
0
 40
0
 40
0
 40
1
 40
1
 40
1
 40
1
 10
24.370898
 20
21.605225
 30
0.0
 10
24.269491
 20
21.373021
 30
0.0
 10
24.045824
 20
20.739734
 30
0.0
 10
23.873857
 20
20.197921
 30
0.0
  0
SPLINE
  5
226
100
AcDbEntity
  8
Layer_1
 62
7
100
AcDbSpline
 70
8
 71
3
 72
8
 73
4
 74
0
 40
0
 40
0
 40
0
 40
0
 40
1
 40
1
 40
1
 40
1
 10
23.873857
 20
20.197921
 30
0.0
 10
23.701891
 20
19.656105
 30
0.0
 10
23.499206
 20
19.134448
 30
0.0
 10
23.423448
 20
19.038682
 30
0.0
  0
SPLINE
  5
227
100
AcDbEntity
  8
Layer_1
 62
7
100
AcDbSpline
 70
8
 71
3
 72
8
 73
4
 74
0
 40
0
 40
0
 40
0
 40
0
 40
1
 40
1
 40
1
 40
1
 10
23.423448
 20
19.038682
 30
0.0
 10
23.347688
 20
18.942915
 30
0.0
 10
23.321688
 20
18.770788
 30
0.0
 10
23.365668
 20
18.656180
 30
0.0
  0
SPLINE
  5
228
100
AcDbEntity
  8
Layer_1
 62
7
100
AcDbSpline
 70
8
 71
3
 72
8
 73
4
 74
0
 40
0
 40
0
 40
0
 40
0
 40
1
 40
1
 40
1
 40
1
 10
23.365668
 20
18.656180
 30
0.0
 10
23.409648
 20
18.541573
 30
0.0
 10
23.385068
 20
18.410370
 30
0.0
 10
23.311048
 20
18.364622
 30
0.0
  0
SPLINE
  5
229
100
AcDbEntity
  8
Layer_1
 62
7
100
AcDbSpline
 70
8
 71
3
 72
8
 73
4
 74
0
 40
0
 40
0
 40
0
 40
0
 40
1
 40
1
 40
1
 40
1
 10
23.311048
 20
18.364622
 30
0.0
 10
23.237026
 20
18.318874
 30
0.0
 10
23.176463
 20
18.107859
 30
0.0
 10
23.176463
 20
17.895701
 30
0.0
  0
SPLINE
  5
22a
100
AcDbEntity
  8
Layer_1
 62
7
100
AcDbSpline
 70
8
 71
3
 72
8
 73
4
 74
0
 40
0
 40
0
 40
0
 40
0
 40
1
 40
1
 40
1
 40
1
 10
23.176463
 20
17.895701
 30
0.0
 10
23.176463
 20
17.683544
 30
0.0
 10
23.122875
 20
17.449799
 30
0.0
 10
23.057379
 20
17.376266
 30
0.0
  0
SPLINE
  5
22b
100
AcDbEntity
  8
Layer_1
 62
7
100
AcDbSpline
 70
8
 71
3
 72
8
 73
4
 74
0
 40
0
 40
0
 40
0
 40
0
 40
1
 40
1
 40
1
 40
1
 10
23.057379
 20
17.376266
 30
0.0
 10
22.816453
 20
17.105781
 30
0.0
 10
22.617496
 20
15.200685
 30
0.0
 10
22.546714
 20
12.486444
 30
0.0
  0
SPLINE
  5
22c
100
AcDbEntity
  8
Layer_1
 62
7
100
AcDbSpline
 70
8
 71
3
 72
8
 73
4
 74
0
 40
0
 40
0
 40
0
 40
0
 40
1
 40
1
 40
1
 40
1
 10
22.546714
 20
12.486444
 30
0.0
 10
22.506756
 20
10.954175
 30
0.0
 10
22.439376
 20
9.434267
 30
0.0
 10
22.396981
 20
9.108893
 30
0.0
  0
SPLINE
  5
22d
100
AcDbEntity
  8
Layer_1
 62
7
100
AcDbSpline
 70
8
 71
3
 72
8
 73
4
 74
0
 40
0
 40
0
 40
0
 40
0
 40
1
 40
1
 40
1
 40
1
 10
22.396981
 20
9.108893
 30
0.0
 10
22.005996
 20
6.108024
 30
0.0
 10
21.108577
 20
4.446441
 30
0.0
 10
19.559190
 20
3.854734
 30
0.0
  0
SPLINE
  5
22e
100
AcDbEntity
  8
Layer_1
 62
7
100
AcDbSpline
 70
8
 71
3
 72
8
 73
4
 74
0
 40
0
 40
0
 40
0
 40
0
 40
1
 40
1
 40
1
 40
1
 10
19.559190
 20
3.854734
 30
0.0
 10
19.006043
 20
3.643490
 30
0.0
 10
18.933435
 20
3.643490
 30
0.0
 10
18.610494
 20
3.854734
 30
0.0
  0
SPLINE
  5
22f
100
AcDbEntity
  8
Layer_1
 62
7
100
AcDbSpline
 70
8
 71
3
 72
8
 73
4
 74
0
 40
0
 40
0
 40
0
 40
0
 40
1
 40
1
 40
1
 40
1
 10
18.610494
 20
3.854734
 30
0.0
 10
18.418157
 20
3.980718
 30
0.0
 10
18.163569
 20
4.083842
 30
0.0
 10
18.044743
 20
4.083842
 30
0.0
  0
SPLINE
  5
230
100
AcDbEntity
  8
Layer_1
 62
7
100
AcDbSpline
 70
8
 71
3
 72
8
 73
4
 74
0
 40
0
 40
0
 40
0
 40
0
 40
1
 40
1
 40
1
 40
1
 10
18.044743
 20
4.083842
 30
0.0
 10
17.803420
 20
4.083842
 30
0.0
 10
17.265773
 20
3.598165
 30
0.0
 10
17.265773
 20
3.380177
 30
0.0
  0
SPLINE
  5
231
100
AcDbEntity
  8
Layer_1
 62
7
100
AcDbSpline
 70
8
 71
3
 72
8
 73
4
 74
0
 40
0
 40
0
 40
0
 40
0
 40
1
 40
1
 40
1
 40
1
 10
17.265773
 20
3.380177
 30
0.0
 10
17.265773
 20
3.146102
 30
0.0
 10
17.811543
 20
2.676541
 30
0.0
 10
18.083621
 20
2.676541
 30
0.0
  0
SPLINE
  5
232
100
AcDbEntity
  8
Layer_1
 62
7
100
AcDbSpline
 70
8
 71
3
 72
8
 73
4
 74
0
 40
0
 40
0
 40
0
 40
0
 40
1
 40
1
 40
1
 40
1
 10
18.083621
 20
2.676541
 30
0.0
 10
18.223829
 20
2.676541
 30
0.0
 10
18.491760
 20
2.819035
 30
0.0
 10
18.679022
 20
2.993166
 30
0.0
  0
SPLINE
  5
233
100
AcDbEntity
  8
Layer_1
 62
7
100
AcDbSpline
 70
8
 71
3
 72
8
 73
4
 74
0
 40
0
 40
0
 40
0
 40
0
 40
1
 40
1
 40
1
 40
1
 10
18.679022
 20
2.993166
 30
0.0
 10
18.866285
 20
3.167353
 30
0.0
 10
19.084044
 20
3.315605
 30
0.0
 10
19.162934
 20
3.322688
 30
0.0
  0
SPLINE
  5
234
100
AcDbEntity
  8
Layer_1
 62
7
100
AcDbSpline
 70
8
 71
3
 72
8
 73
4
 74
0
 40
0
 40
0
 40
0
 40
0
 40
1
 40
1
 40
1
 40
1
 10
19.162934
 20
3.322688
 30
0.0
 10
20.446927
 20
3.437891
 30
0.0
 10
21.831892
 20
4.566244
 30
0.0
 10
22.515494
 20
6.054063
 30
0.0
  0
SPLINE
  5
235
100
AcDbEntity
  8
Layer_1
 62
7
100
AcDbSpline
 70
8
 71
3
 72
8
 73
4
 74
0
 40
0
 40
0
 40
0
 40
0
 40
1
 40
1
 40
1
 40
1
 10
22.515494
 20
6.054063
 30
0.0
 10
23.285447
 20
7.729842
 30
0.0
 10
23.456476
 20
8.679577
 30
0.0
 10
23.541845
 20
11.753682
 30
0.0
  0
SPLINE
  5
236
100
AcDbEntity
  8
Layer_1
 62
7
100
AcDbSpline
 70
8
 71
3
 72
8
 73
4
 74
0
 40
0
 40
0
 40
0
 40
0
 40
1
 40
1
 40
1
 40
1
 10
23.541845
 20
11.753682
 30
0.0
 10
23.584835
 20
13.301699
 30
0.0
 10
23.710714
 20
15.082603
 30
0.0
 10
23.821575
 20
15.711214
 30
0.0
  0
SPLINE
  5
237
100
AcDbEntity
  8
Layer_1
 62
7
100
AcDbSpline
 70
8
 71
3
 72
8
 73
4
 74
0
 40
0
 40
0
 40
0
 40
0
 40
1
 40
1
 40
1
 40
1
 10
23.821575
 20
15.711214
 30
0.0
 10
24.009677
 20
16.777805
 30
0.0
 10
25.067351
 20
20.232086
 30
0.0
 10
25.496879
 20
21.182628
 30
0.0
  0
SPLINE
  5
238
100
AcDbEntity
  8
Layer_1
 62
7
100
AcDbSpline
 70
8
 71
3
 72
8
 73
4
 74
0
 40
0
 40
0
 40
0
 40
0
 40
1
 40
1
 40
1
 40
1
 10
25.496879
 20
21.182628
 30
0.0
 10
25.601808
 20
21.414832
 30
0.0
 10
25.815218
 20
21.929393
 30
0.0
 10
25.971124
 20
22.326093
 30
0.0
  0
SPLINE
  5
239
100
AcDbEntity
  8
Layer_1
 62
7
100
AcDbSpline
 70
8
 71
3
 72
8
 73
4
 74
0
 40
0
 40
0
 40
0
 40
0
 40
1
 40
1
 40
1
 40
1
 10
25.971124
 20
22.326093
 30
0.0
 10
26.478398
 20
23.616857
 30
0.0
 10
26.863073
 20
24.349068
 30
0.0
 10
27.033909
 20
24.349068
 30
0.0
  0
SPLINE
  5
23a
100
AcDbEntity
  8
Layer_1
 62
7
100
AcDbSpline
 70
8
 71
3
 72
8
 73
4
 74
0
 40
0
 40
0
 40
0
 40
0
 40
1
 40
1
 40
1
 40
1
 10
27.033909
 20
24.349068
 30
0.0
 10
27.481536
 20
24.349068
 30
0.0
 10
27.492576
 20
24.035903
 30
0.0
 10
27.087430
 20
22.830252
 30
0.0
  0
SPLINE
  5
23b
100
AcDbEntity
  8
Layer_1
 62
7
100
AcDbSpline
 70
8
 71
3
 72
8
 73
4
 74
0
 40
0
 40
0
 40
0
 40
0
 40
1
 40
1
 40
1
 40
1
 10
27.087430
 20
22.830252
 30
0.0
 10
26.861565
 20
22.158112
 30
0.0
 10
26.580697
 20
21.164117
 30
0.0
 10
26.463282
 20
20.621381
 30
0.0
  0
SPLINE
  5
23c
100
AcDbEntity
  8
Layer_1
 62
7
100
AcDbSpline
 70
8
 71
3
 72
8
 73
4
 74
0
 40
0
 40
0
 40
0
 40
0
 40
1
 40
1
 40
1
 40
1
 10
26.463282
 20
20.621381
 30
0.0
 10
26.194916
 20
19.380896
 30
0.0
 10
26.159209
 20
16.318838
 30
0.0
 10
26.404473
 20
15.578211
 30
0.0
  0
SPLINE
  5
23d
100
AcDbEntity
  8
Layer_1
 62
7
100
AcDbSpline
 70
8
 71
3
 72
8
 73
4
 74
0
 40
0
 40
0
 40
0
 40
0
 40
1
 40
1
 40
1
 40
1
 10
26.404473
 20
15.578211
 30
0.0
 10
26.643143
 20
14.857500
 30
0.0
 10
26.426111
 20
12.076290
 30
0.0
 10
26.116259
 20
11.884774
 30
0.0
  0
SPLINE
  5
23e
100
AcDbEntity
  8
Layer_1
 62
7
100
AcDbSpline
 70
8
 71
3
 72
8
 73
4
 74
0
 40
0
 40
0
 40
0
 40
0
 40
1
 40
1
 40
1
 40
1
 10
26.116259
 20
11.884774
 30
0.0
 10
26.047409
 20
11.842243
 30
0.0
 10
25.991077
 20
11.683635
 30
0.0
 10
25.991077
 20
11.532363
 30
0.0
  0
SPLINE
  5
23f
100
AcDbEntity
  8
Layer_1
 62
7
100
AcDbSpline
 70
8
 71
3
 72
8
 73
4
 74
0
 40
0
 40
0
 40
0
 40
0
 40
1
 40
1
 40
1
 40
1
 10
25.991077
 20
11.532363
 30
0.0
 10
25.991077
 20
11.381092
 30
0.0
 10
25.927300
 20
11.147328
 30
0.0
 10
25.849352
 20
11.012933
 30
0.0
  0
SPLINE
  5
240
100
AcDbEntity
  8
Layer_1
 62
7
100
AcDbSpline
 70
8
 71
3
 72
8
 73
4
 74
0
 40
0
 40
0
 40
0
 40
0
 40
1
 40
1
 40
1
 40
1
 10
25.849352
 20
11.012933
 30
0.0
 10
25.544592
 20
10.487407
 30
0.0
 10
24.603575
 20
7.573519
 30
0.0
 10
24.676914
 20
7.382370
 30
0.0
  0
SPLINE
  5
241
100
AcDbEntity
  8
Layer_1
 62
7
100
AcDbSpline
 70
8
 71
3
 72
8
 73
4
 74
0
 40
0
 40
0
 40
0
 40
0
 40
1
 40
1
 40
1
 40
1
 10
24.676914
 20
7.382370
 30
0.0
 10
24.719649
 20
7.271034
 30
0.0
 10
24.684511
 20
7.179904
 30
0.0
 10
24.598826
 20
7.179904
 30
0.0
  0
SPLINE
  5
242
100
AcDbEntity
  8
Layer_1
 62
7
100
AcDbSpline
 70
8
 71
3
 72
8
 73
4
 74
0
 40
0
 40
0
 40
0
 40
0
 40
1
 40
1
 40
1
 40
1
 10
24.598826
 20
7.179904
 30
0.0
 10
24.502974
 20
7.179904
 30
0.0
 10
24.443105
 20
6.868585
 30
0.0
 10
24.443211
 20
6.370688
 30
0.0
  0
SPLINE
  5
243
100
AcDbEntity
  8
Layer_1
 62
7
100
AcDbSpline
 70
8
 71
3
 72
8
 73
4
 74
0
 40
0
 40
0
 40
0
 40
0
 40
1
 40
1
 40
1
 40
1
 10
24.443211
 20
6.370688
 30
0.0
 10
24.443352
 20
5.420107
 30
0.0
 10
24.854253
 20
4.787478
 30
0.0
 10
25.471404
 20
4.787478
 30
0.0
  0
SPLINE
  5
244
100
AcDbEntity
  8
Layer_1
 62
7
100
AcDbSpline
 70
8
 71
3
 72
8
 73
4
 74
0
 40
0
 40
0
 40
0
 40
0
 40
1
 40
1
 40
1
 40
1
 10
25.471404
 20
4.787478
 30
0.0
 10
25.670686
 20
4.787478
 30
0.0
 10
25.872875
 20
4.724147
 30
0.0
 10
25.920711
 20
4.646762
 30
0.0
  0
SPLINE
  5
245
100
AcDbEntity
  8
Layer_1
 62
7
100
AcDbSpline
 70
8
 71
3
 72
8
 73
4
 74
0
 40
0
 40
0
 40
0
 40
0
 40
1
 40
1
 40
1
 40
1
 10
25.920711
 20
4.646762
 30
0.0
 10
26.056529
 20
4.427024
 30
0.0
 10
27.643109
 20
4.479799
 30
0.0
 10
28.106643
 20
4.719491
 30
0.0
  0
SPLINE
  5
246
100
AcDbEntity
  8
Layer_1
 62
7
100
AcDbSpline
 70
8
 71
3
 72
8
 73
4
 74
0
 40
0
 40
0
 40
0
 40
0
 40
1
 40
1
 40
1
 40
1
 10
28.106643
 20
4.719491
 30
0.0
 10
28.574944
 20
4.961666
 30
0.0
 10
28.946421
 20
5.583063
 30
0.0
 10
28.946421
 20
6.124252
 30
0.0
  0
SPLINE
  5
247
100
AcDbEntity
  8
Layer_1
 62
7
100
AcDbSpline
 70
8
 71
3
 72
8
 73
4
 74
0
 40
0
 40
0
 40
0
 40
0
 40
1
 40
1
 40
1
 40
1
 10
28.946421
 20
6.124252
 30
0.0
 10
28.946421
 20
6.325335
 30
0.0
 10
28.825582
 20
6.739948
 30
0.0
 10
28.677887
 20
7.045651
 30
0.0
  0
SPLINE
  5
248
100
AcDbEntity
  8
Layer_1
 62
7
100
AcDbSpline
 70
8
 71
3
 72
8
 73
4
 74
0
 40
0
 40
0
 40
0
 40
0
 40
1
 40
1
 40
1
 40
1
 10
28.677887
 20
7.045651
 30
0.0
 10
28.530192
 20
7.351354
 30
0.0
 10
28.466861
 20
7.637019
 30
0.0
 10
28.537154
 20
7.680453
 30
0.0
  0
SPLINE
  5
249
100
AcDbEntity
  8
Layer_1
 62
7
100
AcDbSpline
 70
8
 71
3
 72
8
 73
4
 74
0
 40
0
 40
0
 40
0
 40
0
 40
1
 40
1
 40
1
 40
1
 10
28.537154
 20
7.680453
 30
0.0
 10
28.763835
 20
7.820549
 30
0.0
 10
28.673137
 20
8.395463
 30
0.0
 10
28.382928
 20
8.658099
 30
0.0
  0
SPLINE
  5
24a
100
AcDbEntity
  8
Layer_1
 62
7
100
AcDbSpline
 70
8
 71
3
 72
8
 73
4
 74
0
 40
0
 40
0
 40
0
 40
0
 40
1
 40
1
 40
1
 40
1
 10
28.382928
 20
8.658099
 30
0.0
 10
28.152564
 20
8.866549
 30
0.0
 10
28.038133
 20
8.884752
 30
0.0
 10
27.758322
 20
8.757244
 30
0.0
  0
SPLINE
  5
24b
100
AcDbEntity
  8
Layer_1
 62
7
100
AcDbSpline
 70
8
 71
3
 72
8
 73
4
 74
0
 40
0
 40
0
 40
0
 40
0
 40
1
 40
1
 40
1
 40
1
 10
27.758322
 20
8.757244
 30
0.0
 10
27.569906
 20
8.671392
 30
0.0
 10
27.346060
 20
8.470958
 30
0.0
 10
27.260882
 20
8.311785
 30
0.0
  0
SPLINE
  5
24c
100
AcDbEntity
  8
Layer_1
 62
7
100
AcDbSpline
 70
8
 71
3
 72
8
 73
4
 74
0
 40
0
 40
0
 40
0
 40
0
 40
1
 40
1
 40
1
 40
1
 10
27.260882
 20
8.311785
 30
0.0
 10
27.132341
 20
8.071613
 30
0.0
 10
27.165663
 20
7.962760
 30
0.0
 10
27.456897
 20
7.671535
 30
0.0
  0
SPLINE
  5
24d
100
AcDbEntity
  8
Layer_1
 62
7
100
AcDbSpline
 70
8
 71
3
 72
8
 73
4
 74
0
 40
0
 40
0
 40
0
 40
0
 40
1
 40
1
 40
1
 40
1
 10
27.456897
 20
7.671535
 30
0.0
 10
27.649882
 20
7.478523
 30
0.0
 10
27.898370
 20
7.320648
 30
0.0
 10
28.009090
 20
7.320648
 30
0.0
  0
SPLINE
  5
24e
100
AcDbEntity
  8
Layer_1
 62
7
100
AcDbSpline
 70
8
 71
3
 72
8
 73
4
 74
0
 40
0
 40
0
 40
0
 40
0
 40
1
 40
1
 40
1
 40
1
 10
28.009090
 20
7.320648
 30
0.0
 10
28.311695
 20
7.320648
 30
0.0
 10
28.664961
 20
6.689204
 30
0.0
 10
28.664961
 20
6.148354
 30
0.0
  0
SPLINE
  5
24f
100
AcDbEntity
  8
Layer_1
 62
7
100
AcDbSpline
 70
8
 71
3
 72
8
 73
4
 74
0
 40
0
 40
0
 40
0
 40
0
 40
1
 40
1
 40
1
 40
1
 10
28.664961
 20
6.148354
 30
0.0
 10
28.664961
 20
5.880130
 30
0.0
 10
28.539059
 20
5.509769
 30
0.0
 10
28.378466
 20
5.305610
 30
0.0
  0
SPLINE
  5
250
100
AcDbEntity
  8
Layer_1
 62
7
100
AcDbSpline
 70
8
 71
3
 72
8
 73
4
 74
0
 40
0
 40
0
 40
0
 40
0
 40
1
 40
1
 40
1
 40
1
 10
28.378466
 20
5.305610
 30
0.0
 10
28.134736
 20
4.995758
 30
0.0
 10
27.963115
 20
4.935165
 30
0.0
 10
27.228761
 20
4.899633
 30
0.0
  0
SPLINE
  5
251
100
AcDbEntity
  8
Layer_1
 62
7
100
AcDbSpline
 70
8
 71
3
 72
8
 73
4
 74
0
 40
0
 40
0
 40
0
 40
0
 40
1
 40
1
 40
1
 40
1
 10
27.228761
 20
4.899633
 30
0.0
 10
26.456899
 20
4.862267
 30
0.0
 10
26.323014
 20
4.896811
 30
0.0
 10
25.963549
 20
5.234377
 30
0.0
  0
SPLINE
  5
252
100
AcDbEntity
  8
Layer_1
 62
7
100
AcDbSpline
 70
8
 71
3
 72
8
 73
4
 74
0
 40
0
 40
0
 40
0
 40
0
 40
1
 40
1
 40
1
 40
1
 10
25.963549
 20
5.234377
 30
0.0
 10
25.372805
 20
5.787702
 30
0.0
 10
25.226044
 20
6.326944
 30
0.0
 10
25.424330
 20
7.215549
 30
0.0
  0
SPLINE
  5
253
100
AcDbEntity
  8
Layer_1
 62
7
100
AcDbSpline
 70
8
 71
3
 72
8
 73
4
 74
0
 40
0
 40
0
 40
0
 40
0
 40
1
 40
1
 40
1
 40
1
 10
25.424330
 20
7.215549
 30
0.0
 10
25.579475
 20
7.910860
 30
0.0
 10
25.652236
 20
8.129074
 30
0.0
 10
25.987268
 20
8.903859
 30
0.0
  0
SPLINE
  5
254
100
AcDbEntity
  8
Layer_1
 62
7
100
AcDbSpline
 70
8
 71
3
 72
8
 73
4
 74
0
 40
0
 40
0
 40
0
 40
0
 40
1
 40
1
 40
1
 40
1
 10
25.987268
 20
8.903859
 30
0.0
 10
26.143060
 20
9.264143
 30
0.0
 10
26.444682
 20
10.102372
 30
0.0
 10
26.860809
 20
11.331478
 30
0.0
  0
SPLINE
  5
255
100
AcDbEntity
  8
Layer_1
 62
7
100
AcDbSpline
 70
8
 71
3
 72
8
 73
4
 74
0
 40
0
 40
0
 40
0
 40
0
 40
1
 40
1
 40
1
 40
1
 10
26.860809
 20
11.331478
 30
0.0
 10
27.018042
 20
11.795874
 30
0.0
 10
27.216748
 20
12.323461
 30
0.0
 10
27.302380
 20
12.503829
 30
0.0
  0
SPLINE
  5
256
100
AcDbEntity
  8
Layer_1
 62
7
100
AcDbSpline
 70
8
 71
3
 72
8
 73
4
 74
0
 40
0
 40
0
 40
0
 40
0
 40
1
 40
1
 40
1
 40
1
 10
27.302380
 20
12.503829
 30
0.0
 10
27.401038
 20
12.711657
 30
0.0
 10
27.437192
 20
13.484974
 30
0.0
 10
27.401070
 20
14.614795
 30
0.0
  0
SPLINE
  5
257
100
AcDbEntity
  8
Layer_1
 62
7
100
AcDbSpline
 70
8
 71
3
 72
8
 73
4
 74
0
 40
0
 40
0
 40
0
 40
0
 40
1
 40
1
 40
1
 40
1
 10
27.401070
 20
14.614795
 30
0.0
 10
27.307410
 20
17.544199
 30
0.0
 10
27.349053
 20
19.443493
 30
0.0
 10
27.526557
 20
20.338242
 30
0.0
  0
SPLINE
  5
258
100
AcDbEntity
  8
Layer_1
 62
7
100
AcDbSpline
 70
8
 71
3
 72
8
 73
4
 74
0
 40
0
 40
0
 40
0
 40
0
 40
1
 40
1
 40
1
 40
1
 10
27.526557
 20
20.338242
 30
0.0
 10
27.708380
 20
21.254769
 30
0.0
 10
28.214379
 20
22.790278
 30
0.0
 10
28.405365
 20
23.005089
 30
0.0
  0
SPLINE
  5
259
100
AcDbEntity
  8
Layer_1
 62
7
100
AcDbSpline
 70
8
 71
3
 72
8
 73
4
 74
0
 40
0
 40
0
 40
0
 40
0
 40
1
 40
1
 40
1
 40
1
 10
28.405365
 20
23.005089
 30
0.0
 10
28.470744
 20
23.078622
 30
0.0
 10
28.524231
 20
23.225634
 30
0.0
 10
28.524231
 20
23.331784
 30
0.0
  0
SPLINE
  5
25a
100
AcDbEntity
  8
Layer_1
 62
7
100
AcDbSpline
 70
8
 71
3
 72
8
 73
4
 74
0
 40
0
 40
0
 40
0
 40
0
 40
1
 40
1
 40
1
 40
1
 10
28.524231
 20
23.331784
 30
0.0
 10
28.524231
 20
23.558832
 30
0.0
 10
28.863101
 20
23.926875
 30
0.0
 10
29.072151
 20
23.926875
 30
0.0
  0
SPLINE
  5
25b
100
AcDbEntity
  8
Layer_1
 62
7
100
AcDbSpline
 70
8
 71
3
 72
8
 73
4
 74
0
 40
0
 40
0
 40
0
 40
0
 40
1
 40
1
 40
1
 40
1
 10
29.072151
 20
23.926875
 30
0.0
 10
29.519601
 20
23.926875
 30
0.0
 10
29.784904
 20
22.262260
 30
0.0
 10
29.890830
 20
18.790202
 30
0.0
  0
SPLINE
  5
25c
100
AcDbEntity
  8
Layer_1
 62
7
100
AcDbSpline
 70
8
 71
3
 72
8
 73
4
 74
0
 40
0
 40
0
 40
0
 40
0
 40
1
 40
1
 40
1
 40
1
 10
29.890830
 20
18.790202
 30
0.0
 10
29.936844
 20
17.281893
 30
0.0
 10
29.901950
 20
15.978724
 30
0.0
 10
29.796396
 20
15.263801
 30
0.0
  0
SPLINE
  5
25d
100
AcDbEntity
  8
Layer_1
 62
7
100
AcDbSpline
 70
8
 71
3
 72
8
 73
4
 74
0
 40
0
 40
0
 40
0
 40
0
 40
1
 40
1
 40
1
 40
1
 10
29.796396
 20
15.263801
 30
0.0
 10
29.528886
 20
13.451926
 30
0.0
 10
30.020043
 20
11.421986
 30
0.0
 10
31.309694
 20
9.009410
 30
0.0
  0
SPLINE
  5
25e
100
AcDbEntity
  8
Layer_1
 62
7
100
AcDbSpline
 70
8
 71
3
 72
8
 73
4
 74
0
 40
0
 40
0
 40
0
 40
0
 40
1
 40
1
 40
1
 40
1
 10
31.309694
 20
9.009410
 30
0.0
 10
32.344885
 20
7.072885
 30
0.0
 10
32.647997
 20
6.539147
 30
0.0
 10
32.834557
 20
6.324432
 30
0.0
  0
SPLINE
  5
25f
100
AcDbEntity
  8
Layer_1
 62
7
100
AcDbSpline
 70
8
 71
3
 72
8
 73
4
 74
0
 40
0
 40
0
 40
0
 40
0
 40
1
 40
1
 40
1
 40
1
 10
32.834557
 20
6.324432
 30
0.0
 10
32.940738
 20
6.202258
 30
0.0
 10
33.027614
 20
6.028071
 30
0.0
 10
33.027614
 20
5.937449
 30
0.0
  0
SPLINE
  5
260
100
AcDbEntity
  8
Layer_1
 62
7
100
AcDbSpline
 70
8
 71
3
 72
8
 73
4
 74
0
 40
0
 40
0
 40
0
 40
0
 40
1
 40
1
 40
1
 40
1
 10
33.027614
 20
5.937449
 30
0.0
 10
33.027614
 20
5.846771
 30
0.0
 10
33.090942
 20
5.772603
 30
0.0
 10
33.168344
 20
5.772603
 30
0.0
  0
SPLINE
  5
261
100
AcDbEntity
  8
Layer_1
 62
7
100
AcDbSpline
 70
8
 71
3
 72
8
 73
4
 74
0
 40
0
 40
0
 40
0
 40
0
 40
1
 40
1
 40
1
 40
1
 10
33.168344
 20
5.772603
 30
0.0
 10
33.245747
 20
5.772603
 30
0.0
 10
33.309077
 20
5.708595
 30
0.0
 10
33.309077
 20
5.630335
 30
0.0
  0
SPLINE
  5
262
100
AcDbEntity
  8
Layer_1
 62
7
100
AcDbSpline
 70
8
 71
3
 72
8
 73
4
 74
0
 40
0
 40
0
 40
0
 40
0
 40
1
 40
1
 40
1
 40
1
 10
33.309077
 20
5.630335
 30
0.0
 10
33.309077
 20
5.552103
 30
0.0
 10
33.451566
 20
5.187951
 30
0.0
 10
33.625719
 20
4.821147
 30
0.0
  0
SPLINE
  5
263
100
AcDbEntity
  8
Layer_1
 62
7
100
AcDbSpline
 70
8
 71
3
 72
8
 73
4
 74
0
 40
0
 40
0
 40
0
 40
0
 40
1
 40
1
 40
1
 40
1
 10
33.625719
 20
4.821147
 30
0.0
 10
33.827858
 20
4.395387
 30
0.0
 10
33.942364
 20
3.889842
 30
0.0
 10
33.942364
 20
3.423188
 30
0.0
  0
SPLINE
  5
264
100
AcDbEntity
  8
Layer_1
 62
7
100
AcDbSpline
 70
8
 71
3
 72
8
 73
4
 74
0
 40
0
 40
0
 40
0
 40
0
 40
1
 40
1
 40
1
 40
1
 10
33.942364
 20
3.423188
 30
0.0
 10
33.942364
 20
2.784293
 30
0.0
 10
33.882832
 20
2.630764
 30
0.0
 10
33.469890
 20
2.204693
 30
0.0
  0
SPLINE
  5
265
100
AcDbEntity
  8
Layer_1
 62
7
100
AcDbSpline
 70
8
 71
3
 72
8
 73
4
 74
0
 40
0
 40
0
 40
0
 40
0
 40
1
 40
1
 40
1
 40
1
 10
33.469890
 20
2.204693
 30
0.0
 10
32.704450
 20
1.414951
 30
0.0
 10
32.016892
 20
1.341855
 30
0.0
 10
29.298251
 20
1.761012
 30
0.0
  0
LINE
  5
266
100
AcDbEntity
  8
Layer_1
 62
7
100
AcDbLine
 10
29.298251
 20
1.761012
 30
0.0
 11
28.735325
 21
1.847823
 31
0.0
  0
LINE
  5
267
100
AcDbEntity
  8
Layer_1
 62
7
100
AcDbLine
 10
28.735325
 20
1.847823
 30
0.0
 11
29.368617
 21
1.531565
 31
0.0
  0
SPLINE
  5
268
100
AcDbEntity
  8
Layer_1
 62
7
100
AcDbSpline
 70
8
 71
3
 72
8
 73
4
 74
0
 40
0
 40
0
 40
0
 40
0
 40
1
 40
1
 40
1
 40
1
 10
29.368617
 20
1.531565
 30
0.0
 10
30.507085
 20
0.963000
 30
0.0
 10
32.329196
 20
0.927045
 30
0.0
 10
33.449808
 20
1.451047
 30
0.0
  0
LINE
  5
269
100
AcDbEntity
  8
Layer_1
 62
7
100
AcDbLine
 10
33.449808
 20
1.451047
 30
0.0
 11
33.449808
 21
1.451442
 31
0.0
  0
SPLINE
  5
26a
100
AcDbEntity
  8
Layer_1
 62
7
100
AcDbSpline
 70
8
 71
3
 72
8
 73
4
 74
0
 40
0
 40
0
 40
0
 40
0
 40
1
 40
1
 40
1
 40
1
 10
26.834571
 20
25.304153
 30
0.0
 10
26.834148
 20
25.359593
 30
0.0
 10
26.644095
 20
25.512837
 30
0.0
 10
26.412381
 20
25.644685
 30
0.0
  0
SPLINE
  5
26b
100
AcDbEntity
  8
Layer_1
 62
7
100
AcDbSpline
 70
8
 71
3
 72
8
 73
4
 74
0
 40
0
 40
0
 40
0
 40
0
 40
1
 40
1
 40
1
 40
1
 10
26.412381
 20
25.644685
 30
0.0
 10
26.089117
 20
25.828632
 30
0.0
 10
25.991077
 20
25.984190
 30
0.0
 10
25.991077
 20
26.313160
 30
0.0
  0
SPLINE
  5
26c
100
AcDbEntity
  8
Layer_1
 62
7
100
AcDbSpline
 70
8
 71
3
 72
8
 73
4
 74
0
 40
0
 40
0
 40
0
 40
0
 40
1
 40
1
 40
1
 40
1
 10
25.991077
 20
26.313160
 30
0.0
 10
25.991077
 20
26.639225
 30
0.0
 10
26.054548
 20
26.741898
 30
0.0
 10
26.256124
 20
26.741898
 30
0.0
  0
SPLINE
  5
26d
100
AcDbEntity
  8
Layer_1
 62
7
100
AcDbSpline
 70
8
 71
3
 72
8
 73
4
 74
0
 40
0
 40
0
 40
0
 40
0
 40
1
 40
1
 40
1
 40
1
 10
26.256124
 20
26.741898
 30
0.0
 10
26.402818
 20
26.741898
 30
0.0
 10
26.554039
 20
26.616213
 30
0.0
 10
26.594776
 20
26.460437
 30
0.0
  0
SPLINE
  5
26e
100
AcDbEntity
  8
Layer_1
 62
7
100
AcDbSpline
 70
8
 71
3
 72
8
 73
4
 74
0
 40
0
 40
0
 40
0
 40
0
 40
1
 40
1
 40
1
 40
1
 10
26.594776
 20
26.460437
 30
0.0
 10
26.638308
 20
26.293969
 30
0.0
 10
26.786735
 20
26.178974
 30
0.0
 10
26.958066
 20
26.178974
 30
0.0
  0
SPLINE
  5
26f
100
AcDbEntity
  8
Layer_1
 62
7
100
AcDbSpline
 70
8
 71
3
 72
8
 73
4
 74
0
 40
0
 40
0
 40
0
 40
0
 40
1
 40
1
 40
1
 40
1
 10
26.958066
 20
26.178974
 30
0.0
 10
27.117392
 20
26.178974
 30
0.0
 10
27.315536
 20
26.305630
 30
0.0
 10
27.398385
 20
26.460437
 30
0.0
  0
SPLINE
  5
270
100
AcDbEntity
  8
Layer_1
 62
7
100
AcDbSpline
 70
8
 71
3
 72
8
 73
4
 74
0
 40
0
 40
0
 40
0
 40
0
 40
1
 40
1
 40
1
 40
1
 10
27.398385
 20
26.460437
 30
0.0
 10
27.555895
 20
26.754744
 30
0.0
 10
27.887318
 20
26.834737
 30
0.0
 10
28.025155
 20
26.611714
 30
0.0
  0
SPLINE
  5
271
100
AcDbEntity
  8
Layer_1
 62
7
100
AcDbSpline
 70
8
 71
3
 72
8
 73
4
 74
0
 40
0
 40
0
 40
0
 40
0
 40
1
 40
1
 40
1
 40
1
 10
28.025155
 20
26.611714
 30
0.0
 10
28.172010
 20
26.374097
 30
0.0
 10
27.782845
 20
25.762321
 30
0.0
 10
27.305787
 20
25.480847
 30
0.0
  0
SPLINE
  5
272
100
AcDbEntity
  8
Layer_1
 62
7
100
AcDbSpline
 70
8
 71
3
 72
8
 73
4
 74
0
 40
0
 40
0
 40
0
 40
0
 40
1
 40
1
 40
1
 40
1
 10
27.305787
 20
25.480847
 30
0.0
 10
27.047108
 20
25.328224
 30
0.0
 10
26.835061
 20
25.248711
 30
0.0
 10
26.834571
 20
25.304153
 30
0.0
  0
LINE
  5
273
100
AcDbEntity
  8
Layer_1
 62
7
100
AcDbLine
 10
26.834571
 20
25.304153
 30
0.0
 11
26.834571
 21
25.304153
 31
0.0
  0
SPLINE
  5
274
100
AcDbEntity
  8
Layer_1
 62
7
100
AcDbSpline
 70
8
 71
3
 72
8
 73
4
 74
0
 40
0
 40
0
 40
0
 40
0
 40
1
 40
1
 40
1
 40
1
 10
28.489046
 20
1.921257
 30
0.0
 10
28.843588
 20
2.016282
 30
0.0
 10
28.933927
 20
2.633135
 30
0.0
 10
28.636812
 20
2.930258
 30
0.0
  0
SPLINE
  5
275
100
AcDbEntity
  8
Layer_1
 62
7
100
AcDbSpline
 70
8
 71
3
 72
8
 73
4
 74
0
 40
0
 40
0
 40
0
 40
0
 40
1
 40
1
 40
1
 40
1
 10
28.636812
 20
2.930258
 30
0.0
 10
28.230062
 20
3.337025
 30
0.0
 10
27.257654
 20
3.010974
 30
0.0
 10
27.257654
 20
2.467865
 30
0.0
  0
SPLINE
  5
276
100
AcDbEntity
  8
Layer_1
 62
7
100
AcDbSpline
 70
8
 71
3
 72
8
 73
4
 74
0
 40
0
 40
0
 40
0
 40
0
 40
1
 40
1
 40
1
 40
1
 10
27.257654
 20
2.467865
 30
0.0
 10
27.257654
 20
1.951766
 30
0.0
 10
27.764063
 20
1.726976
 30
0.0
 10
28.489046
 20
1.921257
 30
0.0
  0
LINE
  5
277
100
AcDbEntity
  8
Layer_1
 62
7
100
AcDbLine
 10
28.489046
 20
1.921257
 30
0.0
 11
28.489046
 21
1.921257
 31
0.0
  0
SPLINE
  5
278
100
AcDbEntity
  8
Layer_1
 62
7
100
AcDbSpline
 70
8
 71
3
 72
8
 73
4
 74
0
 40
0
 40
0
 40
0
 40
0
 40
1
 40
1
 40
1
 40
1
 10
14.609873
 20
9.318528
 30
0.0
 10
14.832187
 20
9.527005
 30
0.0
 10
15.014081
 20
9.791617
 30
0.0
 10
15.014081
 20
9.906594
 30
0.0
  0
SPLINE
  5
279
100
AcDbEntity
  8
Layer_1
 62
7
100
AcDbSpline
 70
8
 71
3
 72
8
 73
4
 74
0
 40
0
 40
0
 40
0
 40
0
 40
1
 40
1
 40
1
 40
1
 10
15.014081
 20
9.906594
 30
0.0
 10
15.014081
 20
10.214809
 30
0.0
 10
14.616144
 20
10.558499
 30
0.0
 10
14.265193
 20
10.553391
 30
0.0
  0
SPLINE
  5
27a
100
AcDbEntity
  8
Layer_1
 62
7
100
AcDbSpline
 70
8
 71
3
 72
8
 73
4
 74
0
 40
0
 40
0
 40
0
 40
0
 40
1
 40
1
 40
1
 40
1
 10
14.265193
 20
10.553391
 30
0.0
 10
13.550657
 20
10.542949
 30
0.0
 10
13.200397
 20
9.806349
 30
0.0
 10
13.747505
 20
9.464691
 30
0.0
  0
SPLINE
  5
27b
100
AcDbEntity
  8
Layer_1
 62
7
100
AcDbSpline
 70
8
 71
3
 72
8
 73
4
 74
0
 40
0
 40
0
 40
0
 40
0
 40
1
 40
1
 40
1
 40
1
 10
13.747505
 20
9.464691
 30
0.0
 10
13.911273
 20
9.362385
 30
0.0
 10
14.033612
 20
9.127576
 30
0.0
 10
14.040077
 20
8.903068
 30
0.0
  0
SPLINE
  5
27c
100
AcDbEntity
  8
Layer_1
 62
7
100
AcDbSpline
 70
8
 71
3
 72
8
 73
4
 74
0
 40
0
 40
0
 40
0
 40
0
 40
1
 40
1
 40
1
 40
1
 10
14.040077
 20
8.903068
 30
0.0
 10
14.046359
 20
8.684882
 30
0.0
 10
14.084745
 20
8.608993
 30
0.0
 10
14.128426
 20
8.728345
 30
0.0
  0
SPLINE
  5
27d
100
AcDbEntity
  8
Layer_1
 62
7
100
AcDbSpline
 70
8
 71
3
 72
8
 73
4
 74
0
 40
0
 40
0
 40
0
 40
0
 40
1
 40
1
 40
1
 40
1
 10
14.128426
 20
8.728345
 30
0.0
 10
14.170907
 20
8.844451
 30
0.0
 10
14.387559
 20
9.110050
 30
0.0
 10
14.609873
 20
9.318528
 30
0.0
  0
LINE
  5
27e
100
AcDbEntity
  8
Layer_1
 62
7
100
AcDbLine
 10
14.609873
 20
9.318528
 30
0.0
 11
14.609873
 21
9.318528
 31
0.0
  0
SPLINE
  5
27f
100
AcDbEntity
  8
Layer_1
 62
7
100
AcDbSpline
 70
8
 71
3
 72
8
 73
4
 74
0
 40
0
 40
0
 40
0
 40
0
 40
1
 40
1
 40
1
 40
1
 10
38.774985
 20
12.323630
 30
0.0
 10
38.992641
 20
12.801319
 30
0.0
 10
38.981484
 20
12.950784
 30
0.0
 10
38.705398
 20
13.255838
 30
0.0
  0
SPLINE
  5
280
100
AcDbEntity
  8
Layer_1
 62
7
100
AcDbSpline
 70
8
 71
3
 72
8
 73
4
 74
0
 40
0
 40
0
 40
0
 40
0
 40
1
 40
1
 40
1
 40
1
 10
38.705398
 20
13.255838
 30
0.0
 10
38.375672
 20
13.620187
 30
0.0
 10
37.862578
 20
13.579801
 30
0.0
 10
37.592937
 20
13.168265
 30
0.0
  0
SPLINE
  5
281
100
AcDbEntity
  8
Layer_1
 62
7
100
AcDbSpline
 70
8
 71
3
 72
8
 73
4
 74
0
 40
0
 40
0
 40
0
 40
0
 40
1
 40
1
 40
1
 40
1
 10
37.592937
 20
13.168265
 30
0.0
 10
37.217903
 20
12.595890
 30
0.0
 10
37.572786
 20
12.145096
 30
0.0
 10
38.528704
 20
11.979545
 30
0.0
  0
SPLINE
  5
282
100
AcDbEntity
  8
Layer_1
 62
7
100
AcDbSpline
 70
8
 71
3
 72
8
 73
4
 74
0
 40
0
 40
0
 40
0
 40
0
 40
1
 40
1
 40
1
 40
1
 10
38.528704
 20
11.979545
 30
0.0
 10
38.574331
 20
11.971642
 30
0.0
 10
38.685160
 20
12.126469
 30
0.0
 10
38.774985
 20
12.323630
 30
0.0
  0
LINE
  5
283
100
AcDbEntity
  8
Layer_1
 62
7
100
AcDbLine
 10
38.774985
 20
12.323630
 30
0.0
 11
38.774985
 21
12.323630
 31
0.0
  0
SPLINE
  5
284
100
AcDbEntity
  8
Layer_1
 62
7
100
AcDbSpline
 70
8
 71
3
 72
8
 73
4
 74
0
 40
0
 40
0
 40
0
 40
0
 40
1
 40
1
 40
1
 40
1
 10
42.681785
 20
12.213620
 30
0.0
 10
43.040701
 20
12.453255
 30
0.0
 10
43.153350
 20
12.897501
 30
0.0
 10
42.934458
 20
13.210005
 30
0.0
  0
SPLINE
  5
285
100
AcDbEntity
  8
Layer_1
 62
7
100
AcDbSpline
 70
8
 71
3
 72
8
 73
4
 74
0
 40
0
 40
0
 40
0
 40
0
 40
1
 40
1
 40
1
 40
1
 10
42.934458
 20
13.210005
 30
0.0
 10
42.535862
 20
13.779078
 30
0.0
 10
41.612188
 20
13.500779
 30
0.0
 10
41.612188
 20
12.811592
 30
0.0
  0
SPLINE
  5
286
100
AcDbEntity
  8
Layer_1
 62
7
100
AcDbSpline
 70
8
 71
3
 72
8
 73
4
 74
0
 40
0
 40
0
 40
0
 40
0
 40
1
 40
1
 40
1
 40
1
 10
41.612188
 20
12.811592
 30
0.0
 10
41.612188
 20
12.258493
 30
0.0
 10
42.230926
 20
11.912545
 30
0.0
 10
42.681785
 20
12.213620
 30
0.0
  0
LINE
  5
287
100
AcDbEntity
  8
Layer_1
 62
7
100
AcDbLine
 10
42.681785
 20
12.213620
 30
0.0
 11
42.681785
 21
12.213620
 31
0.0
  0
SPLINE
  5
288
100
AcDbEntity
  8
Layer_1
 62
7
100
AcDbSpline
 70
8
 71
3
 72
8
 73
4
 74
0
 40
0
 40
0
 40
0
 40
0
 40
1
 40
1
 40
1
 40
1
 10
30.072268
 20
28.289934
 30
0.0
 10
30.072268
 20
29.020148
 30
0.0
 10
30.036778
 20
29.134318
 30
0.0
 10
29.809787
 20
29.134318
 30
0.0
  0
SPLINE
  5
289
100
AcDbEntity
  8
Layer_1
 62
7
100
AcDbSpline
 70
8
 71
3
 72
8
 73
4
 74
0
 40
0
 40
0
 40
0
 40
0
 40
1
 40
1
 40
1
 40
1
 10
29.809787
 20
29.134318
 30
0.0
 10
29.457083
 20
29.134318
 30
0.0
 10
28.847771
 20
29.629852
 30
0.0
 10
28.591784
 20
30.124870
 30
0.0
  0
SPLINE
  5
28a
100
AcDbEntity
  8
Layer_1
 62
7
100
AcDbSpline
 70
8
 71
3
 72
8
 73
4
 74
0
 40
0
 40
0
 40
0
 40
0
 40
1
 40
1
 40
1
 40
1
 10
28.591784
 20
30.124870
 30
0.0
 10
28.297008
 20
30.694905
 30
0.0
 10
28.330358
 20
31.648952
 30
0.0
 10
28.664202
 20
32.196497
 30
0.0
  0
SPLINE
  5
28b
100
AcDbEntity
  8
Layer_1
 62
7
100
AcDbSpline
 70
8
 71
3
 72
8
 73
4
 74
0
 40
0
 40
0
 40
0
 40
0
 40
1
 40
1
 40
1
 40
1
 10
28.664202
 20
32.196497
 30
0.0
 10
29.755166
 20
33.985825
 30
0.0
 10
32.437234
 20
33.251824
 30
0.0
 10
32.484565
 20
31.150982
 30
0.0
  0
SPLINE
  5
28c
100
AcDbEntity
  8
Layer_1
 62
7
100
AcDbSpline
 70
8
 71
3
 72
8
 73
4
 74
0
 40
0
 40
0
 40
0
 40
0
 40
1
 40
1
 40
1
 40
1
 10
32.484565
 20
31.150982
 30
0.0
 10
32.503897
 20
30.293393
 30
0.0
 10
32.169854
 20
29.729273
 30
0.0
 10
31.328064
 20
29.197877
 30
0.0
  0
SPLINE
  5
28d
100
AcDbEntity
  8
Layer_1
 62
7
100
AcDbSpline
 70
8
 71
3
 72
8
 73
4
 74
0
 40
0
 40
0
 40
0
 40
0
 40
1
 40
1
 40
1
 40
1
 10
31.328064
 20
29.197877
 30
0.0
 10
30.811154
 20
28.871569
 30
0.0
 10
30.786112
 20
28.822104
 30
0.0
 10
30.815447
 20
28.185363
 30
0.0
  0
SPLINE
  5
28e
100
AcDbEntity
  8
Layer_1
 62
7
100
AcDbSpline
 70
8
 71
3
 72
8
 73
4
 74
0
 40
0
 40
0
 40
0
 40
0
 40
1
 40
1
 40
1
 40
1
 10
30.815447
 20
28.185363
 30
0.0
 10
30.843133
 20
27.584565
 30
0.0
 10
30.882367
 20
27.512133
 30
0.0
 10
31.198114
 20
27.479059
 30
0.0
  0
SPLINE
  5
28f
100
AcDbEntity
  8
Layer_1
 62
7
100
AcDbSpline
 70
8
 71
3
 72
8
 73
4
 74
0
 40
0
 40
0
 40
0
 40
0
 40
1
 40
1
 40
1
 40
1
 10
31.198114
 20
27.479059
 30
0.0
 10
31.757541
 20
27.420459
 30
0.0
 10
33.171742
 20
28.296327
 30
0.0
 10
33.754119
 20
29.062092
 30
0.0
  0
SPLINE
  5
290
100
AcDbEntity
  8
Layer_1
 62
7
100
AcDbSpline
 70
8
 71
3
 72
8
 73
4
 74
0
 40
0
 40
0
 40
0
 40
0
 40
1
 40
1
 40
1
 40
1
 10
33.754119
 20
29.062092
 30
0.0
 10
34.410678
 20
29.925401
 30
0.0
 10
34.633543
 20
30.722673
 30
0.0
 10
34.540904
 20
31.876753
 30
0.0
  0
SPLINE
  5
291
100
AcDbEntity
  8
Layer_1
 62
7
100
AcDbSpline
 70
8
 71
3
 72
8
 73
4
 74
0
 40
0
 40
0
 40
0
 40
0
 40
1
 40
1
 40
1
 40
1
 10
34.540904
 20
31.876753
 30
0.0
 10
34.460352
 20
32.880259
 30
0.0
 10
34.084511
 20
33.741553
 30
0.0
 10
33.427117
 20
34.429154
 30
0.0
  0
SPLINE
  5
292
100
AcDbEntity
  8
Layer_1
 62
7
100
AcDbSpline
 70
8
 71
3
 72
8
 73
4
 74
0
 40
0
 40
0
 40
0
 40
0
 40
1
 40
1
 40
1
 40
1
 10
33.427117
 20
34.429154
 30
0.0
 10
32.247044
 20
35.663456
 30
0.0
 10
30.177740
 20
36.012799
 30
0.0
 10
28.605805
 20
35.243097
 30
0.0
  0
SPLINE
  5
293
100
AcDbEntity
  8
Layer_1
 62
7
100
AcDbSpline
 70
8
 71
3
 72
8
 73
4
 74
0
 40
0
 40
0
 40
0
 40
0
 40
1
 40
1
 40
1
 40
1
 10
28.605805
 20
35.243097
 30
0.0
 10
27.282070
 20
34.594926
 30
0.0
 10
26.484782
 20
33.432105
 30
0.0
 10
26.335496
 20
31.931916
 30
0.0
  0
SPLINE
  5
294
100
AcDbEntity
  8
Layer_1
 62
7
100
AcDbSpline
 70
8
 71
3
 72
8
 73
4
 74
0
 40
0
 40
0
 40
0
 40
0
 40
1
 40
1
 40
1
 40
1
 10
26.335496
 20
31.931916
 30
0.0
 10
26.166297
 20
30.231635
 30
0.0
 10
27.041308
 20
28.630980
 30
0.0
 10
28.552905
 20
27.875632
 30
0.0
  0
SPLINE
  5
295
100
AcDbEntity
  8
Layer_1
 62
7
100
AcDbSpline
 70
8
 71
3
 72
8
 73
4
 74
0
 40
0
 40
0
 40
0
 40
0
 40
1
 40
1
 40
1
 40
1
 10
28.552905
 20
27.875632
 30
0.0
 10
29.026271
 20
27.639088
 30
0.0
 10
29.561779
 20
27.445551
 30
0.0
 10
29.742917
 20
27.445551
 30
0.0
  0
SPLINE
  5
296
100
AcDbEntity
  8
Layer_1
 62
7
100
AcDbSpline
 70
8
 71
3
 72
8
 73
4
 74
0
 40
0
 40
0
 40
0
 40
0
 40
1
 40
1
 40
1
 40
1
 10
29.742917
 20
27.445551
 30
0.0
 10
30.051637
 20
27.445551
 30
0.0
 10
30.072268
 20
27.498448
 30
0.0
 10
30.072268
 20
28.289934
 30
0.0
  0
LINE
  5
297
100
AcDbEntity
  8
Layer_1
 62
7
100
AcDbLine
 10
30.072268
 20
28.289934
 30
0.0
 11
30.072268
 21
28.289934
 31
0.0
  0
SPLINE
  5
298
100
AcDbEntity
  8
Layer_1
 62
7
100
AcDbSpline
 70
8
 71
3
 72
8
 73
4
 74
0
 40
0
 40
0
 40
0
 40
0
 40
1
 40
1
 40
1
 40
1
 10
24.557091
 20
29.199923
 30
0.0
 10
24.597346
 20
29.823646
 30
0.0
 10
24.562679
 20
29.908216
 30
0.0
 10
24.115709
 20
30.276646
 30
0.0
  0
SPLINE
  5
299
100
AcDbEntity
  8
Layer_1
 62
7
100
AcDbSpline
 70
8
 71
3
 72
8
 73
4
 74
0
 40
0
 40
0
 40
0
 40
0
 40
1
 40
1
 40
1
 40
1
 10
24.115709
 20
30.276646
 30
0.0
 10
23.510218
 20
30.775745
 30
0.0
 10
23.379485
 20
31.248541
 30
0.0
 10
23.674856
 20
31.870990
 30
0.0
  0
SPLINE
  5
29a
100
AcDbEntity
  8
Layer_1
 62
7
100
AcDbSpline
 70
8
 71
3
 72
8
 73
4
 74
0
 40
0
 40
0
 40
0
 40
0
 40
1
 40
1
 40
1
 40
1
 10
23.674856
 20
31.870990
 30
0.0
 10
23.972499
 20
32.498226
 30
0.0
 10
24.592563
 20
32.766145
 30
0.0
 10
25.199281
 20
32.529671
 30
0.0
  0
SPLINE
  5
29b
100
AcDbEntity
  8
Layer_1
 62
7
100
AcDbSpline
 70
8
 71
3
 72
8
 73
4
 74
0
 40
0
 40
0
 40
0
 40
0
 40
1
 40
1
 40
1
 40
1
 10
25.199281
 20
32.529671
 30
0.0
 10
25.441265
 20
32.435358
 30
0.0
 10
25.693169
 20
32.345273
 30
0.0
 10
25.759070
 20
32.329477
 30
0.0
  0
SPLINE
  5
29c
100
AcDbEntity
  8
Layer_1
 62
7
100
AcDbSpline
 70
8
 71
3
 72
8
 73
4
 74
0
 40
0
 40
0
 40
0
 40
0
 40
1
 40
1
 40
1
 40
1
 10
25.759070
 20
32.329477
 30
0.0
 10
25.824972
 20
32.313701
 30
0.0
 10
25.959103
 20
32.564224
 30
0.0
 10
26.057138
 20
32.886234
 30
0.0
  0
SPLINE
  5
29d
100
AcDbEntity
  8
Layer_1
 62
7
100
AcDbSpline
 70
8
 71
3
 72
8
 73
4
 74
0
 40
0
 40
0
 40
0
 40
0
 40
1
 40
1
 40
1
 40
1
 10
26.057138
 20
32.886234
 30
0.0
 10
26.155174
 20
33.208247
 30
0.0
 10
26.370620
 20
33.661631
 30
0.0
 10
26.535910
 20
33.893756
 30
0.0
  0
SPLINE
  5
29e
100
AcDbEntity
  8
Layer_1
 62
7
100
AcDbSpline
 70
8
 71
3
 72
8
 73
4
 74
0
 40
0
 40
0
 40
0
 40
0
 40
1
 40
1
 40
1
 40
1
 10
26.535910
 20
33.893756
 30
0.0
 10
26.908208
 20
34.416601
 30
0.0
 10
26.819817
 20
34.671532
 30
0.0
 10
26.156104
 20
34.989145
 30
0.0
  0
SPLINE
  5
29f
100
AcDbEntity
  8
Layer_1
 62
7
100
AcDbSpline
 70
8
 71
3
 72
8
 73
4
 74
0
 40
0
 40
0
 40
0
 40
0
 40
1
 40
1
 40
1
 40
1
 10
26.156104
 20
34.989145
 30
0.0
 10
24.463075
 20
35.799332
 30
0.0
 10
22.562716
 20
34.664750
 30
0.0
 10
22.056619
 20
32.541609
 30
0.0
  0
SPLINE
  5
2a0
100
AcDbEntity
  8
Layer_1
 62
7
100
AcDbSpline
 70
8
 71
3
 72
8
 73
4
 74
0
 40
0
 40
0
 40
0
 40
0
 40
1
 40
1
 40
1
 40
1
 10
22.056619
 20
32.541609
 30
0.0
 10
21.846294
 20
31.659264
 30
0.0
 10
22.004877
 20
30.823113
 30
0.0
 10
22.564784
 20
29.862234
 30
0.0
  0
SPLINE
  5
2a1
100
AcDbEntity
  8
Layer_1
 62
7
100
AcDbSpline
 70
8
 71
3
 72
8
 73
4
 74
0
 40
0
 40
0
 40
0
 40
0
 40
1
 40
1
 40
1
 40
1
 10
22.564784
 20
29.862234
 30
0.0
 10
22.911272
 20
29.267612
 30
0.0
 10
24.068818
 20
28.377054
 30
0.0
 10
24.367672
 20
28.475179
 30
0.0
  0
SPLINE
  5
2a2
100
AcDbEntity
  8
Layer_1
 62
7
100
AcDbSpline
 70
8
 71
3
 72
8
 73
4
 74
0
 40
0
 40
0
 40
0
 40
0
 40
1
 40
1
 40
1
 40
1
 10
24.367672
 20
28.475179
 30
0.0
 10
24.447825
 20
28.501511
 30
0.0
 10
24.533063
 20
28.827636
 30
0.0
 10
24.557091
 20
29.199923
 30
0.0
  0
LINE
  5
2a3
100
AcDbEntity
  8
Layer_1
 62
7
100
AcDbLine
 10
24.557091
 20
29.199923
 30
0.0
 11
24.557091
 21
29.199923
 31
0.0
  0
SPLINE
  5
2a4
100
AcDbEntity
  8
Layer_1
 62
7
100
AcDbSpline
 70
8
 71
3
 72
8
 73
4
 74
0
 40
0
 40
0
 40
0
 40
0
 40
1
 40
1
 40
1
 40
1
 10
26.138796
 20
28.645376
 30
0.0
 10
26.599942
 20
28.883843
 30
0.0
 10
26.645143
 20
29.072345
 30
0.0
 10
26.338429
 20
29.477861
 30
0.0
  0
SPLINE
  5
2a5
100
AcDbEntity
  8
Layer_1
 62
7
100
AcDbSpline
 70
8
 71
3
 72
8
 73
4
 74
0
 40
0
 40
0
 40
0
 40
0
 40
1
 40
1
 40
1
 40
1
 10
26.338429
 20
29.477861
 30
0.0
 10
26.224788
 20
29.628108
 30
0.0
 10
26.131808
 20
29.861853
 30
0.0
 10
26.131808
 20
29.997294
 30
0.0
  0
SPLINE
  5
2a6
100
AcDbEntity
  8
Layer_1
 62
7
100
AcDbSpline
 70
8
 71
3
 72
8
 73
4
 74
0
 40
0
 40
0
 40
0
 40
0
 40
1
 40
1
 40
1
 40
1
 10
26.131808
 20
29.997294
 30
0.0
 10
26.131808
 20
30.370663
 30
0.0
 10
25.897718
 20
30.438425
 30
0.0
 10
25.502494
 20
30.179463
 30
0.0
  0
SPLINE
  5
2a7
100
AcDbEntity
  8
Layer_1
 62
7
100
AcDbSpline
 70
8
 71
3
 72
8
 73
4
 74
0
 40
0
 40
0
 40
0
 40
0
 40
1
 40
1
 40
1
 40
1
 10
25.502494
 20
30.179463
 30
0.0
 10
25.194822
 20
29.977869
 30
0.0
 10
25.146693
 20
29.843816
 30
0.0
 10
25.146693
 20
29.188499
 30
0.0
  0
SPLINE
  5
2a8
100
AcDbEntity
  8
Layer_1
 62
7
100
AcDbSpline
 70
8
 71
3
 72
8
 73
4
 74
0
 40
0
 40
0
 40
0
 40
0
 40
1
 40
1
 40
1
 40
1
 10
25.146693
 20
29.188499
 30
0.0
 10
25.146693
 20
28.518368
 30
0.0
 10
25.180074
 20
28.430665
 30
0.0
 10
25.435142
 20
28.430665
 30
0.0
  0
SPLINE
  5
2a9
100
AcDbEntity
  8
Layer_1
 62
7
100
AcDbSpline
 70
8
 71
3
 72
8
 73
4
 74
0
 40
0
 40
0
 40
0
 40
0
 40
1
 40
1
 40
1
 40
1
 10
25.435142
 20
28.430665
 30
0.0
 10
25.593790
 20
28.430665
 30
0.0
 10
25.910433
 20
28.527283
 30
0.0
 10
26.138796
 20
28.645376
 30
0.0
  0
LINE
  5
2aa
100
AcDbEntity
  8
Layer_1
 62
7
100
AcDbLine
 10
26.138796
 20
28.645376
 30
0.0
 11
26.138796
 21
28.645376
 31
0.0
  0
SPLINE
  5
2ab
100
AcDbEntity
  8
Layer_1
 62
7
100
AcDbSpline
 70
8
 71
3
 72
8
 73
4
 74
0
 40
0
 40
0
 40
0
 40
0
 40
1
 40
1
 40
1
 40
1
 10
21.866149
 20
29.645516
 30
0.0
 10
21.914636
 20
29.771875
 30
0.0
 10
21.885131
 20
29.986028
 30
0.0
 10
21.800581
 20
30.121410
 30
0.0
  0
SPLINE
  5
2ac
100
AcDbEntity
  8
Layer_1
 62
7
100
AcDbSpline
 70
8
 71
3
 72
8
 73
4
 74
0
 40
0
 40
0
 40
0
 40
0
 40
1
 40
1
 40
1
 40
1
 10
21.800581
 20
30.121410
 30
0.0
 10
21.716031
 20
30.256798
 30
0.0
 10
21.577376
 20
30.750709
 30
0.0
 10
21.492461
 20
31.218995
 30
0.0
  0
SPLINE
  5
2ad
100
AcDbEntity
  8
Layer_1
 62
7
100
AcDbSpline
 70
8
 71
3
 72
8
 73
4
 74
0
 40
0
 40
0
 40
0
 40
0
 40
1
 40
1
 40
1
 40
1
 10
21.492461
 20
31.218995
 30
0.0
 10
20.913278
 20
34.412997
 30
0.0
 10
24.335747
 20
36.965691
 30
0.0
 10
26.822836
 20
35.194730
 30
0.0
  0
SPLINE
  5
2ae
100
AcDbEntity
  8
Layer_1
 62
7
100
AcDbSpline
 70
8
 71
3
 72
8
 73
4
 74
0
 40
0
 40
0
 40
0
 40
0
 40
1
 40
1
 40
1
 40
1
 10
26.822836
 20
35.194730
 30
0.0
 10
27.048720
 20
35.033886
 30
0.0
 10
27.254794
 20
34.950232
 30
0.0
 10
27.280776
 20
35.008830
 30
0.0
  0
SPLINE
  5
2af
100
AcDbEntity
  8
Layer_1
 62
7
100
AcDbSpline
 70
8
 71
3
 72
8
 73
4
 74
0
 40
0
 40
0
 40
0
 40
0
 40
1
 40
1
 40
1
 40
1
 10
27.280776
 20
35.008830
 30
0.0
 10
27.375884
 20
35.223324
 30
0.0
 10
28.494787
 20
35.868056
 30
0.0
 10
29.029643
 20
36.016558
 30
0.0
  0
SPLINE
  5
2b0
100
AcDbEntity
  8
Layer_1
 62
7
100
AcDbSpline
 70
8
 71
3
 72
8
 73
4
 74
0
 40
0
 40
0
 40
0
 40
0
 40
1
 40
1
 40
1
 40
1
 10
29.029643
 20
36.016558
 30
0.0
 10
29.822484
 20
36.236689
 30
0.0
 10
31.403558
 20
36.206395
 30
0.0
 10
31.993840
 20
35.959758
 30
0.0
  0
SPLINE
  5
2b1
100
AcDbEntity
  8
Layer_1
 62
7
100
AcDbSpline
 70
8
 71
3
 72
8
 73
4
 74
0
 40
0
 40
0
 40
0
 40
0
 40
1
 40
1
 40
1
 40
1
 10
31.993840
 20
35.959758
 30
0.0
 10
32.639756
 20
35.689877
 30
0.0
 10
32.758270
 20
35.694066
 30
0.0
 10
32.647455
 20
35.982844
 30
0.0
  0
SPLINE
  5
2b2
100
AcDbEntity
  8
Layer_1
 62
7
100
AcDbSpline
 70
8
 71
3
 72
8
 73
4
 74
0
 40
0
 40
0
 40
0
 40
0
 40
1
 40
1
 40
1
 40
1
 10
32.647455
 20
35.982844
 30
0.0
 10
32.594189
 20
36.121655
 30
0.0
 10
32.614754
 20
36.181698
 30
0.0
 10
32.697953
 20
36.130277
 30
0.0
  0
SPLINE
  5
2b3
100
AcDbEntity
  8
Layer_1
 62
7
100
AcDbSpline
 70
8
 71
3
 72
8
 73
4
 74
0
 40
0
 40
0
 40
0
 40
0
 40
1
 40
1
 40
1
 40
1
 10
32.697953
 20
36.130277
 30
0.0
 10
32.900089
 20
36.005351
 30
0.0
 10
32.783405
 20
37.733595
 30
0.0
 10
32.514681
 20
38.844738
 30
0.0
  0
SPLINE
  5
2b4
100
AcDbEntity
  8
Layer_1
 62
7
100
AcDbSpline
 70
8
 71
3
 72
8
 73
4
 74
0
 40
0
 40
0
 40
0
 40
0
 40
1
 40
1
 40
1
 40
1
 10
32.514681
 20
38.844738
 30
0.0
 10
32.393004
 20
39.347853
 30
0.0
 10
32.157825
 20
40.005210
 30
0.0
 10
31.992062
 20
40.305537
 30
0.0
  0
SPLINE
  5
2b5
100
AcDbEntity
  8
Layer_1
 62
7
100
AcDbSpline
 70
8
 71
3
 72
8
 73
4
 74
0
 40
0
 40
0
 40
0
 40
0
 40
1
 40
1
 40
1
 40
1
 10
31.992062
 20
40.305537
 30
0.0
 10
31.826299
 20
40.605864
 30
0.0
 10
31.628156
 20
40.970007
 30
0.0
 10
31.551753
 20
41.114739
 30
0.0
  0
SPLINE
  5
2b6
100
AcDbEntity
  8
Layer_1
 62
7
100
AcDbSpline
 70
8
 71
3
 72
8
 73
4
 74
0
 40
0
 40
0
 40
0
 40
0
 40
1
 40
1
 40
1
 40
1
 10
31.551753
 20
41.114739
 30
0.0
 10
31.383698
 20
41.433077
 30
0.0
 10
31.286845
 20
41.443276
 30
0.0
 10
31.057384
 20
41.166795
 30
0.0
  0
SPLINE
  5
2b7
100
AcDbEntity
  8
Layer_1
 62
7
100
AcDbSpline
 70
8
 71
3
 72
8
 73
4
 74
0
 40
0
 40
0
 40
0
 40
0
 40
1
 40
1
 40
1
 40
1
 10
31.057384
 20
41.166795
 30
0.0
 10
30.792414
 20
40.847525
 30
0.0
 10
29.936996
 20
40.901509
 30
0.0
 10
29.553600
 20
41.261689
 30
0.0
  0
SPLINE
  5
2b8
100
AcDbEntity
  8
Layer_1
 62
7
100
AcDbSpline
 70
8
 71
3
 72
8
 73
4
 74
0
 40
0
 40
0
 40
0
 40
0
 40
1
 40
1
 40
1
 40
1
 10
29.553600
 20
41.261689
 30
0.0
 10
29.162005
 20
41.629571
 30
0.0
 10
29.138324
 20
42.143207
 30
0.0
 10
29.486595
 20
42.714832
 30
0.0
  0
LINE
  5
2b9
100
AcDbEntity
  8
Layer_1
 62
7
100
AcDbLine
 10
29.486595
 20
42.714832
 30
0.0
 11
29.743821
 21
43.137025
 31
0.0
  0
LINE
  5
2ba
100
AcDbEntity
  8
Layer_1
 62
7
100
AcDbLine
 10
29.743821
 20
43.137025
 30
0.0
 11
29.028477
 21
43.611485
 31
0.0
  0
SPLINE
  5
2bb
100
AcDbEntity
  8
Layer_1
 62
7
100
AcDbSpline
 70
8
 71
3
 72
8
 73
4
 74
0
 40
0
 40
0
 40
0
 40
0
 40
1
 40
1
 40
1
 40
1
 10
29.028477
 20
43.611485
 30
0.0
 10
28.233314
 20
44.138885
 30
0.0
 10
27.581395
 20
44.405927
 30
0.0
 10
26.378484
 20
44.697000
 30
0.0
  0
SPLINE
  5
2bc
100
AcDbEntity
  8
Layer_1
 62
7
100
AcDbSpline
 70
8
 71
3
 72
8
 73
4
 74
0
 40
0
 40
0
 40
0
 40
0
 40
1
 40
1
 40
1
 40
1
 10
26.378484
 20
44.697000
 30
0.0
 10
25.598467
 20
44.885738
 30
0.0
 10
25.541223
 20
44.879690
 30
0.0
 10
24.770249
 20
44.527040
 30
0.0
  0
SPLINE
  5
2bd
100
AcDbEntity
  8
Layer_1
 62
7
100
AcDbSpline
 70
8
 71
3
 72
8
 73
4
 74
0
 40
0
 40
0
 40
0
 40
0
 40
1
 40
1
 40
1
 40
1
 10
24.770249
 20
44.527040
 30
0.0
 10
23.989244
 20
44.169800
 30
0.0
 10
23.960853
 20
44.167062
 30
0.0
 10
23.538459
 20
44.408334
 30
0.0
  0
SPLINE
  5
2be
100
AcDbEntity
  8
Layer_1
 62
7
100
AcDbSpline
 70
8
 71
3
 72
8
 73
4
 74
0
 40
0
 40
0
 40
0
 40
0
 40
1
 40
1
 40
1
 40
1
 10
23.538459
 20
44.408334
 30
0.0
 10
23.300660
 20
44.544162
 30
0.0
 10
22.979440
 20
44.762458
 30
0.0
 10
22.824636
 20
44.893432
 30
0.0
  0
SPLINE
  5
2bf
100
AcDbEntity
  8
Layer_1
 62
7
100
AcDbSpline
 70
8
 71
3
 72
8
 73
4
 74
0
 40
0
 40
0
 40
0
 40
0
 40
1
 40
1
 40
1
 40
1
 10
22.824636
 20
44.893432
 30
0.0
 10
22.669832
 20
45.024408
 30
0.0
 10
22.331751
 20
45.276893
 30
0.0
 10
22.073345
 20
45.454509
 30
0.0
  0
LINE
  5
2c0
100
AcDbEntity
  8
Layer_1
 62
7
100
AcDbLine
 10
22.073345
 20
45.454509
 30
0.0
 11
21.603514
 21
45.777448
 31
0.0
  0
LINE
  5
2c1
100
AcDbEntity
  8
Layer_1
 62
7
100
AcDbLine
 10
21.603514
 20
45.777448
 30
0.0
 11
20.771586
 21
44.954200
 31
0.0
  0
SPLINE
  5
2c2
100
AcDbEntity
  8
Layer_1
 62
7
100
AcDbSpline
 70
8
 71
3
 72
8
 73
4
 74
0
 40
0
 40
0
 40
0
 40
0
 40
1
 40
1
 40
1
 40
1
 10
20.771586
 20
44.954200
 30
0.0
 10
20.314024
 20
44.501414
 30
0.0
 10
19.939656
 20
44.073384
 30
0.0
 10
19.939656
 20
44.003029
 30
0.0
  0
SPLINE
  5
2c3
100
AcDbEntity
  8
Layer_1
 62
7
100
AcDbSpline
 70
8
 71
3
 72
8
 73
4
 74
0
 40
0
 40
0
 40
0
 40
0
 40
1
 40
1
 40
1
 40
1
 10
19.939656
 20
44.003029
 30
0.0
 10
19.939656
 20
43.932668
 30
0.0
 10
20.267542
 20
43.432811
 30
0.0
 10
20.668291
 20
42.892231
 30
0.0
  0
SPLINE
  5
2c4
100
AcDbEntity
  8
Layer_1
 62
7
100
AcDbSpline
 70
8
 71
3
 72
8
 73
4
 74
0
 40
0
 40
0
 40
0
 40
0
 40
1
 40
1
 40
1
 40
1
 10
20.668291
 20
42.892231
 30
0.0
 10
21.386958
 20
41.922806
 30
0.0
 10
21.394792
 20
41.901377
 30
0.0
 10
21.240950
 20
41.326174
 30
0.0
  0
SPLINE
  5
2c5
100
AcDbEntity
  8
Layer_1
 62
7
100
AcDbSpline
 70
8
 71
3
 72
8
 73
4
 74
0
 40
0
 40
0
 40
0
 40
0
 40
1
 40
1
 40
1
 40
1
 10
21.240950
 20
41.326174
 30
0.0
 10
21.155162
 20
41.005423
 30
0.0
 10
20.943570
 20
40.426709
 30
0.0
 10
20.770747
 20
40.040144
 30
0.0
  0
SPLINE
  5
2c6
100
AcDbEntity
  8
Layer_1
 62
7
100
AcDbSpline
 70
8
 71
3
 72
8
 73
4
 74
0
 40
0
 40
0
 40
0
 40
0
 40
1
 40
1
 40
1
 40
1
 10
20.770747
 20
40.040144
 30
0.0
 10
20.597923
 20
39.653576
 30
0.0
 10
20.464407
 20
39.297230
 30
0.0
 10
20.474046
 20
39.248262
 30
0.0
  0
SPLINE
  5
2c7
100
AcDbEntity
  8
Layer_1
 62
7
100
AcDbSpline
 70
8
 71
3
 72
8
 73
4
 74
0
 40
0
 40
0
 40
0
 40
0
 40
1
 40
1
 40
1
 40
1
 10
20.474046
 20
39.248262
 30
0.0
 10
20.483684
 20
39.199294
 30
0.0
 10
20.256564
 20
39.153565
 30
0.0
 10
19.969335
 20
39.146645
 30
0.0
  0
SPLINE
  5
2c8
100
AcDbEntity
  8
Layer_1
 62
7
100
AcDbSpline
 70
8
 71
3
 72
8
 73
4
 74
0
 40
0
 40
0
 40
0
 40
0
 40
1
 40
1
 40
1
 40
1
 10
19.969335
 20
39.146645
 30
0.0
 10
19.682105
 20
39.139731
 30
0.0
 10
19.035649
 20
39.047622
 30
0.0
 10
18.532766
 20
38.941964
 30
0.0
  0
SPLINE
  5
2c9
100
AcDbEntity
  8
Layer_1
 62
7
100
AcDbSpline
 70
8
 71
3
 72
8
 73
4
 74
0
 40
0
 40
0
 40
0
 40
0
 40
1
 40
1
 40
1
 40
1
 10
18.532766
 20
38.941964
 30
0.0
 10
17.707686
 20
38.768614
 30
0.0
 10
17.619463
 20
38.716713
 30
0.0
 10
17.628986
 20
38.410291
 30
0.0
  0
SPLINE
  5
2ca
100
AcDbEntity
  8
Layer_1
 62
7
100
AcDbSpline
 70
8
 71
3
 72
8
 73
4
 74
0
 40
0
 40
0
 40
0
 40
0
 40
1
 40
1
 40
1
 40
1
 10
17.628986
 20
38.410291
 30
0.0
 10
17.634786
 20
38.223525
 30
0.0
 10
17.650438
 20
37.678793
 30
0.0
 10
17.663752
 20
37.199775
 30
0.0
  0
LINE
  5
2cb
100
AcDbEntity
  8
Layer_1
 62
7
100
AcDbLine
 10
17.663752
 20
37.199775
 30
0.0
 11
17.687964
 21
36.328831
 31
0.0
  0
LINE
  5
2cc
100
AcDbEntity
  8
Layer_1
 62
7
100
AcDbLine
 10
17.687964
 20
36.328831
 30
0.0
 11
18.356435
 21
36.238071
 31
0.0
  0
SPLINE
  5
2cd
100
AcDbEntity
  8
Layer_1
 62
7
100
AcDbSpline
 70
8
 71
3
 72
8
 73
4
 74
0
 40
0
 40
0
 40
0
 40
0
 40
1
 40
1
 40
1
 40
1
 10
18.356435
 20
36.238071
 30
0.0
 10
18.724093
 20
36.188152
 30
0.0
 10
19.309885
 20
36.071879
 30
0.0
 10
19.658194
 20
35.979683
 30
0.0
  0
SPLINE
  5
2ce
100
AcDbEntity
  8
Layer_1
 62
7
100
AcDbSpline
 70
8
 71
3
 72
8
 73
4
 74
0
 40
0
 40
0
 40
0
 40
0
 40
1
 40
1
 40
1
 40
1
 10
19.658194
 20
35.979683
 30
0.0
 10
20.228872
 20
35.828632
 30
0.0
 10
20.329219
 20
35.735880
 30
0.0
 10
20.673190
 20
35.041525
 30
0.0
  0
SPLINE
  5
2cf
100
AcDbEntity
  8
Layer_1
 62
7
100
AcDbSpline
 70
8
 71
3
 72
8
 73
4
 74
0
 40
0
 40
0
 40
0
 40
0
 40
1
 40
1
 40
1
 40
1
 10
20.673190
 20
35.041525
 30
0.0
 10
20.883129
 20
34.617729
 30
0.0
 10
21.057284
 20
34.163902
 30
0.0
 10
21.060199
 20
34.033016
 30
0.0
  0
SPLINE
  5
2d0
100
AcDbEntity
  8
Layer_1
 62
7
100
AcDbSpline
 70
8
 71
3
 72
8
 73
4
 74
0
 40
0
 40
0
 40
0
 40
0
 40
1
 40
1
 40
1
 40
1
 10
21.060199
 20
34.033016
 30
0.0
 10
21.063112
 20
33.902132
 30
0.0
 10
21.128830
 20
33.755904
 30
0.0
 10
21.206232
 20
33.708065
 30
0.0
  0
SPLINE
  5
2d1
100
AcDbEntity
  8
Layer_1
 62
7
100
AcDbSpline
 70
8
 71
3
 72
8
 73
4
 74
0
 40
0
 40
0
 40
0
 40
0
 40
1
 40
1
 40
1
 40
1
 10
21.206232
 20
33.708065
 30
0.0
 10
21.434873
 20
33.566756
 30
0.0
 10
21.354051
 20
33.178503
 30
0.0
 10
20.986515
 20
32.652585
 30
0.0
  0
SPLINE
  5
2d2
100
AcDbEntity
  8
Layer_1
 62
7
100
AcDbSpline
 70
8
 71
3
 72
8
 73
4
 74
0
 40
0
 40
0
 40
0
 40
0
 40
1
 40
1
 40
1
 40
1
 10
20.986515
 20
32.652585
 30
0.0
 10
19.769277
 20
30.910808
 30
0.0
 10
19.784746
 20
31.093886
 30
0.0
 10
20.771305
 20
30.105512
 30
0.0
  0
SPLINE
  5
2d3
100
AcDbEntity
  8
Layer_1
 62
7
100
AcDbSpline
 70
8
 71
3
 72
8
 73
4
 74
0
 40
0
 40
0
 40
0
 40
0
 40
1
 40
1
 40
1
 40
1
 10
20.771305
 20
30.105512
 30
0.0
 10
21.475554
 20
29.399971
 30
0.0
 10
21.730773
 20
29.292738
 30
0.0
 10
21.866147
 20
29.645516
 30
0.0
  0
LINE
  5
2d4
100
AcDbEntity
  8
Layer_1
 62
7
100
AcDbLine
 10
21.866147
 20
29.645516
 30
0.0
 11
21.866149
 21
29.645516
 31
0.0
  0
SPLINE
  5
2d5
100
AcDbEntity
  8
Layer_1
 62
7
100
AcDbSpline
 70
8
 71
3
 72
8
 73
4
 74
0
 40
0
 40
0
 40
0
 40
0
 40
1
 40
1
 40
1
 40
1
 10
22.472809
 20
49.675721
 30
0.0
 10
22.472809
 20
50.167395
 30
0.0
 10
23.018480
 20
51.426148
 30
0.0
 10
23.467733
 20
51.970812
 30
0.0
  0
SPLINE
  5
2d6
100
AcDbEntity
  8
Layer_1
 62
7
100
AcDbSpline
 70
8
 71
3
 72
8
 73
4
 74
0
 40
0
 40
0
 40
0
 40
0
 40
1
 40
1
 40
1
 40
1
 10
23.467733
 20
51.970812
 30
0.0
 10
23.995635
 20
52.610830
 30
0.0
 10
24.512176
 20
52.893241
 30
0.0
 10
25.633240
 20
53.154765
 30
0.0
  0
SPLINE
  5
2d7
100
AcDbEntity
  8
Layer_1
 62
7
100
AcDbSpline
 70
8
 71
3
 72
8
 73
4
 74
0
 40
0
 40
0
 40
0
 40
0
 40
1
 40
1
 40
1
 40
1
 10
25.633240
 20
53.154765
 30
0.0
 10
26.693098
 20
53.402014
 30
0.0
 10
27.411435
 20
53.256258
 30
0.0
 10
29.061864
 20
52.459065
 30
0.0
  0
SPLINE
  5
2d8
100
AcDbEntity
  8
Layer_1
 62
7
100
AcDbSpline
 70
8
 71
3
 72
8
 73
4
 74
0
 40
0
 40
0
 40
0
 40
0
 40
1
 40
1
 40
1
 40
1
 10
29.061864
 20
52.459065
 30
0.0
 10
30.901555
 20
51.570454
 30
0.0
 10
32.336573
 20
51.720483
 30
0.0
 10
32.808855
 20
52.850809
 30
0.0
  0
SPLINE
  5
2d9
100
AcDbEntity
  8
Layer_1
 62
7
100
AcDbSpline
 70
8
 71
3
 72
8
 73
4
 74
0
 40
0
 40
0
 40
0
 40
0
 40
1
 40
1
 40
1
 40
1
 10
32.808855
 20
52.850809
 30
0.0
 10
32.994857
 20
53.295980
 30
0.0
 10
33.064952
 20
53.340001
 30
0.0
 10
33.587775
 20
53.340001
 30
0.0
  0
SPLINE
  5
2da
100
AcDbEntity
  8
Layer_1
 62
7
100
AcDbSpline
 70
8
 71
3
 72
8
 73
4
 74
0
 40
0
 40
0
 40
0
 40
0
 40
1
 40
1
 40
1
 40
1
 10
33.587775
 20
53.340001
 30
0.0
 10
34.327332
 20
53.340001
 30
0.0
 10
34.416811
 20
53.109790
 30
0.0
 10
34.073962
 20
52.089142
 30
0.0
  0
SPLINE
  5
2db
100
AcDbEntity
  8
Layer_1
 62
7
100
AcDbSpline
 70
8
 71
3
 72
8
 73
4
 74
0
 40
0
 40
0
 40
0
 40
0
 40
1
 40
1
 40
1
 40
1
 10
34.073962
 20
52.089142
 30
0.0
 10
33.715195
 20
51.021123
 30
0.0
 10
32.668735
 20
49.958869
 30
0.0
 10
31.638138
 20
49.616559
 30
0.0
  0
SPLINE
  5
2dc
100
AcDbEntity
  8
Layer_1
 62
7
100
AcDbSpline
 70
8
 71
3
 72
8
 73
4
 74
0
 40
0
 40
0
 40
0
 40
0
 40
1
 40
1
 40
1
 40
1
 10
31.638138
 20
49.616559
 30
0.0
 10
30.507218
 20
49.240927
 30
0.0
 10
29.402377
 20
49.359790
 30
0.0
 10
28.070959
 20
50.000336
 30
0.0
  0
SPLINE
  5
2dd
100
AcDbEntity
  8
Layer_1
 62
7
100
AcDbSpline
 70
8
 71
3
 72
8
 73
4
 74
0
 40
0
 40
0
 40
0
 40
0
 40
1
 40
1
 40
1
 40
1
 10
28.070959
 20
50.000336
 30
0.0
 10
26.460253
 20
50.775245
 30
0.0
 10
25.825971
 20
50.882213
 30
0.0
 10
24.684039
 20
50.571514
 30
0.0
  0
SPLINE
  5
2de
100
AcDbEntity
  8
Layer_1
 62
7
100
AcDbSpline
 70
8
 71
3
 72
8
 73
4
 74
0
 40
0
 40
0
 40
0
 40
0
 40
1
 40
1
 40
1
 40
1
 10
24.684039
 20
50.571514
 30
0.0
 10
24.545683
 20
50.533869
 30
0.0
 10
24.275740
 20
50.254776
 30
0.0
 10
24.084167
 20
49.951306
 30
0.0
  0
SPLINE
  5
2df
100
AcDbEntity
  8
Layer_1
 62
7
100
AcDbSpline
 70
8
 71
3
 72
8
 73
4
 74
0
 40
0
 40
0
 40
0
 40
0
 40
1
 40
1
 40
1
 40
1
 10
24.084167
 20
49.951306
 30
0.0
 10
23.763389
 20
49.443159
 30
0.0
 10
23.685933
 20
49.399541
 30
0.0
 10
23.104333
 20
49.399541
 30
0.0
  0
SPLINE
  5
2e0
100
AcDbEntity
  8
Layer_1
 62
7
100
AcDbSpline
 70
8
 71
3
 72
8
 73
4
 74
0
 40
0
 40
0
 40
0
 40
0
 40
1
 40
1
 40
1
 40
1
 10
23.104333
 20
49.399541
 30
0.0
 10
22.570654
 20
49.399541
 30
0.0
 10
22.472809
 20
49.442329
 30
0.0
 10
22.472809
 20
49.675721
 30
0.0
  0
LINE
  5
2e1
100
AcDbEntity
  8
Layer_1
 62
7
100
AcDbLine
 10
22.472809
 20
49.675721
 30
0.0
 11
22.472809
 21
49.675721
 31
0.0
  0
ENDSEC
  0
SECTION
  2
OBJECTS
  0
DICTIONARY
  5
C
330
0
100
AcDbDictionary
  3
ACAD_GROUP
350
D
  3
ACAD_MLINESTYLE
350
17
  0
DICTIONARY
  5
D
330
C
100
AcDbDictionary
  0
DICTIONARY
  5
1A
330
C
100
AcDbDictionary
  0
DICTIONARY
  5
17
330
C
100
AcDbDictionary
  3
STANDARD
350
18
  0
DICTIONARY
  5
19
330
C
100
AcDbDictionary
  0
ENDSEC
  0
EOF
