<?xml version="1.0" encoding="UTF-8" standalone="no"?>
<!-- Created with Inkscape (http://www.inkscape.org/) -->

<svg
   xmlns:dc="http://purl.org/dc/elements/1.1/"
   xmlns:cc="http://creativecommons.org/ns#"
   xmlns:rdf="http://www.w3.org/1999/02/22-rdf-syntax-ns#"
   xmlns:svg="http://www.w3.org/2000/svg"
   xmlns="http://www.w3.org/2000/svg"
   xmlns:sodipodi="http://sodipodi.sourceforge.net/DTD/sodipodi-0.dtd"
   xmlns:inkscape="http://www.inkscape.org/namespaces/inkscape"
   width="80mm"
   height="98mm"
   id="svg3274"
   version="1.1"
   inkscape:version="0.91 r13725"
   sodipodi:docname="002_1.svg"
   inkscape:export-filename="/home/salvari/work/graphicsResources/BL/oshwi.png"
   inkscape:export-xdpi="90"
   inkscape:export-ydpi="90">
  <defs
     id="defs3276" />
  <sodipodi:namedview
     id="base"
     pagecolor="#ffffff"
     bordercolor="#666666"
     borderopacity="1.0"
     inkscape:pageopacity="0.0"
     inkscape:pageshadow="2"
     inkscape:zoom="2"
     inkscape:cx="178.77405"
     inkscape:cy="127.2257"
     inkscape:document-units="px"
     inkscape:current-layer="layer1"
     showgrid="false"
     inkscape:window-width="1920"
     inkscape:window-height="1137"
     inkscape:window-x="-8"
     inkscape:window-y="-8"
     inkscape:window-maximized="1"
     units="mm" />
  <metadata
     id="metadata3279">
    <rdf:RDF>
      <cc:Work
         rdf:about="">
        <dc:format>image/svg+xml</dc:format>
        <dc:type
           rdf:resource="http://purl.org/dc/dcmitype/StillImage" />
        <dc:title></dc:title>
      </cc:Work>
    </rdf:RDF>
  </metadata>
  <g
     inkscape:label="Layer 1"
     inkscape:groupmode="layer"
     id="layer1"
     transform="translate(0,-705.11813)">
    <path
       d="m 176.11879,774.5795 c 8.8989,11.8165 13.16525,27.06425 10.1115,42.30951"
       id="path33"
       inkscape:connector-curvature="0"
       style="fill:none" />
    <path
       d="m 135.70758,752.66448 c 12.47458,0.65173 23.88927,5.77777 32.75392,13.62781"
       id="path35"
       inkscape:connector-curvature="0"
       style="fill:none" />
    <path
       style="fill:none;stroke:#010202;stroke-width:0.03396736;stroke-miterlimit:10"
       inkscape:connector-curvature="0"
       id="path42"
       d="M 142.4113,874.84754"
       stroke-miterlimit="10" />
    <path
       style="fill:none;stroke:#010202;stroke-width:0.03396736;stroke-miterlimit:10"
       inkscape:connector-curvature="0"
       id="path44"
       d="M 154.18334,874.5457"
       stroke-miterlimit="10" />
    <path
       style="fill:none;stroke:#010202;stroke-width:0.03396736;stroke-miterlimit:10"
       inkscape:connector-curvature="0"
       id="path46"
       d="M 142.4113,874.51974"
       stroke-miterlimit="10" />
    <path
       style="fill:none;stroke:#010202;stroke-width:0.03396736;stroke-miterlimit:10"
       inkscape:connector-curvature="0"
       id="path48"
       d="M 153.99445,879.15891"
       stroke-miterlimit="10" />
    <path
       style="fill:none;stroke:#010202;stroke-width:0.03396736;stroke-miterlimit:10"
       inkscape:connector-curvature="0"
       id="path50"
       d="M 142.22213,879.13295"
       stroke-miterlimit="10" />
    <path
       style="fill:#ffffff;fill-opacity:1;stroke:#000000;stroke-width:0.42865035;stroke-linejoin:round;stroke-miterlimit:10;stroke-dasharray:none;stroke-dashoffset:0;stroke-opacity:1"
       d="m 89.96176,881.01456 7.868881,-15.59315 -2.82121,-2.91076 -2.821209,-2.91074 -2.892109,1.78742 -2.892104,1.78742 -4.969382,-4.32557 c -2.73316,-2.37906 -6.031295,-5.44498 -7.329188,-6.81316 l -2.359806,-2.4876 5.172605,-7.3363 c 2.844936,-4.03498 5.15516,-7.72602 5.133834,-8.20232 -0.0213,-0.47631 -1.308841,-3.98362 -2.861151,-7.79404 l -2.822384,-6.92804 -7.312685,-1.5145 c -4.021975,-0.83298 -8.189515,-1.71723 -9.261197,-1.96501 -1.879923,-0.43465 -1.948507,-0.79687 -1.948507,-10.2908 l 0,-9.84029 8.443542,-1.50532 c 9.986182,-1.78035 11.022718,-2.24029 12.152508,-5.39246 0.473071,-1.31988 1.637448,-4.3483 2.587509,-6.72981 l 1.727379,-4.33002 -5.555643,-7.7476 -5.555643,-7.7476 7.087828,-7.12484 7.087833,-7.12484 7.629235,5.12989 c 4.196079,2.82143 8.224634,5.12988 8.952354,5.12988 0.72771,0 3.89024,-1.02769 7.02783,-2.28375 6.46217,-2.58698 6.79605,-2.38071 8.58228,-13.95383 l 2.95877,-19.17009 c 0.20197,0.0183 -0.92882,-0.33 -2.04989,-0.54152 -1.12106,-0.21153 -2.19926,-0.29738 -2.00257,-0.26261 0.19669,0.0348 -0.94474,-0.13928 -3.05959,-0.0446 -2.11485,0.0947 -5.20202,0.48975 -5.0055,0.46324 0.20866,-0.0281 -0.99452,0.21272 -2.33126,0.80468 -1.33675,0.59195 -2.57954,1.71154 -2.43658,1.57455 0.29313,-0.28091 -0.36589,0.41408 -1.04781,1.15582 -0.68192,0.74174 -1.23717,1.84326 -1.32334,2.022 -0.14653,0.30392 -0.58724,1.24866 -1.29376,1.90818 -0.706526,0.65952 -1.141951,0.79624 -1.330736,0.85983 -0.270605,0.0911 -1.011328,0.23777 -2.017682,0.19813 -1.006355,-0.0397 -1.271668,-0.0236 -1.479102,-0.0196 -0.05926,10e-4 -0.119828,0.004 -0.173799,0.006 -0.103938,0.004 -0.207883,0.005 -0.303382,0.008 -0.06029,10e-4 -0.125163,0.002 -0.194228,0.003 -0.06907,5.7e-4 -0.142318,7.6e-4 -0.219354,4.1e-4 -0.07704,-3.5e-4 -0.157858,-10e-4 -0.242058,-0.003 -0.0842,-0.002 -0.171782,-0.004 -0.262339,-0.007 -0.09056,-0.003 -0.176907,-0.005 -0.259078,-0.006 -0.08217,-8.9e-4 -0.160165,-7.8e-4 -0.234009,8e-5 -0.07384,8.6e-4 -0.143538,0.002 -0.209111,0.005 -0.118442,0.003 -0.232872,0.0115 -0.344224,0.017 -0.120047,0.009 -0.222512,0.0133 -0.333934,0.02 -0.03283,9.3e-4 -0.004,-0.0856 0.045,-0.21529 0.04565,-0.12088 0.143466,-0.32254 0.208776,-0.57845 0.06531,-0.25591 0.180984,-0.51082 0.289986,-0.86527 0.109002,-0.35444 0.277625,-0.81393 0.426735,-1.24699 0.149111,-0.43305 0.306331,-0.86176 0.491965,-1.3535 0.185635,-0.49174 0.327869,-1.041 0.546444,-1.5715 0.218575,-0.53051 0.347762,-1.08094 0.595693,-1.63029 0.247931,-0.54934 0.470975,-1.10865 0.744678,-1.65692 0.547407,-1.09653 0.924884,-2.23209 1.560977,-3.22344 0.636094,-0.99136 1.247985,-1.92689 1.829858,-2.69658 0.581874,-0.7697 1.516304,-1.48783 1.901054,-1.91939 0.38474,-0.43156 2.20534,-1.99601 2.53627,-2.19298 0.82059,-0.48841 2.45913,-2.06007 6.56478,-3.18199 1.27473,-0.34833 2.59273,-0.51243 3.91127,-0.68286 1.31855,-0.17043 1.93364,-0.1526 3.07428,-0.23748 1.17649,-0.0875 2.35992,-0.12728 3.07866,-0.13805 0.65759,-0.008 1.37158,0.007 1.88457,0.0484 0.43159,0.0454 0.70029,0.0333 1.00753,0.0806 0.30502,0.047 0.92257,0.12664 1.28569,0.21416 0.36312,0.0875 0.62247,0.24182 1.00683,0.33358 1.53745,0.36705 2.79386,0.92104 2.97375,1.01097 0.1799,0.0899 0.13913,0.14589 2.39684,1.17306 2.25771,1.02716 2.94908,1.32963 3.13054,1.41524 0.0454,0.0214 1.8665,0.79535 2.12305,0.86736 0.25656,0.072 1.33931,0.67009 1.74674,0.77816 0.40742,0.10807 2.25547,0.82338 2.75344,0.95301 0.49798,0.12964 1.01052,0.31329 1.53873,0.44998 0.52821,0.13669 0.97832,0.24202 1.47643,0.37126 0.49811,0.12923 0.9036,0.21986 1.3113,0.32713 0.40771,0.10727 0.72387,0.13744 0.98084,0.20824 0.25697,0.0708 0.50162,0.0689 0.81708,0.12784 0.4614,0.0762 0.75326,0.0765 1.08384,0.13374 0.32788,0.0322 0.72744,0.0725 1.13016,0.0957 0.4033,0.0233 0.73671,0.0553 1.16391,0.0447 0.4272,-0.0106 1.0185,-0.0525 1.42199,-0.0614 0.40348,-0.009 0.81106,-0.0518 1.1388,-0.10584 0.3556,-0.0587 0.49401,-0.077 0.70495,-0.10837 0.22885,-0.0341 0.31565,-0.0697 0.8392,-0.22441 0.44717,-0.13214 0.67264,-0.15229 1.11431,-0.34473 0.40676,-0.17723 0.41797,-0.13582 1.13555,-0.49257 0.71758,-0.35675 1.68898,-1.06549 2.4379,-1.71816 0.67545,-0.58863 1.21917,-1.36626 1.81399,-2.24074 0.62096,-0.9129 1.39559,-2.38923 2.28118,-2.84042 0.8856,-0.45119 1.74155,-0.43614 2.54182,-0.49398 0.67384,-0.0487 2.04818,0.0143 2.52028,0.11746 0.4884,0.10671 0.77066,0.30536 1.11193,0.65919 0.30994,0.32135 0.28506,1.32558 0.0599,2.0338 -0.22064,0.69402 -0.56086,1.95905 -1.13855,3.04546 -0.59207,1.11344 -1.58561,3.50586 -2.3969,4.81019 -0.83491,1.34232 -1.43989,2.37923 -2.60884,3.7412 -1.09881,1.28024 -1.6304,1.90029 -2.81154,2.92761 -1.19217,1.03691 -2.10741,1.56963 -3.03813,2.11308 -1.08766,0.63509 -1.44351,0.753 -1.9993,1.02244 -0.65318,0.31665 -1.86721,0.71945 -2.40193,0.9461 -0.47564,0.20161 -0.56841,0.18165 -0.84912,0.2419 -0.34569,0.0742 -0.82171,0.23185 -1.42757,0.36356 -0.62551,0.13599 -1.7624,0.34746 -2.54009,0.43561 -0.80687,0.0915 -1.49697,0.16182 -2.36498,0.20758 -0.86802,0.0458 -1.80397,0.0271 -2.60898,0.009 -0.81148,-0.0178 -1.56918,-0.0134 -2.17442,-0.0548 -0.6379,-0.0437 -1.22107,-0.14413 -1.53951,-0.2027 -0.34662,-0.0637 -0.47036,-0.0522 -0.42049,-0.044 0.0146,1.20914 3.89992,21.70492 4.2016,22.00661 0.76658,0.76658 12.05545,5.31643 13.19087,5.31643 0.6274,0 4.41571,-1.4447 8.74585,-4.35629 l 7.873,-5.29379 6.94941,6.94941 6.94941,6.94941 -5.3769,8.38389 -5.37689,8.38389 2.74461,6.63108 c 1.50954,3.64709 2.87525,6.77391 3.03491,6.94849 0.15967,0.17457 4.24881,1.02841 9.08699,1.89741 4.8382,0.869 8.97459,1.75787 9.19199,1.97528 0.2174,0.2174 0.62302,4.712 0.90134,9.98799 0.41051,7.78159 0.27741,9.66547 -0.70501,9.97807 -0.66609,0.21194 -4.91324,1.02473 -9.43812,1.8062 l -8.22704,1.42084 -3.22245,7.37952 -3.22244,7.37951 5.26873,7.83571 5.2687,7.83571 -6.90888,6.90889 c -5.88954,5.88954 -7.15249,6.77853 -8.55987,6.02533 -1.37889,-0.73797 -2.12296,-0.32138 -4.51504,2.52786 l -2.86406,3.41142 8.17959,11.45169 c 6.62809,7.40162 -16.09994,6.36934 -23.81815,12.62593 0,0 -61.352722,0.98757 -58.62813,-11.32446 z"
       id="path4195"
       inkscape:connector-curvature="0"
       sodipodi:nodetypes="ccccccsscscscssscssscccccsssscssssssssssscccsssssscccsssssssssssssssccsssssssssssssccssssssssssssssssssssssssssssscssscccccssssssscccccssscccc" />
  </g>
</svg>
