<?xml version="1.0" encoding="UTF-8" standalone="no"?>
<!-- Created with Inkscape (http://www.inkscape.org/) -->

<svg
   xmlns:dc="http://purl.org/dc/elements/1.1/"
   xmlns:cc="http://creativecommons.org/ns#"
   xmlns:rdf="http://www.w3.org/1999/02/22-rdf-syntax-ns#"
   xmlns:svg="http://www.w3.org/2000/svg"
   xmlns="http://www.w3.org/2000/svg"
   xmlns:sodipodi="http://sodipodi.sourceforge.net/DTD/sodipodi-0.dtd"
   xmlns:inkscape="http://www.inkscape.org/namespaces/inkscape"
   width="74.859612mm"
   height="96.975929mm"
   id="svg3274"
   version="1.1"
   inkscape:version="0.91 r13725"
   sodipodi:docname="002_3_Oshpark.svg"
   inkscape:export-filename="/home/salvari/work/graphicsResources/BL/oshwi.png"
   inkscape:export-xdpi="90"
   inkscape:export-ydpi="90"
   viewBox="0 0 265.25059 343.61549">
  <defs
     id="defs3276" />
  <sodipodi:namedview
     id="base"
     pagecolor="#ffffff"
     bordercolor="#666666"
     borderopacity="1.0"
     inkscape:pageopacity="0.0"
     inkscape:pageshadow="2"
     inkscape:zoom="2.8284271"
     inkscape:cx="86.214386"
     inkscape:cy="112.54185"
     inkscape:document-units="mm"
     inkscape:current-layer="layer1"
     showgrid="false"
     inkscape:window-width="1920"
     inkscape:window-height="1147"
     inkscape:window-x="0"
     inkscape:window-y="27"
     inkscape:window-maximized="1"
     units="mm"
     fit-margin-top="0"
     fit-margin-left="0"
     fit-margin-right="0"
     fit-margin-bottom="0" />
  <metadata
     id="metadata3279">
    <rdf:RDF>
      <cc:Work
         rdf:about="">
        <dc:format>image/svg+xml</dc:format>
        <dc:type
           rdf:resource="http://purl.org/dc/dcmitype/StillImage" />
        <dc:title></dc:title>
      </cc:Work>
    </rdf:RDF>
  </metadata>
  <g
     inkscape:label="Layer 1"
     inkscape:groupmode="layer"
     id="layer1"
     transform="translate(-13.13584,-708.18499)">
    <path
       style="fill:#ffffff;fill-opacity:1;stroke:#000000;stroke-width:0.42865035;stroke-linejoin:round;stroke-miterlimit:10;stroke-dasharray:none;stroke-dashoffset:0;stroke-opacity:1"
       d="m 140.96052,1050.1783 c -2.3982,-0.8911 -5.1979,-2.0685 -6.2216,-2.6163 -1.0236,-0.5479 -3.393,-0.9961 -5.2653,-0.9961 -4.6488,0 -7.9678,-2.6688 -7.9678,-6.4069 0,-6.3796 8.4754,-9.4188 12.6693,-4.5431 1.129,1.3126 2.0528,3.2853 2.0528,4.3837 0,1.7347 0.645,2.1267 4.9074,2.9827 6.1643,1.238 14.1513,1.2677 17.3358,0.065 3.4116,-1.289 7.0211,-4.9486 7.6342,-7.7401 0.7286,-3.3176 -2.4488,-9.1075 -9.7903,-23.6465 -8.584,-16.99973 -11.3254,-23.94491 -14.0927,-31.90205 0,0 -0.8433,-3.72396 -1.2556,-6.06075 -1.265,-7.16959 -2.7337,-16.30767 -2.5448,-29.32051 0.189,-13.01284 -1.3167,-13.43687 -2.5733,-15.05394 -1.2566,-1.61708 -5.5946,-3.39948 -7.6486,0.91946 -1.4251,2.99655 -1.565,5.58043 -1.5891,10.23746 -0.055,10.74968 0.897,29.01581 -3.6932,42.00122 -2.273,6.43008 -5.2742,14.93653 -6.6693,18.90321 -2.4102,6.8527 -3.1788,13.0558 -1.9987,16.1311 1.1755,3.0633 9.3435,5.0744 13.7467,3.3848 2.176,-0.8351 3.0547,-4.0698 2.0721,-7.6285 -0.6872,-2.4886 -1.549,-3.4047 -4.2013,-4.466 -6.2409,-2.4971 -6.7189,-9.02506 -0.8819,-12.04354 2.1969,-1.13603 3.2345,-1.21016 5.6733,-0.40531 3.6586,1.20747 4.8169,3.21149 4.6227,7.99785 -0.082,2.0204 0.2462,5.5471 0.7293,7.837 1.6043,7.6044 -1.1451,13.3419 -7.3794,15.3994 -4.8273,1.5931 -16.5998,0.6306 -20.3066,-1.6604 -7.5591,-4.6717 -7.5226,-11.8525 0.1728,-34.01376 8.2985,-23.89799 8.9016,-28.07022 6.0681,-45.37504 -0.8049,-4.91501 -1.332,-5.3647 -2.7832,-6.72118 -0.7997,-0.74748 -1.2508,-0.63791 -2.3047,-0.82644 -2.492,-0.44577 -2.8467,0.73235 -4.1195,3.6506 -0.7697,1.76476 -3.0451,11.75081 -3.7547,31.17616 -0.7828,21.43035 -1.777202,28.24466 -5.628002,38.56486 -4.3678,11.7059 -12.4535,20.4599 -21.6668,23.4578 -2.3815,0.7749 -5.5451,2.1403 -7.0303,3.0343 -3.8911,2.3422 -6.9549,2.0625 -9.9234,-0.906 -3.8976,-3.8976 -2.9953,-7.8976 2.2785,-10.1011 2.5878,-1.0813 3.36,-1.0592 6.4694,0.185 3.3086,1.3238 3.7489,1.3144 6.9935,-0.1487 6.4429,-2.9053 10.9221,-9.6959 13.8729,-21.0316 1.3776,-5.2923 1.8088,-11.39445 2.5391,-30.02355 0.6825,-17.41043 1.1103,-19.49481 0.2537,-23.31413 -0.4666,-2.08032 -3.4665,-3.87641 -4.7317,-3.83727 0,0 -2.9582,-0.31989 -4.4404,2.90764 -1.8792,4.09162 -2.1011,14.32801 -4.0709,23.37776 -6.98,32.06835 -9.5615,36.86965 -20.9575,38.97825 -10.3559,1.9161 -22.3881,-6.4939 -22.3881,-15.64816 0,-1.25002 -0.7794,-3.26365 -1.732,-4.47468 -2.2699,-2.88573 -2.1911,-5.66812 0.2408,-8.49533 4.2021,-4.88521 12.7492,-1.91603 12.7492,4.42896 0,2.17448 -0.6993,3.35713 -3.1461,5.31995 -2.8994,2.32598 -3.0607,2.68908 -2.0568,4.63056 3.0864,5.9686 8.5638,8.5297 14.7056,6.8759 6.826,-1.8381 9.7904,-8.52226 13.8718,-31.27855 4.3138,-24.05223 3.9194,-19.06002 5.8471,-34.2446 0.2985,-2.35142 -0.5663,-3.24082 -1.2686,-4.71106 -0.6556,-1.37231 -4.5988,-3.23685 -7.4847,-1.92252 -8.8394,4.02574 -2.6202,1.90348 -21.112,8.59725 -13.9482,5.04904 -18.9418,8.52402 -22.2415,15.47768 -4.3343,9.13383 3.7164,18.29663 11.0248,12.54781 1.9349,-1.52193 2.1174,-2.07457 1.3819,-4.18437 -1.9372,-5.55694 3.7337,-10.7038 9.5569,-8.67381 4.9184,1.71457 6.1002,7.94131 2.1039,11.08484 -1.255,0.98717 -2.6508,1.79486 -3.1018,1.79486 -0.451,0 -2.4444,1.31244 -4.4298,2.91654 -5.0637,4.09133 -6.8603,4.8775 -11.1458,4.8775 -11.3113,0 -17.1844003,-13.8347 -11.2129,-26.41313 4.3119,-9.08249 8.9589,-12.40643 29.141,-20.84423 4.2868,-1.79221 9.7426,-4.50155 12.1241,-6.02078 10.2874,-6.56261 20.0275,-19.96074 32.5486,-44.77285 l 7.8689,-15.59315 -2.8212,-2.91076 -2.8212,-2.91074 -2.8921,1.78742 -2.8921,1.78742 -4.9694,-4.32557 c -2.7332,-2.37906 -6.0313,-5.44498 -7.3292,-6.81316 l -2.3598,-2.4876 5.1726,-7.3363 c 2.8449,-4.03498 5.1552,-7.72602 5.1338,-8.20232 -0.021,-0.47631 -1.3088,-3.98362 -2.8611,-7.79404 l -2.8224,-6.92804 -7.3127,-1.5145 c -4.022,-0.83298 -8.1895,-1.71723 -9.2612,-1.96501 -1.8799,-0.43465 -1.9485,-0.79687 -1.9485,-10.2908 v -9.84029 l 8.4435,-1.50532 c 9.9862,-1.78035 11.0228,-2.24029 12.1526,-5.39246 0.473,-1.31988 1.6374,-4.3483 2.5875,-6.72981 l 1.7273,-4.33002 -5.5556,-7.7476 -5.5556,-7.7476 7.0878,-7.12484 7.0878,-7.12484 7.6292,5.12989 c 4.1961,2.82143 8.224702,5.12988 8.952402,5.12988 0.7277,0 3.8902,-1.02769 7.0278,-2.28375 6.4622,-2.58698 6.7961,-2.38071 8.5823,-13.95383 l 2.9588,-19.17009 c 0.2019,0.0183 -0.9288,-0.33 -2.0499,-0.54152 -1.1211,-0.21153 -2.1993,-0.29738 -2.0026,-0.26261 0.1967,0.0348 -0.9447,-0.13928 -3.0596,-0.0446 -2.1148,0.0947 -5.202,0.48975 -5.0055,0.46324 0.2087,-0.0281 -0.9945,0.21272 -2.3312,0.80468 -1.3368,0.59195 -2.5796,1.71154 -2.4366,1.57455 0.2931,-0.28091 -0.3659,0.41408 -1.0478,1.15582 -0.6819,0.74174 -1.2372,1.84326 -1.3234,2.022 -0.1465,0.30392 -0.5872,1.24866 -1.293702,1.90818 -0.7065,0.65952 -1.142,0.79624 -1.3308,0.85983 -0.2706,0.0911 -1.0113,0.23777 -2.0176,0.19813 -1.0064,-0.0397 -1.2717,-0.0236 -1.4791,-0.0196 -0.059,0.001 -0.1199,0.004 -0.1738,0.006 -0.104,0.004 -0.2079,0.005 -0.3034,0.008 -0.06,10e-4 -0.1252,0.002 -0.1942,0.003 -0.069,5.7e-4 -0.1424,7.6e-4 -0.2194,4.1e-4 -0.077,-3.5e-4 -0.1579,-10e-4 -0.2421,-0.003 -0.084,-0.002 -0.1717,-0.004 -0.2623,-0.007 -0.091,-0.003 -0.1769,-0.005 -0.2591,-0.006 -0.082,-8.9e-4 -0.1601,-7.8e-4 -0.234,8e-5 -0.074,8.6e-4 -0.1435,0.002 -0.2091,0.005 -0.1184,0.003 -0.2329,0.0115 -0.3442,0.017 -0.1201,0.009 -0.2225,0.0133 -0.3339,0.02 -0.033,9.3e-4 0,-0.0856 0.045,-0.21529 0.046,-0.12088 0.1434,-0.32254 0.2087,-0.57845 0.065,-0.25591 0.181,-0.51082 0.29,-0.86527 0.109,-0.35444 0.2776,-0.81393 0.4267,-1.24699 0.1492,-0.43305 0.3064,-0.86176 0.492,-1.3535 0.1856,-0.49174 0.3279,-1.041 0.5464,-1.5715 0.2186,-0.53051 0.3478,-1.08094 0.5957,-1.63029 0.248,-0.54934 0.471,-1.10865 0.7447,-1.65692 0.5474,-1.09653 0.9249,-2.23209 1.561,-3.22344 0.6361,-0.99136 1.248,-1.92689 1.8299,-2.69658 0.5818,-0.7697 1.516302,-1.48783 1.901002,-1.91939 0.3847,-0.43156 2.2053,-1.99601 2.5363,-2.19298 0.8206,-0.48841 2.4591,-2.06007 6.5648,-3.18199 1.2747,-0.34833 2.5927,-0.51243 3.9112,-0.68286 1.3186,-0.17043 1.9337,-0.1526 3.0743,-0.23748 1.1765,-0.0875 2.3599,-0.12728 3.0787,-0.13805 0.6576,-0.008 1.3715,0.007 1.8845,0.0484 0.4316,0.0454 0.7003,0.0333 1.0076,0.0806 0.305,0.047 0.9225,0.12664 1.2857,0.21416 0.3631,0.0875 0.6224,0.24182 1.0068,0.33358 1.5374,0.36705 2.7938,0.92104 2.9737,1.01097 0.1799,0.0899 0.1392,0.14589 2.3969,1.17306 2.2577,1.02716 2.9491,1.32963 3.1305,1.41524 0.045,0.0214 1.8665,0.79535 2.1231,0.86736 0.2565,0.072 1.3393,0.67009 1.7467,0.77816 0.4074,0.10807 2.2555,0.82338 2.7534,0.95301 0.498,0.12964 1.0106,0.31329 1.5388,0.44998 0.5282,0.13669 0.9783,0.24202 1.4764,0.37126 0.4981,0.12923 0.9036,0.21986 1.3113,0.32713 0.4077,0.10727 0.7239,0.13744 0.9808,0.20824 0.257,0.0708 0.5017,0.0689 0.8171,0.12784 0.4614,0.0762 0.7533,0.0765 1.0839,0.13374 0.3278,0.0322 0.7274,0.0725 1.1301,0.0957 0.4033,0.0233 0.7367,0.0553 1.1639,0.0447 0.4272,-0.0106 1.0185,-0.0525 1.422,-0.0614 0.4035,-0.009 0.8111,-0.0518 1.1388,-0.10584 0.3556,-0.0587 0.494,-0.077 0.705,-0.10837 0.2288,-0.0341 0.3156,-0.0697 0.8392,-0.22441 0.4471,-0.13214 0.6726,-0.15229 1.1143,-0.34473 0.4067,-0.17723 0.418,-0.13582 1.1355,-0.49257 0.7176,-0.35675 1.689,-1.06549 2.4379,-1.71816 0.6755,-0.58863 1.2192,-1.36626 1.814,-2.24074 0.621,-0.9129 1.3956,-2.38923 2.2812,-2.84042 0.8856,-0.45119 1.7416,-0.43614 2.5418,-0.49398 0.6739,-0.0487 2.0482,0.0143 2.5203,0.11746 0.4884,0.10671 0.7707,0.30536 1.1119,0.65919 0.31,0.32135 0.2851,1.32558 0.06,2.0338 -0.2206,0.69402 -0.5608,1.95905 -1.1385,3.04546 -0.5921,1.11344 -1.5856,3.50586 -2.3969,4.81019 -0.8349,1.34232 -1.4399,2.37923 -2.6089,3.7412 -1.0988,1.28024 -1.6304,1.90029 -2.8115,2.92761 -1.1922,1.03691 -2.1074,1.56963 -3.0381,2.11308 -1.0877,0.63509 -1.4435,0.753 -1.9993,1.02244 -0.6532,0.31665 -1.8672,0.71945 -2.402,0.9461 -0.4756,0.20161 -0.5684,0.18165 -0.8491,0.2419 -0.3457,0.0742 -0.8217,0.23185 -1.4275,0.36356 -0.6256,0.13599 -1.7624,0.34746 -2.5401,0.43561 -0.8069,0.0915 -1.497,0.16182 -2.365,0.20758 -0.868,0.0458 -1.804,0.0271 -2.609,0.009 -0.8115,-0.0178 -1.5692,-0.0134 -2.1744,-0.0548 -0.6379,-0.0437 -1.2211,-0.14413 -1.5395,-0.2027 -0.3466,-0.0637 -0.4704,-0.0522 -0.4205,-0.044 0.015,1.20914 3.8999,21.70492 4.2016,22.00661 0.7666,0.76658 12.0554,5.31643 13.1909,5.31643 0.6274,0 4.4157,-1.4447 8.7458,-4.35629 l 7.873,-5.29379 6.9494,6.94941 6.9494,6.94941 -5.3769,8.38389 -5.3769,8.38389 2.7446,6.63108 c 1.5096,3.64709 2.8753,6.77391 3.035,6.94849 0.1596,0.17457 4.2488,1.02841 9.0869,1.89741 4.8382,0.869 8.9746,1.75787 9.192,1.97528 0.2174,0.2174 0.6231,4.712 0.9014,9.98799 0.4105,7.78159 0.2774,9.66547 -0.705,9.97807 -0.6661,0.21194 -4.9133,1.02473 -9.4382,1.8062 l -8.227,1.42084 -3.2224,7.37952 -3.2225,7.37951 5.2687,7.83571 5.2687,7.83571 -6.9088,6.90889 c -5.8896,5.88954 -7.1525,6.77853 -8.5599,6.02533 -1.3789,-0.73797 -2.123,-0.32138 -4.515,2.52786 l -2.8641,3.41142 8.1796,11.45169 c 19.9545,27.93697 35.6292,45.56453 45.8963,51.61452 15.0943,8.89446 30.266,9.39696 42.3464,1.40252 2.7231,-1.80202 3.3044,-2.69126 3.3044,-5.0545 0,-6.42836 8.4544,-9.49373 12.6693,-4.59361 2.2983,2.67189 2.4853,3.85722 1.0913,6.91671 -1.0243,2.24802 -4.0779,4.03326 -6.8988,4.03326 -0.9442,0 -3.6529,1.5305 -6.0194,3.40112 -7.5364,5.95718 -12.4724,7.36354 -25.9565,7.39548 -13.2371,0.0313 -19.294,0.39786 -26.3675,-2.84105 0,0 -3.7411,-1.28264 -5.6015,-2.37901 -1.7792,-1.04849 -2.769,-1.57594 -4.4965,-2.57041 -2.0042,-1.15381 -3.458,-0.16266 -4.1575,0.23433 -0.7538,0.42773 -1.289,1.04 -1.41,2.11523 -0.2135,1.89726 2.0056,3.27369 3.3222,4.28409 0.7287,0.55924 2.3751,1.78442 3.8726,2.68673 1.5879,0.95674 0.3335,1.15537 20.9822,4.92681 17.3368,3.16654 21.74,4.4352 27.0222,7.7858 7.3825,4.68284 9.4317,12.20805 5.5622,20.42611 -2.6669,5.66399 -5.6991,8.79001 -10.6506,10.9803 -8.4228,3.7258 -17.7349,0.0869 -21.6475,-8.45927 -1.3435,-2.93457 -3.0487,-5.17434 -4.5176,-5.93398 -4.7801,-2.47189 -5.1991,-8.15921 -0.8267,-11.22173 3.0797,-2.15714 6.5758,-1.73374 9.4546,1.145 2.9574,2.95743 3.1798,5.07075 0.8458,8.03793 -1.6767,2.13155 -1.6755,2.15729 0.2165,4.87802 5.6786,8.1658 19.6552,2.69263 19.6552,-7.6969 0,-3.53364 -4.4787,-8.12497 -9.1454,-9.37549 -1.8764,-0.50281 -8.7341,-1.10647 -15.1027,-2.26244 -15.3948,-2.79431 -23.8889,-5.56701 -27.283,-7.21992 -5.4202,-2.63966 -6.9503,-4.42531 -8.3767,-5.72802 -2.6205,-2.39324 -8.7299,-3.75026 -11.3654,-3.12257 -3.2261,0.76836 -4.0671,2.50899 -3.8092,6.45706 0.1669,2.55597 0.021,6.01241 0.1931,7.66524 0.1455,1.39642 -1.348,16.55566 -0.052,21.04405 2.851,9.8766 7.1793,14.22651 14.1618,14.23256 4.2294,0.003 6.8389,-1.08988 9.0169,-3.77864 2.8903,-3.56813 1.2794,-11.80621 -2.3086,-11.80621 -4.7654,0 -8.2632,-5.37316 -6.1536,-9.45274 4.012,-7.75845 15.8195,-3.5569 13.5558,4.82367 -0.4882,1.80736 -0.1302,3.61807 1.3433,6.79408 2.9821,6.42752 2.7464,11.67619 -0.7007,15.60219 -3.2789,3.73451 -6.1441,5.30697 -11.9318,6.54817 -9.4999,2.0374 -19.0847,-3.71148 -24.6136,-14.76305 -4.3716,-8.73832 -1.8408,-16.06254 -3.0995,-30.39696 -0.5256,-5.98615 -0.1396,-13.73695 -2.4843,-22.26327 -0.6486,-2.3584 -3.9084,-5.71873 -6.3144,-5.95232 -3.7478,-0.36388 -5.8726,0.21404 -5.9303,5.46521 -0.055,5.04038 -0.1419,-2.45262 -0.1241,7.91527 0.027,15.81693 0.3253,18.08582 1.8521,25.15782 2.6827,12.42594 8.2158,25.53555 16.559,43.4301 9.7084,20.8225 8.8831,26.1542 5.7148,31.5896 -1.4344,2.4609 -3.4489,4.1816 -7.0548,6.0257 -4.314,2.2063 -6.1986,2.6206 -12.9735,2.8524 -6.1193,0.2094 -8.9204,-0.098 -12.2867,-1.3491 z"
       id="path4195"
       inkscape:connector-curvature="0"
       sodipodi:nodetypes="cssssssssssszzsssssssssscssssssssssssssssssssssssssssssssssssssssssssssscccccsscscscssscssscccccsssscssssssssssscccsssssscccsssssssssssssssccsssssssssssssccssssssssssssssssssssssssssssscssscccccssssssscccccssscssssssssssssssssssssssssssssssssssscsssssssssssssssssssc" />
    <text
       xml:space="preserve"
       style="font-style:normal;font-weight:normal;line-height:0%;font-family:sans-serif;letter-spacing:0px;word-spacing:0px;fill:#000000;fill-opacity:1;stroke:none;stroke-width:1px;stroke-linecap:butt;stroke-linejoin:miter;stroke-opacity:1"
       x="137"
       y="601.36224"
       id="text4377"><tspan
         sodipodi:role="line"
         id="tspan4379"
         x="137"
         y="601.36224"
         style="font-size:40px;line-height:1.25"> </tspan></text>
  </g>
</svg>
