<?xml version="1.0" encoding="UTF-8" standalone="no"?>
<!-- Created with Inkscape (http://www.inkscape.org/) -->

<svg
   xmlns:dc="http://purl.org/dc/elements/1.1/"
   xmlns:cc="http://creativecommons.org/ns#"
   xmlns:rdf="http://www.w3.org/1999/02/22-rdf-syntax-ns#"
   xmlns:svg="http://www.w3.org/2000/svg"
   xmlns="http://www.w3.org/2000/svg"
   xmlns:sodipodi="http://sodipodi.sourceforge.net/DTD/sodipodi-0.dtd"
   xmlns:inkscape="http://www.inkscape.org/namespaces/inkscape"
   width="80mm"
   height="98mm"
   id="svg3274"
   version="1.1"
   inkscape:version="0.91 r13725"
   sodipodi:docname="002_2.svg"
   inkscape:export-filename="/home/salvari/work/graphicsResources/BL/oshwi.png"
   inkscape:export-xdpi="90"
   inkscape:export-ydpi="90">
  <defs
     id="defs3276" />
  <sodipodi:namedview
     id="base"
     pagecolor="#ffffff"
     bordercolor="#666666"
     borderopacity="1.0"
     inkscape:pageopacity="0.0"
     inkscape:pageshadow="2"
     inkscape:zoom="16"
     inkscape:cx="103.8291"
     inkscape:cy="38.483831"
     inkscape:document-units="px"
     inkscape:current-layer="layer1"
     showgrid="false"
     inkscape:window-width="1920"
     inkscape:window-height="1137"
     inkscape:window-x="-8"
     inkscape:window-y="-8"
     inkscape:window-maximized="1"
     units="mm" />
  <metadata
     id="metadata3279">
    <rdf:RDF>
      <cc:Work
         rdf:about="">
        <dc:format>image/svg+xml</dc:format>
        <dc:type
           rdf:resource="http://purl.org/dc/dcmitype/StillImage" />
        <dc:title></dc:title>
      </cc:Work>
    </rdf:RDF>
  </metadata>
  <g
     inkscape:label="Layer 1"
     inkscape:groupmode="layer"
     id="layer1"
     transform="translate(0,-705.11813)">
    <path
       d="m 176.11879,774.5795 c 8.8989,11.8165 13.16525,27.06425 10.1115,42.30951"
       id="path33"
       inkscape:connector-curvature="0"
       style="fill:none" />
    <path
       d="m 135.70758,752.66448 c 12.47458,0.65173 23.88927,5.77777 32.75392,13.62781"
       id="path35"
       inkscape:connector-curvature="0"
       style="fill:none" />
    <path
       style="fill:none;stroke:#010202;stroke-width:0.03396736;stroke-miterlimit:10"
       inkscape:connector-curvature="0"
       id="path42"
       d="M 142.4113,874.84754"
       stroke-miterlimit="10" />
    <path
       style="fill:none;stroke:#010202;stroke-width:0.03396736;stroke-miterlimit:10"
       inkscape:connector-curvature="0"
       id="path44"
       d="M 154.18334,874.5457"
       stroke-miterlimit="10" />
    <path
       style="fill:none;stroke:#010202;stroke-width:0.03396736;stroke-miterlimit:10"
       inkscape:connector-curvature="0"
       id="path46"
       d="M 142.4113,874.51974"
       stroke-miterlimit="10" />
    <path
       style="fill:none;stroke:#010202;stroke-width:0.03396736;stroke-miterlimit:10"
       inkscape:connector-curvature="0"
       id="path48"
       d="M 153.99445,879.15891"
       stroke-miterlimit="10" />
    <path
       style="fill:none;stroke:#010202;stroke-width:0.03396736;stroke-miterlimit:10"
       inkscape:connector-curvature="0"
       id="path50"
       d="M 142.22213,879.13295"
       stroke-miterlimit="10" />
    <path
       style="fill:#ffffff;fill-opacity:1;stroke:#000000;stroke-width:0.42865035;stroke-linejoin:round;stroke-miterlimit:10;stroke-dasharray:none;stroke-dashoffset:0;stroke-opacity:1"
       d="m 84.924355,880.44626 6.947005,-15.63225 -2.82121,-2.91076 -2.82121,-2.91074 -2.89211,1.78742 -2.229187,2.14097 -5.632293,-4.67912 c -2.7872,-2.31551 -6.0313,-5.44498 -7.32919,-6.81316 l -1.652703,-2.00146 4.907445,-7.3805 c 2.733624,-4.1112 5.287742,-7.77021 5.266412,-8.24651 -0.0213,-0.47631 -1.183515,-4.76208 -2.993732,-8.45696 l -3.264322,-6.66287 -7.31269,-1.5145 c -4.02197,-0.83298 -8.18951,-1.71723 -9.26119,-1.96501 -1.87993,-0.43465 -1.94851,-0.79687 -1.94851,-10.2908 l 0,-9.84029 8.44354,-1.50532 c 9.98618,-1.78035 11.02272,-2.24028 12.15251,-5.39246 0.47307,-1.31988 1.63745,-4.3483 2.58751,-6.72981 l 1.72738,-4.33002 -5.55565,-7.7476 -5.55564,-7.7476 7.08783,-7.12484 7.08783,-7.12484 7.62924,5.12989 c 4.19607,2.82143 8.22463,5.12988 8.95235,5.12988 0.72771,0 3.89024,-1.02769 7.02783,-2.28375 6.46217,-2.58698 6.79605,-2.38071 8.58228,-13.95383 l 2.95877,-19.17009 c 0.20197,0.0183 -0.92882,-0.33 -2.04989,-0.54151 -1.12106,-0.21154 -2.19926,-0.29739 -2.00257,-0.26261 0.19669,0.0348 -0.94474,-0.13929 -3.05959,-0.0446 -2.11485,0.0947 -5.20202,0.48975 -5.0055,0.46324 0.20866,-0.0281 -0.99452,0.21272 -2.33126,0.80468 -1.33675,0.59195 -2.57954,1.71154 -2.43658,1.57456 0.29313,-0.28092 -0.36589,0.41408 -1.04781,1.15581 -0.68192,0.74175 -1.23717,1.84326 -1.32334,2.022 -0.14653,0.30392 -0.58724,1.24866 -1.29376,1.90819 -0.70653,0.65951 -1.14195,0.79623 -1.33074,0.85983 -0.2706,0.0911 -1.01132,0.23776 -2.01768,0.19812 -1.00635,-0.0397 -1.27167,-0.0236 -1.4791,-0.0196 -0.0593,10e-4 -0.11983,0.004 -0.1738,0.006 -0.10394,0.004 -0.20788,0.005 -0.30338,0.008 -0.0603,10e-4 -0.12516,0.002 -0.19423,0.003 -0.0691,5.8e-4 -0.14232,7.6e-4 -0.21935,4.1e-4 -0.077,-3.5e-4 -0.15786,-0.001 -0.24206,-0.003 -0.0842,-0.002 -0.17178,-0.004 -0.26234,-0.007 -0.0906,-0.003 -0.17691,-0.005 -0.25908,-0.006 -0.0822,-8.9e-4 -0.16016,-7.8e-4 -0.23401,8e-5 -0.0738,8.7e-4 -0.14354,0.002 -0.20911,0.005 -0.11844,0.003 -0.23287,0.0115 -0.34422,0.017 -0.12005,0.009 -0.22251,0.0133 -0.33394,0.02 -0.0328,9.3e-4 -0.004,-0.0856 0.045,-0.21529 0.0456,-0.12087 0.14347,-0.32254 0.20878,-0.57845 0.0653,-0.2559 0.18098,-0.51081 0.28999,-0.86527 0.109,-0.35444 0.27762,-0.81393 0.42673,-1.24699 0.14911,-0.43304 0.30633,-0.86176 0.49197,-1.3535 0.18563,-0.49174 0.32786,-1.041 0.54644,-1.5715 0.21857,-0.53051 0.34776,-1.08094 0.59569,-1.63029 0.24793,-0.54934 0.47098,-1.10865 0.74468,-1.65692 0.54741,-1.09653 0.92488,-2.23209 1.56098,-3.22344 0.63609,-0.99136 1.24798,-1.92689 1.82986,-2.69658 0.58187,-0.7697 1.5163,-1.48783 1.90105,-1.91939 0.38474,-0.43156 2.20534,-1.99601 2.53627,-2.19298 0.82059,-0.48841 2.45913,-2.06007 6.56478,-3.18199 1.27473,-0.34833 2.59273,-0.51243 3.91127,-0.68286 1.31855,-0.17043 1.93364,-0.1526 3.07428,-0.23748 1.17649,-0.0875 2.35992,-0.12728 3.07866,-0.13805 0.65759,-0.008 1.37158,0.007 1.88457,0.0484 0.43159,0.0454 0.70029,0.0333 1.00753,0.0806 0.30502,0.047 0.92257,0.12664 1.28569,0.21416 0.36312,0.0875 0.62247,0.24182 1.00683,0.33358 1.53745,0.36705 2.79386,0.92104 2.97375,1.01097 0.1799,0.0899 0.13913,0.14589 2.39684,1.17306 2.25771,1.02716 2.94908,1.32963 3.13054,1.41524 0.0454,0.0214 1.8665,0.79535 2.12305,0.86736 0.25656,0.072 1.33931,0.67009 1.74674,0.77816 0.40742,0.10807 2.25547,0.82338 2.75344,0.95301 0.49798,0.12964 1.01052,0.31329 1.53873,0.44998 0.52821,0.13669 0.97832,0.24202 1.47643,0.37126 0.49811,0.12923 0.9036,0.21986 1.3113,0.32713 0.40771,0.10727 0.72387,0.13744 0.98084,0.20824 0.25697,0.0708 0.50162,0.0689 0.81708,0.12784 0.4614,0.0762 0.75326,0.0765 1.08384,0.13374 0.32788,0.0322 0.72744,0.0725 1.13016,0.0957 0.4033,0.0233 0.73671,0.0553 1.16391,0.0447 0.4272,-0.0106 1.0185,-0.0525 1.42199,-0.0614 0.40348,-0.009 0.81106,-0.0518 1.1388,-0.10584 0.3556,-0.0587 0.49401,-0.077 0.70495,-0.10837 0.22885,-0.0341 0.31565,-0.0697 0.8392,-0.22441 0.44717,-0.13214 0.67264,-0.15229 1.11431,-0.34473 0.40676,-0.17723 0.41797,-0.13582 1.13555,-0.49257 0.71758,-0.35675 1.68898,-1.06549 2.4379,-1.71816 0.67545,-0.58863 1.21917,-1.36626 1.81399,-2.24074 0.62096,-0.9129 1.39559,-2.38923 2.28118,-2.84042 0.8856,-0.45119 1.74155,-0.43614 2.54182,-0.49398 0.67384,-0.0487 2.04818,0.0143 2.52028,0.11746 0.4884,0.10671 0.77066,0.30536 1.11193,0.65919 0.30994,0.32135 0.28506,1.32558 0.0599,2.0338 -0.22064,0.69402 -0.56086,1.95905 -1.13855,3.04546 -0.59207,1.11344 -1.58561,3.50586 -2.3969,4.81019 -0.83491,1.34232 -1.43989,2.37923 -2.60884,3.7412 -1.09881,1.28024 -1.6304,1.90029 -2.81154,2.92761 -1.19217,1.03691 -2.10741,1.56963 -3.03813,2.11308 -1.08766,0.63509 -1.44351,0.753 -1.9993,1.02244 -0.65318,0.31665 -1.86721,0.71945 -2.40193,0.9461 -0.47564,0.20161 -0.56841,0.18165 -0.84912,0.2419 -0.34569,0.0742 -0.82171,0.23185 -1.42757,0.36356 -0.62551,0.13599 -1.7624,0.34746 -2.54009,0.43561 -0.80687,0.0915 -1.49697,0.16182 -2.36498,0.20758 -0.86802,0.0458 -1.80397,0.0271 -2.60898,0.009 -0.81148,-0.0178 -1.56918,-0.0134 -2.17442,-0.0548 -0.6379,-0.0437 -1.22107,-0.14413 -1.53951,-0.2027 -0.34662,-0.0637 -0.47036,-0.0522 -0.42049,-0.044 0.0146,1.20914 3.89992,21.70492 4.2016,22.00661 0.76658,0.76658 12.05545,5.31643 13.19087,5.31643 0.6274,0 4.41571,-1.4447 8.74585,-4.35629 l 7.873,-5.29379 6.94941,6.94941 6.94941,6.94941 -5.3769,8.38389 -5.37689,8.38389 2.74461,6.63108 c 1.50954,3.64709 2.87525,6.77391 3.03491,6.94849 0.15967,0.17457 4.24881,1.02841 9.08699,1.89741 4.8382,0.869 8.97459,1.75787 9.19199,1.97528 0.2174,0.2174 0.62302,4.712 0.90134,9.98799 0.41051,7.78159 0.27741,9.66547 -0.70501,9.97807 -0.66609,0.21194 -4.91324,1.02473 -9.43812,1.8062 l -8.22704,1.42084 -3.22245,7.37952 -3.22244,7.37951 5.26873,7.83571 5.2687,7.83571 -6.90888,6.90889 c -5.88954,5.88954 -7.15249,6.77853 -8.55987,6.02533 -1.37889,-0.73797 -2.12296,-0.32138 -4.51504,2.52786 l -2.86406,3.41142 8.17959,11.45169 c 0.41426,0.4626 0.71384,0.89226 0.90958,1.2928 0.19574,0.40055 31.80441,38.00841 33.72983,39.72805 2.44168,2.18073 7.96525,7.30779 10.09769,8.82543 1.94073,1.38121 7.81878,4.29524 9.42291,5.08798 3.7833,1.86967 12.46684,3.12533 14.47285,3.28513 1.8871,0.15034 4.4682,0.12756 6.36116,-0.2698 1.21528,-0.25511 7.94609,-2.39353 9.98488,-3.33926 1.33856,-0.62091 3.16309,-1.79879 4.14575,-2.32944 0.62514,-0.54059 1.73705,-1.37931 2.12589,-2.17969 0.30319,-0.88236 0.3025,-2.2478 0.43247,-2.85659 0.12998,-0.60879 0.37506,-1.57089 0.53757,-2.08177 0.16252,-0.51088 0.89748,-1.49105 1.23566,-1.86758 0.29641,-0.33003 2.04036,-2.20934 4.20925,-2.69593 2.78227,-0.62421 4.28326,0.0897 5.23208,0.55096 0.56618,0.27527 2.25399,1.36099 3.66617,2.88167 2.59399,2.79328 0.99141,8.38298 0.75912,9.70472 -0.24763,1.40901 -16.22283,54.97825 -31.86143,59.5622 -11.80901,3.4615 -29.22327,5.96802 -29.95997,6.22282 -0.7367,0.2547 -18.53621,2.4591 -23.22199,3.6592 -3.16245,0.81 -10.4385,7.2755 -12.04973,8.2196 -1.65634,0.9705 -3.95082,27.3617 -6.86389,31.244 0,0 -4.25246,5.1377 -6.98847,6.3518 -2.18043,0.9675 -6.61531,2.1965 -7.45146,2.1978 -0.83614,10e-4 -3.4132,0.271 -4.57556,0.263 -1.16235,-0.01 -5.1004,0.2865 -6.52771,0.2618 -1.42731,-0.025 -7.61017,-0.3967 -9.16532,-0.8908 -1.96249,-0.6235 -8.91435,-3.2176 -11.54963,-3.6945 -1.7735,-0.079 -2.4021,-0.5242 -3.81487,-1.3702 -1.59444,-0.9547 -3.31651,-2.2623 -3.60685,-3.8787 -0.31042,-1.7281 -0.81122,-1.7576 -0.91019,-2.7426 -0.0837,-0.8326 0.0317,-0.6342 -0.88711,-2.3083 -1.05299,-2.0313 -0.6843,-1.7128 -1.42656,-2.3047 -0.96369,-0.8056 -0.80658,-0.7321 -1.57933,-1.4921 -0.89969,-0.7131 -1.3122,-1.0833 -2.48263,-1.9427 -1.74241,-1.516 -7.89014,-6.5148 -9.15461,-7.8939 -1.21549,-1.415 -0.94127,-1.4349 -2.50059,-2.7781 -1.00571,-0.8664 -2.59812,-0.8922 -3.68985,-0.9808 -0.94681,-0.047 -1.81389,-0.268 -3.48175,-0.077 -1.54653,0.1773 0,0 -1.92799,1.6305 -0.88857,0.8363 -1.514942,3.5821 -4.55768,6.4757 -2.64406,2.7905 -3.512427,3.5439 -5.610187,5.0295 -1.11222,0.577 -3.685914,2.487 -5.518944,3.0495 -0.88892,0.4994 -4.35299,1.5408 -5.44598,2.049 -0.90265,0.3973 -5.711129,2.3947 -6.503579,2.7504 -0.97848,0.3665 -3.049656,0.592 -4.399977,0.3428 -2.727494,-0.5033 -6.449943,-5.5473 -7.612553,-7.4723 -1.721,-2.8495 -3.56073,-7.9509 -4.38934,-9.2405 -0.6084,-0.9468 -13.61839,-16.0674 -15.19506,-18.8718 -1.33734,-2.3787 -5.46809,-17.4609 -6.49022,-20.1049 -1.08012,-2.79388 -8.416659,-7.13563 -10.37643,-8.68875 -1.170086,-0.92729 -3.6889207,-6.71145 -4.262432,-8.89931 -0.6965507,-2.65724 0.874512,-10.79559 1.5640819,-12.18977 1.4858901,-3.00418 3.6260601,-7.44403 5.0641001,-9.10705 1.04852,-1.21256 5.35238,-4.84483 6.83864,-5.87325 1.15398,-0.7985 10.698368,-5.25666 11.5336,-5.63188 1.95456,-0.87806 12.673313,-5.06626 14.710815,-6.19982 3.358314,-1.86839 9.802017,-6.52087 13.092108,-10.01907 5.674966,-6.03392 23.531442,-34.96919 23.811107,-35.80901 z"
       id="path4195"
       inkscape:connector-curvature="0"
       sodipodi:nodetypes="ccccccsscscscssscssscccccsssscssssssssssscccsssssscccsssssssssssssssccsssssssssssssccssssssssssssssssssssssssssssscssscccccssssssscccccsssccsssssssccssssssssssscsccsscssscccccscsccccccssssssssssssscc" />
    <path
       style="fill:#ffffff;fill-opacity:1;stroke:#000000;stroke-width:0.42865035;stroke-linejoin:round;stroke-miterlimit:10;stroke-dasharray:none;stroke-dashoffset:0;stroke-opacity:1"
       d="m 136.19949,1049.0478 c -2.39822,-0.8911 -5.19793,-2.0685 -6.2216,-2.6163 -1.02367,-0.5479 -3.39309,-0.9961 -5.26538,-0.9961 -4.64877,0 -7.96776,-2.6688 -7.96776,-6.4069 0,-6.3796 8.47536,-9.4188 12.66929,-4.5431 1.12904,1.3126 2.05279,3.2853 2.05279,4.3837 0,1.7347 0.64506,2.1267 4.90746,2.9827 6.16428,1.238 14.15124,1.2677 17.33577,0.065 3.41155,-1.289 7.02104,-4.9486 7.63416,-7.7401 0.72867,-3.3176 -1.74169,-9.2843 -9.79023,-23.6465 -9.30976,-16.6134 -12.73969,-23.5914 -15.50699,-31.5485 l -2.33831,-6.7237 -0.0478,-29.0111 c -0.048,-29.0833 -1.17848,-43.7831 -3.31258,-43.0718 -1.22061,0.4069 -4.65356,9.7539 -6.90932,18.8123 -1.54142,6.1898 -1.79633,9.4561 -1.58911,20.3624 0.61271,32.2489 0.897,29.0158 -3.69326,42.0013 -2.273,6.43 -5.27419,14.9365 -6.6693,18.9032 -2.41018,6.8527 -3.17874,13.0558 -1.99864,16.1311 1.17548,3.0633 9.34344,5.0744 13.74665,3.3848 2.17603,-0.8351 3.05469,-4.0698 2.0721,-7.6285 -0.68715,-2.4886 -1.54897,-3.4047 -4.20131,-4.466 -6.24084,-2.4971 -6.71883,-9.0252 -0.88184,-12.0436 2.19682,-1.136 3.2345,-1.2101 5.67323,-0.4053 3.65862,1.2075 4.81694,3.2115 4.62273,7.9979 -0.082,2.0204 0.24621,5.5471 0.72931,7.837 1.6043,7.6044 -1.1451,13.3419 -7.37941,15.3994 -4.8273,1.5931 -16.5998,0.6306 -20.30661,-1.6604 -7.55905,-4.6717 -7.52256,-11.8525 0.17286,-34.0138 8.29848,-23.898 8.85543,-28.0627 6.06801,-45.375 -1.24675,-7.7435 -0.45249,-18.5846 2.23198,-30.4649 1.14928,-5.0863 1.95252,-9.3849 1.78498,-9.5524 -0.93272,-0.9327 -9.19382,21.6312 -13.22433,36.1202 -2.87429,10.3327 -3.04509,11.7509 -3.75466,31.1762 -0.78281,21.4304 -1.77727,28.2447 -5.62805,38.5649 -4.3678,11.7059 -12.45352,20.4599 -21.66679,23.4578 -2.38151,0.7749 -5.54512,2.1403 -7.03025,3.0343 -3.89112,2.3422 -6.95492,2.0625 -9.92345,-0.906 -3.89758,-3.8976 -2.99529,-7.8976 2.27855,-10.1011 2.5878,-1.0813 3.35995,-1.0592 6.46938,0.185 3.30857,1.3238 3.74885,1.3144 6.99348,-0.1487 6.44292,-2.9053 10.92209,-9.6959 13.87289,-21.0316 1.37764,-5.2923 1.89343,-11.3914 2.53907,-30.0236 0.93249,-26.9104 2.01171,-33.5864 8.6287,-53.3766 2.28761,-6.8419 4.01148,-12.5905 3.83081,-12.7748 -0.74422,-0.7591 -17.07804,33.8276 -19.37792,41.0327 -1.36916,4.2892 -4.10102,15.203 -6.07081,24.2527 -6.98006,32.0684 -9.56158,36.8697 -20.95753,38.9783 -10.35588,1.9161 -22.38813,-6.4939 -22.38813,-15.6483 0,-1.25 -0.77941,-3.2635 -1.73201,-4.4746 -2.26991,-2.8857 -2.19103,-5.6681 0.24084,-8.4953 4.20208,-4.8852 12.74923,-1.916 12.74923,4.429 0,2.1744 -0.69939,3.3571 -3.14611,5.3199 -2.89945,2.326 -3.0607,2.6891 -2.05679,4.6305 3.08632,5.9687 8.56374,8.5298 14.70552,6.876 6.82606,-1.8381 9.79046,-8.5223 13.87183,-31.2786 4.31379,-24.0522 7.97387,-38.3648 13.57566,-53.0873 1.61518,-4.2449 2.82218,-8.0616 2.68221,-8.4815 -0.13996,-0.4199 -2.2887,2.1626 -4.77496,5.7389 -7.18936,10.3414 -17.00928,16.8552 -35.50112,23.549 -13.94821,5.049 -18.94177,8.524 -22.2415,15.4777 -4.33429,9.1338 3.71642,18.2966 11.02486,12.5478 1.93482,-1.522 2.11733,-2.0746 1.38185,-4.1844 -1.93716,-5.5569 3.73368,-10.7038 9.55688,-8.6738 4.91841,1.7146 6.10024,7.9413 2.10388,11.0848 -1.25499,0.9872 -2.65078,1.7949 -3.10177,1.7949 -0.45098,0 -2.44436,1.3124 -4.42973,2.9165 -5.06379,4.0914 -6.86032,4.8775 -11.14584,4.8775 -11.31134,0 -17.18443,-13.8347 -11.21289,-26.4131 4.31186,-9.0825 8.95886,-12.4064 29.14102,-20.8442 4.28672,-1.7922 9.74255,-4.5016 12.12406,-6.0208 10.28743,-6.5626 20.0275,-19.9607 32.54862,-44.77286 l 7.86888,-15.59315 -2.82121,-2.91076 -2.82121,-2.91074 -2.89211,1.78742 -2.8921,1.78742 -4.96939,-4.32557 c -2.73316,-2.37906 -6.03129,-5.44498 -7.32918,-6.81316 l -2.35981,-2.4876 5.17261,-7.3363 c 2.84493,-4.03498 5.15516,-7.72602 5.13383,-8.20232 -0.0213,-0.47631 -1.30884,-3.98362 -2.86115,-7.79404 l -2.82239,-6.92804 -7.31268,-1.5145 c -4.02198,-0.83298 -8.18952,-1.71723 -9.2612,-1.96501 -1.87992,-0.43465 -1.9485,-0.79687 -1.9485,-10.2908 l 0,-9.84029 8.44354,-1.50532 c 9.98618,-1.78035 11.02272,-2.24029 12.15251,-5.39246 0.47307,-1.31988 1.63744,-4.3483 2.5875,-6.72981 l 1.72738,-4.33002 -5.55564,-7.7476 -5.55564,-7.7476 7.08783,-7.12484 7.08783,-7.12484 7.62923,5.12989 c 4.19608,2.82143 8.22464,5.12988 8.95236,5.12988 0.72771,0 3.89024,-1.02769 7.02783,-2.28375 6.46217,-2.58698 6.79605,-2.38071 8.58228,-13.95383 l 2.95877,-19.17009 c 0.20197,0.0183 -0.92882,-0.33 -2.04989,-0.54152 -1.12106,-0.21153 -2.19926,-0.29738 -2.00257,-0.26261 0.19669,0.0348 -0.94474,-0.13928 -3.05959,-0.0446 -2.11485,0.0947 -5.20202,0.48975 -5.0055,0.46324 0.20866,-0.0281 -0.99452,0.21272 -2.33126,0.80468 -1.33675,0.59195 -2.57954,1.71154 -2.43658,1.57455 0.29313,-0.28091 -0.36589,0.41408 -1.04781,1.15582 -0.68192,0.74174 -1.23717,1.84326 -1.32334,2.022 -0.14653,0.30392 -0.58724,1.24866 -1.29376,1.90818 -0.70653,0.65952 -1.14195,0.79624 -1.33074,0.85983 -0.2706,0.0911 -1.01133,0.23777 -2.01768,0.19813 -1.00636,-0.0397 -1.27167,-0.0236 -1.4791,-0.0196 -0.0593,0.001 -0.11983,0.004 -0.1738,0.006 -0.10394,0.004 -0.20788,0.005 -0.30338,0.008 -0.0603,10e-4 -0.12517,0.002 -0.19423,0.003 -0.0691,5.7e-4 -0.14232,7.6e-4 -0.21936,4.1e-4 -0.077,-3.5e-4 -0.15785,-10e-4 -0.24205,-0.003 -0.0842,-0.002 -0.17179,-0.004 -0.26234,-0.007 -0.0906,-0.003 -0.17691,-0.005 -0.25908,-0.006 -0.0822,-8.9e-4 -0.16017,-7.8e-4 -0.23401,8e-5 -0.0738,8.6e-4 -0.14354,0.002 -0.20911,0.005 -0.11844,0.003 -0.23287,0.0115 -0.34422,0.017 -0.12005,0.009 -0.22252,0.0133 -0.33394,0.02 -0.0328,9.3e-4 -0.004,-0.0856 0.045,-0.21529 0.0457,-0.12088 0.14347,-0.32254 0.20878,-0.57845 0.0653,-0.25591 0.18098,-0.51082 0.28998,-0.86527 0.10901,-0.35444 0.27763,-0.81393 0.42674,-1.24699 0.14911,-0.43305 0.30633,-0.86176 0.49196,-1.3535 0.18564,-0.49174 0.32787,-1.041 0.54645,-1.5715 0.21857,-0.53051 0.34776,-1.08094 0.59569,-1.63029 0.24793,-0.54934 0.47098,-1.10865 0.74468,-1.65692 0.54741,-1.09653 0.92488,-2.23209 1.56098,-3.22344 0.63609,-0.99136 1.24798,-1.92689 1.82985,-2.69658 0.58188,-0.7697 1.51631,-1.48783 1.90106,-1.91939 0.38474,-0.43156 2.20534,-1.99601 2.53627,-2.19298 0.82059,-0.48841 2.45913,-2.06007 6.56478,-3.18199 1.27473,-0.34833 2.59273,-0.51243 3.91127,-0.68286 1.31855,-0.17043 1.93364,-0.1526 3.07428,-0.23748 1.17649,-0.0875 2.35992,-0.12728 3.07866,-0.13805 0.65759,-0.008 1.37158,0.007 1.88457,0.0484 0.43159,0.0454 0.70029,0.0333 1.00753,0.0806 0.30502,0.047 0.92257,0.12664 1.28569,0.21416 0.36312,0.0875 0.62247,0.24182 1.00683,0.33358 1.53745,0.36705 2.79386,0.92104 2.97375,1.01097 0.1799,0.0899 0.13913,0.14589 2.39684,1.17306 2.25771,1.02716 2.94908,1.32963 3.13054,1.41524 0.0454,0.0214 1.8665,0.79535 2.12305,0.86736 0.25656,0.072 1.33931,0.67009 1.74674,0.77816 0.40742,0.10807 2.25547,0.82338 2.75344,0.95301 0.49798,0.12964 1.01052,0.31329 1.53873,0.44998 0.52821,0.13669 0.97832,0.24202 1.47643,0.37126 0.49811,0.12923 0.9036,0.21986 1.3113,0.32713 0.40771,0.10727 0.72387,0.13744 0.98084,0.20824 0.25697,0.0708 0.50162,0.0689 0.81708,0.12784 0.4614,0.0762 0.75326,0.0765 1.08384,0.13374 0.32788,0.0322 0.72744,0.0725 1.13016,0.0957 0.4033,0.0233 0.73671,0.0553 1.16391,0.0447 0.4272,-0.0106 1.0185,-0.0525 1.42199,-0.0614 0.40348,-0.009 0.81106,-0.0518 1.1388,-0.10584 0.3556,-0.0587 0.49401,-0.077 0.70495,-0.10837 0.22885,-0.0341 0.31565,-0.0697 0.8392,-0.22441 0.44717,-0.13214 0.67264,-0.15229 1.11431,-0.34473 0.40676,-0.17723 0.41797,-0.13582 1.13555,-0.49257 0.71758,-0.35675 1.68898,-1.06549 2.4379,-1.71816 0.67545,-0.58863 1.21917,-1.36626 1.81399,-2.24074 0.62096,-0.9129 1.39559,-2.38923 2.28118,-2.84042 0.8856,-0.45119 1.74155,-0.43614 2.54182,-0.49398 0.67384,-0.0487 2.04818,0.0143 2.52028,0.11746 0.4884,0.10671 0.77066,0.30536 1.11193,0.65919 0.30994,0.32135 0.28506,1.32558 0.0599,2.0338 -0.22064,0.69402 -0.56086,1.95905 -1.13855,3.04546 -0.59207,1.11344 -1.58561,3.50586 -2.3969,4.81019 -0.83491,1.34232 -1.43989,2.37923 -2.60884,3.7412 -1.09881,1.28024 -1.6304,1.90029 -2.81154,2.92761 -1.19217,1.03691 -2.10741,1.56963 -3.03813,2.11308 -1.08766,0.63509 -1.44351,0.753 -1.9993,1.02244 -0.65318,0.31665 -1.86721,0.71945 -2.40193,0.9461 -0.47564,0.20161 -0.56841,0.18165 -0.84912,0.2419 -0.34569,0.0742 -0.82171,0.23185 -1.42757,0.36356 -0.62551,0.13599 -1.7624,0.34746 -2.54009,0.43561 -0.80687,0.0915 -1.49697,0.16182 -2.36498,0.20758 -0.86802,0.0458 -1.80397,0.0271 -2.60898,0.009 -0.81148,-0.0178 -1.56918,-0.0134 -2.17442,-0.0548 -0.6379,-0.0437 -1.22107,-0.14413 -1.53951,-0.2027 -0.34662,-0.0637 -0.47036,-0.0522 -0.42049,-0.044 0.0146,1.20914 3.89992,21.70492 4.2016,22.00661 0.76658,0.76658 12.05545,5.31643 13.19087,5.31643 0.6274,0 4.41571,-1.4447 8.74585,-4.35629 l 7.873,-5.29379 6.94941,6.94941 6.94941,6.94941 -5.3769,8.38389 -5.37689,8.38389 2.74461,6.63108 c 1.50954,3.64709 2.87525,6.77391 3.03491,6.94849 0.15967,0.17457 4.24881,1.02841 9.08699,1.89741 4.8382,0.869 8.97459,1.75787 9.19199,1.97528 0.2174,0.2174 0.62302,4.712 0.90134,9.98799 0.41051,7.78159 0.27741,9.66547 -0.70501,9.97807 -0.66609,0.21194 -4.91324,1.02473 -9.43812,1.8062 l -8.22704,1.42084 -3.22245,7.37952 -3.22244,7.37951 5.26873,7.83571 5.2687,7.83571 -6.90888,6.90889 c -5.88954,5.88954 -7.15249,6.77853 -8.55987,6.02533 -1.37889,-0.73797 -2.12296,-0.32138 -4.51504,2.52786 l -2.86406,3.41142 8.17959,11.45169 c 19.95456,27.93693 35.6292,45.56453 45.8963,51.61453 15.09427,8.8945 30.26606,9.397 42.34646,1.4025 2.72304,-1.802 3.30438,-2.6912 3.30438,-5.0545 0,-6.4283 8.45439,-9.4937 12.66929,-4.5936 2.29826,2.6719 2.48528,3.8572 1.09129,6.9167 -1.02427,2.248 -4.07786,4.0333 -6.89877,4.0333 -0.9442,0 -3.65297,1.5305 -6.01947,3.4011 -7.53641,5.9572 -12.47241,7.3635 -25.95647,7.3955 -13.2371,0.031 -22.8301,-1.7152 -29.68004,-5.4036 -5.25879,-2.8316 -16.79758,-14.8095 -23.96608,-24.8781 -3.05201,-4.2868 -5.6749,-7.9564 -5.82865,-8.1549 -0.15375,-0.1985 -0.50332,-0.1371 -0.77682,0.1364 -0.53899,0.539 8.16264,16.8721 13.20408,24.7843 8.94273,14.0349 12.54276,16.2012 33.19144,19.9726 17.33682,3.1665 21.74003,4.4352 27.02224,7.7858 7.38254,4.6828 9.43171,12.208 5.5622,20.4261 -2.66691,5.664 -5.69906,8.79 -10.65058,10.9803 -8.4228,3.7258 -17.73495,0.087 -21.6475,-8.4593 -1.34349,-2.9345 -3.04867,-5.1743 -4.51763,-5.9339 -4.7801,-2.4719 -5.19911,-8.1593 -0.82673,-11.2218 3.07975,-2.1571 6.57589,-1.7337 9.45463,1.145 2.95743,2.9575 3.17981,5.0708 0.84583,8.038 -1.67667,2.1315 -1.67553,2.1572 0.2165,4.878 5.67862,8.1658 19.65517,2.6926 19.65517,-7.6969 0,-3.5337 -4.47864,-8.125 -9.14536,-9.3755 -1.87644,-0.5028 -8.67269,-1.5209 -15.10277,-2.2625 -19.89477,-2.2943 -26.92397,-4.8698 -34.03294,-12.4699 -4.11838,-4.4029 -14.00247,-18.9329 -17.9818,-26.434 -2.01433,-3.7971 -4.24653,-5.6268 -2.99775,-2.4573 0.32841,0.8335 1.37449,5.0228 2.32462,9.3095 1.5631,7.0524 1.66956,9.6123 1.11865,26.8995 -0.53138,16.6744 -0.41997,19.7597 0.87566,24.2481 2.85097,9.8766 7.17925,14.2265 14.1618,14.2325 4.2294,0 6.83888,-1.0898 9.01686,-3.7786 2.8903,-3.5681 1.27943,-11.8062 -2.30857,-11.8062 -4.7654,0 -8.26326,-5.3732 -6.15363,-9.4527 4.01205,-7.7585 15.81948,-3.5569 13.55578,4.8236 -0.4882,1.8074 -0.13017,3.6181 1.34336,6.7941 2.98208,6.4275 2.74636,11.6762 -0.7007,15.6022 -3.27896,3.7345 -6.14416,5.307 -11.93183,6.5482 -9.49995,2.0374 -19.08469,-3.7115 -24.61356,-14.7631 -4.3716,-8.7383 -5.39502,-15.8695 -4.33694,-30.2202 1.41892,-19.2444 -0.12828,-29.144 -7.19148,-46.0144 -3.62025,-8.647 -5.95382,-12.87384 -6.65862,-12.0609 -0.17633,0.2034 0.19471,4.4617 0.82453,9.4628 0.62982,5.0012 1.15977,17.5759 1.17764,27.9438 0.0273,15.8169 0.32538,20.2071 1.85216,27.2791 2.68264,12.426 6.97837,26.0659 14.79124,46.9657 8.04472,21.52 8.88308,26.1542 5.7148,31.5896 -1.43443,2.4609 -3.44898,4.1816 -7.05489,6.0257 -4.31397,2.2063 -6.19857,2.6206 -12.97348,2.8524 -6.11931,0.2094 -8.92039,-0.098 -12.28671,-1.3491 z"
       id="path4195-2"
       inkscape:connector-curvature="0"
       sodipodi:nodetypes="csssssssssscsssssssssssscssssssssssssssssssssssssssssssssssssssssssssssscccccsscscscssscssscccccsssscssssssssssscccsssssscccsssssssssssssssccsssssssssssssccssssssssssssssssssssssssssssscssscccccssssssscccccssscssssssssssssssssssssssssssssssssscsssssssssssssssssssc" />
  </g>
</svg>
