<?xml version="1.0" encoding="UTF-8" standalone="no"?>
<!-- Created with Inkscape (http://www.inkscape.org/) -->

<svg
   xmlns:dc="http://purl.org/dc/elements/1.1/"
   xmlns:cc="http://creativecommons.org/ns#"
   xmlns:rdf="http://www.w3.org/1999/02/22-rdf-syntax-ns#"
   xmlns:svg="http://www.w3.org/2000/svg"
   xmlns="http://www.w3.org/2000/svg"
   xmlns:sodipodi="http://sodipodi.sourceforge.net/DTD/sodipodi-0.dtd"
   xmlns:inkscape="http://www.inkscape.org/namespaces/inkscape"
   width="99mm"
   height="99.900002mm"
   id="svg3274"
   version="1.1"
   inkscape:version="0.92.4 (33fec40, 2019-01-16)"
   sodipodi:docname="Base_2019_01.99_99.svg"
   inkscape:export-filename="/home/salvari/work/graphicsResources/BL/oshwi.png"
   inkscape:export-xdpi="90"
   inkscape:export-ydpi="90">
  <defs
     id="defs3276" />
  <sodipodi:namedview
     id="base"
     pagecolor="#81b0cd"
     bordercolor="#666666"
     borderopacity="1.0"
     inkscape:pageopacity="1"
     inkscape:pageshadow="2"
     inkscape:zoom="4"
     inkscape:cx="145.83722"
     inkscape:cy="234.28021"
     inkscape:document-units="mm"
     inkscape:current-layer="g4715"
     showgrid="false"
     inkscape:window-width="1397"
     inkscape:window-height="1023"
     inkscape:window-x="523"
     inkscape:window-y="27"
     inkscape:window-maximized="0"
     units="mm"
     inkscape:snap-global="false"
     showguides="true" />
  <metadata
     id="metadata3279">
    <rdf:RDF>
      <cc:Work
         rdf:about="">
        <dc:format>image/svg+xml</dc:format>
        <dc:type
           rdf:resource="http://purl.org/dc/dcmitype/StillImage" />
        <dc:title></dc:title>
      </cc:Work>
    </rdf:RDF>
  </metadata>
  <g
     inkscape:label="Outline_Base"
     inkscape:groupmode="layer"
     id="layer1"
     transform="translate(0,-697.93703)"
     style="display:none">
    <path
       d="m 172.1716,762.24808 c 9.66583,12.83492 14.29989,29.39676 10.98293,45.95594"
       id="path33"
       inkscape:connector-curvature="0"
       style="fill:none;stroke-width:1.08618402" />
    <path
       d="m 128.27758,738.44436 c 13.5497,0.70788 25.94815,6.27572 35.57679,14.80232"
       id="path35"
       inkscape:connector-curvature="0"
       style="fill:none;stroke-width:1.08618402" />
    <path
       style="fill:none;stroke:#010202;stroke-width:0.03689481;stroke-miterlimit:10"
       inkscape:connector-curvature="0"
       id="path42"
       d="M 135.55905,871.15765"
       stroke-miterlimit="10" />
    <path
       style="fill:none;stroke:#010202;stroke-width:0.03689481;stroke-miterlimit:10"
       inkscape:connector-curvature="0"
       id="path44"
       d="M 148.34567,870.82979"
       stroke-miterlimit="10" />
    <path
       style="fill:none;stroke:#010202;stroke-width:0.03689481;stroke-miterlimit:10"
       inkscape:connector-curvature="0"
       id="path46"
       d="M 135.55905,870.8016"
       stroke-miterlimit="10" />
    <path
       style="fill:none;stroke:#010202;stroke-width:0.03689481;stroke-miterlimit:10"
       inkscape:connector-curvature="0"
       id="path48"
       d="M 148.14049,875.84061"
       stroke-miterlimit="10" />
    <path
       style="fill:none;stroke:#010202;stroke-width:0.03689481;stroke-miterlimit:10"
       inkscape:connector-curvature="0"
       id="path50"
       d="M 135.35358,875.81239"
       stroke-miterlimit="10" />
    <path
       style="fill:#808000;fill-opacity:1;stroke:#000000;stroke-width:0.46559325;stroke-linejoin:round;stroke-miterlimit:10;stroke-dasharray:none;stroke-dashoffset:0;stroke-opacity:1"
       d="m 141.02487,1071.3799 c -2.60492,-0.9678 -5.64592,-2.2468 -6.75782,-2.8417 -1.11189,-0.5951 -3.68551,-1.0818 -5.71917,-1.0818 -5.04941,0 -8.65445,-2.899 -8.65445,-6.9591 0,-6.9296 9.20581,-10.2307 13.76118,-4.9347 1.22635,1.4258 2.22972,3.5684 2.22972,4.7614 0,1.8842 0.70064,2.31 5.33039,3.2396 6.69553,1.345 15.37088,1.3772 18.82984,0.07 3.70556,-1.4003 7.62615,-5.3751 8.29214,-8.4073 0.79146,-3.6033 -1.99061,-10.2484 -10.63402,-25.6844 -7.04941,-12.5893 -9.15037,-22 -10.86065,-26.4882 -1.90206,-5.0884 -1.71533,-4.83587 -2.85937,-9.93531 -2.56446,-13.1515 -5.50275,-17.39059 -6.86765,-19.14703 -1.3649,-1.75646 -6.07678,-3.69246 -8.3078,0.9987 -1.54792,3.2548 -4.96569,12.8687 -5.6717,15.44173 -1.31594,4.79589 -2.47573,7.50188 -3.95852,11.31121 -2.53339,6.5082 -3.47874,12.3488 -4.99409,16.6574 -2.61791,7.4434 -3.4527,14.1811 -2.1709,17.5213 1.27679,3.3275 10.1487,5.5117 14.93141,3.6765 2.36355,-0.907 3.31795,-4.4204 2.25067,-8.2857 -0.74637,-2.7033 -1.68247,-3.6982 -4.5634,-4.851 -6.7787,-2.7125 -7.29788,-9.803 -0.95784,-13.0816 2.38616,-1.2337 3.51327,-1.3144 6.16217,-0.4403 3.97395,1.3115 5.23209,3.4883 5.02115,8.6872 -0.089,2.1945 0.26741,6.0252 0.79216,8.5124 1.74256,8.2598 -1.24379,14.4918 -8.01541,16.7267 -5.24333,1.7302 -18.03043,0.6849 -22.05671,-1.8035 -8.210527,-5.0742 -6.879099,-12.4636 0.18776,-36.9452 6.42264,-22.24985 6.22321,-24.76284 5.64709,-29.39773 -0.39488,-4.18616 -1.78391,-6.6074 -6.05671,-7.40256 -2.70675,-0.48421 -4.18087,0.43936 -5.412646,2.35698 -1.04631,1.62891 -0.768836,3.13307 -1.66591,14.78761 -1.787623,23.2243 -1.930447,30.6789 -6.113107,41.8888 -4.744236,12.7148 -13.526806,22.223 -23.534115,25.4795 -2.58677,0.8417 -6.023032,2.3246 -7.636156,3.2958 -4.226473,2.544 -7.554326,2.2401 -10.778695,-0.9842 -4.233491,-4.2335 -3.253426,-8.5782 2.474926,-10.9716 2.810827,-1.1744 3.649534,-1.1506 7.026949,0.201 3.593706,1.4378 4.07193,1.4276 7.596193,-0.1611 6.9982,-3.1557 11.863404,-10.5317 15.068528,-22.8444 1.49636,-5.7483 2.262315,-12.3668 2.757885,-32.61107 0.303813,-12.41088 1.458777,-15.2362 0.528275,-19.38489 -0.506826,-2.25942 -3.765268,-4.21037 -5.139489,-4.16793 0,0 -3.213072,-0.34742 -4.823112,3.15843 -2.041081,4.44411 -2.534803,9.62401 -4.67436,19.45385 -7.581619,34.83201 -10.385635,40.04731 -22.763735,42.33761 -11.248395,2.0811 -24.317634,-7.0536 -24.317634,-16.9971 0,-1.3575 -0.846573,-3.5446 -1.881282,-4.8602 -2.46554,-3.1344 -2.379862,-6.1567 0.261596,-9.2274 4.564246,-5.30636 13.848015,-2.08129 13.848015,4.8107 0,2.3617 -0.759667,3.6465 -3.417257,5.7784 -3.149337,2.5264 -3.324485,2.9206 -2.234053,5.0299 3.352322,6.4828 9.301798,9.2646 15.972905,7.4683 7.414356,-1.9965 11.549121,-9.1101 15.06736,-33.9743 2.221665,-15.70101 2.361846,-19.75501 3.192186,-34.03716 0.149432,-2.57031 -0.251705,-3.75193 -1.377956,-5.11709 -1.138515,-1.38002 -4.821839,-3.04823 -8.12973,-2.08821 -3.093954,0.89793 -6.447114,1.5621 -19.77271,6.17931 -15.224388,5.27514 -20.574239,9.25881 -24.158355,16.81164 -4.7078364,9.92109 4.036706,19.87369 11.975018,13.62929 2.101582,-1.65311 2.299809,-2.25352 1.500953,-4.54507 -2.104112,-6.03583 4.055465,-11.62619 10.380535,-9.42132 5.342298,1.86229 6.625983,8.62568 2.285199,12.04029 -1.36315,1.0721 -2.879245,1.94944 -3.369093,1.94944 -0.489848,0 -2.655026,1.42559 -4.811513,3.16783 -5.500199,4.44411 -7.451562,5.29796 -12.106435,5.29796 -12.2861872,0 -18.6654461,-15.02714 -12.1792535,-28.68948 4.6834649,-9.86541 9.7309725,-13.47585 31.6525045,-22.64077 4.65618,-1.94665 10.582213,-4.88951 13.168973,-6.53966 11.174044,-7.12822 21.753553,-21.68104 35.353786,-48.63158 l 6.11639,-15.43444 -3.064353,-3.16162 -3.064361,-3.16161 -0.710684,0.43888 -3.141364,1.94147 -5.397663,-4.69836 c -2.968712,-2.5841 -6.551092,-5.91425 -7.960848,-7.40035 l -2.56318,-2.70197 5.618399,-7.96857 c 3.090128,-4.38277 5.599451,-8.39191 5.576293,-8.90925 -0.02315,-0.51736 -1.421639,-4.32696 -3.107737,-8.46577 l -3.065634,-7.52513 -7.942917,-1.64502 c -4.36861,-0.90478 -8.895325,-1.86522 -10.059369,-2.13436 -2.041938,-0.47214 -2.116442,-0.86555 -2.116442,-11.17771 v -10.68838 l 9.17124,-1.63506 c 10.846843,-1.93376 11.972706,-2.43335 13.199864,-5.85717 0.513841,-1.43366 1.778574,-4.72307 2.810513,-7.30984 l 1.876253,-4.70319 -6.034447,-8.41532 -6.03446,-8.41531 7.698689,-7.73889 7.698699,-7.73889 8.286751,5.57199 c 4.557721,3.0646 8.933471,5.572 9.723907,5.572 0.790429,0 4.225521,-1.11627 7.633511,-2.48056 7.01912,-2.80995 7.38176,-2.58589 9.32194,-15.15643 l 3.21377,-20.82226 c 0.21938,0.0197 -1.00887,-0.35845 -2.22656,-0.58819 -1.21767,-0.22976 -2.3888,-0.32301 -2.17516,-0.28523 0.21365,0.0377 -1.02615,-0.15127 -3.32327,-0.0485 -2.29712,0.10277 -5.65036,0.53195 -5.4369,0.50315 0.22664,-0.0304 -1.08024,0.23104 -2.53218,0.87403 -1.45195,0.64295 -2.80186,1.85906 -2.64657,1.71026 0.31839,-0.30511 -0.39743,0.44976 -1.138118,1.25542 -0.740694,0.80569 -1.343797,2.00212 -1.437395,2.19628 -0.159169,0.33012 -0.637843,1.35628 -1.405253,2.07263 -0.767418,0.71634 -1.240372,0.86486 -1.445419,0.93394 -0.293931,0.0989 -1.098495,0.25825 -2.191575,0.21519 -1.093089,-0.0431 -1.381266,-0.0256 -1.606581,-0.0213 -0.06447,10e-4 -0.130146,0.003 -0.188777,0.006 -0.112895,0.003 -0.225802,0.004 -0.329538,0.009 -0.06552,0.001 -0.135951,0.001 -0.210951,0.003 -0.07508,6.1e-4 -0.154589,8.1e-4 -0.23827,4.4e-4 -0.08362,-3.8e-4 -0.171468,-10e-4 -0.262916,-0.003 -0.09145,-10e-4 -0.186585,-0.003 -0.284949,-0.006 -0.09836,-0.003 -0.192145,-0.005 -0.281408,-0.006 -0.08926,-9.6e-4 -0.173964,-8.6e-4 -0.254177,9e-5 -0.08017,9.3e-4 -0.155911,0.002 -0.227132,0.005 -0.128659,0.003 -0.25295,0.0121 -0.373895,0.0185 -0.130389,0.009 -0.241687,0.0136 -0.362712,0.0217 -0.03563,0.001 -0.0043,-0.0929 0.04888,-0.23382 0.04964,-0.13127 0.155828,-0.35035 0.226763,-0.62833 0.07091,-0.27796 0.196589,-0.55484 0.314984,-0.93982 0.118383,-0.385 0.301556,-0.88408 0.46352,-1.35448 0.161965,-0.47036 0.332732,-0.936 0.534364,-1.47014 0.201636,-0.53414 0.356125,-1.13072 0.593529,-1.70695 0.237416,-0.57621 0.377747,-1.17412 0.647042,-1.77078 0.269295,-0.59668 0.511564,-1.20422 0.808866,-1.79974 0.594566,-1.19102 1.004583,-2.42445 1.695498,-3.50123 0.690915,-1.07682 1.355539,-2.09297 1.987557,-2.92898 0.632028,-0.83605 1.64699,-1.61608 2.064892,-2.08483 0.417904,-0.46874 2.395401,-2.16801 2.754851,-2.38198 0.89131,-0.53049 2.67107,-2.2376 7.13055,-3.45622 1.3846,-0.37834 2.8162,-0.55659 4.24837,-0.7417 1.43219,-0.18512 2.10029,-0.16571 3.33924,-0.25795 1.27788,-0.0952 2.56331,-0.13824 3.34398,-0.14991 0.71428,-0.009 1.4898,0.006 2.047,0.0525 0.46878,0.0494 0.76064,0.0364 1.09436,0.0874 0.33131,0.0509 1.00208,0.13748 1.3965,0.23263 0.39441,0.0952 0.67611,0.26267 1.0936,0.36233 1.66995,0.39868 3.03464,1.00041 3.23004,1.09809 0.1954,0.0975 0.15112,0.1584 2.60341,1.27415 2.45229,1.11569 3.20323,1.44424 3.40035,1.53721 0.0493,0.0232 2.02735,0.86389 2.30602,0.94212 0.27867,0.0783 1.45473,0.72785 1.89727,0.84523 0.44254,0.11733 2.44987,0.89432 2.99075,1.03516 0.5409,0.14081 1.09761,0.34028 1.67135,0.48876 0.57373,0.14854 1.06263,0.26285 1.60367,0.40326 0.54104,0.14021 0.98147,0.23881 1.42432,0.3553 0.44283,0.11656 0.78625,0.1493 1.06536,0.22619 0.27912,0.077 0.54485,0.0747 0.88749,0.13885 0.50116,0.0828 0.81818,0.0831 1.17725,0.14537 0.35614,0.035 0.79015,0.0787 1.22756,0.10413 0.43807,0.0253 0.80022,0.0601 1.26423,0.0486 0.464,-0.0106 1.10628,-0.057 1.54453,-0.0668 0.43826,-0.009 0.88098,-0.0561 1.23695,-0.11504 0.38625,-0.064 0.5366,-0.0837 0.76572,-0.11763 0.24858,-0.0371 0.34285,-0.0756 0.91151,-0.24376 0.48571,-0.14353 0.73062,-0.16534 1.21035,-0.37442 0.44182,-0.19252 0.454,-0.14764 1.23342,-0.53504 0.77943,-0.38749 1.83453,-1.15732 2.64801,-1.86623 0.73365,-0.63938 1.32423,-1.48402 1.97031,-2.43385 0.6745,-0.99157 1.51589,-2.59516 2.47779,-3.08521 0.96191,-0.49009 1.89164,-0.47374 2.7609,-0.53658 0.73192,-0.0529 2.22469,0.017 2.7375,0.12747 0.53047,0.1158 0.83706,0.33166 1.20776,0.716 0.33665,0.34904 0.30961,1.43984 0.0652,2.20907 -0.23966,0.75383 -0.60923,2.12791 -1.23671,3.30792 -0.64309,1.20941 -1.72225,3.80803 -2.60347,5.22476 -0.90685,1.45801 -1.56397,2.5843 -2.8337,4.06364 -1.19349,1.3906 -1.77092,2.06407 -3.05383,3.17992 -1.29491,1.12627 -2.28904,1.70492 -3.29997,2.2952 -1.18139,0.68983 -1.56792,0.81789 -2.17159,1.11056 -0.7095,0.34395 -2.02815,0.78147 -2.60894,1.02764 -0.51664,0.21899 -0.61741,0.19731 -0.92232,0.26276 -0.37549,0.0805 -0.89252,0.25182 -1.55061,0.3949 -0.67942,0.14749 -1.91427,0.37738 -2.75899,0.47313 -0.87642,0.0995 -1.62599,0.17582 -2.56881,0.22547 -0.94283,0.0497 -1.95943,0.0295 -2.83383,0.009 -0.8814,-0.0193 -1.7044,-0.0136 -2.36181,-0.0595 -0.69288,-0.0473 -1.32631,-0.15672 -1.67219,-0.22016 -0.3765,-0.0692 -0.5109,-0.0567 -0.45674,-0.0476 0.0158,1.31335 4.23604,23.57553 4.56371,23.90323 0.83265,0.83264 13.09442,5.77461 14.32772,5.77461 0.68148,0 4.79625,-1.56922 9.49961,-4.73172 l 8.55153,-5.75004 7.54834,7.54836 7.54832,7.54834 -5.8403,9.10644 -5.84028,9.10644 2.98114,7.20258 c 1.63964,3.96142 3.12305,7.35773 3.29647,7.54734 0.17348,0.18962 4.61499,1.11704 9.87014,2.06093 5.2552,0.94389 9.74805,1.90938 9.98421,2.14552 0.23613,0.23615 0.67669,5.11809 0.979,10.84881 0.44591,8.45222 0.30134,10.49847 -0.76577,10.83801 -0.72348,0.23021 -5.33668,1.11303 -10.25152,1.96185 l -8.93608,1.54332 -3.50019,8.0155 -3.50016,8.01551 5.72281,8.51103 5.72279,8.51103 -6.87933,8.2543 c -1.59355,1.91205 -6.73226,7.11953 -7.72804,8.15522 -0.56038,-0.27903 -0.93526,-0.60072 -1.67967,-1.0679 -0.68191,0.22032 -1.70209,1.51392 -3.20933,3.3092 l -3.11091,3.70542 6.67485,10.5825 c 19.894,31.54054 38.69986,49.49145 49.85183,56.06286 16.39516,9.66112 32.87452,10.20689 45.99605,1.52341 2.95773,-1.95733 3.58916,-2.92321 3.58916,-5.49012 0,-6.9824 9.18304,-10.31195 13.7612,-4.98951 2.49633,2.90217 2.69947,4.18966 1.18534,7.51281 -1.11255,2.44178 -4.4293,4.3809 -7.49334,4.3809 -1.02558,0 -3.96779,1.66239 -6.53826,3.69425 -8.18592,6.47054 -20.67282,9.21895 -25.19352,9.15788 -3.3777,-0.0456 -14.45678,0.0571 -21.265,-1.83587 -3.41379,-1.44771 -4.66448,-2.34453 -6.14353,-2.91909 -2.60138,-0.78416 -3.87504,-0.33182 -4.6499,0.18757 -0.77219,0.51759 -1.26607,1.19671 -1.39747,2.36455 -0.23188,2.0608 2.17849,3.55581 3.60851,4.65328 5.11758,2.20511 8.7218,2.5801 11.79718,3.43772 18.78191,3.69789 23.61368,4.81729 29.35114,8.45667 8.0188,5.08666 10.2446,13.26035 6.04158,22.18662 -2.89677,6.15229 -6.19022,9.54749 -11.56848,11.92659 -9.14872,4.0472 -19.26342,0.096 -23.51319,-9.18824 -1.45929,-3.18762 -3.31141,-5.6203 -4.90696,-6.44534 -5.19207,-2.68505 -5.6472,-8.86246 -0.89799,-12.18899 3.34518,-2.34294 7.14262,-1.88305 10.26947,1.2437 3.2123,3.21239 3.45385,5.50789 0.91872,8.73074 -1.82117,2.31535 -1.81992,2.34324 0.23517,5.29825 6.16802,8.86968 21.34914,2.92476 21.34914,-8.35997 0,-3.83826 -4.86464,-8.82548 -9.93356,-10.18362 -2.03816,-0.54629 -4.41109,-1.49741 -11.23548,-3.18763 -12.25424,-3.03505 -14.38142,-2.56524 -19.04069,-3.6787 -2.96842,-0.7094 -11.36657,-2.21253 -16.07292,-2.99443 -3.80267,-0.63176 -11.67248,-0.0668 -14.46685,0.85574 -2.92964,0.96719 -5.95621,3.12493 -7.29903,6.15619 -0.9602,2.16758 -2.47343,4.65628 -3.02829,6.21785 -1.00344,2.82402 -1.73095,10.04002 -0.32353,14.91507 3.09669,10.72788 7.79798,15.45278 15.38233,15.45928 4.5939,0 7.42826,-1.1838 9.79399,-4.1044 3.13935,-3.8756 1.38968,-12.82352 -2.50756,-12.82352 -5.17611,0 -8.97542,-5.83651 -6.68397,-10.26759 4.35782,-8.42697 17.18286,-3.86342 14.72406,5.23945 -0.53027,1.96308 -0.14142,3.92996 1.45914,7.37957 3.23909,6.98159 2.98307,12.68259 -0.76108,16.94689 -3.56157,4.0563 -6.67369,5.7645 -12.96018,7.1126 -10.31868,2.2129 -23.53427,-3.0002 -26.73485,-16.0355 -1.01511,-4.13455 -1.29502,-8.14573 -1.72405,-12.54724 -0.63324,-6.49647 -1.40942,-8.13819 -2.82483,-11.79939 -0.76694,-1.9838 -4.24523,-6.21161 -6.85853,-6.4653 -4.07089,-0.39526 -6.09442,1.62237 -6.44136,5.93622 -0.0524,3.297 0.18493,3.99885 1.37147,12.16896 2.91385,13.49695 7.91305,18.63865 16.97529,38.07555 10.54504,22.6172 9.64867,28.4083 6.20734,34.3121 -1.55806,2.6729 -3.74622,4.542 -7.66291,6.5451 -4.68578,2.3965 -6.7328,2.8463 -14.0916,3.0983 -6.6467,0.2272 -9.68916,-0.1046 -13.34561,-1.4656 z"
       id="path4195"
       inkscape:connector-curvature="0"
       sodipodi:nodetypes="cssssssssscczsssssssssscssssccsssssssssssssssssssssssssssssssssssssssscccccsscscscssscssscccccsssscssssssssssscccsssssscccsssssssssssssssccsssssssssssssccssssssssssssssssssssssssssssscssscccccssssssscccccsccscsssssssssccssccsssssssssssssssssscsssssssssssccsssssc" />
  </g>
  <g
     style="display:inline"
     transform="translate(0,-697.93703)"
     id="g4691"
     inkscape:groupmode="layer"
     inkscape:label="Outline_Base copy">
    <path
       style="fill:none;stroke-width:1.08618402"
       inkscape:connector-curvature="0"
       id="path4675"
       d="m 172.1716,762.24808 c 9.66583,12.83492 14.29989,29.39676 10.98293,45.95594" />
    <path
       style="fill:none;stroke-width:1.08618402"
       inkscape:connector-curvature="0"
       id="path4677"
       d="m 128.27758,738.44436 c 13.5497,0.70788 25.94815,6.27572 35.57679,14.80232" />
    <path
       stroke-miterlimit="10"
       d="M 135.55905,871.15765"
       id="path4679"
       inkscape:connector-curvature="0"
       style="fill:none;stroke:#010202;stroke-width:0.03689481;stroke-miterlimit:10" />
    <path
       stroke-miterlimit="10"
       d="M 148.34567,870.82979"
       id="path4681"
       inkscape:connector-curvature="0"
       style="fill:none;stroke:#010202;stroke-width:0.03689481;stroke-miterlimit:10" />
    <path
       stroke-miterlimit="10"
       d="M 135.55905,870.8016"
       id="path4683"
       inkscape:connector-curvature="0"
       style="fill:none;stroke:#010202;stroke-width:0.03689481;stroke-miterlimit:10" />
    <path
       stroke-miterlimit="10"
       d="M 148.14049,875.84061"
       id="path4685"
       inkscape:connector-curvature="0"
       style="fill:none;stroke:#010202;stroke-width:0.03689481;stroke-miterlimit:10" />
    <path
       stroke-miterlimit="10"
       d="M 135.35358,875.81239"
       id="path4687"
       inkscape:connector-curvature="0"
       style="fill:none;stroke:#010202;stroke-width:0.03689481;stroke-miterlimit:10" />
    <path
       sodipodi:nodetypes="cssssssssscczsssssssssscssssccsssssssssssssssssssssssssssssssssssssssscccccsscscscssscssscccccsssscssssssssssscccsssssscccsssssssssssssssccsssssssssssssccssssssssssssssssssssssssssssscssscccccssssssscccccsccscsssssssssccssccsssssssssssssssssscsssssssssssccsssssc"
       inkscape:connector-curvature="0"
       id="path4689"
       d="m 141.02487,1071.3799 c -2.60492,-0.9678 -5.64592,-2.2468 -6.75782,-2.8417 -1.11189,-0.5951 -3.68551,-1.0818 -5.71917,-1.0818 -5.04941,0 -8.65445,-2.899 -8.65445,-6.9591 0,-6.9296 9.20581,-10.2307 13.76118,-4.9347 1.22635,1.4258 2.22972,3.5684 2.22972,4.7614 0,1.8842 0.70064,2.31 5.33039,3.2396 6.69553,1.345 15.37088,1.3772 18.82984,0.07 3.70556,-1.4003 7.62615,-5.3751 8.29214,-8.4073 0.79146,-3.6033 -1.99061,-10.2484 -10.63402,-25.6844 -7.04941,-12.5893 -9.15037,-22 -10.86065,-26.4882 -1.90206,-5.0884 -1.71533,-4.83587 -2.85937,-9.93531 -2.56446,-13.1515 -5.50275,-17.39059 -6.86765,-19.14703 -1.3649,-1.75646 -6.07678,-3.69246 -8.3078,0.9987 -1.54792,3.2548 -4.96569,12.8687 -5.6717,15.44173 -1.31594,4.79589 -2.47573,7.50188 -3.95852,11.31121 -2.53339,6.5082 -3.47874,12.3488 -4.99409,16.6574 -2.61791,7.4434 -3.4527,14.1811 -2.1709,17.5213 1.27679,3.3275 10.1487,5.5117 14.93141,3.6765 2.36355,-0.907 3.31795,-4.4204 2.25067,-8.2857 -0.74637,-2.7033 -1.68247,-3.6982 -4.5634,-4.851 -6.7787,-2.7125 -7.29788,-9.803 -0.95784,-13.0816 2.38616,-1.2337 3.51327,-1.3144 6.16217,-0.4403 3.97395,1.3115 5.23209,3.4883 5.02115,8.6872 -0.089,2.1945 0.26741,6.0252 0.79216,8.5124 1.74256,8.2598 -1.24379,14.4918 -8.01541,16.7267 -5.24333,1.7302 -18.03043,0.6849 -22.05671,-1.8035 -8.210527,-5.0742 -6.879099,-12.4636 0.18776,-36.9452 6.42264,-22.24985 6.22321,-24.76284 5.64709,-29.39773 -0.39488,-4.18616 -1.78391,-6.6074 -6.05671,-7.40256 -2.70675,-0.48421 -4.18087,0.43936 -5.412646,2.35698 -1.04631,1.62891 -0.768836,3.13307 -1.66591,14.78761 -1.787623,23.2243 -1.930447,30.6789 -6.113107,41.8888 -4.744236,12.7148 -13.526806,22.223 -23.534115,25.4795 -2.58677,0.8417 -6.023032,2.3246 -7.636156,3.2958 -4.226473,2.544 -7.554326,2.2401 -10.778695,-0.9842 -4.233491,-4.2335 -3.253426,-8.5782 2.474926,-10.9716 2.810827,-1.1744 3.649534,-1.1506 7.026949,0.201 3.593706,1.4378 4.07193,1.4276 7.596193,-0.1611 6.9982,-3.1557 11.863404,-10.5317 15.068528,-22.8444 1.49636,-5.7483 2.262315,-12.3668 2.757885,-32.61107 0.303813,-12.41088 1.458777,-15.2362 0.528275,-19.38489 -0.506826,-2.25942 -3.765268,-4.21037 -5.139489,-4.16793 0,0 -3.213072,-0.34742 -4.823112,3.15843 -2.041081,4.44411 -2.534803,9.62401 -4.67436,19.45385 -7.581619,34.83201 -10.385635,40.04731 -22.763735,42.33761 -11.248395,2.0811 -24.317634,-7.0536 -24.317634,-16.9971 0,-1.3575 -0.846573,-3.5446 -1.881282,-4.8602 -2.46554,-3.1344 -2.379862,-6.1567 0.261596,-9.2274 4.564246,-5.30636 13.848015,-2.08129 13.848015,4.8107 0,2.3617 -0.759667,3.6465 -3.417257,5.7784 -3.149337,2.5264 -3.324485,2.9206 -2.234053,5.0299 3.352322,6.4828 9.301798,9.2646 15.972905,7.4683 7.414356,-1.9965 11.549121,-9.1101 15.06736,-33.9743 2.221665,-15.70101 2.361846,-19.75501 3.192186,-34.03716 0.149432,-2.57031 -0.251705,-3.75193 -1.377956,-5.11709 -1.138515,-1.38002 -4.821839,-3.04823 -8.12973,-2.08821 -3.093954,0.89793 -6.447114,1.5621 -19.77271,6.17931 -15.224388,5.27514 -20.574239,9.25881 -24.158355,16.81164 -4.7078364,9.92109 4.036706,19.87369 11.975018,13.62929 2.101582,-1.65311 2.299809,-2.25352 1.500953,-4.54507 -2.104112,-6.03583 4.055465,-11.62619 10.380535,-9.42132 5.342298,1.86229 6.625983,8.62568 2.285199,12.04029 -1.36315,1.0721 -2.879245,1.94944 -3.369093,1.94944 -0.489848,0 -2.655026,1.42559 -4.811513,3.16783 -5.500199,4.44411 -7.451562,5.29796 -12.106435,5.29796 -12.2861872,0 -18.6654461,-15.02714 -12.1792535,-28.68948 4.6834649,-9.86541 9.7309725,-13.47585 31.6525045,-22.64077 4.65618,-1.94665 10.582213,-4.88951 13.168973,-6.53966 11.174044,-7.12822 21.753553,-21.68104 35.353786,-48.63158 l 6.11639,-15.43444 -3.064353,-3.16162 -3.064361,-3.16161 -0.710684,0.43888 -3.141364,1.94147 -5.397663,-4.69836 c -2.968712,-2.5841 -6.551092,-5.91425 -7.960848,-7.40035 l -2.56318,-2.70197 5.618399,-7.96857 c 3.090128,-4.38277 5.599451,-8.39191 5.576293,-8.90925 -0.02315,-0.51736 -1.421639,-4.32696 -3.107737,-8.46577 l -3.065634,-7.52513 -7.942917,-1.64502 c -4.36861,-0.90478 -8.895325,-1.86522 -10.059369,-2.13436 -2.041938,-0.47214 -2.116442,-0.86555 -2.116442,-11.17771 v -10.68838 l 9.17124,-1.63506 c 10.846843,-1.93376 11.972706,-2.43335 13.199864,-5.85717 0.513841,-1.43366 1.778574,-4.72307 2.810513,-7.30984 l 1.876253,-4.70319 -6.034447,-8.41532 -6.03446,-8.41531 7.698689,-7.73889 7.698699,-7.73889 8.286751,5.57199 c 4.557721,3.0646 8.933471,5.572 9.723907,5.572 0.790429,0 4.225521,-1.11627 7.633511,-2.48056 7.01912,-2.80995 7.38176,-2.58589 9.32194,-15.15643 l 3.21377,-20.82226 c 0.21938,0.0197 -1.00887,-0.35845 -2.22656,-0.58819 -1.21767,-0.22976 -2.3888,-0.32301 -2.17516,-0.28523 0.21365,0.0377 -1.02615,-0.15127 -3.32327,-0.0485 -2.29712,0.10277 -5.65036,0.53195 -5.4369,0.50315 0.22664,-0.0304 -1.08024,0.23104 -2.53218,0.87403 -1.45195,0.64295 -2.80186,1.85906 -2.64657,1.71026 0.31839,-0.30511 -0.39743,0.44976 -1.138118,1.25542 -0.740694,0.80569 -1.343797,2.00212 -1.437395,2.19628 -0.159169,0.33012 -0.637843,1.35628 -1.405253,2.07263 -0.767418,0.71634 -1.240372,0.86486 -1.445419,0.93394 -0.293931,0.0989 -1.098495,0.25825 -2.191575,0.21519 -1.093089,-0.0431 -1.381266,-0.0256 -1.606581,-0.0213 -0.06447,10e-4 -0.130146,0.003 -0.188777,0.006 -0.112895,0.003 -0.225802,0.004 -0.329538,0.009 -0.06552,0.001 -0.135951,0.001 -0.210951,0.003 -0.07508,6.1e-4 -0.154589,8.1e-4 -0.23827,4.4e-4 -0.08362,-3.8e-4 -0.171468,-10e-4 -0.262916,-0.003 -0.09145,-10e-4 -0.186585,-0.003 -0.284949,-0.006 -0.09836,-0.003 -0.192145,-0.005 -0.281408,-0.006 -0.08926,-9.6e-4 -0.173964,-8.6e-4 -0.254177,9e-5 -0.08017,9.3e-4 -0.155911,0.002 -0.227132,0.005 -0.128659,0.003 -0.25295,0.0121 -0.373895,0.0185 -0.130389,0.009 -0.241687,0.0136 -0.362712,0.0217 -0.03563,0.001 -0.0043,-0.0929 0.04888,-0.23382 0.04964,-0.13127 0.155828,-0.35035 0.226763,-0.62833 0.07091,-0.27796 0.196589,-0.55484 0.314984,-0.93982 0.118383,-0.385 0.301556,-0.88408 0.46352,-1.35448 0.161965,-0.47036 0.332732,-0.936 0.534364,-1.47014 0.201636,-0.53414 0.356125,-1.13072 0.593529,-1.70695 0.237416,-0.57621 0.377747,-1.17412 0.647042,-1.77078 0.269295,-0.59668 0.511564,-1.20422 0.808866,-1.79974 0.594566,-1.19102 1.004583,-2.42445 1.695498,-3.50123 0.690915,-1.07682 1.355539,-2.09297 1.987557,-2.92898 0.632028,-0.83605 1.64699,-1.61608 2.064892,-2.08483 0.417904,-0.46874 2.395401,-2.16801 2.754851,-2.38198 0.89131,-0.53049 2.67107,-2.2376 7.13055,-3.45622 1.3846,-0.37834 2.8162,-0.55659 4.24837,-0.7417 1.43219,-0.18512 2.10029,-0.16571 3.33924,-0.25795 1.27788,-0.0952 2.56331,-0.13824 3.34398,-0.14991 0.71428,-0.009 1.4898,0.006 2.047,0.0525 0.46878,0.0494 0.76064,0.0364 1.09436,0.0874 0.33131,0.0509 1.00208,0.13748 1.3965,0.23263 0.39441,0.0952 0.67611,0.26267 1.0936,0.36233 1.66995,0.39868 3.03464,1.00041 3.23004,1.09809 0.1954,0.0975 0.15112,0.1584 2.60341,1.27415 2.45229,1.11569 3.20323,1.44424 3.40035,1.53721 0.0493,0.0232 2.02735,0.86389 2.30602,0.94212 0.27867,0.0783 1.45473,0.72785 1.89727,0.84523 0.44254,0.11733 2.44987,0.89432 2.99075,1.03516 0.5409,0.14081 1.09761,0.34028 1.67135,0.48876 0.57373,0.14854 1.06263,0.26285 1.60367,0.40326 0.54104,0.14021 0.98147,0.23881 1.42432,0.3553 0.44283,0.11656 0.78625,0.1493 1.06536,0.22619 0.27912,0.077 0.54485,0.0747 0.88749,0.13885 0.50116,0.0828 0.81818,0.0831 1.17725,0.14537 0.35614,0.035 0.79015,0.0787 1.22756,0.10413 0.43807,0.0253 0.80022,0.0601 1.26423,0.0486 0.464,-0.0106 1.10628,-0.057 1.54453,-0.0668 0.43826,-0.009 0.88098,-0.0561 1.23695,-0.11504 0.38625,-0.064 0.5366,-0.0837 0.76572,-0.11763 0.24858,-0.0371 0.34285,-0.0756 0.91151,-0.24376 0.48571,-0.14353 0.73062,-0.16534 1.21035,-0.37442 0.44182,-0.19252 0.454,-0.14764 1.23342,-0.53504 0.77943,-0.38749 1.83453,-1.15732 2.64801,-1.86623 0.73365,-0.63938 1.32423,-1.48402 1.97031,-2.43385 0.6745,-0.99157 1.51589,-2.59516 2.47779,-3.08521 0.96191,-0.49009 1.89164,-0.47374 2.7609,-0.53658 0.73192,-0.0529 2.22469,0.017 2.7375,0.12747 0.53047,0.1158 0.83706,0.33166 1.20776,0.716 0.33665,0.34904 0.30961,1.43984 0.0652,2.20907 -0.23966,0.75383 -0.60923,2.12791 -1.23671,3.30792 -0.64309,1.20941 -1.72225,3.80803 -2.60347,5.22476 -0.90685,1.45801 -1.56397,2.5843 -2.8337,4.06364 -1.19349,1.3906 -1.77092,2.06407 -3.05383,3.17992 -1.29491,1.12627 -2.28904,1.70492 -3.29997,2.2952 -1.18139,0.68983 -1.56792,0.81789 -2.17159,1.11056 -0.7095,0.34395 -2.02815,0.78147 -2.60894,1.02764 -0.51664,0.21899 -0.61741,0.19731 -0.92232,0.26276 -0.37549,0.0805 -0.89252,0.25182 -1.55061,0.3949 -0.67942,0.14749 -1.91427,0.37738 -2.75899,0.47313 -0.87642,0.0995 -1.62599,0.17582 -2.56881,0.22547 -0.94283,0.0497 -1.95943,0.0295 -2.83383,0.009 -0.8814,-0.0193 -1.7044,-0.0136 -2.36181,-0.0595 -0.69288,-0.0473 -1.32631,-0.15672 -1.67219,-0.22016 -0.3765,-0.0692 -0.5109,-0.0567 -0.45674,-0.0476 0.0158,1.31335 4.23604,23.57553 4.56371,23.90323 0.83265,0.83264 13.09442,5.77461 14.32772,5.77461 0.68148,0 4.79625,-1.56922 9.49961,-4.73172 l 8.55153,-5.75004 7.54834,7.54836 7.54832,7.54834 -5.8403,9.10644 -5.84028,9.10644 2.98114,7.20258 c 1.63964,3.96142 3.12305,7.35773 3.29647,7.54734 0.17348,0.18962 4.61499,1.11704 9.87014,2.06093 5.2552,0.94389 9.74805,1.90938 9.98421,2.14552 0.23613,0.23615 0.67669,5.11809 0.979,10.84881 0.44591,8.45222 0.30134,10.49847 -0.76577,10.83801 -0.72348,0.23021 -5.33668,1.11303 -10.25152,1.96185 l -8.93608,1.54332 -3.50019,8.0155 -3.50016,8.01551 5.72281,8.51103 5.72279,8.51103 -6.87933,8.2543 c -1.59355,1.91205 -6.73226,7.11953 -7.72804,8.15522 -0.56038,-0.27903 -0.93526,-0.60072 -1.67967,-1.0679 -0.68191,0.22032 -1.70209,1.51392 -3.20933,3.3092 l -3.11091,3.70542 6.67485,10.5825 c 19.894,31.54054 38.69986,49.49145 49.85183,56.06286 16.39516,9.66112 32.87452,10.20689 45.99605,1.52341 2.95773,-1.95733 3.58916,-2.92321 3.58916,-5.49012 0,-6.9824 9.18304,-10.31195 13.7612,-4.98951 2.49633,2.90217 2.69947,4.18966 1.18534,7.51281 -1.11255,2.44178 -4.4293,4.3809 -7.49334,4.3809 -1.02558,0 -3.96779,1.66239 -6.53826,3.69425 -8.18592,6.47054 -20.67282,9.21895 -25.19352,9.15788 -3.3777,-0.0456 -14.45678,0.0571 -21.265,-1.83587 -3.41379,-1.44771 -4.66448,-2.34453 -6.14353,-2.91909 -2.60138,-0.78416 -3.87504,-0.33182 -4.6499,0.18757 -0.77219,0.51759 -1.26607,1.19671 -1.39747,2.36455 -0.23188,2.0608 2.17849,3.55581 3.60851,4.65328 5.11758,2.20511 8.7218,2.5801 11.79718,3.43772 18.78191,3.69789 23.61368,4.81729 29.35114,8.45667 8.0188,5.08666 10.2446,13.26035 6.04158,22.18662 -2.89677,6.15229 -6.19022,9.54749 -11.56848,11.92659 -9.14872,4.0472 -19.26342,0.096 -23.51319,-9.18824 -1.45929,-3.18762 -3.31141,-5.6203 -4.90696,-6.44534 -5.19207,-2.68505 -5.6472,-8.86246 -0.89799,-12.18899 3.34518,-2.34294 7.14262,-1.88305 10.26947,1.2437 3.2123,3.21239 3.45385,5.50789 0.91872,8.73074 -1.82117,2.31535 -1.81992,2.34324 0.23517,5.29825 6.16802,8.86968 21.34914,2.92476 21.34914,-8.35997 0,-3.83826 -4.86464,-8.82548 -9.93356,-10.18362 -2.03816,-0.54629 -4.41109,-1.49741 -11.23548,-3.18763 -12.25424,-3.03505 -14.38142,-2.56524 -19.04069,-3.6787 -2.96842,-0.7094 -11.36657,-2.21253 -16.07292,-2.99443 -3.80267,-0.63176 -11.67248,-0.0668 -14.46685,0.85574 -2.92964,0.96719 -5.95621,3.12493 -7.29903,6.15619 -0.9602,2.16758 -2.47343,4.65628 -3.02829,6.21785 -1.00344,2.82402 -1.73095,10.04002 -0.32353,14.91507 3.09669,10.72788 7.79798,15.45278 15.38233,15.45928 4.5939,0 7.42826,-1.1838 9.79399,-4.1044 3.13935,-3.8756 1.38968,-12.82352 -2.50756,-12.82352 -5.17611,0 -8.97542,-5.83651 -6.68397,-10.26759 4.35782,-8.42697 17.18286,-3.86342 14.72406,5.23945 -0.53027,1.96308 -0.14142,3.92996 1.45914,7.37957 3.23909,6.98159 2.98307,12.68259 -0.76108,16.94689 -3.56157,4.0563 -6.67369,5.7645 -12.96018,7.1126 -10.31868,2.2129 -23.53427,-3.0002 -26.73485,-16.0355 -1.01511,-4.13455 -1.29502,-8.14573 -1.72405,-12.54724 -0.63324,-6.49647 -1.40942,-8.13819 -2.82483,-11.79939 -0.76694,-1.9838 -4.24523,-6.21161 -6.85853,-6.4653 -4.07089,-0.39526 -6.09442,1.62237 -6.44136,5.93622 -0.0524,3.297 0.18493,3.99885 1.37147,12.16896 2.91385,13.49695 7.91305,18.63865 16.97529,38.07555 10.54504,22.6172 9.64867,28.4083 6.20734,34.3121 -1.55806,2.6729 -3.74622,4.542 -7.66291,6.5451 -4.68578,2.3965 -6.7328,2.8463 -14.0916,3.0983 -6.6467,0.2272 -9.68916,-0.1046 -13.34561,-1.4656 z"
       style="fill:none;fill-opacity:1;stroke:#000000;stroke-width:1.51181102;stroke-linejoin:round;stroke-miterlimit:10;stroke-dasharray:none;stroke-dashoffset:0;stroke-opacity:1" />
  </g>
  <g
     inkscape:groupmode="layer"
     id="layer2"
     inkscape:label="Serigrafia_Base"
     transform="translate(0,7.1811042)"
     style="display:none">
    <path
       style="fill:#ffffff;stroke-width:1.08618402"
       inkscape:connector-curvature="0"
       id="path16"
       d="m 127.53673,195.60145 c -2.62589,-0.61948 -4.48072,-3.33726 -3.99863,-5.85767 0.23562,-1.23566 0.93676,-0.80569 0.93676,0.57426 0,3.46052 3.59909,5.45304 6.8318,3.7808 1.24529,-0.64358 2.54333,-2.57285 2.54333,-3.7808 0,-0.67552 0.76321,-1.34292 1.12265,-0.98374 0.11842,0.11837 -0.0239,1.00966 -0.31455,1.98108 -0.53361,1.78012 -2.8868,3.94319 -3.93235,4.21646 -0.5098,0.13385 -0.62581,0.19977 -1.20943,0.23443 -0.32452,0.0189 -1.20282,0.0189 -1.98018,-0.16503 h 4.6e-4 z" />
    <g
       id="g4853"
       transform="matrix(1.0861841,0,0,1.0861841,-12.532111,-774.00829)">
      <g
         id="g4849">
        <path
           style="fill:#ffffff;stroke:#010202;stroke-width:0.05664472;stroke-miterlimit:10"
           inkscape:connector-curvature="0"
           id="path18"
           d="m 143.42581,868.3535 v -6.20595 l -1.65218,-0.43607 c -6.35326,-1.67466 -10.64183,-8.23596 -9.60353,-14.69351 1.43137,-8.89699 10.88899,-13.71401 18.92882,-9.63987 2.316,1.17368 4.95849,3.97679 6.02759,6.39265 0.96063,2.17119 1.32069,6.28334 0.73843,8.43346 -1.10599,4.08275 -4.76209,8.02069 -8.53332,9.19048 l -1.82306,0.56672 -0.10791,6.35298 -0.0155,6.29888 2.05413,-0.19723 c 1.17977,-0.13842 3.50853,-0.74925 5.17487,-1.35703 8.98353,-3.27913 15.69713,-10.60937 18.20952,-19.8828 0.93095,-3.43807 0.93289,-10.54973 0.004,-13.99585 -2.22058,-8.22902 -7.99102,-15.20919 -15.59811,-18.86835 -3.90133,-1.87632 -7.42622,-2.63417 -12.24713,-2.63279 -5.04865,10e-4 -7.94746,0.70182 -12.82967,3.09799 -3.12378,1.53401 -4.23559,2.35788 -7.20764,5.34574 -5.84505,5.87363 -8.34996,11.89012 -8.33747,20.02039 0.0139,8.44594 3.04389,15.32791 9.2981,21.11832 4.30079,3.98205 11.42215,7.20764 16.06358,7.27533 l 1.45801,0.0222 v -6.20567 h -0.002 z"
           stroke-miterlimit="10" />
        <path
           style="fill:#ffffff;stroke:#010202;stroke-width:0.05664472;stroke-miterlimit:10"
           inkscape:connector-curvature="0"
           id="path20"
           d="m 106.10271,861.73395 v -6.21483 l -1.45246,-0.60723 c -3.28772,-1.37312 -4.929918,-4.10743 -4.694409,-7.81292 0.128159,-2.01474 0.365609,-2.7074 1.341779,-3.91964 0.65216,-0.80972 1.86911,-1.87299 2.70408,-2.36343 3.25526,-1.90878 8.61182,-0.37865 10.23266,2.92295 0.81333,1.6569 1.19781,1.59781 1.20557,-0.18503 0.0197,-4.16569 2.63251,-11.15418 5.62647,-15.04719 l 1.48075,-1.92653 -1.67604,-1.44441 c -2.03915,-1.75538 -5.0037,-3.24695 -8.01569,-4.03115 -6.257,-1.62999 -12.70429,0.33482 -17.849749,5.4395 -7.601267,7.54079 -9.358307,19.48501 -4.366527,29.68022 0.861321,1.75843 2.203931,3.5274 4.186219,5.51579 3.66027,3.67137 5.497477,4.6872 11.180537,6.18321 0.0535,0.0144 0.0968,-2.77066 0.0968,-6.18931 v 0 z"
           stroke-miterlimit="10" />
      </g>
      <path
         stroke-miterlimit="10"
         d="m 115.10484,866.79619 c 1.04995,-0.3989 2.77675,-1.28269 3.83808,-1.9637 l 1.93041,-1.23886 -0.72595,-1.02999 c -1.80836,-2.56426 -3.91797,-7.93996 -4.5227,-11.52478 l -0.26186,-1.55288 -0.73927,1.51931 c -1.00335,2.06329 -1.71792,2.78536 -3.71214,3.75043 l -1.69796,0.82165 v 6.23647 6.23619 l 1.99145,-0.26436 c 1.09544,-0.14536 2.85026,-0.59058 3.89994,-0.98948 z"
         id="path22"
         inkscape:connector-curvature="0"
         style="fill:#ffffff;stroke:#010202;stroke-width:0.05664472;stroke-miterlimit:10" />
    </g>
    <g
       id="Cabeza_color"
       transform="matrix(0.30130557,0,0,0.30130557,-63.340964,-118.73546)"
       style="fill:#ffffff">
      <g
         id="g4845"
         style="fill:#ffffff">
        <path
           stroke-miterlimit="10"
           d="m 150.41097,774.1216 4.73575,-1.77757 -0.008,-0.0158 c -0.48572,-0.99253 -0.75063,-2.09158 -0.75063,-3.27108 0,-0.80668 0.0871,-1.45496 0.32317,-2.18313 l 0.0405,-0.12898 -5.38652,-1.69213 -0.10984,-0.0347 c -0.64717,0.59835 -1.50628,0.9709 -2.45165,0.99253 l -0.008,0.0646 -0.46436,3.97068 h 2.7e-4 c 1.92792,0.62608 3.45222,2.14817 4.07886,4.07553"
           id="path28"
           inkscape:connector-curvature="0"
           style="fill:#ffffff;stroke:#010202;stroke-width:0.0567002;stroke-miterlimit:10"
           transform="matrix(3.6049257,0,0,3.6049257,168.63162,-2175.2578)" />
        <path
           d="m 564.429,551.362 c -0.133,-0.173 -0.201,-0.262 -0.201,-0.262 45.172,2.359 86.506,20.922 118.605,49.348 v 10e-4 c 1.991,-0.565 4.091,-0.868 6.262,-0.868 0.821,0 1.629,0.043 2.426,0.127 l 1.834,-14.225 -0.249,-0.084 c -5.394,-1.766 -9.044,-6.756 -9.044,-12.74 0,-7.45 6.04,-13.49 13.491,-13.49 7.45,0 13.49,6.041 13.49,13.49 0,2.023 -0.445,3.944 -1.245,5.667 l 0.569,0.169 18.023,5.407 0.234,0.069 c 4.617,-8.249 13.44,-13.825 23.564,-13.825 14.902,0 26.982,12.078 26.982,26.979 0,9.06 -4.463,17.075 -11.311,21.969 l 0.174,0.24 6.149,8.47 0.182,0.277 c 1.886,-0.69 3.922,-1.066 6.046,-1.066 9.71,0 17.579,7.869 17.579,17.579 0,6.579 -3.614,12.312 -8.963,15.327 14.787,53.922 14.924,116.265 -7.99,155.164 l 0.088,0.191 6.147,12.669 c 8.074,16.642 10.849,28.712 10.849,47.199 0,17.421 -2.595,29.666 -9.422,44.44 -2.695,5.838 -4.902,10.695 -4.902,10.796 0,0.102 2.292,1.421 5.097,2.931 l 5.095,2.744 22.885,-23.8 c 12.586,-13.087 22.905,-24.314 22.934,-24.944 0.026,-0.63 -8.256,-13.376 -18.409,-28.323 l -18.458,-27.178 8.122,-18.627 c 4.468,-10.246 9.838,-22.726 11.933,-27.738 l 3.809,-9.108 11.082,-2.396 c 6.095,-1.315 20.834,-4.027 32.755,-6.023 11.92,-1.996 21.917,-3.874 22.22,-4.174 0.298,-0.298 0.083,-15.948 -0.479,-34.776 l -1.024,-34.23 -21.896,-3.843 c -12.043,-2.114 -26.989,-4.772 -33.216,-5.909 l -11.32,-2.067 -4.291,-10.052 c -2.36,-5.53 -7.537,-17.171 -11.504,-25.872 -3.967,-8.701 -6.78,-16.584 -6.248,-17.52 0.534,-0.935 9.069,-14.111 18.972,-29.28 9.901,-15.168 18.003,-28.104 18.003,-28.747 0,-0.642 -10.651,-11.804 -23.67,-24.806 l -23.669,-23.639 -29.29,19.772 -29.289,19.771 -25.794,-10.519 c -14.189,-5.787 -25.994,-10.717 -26.235,-10.958 -0.241,-0.242 -3.263,-14.574 -6.715,-31.849 -3.454,-17.275 -6.617,-32.841 -7.034,-34.589 l -0.757,-3.178 -33.196,0.375 -33.196,0.375 -6.881,34.535 -6.881,34.532 -23.021,9.829"
           id="path38"
           inkscape:connector-curvature="0"
           style="fill:#ffffff" />
      </g>
      <path
         style="fill:#ffffff"
         inkscape:connector-curvature="0"
         id="path40"
         d="m 747.175,783.665 c 11.058,-55.206 -4.392,-110.421 -36.616,-153.208 0.925,-2.486 1.431,-5.175 1.431,-7.982 0,-0.631 -0.026,-1.255 -0.077,-1.874 l 18.721,-7.24 v 10e-4 c 4.926,6.529 12.747,10.749 21.555,10.749 3.631,0 7.095,-0.717 10.258,-2.017 l 0.137,0.187 6.376,8.754 0.101,0.138 c -3.809,3.225 -6.229,8.042 -6.229,13.425 0,9.71 7.869,17.579 17.579,17.579 1.052,0 2.082,-0.092 3.083,-0.269 v -10e-4 c 15.688,45.465 15.415,108.285 -5.627,148.646 l -0.316,-0.316 -8.982,-9.187 c -6.979,-7.136 -13.894,-12.808 -21.394,-17.385 z" />
    </g>
  </g>
  <g
     style="display:inline"
     transform="translate(0,7.1811042)"
     inkscape:label="Serigrafia_Base copy"
     id="g4715"
     inkscape:groupmode="layer">
    <path
       d="m 127.53673,195.60145 c -2.62589,-0.61948 -4.48072,-3.33726 -3.99863,-5.85767 0.23562,-1.23566 0.93676,-0.80569 0.93676,0.57426 0,3.46052 3.59909,5.45304 6.8318,3.7808 1.24529,-0.64358 2.54333,-2.57285 2.54333,-3.7808 0,-0.67552 0.76321,-1.34292 1.12265,-0.98374 0.11842,0.11837 -0.0239,1.00966 -0.31455,1.98108 -0.53361,1.78012 -2.8868,3.94319 -3.93235,4.21646 -0.5098,0.13385 -0.62581,0.19977 -1.20943,0.23443 -0.32452,0.0189 -1.20282,0.0189 -1.98018,-0.16503 h 4.6e-4 z"
       id="path4693"
       inkscape:connector-curvature="0"
       style="fill:#ffffff;stroke-width:1.08618402" />
    <path
       stroke-miterlimit="10"
       d="m 143.25472,169.18347 v -6.7408 l -1.79457,-0.47365 c -6.90081,-1.81899 -11.55898,-8.94577 -10.4312,-15.95986 1.55473,-9.66377 11.82745,-14.89594 20.56018,-10.47067 2.51561,1.27483 5.38584,4.31952 6.54708,6.94359 1.04342,2.35831 1.43451,6.82487 0.80207,9.16029 -1.20131,4.43462 -5.17251,8.71195 -9.26876,9.98256 l -1.98018,0.61556 -0.11721,6.9005 -0.0168,6.84175 2.23116,-0.21423 c 1.28145,-0.15035 3.81091,-0.81382 5.62086,-1.47398 9.75777,-3.56174 17.04997,-11.52373 19.77889,-21.59639 1.01118,-3.73437 1.01329,-11.45895 0.004,-15.20207 -2.41196,-8.93823 -8.67972,-16.51998 -16.94242,-20.4945 -4.23757,-2.03803 -8.06624,-2.86119 -13.30264,-2.85969 -5.48376,0.001 -8.63241,0.7623 -13.93538,3.36499 -3.393,1.66621 -4.60063,2.56109 -7.82883,5.80645 -6.3488,6.37985 -9.06959,12.91486 -9.05603,21.74583 0.0151,9.17385 3.30623,16.64893 10.09945,22.93839 4.67145,4.32524 12.40656,7.82882 17.44801,7.90234 l 1.58367,0.0241 v -6.7405 h -0.002 z"
       id="path4695"
       inkscape:connector-curvature="0"
       style="fill:#ffffff;stroke:#010202;stroke-width:0.06152659;stroke-miterlimit:10" />
    <path
       stroke-miterlimit="10"
       d="m 102.71497,161.99342 v -6.75044 l -1.57764,-0.65957 c -3.571073,-1.49146 -5.354802,-4.46142 -5.098996,-8.48627 0.139204,-2.18838 0.397119,-2.94073 1.457419,-4.25745 0.708366,-0.8795 2.030198,-2.03441 2.937127,-2.56712 3.53581,-2.07328 9.35402,-0.41128 11.11455,3.17486 0.88343,1.7997 1.30105,1.73552 1.30948,-0.20097 0.0214,-4.52471 2.85939,-12.1155 6.11138,-16.34402 l 1.60836,-2.09257 -1.82048,-1.56889 c -2.2149,-1.90667 -5.43494,-3.52679 -8.70652,-4.37857 -6.79625,-1.77047 -13.799196,0.36367 -19.388112,5.90829 -8.256375,8.19069 -10.164844,21.16431 -4.742852,32.23819 0.935553,1.90998 2.393875,3.8314 4.547005,5.99116 3.975727,3.98778 5.971272,5.09116 12.144119,6.71611 0.0581,0.0156 0.10514,-3.00945 0.10514,-6.72274 v 0 z"
       id="path4697"
       inkscape:connector-curvature="0"
       style="fill:#ffffff;stroke:#010202;stroke-width:0.06152659;stroke-miterlimit:10" />
    <path
       stroke-miterlimit="10"
       d="m 112.49294,167.49195 c 1.14044,-0.43328 3.01606,-1.39324 4.16886,-2.13294 l 2.09678,-1.34563 -0.78852,-1.11876 c -1.96421,-2.78526 -4.25563,-8.62426 -4.91248,-12.51803 l -0.28443,-1.68672 -0.80298,1.65026 c -1.08983,2.24111 -1.86598,3.02541 -4.03207,4.07365 l -1.8443,0.89247 v 6.77395 6.77365 l 2.16308,-0.28714 c 1.18985,-0.15789 3.09591,-0.64148 4.23606,-1.07476 z"
       id="path4701"
       inkscape:connector-curvature="0"
       style="fill:#ffffff;stroke:#010202;stroke-width:0.06152659;stroke-miterlimit:10" />
    <path
       style="fill:#ffffff;stroke:#010202;stroke-width:0.06158686;stroke-miterlimit:10"
       inkscape:connector-curvature="0"
       id="path4705"
       d="m 150.8427,66.685901 5.1439,-1.930769 -0.009,-0.01716 c -0.52758,-1.078071 -0.81532,-2.271842 -0.81532,-3.552996 0,-0.876203 0.0946,-1.580354 0.35102,-2.371281 l 0.044,-0.140096 -5.85075,-1.837965 -0.11931,-0.03769 c -0.70295,0.649919 -1.6361,1.054577 -2.66294,1.078071 l -0.009,0.07017 -0.50438,4.31289 h 2.9e-4 c 2.09408,0.680038 3.74975,2.333309 4.43039,4.426776"
       stroke-miterlimit="10" />
    <path
       style="fill:#ffffff;stroke-width:0.30130556"
       inkscape:connector-curvature="0"
       id="path4707"
       d="m 106.72464,47.392982 c -0.0401,-0.05213 -0.0606,-0.07894 -0.0606,-0.07894 13.61057,0.710779 26.06473,6.303915 35.73634,14.868827 v 3.01e-4 c 0.5999,-0.170237 1.23264,-0.261533 1.88678,-0.261533 0.24737,0 0.49082,0.01296 0.73097,0.03827 l 0.55259,-4.286072 -0.075,-0.02531 c -1.62524,-0.532105 -2.725,-2.03562 -2.725,-3.838633 0,-2.244726 1.81988,-4.064612 4.06491,-4.064612 2.24473,0 4.06461,1.820187 4.06461,4.064612 0,0.609542 -0.13408,1.18835 -0.37512,1.707499 l 0.17144,0.05092 5.43043,1.629159 0.0705,0.02079 c 1.39112,-2.48547 4.04954,-4.165549 7.09996,-4.165549 4.49006,0 8.12983,3.639168 8.12983,8.128922 0,2.729829 -1.34473,5.144793 -3.40807,6.619383 l 0.0524,0.07231 1.85272,2.552058 0.0548,0.08346 c 0.56826,-0.207901 1.18172,-0.321192 1.8217,-0.321192 2.92567,0 5.29665,2.370974 5.29665,5.296651 0,1.982289 -1.08892,3.709674 -2.70061,4.61811 4.45541,16.246999 4.49669,35.031297 -2.40743,46.751777 l 0.0265,0.0575 1.85212,3.81724 c 2.43274,5.01433 3.26887,8.65109 3.26887,14.22132 0,5.24905 -0.78189,8.93853 -2.8389,13.39002 -0.81202,1.75902 -1.477,3.22246 -1.477,3.2529 0,0.0307 0.69059,0.42815 1.53575,0.88312 l 1.53515,0.82679 6.89538,-7.17108 c 3.79223,-3.94318 6.9014,-7.32594 6.91014,-7.51576 0.008,-0.18983 -2.48758,-4.03027 -5.54673,-8.53388 l -5.5615,-8.18888 2.4472,-5.61242 c 1.34624,-3.08718 2.96425,-6.84747 3.59548,-8.35762 l 1.14768,-2.74429 3.33906,-0.72193 c 1.83646,-0.39621 6.27741,-1.21335 9.86927,-1.81476 3.59156,-0.60141 6.60371,-1.16726 6.69501,-1.25765 0.0898,-0.0898 0.025,-4.80522 -0.14433,-10.4782 l -0.30853,-10.313691 -6.59739,-1.157917 c -3.62862,-0.63696 -8.13194,-1.43783 -10.00817,-1.780415 l -3.41078,-0.622798 -1.2929,-3.028724 c -0.71108,-1.66622 -2.27094,-5.173718 -3.46622,-7.795378 -1.19528,-2.62166 -2.04285,-4.996851 -1.88255,-5.278873 0.16089,-0.281721 2.73254,-4.251723 5.71637,-8.822227 2.98322,-4.570203 5.4244,-8.467892 5.4244,-8.661632 0,-0.193438 -3.20921,-3.556611 -7.1319,-7.474186 l -7.1316,-7.122562 -8.82525,5.957414 -8.82493,5.957112 -7.77188,-3.169433 c -4.27522,-1.743655 -7.83214,-3.229092 -7.90475,-3.301707 -0.0726,-0.07292 -0.98316,-4.391227 -2.02327,-9.596281 -1.04071,-5.205053 -1.99374,-9.895176 -2.11938,-10.421858 l -0.22809,-0.957549 -10.00214,0.112989 -10.00214,0.11299 -2.07328,10.405588 -2.07329,10.404684 -6.93635,2.961532" />
    <path
       style="fill:#ffffff;stroke-width:0.30130556"
       inkscape:connector-curvature="0"
       id="path4711"
       d="m 161.78703,117.38717 c 3.33183,-16.63388 -1.32334,-33.270463 -11.03261,-46.162424 0.27871,-0.749046 0.43117,-1.559257 0.43117,-2.405021 0,-0.190124 -0.008,-0.378139 -0.0232,-0.564647 l 5.64074,-2.181452 v 3.01e-4 c 1.48423,1.967224 3.84074,3.238734 6.49464,3.238734 1.09404,0 2.13776,-0.216036 3.09079,-0.607734 l 0.0413,0.05634 1.92113,2.637629 0.0304,0.04158 c -1.14767,0.97171 -1.87683,2.423099 -1.87683,4.045027 0,2.925677 2.37097,5.29665 5.29665,5.29665 0.31697,0 0.62732,-0.02772 0.92892,-0.08105 v -3.01e-4 c 4.72688,13.698858 4.64463,32.626878 -1.69544,44.787868 l -0.0952,-0.0952 -2.70632,-2.76809 c -2.10281,-2.15012 -4.18634,-3.85912 -6.44613,-5.2382 z" />
  </g>
  <g
     inkscape:groupmode="layer"
     id="layer3"
     inkscape:label="Componentes"
     transform="translate(0,128.12598)"
     style="display:none"
     sodipodi:insensitive="true">
    <rect
       id="rect49"
       width="20.787401"
       height="20.787401"
       x="53.950897"
       y="-30.583344"
       style="fill:#ff0000">
      <desc
         id="desc3798">WS2815B</desc>
      <title
         id="title3796">WS2812B</title>
    </rect>
    <rect
       id="rect49-3"
       width="75.590553"
       height="102.04724"
       x="90.106293"
       y="-70.204697"
       style="display:inline;fill:#800000;stroke-width:4.22507286">
      <desc
         id="desc3802">ESP32</desc>
      <title
         id="title3800">ESP32</title>
    </rect>
    <rect
       style="fill:#000080;stroke-width:3.21926022"
       y="34.719219"
       x="93.024345"
       height="62.362206"
       width="71.81102"
       id="rect3829">
      <desc
         id="desc3825">LORA</desc>
      <title
         id="title3827">LORA</title>
    </rect>
    <rect
       style="fill:#6c5353;stroke-width:0.82466376"
       id="rect3831"
       width="109.6063"
       height="52.913387"
       x="75.306877"
       y="84.312546">
      <desc
         id="desc3835">LCD</desc>
      <title
         id="title3833">LCD</title>
    </rect>
  </g>
  <g
     inkscape:groupmode="layer"
     id="layer4"
     inkscape:label="Labels"
     sodipodi:insensitive="true"
     style="display:none">
    <text
       xml:space="preserve"
       style="font-style:normal;font-weight:normal;font-size:40px;line-height:1.25;font-family:sans-serif;letter-spacing:0px;word-spacing:0px;fill:#000000;fill-opacity:1;stroke:none"
       x="45.674259"
       y="110.59909"
       id="text4647"><tspan
         sodipodi:role="line"
         id="tspan4645"
         x="45.674259"
         y="110.59909"
         style="font-size:8px;fill:#ffffff">WS2812B</tspan></text>
    <text
       id="text4651"
       y="190.95265"
       x="116.36359"
       style="font-style:normal;font-weight:normal;font-size:40px;line-height:1.25;font-family:sans-serif;letter-spacing:0px;word-spacing:0px;fill:#ffffff;fill-opacity:1;stroke:none"
       xml:space="preserve"><tspan
         style="font-size:8px;fill:#ffffff"
         y="190.95265"
         x="116.36359"
         id="tspan4649"
         sodipodi:role="line">LORA</tspan></text>
    <text
       xml:space="preserve"
       style="font-style:normal;font-weight:normal;font-size:40px;line-height:1.25;font-family:sans-serif;letter-spacing:0px;word-spacing:0px;fill:#ffffff;fill-opacity:1;stroke:none"
       x="116.54037"
       y="111.04958"
       id="text4655"><tspan
         sodipodi:role="line"
         id="tspan4653"
         x="116.54037"
         y="111.04958"
         style="font-size:8px;fill:#ffffff">ESP32</tspan></text>
    <text
       id="text4651-3"
       y="243.3082"
       x="121.10492"
       style="font-style:normal;font-weight:normal;font-size:40px;line-height:1.25;font-family:sans-serif;letter-spacing:0px;word-spacing:0px;fill:#ffffff;fill-opacity:1;stroke:none"
       xml:space="preserve"><tspan
         style="font-size:8px;fill:#ffffff"
         y="243.3082"
         x="121.10492"
         id="tspan4649-5"
         sodipodi:role="line">LCD</tspan></text>
  </g>
</svg>
