<?xml version="1.0" encoding="UTF-8" standalone="no"?>
<!-- Created with Inkscape (http://www.inkscape.org/) -->

<svg
   xmlns:dc="http://purl.org/dc/elements/1.1/"
   xmlns:cc="http://creativecommons.org/ns#"
   xmlns:rdf="http://www.w3.org/1999/02/22-rdf-syntax-ns#"
   xmlns:svg="http://www.w3.org/2000/svg"
   xmlns="http://www.w3.org/2000/svg"
   xmlns:sodipodi="http://sodipodi.sourceforge.net/DTD/sodipodi-0.dtd"
   xmlns:inkscape="http://www.inkscape.org/namespaces/inkscape"
   width="86mm"
   height="66mm"
   id="svg3274"
   version="1.1"
   inkscape:version="0.92.4 (33fec40, 2019-01-16)"
   sodipodi:docname="Base_2019_01.86_66.svg"
   inkscape:export-filename="/home/salvari/work/graphicsResources/BL/oshwi.png"
   inkscape:export-xdpi="90"
   inkscape:export-ydpi="90">
  <defs
     id="defs3276" />
  <sodipodi:namedview
     id="base"
     pagecolor="#81b0cd"
     bordercolor="#666666"
     borderopacity="1.0"
     inkscape:pageopacity="1"
     inkscape:pageshadow="2"
     inkscape:zoom="1.4142136"
     inkscape:cx="180.79537"
     inkscape:cy="189.0806"
     inkscape:document-units="mm"
     inkscape:current-layer="layer1"
     showgrid="false"
     inkscape:window-width="1397"
     inkscape:window-height="1023"
     inkscape:window-x="378"
     inkscape:window-y="27"
     inkscape:window-maximized="0"
     units="mm"
     inkscape:snap-global="false" />
  <metadata
     id="metadata3279">
    <rdf:RDF>
      <cc:Work
         rdf:about="">
        <dc:format>image/svg+xml</dc:format>
        <dc:type
           rdf:resource="http://purl.org/dc/dcmitype/StillImage" />
        <dc:title></dc:title>
      </cc:Work>
    </rdf:RDF>
  </metadata>
  <g
     inkscape:label="Layer 1"
     inkscape:groupmode="layer"
     id="layer1"
     transform="translate(0,-826.06301)"
     style="display:inline">
    <path
       d="m 114.32919,870.03707 c 6.3768,8.46753 9.43401,19.39382 7.24573,30.31834"
       id="path33"
       inkscape:connector-curvature="0"
       style="fill:none;stroke-width:0.71658432" />
    <path
       d="m 85.371143,854.33312 c 8.939093,0.46701 17.118677,4.14026 23.470947,9.76548"
       id="path35"
       inkscape:connector-curvature="0"
       style="fill:none;stroke-width:0.71658432" />
    <path
       style="fill:none;stroke:#010202;stroke-width:0.02434048;stroke-miterlimit:10"
       inkscape:connector-curvature="0"
       id="path42"
       d="M 90.174923,941.88759"
       stroke-miterlimit="10" />
    <path
       style="fill:none;stroke:#010202;stroke-width:0.02434048;stroke-miterlimit:10"
       inkscape:connector-curvature="0"
       id="path44"
       d="M 98.61059,941.67129"
       stroke-miterlimit="10" />
    <path
       style="fill:none;stroke:#010202;stroke-width:0.02434048;stroke-miterlimit:10"
       inkscape:connector-curvature="0"
       id="path46"
       d="M 90.174923,941.65269"
       stroke-miterlimit="10" />
    <path
       style="fill:none;stroke:#010202;stroke-width:0.02434048;stroke-miterlimit:10"
       inkscape:connector-curvature="0"
       id="path48"
       d="M 98.47523,944.97705"
       stroke-miterlimit="10" />
    <path
       style="fill:none;stroke:#010202;stroke-width:0.02434048;stroke-miterlimit:10"
       inkscape:connector-curvature="0"
       id="path50"
       d="M 90.03937,944.95844"
       stroke-miterlimit="10" />
    <path
       style="fill:#808000;fill-opacity:1;stroke:#000000;stroke-width:0.30716416;stroke-linejoin:round;stroke-miterlimit:10;stroke-dasharray:none;stroke-dashoffset:0;stroke-opacity:1"
       d="m 93.780867,1073.9795 c -1.718533,-0.6385 -3.724759,-1.4823 -4.458305,-1.8748 -0.733548,-0.3926 -2.431432,-0.7137 -3.773092,-0.7137 -3.331234,0 -5.709573,-1.9125 -5.709573,-4.5911 0,-4.5716 6.073316,-6.7494 9.07862,-3.2555 0.809053,0.9406 1.470997,2.3542 1.470997,3.1412 0,1.2431 0.462239,1.524 3.516605,2.1373 4.417221,0.8873 10.140571,0.9086 12.422541,0.046 2.44466,-0.9238 5.03117,-3.5461 5.47054,-5.5465 0.52215,-2.3772 -1.75479,-6.5262 -7.01554,-16.9447 -6.15115,-12.1817 -8.11566,-17.1586 -10.098668,-22.8605 0,0 -0.604247,-2.6685 -0.89971,-4.343 -0.906513,-5.1376 -1.958971,-11.6859 -1.823539,-21.01071 0.135425,-9.32477 -0.943527,-9.62862 -1.843987,-10.78738 -0.900459,-1.15878 -4.009008,-2.43602 -5.480867,0.65886 -1.021205,2.14728 -1.121483,3.99885 -1.138735,7.336 -0.03973,7.70313 0.642776,20.79223 -2.646528,30.09743 -1.628797,4.6077 -3.779402,10.7033 -4.779117,13.5458 -1.727101,4.9106 -2.277839,9.3556 -1.432196,11.5592 0.842329,2.1953 6.695366,3.6363 9.850639,2.4255 1.559307,-0.5983 2.18894,-2.9162 1.484831,-5.4663 -0.4924,-1.7834 -1.109968,-2.4398 -3.010593,-3.2003 -4.47209,-1.7895 -4.814608,-6.4673 -0.631912,-8.6303 1.574209,-0.8139 2.31779,-0.8671 4.065345,-0.2905 2.621714,0.8653 3.451744,2.3014 3.312581,5.7312 -0.05875,1.4478 0.176425,3.975 0.52261,5.6159 1.149618,5.4492 -0.820561,9.5606 -5.287969,11.035 -3.45917,1.1415 -11.895157,0.4519 -14.551405,-1.1898 -5.416696,-3.3476 -5.390547,-8.4933 0.123877,-24.3737 5.946558,-17.125 6.37874,-20.1148 4.348235,-32.51516 -0.57671,-3.52204 -0.954425,-3.84427 -1.99439,-4.81625 -0.573058,-0.53573 -0.896294,-0.45718 -1.65151,-0.59223 -1.785711,-0.31944 -2.039901,0.52476 -2.951954,2.61596 -0.551545,1.26457 -2.182066,8.42038 -2.69053,22.34028 -0.560952,15.3568 -1.273567,20.2397 -4.032978,27.6351 -3.129897,8.3883 -8.923991,14.6612 -15.526077,16.8095 -1.70656,0.5553 -3.973553,1.5337 -5.037774,2.1744 -2.788315,1.6783 -4.983788,1.4778 -7.110989,-0.6493 -2.792946,-2.793 -2.146371,-5.6593 1.632774,-7.2383 1.854376,-0.7748 2.407694,-0.7591 4.635863,0.1326 2.370863,0.9486 2.68636,0.9418 5.01141,-0.1063 4.616897,-2.0819 7.8266,-6.948 9.941105,-15.071 0.987188,-3.7923 1.296149,-8.165 1.81945,-21.5144 0.489063,-12.476 0.795675,-13.9696 0.181798,-16.7066 -0.334366,-1.4906 -2.484046,-2.7777 -3.390656,-2.7497 0,0 -2.119749,-0.2292 -3.181935,2.0837 -1.346555,2.9319 -1.505558,10.2671 -2.91708,16.7521 -5.001794,22.9796 -6.851678,26.4202 -15.017836,27.9312 -7.420864,1.373 -16.042986,-4.6534 -16.042986,-11.2134 0,-0.8956 -0.558506,-2.3385 -1.241131,-3.2064 -1.626582,-2.0678 -1.570058,-4.0617 0.172582,-6.0876 3.011153,-3.5007 9.1359,-1.373 9.1359,3.1738 0,1.5581 -0.501172,2.4057 -2.254454,3.8122 -2.077701,1.6667 -2.19325,1.9268 -1.473864,3.3183 2.211616,4.2769 6.136642,6.1121 10.537747,4.927 4.891447,-1.3171 7.01569,-6.1069 9.940336,-22.4137 3.091195,-17.2355 2.80856,-13.6581 4.189948,-24.53919 0.213914,-1.68504 -0.405772,-2.32236 -0.909074,-3.37588 -0.469771,-0.98338 -3.295422,-2.31949 -5.363397,-1.37765 -6.334161,2.88477 -1.877595,1.364 -15.128559,6.16064 -9.995069,3.61808 -13.573368,6.10828 -15.937904,11.09108 -3.1058837,6.5452 2.663122,13.1112 7.900236,8.9916 1.386469,-1.0906 1.517244,-1.4867 0.990218,-2.9985 -1.388138,-3.982 2.675497,-7.6701 6.848313,-6.2155 3.524455,1.2286 4.371336,5.6906 1.507606,7.9433 -0.899306,0.7073 -1.899514,1.2861 -2.222679,1.2861 -0.323166,0 -1.751591,0.9405 -3.174283,2.0899 -3.628626,2.9319 -4.915992,3.4952 -7.986935,3.4952 -8.1055214,0 -12.3140869,-9.9138 -8.0349744,-18.9272 3.0898054,-6.50848 6.4197794,-8.89037 20.8819924,-14.93672 3.071805,-1.28426 6.981366,-3.22574 8.687919,-4.31438 7.371812,-4.70268 14.351394,-14.30356 23.323826,-32.08354 l 5.638728,-11.17381 -2.021635,-2.08581 -2.021639,-2.08579 -2.072441,1.28084 -2.072441,1.28084 -3.56098,-3.09963 c -1.958539,-1.7048 -4.321929,-3.90179 -5.251983,-4.88221 l -1.690997,-1.78256 3.706606,-5.25708 c 2.038639,-2.89142 3.694106,-5.53636 3.678828,-5.87766 -0.01527,-0.34132 -0.937893,-2.85461 -2.050256,-5.58509 l -2.022479,-4.96453 -5.240153,-1.08526 c -2.882087,-0.59691 -5.868481,-1.23054 -6.636431,-1.4081 -1.34712,-0.31148 -1.396272,-0.57102 -1.396272,-7.37423 v -7.0514 l 6.050509,-1.07869 c 7.155948,-1.27576 7.898709,-1.60535 8.708298,-3.86414 0.338995,-0.94582 1.173372,-3.11593 1.85417,-4.82249 l 1.237814,-3.10281 -3.981085,-5.55182 -3.981092,-5.5518 5.079028,-5.10555 5.079035,-5.10555 5.466989,3.67599 c 3.006848,2.0218 5.893646,3.67599 6.415118,3.67599 0.521466,0 2.787686,-0.73643 5.03603,-1.63649 4.630693,-1.8538 4.869945,-1.70598 6.149929,-9.9991 l 2.12021,-13.73699 c 0.144729,0.013 -0.665581,-0.23648 -1.468923,-0.38804 -0.803328,-0.15158 -1.575953,-0.2131 -1.435004,-0.18818 0.140942,0.0249 -0.676987,-0.0998 -2.192458,-0.032 -1.51547,0.0678 -3.727688,0.35094 -3.58686,0.33194 0.149518,-0.0201 -0.712665,0.15243 -1.670548,0.57662 -0.957892,0.42418 -1.848461,1.22647 -1.746012,1.12831 0.210052,-0.2013 -0.262193,0.29672 -0.750848,0.82823 -0.488655,0.53153 -0.886538,1.32085 -0.948287,1.44894 -0.105008,0.21779 -0.420802,0.89477 -0.927082,1.36737 -0.506286,0.47259 -0.818307,0.57057 -0.953582,0.61615 -0.193914,0.0652 -0.724706,0.17037 -1.445839,0.14197 -0.72114,-0.0284 -0.911258,-0.0169 -1.059905,-0.0141 -0.04253,7.1e-4 -0.08586,0.002 -0.12454,0.004 -0.07448,0.002 -0.148968,0.003 -0.217406,0.006 -0.04323,7.2e-4 -0.08969,10e-4 -0.139169,0.002 -0.04953,4e-4 -0.101987,5.4e-4 -0.157193,2.9e-4 -0.05517,-2.5e-4 -0.113123,-7.1e-4 -0.173453,-0.002 -0.06033,-10e-4 -0.123095,-0.002 -0.187989,-0.004 -0.06489,-0.002 -0.126763,-0.003 -0.185652,-0.004 -0.05889,-6.3e-4 -0.114768,-5.6e-4 -0.167687,6e-5 -0.05289,6.2e-4 -0.102859,10e-4 -0.149845,0.003 -0.08488,0.002 -0.166878,0.008 -0.246669,0.0122 -0.08602,0.006 -0.159447,0.009 -0.23929,0.0143 -0.02351,6.6e-4 -0.0028,-0.0613 0.03225,-0.15426 0.03275,-0.0866 0.102803,-0.23114 0.149601,-0.41452 0.04678,-0.18338 0.129695,-0.36605 0.207803,-0.62003 0.0781,-0.25399 0.198945,-0.58325 0.305796,-0.89358 0.106853,-0.31031 0.219512,-0.61751 0.352535,-0.9699 0.133024,-0.35238 0.234944,-0.74596 0.391566,-1.12611 0.15663,-0.38015 0.24921,-0.7746 0.426871,-1.16823 0.177661,-0.39365 0.337492,-0.79446 0.53363,-1.18734 0.392251,-0.78575 0.66275,-1.59947 1.118565,-2.30985 0.455815,-0.71041 0.894285,-1.38079 1.311243,-1.93233 0.416966,-0.55156 1.086564,-1.06617 1.362264,-1.37542 0.275703,-0.30924 1.580314,-1.43029 1.817452,-1.57145 0.588023,-0.34998 1.762178,-1.47621 4.704218,-2.28016 0.913453,-0.24961 1.857915,-0.3672 2.802757,-0.48932 0.944856,-0.12213 1.38562,-0.10932 2.202985,-0.17018 0.84305,-0.0628 1.691081,-0.0912 2.206115,-0.0989 0.471223,-0.006 0.982855,0.004 1.350456,0.0347 0.309272,0.0326 0.501813,0.024 0.721976,0.0577 0.218578,0.0336 0.6611,0.0907 0.921308,0.15347 0.260207,0.0628 0.446053,0.17329 0.721476,0.23904 1.101714,0.26302 2.002038,0.66 2.130945,0.72444 0.128913,0.0643 0.0997,0.1045 1.717538,0.84059 1.61784,0.73605 2.113263,0.9528 2.243299,1.01414 0.03252,0.0153 1.337501,0.56993 1.521345,0.62154 0.183845,0.0516 0.959728,0.48018 1.251681,0.55762 0.291954,0.0774 1.616242,0.59001 1.973073,0.68292 0.356846,0.0929 0.724128,0.2245 1.102636,0.32245 0.378501,0.098 0.701043,0.17341 1.057982,0.26604 0.356939,0.0925 0.647501,0.15755 0.939661,0.2344 0.29215,0.0769 0.51871,0.0985 0.70285,0.14923 0.18414,0.0508 0.35945,0.0493 0.5855,0.0916 0.33063,0.0546 0.53978,0.0548 0.77666,0.0959 0.23496,0.0231 0.52128,0.0519 0.80986,0.0687 0.289,0.0167 0.52792,0.0396 0.83404,0.0321 0.30612,-0.007 0.72984,-0.0376 1.01897,-0.0441 0.28913,-0.006 0.5812,-0.037 0.81605,-0.0759 0.25482,-0.0422 0.354,-0.0552 0.50516,-0.0776 0.16399,-0.0245 0.22619,-0.0499 0.60135,-0.16081 0.32044,-0.0947 0.48201,-0.10909 0.7985,-0.24702 0.29148,-0.12701 0.29951,-0.0974 0.81372,-0.35298 0.51421,-0.25563 1.21029,-0.76352 1.74696,-1.2312 0.48401,-0.42181 0.87363,-0.97905 1.29987,-1.60568 0.44498,-0.65416 1.00007,-1.71209 1.63467,-2.03539 0.63459,-0.32333 1.24796,-0.31254 1.82143,-0.354 0.48286,-0.0349 1.46769,0.0112 1.806,0.0841 0.34997,0.0764 0.55223,0.2188 0.79679,0.47236 0.2221,0.23027 0.20426,0.9499 0.043,1.45739 -0.15811,0.49732 -0.40192,1.40383 -0.81589,2.18232 -0.42426,0.79788 -1.13621,2.51225 -1.71758,3.44691 -0.59827,0.96189 -1.03179,1.70493 -1.86946,2.68089 -0.78738,0.91741 -1.16832,1.36172 -2.0147,2.09788 -0.85428,0.74303 -1.51013,1.12478 -2.17707,1.5142 -0.7794,0.4551 -1.0344,0.53958 -1.43266,0.73267 -0.46807,0.22691 -1.33802,0.51555 -1.72119,0.67796 -0.34084,0.14447 -0.40732,0.13017 -0.60847,0.17335 -0.24772,0.0531 -0.58882,0.16613 -1.02298,0.26052 -0.44823,0.0973 -1.2629,0.24897 -1.82018,0.31214 -0.5782,0.0656 -1.07271,0.11599 -1.69471,0.14875 -0.62201,0.0328 -1.29269,0.0195 -1.869552,0.006 -0.581491,-0.0127 -1.124446,-0.009 -1.558149,-0.0393 -0.457109,-0.0312 -0.875005,-0.10339 -1.103194,-0.14524 -0.248379,-0.0457 -0.337049,-0.0374 -0.301316,-0.0314 0.01041,0.86645 2.794625,15.5534 3.010801,15.76959 0.549324,0.54932 8.63874,3.80966 9.45237,3.80966 0.44959,0 3.16422,-1.03525 6.26714,-3.12163 l 5.64167,-3.79346 4.97984,4.97985 4.97983,4.97984 -3.853,6.00776 -3.85299,6.00776 1.96674,4.75173 c 1.08171,2.61345 2.06036,4.85409 2.17477,4.97918 0.11445,0.12509 3.04463,0.73694 6.51159,1.35965 3.46699,0.62271 6.43105,1.25967 6.58685,1.41546 0.15578,0.15579 0.44643,3.37654 0.64587,7.15724 0.29418,5.57616 0.1988,6.92612 -0.5052,7.15012 -0.4773,0.15188 -3.52075,0.7343 -6.7632,1.29429 l -5.89537,1.01817 -2.30916,5.28804 -2.30915,5.28804 3.77549,5.61495 3.77547,5.61495 -4.9508,4.95079 c -4.22034,4.22037 -5.12535,4.85739 -6.13386,4.31766 -0.98809,-0.52882 -1.52128,-0.23029 -3.23541,1.81143 l -2.05235,2.44457 5.86138,8.20611 c 14.29912,20.01919 25.53132,32.65082 32.88857,36.98615 10.81632,6.37369 21.68818,6.73375 30.3448,1.00502 1.9513,-1.29129 2.36787,-1.92851 2.36787,-3.62197 0,-4.60647 6.05829,-6.80306 9.07863,-3.29171 1.64689,1.91464 1.7809,2.76403 0.782,4.9564 -0.73398,1.61091 -2.92213,2.89019 -4.94356,2.89019 -0.6766,0 -2.61766,1.09673 -4.31346,2.4372 -5.40047,4.26878 -8.93754,5.27656 -18.60001,5.2995 -9.48548,0.0224 -13.82574,0.28509 -18.89456,-2.03582 0,0 -2.68077,-0.91916 -4.01391,-1.70485 -1.27493,-0.75133 -1.98422,-1.12929 -3.22211,-1.84191 -1.43622,-0.82679 -2.47794,-0.11656 -2.97925,0.16795 -0.54012,0.30657 -0.92367,0.74529 -1.01036,1.51575 -0.15298,1.35956 1.43721,2.34586 2.38063,3.06989 0.52217,0.40079 1.70196,1.27867 2.77508,1.92525 1.13784,0.6856 0.23894,0.828 15.03546,3.5305 12.4233,2.269 15.57857,3.1781 19.36372,5.5791 5.29021,3.3558 6.75863,8.7482 3.98579,14.6371 -1.91107,4.0588 -4.08385,6.2988 -7.63203,7.8683 -6.03565,2.67 -12.70859,0.063 -15.51227,-6.0617 -0.96273,-2.103 -2.18463,-3.7079 -3.23726,-4.2522 -3.42534,-1.7714 -3.7256,-5.8468 -0.59242,-8.0414 2.2069,-1.5457 4.71217,-1.2423 6.77504,0.8205 2.11924,2.1193 2.27859,3.6337 0.6061,5.7599 -1.20147,1.5275 -1.20065,1.5459 0.15515,3.4954 4.06921,5.8516 14.08459,1.9296 14.08459,-5.5153 0,-2.5322 -3.20933,-5.8224 -6.55343,-6.7184 -1.34463,-0.3604 -6.25875,-0.7928 -10.82241,-1.6213 -11.03164,-2.0023 -17.1184,-3.9892 -19.55053,-5.1736 -3.88403,-1.8916 -4.98048,-3.1711 -6.00263,-4.1046 -1.8778,-1.71501 -6.25571,-2.68744 -8.14426,-2.23764 -2.3118,0.5506 -2.91441,1.79794 -2.72964,4.62704 0.1196,1.8316 0.015,4.3085 0.13842,5.4928 0.10417,1.0006 -0.96599,11.8636 -0.0375,15.0798 2.04297,7.0775 5.14454,10.1946 10.14813,10.1989 3.03072,0 4.90062,-0.781 6.46135,-2.7078 2.07112,-2.5568 0.91681,-8.46 -1.6543,-8.46 -3.41481,0 -5.92132,-3.8505 -4.40959,-6.7738 2.87497,-5.5595 11.33599,-2.5488 9.71385,3.4566 -0.34983,1.2951 -0.0933,2.5927 0.96264,4.8685 2.13691,4.6059 1.968,8.3671 -0.50211,11.1803 -2.34966,2.6761 -4.40281,3.803 -8.55017,4.6924 -6.80751,1.4599 -13.67579,-2.6596 -17.63769,-10.5791 -3.13262,-6.2616 -1.31912,-11.5101 -2.22107,-21.7819 -0.37664,-4.2897 -0.10002,-9.84368 -1.78026,-15.95357 -0.46475,-1.68999 -2.80069,-4.09796 -4.52475,-4.26533 -2.68567,-0.26076 -4.20821,0.15337 -4.24954,3.91628 -0.0398,3.61194 -0.10179,-1.75751 -0.089,5.67203 0.0195,11.33409 0.23316,12.95989 1.32723,18.02769 1.92235,8.9043 5.88733,18.2983 11.86593,31.1213 6.95684,14.9212 6.36548,18.7417 4.09514,22.6366 -1.02789,1.7634 -2.47148,2.9965 -5.05542,4.318 -3.09133,1.581 -4.44181,1.8778 -9.2966,2.044 -4.385,0.1499 -6.3922,-0.069 -8.804451,-0.9669 z"
       id="path4195"
       inkscape:connector-curvature="0"
       sodipodi:nodetypes="cssssssssssszzsssssssssscssssssssssssssssssssssssssssssssssssssssssssssscccccsscscscssscssscccccsssscssssssssssscccsssssscccsssssssssssssssccsssssssssssssccssssssssssssssssssssssssssssscssscccccssssssscccccssscssssssssssssssssssssssssssssssssssscsssssssssssssssssssc" />
  </g>
  <g
     inkscape:groupmode="layer"
     id="layer2"
     inkscape:label="Serigrafia_Base"
     transform="translate(0,-120.94488)"
     style="display:inline">
    <path
       style="fill:#ffffff;stroke-width:0.71658432"
       inkscape:connector-curvature="0"
       id="path16"
       d="m 84.882381,256.27224 c -1.732362,-0.40869 -2.956042,-2.20168 -2.637995,-3.86446 0.155449,-0.8152 0.618004,-0.53154 0.618004,0.37886 0,2.28299 2.374414,3.59751 4.507118,2.49429 0.821552,-0.42459 1.677902,-1.69738 1.677902,-2.49429 0,-0.44566 0.503506,-0.88596 0.740644,-0.64901 0.07812,0.0781 -0.01572,0.66611 -0.207521,1.30697 -0.352038,1.1744 -1.904499,2.60143 -2.594272,2.78172 -0.336328,0.0883 -0.412864,0.13179 -0.797897,0.15465 -0.214089,0.0125 -0.793529,0.0125 -1.306376,-0.10887 h 3.07e-4 z" />
    <g
       id="g4853"
       transform="matrix(0.71658437,0,0,0.71658437,-7.5247252,-383.4049)">
      <g
         id="g4849">
        <path
           style="fill:#ffffff;stroke:#010202;stroke-width:0.05664472;stroke-miterlimit:10"
           inkscape:connector-curvature="0"
           id="path18"
           d="m 143.42581,868.3535 v -6.20595 l -1.65218,-0.43607 c -6.35326,-1.67466 -10.64183,-8.23596 -9.60353,-14.69351 1.43137,-8.89699 10.88899,-13.71401 18.92882,-9.63987 2.316,1.17368 4.95849,3.97679 6.02759,6.39265 0.96063,2.17119 1.32069,6.28334 0.73843,8.43346 -1.10599,4.08275 -4.76209,8.02069 -8.53332,9.19048 l -1.82306,0.56672 -0.10791,6.35298 -0.0155,6.29888 2.05413,-0.19723 c 1.17977,-0.13842 3.50853,-0.74925 5.17487,-1.35703 8.98353,-3.27913 15.69713,-10.60937 18.20952,-19.8828 0.93095,-3.43807 0.93289,-10.54973 0.004,-13.99585 -2.22058,-8.22902 -7.99102,-15.20919 -15.59811,-18.86835 -3.90133,-1.87632 -7.42622,-2.63417 -12.24713,-2.63279 -5.04865,10e-4 -7.94746,0.70182 -12.82967,3.09799 -3.12378,1.53401 -4.23559,2.35788 -7.20764,5.34574 -5.84505,5.87363 -8.34996,11.89012 -8.33747,20.02039 0.0139,8.44594 3.04389,15.32791 9.2981,21.11832 4.30079,3.98205 11.42215,7.20764 16.06358,7.27533 l 1.45801,0.0222 v -6.20567 h -0.002 z"
           stroke-miterlimit="10" />
        <path
           style="fill:#ffffff;stroke:#010202;stroke-width:0.05664472;stroke-miterlimit:10"
           inkscape:connector-curvature="0"
           id="path20"
           d="m 106.10271,861.73395 v -6.21483 l -1.45246,-0.60723 c -3.28772,-1.37312 -4.929918,-4.10743 -4.694409,-7.81292 0.128159,-2.01474 0.365609,-2.7074 1.341779,-3.91964 0.65216,-0.80972 1.86911,-1.87299 2.70408,-2.36343 3.25526,-1.90878 8.61182,-0.37865 10.23266,2.92295 0.81333,1.6569 1.19781,1.59781 1.20557,-0.18503 0.0197,-4.16569 2.63251,-11.15418 5.62647,-15.04719 l 1.48075,-1.92653 -1.67604,-1.44441 c -2.03915,-1.75538 -5.0037,-3.24695 -8.01569,-4.03115 -6.257,-1.62999 -12.70429,0.33482 -17.849749,5.4395 -7.601267,7.54079 -9.358307,19.48501 -4.366527,29.68022 0.861321,1.75843 2.203931,3.5274 4.186219,5.51579 3.66027,3.67137 5.497477,4.6872 11.180537,6.18321 0.0535,0.0144 0.0968,-2.77066 0.0968,-6.18931 v 0 z"
           stroke-miterlimit="10" />
      </g>
      <path
         stroke-miterlimit="10"
         d="m 115.10484,866.79619 c 1.04995,-0.3989 2.77675,-1.28269 3.83808,-1.9637 l 1.93041,-1.23886 -0.72595,-1.02999 c -1.80836,-2.56426 -3.91797,-7.93996 -4.5227,-11.52478 l -0.26186,-1.55288 -0.73927,1.51931 c -1.00335,2.06329 -1.71792,2.78536 -3.71214,3.75043 l -1.69796,0.82165 v 6.23647 6.23619 l 1.99145,-0.26436 c 1.09544,-0.14536 2.85026,-0.59058 3.89994,-0.98948 z"
         id="path22"
         inkscape:connector-curvature="0"
         style="fill:#ffffff;stroke:#010202;stroke-width:0.05664472;stroke-miterlimit:10" />
    </g>
    <g
       id="Cabeza_color"
       transform="matrix(0.19877924,0,0,0.19877924,-41.044667,48.895882)"
       style="fill:#ffffff">
      <g
         id="g4845"
         style="fill:#ffffff">
        <path
           stroke-miterlimit="10"
           d="m 150.41097,774.1216 4.73575,-1.77757 -0.008,-0.0158 c -0.48572,-0.99253 -0.75063,-2.09158 -0.75063,-3.27108 0,-0.80668 0.0871,-1.45496 0.32317,-2.18313 l 0.0405,-0.12898 -5.38652,-1.69213 -0.10984,-0.0347 c -0.64717,0.59835 -1.50628,0.9709 -2.45165,0.99253 l -0.008,0.0646 -0.46436,3.97068 h 2.7e-4 c 1.92792,0.62608 3.45222,2.14817 4.07886,4.07553"
           id="path28"
           inkscape:connector-curvature="0"
           style="fill:#ffffff;stroke:#010202;stroke-width:0.0567002;stroke-miterlimit:10"
           transform="matrix(3.6049257,0,0,3.6049257,168.63162,-2175.2578)" />
        <path
           d="m 564.429,551.362 c -0.133,-0.173 -0.201,-0.262 -0.201,-0.262 45.172,2.359 86.506,20.922 118.605,49.348 v 10e-4 c 1.991,-0.565 4.091,-0.868 6.262,-0.868 0.821,0 1.629,0.043 2.426,0.127 l 1.834,-14.225 -0.249,-0.084 c -5.394,-1.766 -9.044,-6.756 -9.044,-12.74 0,-7.45 6.04,-13.49 13.491,-13.49 7.45,0 13.49,6.041 13.49,13.49 0,2.023 -0.445,3.944 -1.245,5.667 l 0.569,0.169 18.023,5.407 0.234,0.069 c 4.617,-8.249 13.44,-13.825 23.564,-13.825 14.902,0 26.982,12.078 26.982,26.979 0,9.06 -4.463,17.075 -11.311,21.969 l 0.174,0.24 6.149,8.47 0.182,0.277 c 1.886,-0.69 3.922,-1.066 6.046,-1.066 9.71,0 17.579,7.869 17.579,17.579 0,6.579 -3.614,12.312 -8.963,15.327 14.787,53.922 14.924,116.265 -7.99,155.164 l 0.088,0.191 6.147,12.669 c 8.074,16.642 10.849,28.712 10.849,47.199 0,17.421 -2.595,29.666 -9.422,44.44 -2.695,5.838 -4.902,10.695 -4.902,10.796 0,0.102 2.292,1.421 5.097,2.931 l 5.095,2.744 22.885,-23.8 c 12.586,-13.087 22.905,-24.314 22.934,-24.944 0.026,-0.63 -8.256,-13.376 -18.409,-28.323 l -18.458,-27.178 8.122,-18.627 c 4.468,-10.246 9.838,-22.726 11.933,-27.738 l 3.809,-9.108 11.082,-2.396 c 6.095,-1.315 20.834,-4.027 32.755,-6.023 11.92,-1.996 21.917,-3.874 22.22,-4.174 0.298,-0.298 0.083,-15.948 -0.479,-34.776 l -1.024,-34.23 -21.896,-3.843 c -12.043,-2.114 -26.989,-4.772 -33.216,-5.909 l -11.32,-2.067 -4.291,-10.052 c -2.36,-5.53 -7.537,-17.171 -11.504,-25.872 -3.967,-8.701 -6.78,-16.584 -6.248,-17.52 0.534,-0.935 9.069,-14.111 18.972,-29.28 9.901,-15.168 18.003,-28.104 18.003,-28.747 0,-0.642 -10.651,-11.804 -23.67,-24.806 l -23.669,-23.639 -29.29,19.772 -29.289,19.771 -25.794,-10.519 c -14.189,-5.787 -25.994,-10.717 -26.235,-10.958 -0.241,-0.242 -3.263,-14.574 -6.715,-31.849 -3.454,-17.275 -6.617,-32.841 -7.034,-34.589 l -0.757,-3.178 -33.196,0.375 -33.196,0.375 -6.881,34.535 -6.881,34.532 -23.021,9.829"
           id="path38"
           inkscape:connector-curvature="0"
           style="fill:#ffffff" />
      </g>
      <path
         style="fill:#ffffff"
         inkscape:connector-curvature="0"
         id="path40"
         d="m 747.175,783.665 c 11.058,-55.206 -4.392,-110.421 -36.616,-153.208 0.925,-2.486 1.431,-5.175 1.431,-7.982 0,-0.631 -0.026,-1.255 -0.077,-1.874 l 18.721,-7.24 v 10e-4 c 4.926,6.529 12.747,10.749 21.555,10.749 3.631,0 7.095,-0.717 10.258,-2.017 l 0.137,0.187 6.376,8.754 0.101,0.138 c -3.809,3.225 -6.229,8.042 -6.229,13.425 0,9.71 7.869,17.579 17.579,17.579 1.052,0 2.082,-0.092 3.083,-0.269 v -10e-4 c 15.688,45.465 15.415,108.285 -5.627,148.646 l -0.316,-0.316 -8.982,-9.187 c -6.979,-7.136 -13.894,-12.808 -21.394,-17.385 z" />
    </g>
  </g>
</svg>
