<?xml version="1.0" encoding="UTF-8" standalone="no"?>
<!-- Created with Inkscape (http://www.inkscape.org/) -->

<svg
   xmlns:dc="http://purl.org/dc/elements/1.1/"
   xmlns:cc="http://creativecommons.org/ns#"
   xmlns:rdf="http://www.w3.org/1999/02/22-rdf-syntax-ns#"
   xmlns:svg="http://www.w3.org/2000/svg"
   xmlns="http://www.w3.org/2000/svg"
   xmlns:sodipodi="http://sodipodi.sourceforge.net/DTD/sodipodi-0.dtd"
   xmlns:inkscape="http://www.inkscape.org/namespaces/inkscape"
   width="100mm"
   height="100mm"
   id="svg3274"
   version="1.1"
   inkscape:version="0.92.4 (33fec40, 2019-01-16)"
   sodipodi:docname="Base_2019_01.99_99.svg"
   inkscape:export-filename="/home/salvari/work/graphicsResources/BL/oshwi.png"
   inkscape:export-xdpi="90"
   inkscape:export-ydpi="90">
  <defs
     id="defs3276" />
  <sodipodi:namedview
     id="base"
     pagecolor="#8ea482"
     bordercolor="#666666"
     borderopacity="1.0"
     inkscape:pageopacity="1"
     inkscape:pageshadow="2"
     inkscape:zoom="2"
     inkscape:cx="222.1226"
     inkscape:cy="156.66527"
     inkscape:document-units="mm"
     inkscape:current-layer="g4691"
     showgrid="false"
     inkscape:window-width="1397"
     inkscape:window-height="1023"
     inkscape:window-x="523"
     inkscape:window-y="27"
     inkscape:window-maximized="0"
     units="mm"
     inkscape:snap-global="false"
     showguides="true" />
  <metadata
     id="metadata3279">
    <rdf:RDF>
      <cc:Work
         rdf:about="">
        <dc:format>image/svg+xml</dc:format>
        <dc:type
           rdf:resource="http://purl.org/dc/dcmitype/StillImage" />
        <dc:title></dc:title>
        <cc:license
           rdf:resource="http://creativecommons.org/licenses/by-nc-sa/4.0/" />
      </cc:Work>
      <cc:License
         rdf:about="http://creativecommons.org/licenses/by-nc-sa/4.0/">
        <cc:permits
           rdf:resource="http://creativecommons.org/ns#Reproduction" />
        <cc:permits
           rdf:resource="http://creativecommons.org/ns#Distribution" />
        <cc:requires
           rdf:resource="http://creativecommons.org/ns#Notice" />
        <cc:requires
           rdf:resource="http://creativecommons.org/ns#Attribution" />
        <cc:prohibits
           rdf:resource="http://creativecommons.org/ns#CommercialUse" />
        <cc:permits
           rdf:resource="http://creativecommons.org/ns#DerivativeWorks" />
        <cc:requires
           rdf:resource="http://creativecommons.org/ns#ShareAlike" />
      </cc:License>
    </rdf:RDF>
  </metadata>
  <g
     inkscape:label="Outline_Base"
     inkscape:groupmode="layer"
     id="layer1"
     transform="translate(0,-697.55908)"
     style="display:none">
    <path
       d="m 173.7823,760.8419 c 9.75714,12.95616 14.43497,29.67444 11.08668,46.39005"
       id="path33"
       inkscape:connector-curvature="0"
       style="fill:none;stroke-width:1.09644437" />
    <path
       d="m 129.47365,736.81332 c 13.67769,0.71457 26.19326,6.335 35.91286,14.94215"
       id="path35"
       inkscape:connector-curvature="0"
       style="fill:none;stroke-width:1.09644437" />
    <path
       style="fill:none;stroke:#010202;stroke-width:0.03724333;stroke-miterlimit:10"
       inkscape:connector-curvature="0"
       id="path42"
       d="M 136.8239,870.78025"
       stroke-miterlimit="10" />
    <path
       style="fill:none;stroke:#010202;stroke-width:0.03724333;stroke-miterlimit:10"
       inkscape:connector-curvature="0"
       id="path44"
       d="M 149.73131,870.4493"
       stroke-miterlimit="10" />
    <path
       style="fill:none;stroke:#010202;stroke-width:0.03724333;stroke-miterlimit:10"
       inkscape:connector-curvature="0"
       id="path46"
       d="M 136.8239,870.42084"
       stroke-miterlimit="10" />
    <path
       style="fill:none;stroke:#010202;stroke-width:0.03724333;stroke-miterlimit:10"
       inkscape:connector-curvature="0"
       id="path48"
       d="M 149.52419,875.50745"
       stroke-miterlimit="10" />
    <path
       style="fill:none;stroke:#010202;stroke-width:0.03724333;stroke-miterlimit:10"
       inkscape:connector-curvature="0"
       id="path50"
       d="M 136.61649,875.47896"
       stroke-miterlimit="10" />
    <path
       style="fill:#808000;fill-opacity:1;stroke:#000000;stroke-width:0.46999136;stroke-linejoin:round;stroke-miterlimit:10;stroke-dasharray:none;stroke-dashoffset:0;stroke-opacity:1"
       d="m 142.34135,1072.8939 c -2.62952,-0.977 -5.69925,-2.2681 -6.82165,-2.8686 -1.1224,-0.6007 -3.72033,-1.092 -5.7732,-1.092 -5.09711,0 -8.7362,-2.9264 -8.7362,-7.0248 0,-6.9951 9.29277,-10.3274 13.89117,-4.9814 1.23794,1.4393 2.25078,3.6021 2.25078,4.8064 0,1.902 0.70726,2.3318 5.38075,3.2702 6.75877,1.3577 15.51607,1.3902 19.00771,0.071 3.74056,-1.4135 7.69819,-5.4259 8.37047,-8.4867 0.79893,-3.6374 -2.00942,-10.3452 -10.73448,-25.9271 -7.116,-12.7082 -9.2368,-22.2078 -10.96324,-26.7384 -1.92002,-5.1364 -1.73153,-4.8815 -2.88638,-10.02914 -2.58868,-13.27573 -5.55473,-17.55486 -6.93252,-19.32789 -1.37779,-1.77306 -6.13418,-3.72734 -8.38628,1.00813 -1.56254,3.28555 -5.0126,12.99026 -5.72528,15.5876 -1.32837,4.84119 -2.49911,7.5727 -3.99591,11.4181 -2.55732,6.5696 -3.5116,12.4654 -5.04126,16.8147 -2.64264,7.5137 -3.48532,14.3151 -2.19141,17.6868 1.28885,3.3589 10.24457,5.5638 15.07246,3.7112 2.38587,-0.9155 3.34929,-4.4621 2.27193,-8.3639 -0.75342,-2.7289 -1.69837,-3.7332 -4.60651,-4.8968 -6.84273,-2.7382 -7.36682,-9.8956 -0.96689,-13.2052 2.4087,-1.2454 3.54646,-1.3268 6.22038,-0.4445 4.01149,1.3239 5.28151,3.5213 5.06858,8.7693 -0.0898,2.2152 0.26994,6.0821 0.79964,8.5928 1.75902,8.3378 -1.25554,14.6287 -8.09112,16.8847 -5.29286,1.7465 -18.20075,0.6914 -22.26506,-1.8205 -8.28809,-5.1222 -6.944085,-12.5814 0.18953,-37.2942 6.48331,-22.46006 6.28199,-24.99679 5.70043,-29.67546 -0.39861,-4.2257 -1.80076,-6.66982 -6.11392,-7.47249 -2.73232,-0.48878 -4.22036,0.44351 -5.46378,2.37925 -1.056189,1.64429 -0.77609,3.16266 -1.681642,14.9273 -1.80451,23.4437 -1.948683,30.9687 -6.170853,42.2845 -4.789051,12.8349 -13.654584,22.4329 -23.756424,25.7202 -2.611206,0.8496 -6.079927,2.3465 -7.708289,3.3269 -4.266398,2.568 -7.625686,2.2613 -10.880514,-0.9935 -4.273481,-4.2735 -3.284158,-8.6592 2.498305,-11.0752 2.837379,-1.1855 3.684009,-1.1615 7.093327,0.2029 3.627654,1.4513 4.110395,1.4411 7.667949,-0.1627 7.064307,-3.1855 11.975469,-10.6311 15.210869,-23.0601 1.510495,-5.8026 2.283685,-12.4837 2.783937,-32.91917 0.306683,-12.52812 1.472557,-15.38013 0.533265,-19.56801 -0.511614,-2.28076 -3.800836,-4.25014 -5.188038,-4.2073 0,0 -3.243423,-0.3507 -4.868672,3.18827 -2.060362,4.48609 -2.558748,9.71492 -4.718515,19.63761 -7.653237,35.161 -10.483741,40.4256 -22.978767,42.7375 -11.35465,2.1008 -24.547345,-7.1202 -24.547345,-17.1576 0,-1.3703 -0.85457,-3.5781 -1.899053,-4.9061 -2.48883,-3.164 -2.402343,-6.2149 0.264067,-9.3146 4.607361,-5.35647 13.978827,-2.1009 13.978827,4.8562 0,2.384 -0.766843,3.6809 -3.449537,5.8329 -3.179087,2.5503 -3.355889,2.9482 -2.255157,5.0775 3.383989,6.544 9.389665,9.3521 16.123789,7.5388 7.484394,-2.0154 11.658217,-9.1962 15.20969,-34.29523 2.242652,-15.84932 2.384157,-19.94162 3.222341,-34.35868 0.150843,-2.59459 -0.254083,-3.78737 -1.390973,-5.16543 -1.14927,-1.39306 -4.867387,-3.07702 -8.206525,-2.10794 -3.123181,0.90642 -6.508015,1.57686 -19.959488,6.23769 -15.368202,5.32497 -20.768589,9.34627 -24.386561,16.97044 -4.7523079,10.01481 4.074838,20.06142 12.088137,13.75804 2.121434,-1.66873 2.321533,-2.27481 1.515131,-4.58801 -2.123988,-6.09284 4.093774,-11.73601 10.478592,-9.51031 5.392763,1.87988 6.688574,8.70716 2.306786,12.15402 -1.376027,1.08223 -2.906443,1.96786 -3.400918,1.96786 -0.494476,0 -2.680106,1.43906 -4.856964,3.19775 -5.552155,4.48609 -7.521951,5.34801 -12.220795,5.34801 -12.4022461,0 -18.841765,-15.16909 -12.2943023,-28.96049 4.7277061,-9.9586 9.8228933,-13.60315 31.9515023,-22.85464 4.700163,-1.96504 10.682175,-4.9357 13.29337,-6.60143 11.279597,-7.19556 21.959043,-21.88585 35.687747,-49.09097 l 6.174167,-15.58024 -3.0933,-3.19148 -3.093308,-3.19148 -0.717397,0.44303 -3.171038,1.95981 -5.448651,-4.74275 c -2.996755,-2.60851 -6.612975,-5.97011 -8.036048,-7.47025 l -2.587392,-2.72749 5.671471,-8.04385 c 3.119319,-4.42417 5.652345,-8.47118 5.628969,-8.99341 -0.02337,-0.52224 -1.435069,-4.36783 -3.137094,-8.54574 l -3.094593,-7.59621 -8.017947,-1.66056 c -4.409877,-0.91333 -8.979353,-1.88284 -10.154393,-2.15452 -2.061226,-0.4766 -2.136434,-0.87373 -2.136434,-11.2833 V 794.7439 l 9.257874,-1.65051 c 10.949305,-1.95203 12.085803,-2.45634 13.324553,-5.9125 0.518695,-1.4472 1.795375,-4.76768 2.837062,-7.37889 l 1.893976,-4.74762 -6.09145,-8.49481 -6.091463,-8.4948 7.771413,-7.812 7.771423,-7.81199 8.36503,5.62463 c 4.600774,3.09354 9.017858,5.62463 9.815761,5.62463 0.7979,0 4.26544,-1.12681 7.70562,-2.50399 7.08542,-2.8365 7.45149,-2.61032 9.41,-15.2996 l 3.24412,-21.01896 c 0.22146,0.0199 -1.0184,-0.36183 -2.24759,-0.59374 -1.22917,-0.23193 -2.41136,-0.32606 -2.19571,-0.28793 0.21567,0.0381 -1.03584,-0.1527 -3.35466,-0.0489 -2.31882,0.10374 -5.70373,0.53697 -5.48826,0.5079 0.22878,-0.0307 -1.09044,0.23322 -2.5561,0.88228 -1.46566,0.64903 -2.82832,1.87663 -2.67157,1.72642 0.3214,-0.30799 -0.40118,0.45401 -1.14886,1.26728 -0.747695,0.8133 -1.356496,2.02103 -1.450978,2.21703 -0.160672,0.33323 -0.643868,1.36909 -1.418527,2.0922 -0.774667,0.72311 -1.252089,0.87303 -1.459073,0.94277 -0.296707,0.0998 -1.108872,0.26069 -2.212277,0.21722 -1.103415,-0.0435 -1.394314,-0.0258 -1.621757,-0.0215 -0.06508,0.001 -0.131376,0.003 -0.19056,0.006 -0.113962,0.003 -0.227935,0.004 -0.332651,0.009 -0.06614,0.001 -0.137236,0.001 -0.212944,0.003 -0.07579,6.1e-4 -0.156049,8.2e-4 -0.240521,4.4e-4 -0.08441,-3.8e-4 -0.173087,-10e-4 -0.265399,-0.003 -0.09231,-10e-4 -0.188348,-0.003 -0.287641,-0.006 -0.09929,-0.003 -0.19396,-0.005 -0.284066,-0.006 -0.0901,-9.7e-4 -0.175608,-8.7e-4 -0.256578,9e-5 -0.08093,9.4e-4 -0.157384,0.002 -0.229278,0.005 -0.129874,0.003 -0.255339,0.0122 -0.377427,0.0187 -0.13162,0.009 -0.24397,0.0137 -0.366138,0.0219 -0.03597,0.001 -0.0043,-0.0938 0.04934,-0.23603 0.05011,-0.13251 0.1573,-0.35366 0.228905,-0.63427 0.07158,-0.28058 0.198446,-0.56008 0.317959,-0.94869 0.119501,-0.38864 0.304405,-0.89243 0.467899,-1.36728 0.163495,-0.4748 0.335875,-0.94484 0.539411,-1.48403 0.203541,-0.53918 0.359489,-1.1414 0.599136,-1.72307 0.239659,-0.58165 0.381315,-1.18521 0.653154,-1.78751 0.271839,-0.60231 0.516397,-1.21559 0.816507,-1.81674 0.600182,-1.20227 1.014072,-2.44735 1.711514,-3.5343 0.697442,-1.08699 1.368344,-2.11274 2.006332,-2.95665 0.637998,-0.84395 1.662548,-1.63134 2.084397,-2.10452 0.421852,-0.47317 2.418031,-2.18849 2.780881,-2.40448 0.89973,-0.5355 2.6963,-2.25874 7.1979,-3.48887 1.39768,-0.38192 2.8428,-0.56185 4.2885,-0.74871 1.44572,-0.18687 2.12013,-0.16727 3.37079,-0.26038 1.28995,-0.0961 2.58752,-0.13955 3.37556,-0.15133 0.72103,-0.009 1.50388,0.006 2.06634,0.053 0.47321,0.0499 0.76783,0.0367 1.1047,0.0882 0.33444,0.0514 1.01154,0.13878 1.40969,0.23483 0.39814,0.0961 0.6825,0.26515 1.10393,0.36575 1.68573,0.40245 3.06331,1.00986 3.26055,1.10846 0.19725,0.0984 0.15255,0.1599 2.62801,1.28619 2.47545,1.12623 3.23348,1.45788 3.43247,1.55173 0.0498,0.0234 2.0465,0.87205 2.3278,0.95102 0.2813,0.079 1.46847,0.73473 1.91519,0.85321 0.44672,0.11844 2.47301,0.90277 3.019,1.04494 0.54601,0.14214 1.10798,0.3435 1.68714,0.49338 0.57915,0.14994 1.07267,0.26533 1.61882,0.40707 0.54615,0.14153 0.99074,0.24106 1.43777,0.35865 0.44702,0.11767 0.79368,0.15072 1.07543,0.22833 0.28175,0.0777 0.54999,0.0754 0.89587,0.14016 0.50589,0.0836 0.82591,0.0839 1.18837,0.14675 0.35951,0.0353 0.79762,0.0794 1.23916,0.10511 0.44221,0.0255 0.80778,0.0607 1.27617,0.0491 0.46838,-0.0107 1.11673,-0.0575 1.55912,-0.0674 0.4424,-0.009 0.8893,-0.0566 1.24863,-0.11613 0.3899,-0.0646 0.54167,-0.0845 0.77296,-0.11874 0.25093,-0.0374 0.34609,-0.0763 0.92012,-0.24606 0.4903,-0.14489 0.73752,-0.1669 1.22178,-0.37796 0.44599,-0.19434 0.45829,-0.14903 1.24507,-0.54009 0.78679,-0.39115 1.85186,-1.16826 2.67303,-1.88386 0.74058,-0.64542 1.33673,-1.49804 1.98892,-2.45684 0.68087,-1.00094 1.53021,-2.61968 2.50119,-3.11436 0.971,-0.49472 1.90951,-0.47821 2.78698,-0.54165 0.73884,-0.0534 2.24571,0.0172 2.76336,0.12868 0.53548,0.11689 0.84497,0.33479 1.21917,0.72276 0.33983,0.35234 0.31254,1.45344 0.0658,2.22994 -0.24193,0.76095 -0.61499,2.14801 -1.24839,3.33917 -0.64917,1.22083 -1.73852,3.844 -2.62807,5.27411 -0.91541,1.47178 -1.57874,2.60871 -2.86047,4.10203 -1.20476,1.40373 -1.78764,2.08357 -3.08267,3.20996 -1.30714,1.13691 -2.31067,1.72102 -3.33115,2.31688 -1.19254,0.69634 -1.58273,0.82561 -2.1921,1.12105 -0.7162,0.3472 -2.04731,0.78885 -2.63358,1.03735 -0.52152,0.22105 -0.62325,0.19917 -0.93104,0.26524 -0.37903,0.0813 -0.90095,0.2542 -1.56525,0.39863 -0.68584,0.14888 -1.93236,0.38094 -2.78506,0.4776 -0.88469,0.10044 -1.64134,0.17748 -2.59307,0.2276 -0.95174,0.0502 -1.97794,0.0298 -2.8606,0.009 -0.88973,-0.0195 -1.7205,-0.0137 -2.38412,-0.0601 -0.69943,-0.0478 -1.33884,-0.1582 -1.68799,-0.22224 -0.38005,-0.0698 -0.51572,-0.0572 -0.46105,-0.048 0.016,1.32576 4.27605,23.79823 4.60682,24.12903 0.84051,0.8405 13.21811,5.82915 14.46306,5.82915 0.68792,0 4.84156,-1.58404 9.58935,-4.77641 l 8.63231,-5.80436 7.61964,7.61966 7.61963,7.61965 -5.89547,9.19246 -5.89545,9.19246 3.0093,7.27062 c 1.65513,3.99884 3.15255,7.42723 3.32761,7.61863 0.17512,0.19141 4.65858,1.1276 9.96337,2.0804 5.30484,0.95281 9.84014,1.92742 10.07853,2.16579 0.23836,0.23838 0.68308,5.16644 0.98824,10.95129 0.45013,8.53206 0.30419,10.59764 -0.773,10.94039 -0.73031,0.23238 -5.38709,1.12354 -10.34836,1.98038 l -9.02049,1.5579 -3.53325,8.09121 -3.53323,8.09123 5.77687,8.59143 5.77685,8.59143 -6.94431,8.33227 c -1.60861,1.93011 -6.79586,7.18678 -7.80104,8.23225 -0.56568,-0.28166 -0.9441,-0.60639 -1.69554,-1.07798 -0.68835,0.2224 -1.71817,1.52822 -3.23965,3.34046 l -3.14029,3.74042 6.7379,10.68246 c 20.08192,31.83848 39.06543,49.95896 50.32274,56.59245 16.55003,9.75238 33.18506,10.3033 46.43054,1.5378 2.98567,-1.97582 3.62307,-2.95083 3.62307,-5.54198 0,-7.04836 9.26978,-10.40936 13.89119,-5.03665 2.51991,2.92959 2.72497,4.22924 1.19653,7.58378 -1.12305,2.46485 -4.47114,4.42229 -7.56412,4.42229 -1.03527,0 -4.00527,1.67809 -6.60002,3.72914 -8.26325,6.53166 -20.8681,9.30604 -25.43151,9.24439 -3.4096,-0.046 -14.59334,0.0576 -21.46587,-1.85321 -3.44604,-1.46139 -4.70854,-2.36668 -6.20156,-2.94667 -2.62596,-0.79156 -3.91165,-0.33495 -4.69383,0.18934 -0.77948,0.52248 -1.27803,1.20802 -1.41067,2.38689 -0.23407,2.08027 2.19907,3.5894 3.6426,4.69724 5.16592,2.22594 8.80419,2.60447 11.90862,3.47019 18.95933,3.73282 23.83674,4.8628 29.6284,8.53655 8.09454,5.13471 10.34137,13.38562 6.09865,22.3962 -2.92414,6.21049 -6.2487,9.63769 -11.67776,12.03929 -9.23514,4.0854 -19.44539,0.097 -23.7353,-9.275 -1.47308,-3.2178 -3.34269,-5.67346 -4.95332,-6.50629 -5.24111,-2.71042 -5.70054,-8.94618 -0.90647,-12.30413 3.37678,-2.36507 7.21009,-1.90084 10.36648,1.25545 3.24264,3.24273 3.48647,5.55991 0.9274,8.81321 -1.83838,2.33722 -1.83711,2.36537 0.23739,5.3483 6.22628,8.95346 21.55081,2.95246 21.55081,-8.43894 0,-3.87452 -4.91059,-8.90885 -10.0274,-10.27982 -2.05741,-0.55145 -4.45275,-1.51156 -11.34161,-3.21774 -12.37,-3.06372 -14.51727,-2.58947 -19.22055,-3.71345 -2.99646,-0.7161 -11.47394,-2.23343 -16.22475,-3.02272 -3.83859,-0.63773 -11.78274,-0.0674 -14.60351,0.86383 -2.95731,0.97632 -6.01247,3.15444 -7.36798,6.21434 -0.96927,2.18805 -2.49679,4.70026 -3.05689,6.27658 -1.01292,2.8507 -1.7473,10.13486 -0.32659,15.05597 3.12594,10.82921 7.87164,15.59881 15.52764,15.60531 4.63729,0 7.49842,-1.195 9.8865,-4.1431 3.16901,-3.9123 1.40281,-12.94473 -2.53125,-12.94473 -5.225,0 -9.0602,-5.89164 -6.7471,-10.36458 4.39898,-8.50657 17.34517,-3.89991 14.86314,5.28895 -0.53528,1.98162 -0.14275,3.96708 1.47293,7.44927 3.26968,7.04759 3.01125,12.80239 -0.76827,17.10699 -3.59522,4.0946 -6.73673,5.819 -13.08261,7.1798 -10.41615,2.2338 -23.75658,-3.0285 -26.98739,-16.187 -1.0247,-4.1736 -1.30725,-8.22268 -1.74034,-12.66576 -0.63922,-6.55784 -1.42273,-8.21507 -2.85151,-11.91085 -0.77419,-2.00254 -4.28533,-6.27029 -6.92332,-6.52638 -4.10934,-0.39899 -6.15199,1.6377 -6.50221,5.9923 -0.0529,3.32814 0.18668,4.03662 1.38443,12.28391 2.94137,13.62448 7.9878,18.81478 17.13564,38.43528 10.64465,22.8308 9.73982,28.6766 6.26598,34.6362 -1.57278,2.6981 -3.78161,4.5849 -7.7353,6.6069 -4.73004,2.4192 -6.7964,2.8732 -14.22471,3.1276 -6.70949,0.2293 -9.78069,-0.1056 -13.47168,-1.4795 z"
       id="path4195"
       inkscape:connector-curvature="0"
       sodipodi:nodetypes="cssssssssscczsssssssssscssssccsssssssssssssssssssssssssssssssssssssssscccccsscscscssscssscccccsssscssssssssssscccsssssscccsssssssssssssssccsssssssssssssccssssssssssssssssssssssssssssscssscccccssssssscccccsccscsssssssssccssccsssssssssssssssssscsssssssssssccsssssc" />
  </g>
  <g
     style="display:inline"
     transform="translate(0,-697.55908)"
     id="g4691"
     inkscape:groupmode="layer"
     inkscape:label="Outline_Base copy">
    <path
       style="fill:none;stroke-width:1.09644437"
       inkscape:connector-curvature="0"
       id="path4675"
       d="m 173.7823,760.8419 c 9.75714,12.95616 14.43497,29.67444 11.08668,46.39005" />
    <path
       style="fill:none;stroke-width:1.09644437"
       inkscape:connector-curvature="0"
       id="path4677"
       d="m 129.47365,736.81332 c 13.67769,0.71457 26.19326,6.335 35.91286,14.94215" />
    <path
       stroke-miterlimit="10"
       d="M 136.8239,870.78025"
       id="path4679"
       inkscape:connector-curvature="0"
       style="fill:none;stroke:#010202;stroke-width:0.03724333;stroke-miterlimit:10" />
    <path
       stroke-miterlimit="10"
       d="M 149.73131,870.4493"
       id="path4681"
       inkscape:connector-curvature="0"
       style="fill:none;stroke:#010202;stroke-width:0.03724333;stroke-miterlimit:10" />
    <path
       stroke-miterlimit="10"
       d="M 136.8239,870.42084"
       id="path4683"
       inkscape:connector-curvature="0"
       style="fill:none;stroke:#010202;stroke-width:0.03724333;stroke-miterlimit:10" />
    <path
       stroke-miterlimit="10"
       d="M 149.52419,875.50745"
       id="path4685"
       inkscape:connector-curvature="0"
       style="fill:none;stroke:#010202;stroke-width:0.03724333;stroke-miterlimit:10" />
    <path
       stroke-miterlimit="10"
       d="M 136.61649,875.47896"
       id="path4687"
       inkscape:connector-curvature="0"
       style="fill:none;stroke:#010202;stroke-width:0.03724333;stroke-miterlimit:10" />
    <path
       sodipodi:nodetypes="cssssssssscczsssssssssscssssccsssssssssssssssssssssssssssssssssssssssscccccsscscscssscssscccccsssscssssssssssscccsssssscccsssssssssssssssccsssssssssssssccssssssssssssssssssssssssssssscssscccccssssssscccccsccscsssssssssccssccsssssssssssssssssscsssssssssssccsssssc"
       inkscape:connector-curvature="0"
       id="path4689"
       d="m 142.34135,1072.8939 c -2.62952,-0.977 -5.69925,-2.2681 -6.82165,-2.8686 -1.1224,-0.6007 -3.72033,-1.092 -5.7732,-1.092 -5.09711,0 -8.7362,-2.9264 -8.7362,-7.0248 0,-6.9951 9.29277,-10.3274 13.89117,-4.9814 1.23794,1.4393 2.25078,3.6021 2.25078,4.8064 0,1.902 0.70726,2.3318 5.38075,3.2702 6.75877,1.3577 15.51607,1.3902 19.00771,0.071 3.74056,-1.4135 7.69819,-5.4259 8.37047,-8.4867 0.79893,-3.6374 -2.00942,-10.3452 -10.73448,-25.9271 -7.116,-12.7082 -9.2368,-22.2078 -10.96324,-26.7384 -1.92002,-5.1364 -1.73153,-4.8815 -2.88638,-10.02914 -2.58868,-13.27573 -5.55473,-17.55486 -6.93252,-19.32789 -1.37779,-1.77306 -6.13418,-3.72734 -8.38628,1.00813 -1.56254,3.28555 -5.0126,12.99026 -5.72528,15.5876 -1.32837,4.84119 -2.49911,7.5727 -3.99591,11.4181 -2.55732,6.5696 -3.5116,12.4654 -5.04126,16.8147 -2.64264,7.5137 -3.48532,14.3151 -2.19141,17.6868 1.28885,3.3589 10.24457,5.5638 15.07246,3.7112 2.38587,-0.9155 3.34929,-4.4621 2.27193,-8.3639 -0.75342,-2.7289 -1.69837,-3.7332 -4.60651,-4.8968 -6.84273,-2.7382 -7.36682,-9.8956 -0.96689,-13.2052 2.4087,-1.2454 3.54646,-1.3268 6.22038,-0.4445 4.01149,1.3239 5.28151,3.5213 5.06858,8.7693 -0.0898,2.2152 0.26994,6.0821 0.79964,8.5928 1.75902,8.3378 -1.25554,14.6287 -8.09112,16.8847 -5.29286,1.7465 -18.20075,0.6914 -22.26506,-1.8205 -8.28809,-5.1222 -6.944085,-12.5814 0.18953,-37.2942 6.48331,-22.46006 6.28199,-24.99679 5.70043,-29.67546 -0.39861,-4.2257 -1.80076,-6.66982 -6.11392,-7.47249 -2.73232,-0.48878 -4.22036,0.44351 -5.46378,2.37925 -1.056189,1.64429 -0.77609,3.16266 -1.681642,14.9273 -1.80451,23.4437 -1.948683,30.9687 -6.170853,42.2845 -4.789051,12.8349 -13.654584,22.4329 -23.756424,25.7202 -2.611206,0.8496 -6.079927,2.3465 -7.708289,3.3269 -4.266398,2.568 -7.625686,2.2613 -10.880514,-0.9935 -4.273481,-4.2735 -3.284158,-8.6592 2.498305,-11.0752 2.837379,-1.1855 3.684009,-1.1615 7.093327,0.2029 3.627654,1.4513 4.110395,1.4411 7.667949,-0.1627 7.064307,-3.1855 11.975469,-10.6311 15.210869,-23.0601 1.510495,-5.8026 2.283685,-12.4837 2.783937,-32.91917 0.306683,-12.52812 1.472557,-15.38013 0.533265,-19.56801 -0.511614,-2.28076 -3.800836,-4.25014 -5.188038,-4.2073 0,0 -3.243423,-0.3507 -4.868672,3.18827 -2.060362,4.48609 -2.558748,9.71492 -4.718515,19.63761 -7.653237,35.161 -10.483741,40.4256 -22.978767,42.7375 -11.35465,2.1008 -24.547345,-7.1202 -24.547345,-17.1576 0,-1.3703 -0.85457,-3.5781 -1.899053,-4.9061 -2.48883,-3.164 -2.402343,-6.2149 0.264067,-9.3146 4.607361,-5.35647 13.978827,-2.1009 13.978827,4.8562 0,2.384 -0.766843,3.6809 -3.449537,5.8329 -3.179087,2.5503 -3.355889,2.9482 -2.255157,5.0775 3.383989,6.544 9.389665,9.3521 16.123789,7.5388 7.484394,-2.0154 11.658217,-9.1962 15.20969,-34.29523 2.242652,-15.84932 2.384157,-19.94162 3.222341,-34.35868 0.150843,-2.59459 -0.254083,-3.78737 -1.390973,-5.16543 -1.14927,-1.39306 -4.867387,-3.07702 -8.206525,-2.10794 -3.123181,0.90642 -6.508015,1.57686 -19.959488,6.23769 -15.368202,5.32497 -20.768589,9.34627 -24.386561,16.97044 -4.7523079,10.01481 4.074838,20.06142 12.088137,13.75804 2.121434,-1.66873 2.321533,-2.27481 1.515131,-4.58801 -2.123988,-6.09284 4.093774,-11.73601 10.478592,-9.51031 5.392763,1.87988 6.688574,8.70716 2.306786,12.15402 -1.376027,1.08223 -2.906443,1.96786 -3.400918,1.96786 -0.494476,0 -2.680106,1.43906 -4.856964,3.19775 -5.552155,4.48609 -7.521951,5.34801 -12.220795,5.34801 -12.4022461,0 -18.841765,-15.16909 -12.2943023,-28.96049 4.7277061,-9.9586 9.8228933,-13.60315 31.9515023,-22.85464 4.700163,-1.96504 10.682175,-4.9357 13.29337,-6.60143 11.279597,-7.19556 21.959043,-21.88585 35.687747,-49.09097 l 6.174167,-15.58024 -3.0933,-3.19148 -3.093308,-3.19148 -0.717397,0.44303 -3.171038,1.95981 -5.448651,-4.74275 c -2.996755,-2.60851 -6.612975,-5.97011 -8.036048,-7.47025 l -2.587392,-2.72749 5.671471,-8.04385 c 3.119319,-4.42417 5.652345,-8.47118 5.628969,-8.99341 -0.02337,-0.52224 -1.435069,-4.36783 -3.137094,-8.54574 l -3.094593,-7.59621 -8.017947,-1.66056 c -4.409877,-0.91333 -8.979353,-1.88284 -10.154393,-2.15452 -2.061226,-0.4766 -2.136434,-0.87373 -2.136434,-11.2833 V 794.7439 l 9.257874,-1.65051 c 10.949305,-1.95203 12.085803,-2.45634 13.324553,-5.9125 0.518695,-1.4472 1.795375,-4.76768 2.837062,-7.37889 l 1.893976,-4.74762 -6.09145,-8.49481 -6.091463,-8.4948 7.771413,-7.812 7.771423,-7.81199 8.36503,5.62463 c 4.600774,3.09354 9.017858,5.62463 9.815761,5.62463 0.7979,0 4.26544,-1.12681 7.70562,-2.50399 7.08542,-2.8365 7.45149,-2.61032 9.41,-15.2996 l 3.24412,-21.01896 c 0.22146,0.0199 -1.0184,-0.36183 -2.24759,-0.59374 -1.22917,-0.23193 -2.41136,-0.32606 -2.19571,-0.28793 0.21567,0.0381 -1.03584,-0.1527 -3.35466,-0.0489 -2.31882,0.10374 -5.70373,0.53697 -5.48826,0.5079 0.22878,-0.0307 -1.09044,0.23322 -2.5561,0.88228 -1.46566,0.64903 -2.82832,1.87663 -2.67157,1.72642 0.3214,-0.30799 -0.40118,0.45401 -1.14886,1.26728 -0.747695,0.8133 -1.356496,2.02103 -1.450978,2.21703 -0.160672,0.33323 -0.643868,1.36909 -1.418527,2.0922 -0.774667,0.72311 -1.252089,0.87303 -1.459073,0.94277 -0.296707,0.0998 -1.108872,0.26069 -2.212277,0.21722 -1.103415,-0.0435 -1.394314,-0.0258 -1.621757,-0.0215 -0.06508,0.001 -0.131376,0.003 -0.19056,0.006 -0.113962,0.003 -0.227935,0.004 -0.332651,0.009 -0.06614,0.001 -0.137236,0.001 -0.212944,0.003 -0.07579,6.1e-4 -0.156049,8.2e-4 -0.240521,4.4e-4 -0.08441,-3.8e-4 -0.173087,-10e-4 -0.265399,-0.003 -0.09231,-10e-4 -0.188348,-0.003 -0.287641,-0.006 -0.09929,-0.003 -0.19396,-0.005 -0.284066,-0.006 -0.0901,-9.7e-4 -0.175608,-8.7e-4 -0.256578,9e-5 -0.08093,9.4e-4 -0.157384,0.002 -0.229278,0.005 -0.129874,0.003 -0.255339,0.0122 -0.377427,0.0187 -0.13162,0.009 -0.24397,0.0137 -0.366138,0.0219 -0.03597,0.001 -0.0043,-0.0938 0.04934,-0.23603 0.05011,-0.13251 0.1573,-0.35366 0.228905,-0.63427 0.07158,-0.28058 0.198446,-0.56008 0.317959,-0.94869 0.119501,-0.38864 0.304405,-0.89243 0.467899,-1.36728 0.163495,-0.4748 0.335875,-0.94484 0.539411,-1.48403 0.203541,-0.53918 0.359489,-1.1414 0.599136,-1.72307 0.239659,-0.58165 0.381315,-1.18521 0.653154,-1.78751 0.271839,-0.60231 0.516397,-1.21559 0.816507,-1.81674 0.600182,-1.20227 1.014072,-2.44735 1.711514,-3.5343 0.697442,-1.08699 1.368344,-2.11274 2.006332,-2.95665 0.637998,-0.84395 1.662548,-1.63134 2.084397,-2.10452 0.421852,-0.47317 2.418031,-2.18849 2.780881,-2.40448 0.89973,-0.5355 2.6963,-2.25874 7.1979,-3.48887 1.39768,-0.38192 2.8428,-0.56185 4.2885,-0.74871 1.44572,-0.18687 2.12013,-0.16727 3.37079,-0.26038 1.28995,-0.0961 2.58752,-0.13955 3.37556,-0.15133 0.72103,-0.009 1.50388,0.006 2.06634,0.053 0.47321,0.0499 0.76783,0.0367 1.1047,0.0882 0.33444,0.0514 1.01154,0.13878 1.40969,0.23483 0.39814,0.0961 0.6825,0.26515 1.10393,0.36575 1.68573,0.40245 3.06331,1.00986 3.26055,1.10846 0.19725,0.0984 0.15255,0.1599 2.62801,1.28619 2.47545,1.12623 3.23348,1.45788 3.43247,1.55173 0.0498,0.0234 2.0465,0.87205 2.3278,0.95102 0.2813,0.079 1.46847,0.73473 1.91519,0.85321 0.44672,0.11844 2.47301,0.90277 3.019,1.04494 0.54601,0.14214 1.10798,0.3435 1.68714,0.49338 0.57915,0.14994 1.07267,0.26533 1.61882,0.40707 0.54615,0.14153 0.99074,0.24106 1.43777,0.35865 0.44702,0.11767 0.79368,0.15072 1.07543,0.22833 0.28175,0.0777 0.54999,0.0754 0.89587,0.14016 0.50589,0.0836 0.82591,0.0839 1.18837,0.14675 0.35951,0.0353 0.79762,0.0794 1.23916,0.10511 0.44221,0.0255 0.80778,0.0607 1.27617,0.0491 0.46838,-0.0107 1.11673,-0.0575 1.55912,-0.0674 0.4424,-0.009 0.8893,-0.0566 1.24863,-0.11613 0.3899,-0.0646 0.54167,-0.0845 0.77296,-0.11874 0.25093,-0.0374 0.34609,-0.0763 0.92012,-0.24606 0.4903,-0.14489 0.73752,-0.1669 1.22178,-0.37796 0.44599,-0.19434 0.45829,-0.14903 1.24507,-0.54009 0.78679,-0.39115 1.85186,-1.16826 2.67303,-1.88386 0.74058,-0.64542 1.33673,-1.49804 1.98892,-2.45684 0.68087,-1.00094 1.53021,-2.61968 2.50119,-3.11436 0.971,-0.49472 1.90951,-0.47821 2.78698,-0.54165 0.73884,-0.0534 2.24571,0.0172 2.76336,0.12868 0.53548,0.11689 0.84497,0.33479 1.21917,0.72276 0.33983,0.35234 0.31254,1.45344 0.0658,2.22994 -0.24193,0.76095 -0.61499,2.14801 -1.24839,3.33917 -0.64917,1.22083 -1.73852,3.844 -2.62807,5.27411 -0.91541,1.47178 -1.57874,2.60871 -2.86047,4.10203 -1.20476,1.40373 -1.78764,2.08357 -3.08267,3.20996 -1.30714,1.13691 -2.31067,1.72102 -3.33115,2.31688 -1.19254,0.69634 -1.58273,0.82561 -2.1921,1.12105 -0.7162,0.3472 -2.04731,0.78885 -2.63358,1.03735 -0.52152,0.22105 -0.62325,0.19917 -0.93104,0.26524 -0.37903,0.0813 -0.90095,0.2542 -1.56525,0.39863 -0.68584,0.14888 -1.93236,0.38094 -2.78506,0.4776 -0.88469,0.10044 -1.64134,0.17748 -2.59307,0.2276 -0.95174,0.0502 -1.97794,0.0298 -2.8606,0.009 -0.88973,-0.0195 -1.7205,-0.0137 -2.38412,-0.0601 -0.69943,-0.0478 -1.33884,-0.1582 -1.68799,-0.22224 -0.38005,-0.0698 -0.51572,-0.0572 -0.46105,-0.048 0.016,1.32576 4.27605,23.79823 4.60682,24.12903 0.84051,0.8405 13.21811,5.82915 14.46306,5.82915 0.68792,0 4.84156,-1.58404 9.58935,-4.77641 l 8.63231,-5.80436 7.61964,7.61966 7.61963,7.61965 -5.89547,9.19246 -5.89545,9.19246 3.0093,7.27062 c 1.65513,3.99884 3.15255,7.42723 3.32761,7.61863 0.17512,0.19141 4.65858,1.1276 9.96337,2.0804 5.30484,0.95281 9.84014,1.92742 10.07853,2.16579 0.23836,0.23838 0.68308,5.16644 0.98824,10.95129 0.45013,8.53206 0.30419,10.59764 -0.773,10.94039 -0.73031,0.23238 -5.38709,1.12354 -10.34836,1.98038 l -9.02049,1.5579 -3.53325,8.09121 -3.53323,8.09123 5.77687,8.59143 5.77685,8.59143 -6.94431,8.33227 c -1.60861,1.93011 -6.79586,7.18678 -7.80104,8.23225 -0.56568,-0.28166 -0.9441,-0.60639 -1.69554,-1.07798 -0.68835,0.2224 -1.71817,1.52822 -3.23965,3.34046 l -3.14029,3.74042 6.7379,10.68246 c 20.08192,31.83848 39.06543,49.95896 50.32274,56.59245 16.55003,9.75238 33.18506,10.3033 46.43054,1.5378 2.98567,-1.97582 3.62307,-2.95083 3.62307,-5.54198 0,-7.04836 9.26978,-10.40936 13.89119,-5.03665 2.51991,2.92959 2.72497,4.22924 1.19653,7.58378 -1.12305,2.46485 -4.47114,4.42229 -7.56412,4.42229 -1.03527,0 -4.00527,1.67809 -6.60002,3.72914 -8.26325,6.53166 -20.8681,9.30604 -25.43151,9.24439 -3.4096,-0.046 -14.59334,0.0576 -21.46587,-1.85321 -3.44604,-1.46139 -4.70854,-2.36668 -6.20156,-2.94667 -2.62596,-0.79156 -3.91165,-0.33495 -4.69383,0.18934 -0.77948,0.52248 -1.27803,1.20802 -1.41067,2.38689 -0.23407,2.08027 2.19907,3.5894 3.6426,4.69724 5.16592,2.22594 8.80419,2.60447 11.90862,3.47019 18.95933,3.73282 23.83674,4.8628 29.6284,8.53655 8.09454,5.13471 10.34137,13.38562 6.09865,22.3962 -2.92414,6.21049 -6.2487,9.63769 -11.67776,12.03929 -9.23514,4.0854 -19.44539,0.097 -23.7353,-9.275 -1.47308,-3.2178 -3.34269,-5.67346 -4.95332,-6.50629 -5.24111,-2.71042 -5.70054,-8.94618 -0.90647,-12.30413 3.37678,-2.36507 7.21009,-1.90084 10.36648,1.25545 3.24264,3.24273 3.48647,5.55991 0.9274,8.81321 -1.83838,2.33722 -1.83711,2.36537 0.23739,5.3483 6.22628,8.95346 21.55081,2.95246 21.55081,-8.43894 0,-3.87452 -4.91059,-8.90885 -10.0274,-10.27982 -2.05741,-0.55145 -4.45275,-1.51156 -11.34161,-3.21774 -12.37,-3.06372 -14.51727,-2.58947 -19.22055,-3.71345 -2.99646,-0.7161 -11.47394,-2.23343 -16.22475,-3.02272 -3.83859,-0.63773 -11.78274,-0.0674 -14.60351,0.86383 -2.95731,0.97632 -6.01247,3.15444 -7.36798,6.21434 -0.96927,2.18805 -2.49679,4.70026 -3.05689,6.27658 -1.01292,2.8507 -1.7473,10.13486 -0.32659,15.05597 3.12594,10.82921 7.87164,15.59881 15.52764,15.60531 4.63729,0 7.49842,-1.195 9.8865,-4.1431 3.16901,-3.9123 1.40281,-12.94473 -2.53125,-12.94473 -5.225,0 -9.0602,-5.89164 -6.7471,-10.36458 4.39898,-8.50657 17.34517,-3.89991 14.86314,5.28895 -0.53528,1.98162 -0.14275,3.96708 1.47293,7.44927 3.26968,7.04759 3.01125,12.80239 -0.76827,17.10699 -3.59522,4.0946 -6.73673,5.819 -13.08261,7.1798 -10.41615,2.2338 -23.75658,-3.0285 -26.98739,-16.187 -1.0247,-4.1736 -1.30725,-8.22268 -1.74034,-12.66576 -0.63922,-6.55784 -1.42273,-8.21507 -2.85151,-11.91085 -0.77419,-2.00254 -4.28533,-6.27029 -6.92332,-6.52638 -4.10934,-0.39899 -6.15199,1.6377 -6.50221,5.9923 -0.0529,3.32814 0.18668,4.03662 1.38443,12.28391 2.94137,13.62448 7.9878,18.81478 17.13564,38.43528 10.64465,22.8308 9.73982,28.6766 6.26598,34.6362 -1.57278,2.6981 -3.78161,4.5849 -7.7353,6.6069 -4.73004,2.4192 -6.7964,2.8732 -14.22471,3.1276 -6.70949,0.2293 -9.78069,-0.1056 -13.47168,-1.4795 z"
       style="fill:none;fill-opacity:1;stroke:#000000;stroke-width:1.52609193;stroke-linejoin:round;stroke-miterlimit:10;stroke-dasharray:none;stroke-dashoffset:0;stroke-opacity:1" />
  </g>
  <g
     inkscape:groupmode="layer"
     id="layer2"
     inkscape:label="Serigrafia_Base"
     transform="translate(0,7.5590512)"
     style="display:none">
    <path
       style="fill:#ffffff;stroke-width:1.09644437"
       inkscape:connector-curvature="0"
       id="path16"
       d="m 128.7258,195.5033 c -2.65069,-0.62533 -4.52305,-3.36878 -4.0364,-5.913 0.23784,-1.24733 0.94561,-0.8133 0.94561,0.57968 0,3.49321 3.63308,5.50455 6.89633,3.81652 1.25705,-0.64966 2.56736,-2.59716 2.56736,-3.81652 0,-0.6819 0.77042,-1.3556 1.13325,-0.99303 0.11954,0.11949 -0.0241,1.0192 -0.31752,1.99979 -0.53865,1.79694 -2.91407,3.98044 -3.9695,4.25629 -0.51461,0.13512 -0.63172,0.20166 -1.22085,0.23665 -0.32759,0.0191 -1.21418,0.0191 -1.99889,-0.16659 h 4.7e-4 z" />
    <g
       id="g4853"
       transform="matrix(1.0964445,0,0,1.0964445,-12.666166,-783.26561)">
      <g
         id="g4849">
        <path
           style="fill:#ffffff;stroke:#010202;stroke-width:0.05664472;stroke-miterlimit:10"
           inkscape:connector-curvature="0"
           id="path18"
           d="m 143.42581,868.3535 v -6.20595 l -1.65218,-0.43607 c -6.35326,-1.67466 -10.64183,-8.23596 -9.60353,-14.69351 1.43137,-8.89699 10.88899,-13.71401 18.92882,-9.63987 2.316,1.17368 4.95849,3.97679 6.02759,6.39265 0.96063,2.17119 1.32069,6.28334 0.73843,8.43346 -1.10599,4.08275 -4.76209,8.02069 -8.53332,9.19048 l -1.82306,0.56672 -0.10791,6.35298 -0.0155,6.29888 2.05413,-0.19723 c 1.17977,-0.13842 3.50853,-0.74925 5.17487,-1.35703 8.98353,-3.27913 15.69713,-10.60937 18.20952,-19.8828 0.93095,-3.43807 0.93289,-10.54973 0.004,-13.99585 -2.22058,-8.22902 -7.99102,-15.20919 -15.59811,-18.86835 -3.90133,-1.87632 -7.42622,-2.63417 -12.24713,-2.63279 -5.04865,10e-4 -7.94746,0.70182 -12.82967,3.09799 -3.12378,1.53401 -4.23559,2.35788 -7.20764,5.34574 -5.84505,5.87363 -8.34996,11.89012 -8.33747,20.02039 0.0139,8.44594 3.04389,15.32791 9.2981,21.11832 4.30079,3.98205 11.42215,7.20764 16.06358,7.27533 l 1.45801,0.0222 v -6.20567 h -0.002 z"
           stroke-miterlimit="10" />
        <path
           style="fill:#ffffff;stroke:#010202;stroke-width:0.05664472;stroke-miterlimit:10"
           inkscape:connector-curvature="0"
           id="path20"
           d="m 106.10271,861.73395 v -6.21483 l -1.45246,-0.60723 c -3.28772,-1.37312 -4.929918,-4.10743 -4.694409,-7.81292 0.128159,-2.01474 0.365609,-2.7074 1.341779,-3.91964 0.65216,-0.80972 1.86911,-1.87299 2.70408,-2.36343 3.25526,-1.90878 8.61182,-0.37865 10.23266,2.92295 0.81333,1.6569 1.19781,1.59781 1.20557,-0.18503 0.0197,-4.16569 2.63251,-11.15418 5.62647,-15.04719 l 1.48075,-1.92653 -1.67604,-1.44441 c -2.03915,-1.75538 -5.0037,-3.24695 -8.01569,-4.03115 -6.257,-1.62999 -12.70429,0.33482 -17.849749,5.4395 -7.601267,7.54079 -9.358307,19.48501 -4.366527,29.68022 0.861321,1.75843 2.203931,3.5274 4.186219,5.51579 3.66027,3.67137 5.497477,4.6872 11.180537,6.18321 0.0535,0.0144 0.0968,-2.77066 0.0968,-6.18931 v 0 z"
           stroke-miterlimit="10" />
      </g>
      <path
         stroke-miterlimit="10"
         d="m 115.10484,866.79619 c 1.04995,-0.3989 2.77675,-1.28269 3.83808,-1.9637 l 1.93041,-1.23886 -0.72595,-1.02999 c -1.80836,-2.56426 -3.91797,-7.93996 -4.5227,-11.52478 l -0.26186,-1.55288 -0.73927,1.51931 c -1.00335,2.06329 -1.71792,2.78536 -3.71214,3.75043 l -1.69796,0.82165 v 6.23647 6.23619 l 1.99145,-0.26436 c 1.09544,-0.14536 2.85026,-0.59058 3.89994,-0.98948 z"
         id="path22"
         inkscape:connector-curvature="0"
         style="fill:#ffffff;stroke:#010202;stroke-width:0.05664472;stroke-miterlimit:10" />
    </g>
    <g
       id="Cabeza_color"
       transform="matrix(0.30415178,0,0,0.30415178,-63.954972,-121.80291)"
       style="fill:#ffffff">
      <g
         id="g4845"
         style="fill:#ffffff">
        <path
           stroke-miterlimit="10"
           d="m 150.41097,774.1216 4.73575,-1.77757 -0.008,-0.0158 c -0.48572,-0.99253 -0.75063,-2.09158 -0.75063,-3.27108 0,-0.80668 0.0871,-1.45496 0.32317,-2.18313 l 0.0405,-0.12898 -5.38652,-1.69213 -0.10984,-0.0347 c -0.64717,0.59835 -1.50628,0.9709 -2.45165,0.99253 l -0.008,0.0646 -0.46436,3.97068 h 2.7e-4 c 1.92792,0.62608 3.45222,2.14817 4.07886,4.07553"
           id="path28"
           inkscape:connector-curvature="0"
           style="fill:#ffffff;stroke:#010202;stroke-width:0.0567002;stroke-miterlimit:10"
           transform="matrix(3.6049257,0,0,3.6049257,168.63162,-2175.2578)" />
        <path
           d="m 564.429,551.362 c -0.133,-0.173 -0.201,-0.262 -0.201,-0.262 45.172,2.359 86.506,20.922 118.605,49.348 v 10e-4 c 1.991,-0.565 4.091,-0.868 6.262,-0.868 0.821,0 1.629,0.043 2.426,0.127 l 1.834,-14.225 -0.249,-0.084 c -5.394,-1.766 -9.044,-6.756 -9.044,-12.74 0,-7.45 6.04,-13.49 13.491,-13.49 7.45,0 13.49,6.041 13.49,13.49 0,2.023 -0.445,3.944 -1.245,5.667 l 0.569,0.169 18.023,5.407 0.234,0.069 c 4.617,-8.249 13.44,-13.825 23.564,-13.825 14.902,0 26.982,12.078 26.982,26.979 0,9.06 -4.463,17.075 -11.311,21.969 l 0.174,0.24 6.149,8.47 0.182,0.277 c 1.886,-0.69 3.922,-1.066 6.046,-1.066 9.71,0 17.579,7.869 17.579,17.579 0,6.579 -3.614,12.312 -8.963,15.327 14.787,53.922 14.924,116.265 -7.99,155.164 l 0.088,0.191 6.147,12.669 c 8.074,16.642 10.849,28.712 10.849,47.199 0,17.421 -2.595,29.666 -9.422,44.44 -2.695,5.838 -4.902,10.695 -4.902,10.796 0,0.102 2.292,1.421 5.097,2.931 l 5.095,2.744 22.885,-23.8 c 12.586,-13.087 22.905,-24.314 22.934,-24.944 0.026,-0.63 -8.256,-13.376 -18.409,-28.323 l -18.458,-27.178 8.122,-18.627 c 4.468,-10.246 9.838,-22.726 11.933,-27.738 l 3.809,-9.108 11.082,-2.396 c 6.095,-1.315 20.834,-4.027 32.755,-6.023 11.92,-1.996 21.917,-3.874 22.22,-4.174 0.298,-0.298 0.083,-15.948 -0.479,-34.776 l -1.024,-34.23 -21.896,-3.843 c -12.043,-2.114 -26.989,-4.772 -33.216,-5.909 l -11.32,-2.067 -4.291,-10.052 c -2.36,-5.53 -7.537,-17.171 -11.504,-25.872 -3.967,-8.701 -6.78,-16.584 -6.248,-17.52 0.534,-0.935 9.069,-14.111 18.972,-29.28 9.901,-15.168 18.003,-28.104 18.003,-28.747 0,-0.642 -10.651,-11.804 -23.67,-24.806 l -23.669,-23.639 -29.29,19.772 -29.289,19.771 -25.794,-10.519 c -14.189,-5.787 -25.994,-10.717 -26.235,-10.958 -0.241,-0.242 -3.263,-14.574 -6.715,-31.849 -3.454,-17.275 -6.617,-32.841 -7.034,-34.589 l -0.757,-3.178 -33.196,0.375 -33.196,0.375 -6.881,34.535 -6.881,34.532 -23.021,9.829"
           id="path38"
           inkscape:connector-curvature="0"
           style="fill:#ffffff" />
      </g>
      <path
         style="fill:#ffffff"
         inkscape:connector-curvature="0"
         id="path40"
         d="m 747.175,783.665 c 11.058,-55.206 -4.392,-110.421 -36.616,-153.208 0.925,-2.486 1.431,-5.175 1.431,-7.982 0,-0.631 -0.026,-1.255 -0.077,-1.874 l 18.721,-7.24 v 10e-4 c 4.926,6.529 12.747,10.749 21.555,10.749 3.631,0 7.095,-0.717 10.258,-2.017 l 0.137,0.187 6.376,8.754 0.101,0.138 c -3.809,3.225 -6.229,8.042 -6.229,13.425 0,9.71 7.869,17.579 17.579,17.579 1.052,0 2.082,-0.092 3.083,-0.269 v -10e-4 c 15.688,45.465 15.415,108.285 -5.627,148.646 l -0.316,-0.316 -8.982,-9.187 c -6.979,-7.136 -13.894,-12.808 -21.394,-17.385 z" />
    </g>
  </g>
  <g
     style="display:inline"
     transform="translate(0,7.5590512)"
     inkscape:label="Serigrafia_Base copy"
     id="g4715"
     inkscape:groupmode="layer">
    <path
       d="m 128.7258,195.5033 c -2.65069,-0.62533 -4.52305,-3.36878 -4.0364,-5.913 0.23784,-1.24733 0.94561,-0.8133 0.94561,0.57968 0,3.49321 3.63308,5.50455 6.89633,3.81652 1.25705,-0.64966 2.56736,-2.59716 2.56736,-3.81652 0,-0.6819 0.77042,-1.3556 1.13325,-0.99303 0.11954,0.11949 -0.0241,1.0192 -0.31752,1.99979 -0.53865,1.79694 -2.91407,3.98044 -3.9695,4.25629 -0.51461,0.13512 -0.63172,0.20166 -1.22085,0.23665 -0.32759,0.0191 -1.21418,0.0191 -1.99889,-0.16659 h 4.7e-4 z"
       id="path4693"
       inkscape:connector-curvature="0"
       style="fill:#ffffff;stroke-width:1.09644437" />
    <path
       stroke-miterlimit="10"
       d="m 144.59227,168.83577 v -6.80447 l -1.81153,-0.47813 c -6.96599,-1.83617 -11.66817,-9.03027 -10.52973,-16.11062 1.56941,-9.75506 11.93917,-15.03665 20.75439,-10.56958 2.53938,1.28687 5.43672,4.36033 6.60893,7.00918 1.05328,2.38059 1.44806,6.88934 0.80965,9.24682 -1.21266,4.47651 -5.22137,8.79425 -9.35632,10.07686 l -1.99888,0.62138 -0.11832,6.96568 -0.017,6.90638 2.25224,-0.21625 c 1.29355,-0.15177 3.84691,-0.82151 5.67395,-1.48791 9.84995,-3.59538 17.21103,-11.63258 19.96573,-21.80039 1.02073,-3.76965 1.02286,-11.5672 0.004,-15.34568 -2.43475,-9.02266 -8.76171,-16.67603 -17.10247,-20.68809 -4.27759,-2.05728 -8.14243,-2.88822 -13.4283,-2.88671 -5.53556,10e-4 -8.71395,0.76951 -14.06701,3.39678 -3.42505,1.68195 -4.64409,2.58528 -7.90279,5.8613 -6.40877,6.44012 -9.15526,13.03686 -9.14157,21.95125 0.0152,9.26051 3.33746,16.8062 10.19485,23.15507 4.71558,4.3661 12.52376,7.90277 17.61283,7.97699 l 1.59863,0.0243 v -6.80417 h -0.002 z"
       id="path4695"
       inkscape:connector-curvature="0"
       style="fill:#ffffff;stroke:#010202;stroke-width:0.06210778;stroke-miterlimit:10" />
    <path
       stroke-miterlimit="10"
       d="m 103.66957,161.5778 v -6.8142 l -1.59255,-0.6658 c -3.604802,-1.50555 -5.40538,-4.50357 -5.147158,-8.56644 0.140519,-2.20905 0.40087,-2.96851 1.471186,-4.29766 0.715058,-0.88781 2.049372,-2.05363 2.964872,-2.59137 3.56921,-2.09287 9.44238,-0.41517 11.21954,3.20485 0.89178,1.8167 1.31334,1.75191 1.32185,-0.20287 0.0216,-4.56745 2.8864,-12.22995 6.16911,-16.49841 l 1.62355,-2.11234 -1.83767,-1.58371 c -2.23583,-1.92468 -5.48628,-3.5601 -8.78877,-4.41993 -6.86045,-1.78719 -13.929544,0.36711 -19.571254,5.9641 -8.334367,8.26806 -10.260864,21.36423 -4.787655,32.54272 0.944391,1.92802 2.416489,3.86759 4.589958,6.04775 4.013282,4.02545 6.027678,5.13926 12.258831,6.77956 0.0587,0.0157 0.10614,-3.03788 0.10614,-6.78625 v 0 z"
       id="path4697"
       inkscape:connector-curvature="0"
       style="fill:#ffffff;stroke:#010202;stroke-width:0.06210778;stroke-miterlimit:10" />
    <path
       stroke-miterlimit="10"
       d="m 113.5399,167.12827 c 1.15122,-0.43737 3.04455,-1.4064 4.20824,-2.15309 l 2.11659,-1.35834 -0.79597,-1.12932 c -1.98276,-2.81157 -4.29583,-8.70573 -4.95888,-12.63628 l -0.28712,-1.70266 -0.81057,1.66585 c -1.10012,2.26228 -1.8836,3.05399 -4.07015,4.11213 l -1.86173,0.9009 v 6.83794 6.83764 l 2.18352,-0.28985 c 1.20109,-0.15939 3.12515,-0.64754 4.27607,-1.08492 z"
       id="path4701"
       inkscape:connector-curvature="0"
       style="fill:#ffffff;stroke:#010202;stroke-width:0.06210778;stroke-miterlimit:10" />
    <path
       style="fill:#ffffff;stroke:#010202;stroke-width:0.06216862;stroke-miterlimit:10"
       inkscape:connector-curvature="0"
       id="path4705"
       d="m 152.25192,65.369985 5.19249,-1.949008 -0.009,-0.01732 c -0.53256,-1.088255 -0.82302,-2.293302 -0.82302,-3.586558 0,-0.88448 0.0955,-1.595283 0.35433,-2.393681 l 0.0444,-0.141419 -5.90602,-1.855327 -0.12044,-0.03805 c -0.70959,0.656058 -1.65155,1.064538 -2.68809,1.088254 l -0.009,0.07083 -0.50914,4.353631 h 2.9e-4 c 2.11386,0.686462 3.78517,2.35535 4.47224,4.468592"
       stroke-miterlimit="10" />
    <path
       style="fill:#ffffff;stroke-width:0.30415177"
       inkscape:connector-curvature="0"
       id="path4707"
       d="m 107.71711,45.89482 c -0.0405,-0.05262 -0.0612,-0.07969 -0.0612,-0.07969 13.73914,0.717494 26.31095,6.363464 36.07392,15.009282 v 3.04e-4 c 0.60556,-0.171845 1.24428,-0.264004 1.9046,-0.264004 0.24971,0 0.49546,0.01308 0.73787,0.03863 l 0.55781,-4.326559 -0.0757,-0.02555 c -1.64059,-0.537131 -2.75074,-2.054849 -2.75074,-3.874893 0,-2.26593 1.83707,-4.103008 4.10331,-4.103008 2.26594,0 4.10301,1.837381 4.10301,4.103008 0,0.6153 -0.13535,1.199575 -0.37867,1.723628 l 0.17306,0.0514 5.48173,1.644549 0.0712,0.02099 c 1.40426,-2.508948 4.08779,-4.204898 7.16702,-4.204898 4.53248,0 8.20663,3.673545 8.20663,8.20571 0,2.755616 -1.35743,5.193392 -3.44026,6.681911 l 0.0529,0.07299 1.87022,2.576166 0.0553,0.08425 c 0.57363,-0.209865 1.19288,-0.324226 1.83891,-0.324226 2.95331,0 5.34668,2.393371 5.34668,5.346685 0,2.001014 -1.0992,3.744716 -2.72612,4.661733 4.4975,16.400473 4.53917,35.362212 -2.43017,47.193412 l 0.0267,0.058 1.86962,3.8533 c 2.45572,5.0617 3.29975,8.73281 3.29975,14.35566 0,5.29863 -0.78928,9.02296 -2.86572,13.5165 -0.81969,1.77564 -1.49095,3.2529 -1.49095,3.28363 0,0.031 0.69711,0.4322 1.55025,0.89146 l 1.54966,0.8346 6.96051,-7.23882 c 3.82805,-3.98042 6.96659,-7.39514 6.97542,-7.58675 0.008,-0.19163 -2.51108,-4.06834 -5.59913,-8.61449 l -5.61404,-8.26624 2.47032,-5.66544 c 1.35896,-3.11634 2.99225,-6.91215 3.62945,-8.43656 l 1.15852,-2.77022 3.3706,-0.72875 c 1.85381,-0.39995 6.33671,-1.22481 9.9625,-1.8319 3.62548,-0.60709 6.66609,-1.17829 6.75825,-1.26953 0.0906,-0.0906 0.0252,-4.85061 -0.1457,-10.57718 l -0.31144,-10.41112 -6.65971,-1.168855 c -3.6629,-0.642976 -8.20876,-1.451412 -10.10271,-1.797233 l -3.443,-0.628681 -1.30511,-3.057334 c -0.7178,-1.68196 -2.29239,-5.22259 -3.49896,-7.869015 -1.20658,-2.646425 -2.06215,-5.044053 -1.90034,-5.328739 0.16241,-0.284382 2.75835,-4.291885 5.77037,-8.905564 3.0114,-4.613374 5.47564,-8.547881 5.47564,-8.743451 0,-0.195266 -3.23952,-3.590208 -7.19927,-7.54479 l -7.19897,-7.189843 -8.90861,6.013689 -8.90829,6.013385 -7.8453,-3.199373 c -4.3156,-1.760126 -7.90612,-3.259594 -7.97942,-3.332895 -0.0733,-0.07361 -0.99245,-4.432708 -2.04238,-9.68693 -1.05054,-5.254222 -2.01257,-9.988649 -2.1394,-10.520306 l -0.23025,-0.966594 -10.09662,0.114056 -10.09662,0.114058 -2.09287,10.503881 -2.09287,10.50297 -7.00187,2.989507" />
    <path
       style="fill:#ffffff;stroke-width:0.30415177"
       inkscape:connector-curvature="0"
       id="path4711"
       d="m 163.29964,116.55019 c 3.3633,-16.79101 -1.33584,-33.584743 -11.13683,-46.598485 0.28134,-0.756122 0.43524,-1.573986 0.43524,-2.42774 0,-0.19192 -0.008,-0.381711 -0.0234,-0.56998 l 5.69403,-2.202059 v 3.04e-4 c 1.49825,1.985807 3.87702,3.269328 6.55599,3.269328 1.10437,0 2.15795,-0.218077 3.11998,-0.613475 l 0.0417,0.05687 1.93928,2.662545 0.0307,0.04197 c -1.15851,0.980889 -1.89456,2.445988 -1.89456,4.083237 0,2.953314 2.39337,5.346683 5.34668,5.346683 0.31997,0 0.63325,-0.02798 0.9377,-0.08182 v -3.04e-4 c 4.77153,13.828261 4.6885,32.935076 -1.71146,45.210946 l -0.0961,-0.0961 -2.73188,-2.79424 c -2.12268,-2.17043 -4.22589,-3.89557 -6.50702,-5.28768 z" />
  </g>
  <g
     inkscape:groupmode="layer"
     id="layer3"
     inkscape:label="Componentes"
     transform="translate(0,128.50393)"
     style="display:none"
     sodipodi:insensitive="true">
    <rect
       id="rect49"
       width="20.787401"
       height="20.787401"
       x="53.950897"
       y="-30.583344"
       style="fill:#ff0000">
      <desc
         id="desc3798">WS2815B</desc>
      <title
         id="title3796">WS2812B</title>
    </rect>
    <rect
       id="rect49-3"
       width="75.590553"
       height="102.04724"
       x="90.106293"
       y="-70.204697"
       style="display:inline;fill:#800000;stroke-width:4.22507286">
      <desc
         id="desc3802">ESP32</desc>
      <title
         id="title3800">ESP32</title>
    </rect>
    <rect
       style="fill:#000080;stroke-width:3.21926022"
       y="34.719219"
       x="93.024345"
       height="62.362206"
       width="71.81102"
       id="rect3829">
      <desc
         id="desc3825">LORA</desc>
      <title
         id="title3827">LORA</title>
    </rect>
    <rect
       style="fill:#6c5353;stroke-width:0.82466376"
       id="rect3831"
       width="109.6063"
       height="52.913387"
       x="75.306877"
       y="84.312546">
      <desc
         id="desc3835">LCD</desc>
      <title
         id="title3833">LCD</title>
    </rect>
  </g>
  <g
     inkscape:groupmode="layer"
     id="layer4"
     inkscape:label="Labels"
     sodipodi:insensitive="true"
     style="display:none"
     transform="translate(0,0.37794699)">
    <text
       xml:space="preserve"
       style="font-style:normal;font-weight:normal;font-size:40px;line-height:1.25;font-family:sans-serif;letter-spacing:0px;word-spacing:0px;fill:#000000;fill-opacity:1;stroke:none"
       x="45.674259"
       y="110.59909"
       id="text4647"><tspan
         sodipodi:role="line"
         id="tspan4645"
         x="45.674259"
         y="110.59909"
         style="font-size:8px;fill:#ffffff">WS2812B</tspan></text>
    <text
       id="text4651"
       y="190.95265"
       x="116.36359"
       style="font-style:normal;font-weight:normal;font-size:40px;line-height:1.25;font-family:sans-serif;letter-spacing:0px;word-spacing:0px;fill:#ffffff;fill-opacity:1;stroke:none"
       xml:space="preserve"><tspan
         style="font-size:8px;fill:#ffffff"
         y="190.95265"
         x="116.36359"
         id="tspan4649"
         sodipodi:role="line">LORA</tspan></text>
    <text
       xml:space="preserve"
       style="font-style:normal;font-weight:normal;font-size:40px;line-height:1.25;font-family:sans-serif;letter-spacing:0px;word-spacing:0px;fill:#ffffff;fill-opacity:1;stroke:none"
       x="116.54037"
       y="111.04958"
       id="text4655"><tspan
         sodipodi:role="line"
         id="tspan4653"
         x="116.54037"
         y="111.04958"
         style="font-size:8px;fill:#ffffff">ESP32</tspan></text>
    <text
       id="text4651-3"
       y="243.3082"
       x="121.10492"
       style="font-style:normal;font-weight:normal;font-size:40px;line-height:1.25;font-family:sans-serif;letter-spacing:0px;word-spacing:0px;fill:#ffffff;fill-opacity:1;stroke:none"
       xml:space="preserve"><tspan
         style="font-size:8px;fill:#ffffff"
         y="243.3082"
         x="121.10492"
         id="tspan4649-5"
         sodipodi:role="line">LCD</tspan></text>
  </g>
</svg>
