<?xml version="1.0" encoding="UTF-8" standalone="no"?>
<!-- Created with Inkscape (http://www.inkscape.org/) -->

<svg
   xmlns:dc="http://purl.org/dc/elements/1.1/"
   xmlns:cc="http://creativecommons.org/ns#"
   xmlns:rdf="http://www.w3.org/1999/02/22-rdf-syntax-ns#"
   xmlns:svg="http://www.w3.org/2000/svg"
   xmlns="http://www.w3.org/2000/svg"
   xmlns:sodipodi="http://sodipodi.sourceforge.net/DTD/sodipodi-0.dtd"
   xmlns:inkscape="http://www.inkscape.org/namespaces/inkscape"
   width="99.5mm"
   height="99.5mm"
   id="svg3274"
   version="1.1"
   inkscape:version="0.92.4 (unknown)"
   sodipodi:docname="Base_2019_01.svg"
   inkscape:export-filename="/home/salvari/work/graphicsResources/BL/oshwi.png"
   inkscape:export-xdpi="90"
   inkscape:export-ydpi="90">
  <defs
     id="defs3276" />
  <sodipodi:namedview
     id="base"
     pagecolor="#81b0cd"
     bordercolor="#666666"
     borderopacity="1.0"
     inkscape:pageopacity="1"
     inkscape:pageshadow="2"
     inkscape:zoom="2"
     inkscape:cx="172.52648"
     inkscape:cy="172.11301"
     inkscape:document-units="px"
     inkscape:current-layer="layer1"
     showgrid="false"
     inkscape:window-width="1199"
     inkscape:window-height="1104"
     inkscape:window-x="714"
     inkscape:window-y="16"
     inkscape:window-maximized="0"
     units="mm"
     inkscape:snap-global="false" />
  <metadata
     id="metadata3279">
    <rdf:RDF>
      <cc:Work
         rdf:about="">
        <dc:format>image/svg+xml</dc:format>
        <dc:type
           rdf:resource="http://purl.org/dc/dcmitype/StillImage" />
        <dc:title></dc:title>
      </cc:Work>
    </rdf:RDF>
  </metadata>
  <g
     inkscape:label="Layer 1"
     inkscape:groupmode="layer"
     id="layer1"
     transform="translate(0,-699.44884)"
     style="display:inline">
    <path
       d="m 176.11879,774.5795 c 8.8989,11.8165 13.16525,27.06425 10.1115,42.30951"
       id="path33"
       inkscape:connector-curvature="0"
       style="fill:none" />
    <path
       d="m 135.70758,752.66448 c 12.47458,0.65173 23.88927,5.77777 32.75392,13.62781"
       id="path35"
       inkscape:connector-curvature="0"
       style="fill:none" />
    <path
       style="fill:none;stroke:#010202;stroke-width:0.03396736;stroke-miterlimit:10"
       inkscape:connector-curvature="0"
       id="path42"
       d="M 142.4113,874.84754"
       stroke-miterlimit="10" />
    <path
       style="fill:none;stroke:#010202;stroke-width:0.03396736;stroke-miterlimit:10"
       inkscape:connector-curvature="0"
       id="path44"
       d="M 154.18334,874.5457"
       stroke-miterlimit="10" />
    <path
       style="fill:none;stroke:#010202;stroke-width:0.03396736;stroke-miterlimit:10"
       inkscape:connector-curvature="0"
       id="path46"
       d="M 142.4113,874.51974"
       stroke-miterlimit="10" />
    <path
       style="fill:none;stroke:#010202;stroke-width:0.03396736;stroke-miterlimit:10"
       inkscape:connector-curvature="0"
       id="path48"
       d="M 153.99445,879.15891"
       stroke-miterlimit="10" />
    <path
       style="fill:none;stroke:#010202;stroke-width:0.03396736;stroke-miterlimit:10"
       inkscape:connector-curvature="0"
       id="path50"
       d="M 142.22213,879.13295"
       stroke-miterlimit="10" />
    <path
       style="fill:#808000;fill-opacity:1;stroke:#000000;stroke-width:0.42865035;stroke-linejoin:round;stroke-miterlimit:10;stroke-dasharray:none;stroke-dashoffset:0;stroke-opacity:1"
       d="m 147.44342,1059.183 c -2.39822,-0.8911 -5.19793,-2.0685 -6.2216,-2.6163 -1.02367,-0.5479 -3.39309,-0.9961 -5.26538,-0.9961 -4.64877,0 -7.96776,-2.6688 -7.96776,-6.4069 0,-6.3796 8.47536,-9.4188 12.66929,-4.5431 1.12904,1.3126 2.05279,3.2853 2.05279,4.3837 0,1.7347 0.64506,2.1267 4.90746,2.9827 6.16428,1.238 14.15124,1.2677 17.33577,0.065 3.41155,-1.289 7.02104,-4.9486 7.63416,-7.7401 0.72867,-3.3176 -2.4488,-9.1075 -9.79023,-23.6465 -8.584,-16.9997 -11.32548,-23.94494 -14.09278,-31.90208 0,0 -0.84323,-3.72396 -1.25555,-6.06075 -1.26505,-7.16959 -2.73376,-16.30767 -2.54477,-29.32051 0.18899,-13.01284 -1.3167,-13.43687 -2.5733,-15.05394 -1.2566,-1.61708 -5.5946,-3.39948 -7.6486,0.91946 -1.4251,2.99655 -1.56504,5.58043 -1.58911,10.23746 -0.0555,10.74968 0.897,29.01581 -3.69326,42.00122 -2.273,6.43011 -5.27419,14.93654 -6.6693,18.90324 -2.41018,6.8527 -3.17874,13.0558 -1.99864,16.1311 1.17548,3.0633 9.34344,5.0744 13.74665,3.3848 2.17603,-0.8351 3.05469,-4.0698 2.0721,-7.6285 -0.68715,-2.4886 -1.54897,-3.4047 -4.20131,-4.466 -6.24084,-2.4971 -6.71883,-9.0251 -0.88184,-12.0436 2.19682,-1.136 3.2345,-1.2101 5.67323,-0.4053 3.65862,1.2075 4.81694,3.2115 4.62273,7.9979 -0.082,2.0204 0.24621,5.5471 0.72931,7.837 1.6043,7.6044 -1.1451,13.3419 -7.37941,15.3994 -4.8273,1.5931 -16.5998,0.6306 -20.30661,-1.6604 -7.55905,-4.6717 -7.52256,-11.8525 0.17286,-34.0138 8.29848,-23.89798 8.90159,-28.07021 6.06801,-45.37503 -0.80481,-4.91501 -1.33191,-5.3647 -2.78319,-6.72118 -0.79971,-0.74748 -1.25079,-0.63791 -2.3047,-0.82644 -2.49198,-0.44577 -2.8467,0.73235 -4.11948,3.6506 -0.76969,1.76476 -3.04509,11.75081 -3.75466,31.17616 -0.78281,21.43039 -1.77727,28.24469 -5.62805,38.56489 -4.367804,11.7059 -12.453515,20.4599 -21.666785,23.4578 -2.38152,0.7749 -5.54513,2.1403 -7.03026,3.0343 -3.89112,2.3422 -6.95492,2.0625 -9.92345,-0.906 -3.89758,-3.8976 -2.99528,-7.8976 2.27855,-10.1011 2.5878,-1.0813 3.35996,-1.0592 6.46939,0.185 3.30856,1.3238 3.74884,1.3144 6.99347,-0.1487 6.44292,-2.9053 10.92209,-9.6959 13.8729,-21.0316 1.37763,-5.2923 1.80879,-11.3945 2.53906,-30.02358 0.682491,-17.41043 1.110371,-19.49481 0.2537,-23.31413 -0.46661,-2.08032 -3.46651,-3.87641 -4.73169,-3.83727 0,0 -2.95813,-0.31989 -4.44042,2.90764 -1.87913,4.09162 -2.10102,14.32801 -4.07081,23.37776 -6.98005,32.06838 -9.56158,36.86968 -20.95753,38.97828 -10.35588,1.9161 -22.38813,-6.4939 -22.38813,-15.6482 0,-1.25 -0.7794,-3.2636 -1.73201,-4.4747 -2.26991,-2.8857 -2.19103,-5.66813 0.24084,-8.4953 4.20209,-4.88521 12.74923,-1.91603 12.74923,4.42897 0,2.17453 -0.69939,3.35713 -3.14611,5.31993 -2.89945,2.326 -3.0607,2.6891 -2.05679,4.6306 3.08633,5.9686 8.56374,8.5297 14.70552,6.8759 6.82606,-1.8381 9.79046,-8.5223 13.87183,-31.27858 4.31379,-24.05223 3.91937,-19.06002 5.84711,-34.2446 0.29852,-2.35142 -0.56626,-3.24082 -1.26862,-4.71106 -0.65557,-1.37231 -4.59879,-3.23685 -7.48467,-1.92252 -8.83938,4.02574 -2.6202,1.90348 -21.11204,8.59725 -13.94821,5.04904 -18.94176,8.52402 -22.24149,15.47768 -4.33429,9.13383 3.71641,18.29663 11.02485,12.54781 1.93483,-1.52193 2.11733,-2.07457 1.38186,-4.18437 -1.93716,-5.55694 3.73368,-10.7038 9.55688,-8.67381 4.91841,1.71457 6.10024,7.94131 2.10388,11.08484 -1.25499,0.98717 -2.65079,1.79486 -3.10177,1.79486 -0.45098,0 -2.44436,1.31244 -4.42974,2.91654 -5.06378,4.09133 -6.86031,4.8775 -11.14584,4.8775 -11.31133,0 -17.18442,-13.8347 -11.21288,-26.41313 4.31185,-9.08249 8.95886,-12.40643 29.14101,-20.84423 4.28673,-1.79221 9.74256,-4.50155 12.12407,-6.02078 10.28743,-6.56261 20.0275,-19.96074 32.54861,-44.77285 l 7.868895,-15.59315 -2.82121,-2.91076 -2.821214,-2.91074 -2.892111,1.78742 -2.89211,1.78742 -4.96938,-4.32557 c -2.73316,-2.37906 -6.03129,-5.44498 -7.32919,-6.81316 l -2.3598,-2.4876 5.1726,-7.3363 c 2.84494,-4.03498 5.15516,-7.72602 5.13384,-8.20232 -0.0213,-0.47631 -1.30884,-3.98362 -2.86115,-7.79404 l -2.82239,-6.92804 -7.31268,-1.5145 c -4.02198,-0.83298 -8.18952,-1.71723 -9.2612,-1.96501 -1.87992,-0.43465 -1.94851,-0.79687 -1.94851,-10.2908 v -9.84029 l 8.44354,-1.50532 c 9.98619,-1.78035 11.02272,-2.24029 12.15251,-5.39246 0.47307,-1.31988 1.63745,-4.3483 2.58751,-6.72981 l 1.72738,-4.33002 -5.55564,-7.7476 -5.55565,-7.7476 7.08783,-7.12484 7.08784,-7.12484 7.629231,5.12989 c 4.196084,2.82143 8.224634,5.12988 8.952354,5.12988 0.72771,0 3.89024,-1.02769 7.02783,-2.28375 6.46217,-2.58698 6.79605,-2.38071 8.58228,-13.95383 l 2.95877,-19.17009 c 0.20197,0.0183 -0.92882,-0.33 -2.04989,-0.54152 -1.12106,-0.21153 -2.19926,-0.29738 -2.00257,-0.26261 0.19669,0.0348 -0.94474,-0.13928 -3.05959,-0.0446 -2.11485,0.0947 -5.20202,0.48975 -5.0055,0.46324 0.20866,-0.0281 -0.99452,0.21272 -2.33126,0.80468 -1.33675,0.59195 -2.57954,1.71154 -2.43658,1.57455 0.29313,-0.28091 -0.36589,0.41408 -1.04781,1.15582 -0.68192,0.74174 -1.23717,1.84326 -1.32334,2.022 -0.14653,0.30392 -0.58724,1.24866 -1.29376,1.90818 -0.70652,0.65952 -1.14195,0.79624 -1.33073,0.85983 -0.27061,0.0911 -1.01133,0.23777 -2.01768,0.19813 -1.00636,-0.0397 -1.27167,-0.0236 -1.47911,-0.0196 -0.0593,10e-4 -0.11982,0.004 -0.17379,0.006 -0.10394,0.004 -0.20789,0.005 -0.30339,0.008 -0.0603,10e-4 -0.12516,0.002 -0.19422,0.003 -0.0691,5.7e-4 -0.14232,7.6e-4 -0.21936,4.1e-4 -0.077,-3.5e-4 -0.15786,-10e-4 -0.24206,-0.003 -0.0842,-0.002 -0.17178,-0.004 -0.26234,-0.007 -0.0906,-0.003 -0.1769,-0.005 -0.259074,-0.006 -0.0822,-8.9e-4 -0.16017,-7.8e-4 -0.23401,8e-5 -0.0738,8.6e-4 -0.14354,0.002 -0.20911,0.005 -0.11845,0.003 -0.23288,0.0115 -0.34423,0.017 -0.12004,0.009 -0.22251,0.0133 -0.33393,0.02 -0.0328,9.3e-4 -0.004,-0.0856 0.045,-0.21529 0.0457,-0.12088 0.14346,-0.32254 0.20877,-0.57845 0.0653,-0.25591 0.18099,-0.51082 0.28999,-0.86527 0.109,-0.35444 0.27763,-0.81393 0.42674,-1.24699 0.14911,-0.43305 0.306334,-0.86176 0.491964,-1.3535 0.18564,-0.49174 0.32787,-1.041 0.54644,-1.5715 0.21858,-0.53051 0.34777,-1.08094 0.5957,-1.63029 0.24793,-0.54934 0.47097,-1.10865 0.74468,-1.65692 0.5474,-1.09653 0.92488,-2.23209 1.56097,-3.22344 0.6361,-0.99136 1.24799,-1.92689 1.82986,-2.69658 0.58187,-0.7697 1.5163,-1.48783 1.90105,-1.91939 0.38474,-0.43156 2.20534,-1.99601 2.53627,-2.19298 0.82059,-0.48841 2.45913,-2.06007 6.56478,-3.18199 1.27473,-0.34833 2.59273,-0.51243 3.91127,-0.68286 1.31855,-0.17043 1.93364,-0.1526 3.07428,-0.23748 1.17649,-0.0875 2.35992,-0.12728 3.07866,-0.13805 0.65759,-0.008 1.37158,0.007 1.88457,0.0484 0.43159,0.0454 0.70029,0.0333 1.00753,0.0806 0.30502,0.047 0.92257,0.12664 1.28569,0.21416 0.36312,0.0875 0.62247,0.24182 1.00683,0.33358 1.53745,0.36705 2.79386,0.92104 2.97375,1.01097 0.1799,0.0899 0.13913,0.14589 2.39684,1.17306 2.25771,1.02716 2.94908,1.32963 3.13054,1.41524 0.0454,0.0214 1.8665,0.79535 2.12305,0.86736 0.25656,0.072 1.33931,0.67009 1.74674,0.77816 0.40742,0.10807 2.25547,0.82338 2.75344,0.95301 0.49798,0.12964 1.01052,0.31329 1.53873,0.44998 0.52821,0.13669 0.97832,0.24202 1.47643,0.37126 0.49811,0.12923 0.9036,0.21986 1.3113,0.32713 0.40771,0.10727 0.72387,0.13744 0.98084,0.20824 0.25697,0.0708 0.50162,0.0689 0.81708,0.12784 0.4614,0.0762 0.75326,0.0765 1.08384,0.13374 0.32788,0.0322 0.72744,0.0725 1.13016,0.0957 0.4033,0.0233 0.73671,0.0553 1.16391,0.0447 0.4272,-0.0106 1.0185,-0.0525 1.42199,-0.0614 0.40348,-0.009 0.81106,-0.0518 1.1388,-0.10584 0.3556,-0.0587 0.49401,-0.077 0.70495,-0.10837 0.22885,-0.0341 0.31565,-0.0697 0.8392,-0.22441 0.44717,-0.13214 0.67264,-0.15229 1.11431,-0.34473 0.40676,-0.17723 0.41797,-0.13582 1.13555,-0.49257 0.71758,-0.35675 1.68898,-1.06549 2.4379,-1.71816 0.67545,-0.58863 1.21917,-1.36626 1.81399,-2.24074 0.62096,-0.9129 1.39559,-2.38923 2.28118,-2.84042 0.8856,-0.45119 1.74155,-0.43614 2.54182,-0.49398 0.67384,-0.0487 2.04818,0.0143 2.52028,0.11746 0.4884,0.10671 0.77066,0.30536 1.11193,0.65919 0.30994,0.32135 0.28506,1.32558 0.0599,2.0338 -0.22064,0.69402 -0.56086,1.95905 -1.13855,3.04546 -0.59207,1.11344 -1.58561,3.50586 -2.3969,4.81019 -0.83491,1.34232 -1.43989,2.37923 -2.60884,3.7412 -1.09881,1.28024 -1.6304,1.90029 -2.81154,2.92761 -1.19217,1.03691 -2.10741,1.56963 -3.03813,2.11308 -1.08766,0.63509 -1.44351,0.753 -1.9993,1.02244 -0.65318,0.31665 -1.86721,0.71945 -2.40193,0.9461 -0.47564,0.20161 -0.56841,0.18165 -0.84912,0.2419 -0.34569,0.0742 -0.82171,0.23185 -1.42757,0.36356 -0.62551,0.13599 -1.7624,0.34746 -2.54009,0.43561 -0.80687,0.0915 -1.49697,0.16182 -2.36498,0.20758 -0.86802,0.0458 -1.80397,0.0271 -2.60898,0.009 -0.81148,-0.0178 -1.56918,-0.0134 -2.17442,-0.0548 -0.6379,-0.0437 -1.22107,-0.14413 -1.53951,-0.2027 -0.34662,-0.0637 -0.47036,-0.0522 -0.42049,-0.044 0.0146,1.20914 3.89992,21.70492 4.2016,22.00661 0.76658,0.76658 12.05545,5.31643 13.19087,5.31643 0.6274,0 4.41571,-1.4447 8.74585,-4.35629 l 7.873,-5.29379 6.94941,6.94941 6.94941,6.94941 -5.3769,8.38389 -5.37689,8.38389 2.74461,6.63108 c 1.50954,3.64709 2.87525,6.77391 3.03491,6.94849 0.15967,0.17457 4.24881,1.02841 9.08699,1.89741 4.8382,0.869 8.97459,1.75787 9.19199,1.97528 0.2174,0.2174 0.62302,4.712 0.90134,9.98799 0.41051,7.78159 0.27741,9.66547 -0.70501,9.97807 -0.66609,0.21194 -4.91324,1.02473 -9.43812,1.8062 l -8.22704,1.42084 -3.22245,7.37952 -3.22244,7.37951 5.26873,7.83571 5.2687,7.83571 -6.90888,6.90889 c -5.88954,5.88954 -7.15249,6.77853 -8.55987,6.02533 -1.37889,-0.73797 -2.12296,-0.32138 -4.51504,2.52786 l -2.86406,3.41142 8.17959,11.45169 c 19.95456,27.93697 35.6292,45.56453 45.8963,51.61452 15.09427,8.89446 30.26606,9.39696 42.34646,1.40252 2.72304,-1.80202 3.30438,-2.69126 3.30438,-5.0545 0,-6.42836 8.45439,-9.49373 12.66929,-4.59361 2.29826,2.67189 2.48528,3.85722 1.09129,6.91671 -1.02427,2.24802 -4.07786,4.03326 -6.89877,4.03326 -0.9442,0 -3.65297,1.5305 -6.01947,3.40112 -7.53641,5.95718 -12.47241,7.36354 -25.95647,7.39548 -13.2371,0.0313 -19.29397,0.39786 -26.36754,-2.84105 0,0 -3.74104,-1.28264 -5.60146,-2.37901 -1.77918,-1.04849 -2.76899,-1.57594 -4.49647,-2.57041 -2.00427,-1.15381 -3.45801,-0.16266 -4.15757,0.23433 -0.75373,0.42773 -1.289,1.04 -1.40998,2.11523 -0.21347,1.89726 2.00564,3.27369 3.32219,4.28409 0.7287,0.55924 2.37511,1.78442 3.87264,2.68673 1.58786,0.95674 0.33347,1.15537 20.98215,4.92681 17.33682,3.16654 21.74003,4.4352 27.02224,7.7858 7.38254,4.68284 9.43171,12.20805 5.5622,20.42611 -2.66691,5.66399 -5.69906,8.79006 -10.65058,10.98029 -8.4228,3.7258 -17.73495,0.087 -21.6475,-8.45926 -1.34349,-2.93457 -3.04867,-5.17434 -4.51763,-5.93398 -4.7801,-2.47189 -5.19911,-8.15921 -0.82673,-11.22173 3.07975,-2.15714 6.57589,-1.73374 9.45463,1.145 2.95743,2.95743 3.17981,5.07075 0.84583,8.03793 -1.67667,2.13155 -1.67553,2.15729 0.2165,4.87802 5.67862,8.1658 19.65517,2.69263 19.65517,-7.6969 0,-3.53364 -4.47864,-8.12497 -9.14536,-9.37549 -1.87644,-0.50281 -8.73414,-1.10647 -15.10277,-2.26244 -15.39477,-2.79431 -23.88888,-5.56701 -27.28294,-7.21992 -5.42021,-2.63966 -6.95031,-4.42531 -8.37672,-5.72802 -2.62049,-2.39324 -8.72991,-3.75026 -11.36539,-3.12257 -3.22614,0.76836 -4.06708,2.50899 -3.80925,6.45706 0.16692,2.55597 0.021,6.01241 0.19318,7.66524 0.14543,1.39642 -1.34805,16.55566 -0.0524,21.04405 2.85097,9.87658 7.17925,14.22651 14.1618,14.23261 4.2294,0 6.83888,-1.0899 9.01686,-3.77873 2.8903,-3.56809 1.27943,-11.80617 -2.30857,-11.80617 -4.7654,0 -8.26326,-5.37316 -6.15363,-9.45274 4.01205,-7.75845 15.81948,-3.5569 13.55578,4.82367 -0.4882,1.80736 -0.13017,3.61807 1.34336,6.79408 2.98208,6.42752 2.74636,11.67619 -0.7007,15.60219 -3.27896,3.7345 -6.14416,5.307 -11.93183,6.5482 -9.49995,2.0374 -19.08469,-3.7115 -24.61356,-14.76308 -4.3716,-8.73832 -1.84085,-16.06254 -3.0995,-30.39696 -0.52563,-5.98615 -0.13961,-13.73695 -2.48438,-22.26327 -0.64857,-2.3584 -3.90839,-5.71873 -6.31433,-5.95232 -3.74788,-0.36388 -5.87261,0.21404 -5.93029,5.46521 -0.0554,5.04038 -0.14198,-2.45262 -0.12418,7.91527 0.0273,15.81693 0.32538,18.08582 1.85217,25.15782 2.68264,12.42594 8.21581,25.53553 16.55901,43.43013 9.70832,20.8225 8.88308,26.1542 5.7148,31.5896 -1.43443,2.4609 -3.44898,4.1816 -7.05489,6.0257 -4.31397,2.2063 -6.19857,2.6206 -12.97348,2.8524 -6.11931,0.2094 -8.92039,-0.098 -12.28671,-1.3491 z"
       id="path4195"
       inkscape:connector-curvature="0"
       sodipodi:nodetypes="cssssssssssszzsssssssssscssssssssssssssssssssssssssssssssssssssssssssssscccccsscscscssscssscccccsssscssssssssssscccsssssscccsssssssssssssssccsssssssssssssccssssssssssssssssssssssssssssscssscccccssssssscccccssscssssssssssssssssssssssssssssssssssscsssssssssssssssssssc" />
  </g>
  <g
     inkscape:groupmode="layer"
     id="layer2"
     inkscape:label="Serigrafia_Base"
     transform="translate(0,5.6692913)">
    <path
       style="fill:#ffffff"
       inkscape:connector-curvature="0"
       id="path16"
       d="m 135.02551,196.94572 c -2.41753,-0.57033 -4.12519,-3.07246 -3.68135,-5.3929 0.21693,-1.13761 0.86243,-0.74176 0.86243,0.52872 0,3.18592 3.31352,5.02035 6.28973,3.48079 1.14648,-0.59252 2.34152,-2.3687 2.34152,-3.48079 0,-0.62193 0.70265,-1.23637 1.03358,-0.90571 0.10902,0.10902 -0.0219,0.92956 -0.2896,1.8239 -0.49127,1.63887 -2.65775,3.63031 -3.62033,3.88191 -0.46935,0.12316 -0.57615,0.18391 -1.11347,0.21581 -0.29876,0.0175 -1.10738,0.0175 -1.82306,-0.15201 h 4.3e-4 z" />
    <g
       id="g4853"
       transform="translate(6.0705515,-695.72955)">
      <g
         id="g4849">
        <path
           style="fill:#ffffff;stroke:#010202;stroke-width:0.05664472;stroke-miterlimit:10"
           inkscape:connector-curvature="0"
           id="path18"
           d="m 143.42581,868.3535 v -6.20595 l -1.65218,-0.43607 c -6.35326,-1.67466 -10.64183,-8.23596 -9.60353,-14.69351 1.43137,-8.89699 10.88899,-13.71401 18.92882,-9.63987 2.316,1.17368 4.95849,3.97679 6.02759,6.39265 0.96063,2.17119 1.32069,6.28334 0.73843,8.43346 -1.10599,4.08275 -4.76209,8.02069 -8.53332,9.19048 l -1.82306,0.56672 -0.10791,6.35298 -0.0155,6.29888 2.05413,-0.19723 c 1.17977,-0.13842 3.50853,-0.74925 5.17487,-1.35703 8.98353,-3.27913 15.69713,-10.60937 18.20952,-19.8828 0.93095,-3.43807 0.93289,-10.54973 0.004,-13.99585 -2.22058,-8.22902 -7.99102,-15.20919 -15.59811,-18.86835 -3.90133,-1.87632 -7.42622,-2.63417 -12.24713,-2.63279 -5.04865,10e-4 -7.94746,0.70182 -12.82967,3.09799 -3.12378,1.53401 -4.23559,2.35788 -7.20764,5.34574 -5.84505,5.87363 -8.34996,11.89012 -8.33747,20.02039 0.0139,8.44594 3.04389,15.32791 9.2981,21.11832 4.30079,3.98205 11.42215,7.20764 16.06358,7.27533 l 1.45801,0.0222 v -6.20567 h -0.002 z"
           stroke-miterlimit="10" />
        <path
           style="fill:#ffffff;stroke:#010202;stroke-width:0.05664472;stroke-miterlimit:10"
           inkscape:connector-curvature="0"
           id="path20"
           d="m 106.10271,861.73395 v -6.21483 l -1.45246,-0.60723 c -3.28772,-1.37312 -4.929918,-4.10743 -4.694409,-7.81292 0.128159,-2.01474 0.365609,-2.7074 1.341779,-3.91964 0.65216,-0.80972 1.86911,-1.87299 2.70408,-2.36343 3.25526,-1.90878 8.61182,-0.37865 10.23266,2.92295 0.81333,1.6569 1.19781,1.59781 1.20557,-0.18503 0.0197,-4.16569 2.63251,-11.15418 5.62647,-15.04719 l 1.48075,-1.92653 -1.67604,-1.44441 c -2.03915,-1.75538 -5.0037,-3.24695 -8.01569,-4.03115 -6.257,-1.62999 -12.70429,0.33482 -17.849749,5.4395 -7.601267,7.54079 -9.358307,19.48501 -4.366527,29.68022 0.861321,1.75843 2.203931,3.5274 4.186219,5.51579 3.66027,3.67137 5.497477,4.6872 11.180537,6.18321 0.0535,0.0144 0.0968,-2.77066 0.0968,-6.18931 v 0 z"
           stroke-miterlimit="10" />
      </g>
      <path
         stroke-miterlimit="10"
         d="m 115.10484,866.79619 c 1.04995,-0.3989 2.77675,-1.28269 3.83808,-1.9637 l 1.93041,-1.23886 -0.72595,-1.02999 c -1.80836,-2.56426 -3.91797,-7.93996 -4.5227,-11.52478 l -0.26186,-1.55288 -0.73927,1.51931 c -1.00335,2.06329 -1.71792,2.78536 -3.71214,3.75043 l -1.69796,0.82165 v 6.23647 6.23619 l 1.99145,-0.26436 c 1.09544,-0.14536 2.85026,-0.59058 3.89994,-0.98948 z"
         id="path22"
         inkscape:connector-curvature="0"
         style="fill:#ffffff;stroke:#010202;stroke-width:0.05664472;stroke-miterlimit:10" />
    </g>
    <g
       id="Cabeza_color"
       transform="matrix(0.27739823,0,0,0.27739823,-40.70683,-92.44987)"
       style="fill:#ffffff">
      <g
         id="g4845"
         style="fill:#ffffff">
        <path
           stroke-miterlimit="10"
           d="m 150.41097,774.1216 4.73575,-1.77757 -0.008,-0.0158 c -0.48572,-0.99253 -0.75063,-2.09158 -0.75063,-3.27108 0,-0.80668 0.0871,-1.45496 0.32317,-2.18313 l 0.0405,-0.12898 -5.38652,-1.69213 -0.10984,-0.0347 c -0.64717,0.59835 -1.50628,0.9709 -2.45165,0.99253 l -0.008,0.0646 -0.46436,3.97068 h 2.7e-4 c 1.92792,0.62608 3.45222,2.14817 4.07886,4.07553"
           id="path28"
           inkscape:connector-curvature="0"
           style="fill:#ffffff;stroke:#010202;stroke-width:0.0567002;stroke-miterlimit:10"
           transform="matrix(3.6049257,0,0,3.6049257,168.63162,-2175.2578)" />
        <path
           d="m 564.429,551.362 c -0.133,-0.173 -0.201,-0.262 -0.201,-0.262 45.172,2.359 86.506,20.922 118.605,49.348 v 10e-4 c 1.991,-0.565 4.091,-0.868 6.262,-0.868 0.821,0 1.629,0.043 2.426,0.127 l 1.834,-14.225 -0.249,-0.084 c -5.394,-1.766 -9.044,-6.756 -9.044,-12.74 0,-7.45 6.04,-13.49 13.491,-13.49 7.45,0 13.49,6.041 13.49,13.49 0,2.023 -0.445,3.944 -1.245,5.667 l 0.569,0.169 18.023,5.407 0.234,0.069 c 4.617,-8.249 13.44,-13.825 23.564,-13.825 14.902,0 26.982,12.078 26.982,26.979 0,9.06 -4.463,17.075 -11.311,21.969 l 0.174,0.24 6.149,8.47 0.182,0.277 c 1.886,-0.69 3.922,-1.066 6.046,-1.066 9.71,0 17.579,7.869 17.579,17.579 0,6.579 -3.614,12.312 -8.963,15.327 14.787,53.922 14.924,116.265 -7.99,155.164 l 0.088,0.191 6.147,12.669 c 8.074,16.642 10.849,28.712 10.849,47.199 0,17.421 -2.595,29.666 -9.422,44.44 -2.695,5.838 -4.902,10.695 -4.902,10.796 0,0.102 2.292,1.421 5.097,2.931 l 5.095,2.744 22.885,-23.8 c 12.586,-13.087 22.905,-24.314 22.934,-24.944 0.026,-0.63 -8.256,-13.376 -18.409,-28.323 l -18.458,-27.178 8.122,-18.627 c 4.468,-10.246 9.838,-22.726 11.933,-27.738 l 3.809,-9.108 11.082,-2.396 c 6.095,-1.315 20.834,-4.027 32.755,-6.023 11.92,-1.996 21.917,-3.874 22.22,-4.174 0.298,-0.298 0.083,-15.948 -0.479,-34.776 l -1.024,-34.23 -21.896,-3.843 c -12.043,-2.114 -26.989,-4.772 -33.216,-5.909 l -11.32,-2.067 -4.291,-10.052 c -2.36,-5.53 -7.537,-17.171 -11.504,-25.872 -3.967,-8.701 -6.78,-16.584 -6.248,-17.52 0.534,-0.935 9.069,-14.111 18.972,-29.28 9.901,-15.168 18.003,-28.104 18.003,-28.747 0,-0.642 -10.651,-11.804 -23.67,-24.806 l -23.669,-23.639 -29.29,19.772 -29.289,19.771 -25.794,-10.519 c -14.189,-5.787 -25.994,-10.717 -26.235,-10.958 -0.241,-0.242 -3.263,-14.574 -6.715,-31.849 -3.454,-17.275 -6.617,-32.841 -7.034,-34.589 l -0.757,-3.178 -33.196,0.375 -33.196,0.375 -6.881,34.535 -6.881,34.532 -23.021,9.829"
           id="path38"
           inkscape:connector-curvature="0"
           style="fill:#ffffff" />
      </g>
      <path
         style="fill:#ffffff"
         inkscape:connector-curvature="0"
         id="path40"
         d="m 747.175,783.665 c 11.058,-55.206 -4.392,-110.421 -36.616,-153.208 0.925,-2.486 1.431,-5.175 1.431,-7.982 0,-0.631 -0.026,-1.255 -0.077,-1.874 l 18.721,-7.24 v 10e-4 c 4.926,6.529 12.747,10.749 21.555,10.749 3.631,0 7.095,-0.717 10.258,-2.017 l 0.137,0.187 6.376,8.754 0.101,0.138 c -3.809,3.225 -6.229,8.042 -6.229,13.425 0,9.71 7.869,17.579 17.579,17.579 1.052,0 2.082,-0.092 3.083,-0.269 v -10e-4 c 15.688,45.465 15.415,108.285 -5.627,148.646 l -0.316,-0.316 -8.982,-9.187 c -6.979,-7.136 -13.894,-12.808 -21.394,-17.385 z" />
    </g>
  </g>
</svg>
