<?xml version="1.0" encoding="UTF-8" standalone="no"?>
<!-- Created with Inkscape (http://www.inkscape.org/) -->

<svg
   xmlns:dc="http://purl.org/dc/elements/1.1/"
   xmlns:cc="http://creativecommons.org/ns#"
   xmlns:rdf="http://www.w3.org/1999/02/22-rdf-syntax-ns#"
   xmlns:svg="http://www.w3.org/2000/svg"
   xmlns="http://www.w3.org/2000/svg"
   xmlns:sodipodi="http://sodipodi.sourceforge.net/DTD/sodipodi-0.dtd"
   xmlns:inkscape="http://www.inkscape.org/namespaces/inkscape"
   width="80mm"
   height="98mm"
   id="svg3274"
   version="1.1"
   inkscape:version="0.92.4 (unknown)"
   sodipodi:docname="002_3_Oshpark.svg"
   inkscape:export-filename="/home/salvari/work/graphicsResources/BL/oshwi.png"
   inkscape:export-xdpi="90"
   inkscape:export-ydpi="90"
   viewBox="0 0 283.46457 347.24409">
  <defs
     id="defs3276" />
  <sodipodi:namedview
     id="base"
     pagecolor="#ffffff"
     bordercolor="#666666"
     borderopacity="1.0"
     inkscape:pageopacity="0.0"
     inkscape:pageshadow="2"
     inkscape:zoom="2"
     inkscape:cx="67.613182"
     inkscape:cy="179.03224"
     inkscape:document-units="px"
     inkscape:current-layer="g821"
     showgrid="false"
     inkscape:window-width="1920"
     inkscape:window-height="1147"
     inkscape:window-x="0"
     inkscape:window-y="27"
     inkscape:window-maximized="1"
     units="mm" />
  <metadata
     id="metadata3279">
    <rdf:RDF>
      <cc:Work
         rdf:about="">
        <dc:format>image/svg+xml</dc:format>
        <dc:type
           rdf:resource="http://purl.org/dc/dcmitype/StillImage" />
        <dc:title></dc:title>
      </cc:Work>
    </rdf:RDF>
  </metadata>
  <g
     inkscape:label="Base"
     inkscape:groupmode="layer"
     id="layer1"
     transform="translate(0,-705.11813)">
    <path
       style="fill:#ffffff;fill-opacity:1;stroke:#000000;stroke-width:0.42865035;stroke-linejoin:round;stroke-miterlimit:10;stroke-dasharray:none;stroke-dashoffset:0;stroke-opacity:1"
       d="m 140.96052,1050.1783 c -2.3982,-0.8911 -5.1979,-2.0685 -6.2216,-2.6163 -1.0236,-0.5479 -3.393,-0.9961 -5.2653,-0.9961 -4.6488,0 -7.9678,-2.6688 -7.9678,-6.4069 0,-6.3796 8.4754,-9.4188 12.6693,-4.5431 1.129,1.3126 2.0528,3.2853 2.0528,4.3837 0,1.7347 0.645,2.1267 4.9074,2.9827 6.1643,1.238 14.1513,1.2677 17.3358,0.065 3.4116,-1.289 7.0211,-4.9486 7.6342,-7.7401 0.7286,-3.3176 -2.4488,-9.1075 -9.7903,-23.6465 -8.584,-16.99973 -11.3254,-23.94491 -14.0927,-31.90205 0,0 -0.8433,-3.72396 -1.2556,-6.06075 -1.265,-7.16959 -2.7337,-16.30767 -2.5448,-29.32051 0.189,-13.01284 -1.3167,-13.43687 -2.5733,-15.05394 -1.2566,-1.61708 -5.5946,-3.39948 -7.6486,0.91946 -1.4251,2.99655 -1.565,5.58043 -1.5891,10.23746 -0.055,10.74968 0.897,29.01581 -3.6932,42.00122 -2.273,6.43008 -5.2742,14.93653 -6.6693,18.90321 -2.4102,6.8527 -3.1788,13.0558 -1.9987,16.1311 1.1755,3.0633 9.3435,5.0744 13.7467,3.3848 2.176,-0.8351 3.0547,-4.0698 2.0721,-7.6285 -0.6872,-2.4886 -1.549,-3.4047 -4.2013,-4.466 -6.2409,-2.4971 -6.7189,-9.02506 -0.8819,-12.04354 2.1969,-1.13603 3.2345,-1.21016 5.6733,-0.40531 3.6586,1.20747 4.8169,3.21149 4.6227,7.99785 -0.082,2.0204 0.2462,5.5471 0.7293,7.837 1.6043,7.6044 -1.1451,13.3419 -7.3794,15.3994 -4.8273,1.5931 -16.5998,0.6306 -20.3066,-1.6604 -7.5591,-4.6717 -7.5226,-11.8525 0.1728,-34.01376 8.2985,-23.89799 8.9016,-28.07022 6.0681,-45.37504 -0.8049,-4.91501 -1.332,-5.3647 -2.7832,-6.72118 -0.7997,-0.74748 -1.2508,-0.63791 -2.3047,-0.82644 -2.492,-0.44577 -2.8467,0.73235 -4.1195,3.6506 -0.7697,1.76476 -3.0451,11.75081 -3.7547,31.17616 -0.7828,21.43035 -1.777202,28.24466 -5.628002,38.56486 -4.3678,11.7059 -12.4535,20.4599 -21.6668,23.4578 -2.3815,0.7749 -5.5451,2.1403 -7.0303,3.0343 -3.8911,2.3422 -6.9549,2.0625 -9.9234,-0.906 -3.8976,-3.8976 -2.9953,-7.8976 2.2785,-10.1011 2.5878,-1.0813 3.36,-1.0592 6.4694,0.185 3.3086,1.3238 3.7489,1.3144 6.9935,-0.1487 6.4429,-2.9053 10.9221,-9.6959 13.8729,-21.0316 1.3776,-5.2923 1.8088,-11.39445 2.5391,-30.02355 0.6825,-17.41043 1.1103,-19.49481 0.2537,-23.31413 -0.4666,-2.08032 -3.4665,-3.87641 -4.7317,-3.83727 0,0 -2.9582,-0.31989 -4.4404,2.90764 -1.8792,4.09162 -2.1011,14.32801 -4.0709,23.37776 -6.98,32.06835 -9.5615,36.86965 -20.9575,38.97825 -10.3559,1.9161 -22.3881,-6.4939 -22.3881,-15.64816 0,-1.25002 -0.7794,-3.26365 -1.732,-4.47468 -2.2699,-2.88573 -2.1911,-5.66812 0.2408,-8.49533 4.2021,-4.88521 12.7492,-1.91603 12.7492,4.42896 0,2.17448 -0.6993,3.35713 -3.1461,5.31995 -2.8994,2.32598 -3.0607,2.68908 -2.0568,4.63056 3.0864,5.9686 8.5638,8.5297 14.7056,6.8759 6.826,-1.8381 9.7904,-8.52226 13.8718,-31.27855 4.3138,-24.05223 3.9194,-19.06002 5.8471,-34.2446 0.2985,-2.35142 -0.5663,-3.24082 -1.2686,-4.71106 -0.6556,-1.37231 -4.5988,-3.23685 -7.4847,-1.92252 -8.8394,4.02574 -2.6202,1.90348 -21.112,8.59725 -13.9482,5.04904 -18.9418,8.52402 -22.2415,15.47768 -4.3343,9.13383 3.7164,18.29663 11.0248,12.54781 1.9349,-1.52193 2.1174,-2.07457 1.3819,-4.18437 -1.9372,-5.55694 3.7337,-10.7038 9.5569,-8.67381 4.9184,1.71457 6.1002,7.94131 2.1039,11.08484 -1.255,0.98717 -2.6508,1.79486 -3.1018,1.79486 -0.451,0 -2.4444,1.31244 -4.4298,2.91654 -5.0637,4.09133 -6.8603,4.8775 -11.1458,4.8775 -11.3113,0 -17.1844003,-13.8347 -11.2129,-26.41313 4.3119,-9.08249 8.9589,-12.40643 29.141,-20.84423 4.2868,-1.79221 9.7426,-4.50155 12.1241,-6.02078 10.2874,-6.56261 20.0275,-19.96074 32.5486,-44.77285 l 7.8689,-15.59315 -2.8212,-2.91076 -2.8212,-2.91074 -2.8921,1.78742 -2.8921,1.78742 -4.9694,-4.32557 c -2.7332,-2.37906 -6.0313,-5.44498 -7.3292,-6.81316 l -2.3598,-2.4876 5.1726,-7.3363 c 2.8449,-4.03498 5.1552,-7.72602 5.1338,-8.20232 -0.021,-0.47631 -1.3088,-3.98362 -2.8611,-7.79404 l -2.8224,-6.92804 -7.3127,-1.5145 c -4.022,-0.83298 -8.1895,-1.71723 -9.2612,-1.96501 -1.8799,-0.43465 -1.9485,-0.79687 -1.9485,-10.2908 l 0,-9.84029 8.4435,-1.50532 c 9.9862,-1.78035 11.0228,-2.24029 12.1526,-5.39246 0.473,-1.31988 1.6374,-4.3483 2.5875,-6.72981 l 1.7273,-4.33002 -5.5556,-7.7476 -5.5556,-7.7476 7.0878,-7.12484 7.0878,-7.12484 7.6292,5.12989 c 4.1961,2.82143 8.224702,5.12988 8.952402,5.12988 0.7277,0 3.8902,-1.02769 7.0278,-2.28375 6.4622,-2.58698 6.7961,-2.38071 8.5823,-13.95383 l 2.9588,-19.17009 c 0.2019,0.0183 -0.9288,-0.33 -2.0499,-0.54152 -1.1211,-0.21153 -2.1993,-0.29738 -2.0026,-0.26261 0.1967,0.0348 -0.9447,-0.13928 -3.0596,-0.0446 -2.1148,0.0947 -5.202,0.48975 -5.0055,0.46324 0.2087,-0.0281 -0.9945,0.21272 -2.3312,0.80468 -1.3368,0.59195 -2.5796,1.71154 -2.4366,1.57455 0.2931,-0.28091 -0.3659,0.41408 -1.0478,1.15582 -0.6819,0.74174 -1.2372,1.84326 -1.3234,2.022 -0.1465,0.30392 -0.5872,1.24866 -1.293702,1.90818 -0.7065,0.65952 -1.142,0.79624 -1.3308,0.85983 -0.2706,0.0911 -1.0113,0.23777 -2.0176,0.19813 -1.0064,-0.0397 -1.2717,-0.0236 -1.4791,-0.0196 -0.059,0.001 -0.1199,0.004 -0.1738,0.006 -0.104,0.004 -0.2079,0.005 -0.3034,0.008 -0.06,10e-4 -0.1252,0.002 -0.1942,0.003 -0.069,5.7e-4 -0.1424,7.6e-4 -0.2194,4.1e-4 -0.077,-3.5e-4 -0.1579,-10e-4 -0.2421,-0.003 -0.084,-0.002 -0.1717,-0.004 -0.2623,-0.007 -0.091,-0.003 -0.1769,-0.005 -0.2591,-0.006 -0.082,-8.9e-4 -0.1601,-7.8e-4 -0.234,8e-5 -0.074,8.6e-4 -0.1435,0.002 -0.2091,0.005 -0.1184,0.003 -0.2329,0.0115 -0.3442,0.017 -0.1201,0.009 -0.2225,0.0133 -0.3339,0.02 -0.033,9.3e-4 0,-0.0856 0.045,-0.21529 0.046,-0.12088 0.1434,-0.32254 0.2087,-0.57845 0.065,-0.25591 0.181,-0.51082 0.29,-0.86527 0.109,-0.35444 0.2776,-0.81393 0.4267,-1.24699 0.1492,-0.43305 0.3064,-0.86176 0.492,-1.3535 0.1856,-0.49174 0.3279,-1.041 0.5464,-1.5715 0.2186,-0.53051 0.3478,-1.08094 0.5957,-1.63029 0.248,-0.54934 0.471,-1.10865 0.7447,-1.65692 0.5474,-1.09653 0.9249,-2.23209 1.561,-3.22344 0.6361,-0.99136 1.248,-1.92689 1.8299,-2.69658 0.5818,-0.7697 1.516302,-1.48783 1.901002,-1.91939 0.3847,-0.43156 2.2053,-1.99601 2.5363,-2.19298 0.8206,-0.48841 2.4591,-2.06007 6.5648,-3.18199 1.2747,-0.34833 2.5927,-0.51243 3.9112,-0.68286 1.3186,-0.17043 1.9337,-0.1526 3.0743,-0.23748 1.1765,-0.0875 2.3599,-0.12728 3.0787,-0.13805 0.6576,-0.008 1.3715,0.007 1.8845,0.0484 0.4316,0.0454 0.7003,0.0333 1.0076,0.0806 0.305,0.047 0.9225,0.12664 1.2857,0.21416 0.3631,0.0875 0.6224,0.24182 1.0068,0.33358 1.5374,0.36705 2.7938,0.92104 2.9737,1.01097 0.1799,0.0899 0.1392,0.14589 2.3969,1.17306 2.2577,1.02716 2.9491,1.32963 3.1305,1.41524 0.045,0.0214 1.8665,0.79535 2.1231,0.86736 0.2565,0.072 1.3393,0.67009 1.7467,0.77816 0.4074,0.10807 2.2555,0.82338 2.7534,0.95301 0.498,0.12964 1.0106,0.31329 1.5388,0.44998 0.5282,0.13669 0.9783,0.24202 1.4764,0.37126 0.4981,0.12923 0.9036,0.21986 1.3113,0.32713 0.4077,0.10727 0.7239,0.13744 0.9808,0.20824 0.257,0.0708 0.5017,0.0689 0.8171,0.12784 0.4614,0.0762 0.7533,0.0765 1.0839,0.13374 0.3278,0.0322 0.7274,0.0725 1.1301,0.0957 0.4033,0.0233 0.7367,0.0553 1.1639,0.0447 0.4272,-0.0106 1.0185,-0.0525 1.422,-0.0614 0.4035,-0.009 0.8111,-0.0518 1.1388,-0.10584 0.3556,-0.0587 0.494,-0.077 0.705,-0.10837 0.2288,-0.0341 0.3156,-0.0697 0.8392,-0.22441 0.4471,-0.13214 0.6726,-0.15229 1.1143,-0.34473 0.4067,-0.17723 0.418,-0.13582 1.1355,-0.49257 0.7176,-0.35675 1.689,-1.06549 2.4379,-1.71816 0.6755,-0.58863 1.2192,-1.36626 1.814,-2.24074 0.621,-0.9129 1.3956,-2.38923 2.2812,-2.84042 0.8856,-0.45119 1.7416,-0.43614 2.5418,-0.49398 0.6739,-0.0487 2.0482,0.0143 2.5203,0.11746 0.4884,0.10671 0.7707,0.30536 1.1119,0.65919 0.31,0.32135 0.2851,1.32558 0.06,2.0338 -0.2206,0.69402 -0.5608,1.95905 -1.1385,3.04546 -0.5921,1.11344 -1.5856,3.50586 -2.3969,4.81019 -0.8349,1.34232 -1.4399,2.37923 -2.6089,3.7412 -1.0988,1.28024 -1.6304,1.90029 -2.8115,2.92761 -1.1922,1.03691 -2.1074,1.56963 -3.0381,2.11308 -1.0877,0.63509 -1.4435,0.753 -1.9993,1.02244 -0.6532,0.31665 -1.8672,0.71945 -2.402,0.9461 -0.4756,0.20161 -0.5684,0.18165 -0.8491,0.2419 -0.3457,0.0742 -0.8217,0.23185 -1.4275,0.36356 -0.6256,0.13599 -1.7624,0.34746 -2.5401,0.43561 -0.8069,0.0915 -1.497,0.16182 -2.365,0.20758 -0.868,0.0458 -1.804,0.0271 -2.609,0.009 -0.8115,-0.0178 -1.5692,-0.0134 -2.1744,-0.0548 -0.6379,-0.0437 -1.2211,-0.14413 -1.5395,-0.2027 -0.3466,-0.0637 -0.4704,-0.0522 -0.4205,-0.044 0.015,1.20914 3.8999,21.70492 4.2016,22.00661 0.7666,0.76658 12.0554,5.31643 13.1909,5.31643 0.6274,0 4.4157,-1.4447 8.7458,-4.35629 l 7.873,-5.29379 6.9494,6.94941 6.9494,6.94941 -5.3769,8.38389 -5.3769,8.38389 2.7446,6.63108 c 1.5096,3.64709 2.8753,6.77391 3.035,6.94849 0.1596,0.17457 4.2488,1.02841 9.0869,1.89741 4.8382,0.869 8.9746,1.75787 9.192,1.97528 0.2174,0.2174 0.6231,4.712 0.9014,9.98799 0.4105,7.78159 0.2774,9.66547 -0.705,9.97807 -0.6661,0.21194 -4.9133,1.02473 -9.4382,1.8062 l -8.227,1.42084 -3.2224,7.37952 -3.2225,7.37951 5.2687,7.83571 5.2687,7.83571 -6.9088,6.90889 c -5.8896,5.88954 -7.1525,6.77853 -8.5599,6.02533 -1.3789,-0.73797 -2.123,-0.32138 -4.515,2.52786 l -2.8641,3.41142 8.1796,11.45169 c 19.9545,27.93697 35.6292,45.56453 45.8963,51.61452 15.0943,8.89446 30.266,9.39696 42.3464,1.40252 2.7231,-1.80202 3.3044,-2.69126 3.3044,-5.0545 0,-6.42836 8.4544,-9.49373 12.6693,-4.59361 2.2983,2.67189 2.4853,3.85722 1.0913,6.91671 -1.0243,2.24802 -4.0779,4.03326 -6.8988,4.03326 -0.9442,0 -3.6529,1.5305 -6.0194,3.40112 -7.5364,5.95718 -12.4724,7.36354 -25.9565,7.39548 -13.2371,0.0313 -19.294,0.39786 -26.3675,-2.84105 0,0 -3.7411,-1.28264 -5.6015,-2.37901 -1.7792,-1.04849 -2.769,-1.57594 -4.4965,-2.57041 -2.0042,-1.15381 -3.458,-0.16266 -4.1575,0.23433 -0.7538,0.42773 -1.289,1.04 -1.41,2.11523 -0.2135,1.89726 2.0056,3.27369 3.3222,4.28409 0.7287,0.55924 2.3751,1.78442 3.8726,2.68673 1.5879,0.95674 0.3335,1.15537 20.9822,4.92681 17.3368,3.16654 21.74,4.4352 27.0222,7.7858 7.3825,4.68284 9.4317,12.20805 5.5622,20.42611 -2.6669,5.66399 -5.6991,8.79001 -10.6506,10.9803 -8.4228,3.7258 -17.7349,0.0869 -21.6475,-8.45927 -1.3435,-2.93457 -3.0487,-5.17434 -4.5176,-5.93398 -4.7801,-2.47189 -5.1991,-8.15921 -0.8267,-11.22173 3.0797,-2.15714 6.5758,-1.73374 9.4546,1.145 2.9574,2.95743 3.1798,5.07075 0.8458,8.03793 -1.6767,2.13155 -1.6755,2.15729 0.2165,4.87802 5.6786,8.1658 19.6552,2.69263 19.6552,-7.6969 0,-3.53364 -4.4787,-8.12497 -9.1454,-9.37549 -1.8764,-0.50281 -8.7341,-1.10647 -15.1027,-2.26244 -15.3948,-2.79431 -23.8889,-5.56701 -27.283,-7.21992 -5.4202,-2.63966 -6.9503,-4.42531 -8.3767,-5.72802 -2.6205,-2.39324 -8.7299,-3.75026 -11.3654,-3.12257 -3.2261,0.76836 -4.0671,2.50899 -3.8092,6.45706 0.1669,2.55597 0.021,6.01241 0.1931,7.66524 0.1455,1.39642 -1.348,16.55566 -0.052,21.04405 2.851,9.8766 7.1793,14.22651 14.1618,14.23256 4.2294,0.003 6.8389,-1.08988 9.0169,-3.77864 2.8903,-3.56813 1.2794,-11.80621 -2.3086,-11.80621 -4.7654,0 -8.2632,-5.37316 -6.1536,-9.45274 4.012,-7.75845 15.8195,-3.5569 13.5558,4.82367 -0.4882,1.80736 -0.1302,3.61807 1.3433,6.79408 2.9821,6.42752 2.7464,11.67619 -0.7007,15.60219 -3.2789,3.73451 -6.1441,5.30697 -11.9318,6.54817 -9.4999,2.0374 -19.0847,-3.71148 -24.6136,-14.76305 -4.3716,-8.73832 -1.8408,-16.06254 -3.0995,-30.39696 -0.5256,-5.98615 -0.1396,-13.73695 -2.4843,-22.26327 -0.6486,-2.3584 -3.9084,-5.71873 -6.3144,-5.95232 -3.7478,-0.36388 -5.8726,0.21404 -5.9303,5.46521 -0.055,5.04038 -0.1419,-2.45262 -0.1241,7.91527 0.027,15.81693 0.3253,18.08582 1.8521,25.15782 2.6827,12.42594 8.2158,25.53555 16.559,43.4301 9.7084,20.8225 8.8831,26.1542 5.7148,31.5896 -1.4344,2.4609 -3.4489,4.1816 -7.0548,6.0257 -4.314,2.2063 -6.1986,2.6206 -12.9735,2.8524 -6.1193,0.2094 -8.9204,-0.098 -12.2867,-1.3491 z"
       id="path4195"
       inkscape:connector-curvature="0"
       sodipodi:nodetypes="cssssssssssszzsssssssssscssssssssssssssssssssssssssssssssssssssssssssssscccccsscscscssscssscccccsssscssssssssssscccsssssscccsssssssssssssssccsssssssssssssccssssssssssssssssssssssssssssscssscccccssssssscccccssscssssssssssssssssssssssssssssssssssscsssssssssssssssssssc" />
    <text
       xml:space="preserve"
       style="font-style:normal;font-weight:normal;line-height:0%;font-family:sans-serif;letter-spacing:0px;word-spacing:0px;fill:#000000;fill-opacity:1;stroke:none;stroke-width:1px;stroke-linecap:butt;stroke-linejoin:miter;stroke-opacity:1"
       x="137"
       y="601.36224"
       id="text4377"><tspan
         sodipodi:role="line"
         id="tspan4379"
         x="137"
         y="601.36224"
         style="font-size:40px;line-height:1.25"> </tspan></text>
  </g>
  <g
     transform="translate(0,-705.11813)"
     id="g821"
     inkscape:groupmode="layer"
     inkscape:label="Edge.Cuts">
    <path
       sodipodi:nodetypes="cssssssssssssssssssssssssssssssssssssssssssssssssssssssssssssssssssssssssssssssssssssssssssssssscsssssssssssssssssssssssssssssssssssssssssssssssssssssssssssssssssssssssssssssssssssssssssssssssssssssssssssssssssssssssssssssssssssssssssssssssssssssssssssssssssssssssssssssssssssssssssssscccccccccccccccccccccccssssscccccccsssscsssscccccccssssssssscccccccssssssssscccccccccccccccccccccccsssssssssssssccccssssssssssscccsssssscccsssssssssssssssccsssssssssssssccssssssssssssssssssssssssssssscsssssssssssscccccccccccccccccccccccssssssssssssssssssssssssscccccccccccccccccccccccssssssssscccccccsssssssssssssssssssssssssssssssssssssssssssssssssssssssssssssssssssssssssssssssssssssssssssssssssssssssssssssssssssssssssssssssssssssssssssscsssssssssssssssssssssssssssssssssssssssssssssssssssssssssssssssssssssssssssscccc"
       inkscape:connector-curvature="0"
       id="path815"
       d="m 140.96052,1050.1783 c -0.59955,-0.2228 -1.22419,-0.4634 -1.83991,-0.7077 -0.61571,-0.2442 -1.2225,-0.4921 -1.78633,-0.7292 -0.56383,-0.2371 -1.08471,-0.4635 -1.52861,-0.6648 -0.4439,-0.2013 -0.81082,-0.3776 -1.06675,-0.5146 -0.25592,-0.1369 -0.59594,-0.2677 -0.99127,-0.3867 -0.39533,-0.1191 -0.84598,-0.2265 -1.32314,-0.3168 -0.47717,-0.09 -0.98085,-0.1634 -1.48226,-0.214 -0.50142,-0.051 -1.00056,-0.079 -1.46863,-0.079 -1.1622,0 -2.24129,-0.1668 -3.20618,-0.4754 -0.9649,-0.3086 -1.81559,-0.759 -2.52102,-1.3263 -0.70542,-0.5672 -1.26558,-1.2512 -1.64937,-2.0271 -0.38379,-0.7759 -0.59123,-1.6436 -0.59123,-2.5781 0,-1.5949 0.52971,-2.981 1.38981,-4.0869 0.8601,-1.1059 2.05058,-1.9315 3.37213,-2.4054 1.32154,-0.4739 2.77414,-0.596 4.15848,-0.295 1.38434,0.301 2.70041,1.0253 3.74888,2.2442 0.28226,0.3281 0.55169,0.6975 0.79706,1.0842 0.24537,0.3867 0.46669,0.7907 0.65273,1.188 0.18603,0.3972 0.33679,0.7878 0.44103,1.1477 0.10424,0.36 0.16198,0.6892 0.16198,0.9638 0,0.4337 0.0403,0.7834 0.16738,1.0775 0.12707,0.2941 0.34089,0.5324 0.68792,0.7434 0.34703,0.2109 0.82725,0.3943 1.48712,0.5786 0.65987,0.1842 1.49938,0.3692 2.56498,0.5832 1.54108,0.3095 3.19607,0.5435 4.86147,0.7015 1.66539,0.1581 3.34118,0.2403 4.92386,0.2462 1.58267,0.01 3.07223,-0.064 4.36515,-0.2114 1.29291,-0.147 2.38919,-0.3706 3.18532,-0.6713 0.85294,-0.3221 1.71823,-0.7925 2.54597,-1.3604 0.82773,-0.568 1.61791,-1.2335 2.32063,-1.946 0.70272,-0.7125 1.31799,-1.472 1.79589,-2.2278 0.4779,-0.7559 0.81843,-1.508 0.97171,-2.2059 0.18216,-0.8294 0.12019,-1.8133 -0.18994,-3.0498 -0.31013,-1.2365 -0.86842,-2.7256 -1.67891,-4.5654 -0.81048,-1.8398 -1.87316,-4.0302 -3.19205,-6.6694 -1.3189,-2.6392 -2.89403,-5.7271 -4.7294,-9.3619 -2.14601,-4.2499 -3.92685,-7.8714 -5.43422,-11.0375 -1.50738,-3.166 -2.74128,-5.87654 -3.79341,-8.30449 -1.05213,-2.42795 -1.92248,-4.57332 -2.70276,-6.60903 -0.78028,-2.03571 -1.47049,-3.96174 -2.16231,-5.95103 0,0 -0.0527,-0.23275 -0.13821,-0.61838 -0.0855,-0.38563 -0.2038,-0.92415 -0.33498,-1.5357 -0.13118,-0.61154 -0.27524,-1.29611 -0.41228,-1.97384 -0.13704,-0.67774 -0.26706,-1.34863 -0.37013,-1.93283 -0.31625,-1.7924 -0.64523,-3.70783 -0.95786,-5.77607 -0.31263,-2.06824 -0.60891,-4.2893 -0.85975,-6.69297 -0.25084,-2.40366 -0.45625,-4.98992 -0.58715,-7.78857 -0.13089,-2.79865 -0.18727,-5.80969 -0.14004,-9.0629 0.0472,-3.25321 -0.0115,-5.71962 -0.14568,-7.61457 -0.13422,-1.89495 -0.34398,-3.21844 -0.59891,-4.18581 -0.25493,-0.96738 -0.55503,-1.57863 -0.86994,-2.04911 -0.31491,-0.47048 -0.64462,-0.80018 -0.95877,-1.20445 -0.31415,-0.40427 -0.82089,-0.81887 -1.43638,-1.14589 -0.61549,-0.32702 -1.33973,-0.56645 -2.0889,-0.62039 -0.74916,-0.0539 -1.52324,0.0776 -2.23841,0.49262 -0.71516,0.41498 -1.37141,1.11339 -1.88491,2.19312 -0.35627,0.74914 -0.63222,1.47248 -0.84612,2.20888 -0.2139,0.73639 -0.36574,1.48584 -0.4738,2.28717 -0.10807,0.80133 -0.17235,1.65456 -0.21112,2.59851 -0.0388,0.94396 -0.052,1.97864 -0.0581,3.1429 -0.0139,2.68742 0.0352,5.84462 0.045,9.27164 0.01,3.42702 -0.0198,7.12386 -0.19111,10.89057 -0.17128,3.76671 -0.48427,7.60329 -1.04133,11.30977 -0.55706,3.70649 -1.35818,7.28289 -2.50573,10.52924 -0.56824,1.60752 -1.182,3.34482 -1.8048,5.10851 -0.6228,1.76369 -1.25464,3.55377 -1.85905,5.26687 -0.60441,1.71311 -1.18138,3.34923 -1.69445,4.80499 -0.51307,1.45577 -0.96222,2.73114 -1.311,3.72284 -0.60253,1.7132 -1.10248,3.3858 -1.49502,4.979 -0.39255,1.5933 -0.67771,3.1072 -0.85067,4.5031 -0.17296,1.3959 -0.23372,2.6737 -0.17749,3.7948 0.0562,1.1211 0.22946,2.0854 0.52448,2.8542 0.29387,0.7658 1.02478,1.4659 2.02463,2.0588 0.99986,0.5929 2.26866,1.0787 3.63833,1.4159 1.36967,0.3373 2.8402,0.526 4.24352,0.5248 1.40332,-0 2.73942,-0.1923 3.84022,-0.6147 0.54401,-0.2087 1.00693,-0.5675 1.37996,-1.0438 0.37303,-0.4763 0.65616,-1.0701 0.84058,-1.7491 0.18442,-0.6789 0.27014,-1.443 0.24833,-2.2597 -0.0218,-0.8168 -0.15112,-1.6862 -0.39677,-2.5759 -0.17178,-0.6222 -0.35449,-1.146 -0.57336,-1.5985 -0.21887,-0.4524 -0.47391,-0.8334 -0.79035,-1.1697 -0.31645,-0.3364 -0.69431,-0.6282 -1.15883,-0.9022 -0.46451,-0.274 -1.01569,-0.5303 -1.67876,-0.7956 -1.56021,-0.6243 -2.76025,-1.5005 -3.59148,-2.5108 -0.83124,-1.0104 -1.29367,-2.1548 -1.37866,-3.3155 -0.085,-1.1607 0.20744,-2.3377 0.88593,-3.41319 0.6785,-1.07548 1.74306,-2.04943 3.20231,-2.80405 0.54922,-0.28402 1.02599,-0.50166 1.47031,-0.65579 0.44431,-0.15413 0.85619,-0.24475 1.27562,-0.27471 0.41943,-0.03 0.84642,7.3e-4 1.32098,0.0892 0.47456,0.0885 0.99669,0.23477 1.60639,0.43598 0.91465,0.30185 1.67304,0.6535 2.29309,1.08596 0.62004,0.43246 1.10176,0.94574 1.46307,1.57086 0.36131,0.62512 0.60222,1.36213 0.74066,2.24193 0.13845,0.8798 0.17443,1.9025 0.12588,3.0991 -0.0205,0.5051 -0.0154,1.1043 0.0114,1.7549 0.0268,0.6505 0.0752,1.3523 0.14132,2.0625 0.0661,0.7103 0.14984,1.4289 0.24727,2.1131 0.0974,0.6843 0.20851,1.334 0.32929,1.9065 0.40107,1.9011 0.53004,3.6855 0.40048,5.3249 -0.12956,1.6394 -0.51766,3.1338 -1.15071,4.4549 -0.63305,1.321 -1.51105,2.4688 -2.62044,3.4148 -1.10939,0.9461 -2.45016,1.6904 -4.00873,2.2048 -1.20682,0.3983 -2.84772,0.6368 -4.68815,0.7348 -1.84043,0.098 -3.88039,0.056 -5.88533,-0.1084 -2.00495,-0.164 -3.97488,-0.4493 -5.67524,-0.8368 -1.70037,-0.3875 -3.13118,-0.8772 -4.05788,-1.45 -1.88975,-1.168 -3.30479,-2.4927 -4.24412,-4.1692 -0.93933,-1.6764 -1.40295,-3.7045 -1.38988,-6.2792 0.0131,-2.5746 0.50285,-5.6958 1.47032,-9.5584 0.96747,-3.8626 2.41263,-8.46664 4.33648,-14.00696 2.07462,-5.9745 3.66828,-10.71614 4.84752,-14.73833 1.17924,-4.02219 1.94407,-7.32493 2.36102,-10.42163 0.41695,-3.09671 0.48603,-5.98737 0.27378,-9.18542 -0.21226,-3.19804 -0.70584,-6.70345 -1.41422,-11.02966 -0.2012,-1.22876 -0.38505,-2.17843 -0.57032,-2.93296 -0.18527,-0.75452 -0.37198,-1.31391 -0.57888,-1.76209 -0.2069,-0.44817 -0.434,-0.78515 -0.70007,-1.09486 -0.26608,-0.30971 -0.57113,-0.59215 -0.93393,-0.93127 -0.19992,-0.18687 -0.37806,-0.32018 -0.54927,-0.41797 -0.17122,-0.0978 -0.33551,-0.16006 -0.50775,-0.20486 -0.17224,-0.0448 -0.35242,-0.0721 -0.55541,-0.10006 -0.20299,-0.0279 -0.42879,-0.0564 -0.69227,-0.10355 -0.623,-0.11145 -1.11242,-0.1214 -1.516,-0.028 -0.40357,0.0934 -0.72131,0.29003 -1.00095,0.59183 -0.27964,0.30179 -0.52117,0.70871 -0.77235,1.22258 -0.25118,0.51386 -0.512,1.13467 -0.8302,1.86423 -0.19243,0.44119 -0.47896,1.39621 -0.8116,2.88409 -0.33265,1.48789 -0.71141,3.50863 -1.08829,6.08127 -0.37688,2.57264 -0.75188,5.69717 -1.07702,9.39262 -0.32513,3.69546 -0.60039,7.96184 -0.77779,12.81818 -0.19571,5.35759 -0.40464,9.80167 -0.66812,13.61541 -0.26348,3.81374 -0.5815,6.99713 -0.995397,9.83333 -0.413897,2.83622 -0.923669,5.32522 -1.570641,7.75012 -0.646971,2.425 -1.431144,4.786 -2.393844,7.366 -1.091961,2.9265 -2.416285,5.6685 -3.932501,8.1821 -1.516216,2.5137 -3.224324,4.7991 -5.083853,6.8123 -1.859528,2.0132 -3.870477,3.7543 -5.992376,5.1795 -2.121898,1.4252 -4.354745,2.5344 -6.65807,3.2839 -0.595374,0.1937 -1.23963,0.4244 -1.894322,0.6753 -0.654692,0.251 -1.31982,0.5222 -1.956939,0.7972 -0.637119,0.275 -1.246229,0.5537 -1.788884,0.8195 -0.542655,0.2658 -1.018855,0.5188 -1.390155,0.7423 -0.972774,0.5856 -1.893843,1.0072 -2.774643,1.264 -0.8808,0.2568 -1.721331,0.3486 -2.533031,0.2745 -0.8117,-0.074 -1.594569,-0.3142 -2.360044,-0.7212 -0.765476,-0.4071 -1.513557,-0.9812 -2.255682,-1.7233 -0.9744,-0.9744 -1.648806,-1.9552 -2.029913,-2.9127 -0.381106,-0.9576 -0.468912,-1.8918 -0.270112,-2.7731 0.1988,-0.8814 0.684206,-1.7097 1.449525,-2.4555 0.765319,-0.7458 1.81055,-1.4089 3.129,-1.9598 0.646956,-0.2703 1.180434,-0.4717 1.665322,-0.6022 0.484889,-0.1306 0.921188,-0.1903 1.373787,-0.1773 0.452598,0.013 0.921496,0.099 1.471582,0.2586 0.550085,0.1602 1.181359,0.3949 1.958709,0.7059 0.827141,0.331 1.475017,0.5786 2.032262,0.741 0.557246,0.1625 1.023859,0.2397 1.488474,0.2298 0.464615,-0.01 0.927231,-0.1069 1.476481,-0.2928 0.549249,-0.186 1.185133,-0.4609 1.996283,-0.8267 1.610723,-0.7263 3.098716,-1.6955 4.470779,-2.9178 1.372064,-1.2223 2.628199,-2.6977 3.775205,-4.4366 1.147007,-1.7389 2.184886,-3.7412 3.120438,-6.0173 0.935552,-2.2761 1.768778,-4.826 2.506478,-7.6599 0.344409,-1.3231 0.629664,-2.6968 0.875227,-4.3041 0.245563,-1.6074 0.451433,-3.44851 0.637075,-5.70637 0.185641,-2.25786 0.351053,-4.93249 0.515699,-8.20698 0.164645,-3.27448 0.328524,-7.14883 0.511099,-11.8061 0.170631,-4.35261 0.325341,-7.74734 0.44804,-10.45077 0.1227,-2.70342 0.21339,-4.71555 0.255982,-6.30296 0.04259,-1.58741 0.03709,-2.75009 -0.0326,-3.75463 -0.06969,-1.00454 -0.203568,-1.85094 -0.417718,-2.80577 -0.116644,-0.52008 -0.391623,-1.0224 -0.758247,-1.48271 -0.366623,-0.46032 -0.824893,-0.87864 -1.308119,-1.23072 -0.483227,-0.35209 -0.99141,-0.63794 -1.457862,-0.83332 -0.466452,-0.19539 -0.891172,-0.30031 -1.207472,-0.29052 0,0 -0.184887,-0.02 -0.485378,4.5e-4 -0.300491,0.0204 -0.716584,0.0813 -1.178997,0.24305 -0.462412,0.16173 -0.971144,0.42433 -1.456909,0.84821 -0.485766,0.42388 -0.948566,1.00905 -1.319116,1.81593 -0.469763,1.02292 -0.835964,2.42988 -1.1518,4.10633 -0.315837,1.67646 -0.581311,3.6224 -0.84962,5.72328 -0.268309,2.10088 -0.539454,4.3567 -0.866634,6.65291 -0.327181,2.2962 -0.710396,4.6328 -1.202846,6.89524 -1.745026,8.01708 -3.215133,14.32998 -4.616778,19.32266 -1.401646,4.99269 -2.73483,8.66509 -4.206011,11.40139 -1.471181,2.7362 -3.080359,4.5362 -5.033991,5.7839 -1.953633,1.2477 -4.25172,1.9431 -7.10072,2.4703 -2.588973,0.479 -5.282715,0.3127 -7.867032,-0.3493 -2.584317,-0.6621 -5.059208,-1.8197 -7.210477,-3.3234 -2.151269,-1.5036 -3.978917,-3.3532 -5.268748,-5.399 -1.28983,-2.0458 -2.041843,-4.2879 -2.041843,-6.57646 0,-0.31251 -0.04871,-0.67274 -0.136666,-1.05622 -0.08795,-0.38348 -0.215146,-0.79022 -0.372109,-1.19574 -0.156962,-0.40552 -0.343694,-0.80982 -0.550722,-1.18843 -0.207028,-0.37861 -0.434353,-0.73153 -0.672503,-1.03429 -0.567479,-0.72143 -0.988162,-1.4364 -1.261981,-2.14723 -0.27382,-0.71083 -0.400776,-1.41752 -0.3808,-2.12238 0.01998,-0.70485 0.186884,-1.40788 0.500791,-2.1114 0.313908,-0.70352 0.774815,-1.40752 1.38279,-2.11432 1.050531,-1.2213 2.372622,-1.9517 3.764834,-2.26118 1.392212,-0.30948 2.854546,-0.19804 4.185563,0.26434 1.331017,0.46239 2.530718,1.27571 3.397664,2.37 0.866947,1.09429 1.401139,2.46955 1.401139,4.0558 0,0.54362 -0.04371,1.02525 -0.147497,1.47258 -0.10379,0.44733 -0.267665,0.86035 -0.508003,1.26677 -0.240337,0.40641 -0.557137,0.80621 -0.966778,1.22708 -0.409641,0.42087 -0.912122,0.86281 -1.523822,1.35352 -0.72486,0.58148 -1.278584,1.04029 -1.68575,1.43176 -0.407166,0.39146 -0.667774,0.71558 -0.806403,1.02769 -0.138629,0.31211 -0.155278,0.6122 -0.07453,0.95561 0.08075,0.34341 0.258904,0.7301 0.509879,1.2155 0.771569,1.4922 1.692591,2.7714 2.736082,3.825 1.043491,1.0536 2.209451,1.8816 3.470896,2.4714 1.261446,0.5898 2.618376,0.9414 4.043808,1.0422 1.425431,0.1008 2.919364,-0.049 4.454814,-0.4627 1.706504,-0.4595 3.171656,-1.2219 4.473248,-2.4626 1.301591,-1.2407 2.439622,-2.9597 3.491883,-5.33233 1.052262,-2.37267 2.018754,-5.39904 2.977268,-9.25451 0.958515,-3.85547 1.909051,-8.54004 2.929401,-14.22911 1.078457,-6.01306 1.862648,-10.21084 2.462423,-13.36242 0.599775,-3.15158 1.015134,-5.25697 1.355925,-7.08525 0.340792,-1.82827 0.607018,-3.37943 0.908526,-5.42256 0.301509,-2.04313 0.638301,-4.57823 1.120226,-8.37437 0.07463,-0.58785 0.07655,-1.08433 0.02648,-1.52136 -0.05007,-0.43702 -0.152134,-0.81458 -0.285472,-1.16461 -0.133339,-0.35003 -0.297953,-0.67252 -0.473126,-0.9994 -0.175173,-0.32687 -0.360905,-0.65813 -0.53648,-1.02569 -0.163884,-0.34309 -0.533251,-0.71693 -1.040209,-1.06418 -0.506958,-0.34724 -1.151507,-0.66789 -1.865754,-0.90458 -0.714248,-0.23669 -1.498195,-0.38942 -2.283948,-0.40083 -0.785754,-0.0114 -1.573314,0.11849 -2.294789,0.44707 -2.20985,1.00644 -3.478537,1.62862 -4.427462,2.10037 -0.948925,0.47175 -1.578088,0.79306 -2.508888,1.19774 -0.9308,0.40469 -2.163237,0.89275 -4.318712,1.69801 -2.155475,0.80525 -5.233988,1.92769 -9.856938,3.60113 -3.487049,1.26226 -6.414436,2.42614 -8.895609,3.5706 -2.481174,1.14445 -4.516133,2.26947 -6.218327,3.45401 -1.702194,1.18454 -3.071623,2.4286 -4.221734,3.81113 -1.150111,1.38253 -2.080905,2.90352 -2.90583,4.64194 -1.083565,2.28346 -1.393072,4.56873 -1.133634,6.62237 0.259438,2.05363 1.087821,3.87562 2.280037,5.23254 1.192216,1.35691 2.748265,2.24874 4.463036,2.44204 1.71477,0.19329 3.588261,-0.31194 5.415361,-1.74914 0.483716,-0.38049 0.857912,-0.7004 1.135623,-0.9992 0.277711,-0.2988 0.458937,-0.57649 0.556714,-0.87255 0.09778,-0.29606 0.112105,-0.61049 0.05602,-0.98277 -0.05608,-0.37228 -0.182583,-0.8024 -0.366458,-1.32985 -0.484303,-1.38923 -0.493098,-2.75284 -0.142883,-3.98508 0.350216,-1.23225 1.059441,-2.33313 2.011179,-3.19692 0.951738,-0.86379 2.145989,-1.4905 3.466256,-1.77437 1.320266,-0.28388 2.766548,-0.22494 4.222348,0.28256 1.2296,0.42864 2.225662,1.1393 2.965664,2.01328 0.740001,0.87399 1.223942,1.91131 1.429298,2.99328 0.205356,1.08197 0.132128,2.2086 -0.242207,3.26121 -0.374336,1.0526 -1.04978,2.03119 -2.048855,2.81707 -0.313747,0.2468 -0.636295,0.48237 -0.950682,0.69692 -0.314387,0.21454 -0.620613,0.40805 -0.901713,0.5707 -0.281101,0.16266 -0.537077,0.29447 -0.750966,0.38562 -0.213888,0.0911 -0.385689,0.14162 -0.498439,0.14162 -0.11275,0 -0.3219,0.082 -0.603225,0.23013 -0.281325,0.14811 -0.634825,0.36229 -1.036275,0.6266 -0.40145,0.26431 -0.85085,0.57875 -1.323975,0.92737 -0.473125,0.34862 -0.969975,0.73142 -1.466325,1.13244 -1.26594,1.02281 -2.327679,1.83906 -3.275157,2.48811 -0.947478,0.64904 -1.780694,1.13088 -2.589591,1.48486 -0.808896,0.35398 -1.593471,0.58012 -2.443667,0.71775 -0.850195,0.13764 -1.76601,0.18678 -2.837385,0.18678 -2.827825,0 -5.315763,-0.86467 -7.363713,-2.35821 -2.04795,-1.49354 -3.655912,-3.61595 -4.723787,-6.13144 -1.067875,-2.51549 -1.595663,-5.42406 -1.483263,-8.4899 0.1124,-3.06585 0.864988,-6.28897 2.357863,-9.43358 1.077961,-2.27063 2.176873,-4.18135 3.534233,-5.90203 1.35736,-1.72069 2.973168,-3.25134 5.084922,-4.76185 2.111753,-1.51051 4.719452,-3.00087 8.060594,-4.64097 3.341141,-1.6401 7.415726,-3.42993 12.461251,-5.53938 1.071697,-0.44806 2.216459,-0.95344 3.367981,-1.4832 1.151523,-0.52977 2.309808,-1.08394 3.408553,-1.62957 1.098744,-0.54563 2.137948,-1.08273 3.05131,-1.57837 0.913362,-0.49564 1.700881,-0.94983 2.296256,-1.32964 2.571847,-1.64066 5.109489,-3.70853 7.66493,-6.27516 2.555442,-2.56664 5.128683,-5.63203 7.771727,-9.26771 2.643045,-3.63569 5.355889,-7.84167 8.190543,-12.68949 2.834654,-4.84781 5.791117,-10.33747 8.9214,-16.54049 l 1.967225,-3.89829 1.967225,-3.89828 1.967225,-3.89829 1.967225,-3.89829 -0.7053,-0.72769 -0.7053,-0.72769 -0.7053,-0.72769 -0.7053,-0.72769 -0.7053,-0.72768 -0.7053,-0.72769 -0.7053,-0.72768 -0.7053,-0.72769 -0.723025,0.44686 -0.723025,0.44685 -0.723025,0.44686 -0.723025,0.44685 -0.723025,0.44686 -0.723025,0.44685 -0.723025,0.44686 -0.723025,0.44685 -1.24235,-1.08139 -1.24235,-1.08139 -1.24235,-1.0814 -1.24235,-1.08139 c -0.683296,-0.59477 -1.401903,-1.23246 -2.115736,-1.87583 -0.713834,-0.64336 -1.422895,-1.29239 -2.087101,-1.90983 -0.664207,-0.61744 -1.283561,-1.20329 -1.817981,-1.7203 -0.534421,-0.517 -0.983908,-0.96515 -1.308382,-1.3072 l -0.58995,-0.6219 -0.58995,-0.6219 -0.58995,-0.6219 -0.58995,-0.6219 1.29315,-1.83407 1.29315,-1.83408 1.29315,-1.83408 1.29315,-1.83407 c 0.711232,-1.00874 1.389044,-1.99599 2.005363,-2.91689 0.616319,-0.92089 1.171143,-1.77544 1.6364,-2.51878 0.465256,-0.74333 0.84094,-1.37546 1.098973,-1.85152 0.258033,-0.47606 0.398414,-0.79606 0.393064,-0.91513 -0.0053,-0.11908 -0.08967,-0.42759 -0.237614,-0.88292 -0.147939,-0.45533 -0.359392,-1.05747 -0.618698,-1.76381 -0.259307,-0.70633 -0.566464,-1.51686 -0.905815,-2.38895 -0.33935,-0.8721 -0.710894,-1.80576 -1.098973,-2.75836 l -0.7056,-1.73201 -0.7056,-1.73201 -0.7056,-1.73201 -0.7056,-1.73201 -1.828175,-0.37863 -1.828175,-0.37862 -1.828175,-0.37863 -1.828175,-0.37862 c -1.0055,-0.20824 -2.020094,-0.41969 -2.993136,-0.6236 -0.973042,-0.20391 -1.904533,-0.40028 -2.743826,-0.57836 -0.839294,-0.17807 -1.586391,-0.33787 -2.190646,-0.46862 -0.604254,-0.13076 -1.065667,-0.23249 -1.333592,-0.29443 -0.469976,-0.10866 -0.826745,-0.21279 -1.097537,-0.45622 -0.270792,-0.24342 -0.455608,-0.62613 -0.581676,-1.29195 -0.126069,-0.66581 -0.193391,-1.61473 -0.229195,-2.99056 -0.03581,-1.37584 -0.04009,-3.17859 -0.04009,-5.55207 v -2.46007 -2.46008 -2.46007 -2.46007 l 2.110875,-0.37633 2.110875,-0.37633 2.110875,-0.37633 2.110875,-0.37633 c 2.49655,-0.44509 4.43375,-0.80765 5.952894,-1.15038 1.519143,-0.34274 2.620231,-0.66564 3.444556,-1.03142 0.824325,-0.36577 1.371888,-0.77442 1.783981,-1.28863 0.412094,-0.51421 0.688719,-1.13399 0.971169,-1.92203 0.118266,-0.32996 0.279736,-0.76672 0.470263,-1.27345 0.190526,-0.50673 0.410108,-1.08344 0.644598,-1.69334 0.23449,-0.60989 0.483896,-1.25295 0.734057,-1.89239 0.250161,-0.63943 0.501075,-1.27525 0.738582,-1.87063 l 0.431825,-1.08251 0.431825,-1.0825 0.431825,-1.08251 0.431825,-1.0825 -1.3889,-1.9369 -1.3889,-1.9369 -1.3889,-1.9369 -1.3889,-1.9369 -1.3889,-1.9369 -1.3889,-1.9369 -1.3889,-1.9369 -1.3889,-1.9369 1.77195,-1.78121 1.77195,-1.78121 1.77195,-1.78121 1.77195,-1.78121 1.77195,-1.78121 1.77195,-1.78121 1.77195,-1.78121 1.77195,-1.78121 1.9073,1.28247 1.9073,1.28247 1.9073,1.28248 1.9073,1.28247 c 1.049021,0.70536 2.087577,1.37866 3.066707,1.99184 0.979129,0.61318 1.898831,1.16624 2.710144,1.63114 0.811313,0.46489 1.514241,0.84162 2.059821,1.10212 0.54557,0.2605 0.93381,0.40478 1.11573,0.40478 0.18193,0 0.51603,-0.0642 0.96387,-0.1802 0.44784,-0.11597 1.00942,-0.28369 1.64632,-0.49065 0.63689,-0.20697 1.34909,-0.45318 2.09817,-0.72616 0.74908,-0.27298 1.53504,-0.57273 2.31944,-0.88674 1.61555,-0.64675 2.84808,-1.11891 3.81604,-1.6442 0.96796,-0.52528 1.67135,-1.10369 2.22861,-1.96291 0.55726,-0.85923 0.96839,-1.99927 1.35185,-3.64782 0.38346,-1.64855 0.73924,-3.80562 1.1858,-6.6989 l 0.7397,-4.79252 0.7397,-4.79253 0.7397,-4.79252 0.7397,-4.79252 c 0.2019,0.0183 -0.9288,-0.33 -2.0499,-0.54152 -1.1211,-0.21153 -2.1993,-0.29738 -2.0026,-0.26261 0.1967,0.0348 -0.9447,-0.13928 -3.0596,-0.0446 -2.1148,0.0947 -5.202,0.48975 -5.0055,0.46324 0.2087,-0.0281 -0.9945,0.21272 -2.3312,0.80468 -1.3368,0.59195 -2.5796,1.71154 -2.4366,1.57455 0.2931,-0.28091 -0.3659,0.41408 -1.0478,1.15582 -0.6819,0.74174 -1.2372,1.84326 -1.3234,2.022 -0.1465,0.30392 -0.5872,1.24866 -1.293702,1.90818 -0.7065,0.65952 -1.142,0.79624 -1.3308,0.85983 -0.2706,0.0911 -1.0113,0.23777 -2.0176,0.19813 -1.0064,-0.0397 -1.2717,-0.0236 -1.4791,-0.0196 -0.059,0.001 -0.1199,0.004 -0.1738,0.006 -0.104,0.004 -0.2079,0.005 -0.3034,0.008 -0.06,10e-4 -0.1252,0.002 -0.1942,0.003 -0.069,5.7e-4 -0.1424,7.6e-4 -0.2194,4.1e-4 -0.077,-3.5e-4 -0.1579,-10e-4 -0.2421,-0.003 -0.084,-0.002 -0.1717,-0.004 -0.2623,-0.007 -0.091,-0.003 -0.1769,-0.005 -0.2591,-0.006 -0.082,-8.9e-4 -0.1601,-7.8e-4 -0.234,8e-5 -0.074,8.6e-4 -0.1435,0.002 -0.2091,0.005 -0.1184,0.003 -0.2329,0.0115 -0.3442,0.017 -0.1201,0.009 -0.2225,0.0133 -0.3339,0.02 -0.033,9.3e-4 0,-0.0856 0.045,-0.21529 0.046,-0.12088 0.1434,-0.32254 0.2087,-0.57845 0.065,-0.25591 0.181,-0.51082 0.29,-0.86527 0.109,-0.35444 0.2776,-0.81393 0.4267,-1.24699 0.1492,-0.43305 0.3064,-0.86176 0.492,-1.3535 0.1856,-0.49174 0.3279,-1.041 0.5464,-1.5715 0.2186,-0.53051 0.3478,-1.08094 0.5957,-1.63029 0.248,-0.54934 0.471,-1.10865 0.7447,-1.65692 0.5474,-1.09653 0.9249,-2.23209 1.561,-3.22344 0.6361,-0.99136 1.248,-1.92689 1.8299,-2.69658 0.5818,-0.7697 1.516302,-1.48783 1.901002,-1.91939 0.3847,-0.43156 2.2053,-1.99601 2.5363,-2.19298 0.8206,-0.48841 2.4591,-2.06007 6.5648,-3.18199 1.2747,-0.34833 2.5927,-0.51243 3.9112,-0.68286 1.3186,-0.17043 1.9337,-0.1526 3.0743,-0.23748 1.1765,-0.0875 2.3599,-0.12728 3.0787,-0.13805 0.6576,-0.008 1.3715,0.007 1.8845,0.0484 0.4316,0.0454 0.7003,0.0333 1.0076,0.0806 0.305,0.047 0.9225,0.12664 1.2857,0.21416 0.3631,0.0875 0.6224,0.24182 1.0068,0.33358 1.5374,0.36705 2.7938,0.92104 2.9737,1.01097 0.1799,0.0899 0.1392,0.14589 2.3969,1.17306 2.2577,1.02716 2.9491,1.32963 3.1305,1.41524 0.045,0.0214 1.8665,0.79535 2.1231,0.86736 0.2565,0.072 1.3393,0.67009 1.7467,0.77816 0.4074,0.10807 2.2555,0.82338 2.7534,0.95301 0.498,0.12964 1.0106,0.31329 1.5388,0.44998 0.5282,0.13669 0.9783,0.24202 1.4764,0.37126 0.4981,0.12923 0.9036,0.21986 1.3113,0.32713 0.4077,0.10727 0.7239,0.13744 0.9808,0.20824 0.257,0.0708 0.5017,0.0689 0.8171,0.12784 0.4614,0.0762 0.7533,0.0765 1.0839,0.13374 0.3278,0.0322 0.7274,0.0725 1.1301,0.0957 0.4033,0.0233 0.7367,0.0553 1.1639,0.0447 0.4272,-0.0106 1.0185,-0.0525 1.422,-0.0614 0.4035,-0.009 0.8111,-0.0518 1.1388,-0.10584 0.3556,-0.0587 0.494,-0.077 0.705,-0.10837 0.2288,-0.0341 0.3156,-0.0697 0.8392,-0.22441 0.4471,-0.13214 0.6726,-0.15229 1.1143,-0.34473 0.4067,-0.17723 0.418,-0.13582 1.1355,-0.49257 0.7176,-0.35675 1.689,-1.06549 2.4379,-1.71816 0.6755,-0.58863 1.2192,-1.36626 1.814,-2.24074 0.621,-0.9129 1.3956,-2.38923 2.2812,-2.84042 0.8856,-0.45119 1.7416,-0.43614 2.5418,-0.49398 0.6739,-0.0487 2.0482,0.0143 2.5203,0.11746 0.4884,0.10671 0.7707,0.30536 1.1119,0.65919 0.31,0.32135 0.2851,1.32558 0.06,2.0338 -0.2206,0.69402 -0.5608,1.95905 -1.1385,3.04546 -0.5921,1.11344 -1.5856,3.50586 -2.3969,4.81019 -0.8349,1.34232 -1.4399,2.37923 -2.6089,3.7412 -1.0988,1.28024 -1.6304,1.90029 -2.8115,2.92761 -1.1922,1.03691 -2.1074,1.56963 -3.0381,2.11308 -1.0877,0.63509 -1.4435,0.753 -1.9993,1.02244 -0.6532,0.31665 -1.8672,0.71945 -2.402,0.9461 -0.4756,0.20161 -0.5684,0.18165 -0.8491,0.2419 -0.3457,0.0742 -0.8217,0.23185 -1.4275,0.36356 -0.6256,0.13599 -1.7624,0.34746 -2.5401,0.43561 -0.8069,0.0915 -1.497,0.16182 -2.365,0.20758 -0.868,0.0458 -1.804,0.0271 -2.609,0.009 -0.8115,-0.0178 -1.5692,-0.0134 -2.1744,-0.0548 -0.6379,-0.0437 -1.2211,-0.14413 -1.5395,-0.2027 -0.3466,-0.0637 -0.4704,-0.0522 -0.4205,-0.044 0.004,0.30228 0.24937,1.80999 0.6204,3.90621 0.37103,2.09623 0.86748,4.78099 1.37289,7.43739 0.5054,2.6564 1.01977,5.28444 1.42664,7.26724 0.40687,1.98279 0.70625,3.32035 0.78167,3.39577 0.19165,0.19164 1.04094,0.61974 2.22481,1.15409 1.18387,0.53435 2.70232,1.17495 4.2323,1.79159 1.52998,0.61664 3.07149,1.20933 4.30148,1.64786 1.22998,0.43852 2.14844,0.72289 2.43231,0.72289 0.15685,0 0.51126,-0.0903 1.0223,-0.27123 0.51103,-0.18093 1.17871,-0.45251 1.96209,-0.81507 0.78338,-0.36256 1.68247,-0.81611 2.65634,-1.361 0.97388,-0.54488 2.02254,-1.1811 3.10507,-1.90899 l 1.96825,-1.32345 1.96825,-1.32344 1.96825,-1.32345 1.96825,-1.32345 1.73735,1.73735 1.73735,1.73736 1.73735,1.73735 1.73735,1.73735 1.73735,1.73735 1.73735,1.73736 1.73735,1.73735 1.73735,1.73735 -1.34422,2.09597 -1.34423,2.09597 -1.34422,2.09598 -1.34423,2.09597 -1.34422,2.09597 -1.34423,2.09598 -1.34422,2.09597 -1.34423,2.09597 0.68615,1.65777 0.68615,1.65777 0.68615,1.65777 0.68615,1.65777 c 0.37738,0.91178 0.74579,1.79103 1.08861,2.59977 0.34282,0.80874 0.66006,1.54696 0.9351,2.17667 0.27505,0.6297 0.50791,1.15089 0.68199,1.52557 0.17408,0.37467 0.28938,0.60283 0.3293,0.64648 0.0399,0.0436 0.32542,0.12972 0.80682,0.24789 0.48141,0.11818 1.15871,0.26843 1.98221,0.44039 0.8235,0.17195 1.79321,0.36561 2.85942,0.57059 1.06621,0.20498 2.22893,0.42129 3.43845,0.63854 1.20955,0.21725 2.37524,0.43575 3.44679,0.64468 1.07156,0.20893 2.04898,0.4083 2.88201,0.58731 0.83302,0.17901 1.52165,0.33766 2.01561,0.46514 0.49395,0.12748 0.79324,0.2238 0.84759,0.27815 0.0543,0.0543 0.12047,0.37603 0.19342,0.91041 0.073,0.53437 0.15275,1.28145 0.23444,2.18662 0.0817,0.90516 0.16529,1.9684 0.24586,3.1351 0.0806,1.1667 0.15811,2.43686 0.22768,3.75586 0.10262,1.9454 0.17126,3.52219 0.20116,4.79797 0.0299,1.27579 0.021,2.25057 -0.0313,2.99194 -0.0524,0.74137 -0.14828,1.24933 -0.29249,1.59149 -0.14421,0.34217 -0.33673,0.51852 -0.58233,0.59667 -0.16652,0.053 -0.55687,0.14353 -1.11941,0.26174 -0.56255,0.11822 -1.2973,0.2641 -2.15264,0.42779 -0.85534,0.16369 -1.83126,0.34517 -2.87616,0.53457 -1.0449,0.18941 -2.15877,0.38673 -3.28999,0.5821 l -2.05675,0.35521 -2.05675,0.35521 -2.05675,0.35521 -2.05675,0.35521 -0.8056,1.84488 -0.8056,1.84488 -0.8056,1.84488 -0.8056,1.84488 -0.80562,1.84488 -0.80563,1.84487 -0.80562,1.84488 -0.80563,1.84488 1.31718,1.95893 1.31717,1.95892 1.31718,1.95893 1.31717,1.95893 1.31718,1.95893 1.31717,1.95892 1.31718,1.95893 1.31717,1.95893 -1.7272,1.72722 -1.7272,1.72722 -1.7272,1.72723 -1.7272,1.72722 c -1.47238,1.4724 -2.65561,2.63225 -3.62423,3.53204 -0.96862,0.89979 -1.72262,1.53951 -2.33654,1.97165 -0.61393,0.43215 -1.08779,0.65671 -1.49612,0.72615 -0.40834,0.0694 -0.75116,-0.0162 -1.10301,-0.20451 -0.34473,-0.18449 -0.64978,-0.29682 -0.95082,-0.31702 -0.30104,-0.0202 -0.59808,0.0517 -0.92677,0.23575 -0.32869,0.18403 -0.68904,0.48016 -1.11671,0.90836 -0.42768,0.42821 -0.92268,0.98847 -1.5207,1.70077 l -0.71602,0.85285 -0.71603,0.85286 -0.71602,0.85285 -0.71603,0.85286 2.0449,2.86292 2.0449,2.86292 2.0449,2.86293 2.0449,2.86292 c 4.98863,6.98424 9.70977,13.32414 14.1458,18.99989 4.43602,5.67576 8.58694,10.68736 12.43513,15.01499 3.84818,4.32763 7.39364,7.97129 10.61874,10.91117 3.22511,2.93988 6.12986,5.17597 8.69663,6.68847 3.77357,2.22362 7.55199,3.92273 11.28573,5.09571 3.73373,1.17298 7.4228,1.81983 11.01768,1.93889 3.59488,0.11906 7.09558,-0.28965 10.45258,-1.22779 3.357,-0.93813 6.57031,-2.40568 9.59041,-4.40429 0.68077,-0.45051 1.22768,-0.84397 1.66511,-1.21768 0.43743,-0.3737 0.76539,-0.72764 1.00824,-1.09912 0.24286,-0.37149 0.40062,-0.7605 0.49767,-1.20436 0.097,-0.44385 0.13338,-0.94253 0.13338,-1.53334 0,-1.60709 0.5284,-3.00399 1.38686,-4.1188 0.85846,-1.1148 2.04697,-1.9475 3.3672,-2.42619 1.32023,-0.47868 2.77218,-0.60335 4.1575,-0.30209 1.38532,0.30125 2.70402,1.02844 3.75774,2.25347 0.57457,0.66798 1.01719,1.24304 1.33613,1.77771 0.31895,0.53466 0.51423,1.02893 0.59412,1.5353 0.0799,0.50638 0.0444,1.02487 -0.0982,1.60798 -0.14258,0.58311 -0.39227,1.23085 -0.74077,1.99572 -0.25607,0.56201 -0.63897,1.09509 -1.11336,1.57859 -0.4744,0.48349 -1.04028,0.9174 -1.66231,1.28105 -0.62202,0.36366 -1.30019,0.65706 -1.99916,0.85955 -0.69897,0.20249 -1.41874,0.31407 -2.12397,0.31407 -0.23605,0 -0.58238,0.0957 -1.00608,0.26837 -0.42369,0.17271 -0.92475,0.42248 -1.47026,0.73071 -0.5455,0.30822 -1.13546,0.67491 -1.73694,1.08145 -0.60148,0.40654 -1.21449,0.85293 -1.80612,1.32059 -1.8841,1.4893 -3.60567,2.69417 -5.33891,3.66425 -1.73325,0.97007 -3.47816,1.70535 -5.40895,2.25546 -1.93078,0.55012 -4.04743,0.91507 -6.52414,1.14448 -2.47671,0.22942 -5.31347,0.3233 -8.6845,0.33129 -3.30927,0.008 -6.16979,0.0366 -8.70961,0.0248 -2.53983,-0.0118 -4.75896,-0.0643 -6.78549,-0.21897 -2.02652,-0.15465 -3.86044,-0.41151 -5.62981,-0.83213 -1.76938,-0.42062 -3.47421,-1.00501 -5.24259,-1.81474 0,0 -0.23382,-0.0802 -0.61362,-0.21754 -0.37979,-0.13738 -0.90557,-0.33197 -1.48948,-0.56083 -0.58391,-0.22885 -1.22596,-0.49196 -1.83831,-0.76639 -0.61235,-0.27442 -1.19499,-0.56016 -1.66009,-0.83425 -0.4448,-0.26213 -0.84026,-0.49169 -1.21024,-0.70412 -0.36999,-0.21243 -0.7145,-0.40774 -1.05739,-0.60135 -0.3429,-0.19362 -0.68418,-0.38554 -1.0477,-0.59122 -0.36353,-0.20568 -0.74929,-0.4251 -1.18117,-0.67372 -0.50106,-0.28844 -0.96771,-0.44283 -1.39677,-0.50596 -0.42907,-0.0631 -0.82055,-0.035 -1.17125,0.0416 -0.35071,0.0766 -0.66064,0.20164 -0.92661,0.33236 -0.26598,0.13071 -0.48799,0.26709 -0.66287,0.36634 -0.18844,0.10695 -0.36323,0.22542 -0.52129,0.35977 -0.15807,0.13436 -0.29942,0.28459 -0.421,0.45505 -0.12157,0.17047 -0.22338,0.36117 -0.30235,0.57645 -0.079,0.21528 -0.13511,0.45515 -0.16536,0.72396 -0.0534,0.47431 0.0453,0.91608 0.24387,1.32771 0.19859,0.41163 0.49711,0.79312 0.84344,1.14691 0.34633,0.35378 0.74048,0.67985 1.13033,0.98062 0.38985,0.30077 0.77541,0.57625 1.10456,0.82885 0.18218,0.13981 0.42171,0.32124 0.70193,0.52884 0.28022,0.2076 0.60114,0.44138 0.94607,0.68587 0.34494,0.2445 0.7139,0.49971 1.09022,0.7502 0.37632,0.25049 0.76001,0.49624 1.13438,0.72182 0.39697,0.23919 0.6163,0.431 1.04463,0.64309 0.42834,0.2121 1.06567,0.44448 2.29866,0.76481 1.23299,0.32034 3.06163,0.72864 5.87257,1.29257 2.81093,0.56392 6.60417,1.28348 11.76634,2.22634 4.3342,0.79163 7.86005,1.46465 10.79337,2.08123 2.93332,0.61659 5.27412,1.17674 7.23821,1.74264 1.96408,0.56591 3.55146,1.13756 4.97796,1.77716 1.4265,0.63959 2.69211,1.34712 4.01266,2.18477 1.84562,1.17071 3.35792,2.51907 4.52773,4.01149 1.16982,1.49242 1.99715,3.12891 2.47287,4.87586 0.47571,1.74696 0.5998,3.60439 0.36311,5.53871 -0.23668,1.93432 -0.83413,3.94553 -1.80151,6.00005 -0.66673,1.416 -1.35628,2.67337 -2.09295,3.79716 -0.73667,1.12378 -1.52045,2.11398 -2.37563,2.99563 -0.85517,0.88164 -1.78174,1.65473 -2.80398,2.34431 -1.02225,0.68957 -2.14016,1.29563 -3.37804,1.8432 -2.1057,0.93145 -4.26698,1.40261 -6.38558,1.45187 -2.1186,0.0493 -4.19452,-0.32338 -6.12949,-1.07951 -1.93498,-0.75614 -3.72901,-1.89577 -5.28384,-3.38051 -1.55482,-1.48474 -2.87044,-3.31458 -3.84859,-5.45112 -0.33588,-0.73364 -0.69436,-1.42386 -1.0661,-2.05838 -0.37174,-0.63452 -0.75675,-1.21335 -1.14568,-1.72421 -0.38892,-0.51086 -0.78176,-0.95375 -1.16918,-1.31641 -0.38742,-0.36265 -0.76941,-0.64507 -1.13664,-0.83498 -1.19501,-0.618 -2.11746,-1.43695 -2.76062,-2.3656 -0.64316,-0.92865 -1.00704,-1.96701 -1.0849,-3.02382 -0.0779,-1.05681 0.1303,-2.13207 0.63119,-3.13454 0.5009,-1.00247 1.29453,-1.93214 2.38763,-2.69777 0.76993,-0.53928 1.56588,-0.91727 2.37171,-1.13594 0.80582,-0.21868 1.62152,-0.27802 2.43094,-0.18 0.80941,0.098 1.61255,0.35341 2.39326,0.76422 0.78071,0.41081 1.53899,0.97704 2.25869,1.69672 0.73936,0.73935 1.30778,1.42594 1.70805,2.08631 0.40027,0.66038 0.63238,1.29453 0.69914,1.92898 0.0668,0.63446 -0.0318,1.26922 -0.293,1.93082 -0.26116,0.66159 -0.68489,1.35003 -1.26839,2.09182 -0.41917,0.53289 -0.73348,0.93416 -0.93959,1.27884 -0.20611,0.34467 -0.30403,0.63274 -0.29042,0.93923 0.0136,0.30648 0.13873,0.63138 0.37871,1.0497 0.23998,0.41832 0.5948,0.93007 1.0678,1.61025 1.41963,2.04146 3.3579,3.23048 5.46676,3.70335 2.10886,0.47287 4.3883,0.2296 6.49029,-0.59354 2.10199,-0.82313 4.02653,-2.22611 5.42557,-4.07266 1.39904,-1.84655 2.27258,-4.13667 2.27258,-6.73405 0,-0.88341 -0.27992,-1.83293 -0.77271,-2.77982 -0.4928,-0.9469 -1.19847,-1.89117 -2.04998,-2.7641 -0.8515,-0.87292 -1.84884,-1.6745 -2.92498,-2.336 -1.07613,-0.66151 -2.23105,-1.18294 -3.39773,-1.49557 -0.4691,-0.1257 -1.24953,-0.25771 -2.25582,-0.40307 -1.00629,-0.14536 -2.23843,-0.30408 -3.61095,-0.48322 -1.37253,-0.17913 -2.88544,-0.37867 -4.45325,-0.60568 -1.56781,-0.227 -3.19053,-0.48148 -4.78268,-0.77047 -3.8487,-0.69858 -7.26611,-1.39581 -10.28035,-2.07453 -3.01425,-0.67871 -5.62534,-1.33892 -7.86141,-1.96346 -2.23607,-0.62454 -4.09712,-1.21341 -5.61128,-1.74945 -1.51416,-0.53604 -2.68143,-1.01925 -3.52996,-1.43248 -1.35505,-0.65991 -2.46698,-1.26644 -3.39493,-1.8254 -0.92795,-0.55896 -1.67193,-1.07034 -2.2911,-1.53995 -0.61918,-0.46961 -1.11354,-0.89744 -1.54227,-1.28928 -0.42872,-0.39185 -0.7918,-0.74771 -1.1484,-1.07339 -0.65512,-0.59831 -1.5283,-1.13186 -2.51074,-1.58582 -0.98245,-0.45397 -2.07415,-0.82835 -3.16633,-1.10832 -1.09218,-0.27997 -2.18482,-0.46554 -3.16914,-0.54189 -0.98432,-0.0763 -1.86031,-0.0435 -2.51919,0.11346 -0.80653,0.19209 -1.46398,0.44494 -1.99247,0.77787 -0.52848,0.33292 -0.92799,0.74591 -1.21863,1.25827 -0.29064,0.51235 -0.4724,1.12407 -0.56538,1.85446 -0.093,0.73039 -0.0972,1.57944 -0.0327,2.56646 0.0417,0.63899 0.0639,1.33426 0.0764,2.04356 0.0125,0.7093 0.0153,1.43263 0.0182,2.12774 0.003,0.6951 0.006,1.36198 0.0192,1.95839 0.0131,0.59641 0.0363,1.12234 0.0793,1.53555 0.0363,0.34911 -0.0297,1.55839 -0.12903,3.24607 -0.0993,1.68768 -0.23186,3.85377 -0.32844,6.11647 -0.0966,2.26271 -0.15722,4.62203 -0.11271,6.69621 0.0445,2.07418 0.19418,3.8632 0.51818,4.9853 0.71294,2.4691 1.51811,4.5928 2.43395,6.38959 0.91584,1.79678 1.94234,3.26665 3.09792,4.42806 1.15558,1.16142 2.44025,2.01439 3.87243,2.57739 1.43218,0.56299 3.01188,0.83601 4.7575,0.83752 1.05735,7.5e-4 2.01346,-0.067 2.88689,-0.21104 0.87343,-0.14405 1.66419,-0.3644 2.39084,-0.66887 0.72665,-0.30447 1.38919,-0.69306 2.0062,-1.17358 0.617,-0.48051 1.18847,-1.05296 1.73297,-1.72515 0.72258,-0.89203 1.16383,-2.07593 1.3632,-3.35002 0.19936,-1.27409 0.15684,-2.63836 -0.0881,-3.89113 -0.24497,-1.25277 -0.69239,-2.39403 -1.30281,-3.22211 -0.61043,-0.82807 -1.38386,-1.34295 -2.28086,-1.34295 -1.19135,0 -2.30347,-0.33582 -3.26857,-0.9033 -0.96509,-0.56748 -1.78314,-1.36661 -2.38636,-2.29323 -0.60321,-0.92662 -0.99158,-1.98072 -1.09729,-3.05815 -0.10572,-1.07742 0.0712,-2.17816 0.59862,-3.19806 1.003,-1.93961 2.49322,-3.13173 4.12899,-3.69792 1.63576,-0.56619 3.41709,-0.50646 5.00229,0.0576 1.58521,0.56408 2.9743,1.6325 3.82561,3.08369 0.85131,1.45118 1.16484,3.28514 0.59891,5.38028 -0.12205,0.45184 -0.19121,0.90389 -0.20328,1.37743 -0.0121,0.47354 0.033,0.96857 0.1393,1.50637 0.10633,0.5378 0.27396,1.11837 0.5071,1.76299 0.23315,0.64462 0.53181,1.35329 0.90018,2.14729 0.74551,1.60689 1.28992,3.14009 1.63331,4.59737 0.3434,1.45728 0.48579,2.83863 0.42727,4.14181 -0.0585,1.30317 -0.31796,2.52818 -0.7782,3.67276 -0.46025,1.14458 -1.1213,2.20875 -1.98308,3.19025 -0.81973,0.93362 -1.61361,1.73211 -2.43375,2.42409 -0.82014,0.69198 -1.66655,1.27743 -2.59136,1.78498 -0.92481,0.5075 -1.92802,0.9372 -3.06176,1.3175 -1.13374,0.3803 -2.398,0.7113 -3.84493,1.0216 -2.37498,0.5093 -4.75526,0.532 -7.07615,0.1069 -2.32089,-0.4251 -4.58238,-1.2981 -6.71978,-2.5801 -2.1374,-1.28199 -4.15071,-2.973 -5.97522,-5.03425 -1.82451,-2.06124 -3.46022,-4.49271 -4.84245,-7.2556 -1.0929,-2.18458 -1.75441,-4.28078 -2.15157,-6.42022 -0.39716,-2.13945 -0.52998,-4.32214 -0.56552,-6.67972 -0.0356,-2.35757 0.0262,-4.89003 0.0181,-7.72899 -0.008,-2.83896 -0.0859,-5.98443 -0.40055,-9.56803 -0.13141,-1.49654 -0.20584,-3.10336 -0.2802,-4.80503 -0.0744,-1.70166 -0.14866,-3.49816 -0.2798,-5.37404 -0.13114,-1.87588 -0.31913,-3.83114 -0.62088,-5.85032 -0.30174,-2.01919 -0.71725,-4.1023 -1.30342,-6.23388 -0.16214,-0.5896 -0.48748,-1.24183 -0.92189,-1.89216 -0.43441,-0.65033 -0.97788,-1.29877 -1.57627,-1.88081 -0.59839,-0.58204 -1.2517,-1.09768 -1.90579,-1.48241 -0.65408,-0.38472 -1.30895,-0.63854 -1.91045,-0.69694 -0.93695,-0.091 -1.77246,-0.12307 -2.4996,-0.038 -0.72714,0.0851 -1.34589,0.28728 -1.84934,0.66498 -0.50344,0.37769 -0.89157,0.93086 -1.15744,1.7178 -0.26588,0.78693 -0.40949,1.80765 -0.42392,3.12044 -0.0138,1.26009 -0.0296,1.73685 -0.0453,1.90518 -0.0156,0.16834 -0.0311,0.0283 -0.0442,0.0546 -0.0132,0.0264 -0.024,0.21927 -0.0305,1.05354 -0.006,0.83427 -0.009,2.30994 -0.004,4.90191 0.007,3.95423 0.0305,7.06171 0.0861,9.60918 0.0556,2.54746 0.14315,4.53491 0.27754,6.24908 0.13439,1.71417 0.31565,3.15506 0.55873,4.60941 0.24308,1.45434 0.54799,2.92215 0.92969,4.69015 0.67067,3.10649 1.51949,6.2557 2.54584,9.51173 1.02634,3.25602 2.23021,6.61886 3.61097,10.15259 1.38075,3.53373 2.9384,7.23836 4.67231,11.17796 1.73391,3.93962 3.64408,8.11422 5.72988,12.58782 2.42709,5.2056 4.19582,9.4431 5.43419,12.956 1.23836,3.513 1.94636,6.3014 2.25195,8.609 0.3056,2.3076 0.2088,4.1343 -0.16241,5.7238 -0.37122,1.5896 -1.01685,2.9419 -1.80893,4.3008 -0.35861,0.6152 -0.75347,1.1842 -1.20039,1.7204 -0.44692,0.5362 -0.94589,1.0396 -1.51271,1.5237 -0.56683,0.4842 -1.20152,0.9491 -1.91987,1.4082 -0.71835,0.4591 -1.52035,0.9124 -2.42183,1.3734 -1.07851,0.5516 -2.00517,0.9911 -2.89437,1.3439 -0.8892,0.3527 -1.74092,0.6185 -2.66955,0.8227 -0.92863,0.2042 -1.93416,0.3467 -3.13097,0.4526 -1.19681,0.1059 -2.58488,0.1752 -4.27861,0.2332 -1.52983,0.052 -2.85226,0.072 -4.02799,0.053 -1.17573,-0.019 -2.20475,-0.077 -3.14774,-0.1804 -0.94298,-0.1035 -2.20634,-0.4402 -3.24114,-0.7355 -1.0348,-0.2953 -1.84105,-0.5491 -1.86983,-0.4867 l -1.5e-4,3e-4 -1.5e-4,3e-4 -1.5e-4,4e-4 z"
       style="fill:none;fill-opacity:1;stroke:#808000;stroke-width:1.4173228;stroke-linejoin:round;stroke-miterlimit:10;stroke-dasharray:none;stroke-dashoffset:0;stroke-opacity:1" />
    <text
       id="text819"
       y="601.36224"
       x="137"
       style="font-style:normal;font-weight:normal;line-height:0%;font-family:sans-serif;letter-spacing:0px;word-spacing:0px;fill:#000000;fill-opacity:1;stroke:none;stroke-width:1px;stroke-linecap:butt;stroke-linejoin:miter;stroke-opacity:1"
       xml:space="preserve"><tspan
         style="font-size:40px;line-height:1.25"
         y="601.36224"
         x="137"
         id="tspan817"
         sodipodi:role="line"> </tspan></text>
  </g>
</svg>
