<?xml version="1.0" encoding="UTF-8" standalone="no"?>
<!-- Created with Inkscape (http://www.inkscape.org/) -->

<svg
   xmlns:dc="http://purl.org/dc/elements/1.1/"
   xmlns:cc="http://creativecommons.org/ns#"
   xmlns:rdf="http://www.w3.org/1999/02/22-rdf-syntax-ns#"
   xmlns:svg="http://www.w3.org/2000/svg"
   xmlns="http://www.w3.org/2000/svg"
   xmlns:sodipodi="http://sodipodi.sourceforge.net/DTD/sodipodi-0.dtd"
   xmlns:inkscape="http://www.inkscape.org/namespaces/inkscape"
   width="80mm"
   height="98mm"
   id="svg3274"
   version="1.1"
   inkscape:version="0.91 r13725"
   sodipodi:docname="003.svg"
   inkscape:export-filename="/home/salvari/work/graphicsResources/BL/oshwi.png"
   inkscape:export-xdpi="90"
   inkscape:export-ydpi="90">
  <defs
     id="defs3276" />
  <sodipodi:namedview
     id="base"
     pagecolor="#9ad9ff"
     bordercolor="#666666"
     borderopacity="1.0"
     inkscape:pageopacity="0.76862745"
     inkscape:pageshadow="2"
     inkscape:zoom="1"
     inkscape:cx="-316.2695"
     inkscape:cy="130.15734"
     inkscape:document-units="px"
     inkscape:current-layer="layer1"
     showgrid="false"
     inkscape:window-width="1920"
     inkscape:window-height="1017"
     inkscape:window-x="-8"
     inkscape:window-y="-8"
     inkscape:window-maximized="1"
     units="mm" />
  <metadata
     id="metadata3279">
    <rdf:RDF>
      <cc:Work
         rdf:about="">
        <dc:format>image/svg+xml</dc:format>
        <dc:type
           rdf:resource="http://purl.org/dc/dcmitype/StillImage" />
        <dc:title></dc:title>
      </cc:Work>
    </rdf:RDF>
  </metadata>
  <g
     inkscape:label="Layer 1"
     inkscape:groupmode="layer"
     id="layer1"
     transform="translate(0,-705.11813)">
    <path
       d="m 176.11879,774.5795 c 8.8989,11.8165 13.16525,27.06425 10.1115,42.30951"
       id="path33"
       inkscape:connector-curvature="0"
       style="fill:none" />
    <path
       d="m 135.70758,752.66448 c 12.47458,0.65173 23.88927,5.77777 32.75392,13.62781"
       id="path35"
       inkscape:connector-curvature="0"
       style="fill:none" />
    <path
       style="fill:none;stroke:#010202;stroke-width:0.03396736;stroke-miterlimit:10"
       inkscape:connector-curvature="0"
       id="path42"
       d="M 142.4113,874.84754"
       stroke-miterlimit="10" />
    <path
       style="fill:none;stroke:#010202;stroke-width:0.03396736;stroke-miterlimit:10"
       inkscape:connector-curvature="0"
       id="path44"
       d="M 154.18334,874.5457"
       stroke-miterlimit="10" />
    <path
       style="fill:none;stroke:#010202;stroke-width:0.03396736;stroke-miterlimit:10"
       inkscape:connector-curvature="0"
       id="path46"
       d="M 142.4113,874.51974"
       stroke-miterlimit="10" />
    <path
       style="fill:none;stroke:#010202;stroke-width:0.03396736;stroke-miterlimit:10"
       inkscape:connector-curvature="0"
       id="path48"
       d="M 153.99445,879.15891"
       stroke-miterlimit="10" />
    <path
       style="fill:none;stroke:#010202;stroke-width:0.03396736;stroke-miterlimit:10"
       inkscape:connector-curvature="0"
       id="path50"
       d="M 142.22213,879.13295"
       stroke-miterlimit="10" />
    <path
       style="fill:#ffffff;fill-opacity:1;stroke:#000000;stroke-width:0.42865035;stroke-linejoin:round;stroke-miterlimit:10;stroke-dasharray:none;stroke-dashoffset:0;stroke-opacity:1"
       d="m -709.61481,1106.3603 c -2.39822,-0.8911 -5.19793,-2.0685 -6.2216,-2.6163 -1.02367,-0.5479 -3.39309,-0.9961 -5.26538,-0.9961 -4.64877,0 -7.96776,-2.6688 -7.96776,-6.4069 0,-6.3796 8.47536,-9.4188 12.66929,-4.5431 1.12904,1.3126 2.05279,3.2853 2.05279,4.3837 0,1.7347 0.64506,2.1267 4.90746,2.9827 6.16428,1.238 14.15124,1.2677 17.33577,0.065 3.41155,-1.289 7.02104,-4.9486 7.63416,-7.7401 0.72867,-3.3176 -1.74169,-9.2843 -9.79023,-23.6465 -9.30976,-16.6134 -12.73969,-23.5914 -15.50699,-31.5485 l -2.33831,-6.7237 -0.0478,-29.0111 c -0.048,-29.08324 -1.17848,-43.78311 -3.31258,-43.07174 -1.22061,0.40687 -4.65356,9.75387 -6.90932,18.81223 -1.54142,6.1898 -1.79633,9.45609 -1.58911,20.36246 0.61271,32.24885 0.897,29.01585 -3.69326,42.00125 -2.273,6.43 -5.27419,14.9365 -6.6693,18.9032 -2.41018,6.8527 -3.17874,13.0558 -1.99864,16.1311 1.17548,3.0633 9.34344,5.0744 13.74665,3.3848 2.17603,-0.8351 3.05469,-4.0698 2.0721,-7.6285 -0.68715,-2.4886 -1.54897,-3.4047 -4.20131,-4.466 -6.24084,-2.4971 -6.71883,-9.0251 -0.88184,-12.0436 2.19682,-1.136 3.2345,-1.2101 5.67323,-0.4053 3.65862,1.2075 4.81694,3.2115 4.62273,7.9979 -0.082,2.0204 0.24621,5.5471 0.72931,7.837 1.6043,7.6044 -1.1451,13.3419 -7.37941,15.3994 -4.8273,1.5931 -16.5998,0.6306 -20.30661,-1.6604 -7.55905,-4.6717 -7.52256,-11.8525 0.17286,-34.0138 8.29848,-23.898 8.85543,-28.0627 6.06801,-45.375 -1.24675,-7.74346 -0.45249,-18.58455 2.23198,-30.46492 1.14928,-5.08627 1.95252,-9.38484 1.78498,-9.55239 -0.93272,-0.93272 -9.19382,21.63123 -13.22433,36.12027 -2.87429,10.33264 -3.04509,11.75084 -3.75466,31.17614 -0.78281,21.4304 -1.77727,28.2447 -5.62805,38.5649 -4.3678,11.7059 -12.45351,20.4599 -21.66678,23.4578 -2.38152,0.7749 -5.54513,2.1403 -7.03026,3.0343 -3.89112,2.3422 -6.95492,2.0625 -9.92345,-0.906 -3.89757,-3.8976 -2.99528,-7.8976 2.27855,-10.1011 2.5878,-1.0813 3.35996,-1.0592 6.46939,0.185 3.30856,1.3238 3.74884,1.3144 6.99347,-0.1487 6.44292,-2.9053 10.92209,-9.6959 13.8729,-21.0316 1.37763,-5.2923 1.89342,-11.3913 2.53906,-30.0236 0.93249,-26.9104 2.01172,-33.58641 8.6287,-53.3766 2.28761,-6.84184 4.01148,-12.59049 3.83081,-12.77477 -0.74422,-0.75912 -17.07803,33.82767 -19.37791,41.03267 -1.36917,4.2892 -4.10103,15.203 -6.07082,24.2527 -6.98005,32.0684 -9.56158,36.8697 -20.95753,38.9783 -10.35588,1.9161 -22.38813,-6.4939 -22.38813,-15.6482 0,-1.25 -0.7794,-3.2636 -1.73201,-4.4747 -2.26991,-2.8857 -2.19103,-5.6681 0.24084,-8.4953 4.20209,-4.8852 12.74923,-1.916 12.74923,4.429 0,2.1744 -0.69939,3.3571 -3.14611,5.3199 -2.89945,2.326 -3.0607,2.6891 -2.05679,4.6305 3.08633,5.9687 8.56375,8.5298 14.70552,6.876 6.82606,-1.8381 9.79046,-8.5223 13.87183,-31.2786 4.31379,-24.0522 7.97387,-38.36483 13.57566,-53.08724 1.61519,-4.24497 2.82218,-8.06168 2.68222,-8.48159 -0.13997,-0.41989 -2.28871,2.16262 -4.77497,5.73893 -7.18936,10.34137 -17.00928,16.85523 -35.50112,23.549 -13.94821,5.049 -18.94177,8.524 -22.2415,15.4777 -4.33428,9.1338 3.71642,18.2966 11.02486,12.5478 1.93482,-1.5219 2.11733,-2.0746 1.38185,-4.1844 -1.93716,-5.5569 3.73368,-10.7038 9.55688,-8.6738 4.91841,1.7146 6.10024,7.9413 2.10389,11.0848 -1.25499,0.9872 -2.65079,1.7949 -3.10177,1.7949 -0.45099,0 -2.44437,1.3124 -4.42974,2.9165 -5.06379,4.0914 -6.86032,4.8775 -11.14584,4.8775 -11.31133,0 -17.18443,-13.8347 -11.21288,-26.4131 4.31185,-9.0825 8.95886,-12.40641 29.14101,-20.84421 4.28672,-1.79221 9.74255,-4.50155 12.12406,-6.02078 10.28744,-6.56261 20.0275,-19.96074 32.54862,-44.77285 l 7.86888,-15.59315 -2.82121,-2.91076 -2.82121,-2.91074 -2.89211,1.78742 -2.8921,1.78742 -4.96938,-4.32557 c -2.73316,-2.37906 -6.0313,-5.44498 -7.32919,-6.81316 l -2.35981,-2.4876 5.17261,-7.3363 c 2.84493,-4.03498 5.15516,-7.72602 5.13383,-8.20232 -0.0213,-0.47631 -1.30884,-3.98362 -2.86115,-7.79404 l -2.82238,-6.92804 -7.31269,-1.5145 c -4.02197,-0.83298 -8.18951,-1.71723 -9.26119,-1.96501 -1.87993,-0.43465 -1.94851,-0.79687 -1.94851,-10.2908 l 0,-9.84029 8.44354,-1.50532 c 9.98618,-1.78035 11.02272,-2.24029 12.15251,-5.39246 0.47307,-1.31988 1.63745,-4.3483 2.58751,-6.72981 l 1.72738,-4.33002 -5.55565,-7.7476 -5.55564,-7.7476 7.08783,-7.12484 7.08783,-7.12484 7.62924,5.12989 c 4.19608,2.82143 8.22463,5.12988 8.95235,5.12988 0.72771,0 3.89024,-1.02769 7.02783,-2.28375 6.46217,-2.58698 6.79605,-2.38071 8.58228,-13.95383 l 2.95877,-19.17009 c 0.20197,0.0183 -0.92882,-0.33 -2.04989,-0.54152 -1.12106,-0.21153 -2.19926,-0.29738 -2.00257,-0.26261 0.19669,0.0348 -0.94474,-0.13928 -3.05959,-0.0446 -2.11485,0.0947 -5.20202,0.48975 -5.0055,0.46324 0.20866,-0.0281 -0.99452,0.21272 -2.33126,0.80468 -1.33675,0.59195 -2.57954,1.71154 -2.43658,1.57455 0.29313,-0.28091 -0.36589,0.41408 -1.04781,1.15582 -0.68192,0.74174 -1.23717,1.84326 -1.32334,2.022 -0.14653,0.30392 -0.58724,1.24866 -1.29376,1.90818 -0.70653,0.65952 -1.14195,0.79624 -1.33074,0.85983 -0.2706,0.0911 -1.01132,0.23777 -2.01768,0.19813 -1.00635,-0.0397 -1.27167,-0.0236 -1.4791,-0.0196 -0.0593,10e-4 -0.11983,0.004 -0.1738,0.006 -0.10394,0.004 -0.20788,0.005 -0.30338,0.008 -0.0603,10e-4 -0.12516,0.002 -0.19423,0.003 -0.0691,5.7e-4 -0.14232,7.6e-4 -0.21935,4.1e-4 -0.077,-3.5e-4 -0.15786,-10e-4 -0.24206,-0.003 -0.0842,-0.002 -0.17178,-0.004 -0.26234,-0.007 -0.0906,-0.003 -0.17691,-0.005 -0.25908,-0.006 -0.0822,-8.9e-4 -0.16016,-7.8e-4 -0.23401,8e-5 -0.0738,8.6e-4 -0.14353,0.002 -0.20911,0.005 -0.11844,0.003 -0.23287,0.0115 -0.34422,0.017 -0.12005,0.009 -0.22251,0.0133 -0.33394,0.02 -0.0328,9.3e-4 -0.004,-0.0856 0.045,-0.21529 0.0456,-0.12088 0.14347,-0.32254 0.20878,-0.57845 0.0653,-0.25591 0.18098,-0.51082 0.28999,-0.86527 0.109,-0.35444 0.27762,-0.81393 0.42673,-1.24699 0.14911,-0.43305 0.30633,-0.86176 0.49197,-1.3535 0.18563,-0.49174 0.32787,-1.041 0.54644,-1.5715 0.21858,-0.53051 0.34776,-1.08094 0.59569,-1.63029 0.24793,-0.54934 0.47098,-1.10865 0.74468,-1.65692 0.54741,-1.09653 0.92489,-2.23209 1.56098,-3.22344 0.63609,-0.99136 1.24798,-1.92689 1.82986,-2.69658 0.58187,-0.7697 1.5163,-1.48783 1.90105,-1.91939 0.38474,-0.43156 2.20534,-1.99601 2.53627,-2.19298 0.82059,-0.48841 2.45913,-2.06007 6.56478,-3.18199 1.27473,-0.34833 2.59273,-0.51243 3.91127,-0.68286 1.31855,-0.17043 1.93364,-0.1526 3.07428,-0.23748 1.17649,-0.0875 2.35992,-0.12728 3.07866,-0.13805 0.65759,-0.008 1.37158,0.007 1.88457,0.0484 0.43159,0.0454 0.70029,0.0333 1.00753,0.0806 0.30502,0.047 0.92257,0.12664 1.28569,0.21416 0.36312,0.0875 0.62247,0.24182 1.00683,0.33358 1.53745,0.36705 2.79386,0.92104 2.97375,1.01097 0.1799,0.0899 0.13913,0.14589 2.39684,1.17306 2.25771,1.02716 2.94908,1.32963 3.13054,1.41524 0.0454,0.0214 1.8665,0.79535 2.12305,0.86736 0.25656,0.072 1.33931,0.67009 1.74674,0.77816 0.40742,0.10807 2.25547,0.82338 2.75344,0.95301 0.49798,0.12964 1.01052,0.31329 1.53873,0.44998 0.52821,0.13669 0.97832,0.24202 1.47643,0.37126 0.49811,0.12923 0.9036,0.21986 1.3113,0.32713 0.40771,0.10727 0.72387,0.13744 0.98084,0.20824 0.25697,0.0708 0.50162,0.0689 0.81708,0.12784 0.4614,0.0762 0.75326,0.0765 1.08384,0.13374 0.32788,0.0322 0.72744,0.0725 1.13016,0.0957 0.4033,0.0233 0.73671,0.0553 1.16391,0.0447 0.4272,-0.0106 1.0185,-0.0525 1.42199,-0.0614 0.40348,-0.009 0.81106,-0.0518 1.1388,-0.10584 0.3556,-0.0587 0.49401,-0.077 0.70495,-0.10837 0.22885,-0.0341 0.31565,-0.0697 0.8392,-0.22441 0.44717,-0.13214 0.67264,-0.15229 1.11431,-0.34473 0.40676,-0.17723 0.41797,-0.13582 1.13555,-0.49257 0.71758,-0.35675 1.68898,-1.06549 2.4379,-1.71816 0.67545,-0.58863 1.21917,-1.36626 1.81399,-2.24074 0.62096,-0.9129 1.39559,-2.38923 2.28118,-2.84042 0.8856,-0.45119 1.74155,-0.43614 2.54182,-0.49398 0.67384,-0.0487 2.04818,0.0143 2.52028,0.11746 0.4884,0.10671 0.77066,0.30536 1.11193,0.65919 0.30994,0.32135 0.28506,1.32558 0.0599,2.0338 -0.22064,0.69402 -0.56086,1.95905 -1.13855,3.04546 -0.59207,1.11344 -1.58561,3.50586 -2.3969,4.81019 -0.83491,1.34232 -1.43989,2.37923 -2.60884,3.7412 -1.09881,1.28024 -1.6304,1.90029 -2.81154,2.92761 -1.19217,1.03691 -2.10741,1.56963 -3.03813,2.11308 -1.08766,0.63509 -1.44351,0.753 -1.9993,1.02244 -0.65318,0.31665 -1.86721,0.71945 -2.40193,0.9461 -0.47564,0.20161 -0.56841,0.18165 -0.84912,0.2419 -0.34569,0.0742 -0.82171,0.23185 -1.42757,0.36356 -0.62551,0.13599 -1.7624,0.34746 -2.54009,0.43561 -0.80687,0.0915 -1.49697,0.16182 -2.36498,0.20758 -0.86802,0.0458 -1.80397,0.0271 -2.60898,0.009 -0.81148,-0.0178 -1.56918,-0.0134 -2.17442,-0.0548 -0.6379,-0.0437 -1.22107,-0.14413 -1.53951,-0.2027 -0.34662,-0.0637 -0.47036,-0.0522 -0.42049,-0.044 0.0146,1.20914 3.89992,21.70492 4.2016,22.00661 0.76658,0.76658 12.05545,5.31643 13.19087,5.31643 0.6274,0 4.41571,-1.4447 8.74585,-4.35629 l 7.873,-5.29379 6.94941,6.94941 6.94941,6.94941 -5.3769,8.38389 -5.37689,8.38389 2.74461,6.63108 c 1.50954,3.64709 2.87525,6.77391 3.03491,6.94849 0.15967,0.17457 4.24881,1.02841 9.08699,1.89741 4.8382,0.869 8.97459,1.75787 9.19199,1.97528 0.2174,0.2174 0.62302,4.712 0.90134,9.98799 0.41051,7.78159 0.27741,9.66547 -0.70501,9.97807 -0.66609,0.21194 -4.91324,1.02473 -9.43812,1.8062 l -8.22704,1.42084 -3.22245,7.37952 -3.22244,7.37951 5.26873,7.83571 5.2687,7.83571 -6.90888,6.90889 c -5.88954,5.88954 -7.15249,6.77853 -8.55987,6.02533 -1.37889,-0.73797 -2.12296,-0.32138 -4.51504,2.52786 l -2.86406,3.41142 8.17959,11.45169 c 19.95456,27.93697 35.6292,45.56453 45.8963,51.61452 15.09427,8.89446 30.26606,9.39696 42.34646,1.40252 2.72304,-1.80202 3.30438,-2.69126 3.30438,-5.0545 0,-6.42836 8.45439,-9.49373 12.66929,-4.59361 2.29826,2.67189 2.48528,3.85722 1.09129,6.91671 -1.02427,2.24802 -4.07786,4.03326 -6.89877,4.03326 -0.9442,0 -3.65297,1.5305 -6.01947,3.40112 -7.53641,5.95719 -12.47241,7.36349 -25.95647,7.39549 -13.2371,0.031 -22.8301,-1.7152 -29.68004,-5.40356 -5.25879,-2.83165 -16.79758,-14.80956 -23.96608,-24.87815 -3.05201,-4.28673 -5.6749,-7.95642 -5.82865,-8.15488 -0.15375,-0.19846 -0.50332,-0.13707 -0.77682,0.13643 -0.53899,0.53901 8.16264,16.87208 13.20408,24.78423 8.94273,14.03493 12.54276,16.20123 33.19144,19.97263 17.33682,3.1665 21.74003,4.4352 27.02224,7.7858 7.38254,4.6828 9.43171,12.2081 5.5622,20.4261 -2.66691,5.664 -5.69906,8.79 -10.65058,10.9803 -8.4228,3.7258 -17.73495,0.087 -21.6475,-8.4593 -1.34349,-2.9345 -3.04867,-5.1743 -4.51763,-5.9339 -4.7801,-2.4719 -5.19911,-8.1592 -0.82673,-11.2218 3.07975,-2.1571 6.57589,-1.7337 9.45463,1.145 2.95743,2.9575 3.17981,5.0708 0.84583,8.038 -1.67667,2.1315 -1.67553,2.1573 0.2165,4.878 5.67862,8.1658 19.65517,2.6926 19.65517,-7.6969 0,-3.5337 -4.47864,-8.125 -9.14536,-9.3755 -1.87644,-0.5028 -8.67269,-1.5209 -15.10277,-2.2624 -19.89477,-2.2944 -26.92397,-4.8699 -34.03294,-12.47 -4.11838,-4.40285 -14.00247,-18.93289 -17.9818,-26.43401 -2.01433,-3.79703 -4.24653,-5.62679 -2.99775,-2.45728 0.32841,0.83352 1.37449,5.02282 2.32462,9.30954 1.5631,7.05232 1.66956,9.61222 1.11865,26.89945 -0.53138,16.6744 -0.41997,19.7597 0.87566,24.2481 2.85097,9.8766 7.17925,14.2265 14.1618,14.2326 4.2294,0 6.83888,-1.0899 9.01686,-3.7787 2.8903,-3.5681 1.27943,-11.8062 -2.30857,-11.8062 -4.7654,0 -8.26326,-5.3732 -6.15363,-9.4527 4.01205,-7.7585 15.81948,-3.5569 13.55578,4.8236 -0.4882,1.8074 -0.13017,3.6181 1.34336,6.7941 2.98208,6.4275 2.74636,11.6762 -0.7007,15.6022 -3.27896,3.7345 -6.14416,5.307 -11.93183,6.5482 -9.49995,2.0374 -19.08469,-3.7115 -24.61356,-14.7631 -4.3716,-8.7383 -5.39502,-15.8695 -4.33694,-30.2202 1.41892,-19.24436 -0.12828,-29.14401 -7.19148,-46.01443 -3.62025,-8.64698 -5.95382,-12.87379 -6.65862,-12.06085 -0.17633,0.20338 0.19471,4.46166 0.82453,9.46283 0.62982,5.00118 1.15977,17.57587 1.17764,27.94376 0.0273,15.81689 0.32538,20.20709 1.85216,27.27909 2.68264,12.426 6.97837,26.0659 14.79124,46.9657 8.04472,21.52 8.88308,26.1542 5.7148,31.5896 -1.43443,2.4609 -3.44898,4.1816 -7.05489,6.0257 -4.31397,2.2063 -6.19857,2.6206 -12.97348,2.8524 -6.11931,0.2094 -8.92039,-0.098 -12.28671,-1.3491 z"
       id="path4195"
       inkscape:connector-curvature="0"
       sodipodi:nodetypes="csssssssssscsssssssssssscssssssssssssssssssssssssssssssssssssssssssssssscccccsscscscssscssscccccsssscssssssssssscccsssssscccsssssssssssssssccsssssssssssssccssssssssssssssssssssssssssssscssscccccssssssscccccssscssssssssssssssssssssssssssssssssscsssssssssssssssssssc" />
    <path
       style="stroke:#010202;stroke-width:0.05664472;stroke-miterlimit:10"
       inkscape:connector-curvature="0"
       id="path10"
       d="m -343.53036,1073.7982 c -3.69799,-0.5406 -7.64565,-1.8663 -11.38802,-3.8231 -2.89355,-1.5121 -3.69967,-1.7803 -4.47083,-1.4852 -1.60725,0.6145 -5.30247,0.077 -6.94494,-1.0108 -4.03116,-2.668 -4.49885,-7.5494 -1.05218,-10.9864 3.0794,-3.0696 8.09865,-3.0757 11.46681,-0.011 1.39143,1.2655 2.00448,2.7373 2.00448,4.8167 l 0,1.8877 2.67773,0.6433 c 11.7664,2.8234 19.59707,2.1141 23.874,-2.1634 1.7257,-1.7254 2.97454,-4.2029 2.98619,-5.9264 0.028,-3.8422 -2.35206,-9.0942 -10.43544,-23.026 -10.91229,-18.8084 -15.1096,-28.4236 -17.60591,-40.32949 -0.65771,-3.13738 -0.65078,-13.85965 0.0158,-22.82988 0.65271,-8.79131 0.39584,-25.3542 -0.5229,-33.73828 -0.6996,-6.39043 -1.70627,-12.76614 -2.13902,-13.55285 -0.60334,-1.09711 -4.96986,10.9209 -6.81983,18.7721 -2.44111,10.35971 -2.99174,22.12861 -1.46494,31.32741 1.25079,7.53497 1.34732,8.96773 0.89322,13.27961 -0.81111,7.70002 -2.85998,14.48348 -9.70811,32.14348 -6.08528,15.6905 -6.21899,20.9594 -0.60666,23.8893 2.36565,1.2341 8.05342,1.4267 10.17746,0.3426 0.97228,-0.4963 1.75621,-1.2525 2.06162,-1.9898 0.63913,-1.5432 0.34259,-4.8359 -0.61083,-6.7838 -0.65411,-1.3365 -0.99503,-1.5803 -2.85887,-2.0519 -2.67107,-0.6763 -4.56763,-2.1113 -5.49858,-4.1612 -1.49379,-3.2894 -0.41139,-6.8679 2.66746,-8.821 3.03279,-1.9238 6.46864,-1.8738 9.45123,0.1359 2.69826,1.8184 3.86277,5.7987 2.47939,8.4737 -0.56034,1.0843 -0.53233,1.3329 0.44772,3.9662 0.8616,2.3135 1.05245,3.4944 1.08407,6.6975 0.035,3.5291 -0.0638,4.095 -1.0702,6.1447 -1.44941,2.9523 -4.05307,5.0289 -7.7702,6.1976 -2.29908,0.7224 -3.63226,0.8713 -7.64454,0.848 -9.39271,-0.055 -15.06106,-2.6794 -17.57263,-8.1361 -0.77893,-1.6932 -0.89294,-2.5465 -0.88185,-6.6101 0.0158,-5.8539 0.97256,-9.543 6.20429,-23.9211 5.64977,-15.52575 7.10001,-20.99716 7.46673,-28.17484 0.18669,-3.65084 0.0671,-5.04171 -0.8186,-9.50644 -2.01364,-10.15305 -2.07411,-19.74437 -0.19307,-30.70937 0.64107,-3.73877 2.69631,-12.37279 3.66055,-15.37951 0.64606,-2.01447 -0.67491,0.79586 -2.64971,5.63729 -5.46336,13.39195 -10.04015,27.64634 -12.3997,38.61661 -1.17645,5.46752 -1.18782,5.63617 -1.49351,22.03346 -0.17005,9.0873 -0.50543,17.9227 -0.74565,19.6329 -2.45608,17.4611 -7.46534,29.2089 -15.83444,37.13 -3.84335,3.6389 -8.69061,6.2692 -13.29709,7.2165 -2.1698,0.4455 -3.05887,0.8267 -3.63308,1.5568 -2.73099,3.4724 -9.47759,3.352 -12.48486,-0.2225 -3.89967,-4.6342 -0.7426,-11.1303 5.63284,-11.5911 2.02779,-0.1473 2.62669,-0.01 4.79234,1.0885 l 2.47522,1.2564 1.9515,-0.6481 c 9.65734,-3.2075 15.76759,-14.704 17.57318,-33.065 0.23107,-2.352 0.56616,-12.2368 0.74454,-21.96576 0.35229,-19.27197 0.53204,-21.19739 2.9479,-31.68582 2.01946,-8.76689 5.82287,-20.96104 8.96329,-28.73873 0.51097,-1.26549 0.86853,-2.36121 0.79419,-2.43556 -0.21748,-0.21776 -9.22903,17.73601 -12.66794,25.23769 -6.86949,14.98728 -8.42819,20.07559 -13.07073,42.67606 -4.60924,22.43482 -6.9344,28.90072 -11.975,33.29362 -4.31604,3.7621 -11.55336,4.8442 -18.99401,2.8405 -7.2928,-1.9634 -12.74783,-8.6076 -12.74783,-15.527 0,-2.0406 -0.11679,-2.3318 -1.53735,-3.8243 -4.23282,-4.4502 -1.30155,-11.3322 5.10857,-11.993 1.80087,-0.1864 2.5332,-0.057 4.32463,0.7629 2.96567,1.3578 4.35544,3.4464 4.33796,6.5191 -0.0172,2.9568 -1.3268,4.9882 -4.03309,6.2578 -2.35484,1.1055 -2.43944,1.6217 -0.80252,4.8978 2.54125,5.0858 8.24067,7.2381 14.37506,5.4289 4.64337,-1.3692 8.04871,-7.0201 10.47511,-17.382 0.42498,-1.8178 1.5587,-7.9516 2.5185,-13.63054 3.91548,-23.1708 8.36106,-40.32816 14.37422,-55.4852 1.55093,-3.90715 2.69881,-6.9688 2.55151,-6.80291 -0.1473,0.16533 -1.19919,1.70073 -2.33791,3.41172 -7.0756,10.62934 -11.81467,14.9182 -22.52862,20.38932 -5.08332,2.59562 -9.69618,4.48609 -18.07832,7.40903 -6.73301,2.34873 -10.36859,4.13601 -13.47129,6.62511 -2.82752,2.26828 -4.66862,4.48719 -6.03924,7.2792 -0.95536,1.94512 -1.37479,2.72211 -1.37257,5.77515 0.002,2.87219 0.43912,3.74377 1.15204,5.08111 2.44388,4.58789 7.36742,5.18929 11.10896,1.35592 l 1.44359,-1.47714 -0.6874,-1.33734 c -0.4025,-0.7831 -0.67907,-2.15067 -0.66825,-3.30326 0.0607,-6.21261 8.3655,-9.41795 13.26241,-5.11828 3.21144,2.81948 3.33543,7.59406 0.27102,10.47151 -1.05689,0.99226 -3.87525,2.25053 -5.04116,2.25053 -0.28933,0 -1.63887,1.11209 -2.99895,2.4719 -1.59449,1.5942 -3.42365,2.94014 -5.15295,3.79097 -2.45054,1.2053 -3.06609,1.5453 -6.27059,1.5404 -3.088,-0 -3.68607,-0.3682 -5.66114,-1.3637 -6.19375,-3.11994 -10.00465,-11.00027 -8.84151,-18.28031 0.50819,-3.18287 2.23666,-7.80599 4.03225,-10.78802 1.97286,-3.27718 4.03476,-5.58236 7.05091,-7.88338 4.46972,-3.41033 6.13716,-4.21395 20.21651,-9.74194 13.29237,-5.21759 19.76462,-10.07927 27.85134,-20.9211 2.04969,-2.74791 5.63173,-8.16494 7.96021,-12.03798 4.03754,-6.71692 12.71095,-23.47232 15.87301,-30.66415 l 1.48519,-3.37733 -2.58951,-2.5515 c -1.42389,-1.40308 -2.67773,-2.55124 -2.78647,-2.55124 -0.10818,0 -1.44496,0.87603 -2.9701,1.94762 l -2.77315,1.94705 -3.14126,-2.99895 c -1.72819,-1.64885 -5.10579,-4.90967 -7.5064,-7.24564 l -4.36486,-4.24696 0.70543,-1.01972 c 0.38863,-0.56007 2.82779,-4.0195 5.42091,-7.68726 l 4.71494,-6.66865 -2.96982,-7.32748 c -1.63388,-4.03032 -3.02947,-7.40265 -3.10132,-7.49336 -0.0718,-0.0918 -4.16041,-0.90071 -9.08479,-1.79837 -4.92493,-0.89738 -9.01073,-1.69796 -9.07896,-1.77812 -0.0685,-0.0799 -0.24079,-4.72521 -0.38198,-10.32227 -0.2405,-9.53334 -0.2136,-10.18856 0.43246,-10.3819 0.3792,-0.11374 4.71328,-0.9304 9.63127,-1.81641 4.91799,-0.88545 9.07258,-1.73263 9.23209,-1.88187 0.15895,-0.14979 1.48796,-3.34625 2.95235,-7.10306 l 2.66302,-6.8312 -5.62702,-7.8734 -5.62647,-7.87367 7.38212,-7.3824 7.38268,-7.38212 7.99018,5.48416 c 4.39482,3.01643 8.20404,5.48528 8.46424,5.48528 0.26048,0 3.38343,-1.23221 6.93968,-2.73793 l 6.46559,-2.73792 1.95317,-9.80048 1.95288,-9.79992 10.07427,0 10.07427,0 1.91072,9.79104 1.91155,9.79105 6.8068,2.73238 6.8068,2.73265 8.26979,-5.61648 8.26952,-5.61676 7.22512,7.38378 7.22511,7.38351 -4.38872,6.70305 c -2.41392,3.6869 -4.86168,7.41597 -5.4395,8.287 l -1.05162,1.58394 2.87274,6.7749 2.87246,6.77489 9.42682,1.63416 c 5.1843,0.89849 9.48452,1.69213 9.55582,1.7637 0.0902,0.0901 0.36089,15.76759 0.36089,20.90694 0,0.003 -4.0944,0.69461 -9.09977,1.5379 -5.00482,0.84274 -9.21988,1.67132 -9.36774,1.84137 -0.14757,0.16977 -1.63166,3.48051 -3.29799,7.35688 l -3.0314,7.04897 5.30718,7.8512 5.30746,7.85092 -7.07116,7.35411 -7.07088,7.3541 -1.75676,-1.02804 -1.75565,-1.0297 -0.99364,1.32153 c -0.54648,0.72678 -1.75233,2.14456 -2.68023,3.15096 l -1.68713,1.82972 6.11829,8.67008 c 22.90144,32.45365 36.75083,47.9616 49.35247,55.26272 3.94239,2.2841 8.76856,4.32242 12.79583,5.40483 4.5252,1.21584 12.752,1.20779 17.05805,-0.0169 3.74488,-1.06577 7.3419,-2.66996 11.22104,-5.0051 2.93016,-1.76314 2.96788,-1.80725 2.57675,-2.92988 -1.53152,-4.39204 2.54707,-9.24956 7.76521,-9.24956 6.12218,0 9.92003,6.30942 6.66005,11.06708 -1.53263,2.23693 -3.23807,3.09687 -6.46227,3.25998 l -2.88411,0.14536 -2.59339,2.59256 c -6.43731,6.43647 -18.76239,9.70727 -32.45171,8.6146 -9.25234,-0.73871 -19.23646,-2.87218 -23.48925,-5.01896 -7.74968,-3.91215 -18.21203,-15.00059 -28.84581,-30.57428 -1.72958,-2.53126 -3.14431,-4.48248 -3.14431,-4.33574 0,0.45216 3.76208,7.79351 7.27282,14.19308 8.33527,15.19394 14.86383,23.53725 20.73885,26.50235 2.88411,1.45551 8.17215,2.75263 16.60312,4.07027 19.94354,3.11823 27.31318,5.45614 32.50441,10.31283 1.73624,1.62389 2.79978,3.0303 3.58732,4.74656 1.00335,2.18257 1.11902,2.84611 1.10515,6.3269 -0.013,3.29411 -0.17753,4.30217 -1.08185,6.60905 -4.04502,10.3222 -12.73175,15.7293 -22.10143,13.7556 -6.42482,-1.3523 -11.67208,-6.4049 -13.11927,-12.6333 -0.42803,-1.84302 -0.57227,-2.02027 -1.99782,-2.44746 -1.906,-0.57145 -4.18955,-2.53321 -4.88526,-4.19676 -1.17867,-2.8217 -0.41998,-5.68029 2.11377,-7.9666 1.78395,-1.60919 3.37206,-2.04692 6.49057,-1.78839 5.97321,0.49516 8.8576,7.04175 5.05863,11.48124 l -1.35149,1.57783 1.53291,2.27494 c 2.27494,3.3762 3.74737,4.219 7.37408,4.219 3.52961,0 5.6764,-0.9313 8.38186,-3.6373 2.44027,-2.43998 3.48828,-4.73822 3.49716,-7.66589 0.008,-2.79451 -1.15009,-4.89358 -3.73461,-6.76546 -3.51131,-2.54402 -6.76436,-3.2611 -22.1017,-4.875 -13.67546,-1.43914 -17.73407,-2.42058 -24.88374,-6.01593 -5.52743,-2.77953 -10.01768,-7.66785 -17.37428,-18.91135 -2.11655,-3.23641 -5.49887,-8.78243 -7.51527,-12.32592 -2.01697,-3.54348 -3.71825,-6.39042 -3.78177,-6.32773 -0.0641,0.0641 0.157,0.88601 0.49016,1.82862 1.08157,3.06219 2.83667,10.55528 3.49799,14.93206 0.86743,5.74631 0.86354,13.53177 -0.0111,20.21567 -1.02665,7.844 -0.9598,17.74905 0.15451,23.06456 1.45135,6.92027 3.87914,11.51617 7.56465,14.31567 5.53465,4.2048 13.77976,2.6938 16.84834,-3.088 1.05938,-1.9945 0.88434,-5.1435 -0.41693,-7.5175 -1.03775,-1.8927 -1.18643,-2.0044 -2.9038,-2.17005 -5.2947,-0.51097 -8.61572,-5.14547 -6.84952,-9.55943 2.19089,-5.47584 10.0518,-6.61983 13.91762,-2.02639 1.59033,1.89019 1.8508,5.11689 0.6444,7.99268 -0.44634,1.06548 -0.39973,1.33844 0.46936,2.7221 3.04195,4.84279 4.20979,11.20909 2.82197,15.38669 -1.84359,5.5508 -10.59939,10.4493 -18.67861,10.4493 -11.85794,0 -21.92362,-10.849 -25.25018,-27.21438 -1.06909,-5.26113 -1.16202,-13.40832 -0.22691,-19.94105 1.89269,-13.22329 0.28018,-25.70982 -5.24948,-40.65826 -1.53124,-4.13961 -6.68114,-14.96369 -7.70002,-16.18452 -0.63053,-0.75702 -0.64274,-0.74564 -0.43663,0.38836 0.54204,2.98175 1.75843,13.79196 2.14402,19.05005 0.23911,3.26275 0.3792,12.59748 0.31761,21.18906 l -0.10984,15.35649 1.0566,5.26557 c 2.99674,14.93457 8.11169,31.54828 15.67606,50.91308 7.17989,18.3813 7.3505,18.9338 7.36187,23.9165 0.009,4.0663 -0.0552,4.4153 -1.26826,6.8805 -0.80113,1.6295 -1.95566,3.194 -3.09688,4.1987 -5.13214,4.5172 -15.7429,7.0446 -24.31202,5.7913 l -0.002,0 z"
       stroke-miterlimit="10" />
    <path
       style="fill:#ffffff"
       inkscape:connector-curvature="0"
       id="path16"
       d="m 316.00583,865.63185 c -2.41753,-0.57033 -4.12519,-3.07246 -3.68135,-5.3929 0.21693,-1.13761 0.86243,-0.74176 0.86243,0.52872 0,3.18592 3.31352,5.02035 6.28973,3.48079 1.14648,-0.59252 2.34152,-2.3687 2.34152,-3.48079 0,-0.62193 0.70265,-1.23637 1.03358,-0.90571 0.10902,0.10902 -0.0219,0.92956 -0.2896,1.8239 -0.49127,1.63887 -2.65775,3.63031 -3.62033,3.88191 -0.46935,0.12316 -0.57615,0.18391 -1.11347,0.21581 -0.29876,0.0175 -1.10738,0.0175 -1.82306,-0.15201 l 4.3e-4,0 z" />
    <g
       id="g4853"
       transform="translate(240.41631,61.871843)">
      <g
         id="g4849">
        <path
           style="fill:#ffffff;stroke:#010202;stroke-width:0.05664472;stroke-miterlimit:10"
           inkscape:connector-curvature="0"
           id="path18"
           d="m 143.42581,868.3535 0,-6.20595 -1.65218,-0.43607 c -6.35326,-1.67466 -10.64183,-8.23596 -9.60353,-14.69351 1.43137,-8.89699 10.88899,-13.71401 18.92882,-9.63987 2.316,1.17368 4.95849,3.97679 6.02759,6.39265 0.96063,2.17119 1.32069,6.28334 0.73843,8.43346 -1.10599,4.08275 -4.76209,8.02069 -8.53332,9.19048 l -1.82306,0.56672 -0.10791,6.35298 -0.0155,6.29888 2.05413,-0.19723 c 1.17977,-0.13842 3.50853,-0.74925 5.17487,-1.35703 8.98353,-3.27913 15.69713,-10.60937 18.20952,-19.8828 0.93095,-3.43807 0.93289,-10.54973 0.004,-13.99585 -2.22058,-8.22902 -7.99102,-15.20919 -15.59811,-18.86835 -3.90133,-1.87632 -7.42622,-2.63417 -12.24713,-2.63279 -5.04865,10e-4 -7.94746,0.70182 -12.82967,3.09799 -3.12378,1.53401 -4.23559,2.35788 -7.20764,5.34574 -5.84505,5.87363 -8.34996,11.89012 -8.33747,20.02039 0.0139,8.44594 3.04389,15.32791 9.2981,21.11832 4.30079,3.98205 11.42215,7.20764 16.06358,7.27533 l 1.45801,0.0222 0,-6.20567 -0.002,0 z"
           stroke-miterlimit="10" />
        <path
           style="fill:#ffffff;stroke:#010202;stroke-width:0.05664472;stroke-miterlimit:10"
           inkscape:connector-curvature="0"
           id="path20"
           d="m 106.10271,861.73395 0,-6.21483 -1.45246,-0.60723 c -3.28772,-1.37312 -4.929918,-4.10743 -4.694409,-7.81292 0.128159,-2.01474 0.365609,-2.7074 1.341779,-3.91964 0.65216,-0.80972 1.86911,-1.87299 2.70408,-2.36343 3.25526,-1.90878 8.61182,-0.37865 10.23266,2.92295 0.81333,1.6569 1.19781,1.59781 1.20557,-0.18503 0.0197,-4.16569 2.63251,-11.15418 5.62647,-15.04719 l 1.48075,-1.92653 -1.67604,-1.44441 c -2.03915,-1.75538 -5.0037,-3.24695 -8.01569,-4.03115 -6.257,-1.62999 -12.70429,0.33482 -17.849749,5.4395 -7.601267,7.54079 -9.358307,19.48501 -4.366527,29.68022 0.861321,1.75843 2.203931,3.5274 4.186219,5.51579 3.66027,3.67137 5.497477,4.6872 11.180537,6.18321 0.0535,0.0144 0.0968,-2.77066 0.0968,-6.18931 l 0,0 z"
           stroke-miterlimit="10" />
      </g>
      <path
         stroke-miterlimit="10"
         d="m 115.10484,866.79619 c 1.04995,-0.3989 2.77675,-1.28269 3.83808,-1.9637 l 1.93041,-1.23886 -0.72595,-1.02999 c -1.80836,-2.56426 -3.91797,-7.93996 -4.5227,-11.52478 l -0.26186,-1.55288 -0.73927,1.51931 c -1.00335,2.06329 -1.71792,2.78536 -3.71214,3.75043 l -1.69796,0.82165 0,6.23647 0,6.23619 1.99145,-0.26436 c 1.09544,-0.14536 2.85026,-0.59058 3.89994,-0.98948 l 0,0 z"
         id="path22"
         inkscape:connector-curvature="0"
         style="fill:#ffffff;stroke:#010202;stroke-width:0.05664472;stroke-miterlimit:10" />
    </g>
    <path
       style="stroke:#000000;stroke-width:0.22655113;stroke-miterlimit:10"
       inkscape:connector-curvature="0"
       id="path24"
       d="m -249.92616,682.35465 c 0.1473,-0.69489 0.76895,-2.83807 1.38172,-4.76266 3.43364,-10.7833 11.08567,-17.01838 22.13555,-18.03809 6.4226,-0.5928 10.8754,0.47185 18.45863,4.4134 5.84312,3.03696 8.24705,3.93517 11.89678,4.44281 7.5591,1.05134 13.51595,-1.66716 15.42417,-7.03953 l 0.6591,-1.85607 4.04031,0 4.04086,0 -0.26159,1.63554 c -0.14397,0.90015 -0.70071,2.95595 -1.23747,4.56819 -3.83809,11.53006 -12.74951,17.90023 -25.0413,17.90023 -5.19123,0 -8.04399,-0.80778 -15.1293,-4.28552 -7.98934,-3.92186 -10.4629,-4.69664 -14.9967,-4.69747 -6.78765,-10e-4 -10.62352,2.25165 -12.81774,7.52499 l -0.60667,1.458 -4.10744,0 -4.10799,0 0.26908,-1.26382 z"
       stroke-miterlimit="10" />
    <path
       d="m 150.32498,778.30199 c 8.93888,11.8696 13.2244,27.18586 10.15693,42.49963"
       id="path33-9"
       inkscape:connector-curvature="0"
       style="fill:none" />
    <path
       d="m 109.73219,756.2885 c 12.53063,0.65466 23.99661,5.80373 32.90109,13.68905"
       id="path35-2"
       inkscape:connector-curvature="0"
       style="fill:none" />
    <g
       id="Cabeza_color"
       transform="matrix(0.27739823,0,0,0.27739823,-69.65649,656.10937)"
       style="fill:#ffffff">
      <g
         id="g4845"
         style="fill:#ffffff">
        <path
           stroke-miterlimit="10"
           d="m 150.41097,774.1216 4.73575,-1.77757 -0.008,-0.0158 c -0.48572,-0.99253 -0.75063,-2.09158 -0.75063,-3.27108 0,-0.80668 0.0871,-1.45496 0.32317,-2.18313 l 0.0405,-0.12898 -5.38652,-1.69213 -0.10984,-0.0347 c -0.64717,0.59835 -1.50628,0.9709 -2.45165,0.99253 l -0.008,0.0646 -0.46436,3.97068 2.7e-4,0 c 1.92792,0.62608 3.45222,2.14817 4.07886,4.07553"
           id="path28"
           inkscape:connector-curvature="0"
           style="fill:#ffffff;stroke:#010202;stroke-width:0.0567002;stroke-miterlimit:10"
           transform="matrix(3.6049257,0,0,3.6049257,168.63162,-2175.2578)" />
        <path
           d="m 564.429,551.362 c -0.133,-0.173 -0.201,-0.262 -0.201,-0.262 45.172,2.359 86.506,20.922 118.605,49.348 l 0,10e-4 c 1.991,-0.565 4.091,-0.868 6.262,-0.868 0.821,0 1.629,0.043 2.426,0.127 l 1.834,-14.225 -0.249,-0.084 c -5.394,-1.766 -9.044,-6.756 -9.044,-12.74 0,-7.45 6.04,-13.49 13.491,-13.49 7.45,0 13.49,6.041 13.49,13.49 0,2.023 -0.445,3.944 -1.245,5.667 l 0.569,0.169 18.023,5.407 0.234,0.069 c 4.617,-8.249 13.44,-13.825 23.564,-13.825 14.902,0 26.982,12.078 26.982,26.979 0,9.06 -4.463,17.075 -11.311,21.969 l 0.174,0.24 6.149,8.47 0.182,0.277 c 1.886,-0.69 3.922,-1.066 6.046,-1.066 9.71,0 17.579,7.869 17.579,17.579 0,6.579 -3.614,12.312 -8.963,15.327 14.787,53.922 14.924,116.265 -7.99,155.164 l 0.088,0.191 6.147,12.669 c 8.074,16.642 10.849,28.712 10.849,47.199 0,17.421 -2.595,29.666 -9.422,44.44 -2.695,5.838 -4.902,10.695 -4.902,10.796 0,0.102 2.292,1.421 5.097,2.931 l 5.095,2.744 22.885,-23.8 c 12.586,-13.087 22.905,-24.314 22.934,-24.944 0.026,-0.63 -8.256,-13.376 -18.409,-28.323 l -18.458,-27.178 8.122,-18.627 c 4.468,-10.246 9.838,-22.726 11.933,-27.738 l 3.809,-9.108 11.082,-2.396 c 6.095,-1.315 20.834,-4.027 32.755,-6.023 11.92,-1.996 21.917,-3.874 22.22,-4.174 0.298,-0.298 0.083,-15.948 -0.479,-34.776 l -1.024,-34.23 -21.896,-3.843 c -12.043,-2.114 -26.989,-4.772 -33.216,-5.909 l -11.32,-2.067 -4.291,-10.052 c -2.36,-5.53 -7.537,-17.171 -11.504,-25.872 -3.967,-8.701 -6.78,-16.584 -6.248,-17.52 0.534,-0.935 9.069,-14.111 18.972,-29.28 9.901,-15.168 18.003,-28.104 18.003,-28.747 0,-0.642 -10.651,-11.804 -23.67,-24.806 l -23.669,-23.639 -29.29,19.772 -29.289,19.771 -25.794,-10.519 c -14.189,-5.787 -25.994,-10.717 -26.235,-10.958 -0.241,-0.242 -3.263,-14.574 -6.715,-31.849 -3.454,-17.275 -6.617,-32.841 -7.034,-34.589 l -0.757,-3.178 -33.196,0.375 -33.196,0.375 -6.881,34.535 -6.881,34.532 -23.021,9.829"
           id="path38"
           inkscape:connector-curvature="0"
           style="fill:#ffffff" />
      </g>
      <path
         style="fill:#ffffff"
         inkscape:connector-curvature="0"
         id="path40"
         d="m 747.175,783.665 c 11.058,-55.206 -4.392,-110.421 -36.616,-153.208 0.925,-2.486 1.431,-5.175 1.431,-7.982 0,-0.631 -0.026,-1.255 -0.077,-1.874 l 18.721,-7.24 0,10e-4 c 4.926,6.529 12.747,10.749 21.555,10.749 3.631,0 7.095,-0.717 10.258,-2.017 l 0.137,0.187 6.376,8.754 0.101,0.138 c -3.809,3.225 -6.229,8.042 -6.229,13.425 0,9.71 7.869,17.579 17.579,17.579 1.052,0 2.082,-0.092 3.083,-0.269 l 0,-10e-4 c 15.688,45.465 15.415,108.285 -5.627,148.646 l -0.316,-0.316 -8.982,-9.187 c -6.979,-7.136 -13.894,-12.808 -21.394,-17.385 z" />
    </g>
    <path
       style="fill:none;stroke:#010202;stroke-width:0.03411999;stroke-miterlimit:10"
       inkscape:connector-curvature="0"
       id="path42-8"
       d="M 116.46603,879.02057"
       stroke-miterlimit="10" />
    <path
       style="fill:none;stroke:#010202;stroke-width:0.03411999;stroke-miterlimit:10"
       inkscape:connector-curvature="0"
       id="path44-8"
       d="M 128.29096,878.71738"
       stroke-miterlimit="10" />
    <path
       style="fill:none;stroke:#010202;stroke-width:0.03411999;stroke-miterlimit:10"
       inkscape:connector-curvature="0"
       id="path46-5"
       d="M 116.46603,878.6913"
       stroke-miterlimit="10" />
    <path
       style="fill:none;stroke:#010202;stroke-width:0.03411999;stroke-miterlimit:10"
       inkscape:connector-curvature="0"
       id="path48-7"
       d="M 128.10122,883.35132"
       stroke-miterlimit="10" />
    <path
       style="fill:none;stroke:#010202;stroke-width:0.03411999;stroke-miterlimit:10"
       inkscape:connector-curvature="0"
       id="path50-8"
       d="M 116.27601,883.32524"
       stroke-miterlimit="10" />
  </g>
</svg>
