%TF.GenerationSoftware,KiCad,Pcbnew,4.0.7-e2-6376~58~ubuntu16.04.1*%
%TF.CreationDate,2018-02-19T14:40:51-07:00*%
%TF.ProjectId,001,3030312E6B696361645F706362000000,rev?*%
%TF.FileFunction,Soldermask,Top*%
%FSLAX46Y46*%
G04 Gerber Fmt 4.6, Leading zero omitted, Abs format (unit mm)*
G04 Created by KiCad (PCBNEW 4.0.7-e2-6376~58~ubuntu16.04.1) date Mon Feb 19 14:40:51 2018*
%MOMM*%
%LPD*%
G01*
G04 APERTURE LIST*
%ADD10C,0.100000*%
G04 APERTURE END LIST*
D10*
G36*
X111436977Y-116610637D02*
X111320847Y-116494893D01*
X111204572Y-116379000D01*
X111088190Y-116263000D01*
X110972017Y-116147213D01*
X110808729Y-116147213D01*
X110645234Y-116147213D01*
X110481590Y-116147213D01*
X110318241Y-116147213D01*
X110151153Y-116137613D01*
X109983855Y-116128013D01*
X109816404Y-116118413D01*
X109649254Y-116108813D01*
X109645414Y-115941325D01*
X109641574Y-115773624D01*
X109637734Y-115605763D01*
X109633894Y-115438211D01*
X109633894Y-115228109D01*
X109633894Y-115018584D01*
X109633894Y-114807256D01*
X109518177Y-114691661D01*
X109402314Y-114575928D01*
X109286343Y-114460088D01*
X109170583Y-114344451D01*
X109054866Y-114228856D01*
X108939003Y-114113123D01*
X108823033Y-113997283D01*
X108707273Y-113881645D01*
X108822990Y-113765347D01*
X108938853Y-113648899D01*
X109054823Y-113532344D01*
X109170583Y-113416003D01*
X109286301Y-113299704D01*
X109402164Y-113183245D01*
X109518134Y-113066691D01*
X109633894Y-112950349D01*
X109633894Y-112739608D01*
X109633894Y-112529432D01*
X109633894Y-112317453D01*
X109640401Y-112147267D01*
X109646908Y-111976877D01*
X109653414Y-111806317D01*
X109659921Y-111636077D01*
X109830103Y-111624024D01*
X110000499Y-111611971D01*
X110171052Y-111599811D01*
X110341296Y-111587757D01*
X110504998Y-111587757D01*
X110668908Y-111587757D01*
X110832965Y-111587757D01*
X110996729Y-111587757D01*
X111113030Y-111472035D01*
X111229478Y-111356173D01*
X111346033Y-111240205D01*
X111462378Y-111124440D01*
X111578679Y-111008728D01*
X111695127Y-110892856D01*
X111811681Y-110776888D01*
X111928026Y-110661133D01*
X112043617Y-110776845D01*
X112159353Y-110892717D01*
X112275196Y-111008685D01*
X112390829Y-111124440D01*
X112506420Y-111240163D01*
X112622156Y-111356024D01*
X112737999Y-111471992D01*
X112853632Y-111587757D01*
X113043260Y-111587757D01*
X113232369Y-111587757D01*
X113423110Y-111587757D01*
X113606123Y-111595224D01*
X113788634Y-111602691D01*
X113972721Y-111610157D01*
X114044476Y-111772973D01*
X113974470Y-111922232D01*
X113773566Y-111927565D01*
X113573211Y-111932899D01*
X113371126Y-111938232D01*
X113210547Y-111938232D01*
X113049765Y-111938232D01*
X112888837Y-111938232D01*
X112728198Y-111938232D01*
X112607311Y-111816696D01*
X112486755Y-111695491D01*
X112365158Y-111573240D01*
X112228563Y-111443011D01*
X112092342Y-111313144D01*
X111954945Y-111182157D01*
X111808916Y-111303555D01*
X111663289Y-111424611D01*
X111516402Y-111546723D01*
X111386081Y-111676803D01*
X111256117Y-111806531D01*
X111125031Y-111937379D01*
X110937281Y-111939512D01*
X110750044Y-111941645D01*
X110561190Y-111943779D01*
X110373439Y-111945912D01*
X110186202Y-111948045D01*
X109997348Y-111950179D01*
X109995108Y-112137933D01*
X109992868Y-112325165D01*
X109990628Y-112514019D01*
X109988388Y-112701773D01*
X109986148Y-112889005D01*
X109983908Y-113077859D01*
X109852723Y-113209283D01*
X109721899Y-113340355D01*
X109589943Y-113472547D01*
X109458758Y-113603971D01*
X109327934Y-113735032D01*
X109195979Y-113867224D01*
X109325218Y-113996653D01*
X109454105Y-114125720D01*
X109584103Y-114255907D01*
X109713344Y-114385325D01*
X109842230Y-114514392D01*
X109972229Y-114644579D01*
X109976389Y-114834328D01*
X109980549Y-115023565D01*
X109984709Y-115214435D01*
X109988869Y-115404195D01*
X109993029Y-115593432D01*
X109997189Y-115784301D01*
X110186945Y-115788568D01*
X110376180Y-115792835D01*
X110567050Y-115797101D01*
X110756805Y-115801368D01*
X110946041Y-115805635D01*
X111136911Y-115809901D01*
X111264345Y-115937155D01*
X111391428Y-116064056D01*
X111519610Y-116192056D01*
X111654962Y-116319309D01*
X111789945Y-116446221D01*
X111926092Y-116574221D01*
X112064267Y-116444877D01*
X112202063Y-116315896D01*
X112341050Y-116185795D01*
X112471305Y-116056451D01*
X112601203Y-115927469D01*
X112732224Y-115797368D01*
X112942041Y-115797368D01*
X113151281Y-115797368D01*
X113362330Y-115797368D01*
X113563940Y-115803768D01*
X113764997Y-115810168D01*
X113967792Y-115816568D01*
X114044315Y-115980195D01*
X113980624Y-116129037D01*
X113802675Y-116135437D01*
X113625213Y-116141837D01*
X113446219Y-116148237D01*
X113257189Y-116148237D01*
X113068678Y-116148237D01*
X112878540Y-116148237D01*
X112762876Y-116264024D01*
X112647067Y-116379971D01*
X112531151Y-116496013D01*
X112415444Y-116611843D01*
X112293458Y-116727587D01*
X112171318Y-116843480D01*
X112049067Y-116959480D01*
X111927036Y-117075267D01*
X111804583Y-116959480D01*
X111681978Y-116843533D01*
X111559259Y-116727491D01*
X111436762Y-116611661D01*
X111436813Y-116612237D01*
X111436977Y-116610637D01*
X111436977Y-116610637D01*
G37*
G36*
X112006989Y-115411363D02*
X111433615Y-115231651D01*
X111236785Y-114683949D01*
X111236785Y-113143544D01*
X111433615Y-112600120D01*
X112006989Y-112416131D01*
X112610315Y-112416131D01*
X112610315Y-112741325D01*
X111964199Y-112741325D01*
X111707465Y-112835512D01*
X111609054Y-113062296D01*
X111609054Y-114765304D01*
X111707465Y-114992077D01*
X111964199Y-115086264D01*
X112383533Y-115086264D01*
X112383533Y-114157741D01*
X112011267Y-114157741D01*
X112011267Y-113836813D01*
X112738682Y-113836813D01*
X112738682Y-115411459D01*
X112006989Y-115411459D01*
X112006989Y-115411363D01*
X112006989Y-115411363D01*
G37*
G36*
X113881418Y-115090445D02*
X113881418Y-113592824D01*
X113569057Y-113592824D01*
X113569057Y-113271907D01*
X114223730Y-113271907D01*
X114223730Y-113387437D01*
X114566043Y-113271907D01*
X115006770Y-113271907D01*
X115006770Y-113614221D01*
X114523253Y-113614221D01*
X114317866Y-113704035D01*
X114245130Y-113879469D01*
X114245130Y-115090403D01*
X114711531Y-115090403D01*
X114711531Y-115411320D01*
X113569062Y-115411320D01*
X113569062Y-115090403D01*
X113881423Y-115090403D01*
X113881418Y-115090445D01*
X113881418Y-115090445D01*
G37*
G36*
X117232069Y-115411363D02*
X116692929Y-115090488D01*
X116855527Y-115030541D01*
X116889757Y-114876493D01*
X116889757Y-114405816D01*
X116354893Y-114405816D01*
X116170900Y-114478563D01*
X116098164Y-114662552D01*
X116098164Y-114876493D01*
X116149514Y-115039096D01*
X116312112Y-115090403D01*
X116692935Y-115090403D01*
X116692929Y-115090488D01*
X117232069Y-115411363D01*
X117107981Y-115377123D01*
X116996730Y-115282936D01*
X116735716Y-115411309D01*
X116354893Y-115411309D01*
X115879934Y-115282936D01*
X115734451Y-114833656D01*
X115734451Y-114748109D01*
X116359172Y-114084877D01*
X116889757Y-114084877D01*
X116889757Y-113870936D01*
X116808455Y-113665549D01*
X116568836Y-113592803D01*
X115905605Y-113592803D01*
X115905605Y-113271885D01*
X116526047Y-113271885D01*
X117073747Y-113434488D01*
X117253461Y-113956515D01*
X117253461Y-114983448D01*
X117300533Y-115081901D01*
X117467411Y-115111875D01*
X117467411Y-115411405D01*
X117232071Y-115411405D01*
X117232069Y-115411363D01*
X117232069Y-115411363D01*
G37*
G36*
X118468941Y-113271907D02*
X118468941Y-113374627D01*
X118811253Y-113271907D01*
X119008083Y-113271907D01*
X119521552Y-113434509D01*
X119692708Y-113956536D01*
X119692708Y-115411363D01*
X119329001Y-115411363D01*
X119329001Y-113870957D01*
X119251977Y-113669848D01*
X119050868Y-113592835D01*
X118768460Y-113592835D01*
X118558794Y-113669848D01*
X118490335Y-113828163D01*
X118490335Y-115411363D01*
X118126628Y-115411363D01*
X118126628Y-113271907D01*
X118468941Y-113271907D01*
X118468941Y-113271907D01*
G37*
G36*
X121845266Y-115411363D02*
X121306126Y-115090488D01*
X121468724Y-115030541D01*
X121502954Y-114876493D01*
X121502954Y-114405816D01*
X120968090Y-114405816D01*
X120784097Y-114478563D01*
X120711350Y-114662552D01*
X120711350Y-114876493D01*
X120762700Y-115039096D01*
X120925298Y-115090403D01*
X121306122Y-115090403D01*
X121306126Y-115090488D01*
X121845266Y-115411363D01*
X121721178Y-115377123D01*
X121609926Y-115282936D01*
X121348913Y-115411309D01*
X120968090Y-115411309D01*
X120493131Y-115282936D01*
X120347648Y-114833656D01*
X120347648Y-114748109D01*
X120972369Y-114084877D01*
X121502954Y-114084877D01*
X121502954Y-113870936D01*
X121421652Y-113665549D01*
X121182033Y-113592803D01*
X120518802Y-113592803D01*
X120518802Y-113271885D01*
X121139244Y-113271885D01*
X121686944Y-113434488D01*
X121866658Y-113956515D01*
X121866658Y-114983448D01*
X121913730Y-115081901D01*
X122080608Y-115111875D01*
X122080608Y-115411405D01*
X121845268Y-115411405D01*
X121845266Y-115411363D01*
X121845266Y-115411363D01*
G37*
G36*
X124314462Y-114735288D02*
X123587043Y-113682669D01*
X123809547Y-113597123D01*
X123899403Y-113370339D01*
X123899403Y-113045144D01*
X123899408Y-113045123D01*
X123822384Y-112809784D01*
X123587043Y-112737037D01*
X123103527Y-112737037D01*
X123103527Y-113682669D01*
X123587043Y-113682669D01*
X124314462Y-114735288D01*
X123942197Y-114311704D01*
X123856619Y-114089197D01*
X123629837Y-114003651D01*
X123103532Y-114003651D01*
X123103532Y-115090499D01*
X123625558Y-115090499D01*
X123865177Y-115017752D01*
X123942201Y-114778136D01*
X123942201Y-114311736D01*
X123942197Y-114311704D01*
X124314462Y-114735288D01*
X124143306Y-115257315D01*
X123587047Y-115411363D01*
X122731266Y-115411363D01*
X122731266Y-112416131D01*
X123535701Y-112416131D01*
X124091959Y-112570168D01*
X124271674Y-113083640D01*
X124271674Y-113327533D01*
X124036333Y-113823885D01*
X124314462Y-114350189D01*
X124314462Y-114735288D01*
X124314462Y-114735288D01*
G37*
G36*
X126625340Y-114726733D02*
X126261633Y-113870957D01*
X126180332Y-113665571D01*
X125940713Y-113592824D01*
X125713931Y-113592824D01*
X125474311Y-113665571D01*
X125393010Y-113870957D01*
X125393010Y-114812312D01*
X125474311Y-115017699D01*
X125713931Y-115090445D01*
X125940713Y-115090445D01*
X126180332Y-115017699D01*
X126261633Y-114812312D01*
X126261633Y-113870957D01*
X126625340Y-114726733D01*
X126445626Y-115248760D01*
X125897925Y-115411363D01*
X125756722Y-115411363D01*
X125204742Y-115248760D01*
X125029308Y-114726733D01*
X125029308Y-113956536D01*
X125204742Y-113434509D01*
X125756722Y-113271907D01*
X125897925Y-113271907D01*
X126445626Y-113434509D01*
X126625340Y-113956536D01*
X126625340Y-114726733D01*
X126625340Y-114726733D01*
G37*
G36*
X128294382Y-115411363D02*
X127960627Y-115270157D01*
X127845097Y-114897891D01*
X127845097Y-113592824D01*
X127438601Y-113592824D01*
X127438601Y-113271907D01*
X127845097Y-113271907D01*
X127845097Y-112758435D01*
X128208803Y-112758435D01*
X128208803Y-113271907D01*
X128833524Y-113271907D01*
X128833524Y-113592824D01*
X128208803Y-113592824D01*
X128208803Y-114919288D01*
X128255875Y-115051928D01*
X128401358Y-115090435D01*
X128833527Y-115090435D01*
X128833527Y-115411352D01*
X128294385Y-115411352D01*
X128294382Y-115411363D01*
X128294382Y-115411363D01*
G37*
G36*
X139457000Y-137836200D02*
X137504600Y-137836200D01*
X137504600Y-136483800D01*
X139457000Y-136483800D01*
X139457000Y-137836200D01*
X139457000Y-137836200D01*
G37*
G36*
X134580200Y-137836200D02*
X132627800Y-137836200D01*
X132627800Y-136483800D01*
X134580200Y-136483800D01*
X134580200Y-137836200D01*
X134580200Y-137836200D01*
G37*
G36*
X139457000Y-134534200D02*
X137504600Y-134534200D01*
X137504600Y-133181800D01*
X139457000Y-133181800D01*
X139457000Y-134534200D01*
X139457000Y-134534200D01*
G37*
G36*
X134580200Y-134534200D02*
X132627800Y-134534200D01*
X132627800Y-133181800D01*
X134580200Y-133181800D01*
X134580200Y-134534200D01*
X134580200Y-134534200D01*
G37*
G36*
X115352400Y-128946200D02*
X113400000Y-128946200D01*
X113400000Y-127593800D01*
X115352400Y-127593800D01*
X115352400Y-128946200D01*
X115352400Y-128946200D01*
G37*
G36*
X120229200Y-128946200D02*
X118276800Y-128946200D01*
X118276800Y-127593800D01*
X120229200Y-127593800D01*
X120229200Y-128946200D01*
X120229200Y-128946200D01*
G37*
G36*
X154646200Y-128819200D02*
X152693800Y-128819200D01*
X152693800Y-127466800D01*
X154646200Y-127466800D01*
X154646200Y-128819200D01*
X154646200Y-128819200D01*
G37*
G36*
X159523000Y-128819200D02*
X157570600Y-128819200D01*
X157570600Y-127466800D01*
X159523000Y-127466800D01*
X159523000Y-128819200D01*
X159523000Y-128819200D01*
G37*
G36*
X115352400Y-125644200D02*
X113400000Y-125644200D01*
X113400000Y-124291800D01*
X115352400Y-124291800D01*
X115352400Y-125644200D01*
X115352400Y-125644200D01*
G37*
G36*
X120229200Y-125644200D02*
X118276800Y-125644200D01*
X118276800Y-124291800D01*
X120229200Y-124291800D01*
X120229200Y-125644200D01*
X120229200Y-125644200D01*
G37*
G36*
X154646200Y-125517200D02*
X152693800Y-125517200D01*
X152693800Y-124164800D01*
X154646200Y-124164800D01*
X154646200Y-125517200D01*
X154646200Y-125517200D01*
G37*
G36*
X159523000Y-125517200D02*
X157570600Y-125517200D01*
X157570600Y-124164800D01*
X159523000Y-124164800D01*
X159523000Y-125517200D01*
X159523000Y-125517200D01*
G37*
G36*
X110094600Y-110404200D02*
X108142200Y-110404200D01*
X108142200Y-109051800D01*
X110094600Y-109051800D01*
X110094600Y-110404200D01*
X110094600Y-110404200D01*
G37*
G36*
X105217800Y-110404200D02*
X103265400Y-110404200D01*
X103265400Y-109051800D01*
X105217800Y-109051800D01*
X105217800Y-110404200D01*
X105217800Y-110404200D01*
G37*
G36*
X163790200Y-110404200D02*
X161837800Y-110404200D01*
X161837800Y-109051800D01*
X163790200Y-109051800D01*
X163790200Y-110404200D01*
X163790200Y-110404200D01*
G37*
G36*
X168667000Y-110404200D02*
X166714600Y-110404200D01*
X166714600Y-109051800D01*
X168667000Y-109051800D01*
X168667000Y-110404200D01*
X168667000Y-110404200D01*
G37*
G36*
X163790200Y-107102200D02*
X161837800Y-107102200D01*
X161837800Y-105749800D01*
X163790200Y-105749800D01*
X163790200Y-107102200D01*
X163790200Y-107102200D01*
G37*
G36*
X105217800Y-107102200D02*
X103265400Y-107102200D01*
X103265400Y-105749800D01*
X105217800Y-105749800D01*
X105217800Y-107102200D01*
X105217800Y-107102200D01*
G37*
G36*
X168667000Y-107102200D02*
X166714600Y-107102200D01*
X166714600Y-105749800D01*
X168667000Y-105749800D01*
X168667000Y-107102200D01*
X168667000Y-107102200D01*
G37*
G36*
X110094600Y-107102200D02*
X108142200Y-107102200D01*
X108142200Y-105749800D01*
X110094600Y-105749800D01*
X110094600Y-107102200D01*
X110094600Y-107102200D01*
G37*
G36*
X159599200Y-85639200D02*
X157646800Y-85639200D01*
X157646800Y-84286800D01*
X159599200Y-84286800D01*
X159599200Y-85639200D01*
X159599200Y-85639200D01*
G37*
G36*
X154722400Y-85639200D02*
X152770000Y-85639200D01*
X152770000Y-84286800D01*
X154722400Y-84286800D01*
X154722400Y-85639200D01*
X154722400Y-85639200D01*
G37*
G36*
X120280000Y-85258200D02*
X118327600Y-85258200D01*
X118327600Y-83905800D01*
X120280000Y-83905800D01*
X120280000Y-85258200D01*
X120280000Y-85258200D01*
G37*
G36*
X115403200Y-85258200D02*
X113450800Y-85258200D01*
X113450800Y-83905800D01*
X115403200Y-83905800D01*
X115403200Y-85258200D01*
X115403200Y-85258200D01*
G37*
G36*
X135931400Y-84644600D02*
X133779000Y-84644600D01*
X133779000Y-82792200D01*
X135931400Y-82792200D01*
X135931400Y-84644600D01*
X135931400Y-84644600D01*
G37*
G36*
X139931400Y-84644600D02*
X137779000Y-84644600D01*
X137779000Y-82792200D01*
X139931400Y-82792200D01*
X139931400Y-84644600D01*
X139931400Y-84644600D01*
G37*
G36*
X159599200Y-82337200D02*
X157646800Y-82337200D01*
X157646800Y-80984800D01*
X159599200Y-80984800D01*
X159599200Y-82337200D01*
X159599200Y-82337200D01*
G37*
G36*
X154722400Y-82337200D02*
X152770000Y-82337200D01*
X152770000Y-80984800D01*
X154722400Y-80984800D01*
X154722400Y-82337200D01*
X154722400Y-82337200D01*
G37*
G36*
X120280000Y-81956200D02*
X118327600Y-81956200D01*
X118327600Y-80603800D01*
X120280000Y-80603800D01*
X120280000Y-81956200D01*
X120280000Y-81956200D01*
G37*
G36*
X115403200Y-81956200D02*
X113450800Y-81956200D01*
X113450800Y-80603800D01*
X115403200Y-80603800D01*
X115403200Y-81956200D01*
X115403200Y-81956200D01*
G37*
G36*
X139711000Y-73193200D02*
X137758600Y-73193200D01*
X137758600Y-71840800D01*
X139711000Y-71840800D01*
X139711000Y-73193200D01*
X139711000Y-73193200D01*
G37*
G36*
X134834200Y-73193200D02*
X132881800Y-73193200D01*
X132881800Y-71840800D01*
X134834200Y-71840800D01*
X134834200Y-73193200D01*
X134834200Y-73193200D01*
G37*
G36*
X139711000Y-69891200D02*
X137758600Y-69891200D01*
X137758600Y-68538800D01*
X139711000Y-68538800D01*
X139711000Y-69891200D01*
X139711000Y-69891200D01*
G37*
G36*
X134834200Y-69891200D02*
X132881800Y-69891200D01*
X132881800Y-68538800D01*
X134834200Y-68538800D01*
X134834200Y-69891200D01*
X134834200Y-69891200D01*
G37*
M02*
