%TF.GenerationSoftware,KiCad,Pcbnew,4.0.7-e2-6376~58~ubuntu16.04.1*%
%TF.CreationDate,2018-02-19T14:40:51-07:00*%
%TF.ProjectId,001,3030312E6B696361645F706362000000,rev?*%
%TF.FileFunction,Profile,NP*%
%FSLAX46Y46*%
G04 Gerber Fmt 4.6, Leading zero omitted, Abs format (unit mm)*
G04 Created by KiCad (PCBNEW 4.0.7-e2-6376~58~ubuntu16.04.1) date Mon Feb 19 14:40:51 2018*
%MOMM*%
%LPD*%
G01*
G04 APERTURE LIST*
%ADD10C,0.100000*%
%ADD11C,0.152400*%
G04 APERTURE END LIST*
D10*
D11*
X121569699Y-62153800D02*
G75*
G03X121569699Y-62153800I-1707099J0D01*
G01*
X154640499Y-62128400D02*
G75*
G03X154640499Y-62128400I-1707099J0D01*
G01*
D10*
X116401525Y-64786061D02*
X116449326Y-64402071D01*
X116640493Y-62866106D02*
X116688291Y-62482115D01*
X151135043Y-59348714D02*
X151369706Y-59153944D01*
X150902180Y-59545621D02*
X151135043Y-59348714D01*
X150671133Y-59744685D02*
X150902180Y-59545621D01*
X119839200Y-58378180D02*
X120109576Y-58562164D01*
X116018521Y-67857907D02*
X116066484Y-67473937D01*
X118487321Y-57458262D02*
X118757696Y-57642246D01*
X116353716Y-65170050D02*
X116401525Y-64786061D01*
X139864613Y-59286899D02*
X140030998Y-59557275D01*
X139698228Y-59016523D02*
X139864613Y-59286899D01*
X139531843Y-58746147D02*
X139698228Y-59016523D01*
X156493380Y-64051284D02*
X156550257Y-64412461D01*
X156434642Y-63690481D02*
X156493380Y-64051284D01*
X156373800Y-63330102D02*
X156434642Y-63690481D01*
X171007122Y-94065141D02*
X171073243Y-94272915D01*
X170940248Y-93857618D02*
X171007122Y-94065141D01*
X170872747Y-93650330D02*
X170940248Y-93857618D01*
X170804739Y-93443256D02*
X170872747Y-93650330D01*
X170736289Y-93236383D02*
X170804739Y-93443256D01*
X170667425Y-93029696D02*
X170736289Y-93236383D01*
X116975206Y-60178189D02*
X117023042Y-59794203D01*
X148339337Y-138979225D02*
X148081475Y-139064148D01*
X148596750Y-138893119D02*
X148339337Y-138979225D01*
X148853647Y-138805660D02*
X148596750Y-138893119D01*
X149109964Y-138716679D02*
X148853647Y-138805660D01*
X149365638Y-138626008D02*
X149109964Y-138716679D01*
X149620604Y-138533477D02*
X149365638Y-138626008D01*
X149874797Y-138438918D02*
X149620604Y-138533477D01*
X150128153Y-138342160D02*
X149874797Y-138438918D01*
X150380607Y-138243036D02*
X150128153Y-138342160D01*
X150632096Y-138141377D02*
X150380607Y-138243036D01*
X150882576Y-138037097D02*
X150632096Y-138141377D01*
X151132033Y-137930237D02*
X150882576Y-138037097D01*
X151380459Y-137820849D02*
X151132033Y-137930237D01*
X131927722Y-61785877D02*
X132057311Y-61529899D01*
X131798134Y-62041854D02*
X131927722Y-61785877D01*
X156310611Y-62970195D02*
X156373800Y-63330102D01*
X156244830Y-62610811D02*
X156310611Y-62970195D01*
X156176216Y-62251999D02*
X156244830Y-62610811D01*
X135037844Y-55642424D02*
X135167432Y-55386447D01*
X134908255Y-55898401D02*
X135037844Y-55642424D01*
X170598178Y-92823183D02*
X170667425Y-93029696D01*
X170528577Y-92616830D02*
X170598178Y-92823183D01*
X170458651Y-92410623D02*
X170528577Y-92616830D01*
X170388430Y-92204550D02*
X170458651Y-92410623D01*
X170317943Y-91998597D02*
X170388430Y-92204550D01*
X170247221Y-91792750D02*
X170317943Y-91998597D01*
X157981121Y-74684342D02*
X158003353Y-74801709D01*
X157962456Y-74565548D02*
X157981121Y-74684342D01*
X157947002Y-74445470D02*
X157962456Y-74565548D01*
X157934401Y-74324251D02*
X157947002Y-74445470D01*
X171714798Y-96580338D02*
X171762044Y-96792576D01*
X171665285Y-96368574D02*
X171714798Y-96580338D01*
X171613632Y-96157265D02*
X171665285Y-96368574D01*
X171559964Y-95946392D02*
X171613632Y-96157265D01*
X171504408Y-95735938D02*
X171559964Y-95946392D01*
X171447090Y-95525883D02*
X171504408Y-95735938D01*
X150441780Y-59945758D02*
X150671133Y-59744685D01*
X150213988Y-60148679D02*
X150441780Y-59945758D01*
X149987624Y-60353290D02*
X150213988Y-60148679D01*
X158287759Y-75571656D02*
X158348970Y-75673180D01*
X158231490Y-75468000D02*
X158287759Y-75571656D01*
X158180514Y-75362146D02*
X158231490Y-75468000D01*
X158135093Y-75254054D02*
X158180514Y-75362146D01*
X156916738Y-66946992D02*
X156967491Y-67309372D01*
X156866071Y-66584589D02*
X156916738Y-66946992D01*
X156815248Y-66222213D02*
X156866071Y-66584589D01*
X156764024Y-65859912D02*
X156815248Y-66222213D01*
X126868973Y-63161754D02*
X127139349Y-63345737D01*
X126598597Y-62977770D02*
X126868973Y-63161754D01*
X99926823Y-108821789D02*
X99893509Y-108561485D01*
X99960895Y-109082026D02*
X99926823Y-108821789D01*
X99995810Y-109342171D02*
X99960895Y-109082026D01*
X100031656Y-109602198D02*
X99995810Y-109342171D01*
X100068520Y-109862081D02*
X100031656Y-109602198D01*
X100106490Y-110121792D02*
X100068520Y-109862081D01*
X100145653Y-110381305D02*
X100106490Y-110121792D01*
X100186097Y-110640594D02*
X100145653Y-110381305D01*
X100227910Y-110899633D02*
X100186097Y-110640594D01*
X100271179Y-111158393D02*
X100227910Y-110899633D01*
X100315992Y-111416850D02*
X100271179Y-111158393D01*
X100362437Y-111674977D02*
X100315992Y-111416850D01*
X100410601Y-111932746D02*
X100362437Y-111674977D01*
X100460571Y-112190132D02*
X100410601Y-111932746D01*
X100512436Y-112447108D02*
X100460571Y-112190132D01*
X100566283Y-112703648D02*
X100512436Y-112447108D01*
X100622188Y-112959727D02*
X100566283Y-112703648D01*
X100680099Y-113215355D02*
X100622188Y-112959727D01*
X100739885Y-113470562D02*
X100680099Y-113215355D01*
X100801410Y-113725378D02*
X100739885Y-113470562D01*
X100864541Y-113979833D02*
X100801410Y-113725378D01*
X100929145Y-114233957D02*
X100864541Y-113979833D01*
X100995086Y-114487780D02*
X100929145Y-114233957D01*
X101062233Y-114741332D02*
X100995086Y-114487780D01*
X101130450Y-114994643D02*
X101062233Y-114741332D01*
X101199605Y-115247744D02*
X101130450Y-114994643D01*
X101269562Y-115500664D02*
X101199605Y-115247744D01*
X101340189Y-115753434D02*
X101269562Y-115500664D01*
X101411350Y-116006083D02*
X101340189Y-115753434D01*
X101482914Y-116258642D02*
X101411350Y-116006083D01*
X101554745Y-116511141D02*
X101482914Y-116258642D01*
X101626710Y-116763610D02*
X101554745Y-116511141D01*
X101750834Y-117059992D02*
X101626710Y-116763610D01*
X101875124Y-117356298D02*
X101750834Y-117059992D01*
X101999745Y-117652453D02*
X101875124Y-117356298D01*
X102124863Y-117948382D02*
X101999745Y-117652453D01*
X102250644Y-118244009D02*
X102124863Y-117948382D01*
X102377254Y-118539260D02*
X102250644Y-118244009D01*
X102504857Y-118834057D02*
X102377254Y-118539260D01*
X102633621Y-119128327D02*
X102504857Y-118834057D01*
X102763711Y-119421993D02*
X102633621Y-119128327D01*
X102895291Y-119714981D02*
X102763711Y-119421993D01*
X103028529Y-120007214D02*
X102895291Y-119714981D01*
X103163589Y-120298618D02*
X103028529Y-120007214D01*
X103300638Y-120589117D02*
X103163589Y-120298618D01*
X103439841Y-120878635D02*
X103300638Y-120589117D01*
X103581364Y-121167097D02*
X103439841Y-120878635D01*
X103725372Y-121454428D02*
X103581364Y-121167097D01*
X103871975Y-121740556D02*
X103725372Y-121454428D01*
X104021201Y-122025415D02*
X103871975Y-121740556D01*
X104173070Y-122308940D02*
X104021201Y-122025415D01*
X104327602Y-122591065D02*
X104173070Y-122308940D01*
X104484819Y-122871725D02*
X104327602Y-122591065D01*
X104644738Y-123150854D02*
X104484819Y-122871725D01*
X104807382Y-123428387D02*
X104644738Y-123150854D01*
X104972770Y-123704259D02*
X104807382Y-123428387D01*
X105140922Y-123978404D02*
X104972770Y-123704259D01*
X105311858Y-124250756D02*
X105140922Y-123978404D01*
X105485599Y-124521251D02*
X105311858Y-124250756D01*
X105662165Y-124789822D02*
X105485599Y-124521251D01*
X105841575Y-125056405D02*
X105662165Y-124789822D01*
X106023851Y-125320933D02*
X105841575Y-125056405D01*
X106209012Y-125583342D02*
X106023851Y-125320933D01*
X106397070Y-125843575D02*
X106209012Y-125583342D01*
X138866302Y-57664644D02*
X139032688Y-57935019D01*
X138699917Y-57394268D02*
X138866302Y-57664644D01*
X138533532Y-57123892D02*
X138699917Y-57394268D01*
X119979546Y-137549296D02*
X119729025Y-137405960D01*
X120230096Y-137692564D02*
X119979546Y-137549296D01*
X120550180Y-137807482D02*
X120230096Y-137692564D01*
X120870307Y-137922294D02*
X120550180Y-137807482D01*
X121190517Y-138036894D02*
X120870307Y-137922294D01*
X121510853Y-138151176D02*
X121190517Y-138036894D01*
X121831358Y-138265034D02*
X121510853Y-138151176D01*
X122152072Y-138378362D02*
X121831358Y-138265034D01*
X122473038Y-138491054D02*
X122152072Y-138378362D01*
X122794298Y-138603004D02*
X122473038Y-138491054D01*
X123115894Y-138714106D02*
X122794298Y-138603004D01*
X123437868Y-138824254D02*
X123115894Y-138714106D01*
X123760262Y-138933341D02*
X123437868Y-138824254D01*
X124083118Y-139041263D02*
X123760262Y-138933341D01*
X124406478Y-139147912D02*
X124083118Y-139041263D01*
X124730384Y-139253183D02*
X124406478Y-139147912D01*
X125054877Y-139356970D02*
X124730384Y-139253183D01*
X125380000Y-139459167D02*
X125054877Y-139356970D01*
X125705779Y-139559639D02*
X125380000Y-139459167D01*
X126032217Y-139658206D02*
X125705779Y-139559639D01*
X126359312Y-139754686D02*
X126032217Y-139658206D01*
X126687065Y-139848896D02*
X126359312Y-139754686D01*
X127015476Y-139940653D02*
X126687065Y-139848896D01*
X127344544Y-140029775D02*
X127015476Y-139940653D01*
X127674270Y-140116077D02*
X127344544Y-140029775D01*
X128004654Y-140199377D02*
X127674270Y-140116077D01*
X128335695Y-140279493D02*
X128004654Y-140199377D01*
X128667394Y-140356241D02*
X128335695Y-140279493D01*
X128999749Y-140429438D02*
X128667394Y-140356241D01*
X129332762Y-140498901D02*
X128999749Y-140429438D01*
X129666432Y-140564448D02*
X129332762Y-140498901D01*
X130000759Y-140625895D02*
X129666432Y-140564448D01*
X130335743Y-140683060D02*
X130000759Y-140625895D01*
X130671382Y-140735782D02*
X130335743Y-140683060D01*
X131007649Y-140784171D02*
X130671382Y-140735782D01*
X131344504Y-140828513D02*
X131007649Y-140784171D01*
X131681903Y-140869097D02*
X131344504Y-140828513D01*
X132019806Y-140906212D02*
X131681903Y-140869097D01*
X132358170Y-140940148D02*
X132019806Y-140906212D01*
X132696954Y-140971192D02*
X132358170Y-140940148D01*
X133036115Y-140999636D02*
X132696954Y-140971192D01*
X133375611Y-141025766D02*
X133036115Y-140999636D01*
X133715401Y-141049873D02*
X133375611Y-141025766D01*
X134055443Y-141072246D02*
X133715401Y-141049873D01*
X134395694Y-141093173D02*
X134055443Y-141072246D01*
X134736113Y-141112944D02*
X134395694Y-141093173D01*
X135076658Y-141131848D02*
X134736113Y-141112944D01*
X135417286Y-141150173D02*
X135076658Y-141131848D01*
X135757957Y-141168210D02*
X135417286Y-141150173D01*
X135990330Y-141158846D02*
X135757957Y-141168210D01*
X136222706Y-141149433D02*
X135990330Y-141158846D01*
X136455087Y-141139922D02*
X136222706Y-141149433D01*
X136687475Y-141130263D02*
X136455087Y-141139922D01*
X136919875Y-141120408D02*
X136687475Y-141130263D01*
X137152287Y-141110306D02*
X136919875Y-141120408D01*
X137384715Y-141099910D02*
X137152287Y-141110306D01*
X137617161Y-141089169D02*
X137384715Y-141099910D01*
X137849629Y-141078034D02*
X137617161Y-141089169D01*
X138082119Y-141066457D02*
X137849629Y-141078034D01*
X138314636Y-141054388D02*
X138082119Y-141066457D01*
X131409369Y-62809785D02*
X131538957Y-62553808D01*
X131279780Y-63065762D02*
X131409369Y-62809785D01*
X117166568Y-58642248D02*
X117214415Y-58258264D01*
X129572732Y-65001590D02*
X129843108Y-65185573D01*
X129302356Y-64817606D02*
X129572732Y-65001590D01*
X167369568Y-86075077D02*
X167538254Y-86354463D01*
X167198639Y-85796989D02*
X167369568Y-86075077D01*
X167025378Y-85520265D02*
X167198639Y-85796989D01*
X166849787Y-85244943D02*
X167025378Y-85520265D01*
X166671874Y-84971057D02*
X166849787Y-85244943D01*
X117118723Y-59026233D02*
X117166568Y-58642248D01*
X163517676Y-80811376D02*
X163730891Y-81058329D01*
X163302771Y-80565879D02*
X163517676Y-80811376D01*
X163086317Y-80321717D02*
X163302771Y-80565879D01*
X162868453Y-80078769D02*
X163086317Y-80321717D01*
X162649322Y-79836914D02*
X162868453Y-80078769D01*
X171388136Y-95316210D02*
X171447090Y-95525883D01*
X171327673Y-95106899D02*
X171388136Y-95316210D01*
X171265826Y-94897933D02*
X171327673Y-95106899D01*
X171202721Y-94689292D02*
X171265826Y-94897933D01*
X171138484Y-94480959D02*
X171202721Y-94689292D01*
X171073243Y-94272915D02*
X171138484Y-94480959D01*
X120920704Y-59114115D02*
X121191080Y-59298098D01*
X118216945Y-57274279D02*
X118487321Y-57458262D01*
X159622659Y-76984942D02*
X159717207Y-77061384D01*
X159528426Y-76907463D02*
X159622659Y-76984942D01*
X159434532Y-76828868D02*
X159528426Y-76907463D01*
X159341002Y-76749076D02*
X159434532Y-76828868D01*
X134519490Y-56666333D02*
X134649079Y-56410356D01*
X134389902Y-56922310D02*
X134519490Y-56666333D01*
X115246800Y-74000883D02*
X115295184Y-73616966D01*
X164818517Y-127223469D02*
X164650525Y-127442846D01*
X164984847Y-127002806D02*
X164818517Y-127223469D01*
X165149654Y-126780963D02*
X164984847Y-127002806D01*
X165313077Y-126558049D02*
X165149654Y-126780963D01*
X165475254Y-126334169D02*
X165313077Y-126558049D01*
X165636323Y-126109432D02*
X165475254Y-126334169D01*
X165796423Y-125883945D02*
X165636323Y-126109432D01*
X165955692Y-125657814D02*
X165796423Y-125883945D01*
X172405462Y-101403633D02*
X172421018Y-101570571D01*
X172389429Y-101236726D02*
X172405462Y-101403633D01*
X172372987Y-101069846D02*
X172389429Y-101236726D01*
X172356204Y-100902987D02*
X172372987Y-101069846D01*
X172339148Y-100736147D02*
X172356204Y-100902987D01*
X172321887Y-100569319D02*
X172339148Y-100736147D01*
X135556198Y-54618515D02*
X135685786Y-54362538D01*
X135426609Y-54874493D02*
X135556198Y-54618515D01*
X116258055Y-65938023D02*
X116305893Y-65554037D01*
X155346442Y-58692906D02*
X155438279Y-59047025D01*
X155253382Y-58339035D02*
X155346442Y-58692906D01*
X155159305Y-57985369D02*
X155253382Y-58339035D01*
X117946569Y-57090295D02*
X118216945Y-57274279D01*
X170176291Y-91586997D02*
X170247221Y-91792750D01*
X170105185Y-91381324D02*
X170176291Y-91586997D01*
X170033931Y-91175718D02*
X170105185Y-91381324D01*
X169962560Y-90970165D02*
X170033931Y-91175718D01*
X169891099Y-90764652D02*
X169962560Y-90970165D01*
X169819580Y-90559166D02*
X169891099Y-90764652D01*
X166114269Y-125431148D02*
X165955692Y-125657814D01*
X166272292Y-125204052D02*
X166114269Y-125431148D01*
X166429900Y-124976635D02*
X166272292Y-125204052D01*
X166587231Y-124749004D02*
X166429900Y-124976635D01*
X166744423Y-124521265D02*
X166587231Y-124749004D01*
X166938036Y-124201148D02*
X166744423Y-124521265D01*
X167131334Y-123880875D02*
X166938036Y-124201148D01*
X167324002Y-123560290D02*
X167131334Y-123880875D01*
X158886282Y-76329659D02*
X158974372Y-76416491D01*
X158800322Y-76241221D02*
X158886282Y-76329659D01*
X158716844Y-76151111D02*
X158800322Y-76241221D01*
X158636197Y-76059263D02*
X158716844Y-76151111D01*
X151627843Y-137708986D02*
X151380459Y-137820849D01*
X151874175Y-137594700D02*
X151627843Y-137708986D01*
X152119446Y-137478043D02*
X151874175Y-137594700D01*
X152363646Y-137359067D02*
X152119446Y-137478043D01*
X152606764Y-137237825D02*
X152363646Y-137359067D01*
X152848792Y-137114369D02*
X152606764Y-137237825D01*
X153089720Y-136988751D02*
X152848792Y-137114369D01*
X153329536Y-136861024D02*
X153089720Y-136988751D01*
X153568233Y-136731240D02*
X153329536Y-136861024D01*
X153805799Y-136599451D02*
X153568233Y-136731240D01*
X154042225Y-136465709D02*
X153805799Y-136599451D01*
X154277502Y-136330066D02*
X154042225Y-136465709D01*
X154511623Y-136192580D02*
X154277502Y-136330066D01*
X162429064Y-79596030D02*
X162649322Y-79836914D01*
X162207820Y-79355995D02*
X162429064Y-79596030D01*
X161985731Y-79116689D02*
X162207820Y-79355995D01*
X161762937Y-78877990D02*
X161985731Y-79116689D01*
X161539580Y-78639776D02*
X161762937Y-78877990D01*
X167515725Y-123239239D02*
X167324002Y-123560290D01*
X167706188Y-122917565D02*
X167515725Y-123239239D01*
X167895076Y-122595113D02*
X167706188Y-122917565D01*
X168082073Y-122271727D02*
X167895076Y-122595113D01*
X168266865Y-121947252D02*
X168082073Y-122271727D01*
X168449137Y-121621532D02*
X168266865Y-121947252D01*
X168628573Y-121294410D02*
X168449137Y-121621532D01*
X155872005Y-60822763D02*
X155952232Y-61179229D01*
X155789334Y-60466792D02*
X155872005Y-60822763D01*
X155704422Y-60111274D02*
X155789334Y-60466792D01*
X101781483Y-92568402D02*
X101849650Y-92397425D01*
X101713355Y-92739393D02*
X101781483Y-92568402D01*
X101643634Y-92988328D02*
X101713355Y-92739393D01*
X101573988Y-93237283D02*
X101643634Y-92988328D01*
X101504494Y-93486279D02*
X101573988Y-93237283D01*
X101435225Y-93735336D02*
X101504494Y-93486279D01*
X101366259Y-93984473D02*
X101435225Y-93735336D01*
X101297670Y-94233712D02*
X101366259Y-93984473D01*
X101229533Y-94483071D02*
X101297670Y-94233712D01*
X101161925Y-94732573D02*
X101229533Y-94483071D01*
X101094920Y-94982236D02*
X101161925Y-94732573D01*
X101028595Y-95232081D02*
X101094920Y-94982236D01*
X100963024Y-95482128D02*
X101028595Y-95232081D01*
X100898283Y-95732398D02*
X100963024Y-95482128D01*
X100834448Y-95982911D02*
X100898283Y-95732398D01*
X100771593Y-96233686D02*
X100834448Y-95982911D01*
X100709795Y-96484745D02*
X100771593Y-96233686D01*
X100649129Y-96736106D02*
X100709795Y-96484745D01*
X100589655Y-96987781D02*
X100649129Y-96736106D01*
X100531412Y-97239766D02*
X100589655Y-96987781D01*
X100474439Y-97492054D02*
X100531412Y-97239766D01*
X100418774Y-97744642D02*
X100474439Y-97492054D01*
X100364454Y-97997524D02*
X100418774Y-97744642D01*
X100311517Y-98250694D02*
X100364454Y-97997524D01*
X100260001Y-98504149D02*
X100311517Y-98250694D01*
X100209944Y-98757882D02*
X100260001Y-98504149D01*
X100161384Y-99011889D02*
X100209944Y-98757882D01*
X100114358Y-99266164D02*
X100161384Y-99011889D01*
X100068905Y-99520702D02*
X100114358Y-99266164D01*
X100025062Y-99775498D02*
X100068905Y-99520702D01*
X99982867Y-100030548D02*
X100025062Y-99775498D01*
X99942359Y-100285845D02*
X99982867Y-100030548D01*
X99903574Y-100541385D02*
X99942359Y-100285845D01*
X99866542Y-100797162D02*
X99903574Y-100541385D01*
X99831206Y-101053165D02*
X99866542Y-100797162D01*
X99797452Y-101309379D02*
X99831206Y-101053165D01*
X99765169Y-101565788D02*
X99797452Y-101309379D01*
X99734242Y-101822378D02*
X99765169Y-101565788D01*
X99704559Y-102079133D02*
X99734242Y-101822378D01*
X99676006Y-102336039D02*
X99704559Y-102079133D01*
X99648471Y-102593080D02*
X99676006Y-102336039D01*
X99621840Y-102850242D02*
X99648471Y-102593080D01*
X99596001Y-103107509D02*
X99621840Y-102850242D01*
X99570841Y-103364866D02*
X99596001Y-103107509D01*
X99546245Y-103622298D02*
X99570841Y-103364866D01*
X99522102Y-103879791D02*
X99546245Y-103622298D01*
X99498298Y-104137329D02*
X99522102Y-103879791D01*
X99474720Y-104394897D02*
X99498298Y-104137329D01*
X99451255Y-104652480D02*
X99474720Y-104394897D01*
X99479009Y-104913214D02*
X99451255Y-104652480D01*
X99506808Y-105173945D02*
X99479009Y-104913214D01*
X99534701Y-105434669D02*
X99506808Y-105173945D01*
X99562733Y-105695381D02*
X99534701Y-105434669D01*
X99590950Y-105956080D02*
X99562733Y-105695381D01*
X99619398Y-106216760D02*
X99590950Y-105956080D01*
X99648125Y-106477419D02*
X99619398Y-106216760D01*
X99677176Y-106738053D02*
X99648125Y-106477419D01*
X99706598Y-106998658D02*
X99677176Y-106738053D01*
X99736437Y-107259231D02*
X99706598Y-106998658D01*
X99766739Y-107519768D02*
X99736437Y-107259231D01*
X99797551Y-107780266D02*
X99766739Y-107519768D01*
X99828919Y-108040720D02*
X99797551Y-107780266D01*
X99860889Y-108301128D02*
X99828919Y-108040720D01*
X99893509Y-108561485D02*
X99860889Y-108301128D01*
X108748953Y-80660469D02*
X108950674Y-80438861D01*
X108550126Y-80884516D02*
X108748953Y-80660469D01*
X108354367Y-81111127D02*
X108550126Y-80884516D01*
X108161836Y-81340412D02*
X108354367Y-81111127D01*
X107972474Y-81572315D02*
X108161836Y-81340412D01*
X107786073Y-81806663D02*
X107972474Y-81572315D01*
X107602420Y-82043281D02*
X107786073Y-81806663D01*
X107421304Y-82281995D02*
X107602420Y-82043281D01*
X107242515Y-82522631D02*
X107421304Y-82281995D01*
X107065840Y-82765013D02*
X107242515Y-82522631D01*
X106891068Y-83008966D02*
X107065840Y-82765013D01*
X106717988Y-83254317D02*
X106891068Y-83008966D01*
X106546388Y-83500890D02*
X106717988Y-83254317D01*
X106376057Y-83748512D02*
X106546388Y-83500890D01*
X106206783Y-83997006D02*
X106376057Y-83748512D01*
X106038354Y-84246199D02*
X106206783Y-83997006D01*
X105870561Y-84495917D02*
X106038354Y-84246199D01*
X105703190Y-84745983D02*
X105870561Y-84495917D01*
X105536030Y-84996224D02*
X105703190Y-84745983D01*
X105437855Y-85152157D02*
X105536030Y-84996224D01*
X105339764Y-85308137D02*
X105437855Y-85152157D01*
X105241839Y-85464210D02*
X105339764Y-85308137D01*
X105144165Y-85620422D02*
X105241839Y-85464210D01*
X105046825Y-85776819D02*
X105144165Y-85620422D01*
X104949902Y-85933449D02*
X105046825Y-85776819D01*
X104853480Y-86090357D02*
X104949902Y-85933449D01*
X104757642Y-86247590D02*
X104853480Y-86090357D01*
X104662472Y-86405194D02*
X104757642Y-86247590D01*
X104568053Y-86563216D02*
X104662472Y-86405194D01*
X104474468Y-86721702D02*
X104568053Y-86563216D01*
X104381802Y-86880699D02*
X104474468Y-86721702D01*
X104290137Y-87040252D02*
X104381802Y-86880699D01*
X104199557Y-87200409D02*
X104290137Y-87040252D01*
X104110145Y-87361216D02*
X104199557Y-87200409D01*
X104021985Y-87522719D02*
X104110145Y-87361216D01*
X103935113Y-87684935D02*
X104021985Y-87522719D01*
X103849492Y-87847838D02*
X103935113Y-87684935D01*
X103765076Y-88011396D02*
X103849492Y-87847838D01*
X103681823Y-88175578D02*
X103765076Y-88011396D01*
X103599685Y-88340352D02*
X103681823Y-88175578D01*
X103518620Y-88505685D02*
X103599685Y-88340352D01*
X103438582Y-88671548D02*
X103518620Y-88505685D01*
X103359526Y-88837907D02*
X103438582Y-88671548D01*
X103281409Y-89004732D02*
X103359526Y-88837907D01*
X103204184Y-89171991D02*
X103281409Y-89004732D01*
X103127809Y-89339652D02*
X103204184Y-89171991D01*
X103052237Y-89507684D02*
X103127809Y-89339652D01*
X102977424Y-89676054D02*
X103052237Y-89507684D01*
X102903326Y-89844733D02*
X102977424Y-89676054D01*
X102829897Y-90013687D02*
X102903326Y-89844733D01*
X102757094Y-90182886D02*
X102829897Y-90013687D01*
X102684875Y-90352309D02*
X102757094Y-90182886D01*
X102613202Y-90521941D02*
X102684875Y-90352309D01*
X102542035Y-90691768D02*
X102613202Y-90521941D01*
X102471336Y-90861774D02*
X102542035Y-90691768D01*
X102401065Y-91031944D02*
X102471336Y-90861774D01*
X102331184Y-91202263D02*
X102401065Y-91031944D01*
X102261653Y-91372717D02*
X102331184Y-91202263D01*
X102192434Y-91543290D02*
X102261653Y-91372717D01*
X102123488Y-91713968D02*
X102192434Y-91543290D01*
X102054775Y-91884735D02*
X102123488Y-91713968D01*
X101986257Y-92055577D02*
X102054775Y-91884735D01*
X101917895Y-92226479D02*
X101986257Y-92055577D01*
X101849650Y-92397425D02*
X101917895Y-92226479D01*
X106587917Y-126101694D02*
X106397070Y-125843575D01*
X106781369Y-126357838D02*
X106587917Y-126101694D01*
X106977241Y-126612147D02*
X106781369Y-126357838D01*
X107175346Y-126864764D02*
X106977241Y-126612147D01*
X107375498Y-127115830D02*
X107175346Y-126864764D01*
X107577511Y-127365484D02*
X107375498Y-127115830D01*
X107781199Y-127613869D02*
X107577511Y-127365484D01*
X107986375Y-127861126D02*
X107781199Y-127613869D01*
X108192854Y-128107395D02*
X107986375Y-127861126D01*
X108400450Y-128352817D02*
X108192854Y-128107395D01*
X108608976Y-128597534D02*
X108400450Y-128352817D01*
X108818247Y-128841687D02*
X108608976Y-128597534D01*
X109028076Y-129085417D02*
X108818247Y-128841687D01*
X109238277Y-129328864D02*
X109028076Y-129085417D01*
X109448664Y-129572171D02*
X109238277Y-129328864D01*
X109643020Y-129787544D02*
X109448664Y-129572171D01*
X109837575Y-130002690D02*
X109643020Y-129787544D01*
X110032530Y-130217381D02*
X109837575Y-130002690D01*
X110228083Y-130431391D02*
X110032530Y-130217381D01*
X110424435Y-130644491D02*
X110228083Y-130431391D01*
X110621786Y-130856455D02*
X110424435Y-130644491D01*
X110820335Y-131067055D02*
X110621786Y-130856455D01*
X111020281Y-131276065D02*
X110820335Y-131067055D01*
X111221824Y-131483256D02*
X111020281Y-131276065D01*
X111425165Y-131688402D02*
X111221824Y-131483256D01*
X111630502Y-131891274D02*
X111425165Y-131688402D01*
X111838036Y-132091647D02*
X111630502Y-131891274D01*
X112047965Y-132289293D02*
X111838036Y-132091647D01*
X112260490Y-132483984D02*
X112047965Y-132289293D01*
X112475811Y-132675493D02*
X112260490Y-132483984D01*
X112694124Y-132863595D02*
X112475811Y-132675493D01*
X112915487Y-133048213D02*
X112694124Y-132863595D01*
X113139747Y-133229488D02*
X112915487Y-133048213D01*
X113366736Y-133407579D02*
X113139747Y-133229488D01*
X113596282Y-133582649D02*
X113366736Y-133407579D01*
X113828216Y-133754856D02*
X113596282Y-133582649D01*
X114062367Y-133924362D02*
X113828216Y-133754856D01*
X114298566Y-134091326D02*
X114062367Y-133924362D01*
X114536643Y-134255908D02*
X114298566Y-134091326D01*
X114776428Y-134418270D02*
X114536643Y-134255908D01*
X115017751Y-134578571D02*
X114776428Y-134418270D01*
X115260441Y-134736971D02*
X115017751Y-134578571D01*
X115504329Y-134893631D02*
X115260441Y-134736971D01*
X115749245Y-135048712D02*
X115504329Y-134893631D01*
X115995019Y-135202373D02*
X115749245Y-135048712D01*
X116241480Y-135354774D02*
X115995019Y-135202373D01*
X116488467Y-135506072D02*
X116241480Y-135354774D01*
X116735901Y-135656365D02*
X116488467Y-135506072D01*
X116983749Y-135805722D02*
X116735901Y-135656365D01*
X117231984Y-135954209D02*
X116983749Y-135805722D01*
X117480575Y-136101893D02*
X117231984Y-135954209D01*
X117729492Y-136248841D02*
X117480575Y-136101893D01*
X117978707Y-136395120D02*
X117729492Y-136248841D01*
X118228188Y-136540797D02*
X117978707Y-136395120D01*
X118477907Y-136685939D02*
X118228188Y-136540797D01*
X118727834Y-136830612D02*
X118477907Y-136685939D01*
X118977939Y-136974884D02*
X118727834Y-136830612D01*
X119228192Y-137118821D02*
X118977939Y-136974884D01*
X119478564Y-137262491D02*
X119228192Y-137118821D01*
X119729025Y-137405960D02*
X119478564Y-137262491D01*
X141362079Y-61720281D02*
X141528464Y-61990657D01*
X141195694Y-61449906D02*
X141362079Y-61720281D01*
X141029309Y-61179530D02*
X141195694Y-61449906D01*
X117676193Y-56906312D02*
X117946569Y-57090295D01*
X115295184Y-73616966D02*
X115343560Y-73233048D01*
X156712157Y-65497737D02*
X156764024Y-65859912D01*
X156659402Y-65135737D02*
X156712157Y-65497737D01*
X156605516Y-64773962D02*
X156659402Y-65135737D01*
X156550257Y-64412461D02*
X156605516Y-64773962D01*
X116449326Y-64402071D02*
X116497119Y-64018080D01*
X147773325Y-62457131D02*
X147992711Y-62244421D01*
X147553907Y-62669770D02*
X147773325Y-62457131D01*
X147334331Y-62882190D02*
X147553907Y-62669770D01*
X117310114Y-57490296D02*
X117357965Y-57106312D01*
X145129818Y-64994578D02*
X145350787Y-64784038D01*
X144908782Y-65205029D02*
X145129818Y-64994578D01*
X144687694Y-65415408D02*
X144908782Y-65205029D01*
X115150019Y-74768716D02*
X115150019Y-74768716D01*
X115150019Y-74768716D02*
X115150019Y-74768716D01*
X114922459Y-74963829D02*
X115150019Y-74768716D01*
X114694935Y-75158993D02*
X114922459Y-74963829D01*
X114467480Y-75354258D02*
X114694935Y-75158993D01*
X114240132Y-75549674D02*
X114467480Y-75354258D01*
X114012924Y-75745291D02*
X114240132Y-75549674D01*
X113785891Y-75941160D02*
X114012924Y-75745291D01*
X113559070Y-76137331D02*
X113785891Y-75941160D01*
X113332495Y-76333855D02*
X113559070Y-76137331D01*
X113106202Y-76530782D02*
X113332495Y-76333855D01*
X112880225Y-76728163D02*
X113106202Y-76530782D01*
X112654600Y-76926047D02*
X112880225Y-76728163D01*
X112429362Y-77124485D02*
X112654600Y-76926047D01*
X112204546Y-77323528D02*
X112429362Y-77124485D01*
X111980187Y-77523226D02*
X112204546Y-77323528D01*
X111756321Y-77723629D02*
X111980187Y-77523226D01*
X111532983Y-77924788D02*
X111756321Y-77723629D01*
X111310259Y-78126780D02*
X111532983Y-77924788D01*
X111088319Y-78329726D02*
X111310259Y-78126780D01*
X110867338Y-78533748D02*
X111088319Y-78329726D01*
X110647492Y-78738972D02*
X110867338Y-78533748D01*
X110428956Y-78945520D02*
X110647492Y-78738972D01*
X110211907Y-79153517D02*
X110428956Y-78945520D01*
X109996520Y-79363087D02*
X110211907Y-79153517D01*
X109782971Y-79574353D02*
X109996520Y-79363087D01*
X109571436Y-79787440D02*
X109782971Y-79574353D01*
X109362091Y-80002471D02*
X109571436Y-79787440D01*
X109155112Y-80219570D02*
X109362091Y-80002471D01*
X108950674Y-80438861D02*
X109155112Y-80219570D01*
X121191080Y-59298098D02*
X121461455Y-59482082D01*
X142859545Y-64153664D02*
X143025931Y-64424040D01*
X142693160Y-63883288D02*
X142859545Y-64153664D01*
X142526775Y-63612912D02*
X142693160Y-63883288D01*
X143857857Y-65775919D02*
X144024242Y-66046295D01*
X143691471Y-65505543D02*
X143857857Y-65775919D01*
X143525086Y-65235167D02*
X143691471Y-65505543D01*
X119568824Y-58194197D02*
X119839200Y-58378180D01*
X115681747Y-70545566D02*
X115729964Y-70161628D01*
X115585228Y-71313431D02*
X115633500Y-70929500D01*
X116066484Y-67473937D02*
X116114416Y-67089963D01*
X157255536Y-134439498D02*
X157029867Y-134590299D01*
X157480982Y-134288347D02*
X157255536Y-134439498D01*
X157706280Y-134136962D02*
X157480982Y-134288347D01*
X157931504Y-133985461D02*
X157706280Y-134136962D01*
X158145702Y-133810553D02*
X157931504Y-133985461D01*
X158359806Y-133635538D02*
X158145702Y-133810553D01*
X158573721Y-133460305D02*
X158359806Y-133635538D01*
X158787355Y-133284748D02*
X158573721Y-133460305D01*
X159000613Y-133108758D02*
X158787355Y-133284748D01*
X159213400Y-132932227D02*
X159000613Y-133108758D01*
X137036066Y-54690509D02*
X137202451Y-54960885D01*
X136869680Y-54420133D02*
X137036066Y-54690509D01*
X136703295Y-54149758D02*
X136869680Y-54420133D01*
X129031980Y-64633623D02*
X129302356Y-64817606D01*
X128761605Y-64449639D02*
X129031980Y-64633623D01*
X116305893Y-65554037D02*
X116353716Y-65170050D01*
X115874415Y-69009789D02*
X115922489Y-68625833D01*
X158558736Y-75965612D02*
X158636197Y-76059263D01*
X158484810Y-75870092D02*
X158558736Y-75965612D01*
X158414770Y-75772636D02*
X158484810Y-75870092D01*
X158348970Y-75673180D02*
X158414770Y-75772636D01*
X115391925Y-72849129D02*
X115440277Y-72465208D01*
X158095023Y-75143821D02*
X158135093Y-75254054D01*
X158059947Y-75031591D02*
X158095023Y-75143821D01*
X158029510Y-74917506D02*
X158059947Y-75031591D01*
X158003353Y-74801709D02*
X158029510Y-74917506D01*
X171490096Y-113620743D02*
X171406309Y-113984841D01*
X171569989Y-113255947D02*
X171490096Y-113620743D01*
X171646247Y-112890502D02*
X171569989Y-113255947D01*
X171719128Y-112524453D02*
X171646247Y-112890502D01*
X171788893Y-112157847D02*
X171719128Y-112524453D01*
X171855802Y-111790731D02*
X171788893Y-112157847D01*
X171920113Y-111423150D02*
X171855802Y-111790731D01*
X117405817Y-56722328D02*
X117676193Y-56906312D01*
X153297448Y-57655691D02*
X153542920Y-57473759D01*
X153052698Y-57838480D02*
X153297448Y-57655691D01*
X152808787Y-58022267D02*
X153052698Y-57838480D01*
X144971342Y-140050647D02*
X144748006Y-140116849D01*
X145194366Y-139982998D02*
X144971342Y-140050647D01*
X145417121Y-139914109D02*
X145194366Y-139982998D01*
X145639652Y-139844187D02*
X145417121Y-139914109D01*
X145862005Y-139773439D02*
X145639652Y-139844187D01*
X146084224Y-139702070D02*
X145862005Y-139773439D01*
X146306353Y-139630288D02*
X146084224Y-139702070D01*
X146528438Y-139558300D02*
X146306353Y-139630288D01*
X146787653Y-139476928D02*
X146528438Y-139558300D01*
X147046804Y-139395386D02*
X146787653Y-139476928D01*
X147305825Y-139313506D02*
X147046804Y-139395386D01*
X147564654Y-139231119D02*
X147305825Y-139313506D01*
X147823225Y-139148056D02*
X147564654Y-139231119D01*
X148081475Y-139064148D02*
X147823225Y-139148056D01*
X171964606Y-97860669D02*
X171999362Y-98075466D01*
X171928138Y-97646223D02*
X171964606Y-97860669D01*
X171889804Y-97432159D02*
X171928138Y-97646223D01*
X171849447Y-97218508D02*
X171889804Y-97432159D01*
X171806911Y-97005304D02*
X171849447Y-97218508D01*
X171762044Y-96792576D02*
X171806911Y-97005304D01*
X172480032Y-107097373D02*
X172471226Y-107264779D01*
X172488589Y-106929954D02*
X172480032Y-107097373D01*
X172496855Y-106762520D02*
X172488589Y-106929954D01*
X172504788Y-106595070D02*
X172496855Y-106762520D01*
X172512346Y-106427600D02*
X172504788Y-106595070D01*
X172519488Y-106260108D02*
X172512346Y-106427600D01*
X172526173Y-106092593D02*
X172519488Y-106260108D01*
X169924972Y-118608896D02*
X169778921Y-118952370D01*
X170066216Y-118263239D02*
X169924972Y-118608896D01*
X170202709Y-117915508D02*
X170066216Y-118263239D01*
X170334506Y-117565813D02*
X170202709Y-117915508D01*
X170461661Y-117214262D02*
X170334506Y-117565813D01*
X170584231Y-116860965D02*
X170461661Y-117214262D01*
X170702270Y-116506032D02*
X170584231Y-116860965D01*
X137867991Y-56042388D02*
X138034377Y-56312764D01*
X137701606Y-55772013D02*
X137867991Y-56042388D01*
X137535221Y-55501637D02*
X137701606Y-55772013D01*
X131668545Y-62297831D02*
X131798134Y-62041854D01*
X131538957Y-62553808D02*
X131668545Y-62297831D01*
X138367147Y-56853516D02*
X138533532Y-57123892D01*
X138200762Y-56583140D02*
X138367147Y-56853516D01*
X138034377Y-56312764D02*
X138200762Y-56583140D01*
X142360390Y-63342537D02*
X142526775Y-63612912D01*
X142194005Y-63072161D02*
X142360390Y-63342537D01*
X142027620Y-62801785D02*
X142194005Y-63072161D01*
X116927374Y-60562175D02*
X116975206Y-60178189D01*
X161315801Y-78401927D02*
X161539580Y-78639776D01*
X161091739Y-78164320D02*
X161315801Y-78401927D01*
X160867537Y-77926835D02*
X161091739Y-78164320D01*
X160771099Y-77856615D02*
X160867537Y-77926835D01*
X160674684Y-77786316D02*
X160771099Y-77856615D01*
X147114557Y-63094342D02*
X147334331Y-62882190D01*
X146894597Y-63306244D02*
X147114557Y-63094342D01*
X146674464Y-63517912D02*
X146894597Y-63306244D01*
X126328221Y-62793787D02*
X126598597Y-62977770D01*
X126057846Y-62609803D02*
X126328221Y-62793787D01*
X120109576Y-58562164D02*
X120379952Y-58746148D01*
X116688291Y-62482115D02*
X116736096Y-62098126D01*
X135815375Y-54106561D02*
X135944963Y-53850584D01*
X135685786Y-54362538D02*
X135815375Y-54106561D01*
X141861235Y-62531409D02*
X142027620Y-62801785D01*
X141694850Y-62261033D02*
X141861235Y-62531409D01*
X141528464Y-61990657D02*
X141694850Y-62261033D01*
X134778667Y-56154378D02*
X134908255Y-55898401D01*
X134649079Y-56410356D02*
X134778667Y-56154378D01*
X157122474Y-68395919D02*
X157175314Y-68757851D01*
X157070214Y-68033864D02*
X157122474Y-68395919D01*
X157018573Y-67671678D02*
X157070214Y-68033864D01*
X156967491Y-67309372D02*
X157018573Y-67671678D01*
X170815833Y-116149570D02*
X170702270Y-116506032D01*
X170924975Y-115791691D02*
X170815833Y-116149570D01*
X171029752Y-115432502D02*
X170924975Y-115791691D01*
X171130219Y-115072113D02*
X171029752Y-115432502D01*
X171226431Y-114710634D02*
X171130219Y-115072113D01*
X171318442Y-114348174D02*
X171226431Y-114710634D01*
X171406309Y-113984841D02*
X171318442Y-114348174D01*
X119298448Y-58010213D02*
X119568824Y-58194197D01*
X117023042Y-59794203D02*
X117070881Y-59410218D01*
X115922489Y-68625833D02*
X115970524Y-68241872D01*
X132705253Y-60250014D02*
X132834841Y-59994036D01*
X132575664Y-60505991D02*
X132705253Y-60250014D01*
X122002207Y-59850049D02*
X122272583Y-60034033D01*
X115343560Y-73233048D02*
X115391925Y-72849129D01*
X116879547Y-60946162D02*
X116927374Y-60562175D01*
X149093796Y-61185428D02*
X149315775Y-60975659D01*
X148872582Y-61396087D02*
X149093796Y-61185428D01*
X148651999Y-61607475D02*
X148872582Y-61396087D01*
X130631838Y-64345648D02*
X130761426Y-64089671D01*
X130502249Y-64601625D02*
X130631838Y-64345648D01*
X117262264Y-57874280D02*
X117310114Y-57490296D01*
X148431915Y-61819434D02*
X148651999Y-61607475D01*
X148212196Y-62031802D02*
X148431915Y-61819434D01*
X147992711Y-62244421D02*
X148212196Y-62031802D01*
X130891015Y-63833694D02*
X131020603Y-63577717D01*
X130761426Y-64089671D02*
X130891015Y-63833694D01*
X157924298Y-74202033D02*
X157934401Y-74324251D01*
X157916336Y-74078958D02*
X157924298Y-74202033D01*
X157910157Y-73955171D02*
X157916336Y-74078958D01*
X157905406Y-73830812D02*
X157910157Y-73955171D01*
X163418924Y-128934908D02*
X163234806Y-129141383D01*
X163601067Y-128726750D02*
X163418924Y-128934908D01*
X163781189Y-128516910D02*
X163601067Y-128726750D01*
X163959248Y-128305389D02*
X163781189Y-128516910D01*
X164135198Y-128092188D02*
X163959248Y-128305389D01*
X164309003Y-127877313D02*
X164135198Y-128092188D01*
X164480733Y-127660830D02*
X164309003Y-127877313D01*
X164650525Y-127442846D02*
X164480733Y-127660830D01*
X136536910Y-53879382D02*
X136703295Y-54149758D01*
X136370525Y-53609006D02*
X136536910Y-53879382D01*
X154035544Y-57111891D02*
X154282456Y-56931670D01*
X153788992Y-57292539D02*
X154035544Y-57111891D01*
X153542920Y-57473759D02*
X153788992Y-57292539D01*
X154744632Y-136053341D02*
X154511623Y-136192580D01*
X154976604Y-135912468D02*
X154744632Y-136053341D01*
X155207611Y-135770076D02*
X154976604Y-135912468D01*
X155437729Y-135626283D02*
X155207611Y-135770076D01*
X155667031Y-135481205D02*
X155437729Y-135626283D01*
X155895592Y-135334959D02*
X155667031Y-135481205D01*
X156123485Y-135187662D02*
X155895592Y-135334959D01*
X156350785Y-135039431D02*
X156123485Y-135187662D01*
X156577566Y-134890382D02*
X156350785Y-135039431D01*
X156803902Y-134740632D02*
X156577566Y-134890382D01*
X157029867Y-134590299D02*
X156803902Y-134740632D01*
X125246718Y-62057852D02*
X125517094Y-62241836D01*
X124976342Y-61873869D02*
X125246718Y-62057852D01*
X127409725Y-63529721D02*
X127680101Y-63713705D01*
X127139349Y-63345737D02*
X127409725Y-63529721D01*
X118757696Y-57642246D02*
X119028072Y-57826229D01*
X127950477Y-63897688D02*
X128220853Y-64081672D01*
X127680101Y-63713705D02*
X127950477Y-63897688D01*
X115198411Y-74384800D02*
X115246800Y-74000883D01*
X123624463Y-60953951D02*
X123894838Y-61137934D01*
X123354087Y-60769967D02*
X123624463Y-60953951D01*
X157782970Y-72733472D02*
X157839537Y-73094610D01*
X157726487Y-72372316D02*
X157782970Y-72733472D01*
X157670127Y-72011134D02*
X157726487Y-72372316D01*
X157613933Y-71649917D02*
X157670127Y-72011134D01*
X157557946Y-71288655D02*
X157613933Y-71649917D01*
X157502208Y-70927341D02*
X157557946Y-71288655D01*
X157446759Y-70565965D02*
X157502208Y-70927341D01*
X157391642Y-70204518D02*
X157446759Y-70565965D01*
X157336897Y-69842993D02*
X157391642Y-70204518D01*
X157282567Y-69481378D02*
X157336897Y-69842993D01*
X157228692Y-69119667D02*
X157282567Y-69481378D01*
X157175314Y-68757851D02*
X157228692Y-69119667D01*
X135297021Y-55130470D02*
X135426609Y-54874493D01*
X135167432Y-55386447D02*
X135297021Y-55130470D01*
X143358701Y-64964792D02*
X143525086Y-65235167D01*
X143192316Y-64694416D02*
X143358701Y-64964792D01*
X143025931Y-64424040D02*
X143192316Y-64694416D01*
X116497119Y-64018080D02*
X116544910Y-63634088D01*
X154776882Y-56571941D02*
X154872997Y-56925195D01*
X154529609Y-56751734D02*
X154776882Y-56571941D01*
X154282456Y-56931670D02*
X154529609Y-56751734D01*
X168804859Y-120965733D02*
X168628573Y-121294410D01*
X168977680Y-120635343D02*
X168804859Y-120965733D01*
X169146720Y-120303085D02*
X168977680Y-120635343D01*
X169311664Y-119968804D02*
X169146720Y-120303085D01*
X169472198Y-119632344D02*
X169311664Y-119968804D01*
X169628009Y-119293551D02*
X169472198Y-119632344D01*
X169778921Y-118952370D02*
X169628009Y-119293551D01*
X160098065Y-77358376D02*
X160193825Y-77430829D01*
X160002499Y-77285285D02*
X160098065Y-77358376D01*
X159907151Y-77211475D02*
X160002499Y-77285285D01*
X159812046Y-77136868D02*
X159907151Y-77211475D01*
X159717207Y-77061384D02*
X159812046Y-77136868D01*
X144466565Y-65625734D02*
X144687694Y-65415408D01*
X144245410Y-65836023D02*
X144466565Y-65625734D01*
X144024242Y-66046295D02*
X144245410Y-65836023D01*
X156104539Y-61893805D02*
X156176216Y-62251999D01*
X156029811Y-61536229D02*
X156104539Y-61893805D01*
X155952232Y-61179229D02*
X156029811Y-61536229D01*
X146454172Y-63729366D02*
X146674464Y-63517912D01*
X146233734Y-63940623D02*
X146454172Y-63729366D01*
X146013163Y-64151700D02*
X146233734Y-63940623D01*
X157901724Y-73706026D02*
X157905406Y-73830812D01*
X157898756Y-73580954D02*
X157901724Y-73706026D01*
X157896145Y-73455739D02*
X157898756Y-73580954D01*
X157839537Y-73094610D02*
X157896145Y-73455739D01*
X130372661Y-64857603D02*
X130502249Y-64601625D01*
X130243072Y-65113580D02*
X130372661Y-64857603D01*
X145792473Y-64362617D02*
X146013163Y-64151700D01*
X145571676Y-64573390D02*
X145792473Y-64362617D01*
X145350787Y-64784038D02*
X145571676Y-64573390D01*
X116114416Y-67089963D02*
X116162319Y-66705986D01*
X120379952Y-58746148D02*
X120650328Y-58930131D01*
X159425624Y-132755046D02*
X159213400Y-132932227D01*
X159637189Y-132577108D02*
X159425624Y-132755046D01*
X159848002Y-132398303D02*
X159637189Y-132577108D01*
X160057969Y-132218524D02*
X159848002Y-132398303D01*
X160266996Y-132037663D02*
X160057969Y-132218524D01*
X160474989Y-131855611D02*
X160266996Y-132037663D01*
X160681853Y-131672259D02*
X160474989Y-131855611D01*
X160887496Y-131487501D02*
X160681853Y-131672259D01*
X161091822Y-131301227D02*
X160887496Y-131487501D01*
X161294738Y-131113329D02*
X161091822Y-131301227D01*
X155064412Y-57631868D02*
X155159305Y-57985369D01*
X154968908Y-57278490D02*
X155064412Y-57631868D01*
X154872997Y-56925195D02*
X154968908Y-57278490D01*
X168193553Y-87483255D02*
X168353264Y-87767833D01*
X168032346Y-87199543D02*
X168193553Y-87483255D01*
X167869494Y-86916782D02*
X168032346Y-87199543D01*
X167704846Y-86635060D02*
X167869494Y-86916782D01*
X167538254Y-86354463D02*
X167704846Y-86635060D01*
X115150019Y-74768716D02*
X115198411Y-74384800D01*
X151843956Y-58770252D02*
X152083302Y-58581045D01*
X151606050Y-58961171D02*
X151843956Y-58770252D01*
X151369706Y-59153944D02*
X151606050Y-58961171D01*
X172558390Y-104751492D02*
X172556751Y-104919207D01*
X172559264Y-104583771D02*
X172558390Y-104751492D01*
X172559345Y-104416052D02*
X172559264Y-104583771D01*
X172558608Y-104248342D02*
X172559345Y-104416052D01*
X172557026Y-104080645D02*
X172558608Y-104248342D01*
X172554573Y-103912970D02*
X172557026Y-104080645D01*
X172551223Y-103745322D02*
X172554573Y-103912970D01*
X134260313Y-57178287D02*
X134389902Y-56922310D01*
X134130725Y-57434265D02*
X134260313Y-57178287D01*
X132964429Y-59738059D02*
X133094018Y-59482082D01*
X132834841Y-59994036D02*
X132964429Y-59738059D01*
X119028072Y-57826229D02*
X119298448Y-58010213D01*
X140862924Y-60909154D02*
X141029309Y-61179530D01*
X140696539Y-60638778D02*
X140862924Y-60909154D01*
X140530154Y-60368402D02*
X140696539Y-60638778D01*
X120650328Y-58930131D02*
X120920704Y-59114115D01*
X172152917Y-99153587D02*
X172180672Y-99369816D01*
X172124385Y-98937517D02*
X172152917Y-99153587D01*
X172094918Y-98721638D02*
X172124385Y-98937517D01*
X172064363Y-98505982D02*
X172094918Y-98721638D01*
X172032563Y-98290581D02*
X172064363Y-98505982D01*
X171999362Y-98075466D02*
X172032563Y-98290581D01*
X134001137Y-57690242D02*
X134130725Y-57434265D01*
X133871548Y-57946219D02*
X134001137Y-57690242D01*
X121461455Y-59482082D02*
X121731831Y-59666066D01*
X132446076Y-60761968D02*
X132575664Y-60505991D01*
X132316487Y-61017945D02*
X132446076Y-60761968D01*
X128491229Y-64265656D02*
X128761605Y-64449639D01*
X128220853Y-64081672D02*
X128491229Y-64265656D01*
X116783908Y-61714137D02*
X116831725Y-61330149D01*
X132186899Y-61273922D02*
X132316487Y-61017945D01*
X132057311Y-61529899D02*
X132186899Y-61273922D01*
X149762556Y-60559430D02*
X149987624Y-60353290D01*
X149538650Y-60766940D02*
X149762556Y-60559430D01*
X149315775Y-60975659D02*
X149538650Y-60766940D01*
X141798196Y-140761207D02*
X141567373Y-140791741D01*
X142028573Y-140728287D02*
X141798196Y-140761207D01*
X142258458Y-140692821D02*
X142028573Y-140728287D01*
X142487804Y-140654656D02*
X142258458Y-140692821D01*
X142716563Y-140613632D02*
X142487804Y-140654656D01*
X142944688Y-140569595D02*
X142716563Y-140613632D01*
X143172136Y-140522401D02*
X142944688Y-140569595D01*
X143398914Y-140472111D02*
X143172136Y-140522401D01*
X143625067Y-140418928D02*
X143398914Y-140472111D01*
X143850638Y-140363059D02*
X143625067Y-140418928D01*
X144075673Y-140304709D02*
X143850638Y-140363059D01*
X144300216Y-140244087D02*
X144075673Y-140304709D01*
X144524312Y-140181398D02*
X144300216Y-140244087D01*
X144748006Y-140116849D02*
X144524312Y-140181398D01*
X116592700Y-63250097D02*
X116640493Y-62866106D01*
X123083711Y-60585984D02*
X123354087Y-60769967D01*
X122813335Y-60402000D02*
X123083711Y-60585984D01*
X116736096Y-62098126D02*
X116783908Y-61714137D01*
X115488613Y-72081285D02*
X115536931Y-71697359D01*
X124165214Y-61321918D02*
X124435590Y-61505901D01*
X123894838Y-61137934D02*
X124165214Y-61321918D01*
X121731831Y-59666066D02*
X122002207Y-59850049D01*
X169748031Y-90353693D02*
X169819580Y-90559166D01*
X169595051Y-90065221D02*
X169748031Y-90353693D01*
X169441922Y-89776836D02*
X169595051Y-90065221D01*
X169288494Y-89488624D02*
X169441922Y-89776836D01*
X169134617Y-89200672D02*
X169288494Y-89488624D01*
X125787470Y-62425819D02*
X126057846Y-62609803D01*
X125517094Y-62241836D02*
X125787470Y-62425819D01*
X115729964Y-70161628D02*
X115778150Y-69777686D01*
X159247907Y-76668010D02*
X159341002Y-76749076D01*
X159155536Y-76585601D02*
X159247907Y-76668010D01*
X159064241Y-76501783D02*
X159155536Y-76585601D01*
X158974372Y-76416491D02*
X159064241Y-76501783D01*
X116162319Y-66705986D02*
X116210198Y-66322006D01*
X115970524Y-68241872D02*
X116018521Y-67857907D01*
X136204140Y-53338630D02*
X136370525Y-53609006D01*
X136074552Y-53594607D02*
X136204140Y-53338630D01*
X135944963Y-53850584D02*
X136074552Y-53594607D01*
X117070881Y-59410218D02*
X117118723Y-59026233D01*
X116210198Y-66322006D02*
X116258055Y-65938023D01*
X115440277Y-72465208D02*
X115488613Y-72081285D01*
X138547182Y-141041778D02*
X138314636Y-141054388D01*
X138779759Y-141028578D02*
X138547182Y-141041778D01*
X139012370Y-141014738D02*
X138779759Y-141028578D01*
X139245018Y-141000210D02*
X139012370Y-141014738D01*
X139477704Y-140984943D02*
X139245018Y-141000210D01*
X139710414Y-140968850D02*
X139477704Y-140984943D01*
X139943103Y-140951778D02*
X139710414Y-140968850D01*
X140175723Y-140933572D02*
X139943103Y-140951778D01*
X140408228Y-140914075D02*
X140175723Y-140933572D01*
X140640571Y-140893130D02*
X140408228Y-140914075D01*
X140872703Y-140870581D02*
X140640571Y-140893130D01*
X141104579Y-140846271D02*
X140872703Y-140870581D01*
X141336152Y-140820043D02*
X141104579Y-140846271D01*
X141567373Y-140791741D02*
X141336152Y-140820043D01*
X172489248Y-102405882D02*
X172500507Y-102573100D01*
X172477102Y-102238723D02*
X172489248Y-102405882D01*
X172464138Y-102071616D02*
X172477102Y-102238723D01*
X172450424Y-101904558D02*
X172464138Y-102071616D01*
X172436028Y-101737545D02*
X172450424Y-101904558D01*
X172421018Y-101570571D02*
X172436028Y-101737545D01*
X152565838Y-58207195D02*
X152808787Y-58022267D01*
X152323970Y-58393407D02*
X152565838Y-58207195D01*
X152083302Y-58581045D02*
X152323970Y-58393407D01*
X130113484Y-65369557D02*
X130243072Y-65113580D01*
X129843108Y-65185573D02*
X130113484Y-65369557D01*
X165556127Y-83359856D02*
X165747788Y-83624392D01*
X165362206Y-83097000D02*
X165556127Y-83359856D01*
X165166031Y-82835860D02*
X165362206Y-83097000D01*
X164967614Y-82576469D02*
X165166031Y-82835860D01*
X164766961Y-82318862D02*
X164967614Y-82576469D01*
X160578319Y-77715857D02*
X160674684Y-77786316D01*
X160482025Y-77645158D02*
X160578319Y-77715857D01*
X160385829Y-77574141D02*
X160482025Y-77645158D01*
X160289754Y-77502724D02*
X160385829Y-77574141D01*
X160193825Y-77430829D02*
X160289754Y-77502724D01*
X139365458Y-58475771D02*
X139531843Y-58746147D01*
X139199073Y-58205395D02*
X139365458Y-58475771D01*
X139032688Y-57935019D02*
X139199073Y-58205395D01*
X164564082Y-82063075D02*
X164766961Y-82318862D01*
X164358985Y-81809143D02*
X164564082Y-82063075D01*
X164151686Y-81557092D02*
X164358985Y-81809143D01*
X163942275Y-81306861D02*
X164151686Y-81557092D01*
X163730891Y-81058329D02*
X163942275Y-81306861D01*
X172372280Y-108471361D02*
X172319395Y-108840985D01*
X172424905Y-108101691D02*
X172372280Y-108471361D01*
X172434336Y-107934317D02*
X172424905Y-108101691D01*
X172443724Y-107766941D02*
X172434336Y-107934317D01*
X172453030Y-107599561D02*
X172443724Y-107766941D01*
X172462211Y-107432174D02*
X172453030Y-107599561D01*
X172471226Y-107264779D02*
X172462211Y-107432174D01*
X122542959Y-60218016D02*
X122813335Y-60402000D01*
X122272583Y-60034033D02*
X122542959Y-60218016D01*
X161496170Y-130923743D02*
X161294738Y-131113329D01*
X161696070Y-130732463D02*
X161496170Y-130923743D01*
X161894394Y-130539491D02*
X161696070Y-130732463D01*
X162091097Y-130344827D02*
X161894394Y-130539491D01*
X162286136Y-130148473D02*
X162091097Y-130344827D01*
X162479466Y-129950429D02*
X162286136Y-130148473D01*
X162671042Y-129750698D02*
X162479466Y-129950429D01*
X162860820Y-129549279D02*
X162671042Y-129750698D01*
X163048756Y-129346173D02*
X162860820Y-129549279D01*
X163234806Y-129141383D02*
X163048756Y-129346173D01*
X131150192Y-63321739D02*
X131279780Y-63065762D01*
X131020603Y-63577717D02*
X131150192Y-63321739D01*
X133223606Y-59226105D02*
X133353195Y-58970128D01*
X133094018Y-59482082D02*
X133223606Y-59226105D01*
X168980141Y-88913066D02*
X169134617Y-89200672D01*
X168824918Y-88625892D02*
X168980141Y-88913066D01*
X168668797Y-88339238D02*
X168824918Y-88625892D01*
X168511629Y-88053189D02*
X168668797Y-88339238D01*
X168353264Y-87767833D02*
X168511629Y-88053189D01*
X172304490Y-100402501D02*
X172321887Y-100569319D01*
X172287025Y-100235687D02*
X172304490Y-100402501D01*
X172260826Y-100019140D02*
X172287025Y-100235687D01*
X172234471Y-99802624D02*
X172260826Y-100019140D01*
X172207805Y-99586172D02*
X172234471Y-99802624D01*
X172180672Y-99369816D02*
X172207805Y-99586172D01*
X171982088Y-111055151D02*
X171920113Y-111423150D01*
X172041985Y-110686781D02*
X171982088Y-111055151D01*
X172100064Y-110318086D02*
X172041985Y-110686781D01*
X172156584Y-109949112D02*
X172100064Y-110318086D01*
X172211807Y-109579907D02*
X172156584Y-109949112D01*
X172265990Y-109210515D02*
X172211807Y-109579907D01*
X172319395Y-108840985D02*
X172265990Y-109210515D01*
X166491648Y-84698642D02*
X166671874Y-84971057D01*
X166309118Y-84427734D02*
X166491648Y-84698642D01*
X166124292Y-84158366D02*
X166309118Y-84427734D01*
X165937179Y-83890574D02*
X166124292Y-84158366D01*
X165747788Y-83624392D02*
X165937179Y-83890574D01*
X117357965Y-57106312D02*
X117405817Y-56722328D01*
X172546950Y-103577708D02*
X172551223Y-103745322D01*
X172541726Y-103410135D02*
X172546950Y-103577708D01*
X172535527Y-103242609D02*
X172541726Y-103410135D01*
X172528324Y-103075137D02*
X172535527Y-103242609D01*
X172520094Y-102907725D02*
X172528324Y-103075137D01*
X172510811Y-102740379D02*
X172520094Y-102907725D01*
X172500507Y-102573100D02*
X172510811Y-102740379D01*
X124705966Y-61689885D02*
X124976342Y-61873869D01*
X124435590Y-61505901D02*
X124705966Y-61689885D01*
X155617473Y-59756168D02*
X155704422Y-60111274D01*
X155528691Y-59401431D02*
X155617473Y-59756168D01*
X155438279Y-59047025D02*
X155528691Y-59401431D01*
X140363769Y-60098026D02*
X140530154Y-60368402D01*
X140197384Y-59827650D02*
X140363769Y-60098026D01*
X140030998Y-59557275D02*
X140197384Y-59827650D01*
X117214415Y-58258264D02*
X117262264Y-57874280D01*
X116831725Y-61330149D02*
X116879547Y-60946162D01*
X172532359Y-105925053D02*
X172526173Y-106092593D01*
X172538003Y-105757485D02*
X172532359Y-105925053D01*
X172543065Y-105589887D02*
X172538003Y-105757485D01*
X172547503Y-105422257D02*
X172543065Y-105589887D01*
X172551282Y-105254596D02*
X172547503Y-105422257D01*
X172554373Y-105086910D02*
X172551282Y-105254596D01*
X172556751Y-104919207D02*
X172554373Y-105086910D01*
X133482783Y-58714151D02*
X133612371Y-58458173D01*
X133353195Y-58970128D02*
X133482783Y-58714151D01*
X137368836Y-55231261D02*
X137535221Y-55501637D01*
X137202451Y-54960885D02*
X137368836Y-55231261D01*
X115778150Y-69777686D02*
X115826301Y-69393740D01*
X116544910Y-63634088D02*
X116592700Y-63250097D01*
X115826301Y-69393740D02*
X115874415Y-69009789D01*
X115536931Y-71697359D02*
X115585228Y-71313431D01*
X133741960Y-58202196D02*
X133871548Y-57946219D01*
X133612371Y-58458173D02*
X133741960Y-58202196D01*
X115633500Y-70929500D02*
X115681747Y-70545566D01*
M02*
