M48
;DRILL file {KiCad 4.0.7-e2-6376~58~ubuntu16.04.1} date Mon Feb 19 14:40:57 2018
;FORMAT={-:-/ absolute / inch / decimal}
FMAT,2
INCH,TZ
T1C0.013
%
G90
G05
M72
T1
X4.414Y-3.725
X4.7953Y-4.151
X5.154Y-4.225
X5.268Y-2.725
X5.2718Y-4.3249
X5.319Y-4.166
X5.356Y-3.626
X5.424Y-3.727
X5.4659Y-4.2276
X5.4681Y-4.5261
X5.502Y-3.936
X5.6077Y-4.0701
X5.608Y-4.1704
X5.6566Y-3.461
X5.722Y-3.655
X5.7274Y-3.523
X5.8198Y-4.0297
X5.917Y-5.089
X5.976Y-3.776
X6.1354Y-4.1975
X6.24Y-4.918
X6.325Y-3.225
X6.326Y-3.428
X6.3347Y-3.83
X6.465Y-3.73
T0
M30
