G04 #@! TF.GenerationSoftware,KiCad,Pcbnew,(2017-05-14 revision 14bb238b3)-makepkg*
G04 #@! TF.CreationDate,2017-07-07T13:01:09-06:00*
G04 #@! TF.ProjectId,001,3030312E6B696361645F706362000000,rev?*
G04 #@! TF.FileFunction,Other,Fab,Top*
%FSLAX46Y46*%
G04 Gerber Fmt 4.6, Leading zero omitted, Abs format (unit mm)*
G04 Created by KiCad (PCBNEW (2017-05-14 revision 14bb238b3)-makepkg) date 07/07/17 13:01:09*
%MOMM*%
%LPD*%
G01*
G04 APERTURE LIST*
%ADD10C,0.100000*%
%ADD11C,0.050800*%
%ADD12C,0.050000*%
%ADD13C,0.046400*%
%ADD14C,0.150000*%
G04 APERTURE END LIST*
D10*
D11*
X122887934Y-90496560D02*
G75*
G03X122887934Y-90496560I-1414214J0D01*
G01*
X121440134Y-93493760D02*
G75*
G03X121440134Y-93493760I-1414214J0D01*
G01*
X119814534Y-96440160D02*
G75*
G03X119814534Y-96440160I-1414214J0D01*
G01*
X118061934Y-99437360D02*
G75*
G03X118061934Y-99437360I-1414214J0D01*
G01*
X143893734Y-75815360D02*
G75*
G03X143893734Y-75815360I-1414214J0D01*
G01*
X143588934Y-65706160D02*
G75*
G03X143588934Y-65706160I-1414214J0D01*
G01*
X140134534Y-90445760D02*
G75*
G03X140134534Y-90445760I-1414214J0D01*
G01*
X142268134Y-93392160D02*
G75*
G03X142268134Y-93392160I-1414214J0D01*
G01*
X118989034Y-65960160D02*
G75*
G03X118989034Y-65960160I-1414214J0D01*
G01*
X144477934Y-96313160D02*
G75*
G03X144477934Y-96313160I-1414214J0D01*
G01*
D10*
X129431120Y-70665560D02*
X129431120Y-71465560D01*
X129481120Y-71065560D02*
X130081120Y-70665560D01*
X130081120Y-71465560D02*
X129481120Y-71065560D01*
X130081120Y-70665560D02*
X130081120Y-71465560D01*
X131481120Y-71865560D02*
X128281120Y-71865560D01*
X131481120Y-70265560D02*
X131481120Y-71865560D01*
X128281120Y-70265560D02*
X131481120Y-70265560D01*
X128281120Y-71865560D02*
X128281120Y-70265560D01*
D11*
X118722334Y-76145560D02*
G75*
G03X118722334Y-76145560I-1414214J0D01*
G01*
D12*
X142117538Y-54418824D02*
X136729384Y-59806978D01*
X136729384Y-59806978D02*
X140950105Y-64027698D01*
X140950105Y-64027698D02*
X145350430Y-59627373D01*
X144991220Y-57292506D02*
X142117538Y-54418824D01*
X144546171Y-58612675D02*
G75*
G03X144546171Y-58612675I-158113J0D01*
G01*
D13*
X145350430Y-59627373D02*
X144991220Y-57292506D01*
X132929120Y-51837760D02*
X131024120Y-50440760D01*
D12*
X131689234Y-51800760D02*
G75*
G03X131689234Y-51800760I-158114J0D01*
G01*
X131024120Y-50440760D02*
X126960120Y-50440760D01*
X132929120Y-58060760D02*
X132929120Y-51837760D01*
X126960120Y-58060760D02*
X132929120Y-58060760D01*
X126960120Y-50440760D02*
X126960120Y-58060760D01*
X122855056Y-59857778D02*
X117466902Y-54469624D01*
X117466902Y-54469624D02*
X113246182Y-58690345D01*
X113246182Y-58690345D02*
X117646507Y-63090670D01*
X119981374Y-62731460D02*
X122855056Y-59857778D01*
X118819318Y-62128298D02*
G75*
G03X118819318Y-62128298I-158113J0D01*
G01*
D13*
X117646507Y-63090670D02*
X119981374Y-62731460D01*
X115580920Y-74011960D02*
X116977920Y-72106960D01*
D12*
X115776034Y-72613960D02*
G75*
G03X115776034Y-72613960I-158114J0D01*
G01*
X116977920Y-72106960D02*
X116977920Y-68042960D01*
X109357920Y-74011960D02*
X115580920Y-74011960D01*
X109357920Y-68042960D02*
X109357920Y-74011960D01*
X116977920Y-68042960D02*
X109357920Y-68042960D01*
X118546338Y-77913824D02*
X113158184Y-83301978D01*
X113158184Y-83301978D02*
X117378905Y-87522698D01*
X117378905Y-87522698D02*
X121779230Y-83122373D01*
X121420020Y-80787506D02*
X118546338Y-77913824D01*
X120974971Y-82107675D02*
G75*
G03X120974971Y-82107675I-158113J0D01*
G01*
D13*
X121779230Y-83122373D02*
X121420020Y-80787506D01*
X140963707Y-86382470D02*
X143298574Y-86023260D01*
D12*
X142136518Y-85420098D02*
G75*
G03X142136518Y-85420098I-158113J0D01*
G01*
X143298574Y-86023260D02*
X146172256Y-83149578D01*
X136563382Y-81982145D02*
X140963707Y-86382470D01*
X140784102Y-77761424D02*
X136563382Y-81982145D01*
X146172256Y-83149578D02*
X140784102Y-77761424D01*
X150251920Y-67992160D02*
X142631920Y-67992160D01*
X142631920Y-67992160D02*
X142631920Y-73961160D01*
X142631920Y-73961160D02*
X148854920Y-73961160D01*
X150251920Y-72056160D02*
X150251920Y-67992160D01*
X149050034Y-72563160D02*
G75*
G03X149050034Y-72563160I-158114J0D01*
G01*
D13*
X148854920Y-73961160D02*
X150251920Y-72056160D01*
D14*
X125912739Y-92285740D02*
X126484167Y-92285740D01*
X126198453Y-93285740D02*
X126198453Y-92285740D01*
X126817500Y-92761931D02*
X127150834Y-92761931D01*
X127293691Y-93285740D02*
X126817500Y-93285740D01*
X126817500Y-92285740D01*
X127293691Y-92285740D01*
X127674643Y-93238121D02*
X127817500Y-93285740D01*
X128055596Y-93285740D01*
X128150834Y-93238121D01*
X128198453Y-93190502D01*
X128246072Y-93095264D01*
X128246072Y-93000026D01*
X128198453Y-92904788D01*
X128150834Y-92857169D01*
X128055596Y-92809550D01*
X127865120Y-92761931D01*
X127769881Y-92714312D01*
X127722262Y-92666693D01*
X127674643Y-92571455D01*
X127674643Y-92476217D01*
X127722262Y-92380979D01*
X127769881Y-92333360D01*
X127865120Y-92285740D01*
X128103215Y-92285740D01*
X128246072Y-92333360D01*
X128531786Y-92285740D02*
X129103215Y-92285740D01*
X128817500Y-93285740D02*
X128817500Y-92285740D01*
X129198453Y-93380979D02*
X129960358Y-93380979D01*
X130722262Y-93285740D02*
X130150834Y-93285740D01*
X130436548Y-93285740D02*
X130436548Y-92285740D01*
X130341310Y-92428598D01*
X130246072Y-92523836D01*
X130150834Y-92571455D01*
X131150834Y-93285740D02*
X131150834Y-92285740D01*
X131531786Y-92285740D01*
X131627024Y-92333360D01*
X131674643Y-92380979D01*
X131722262Y-92476217D01*
X131722262Y-92619074D01*
X131674643Y-92714312D01*
X131627024Y-92761931D01*
X131531786Y-92809550D01*
X131150834Y-92809550D01*
X109199539Y-91523740D02*
X109770967Y-91523740D01*
X109485253Y-92523740D02*
X109485253Y-91523740D01*
X110104300Y-91999931D02*
X110437634Y-91999931D01*
X110580491Y-92523740D02*
X110104300Y-92523740D01*
X110104300Y-91523740D01*
X110580491Y-91523740D01*
X110961443Y-92476121D02*
X111104300Y-92523740D01*
X111342396Y-92523740D01*
X111437634Y-92476121D01*
X111485253Y-92428502D01*
X111532872Y-92333264D01*
X111532872Y-92238026D01*
X111485253Y-92142788D01*
X111437634Y-92095169D01*
X111342396Y-92047550D01*
X111151920Y-91999931D01*
X111056681Y-91952312D01*
X111009062Y-91904693D01*
X110961443Y-91809455D01*
X110961443Y-91714217D01*
X111009062Y-91618979D01*
X111056681Y-91571360D01*
X111151920Y-91523740D01*
X111390015Y-91523740D01*
X111532872Y-91571360D01*
X111818586Y-91523740D02*
X112390015Y-91523740D01*
X112104300Y-92523740D02*
X112104300Y-91523740D01*
X112485253Y-92618979D02*
X113247158Y-92618979D01*
X114009062Y-92523740D02*
X113437634Y-92523740D01*
X113723348Y-92523740D02*
X113723348Y-91523740D01*
X113628110Y-91666598D01*
X113532872Y-91761836D01*
X113437634Y-91809455D01*
X114437634Y-92523740D02*
X114437634Y-91523740D01*
X114818586Y-91523740D01*
X114913824Y-91571360D01*
X114961443Y-91618979D01*
X115009062Y-91714217D01*
X115009062Y-91857074D01*
X114961443Y-91952312D01*
X114913824Y-91999931D01*
X114818586Y-92047550D01*
X114437634Y-92047550D01*
X108412139Y-96857740D02*
X108983567Y-96857740D01*
X108697853Y-97857740D02*
X108697853Y-96857740D01*
X109316900Y-97333931D02*
X109650234Y-97333931D01*
X109793091Y-97857740D02*
X109316900Y-97857740D01*
X109316900Y-96857740D01*
X109793091Y-96857740D01*
X110174043Y-97810121D02*
X110316900Y-97857740D01*
X110554996Y-97857740D01*
X110650234Y-97810121D01*
X110697853Y-97762502D01*
X110745472Y-97667264D01*
X110745472Y-97572026D01*
X110697853Y-97476788D01*
X110650234Y-97429169D01*
X110554996Y-97381550D01*
X110364520Y-97333931D01*
X110269281Y-97286312D01*
X110221662Y-97238693D01*
X110174043Y-97143455D01*
X110174043Y-97048217D01*
X110221662Y-96952979D01*
X110269281Y-96905360D01*
X110364520Y-96857740D01*
X110602615Y-96857740D01*
X110745472Y-96905360D01*
X111031186Y-96857740D02*
X111602615Y-96857740D01*
X111316900Y-97857740D02*
X111316900Y-96857740D01*
X111697853Y-97952979D02*
X112459758Y-97952979D01*
X113221662Y-97857740D02*
X112650234Y-97857740D01*
X112935948Y-97857740D02*
X112935948Y-96857740D01*
X112840710Y-97000598D01*
X112745472Y-97095836D01*
X112650234Y-97143455D01*
X113650234Y-97857740D02*
X113650234Y-96857740D01*
X114031186Y-96857740D01*
X114126424Y-96905360D01*
X114174043Y-96952979D01*
X114221662Y-97048217D01*
X114221662Y-97191074D01*
X114174043Y-97286312D01*
X114126424Y-97333931D01*
X114031186Y-97381550D01*
X113650234Y-97381550D01*
X102062139Y-98762740D02*
X102633567Y-98762740D01*
X102347853Y-99762740D02*
X102347853Y-98762740D01*
X102966900Y-99238931D02*
X103300234Y-99238931D01*
X103443091Y-99762740D02*
X102966900Y-99762740D01*
X102966900Y-98762740D01*
X103443091Y-98762740D01*
X103824043Y-99715121D02*
X103966900Y-99762740D01*
X104204996Y-99762740D01*
X104300234Y-99715121D01*
X104347853Y-99667502D01*
X104395472Y-99572264D01*
X104395472Y-99477026D01*
X104347853Y-99381788D01*
X104300234Y-99334169D01*
X104204996Y-99286550D01*
X104014520Y-99238931D01*
X103919281Y-99191312D01*
X103871662Y-99143693D01*
X103824043Y-99048455D01*
X103824043Y-98953217D01*
X103871662Y-98857979D01*
X103919281Y-98810360D01*
X104014520Y-98762740D01*
X104252615Y-98762740D01*
X104395472Y-98810360D01*
X104681186Y-98762740D02*
X105252615Y-98762740D01*
X104966900Y-99762740D02*
X104966900Y-98762740D01*
X105347853Y-99857979D02*
X106109758Y-99857979D01*
X106871662Y-99762740D02*
X106300234Y-99762740D01*
X106585948Y-99762740D02*
X106585948Y-98762740D01*
X106490710Y-98905598D01*
X106395472Y-99000836D01*
X106300234Y-99048455D01*
X107300234Y-99762740D02*
X107300234Y-98762740D01*
X107681186Y-98762740D01*
X107776424Y-98810360D01*
X107824043Y-98857979D01*
X107871662Y-98953217D01*
X107871662Y-99096074D01*
X107824043Y-99191312D01*
X107776424Y-99238931D01*
X107681186Y-99286550D01*
X107300234Y-99286550D01*
X141063839Y-82621040D02*
X141635267Y-82621040D01*
X141349553Y-83621040D02*
X141349553Y-82621040D01*
X141968600Y-83097231D02*
X142301934Y-83097231D01*
X142444791Y-83621040D02*
X141968600Y-83621040D01*
X141968600Y-82621040D01*
X142444791Y-82621040D01*
X142825743Y-83573421D02*
X142968600Y-83621040D01*
X143206696Y-83621040D01*
X143301934Y-83573421D01*
X143349553Y-83525802D01*
X143397172Y-83430564D01*
X143397172Y-83335326D01*
X143349553Y-83240088D01*
X143301934Y-83192469D01*
X143206696Y-83144850D01*
X143016220Y-83097231D01*
X142920981Y-83049612D01*
X142873362Y-83001993D01*
X142825743Y-82906755D01*
X142825743Y-82811517D01*
X142873362Y-82716279D01*
X142920981Y-82668660D01*
X143016220Y-82621040D01*
X143254315Y-82621040D01*
X143397172Y-82668660D01*
X143682886Y-82621040D02*
X144254315Y-82621040D01*
X143968600Y-83621040D02*
X143968600Y-82621040D01*
X144349553Y-83716279D02*
X145111458Y-83716279D01*
X145873362Y-83621040D02*
X145301934Y-83621040D01*
X145587648Y-83621040D02*
X145587648Y-82621040D01*
X145492410Y-82763898D01*
X145397172Y-82859136D01*
X145301934Y-82906755D01*
X146301934Y-83621040D02*
X146301934Y-82621040D01*
X146682886Y-82621040D01*
X146778124Y-82668660D01*
X146825743Y-82716279D01*
X146873362Y-82811517D01*
X146873362Y-82954374D01*
X146825743Y-83049612D01*
X146778124Y-83097231D01*
X146682886Y-83144850D01*
X146301934Y-83144850D01*
X144530939Y-65069640D02*
X145102367Y-65069640D01*
X144816653Y-66069640D02*
X144816653Y-65069640D01*
X145435700Y-65545831D02*
X145769034Y-65545831D01*
X145911891Y-66069640D02*
X145435700Y-66069640D01*
X145435700Y-65069640D01*
X145911891Y-65069640D01*
X146292843Y-66022021D02*
X146435700Y-66069640D01*
X146673796Y-66069640D01*
X146769034Y-66022021D01*
X146816653Y-65974402D01*
X146864272Y-65879164D01*
X146864272Y-65783926D01*
X146816653Y-65688688D01*
X146769034Y-65641069D01*
X146673796Y-65593450D01*
X146483320Y-65545831D01*
X146388081Y-65498212D01*
X146340462Y-65450593D01*
X146292843Y-65355355D01*
X146292843Y-65260117D01*
X146340462Y-65164879D01*
X146388081Y-65117260D01*
X146483320Y-65069640D01*
X146721415Y-65069640D01*
X146864272Y-65117260D01*
X147149986Y-65069640D02*
X147721415Y-65069640D01*
X147435700Y-66069640D02*
X147435700Y-65069640D01*
X147816653Y-66164879D02*
X148578558Y-66164879D01*
X149340462Y-66069640D02*
X148769034Y-66069640D01*
X149054748Y-66069640D02*
X149054748Y-65069640D01*
X148959510Y-65212498D01*
X148864272Y-65307736D01*
X148769034Y-65355355D01*
X149769034Y-66069640D02*
X149769034Y-65069640D01*
X150149986Y-65069640D01*
X150245224Y-65117260D01*
X150292843Y-65164879D01*
X150340462Y-65260117D01*
X150340462Y-65402974D01*
X150292843Y-65498212D01*
X150245224Y-65545831D01*
X150149986Y-65593450D01*
X149769034Y-65593450D01*
X143032339Y-90101340D02*
X143603767Y-90101340D01*
X143318053Y-91101340D02*
X143318053Y-90101340D01*
X143937100Y-90577531D02*
X144270434Y-90577531D01*
X144413291Y-91101340D02*
X143937100Y-91101340D01*
X143937100Y-90101340D01*
X144413291Y-90101340D01*
X144794243Y-91053721D02*
X144937100Y-91101340D01*
X145175196Y-91101340D01*
X145270434Y-91053721D01*
X145318053Y-91006102D01*
X145365672Y-90910864D01*
X145365672Y-90815626D01*
X145318053Y-90720388D01*
X145270434Y-90672769D01*
X145175196Y-90625150D01*
X144984720Y-90577531D01*
X144889481Y-90529912D01*
X144841862Y-90482293D01*
X144794243Y-90387055D01*
X144794243Y-90291817D01*
X144841862Y-90196579D01*
X144889481Y-90148960D01*
X144984720Y-90101340D01*
X145222815Y-90101340D01*
X145365672Y-90148960D01*
X145651386Y-90101340D02*
X146222815Y-90101340D01*
X145937100Y-91101340D02*
X145937100Y-90101340D01*
X146318053Y-91196579D02*
X147079958Y-91196579D01*
X147841862Y-91101340D02*
X147270434Y-91101340D01*
X147556148Y-91101340D02*
X147556148Y-90101340D01*
X147460910Y-90244198D01*
X147365672Y-90339436D01*
X147270434Y-90387055D01*
X148270434Y-91101340D02*
X148270434Y-90101340D01*
X148651386Y-90101340D01*
X148746624Y-90148960D01*
X148794243Y-90196579D01*
X148841862Y-90291817D01*
X148841862Y-90434674D01*
X148794243Y-90529912D01*
X148746624Y-90577531D01*
X148651386Y-90625150D01*
X148270434Y-90625150D01*
X147985339Y-94546340D02*
X148556767Y-94546340D01*
X148271053Y-95546340D02*
X148271053Y-94546340D01*
X148890100Y-95022531D02*
X149223434Y-95022531D01*
X149366291Y-95546340D02*
X148890100Y-95546340D01*
X148890100Y-94546340D01*
X149366291Y-94546340D01*
X149747243Y-95498721D02*
X149890100Y-95546340D01*
X150128196Y-95546340D01*
X150223434Y-95498721D01*
X150271053Y-95451102D01*
X150318672Y-95355864D01*
X150318672Y-95260626D01*
X150271053Y-95165388D01*
X150223434Y-95117769D01*
X150128196Y-95070150D01*
X149937720Y-95022531D01*
X149842481Y-94974912D01*
X149794862Y-94927293D01*
X149747243Y-94832055D01*
X149747243Y-94736817D01*
X149794862Y-94641579D01*
X149842481Y-94593960D01*
X149937720Y-94546340D01*
X150175815Y-94546340D01*
X150318672Y-94593960D01*
X150604386Y-94546340D02*
X151175815Y-94546340D01*
X150890100Y-95546340D02*
X150890100Y-94546340D01*
X151271053Y-95641579D02*
X152032958Y-95641579D01*
X152794862Y-95546340D02*
X152223434Y-95546340D01*
X152509148Y-95546340D02*
X152509148Y-94546340D01*
X152413910Y-94689198D01*
X152318672Y-94784436D01*
X152223434Y-94832055D01*
X153223434Y-95546340D02*
X153223434Y-94546340D01*
X153604386Y-94546340D01*
X153699624Y-94593960D01*
X153747243Y-94641579D01*
X153794862Y-94736817D01*
X153794862Y-94879674D01*
X153747243Y-94974912D01*
X153699624Y-95022531D01*
X153604386Y-95070150D01*
X153223434Y-95070150D01*
X108970939Y-65272840D02*
X109542367Y-65272840D01*
X109256653Y-66272840D02*
X109256653Y-65272840D01*
X109875700Y-65749031D02*
X110209034Y-65749031D01*
X110351891Y-66272840D02*
X109875700Y-66272840D01*
X109875700Y-65272840D01*
X110351891Y-65272840D01*
X110732843Y-66225221D02*
X110875700Y-66272840D01*
X111113796Y-66272840D01*
X111209034Y-66225221D01*
X111256653Y-66177602D01*
X111304272Y-66082364D01*
X111304272Y-65987126D01*
X111256653Y-65891888D01*
X111209034Y-65844269D01*
X111113796Y-65796650D01*
X110923320Y-65749031D01*
X110828081Y-65701412D01*
X110780462Y-65653793D01*
X110732843Y-65558555D01*
X110732843Y-65463317D01*
X110780462Y-65368079D01*
X110828081Y-65320460D01*
X110923320Y-65272840D01*
X111161415Y-65272840D01*
X111304272Y-65320460D01*
X111589986Y-65272840D02*
X112161415Y-65272840D01*
X111875700Y-66272840D02*
X111875700Y-65272840D01*
X112256653Y-66368079D02*
X113018558Y-66368079D01*
X113780462Y-66272840D02*
X113209034Y-66272840D01*
X113494748Y-66272840D02*
X113494748Y-65272840D01*
X113399510Y-65415698D01*
X113304272Y-65510936D01*
X113209034Y-65558555D01*
X114209034Y-66272840D02*
X114209034Y-65272840D01*
X114589986Y-65272840D01*
X114685224Y-65320460D01*
X114732843Y-65368079D01*
X114780462Y-65463317D01*
X114780462Y-65606174D01*
X114732843Y-65701412D01*
X114685224Y-65749031D01*
X114589986Y-65796650D01*
X114209034Y-65796650D01*
X148594939Y-95562340D02*
X149166367Y-95562340D01*
X148880653Y-96562340D02*
X148880653Y-95562340D01*
X149499700Y-96038531D02*
X149833034Y-96038531D01*
X149975891Y-96562340D02*
X149499700Y-96562340D01*
X149499700Y-95562340D01*
X149975891Y-95562340D01*
X150356843Y-96514721D02*
X150499700Y-96562340D01*
X150737796Y-96562340D01*
X150833034Y-96514721D01*
X150880653Y-96467102D01*
X150928272Y-96371864D01*
X150928272Y-96276626D01*
X150880653Y-96181388D01*
X150833034Y-96133769D01*
X150737796Y-96086150D01*
X150547320Y-96038531D01*
X150452081Y-95990912D01*
X150404462Y-95943293D01*
X150356843Y-95848055D01*
X150356843Y-95752817D01*
X150404462Y-95657579D01*
X150452081Y-95609960D01*
X150547320Y-95562340D01*
X150785415Y-95562340D01*
X150928272Y-95609960D01*
X151213986Y-95562340D02*
X151785415Y-95562340D01*
X151499700Y-96562340D02*
X151499700Y-95562340D01*
X151880653Y-96657579D02*
X152642558Y-96657579D01*
X153404462Y-96562340D02*
X152833034Y-96562340D01*
X153118748Y-96562340D02*
X153118748Y-95562340D01*
X153023510Y-95705198D01*
X152928272Y-95800436D01*
X152833034Y-95848055D01*
X153833034Y-96562340D02*
X153833034Y-95562340D01*
X154213986Y-95562340D01*
X154309224Y-95609960D01*
X154356843Y-95657579D01*
X154404462Y-95752817D01*
X154404462Y-95895674D01*
X154356843Y-95990912D01*
X154309224Y-96038531D01*
X154213986Y-96086150D01*
X153833034Y-96086150D01*
X129238262Y-73217940D02*
X128762072Y-73217940D01*
X128762072Y-72217940D01*
X129571596Y-72694131D02*
X129904929Y-72694131D01*
X130047786Y-73217940D02*
X129571596Y-73217940D01*
X129571596Y-72217940D01*
X130047786Y-72217940D01*
X130476358Y-73217940D02*
X130476358Y-72217940D01*
X130714453Y-72217940D01*
X130857310Y-72265560D01*
X130952548Y-72360798D01*
X131000167Y-72456036D01*
X131047786Y-72646512D01*
X131047786Y-72789369D01*
X131000167Y-72979845D01*
X130952548Y-73075083D01*
X130857310Y-73170321D01*
X130714453Y-73217940D01*
X130476358Y-73217940D01*
X109504339Y-76613940D02*
X110075767Y-76613940D01*
X109790053Y-77613940D02*
X109790053Y-76613940D01*
X110409100Y-77090131D02*
X110742434Y-77090131D01*
X110885291Y-77613940D02*
X110409100Y-77613940D01*
X110409100Y-76613940D01*
X110885291Y-76613940D01*
X111266243Y-77566321D02*
X111409100Y-77613940D01*
X111647196Y-77613940D01*
X111742434Y-77566321D01*
X111790053Y-77518702D01*
X111837672Y-77423464D01*
X111837672Y-77328226D01*
X111790053Y-77232988D01*
X111742434Y-77185369D01*
X111647196Y-77137750D01*
X111456720Y-77090131D01*
X111361481Y-77042512D01*
X111313862Y-76994893D01*
X111266243Y-76899655D01*
X111266243Y-76804417D01*
X111313862Y-76709179D01*
X111361481Y-76661560D01*
X111456720Y-76613940D01*
X111694815Y-76613940D01*
X111837672Y-76661560D01*
X112123386Y-76613940D02*
X112694815Y-76613940D01*
X112409100Y-77613940D02*
X112409100Y-76613940D01*
X112790053Y-77709179D02*
X113551958Y-77709179D01*
X114313862Y-77613940D02*
X113742434Y-77613940D01*
X114028148Y-77613940D02*
X114028148Y-76613940D01*
X113932910Y-76756798D01*
X113837672Y-76852036D01*
X113742434Y-76899655D01*
X114742434Y-77613940D02*
X114742434Y-76613940D01*
X115123386Y-76613940D01*
X115218624Y-76661560D01*
X115266243Y-76709179D01*
X115313862Y-76804417D01*
X115313862Y-76947274D01*
X115266243Y-77042512D01*
X115218624Y-77090131D01*
X115123386Y-77137750D01*
X114742434Y-77137750D01*
X141035193Y-60271849D02*
X140698475Y-60608567D01*
X139991369Y-59901460D01*
X140900506Y-59665758D02*
X141136208Y-59430056D01*
X141607613Y-59699430D02*
X141270895Y-60036147D01*
X140563788Y-59329040D01*
X140900506Y-58992323D01*
X141910659Y-59396384D02*
X141203552Y-58689277D01*
X141371910Y-58520918D01*
X141506598Y-58453575D01*
X141641285Y-58453575D01*
X141742300Y-58487246D01*
X141910659Y-58588262D01*
X142011674Y-58689277D01*
X142112689Y-58857636D01*
X142146361Y-58958651D01*
X142146361Y-59093338D01*
X142079017Y-59228025D01*
X141910659Y-59396384D01*
X142988155Y-58318888D02*
X142584094Y-58722949D01*
X142786124Y-58520918D02*
X142079017Y-57813811D01*
X142112689Y-57982170D01*
X142112689Y-58116857D01*
X142079017Y-58217872D01*
X130333500Y-55344807D02*
X130333500Y-55820998D01*
X129333500Y-55820998D01*
X129809691Y-55011474D02*
X129809691Y-54678140D01*
X130333500Y-54535283D02*
X130333500Y-55011474D01*
X129333500Y-55011474D01*
X129333500Y-54535283D01*
X130333500Y-54106712D02*
X129333500Y-54106712D01*
X129333500Y-53868617D01*
X129381120Y-53725760D01*
X129476358Y-53630521D01*
X129571596Y-53582902D01*
X129762072Y-53535283D01*
X129904929Y-53535283D01*
X130095405Y-53582902D01*
X130190643Y-53630521D01*
X130285881Y-53725760D01*
X130333500Y-53868617D01*
X130333500Y-54106712D01*
X129428739Y-53154331D02*
X129381120Y-53106712D01*
X129333500Y-53011474D01*
X129333500Y-52773379D01*
X129381120Y-52678140D01*
X129428739Y-52630521D01*
X129523977Y-52582902D01*
X129619215Y-52582902D01*
X129762072Y-52630521D01*
X130333500Y-53201950D01*
X130333500Y-52582902D01*
X117002030Y-58775433D02*
X116665312Y-58438715D01*
X117372419Y-57731609D01*
X117608121Y-58640746D02*
X117843823Y-58876448D01*
X117574449Y-59347853D02*
X117237732Y-59011135D01*
X117944839Y-58304028D01*
X118281556Y-58640746D01*
X117877495Y-59650899D02*
X118584602Y-58943792D01*
X118752961Y-59112150D01*
X118820304Y-59246838D01*
X118820304Y-59381525D01*
X118786633Y-59482540D01*
X118685617Y-59650899D01*
X118584602Y-59751914D01*
X118416243Y-59852929D01*
X118315228Y-59886601D01*
X118180541Y-59886601D01*
X118045854Y-59819257D01*
X117877495Y-59650899D01*
X119224365Y-59583555D02*
X119662098Y-60021288D01*
X119157022Y-60054960D01*
X119258037Y-60155975D01*
X119291709Y-60256990D01*
X119291709Y-60324334D01*
X119258037Y-60425349D01*
X119089678Y-60593708D01*
X118988663Y-60627379D01*
X118921320Y-60627379D01*
X118820304Y-60593708D01*
X118618274Y-60391677D01*
X118584602Y-60290662D01*
X118584602Y-60223318D01*
X112073872Y-71416340D02*
X111597681Y-71416340D01*
X111597681Y-70416340D01*
X112407205Y-70892531D02*
X112740539Y-70892531D01*
X112883396Y-71416340D02*
X112407205Y-71416340D01*
X112407205Y-70416340D01*
X112883396Y-70416340D01*
X113311967Y-71416340D02*
X113311967Y-70416340D01*
X113550062Y-70416340D01*
X113692920Y-70463960D01*
X113788158Y-70559198D01*
X113835777Y-70654436D01*
X113883396Y-70844912D01*
X113883396Y-70987769D01*
X113835777Y-71178245D01*
X113788158Y-71273483D01*
X113692920Y-71368721D01*
X113550062Y-71416340D01*
X113311967Y-71416340D01*
X114740539Y-70749674D02*
X114740539Y-71416340D01*
X114502443Y-70368721D02*
X114264348Y-71083007D01*
X114883396Y-71083007D01*
X117463993Y-83766849D02*
X117127275Y-84103567D01*
X116420169Y-83396460D01*
X117329306Y-83160758D02*
X117565008Y-82925056D01*
X118036413Y-83194430D02*
X117699695Y-83531147D01*
X116992588Y-82824040D01*
X117329306Y-82487323D01*
X118339459Y-82891384D02*
X117632352Y-82184277D01*
X117800710Y-82015918D01*
X117935398Y-81948575D01*
X118070085Y-81948575D01*
X118171100Y-81982246D01*
X118339459Y-82083262D01*
X118440474Y-82184277D01*
X118541489Y-82352636D01*
X118575161Y-82453651D01*
X118575161Y-82588338D01*
X118507817Y-82723025D01*
X118339459Y-82891384D01*
X118676176Y-81140453D02*
X118339459Y-81477170D01*
X118642504Y-81847559D01*
X118642504Y-81780216D01*
X118676176Y-81679201D01*
X118844535Y-81510842D01*
X118945550Y-81477170D01*
X119012894Y-81477170D01*
X119113909Y-81510842D01*
X119282268Y-81679201D01*
X119315939Y-81780216D01*
X119315939Y-81847559D01*
X119282268Y-81948575D01*
X119113909Y-82116933D01*
X119012894Y-82150605D01*
X118945550Y-82150605D01*
X140319230Y-82067233D02*
X139982512Y-81730515D01*
X140689619Y-81023409D01*
X140925321Y-81932546D02*
X141161023Y-82168248D01*
X140891649Y-82639653D02*
X140554932Y-82302935D01*
X141262039Y-81595828D01*
X141598756Y-81932546D01*
X141194695Y-82942699D02*
X141901802Y-82235592D01*
X142070161Y-82403950D01*
X142137504Y-82538638D01*
X142137504Y-82673325D01*
X142103833Y-82774340D01*
X142002817Y-82942699D01*
X141901802Y-83043714D01*
X141733443Y-83144729D01*
X141632428Y-83178401D01*
X141497741Y-83178401D01*
X141363054Y-83111057D01*
X141194695Y-82942699D01*
X142911955Y-83245744D02*
X142777268Y-83111057D01*
X142676252Y-83077386D01*
X142608909Y-83077386D01*
X142440550Y-83111057D01*
X142272191Y-83212073D01*
X142002817Y-83481447D01*
X141969146Y-83582462D01*
X141969146Y-83649805D01*
X142002817Y-83750821D01*
X142137504Y-83885508D01*
X142238520Y-83919179D01*
X142305863Y-83919179D01*
X142406878Y-83885508D01*
X142575237Y-83717149D01*
X142608909Y-83616134D01*
X142608909Y-83548790D01*
X142575237Y-83447775D01*
X142440550Y-83313088D01*
X142339535Y-83279416D01*
X142272191Y-83279416D01*
X142171176Y-83313088D01*
X145347872Y-71365540D02*
X144871681Y-71365540D01*
X144871681Y-70365540D01*
X145681205Y-70841731D02*
X146014539Y-70841731D01*
X146157396Y-71365540D02*
X145681205Y-71365540D01*
X145681205Y-70365540D01*
X146157396Y-70365540D01*
X146585967Y-71365540D02*
X146585967Y-70365540D01*
X146824062Y-70365540D01*
X146966920Y-70413160D01*
X147062158Y-70508398D01*
X147109777Y-70603636D01*
X147157396Y-70794112D01*
X147157396Y-70936969D01*
X147109777Y-71127445D01*
X147062158Y-71222683D01*
X146966920Y-71317921D01*
X146824062Y-71365540D01*
X146585967Y-71365540D01*
X147490729Y-70365540D02*
X148157396Y-70365540D01*
X147728824Y-71365540D01*
M02*
