G04 #@! TF.GenerationSoftware,KiCad,Pcbnew,(2017-05-14 revision 14bb238b3)-makepkg*
G04 #@! TF.CreationDate,2017-07-07T13:01:08-06:00*
G04 #@! TF.ProjectId,001,3030312E6B696361645F706362000000,rev?*
G04 #@! TF.FileFunction,Copper,L1,Top*
G04 #@! TF.FilePolarity,Positive*
%FSLAX46Y46*%
G04 Gerber Fmt 4.6, Leading zero omitted, Abs format (unit mm)*
G04 Created by KiCad (PCBNEW (2017-05-14 revision 14bb238b3)-makepkg) date 07/07/17 13:01:08*
%MOMM*%
%LPD*%
G01*
G04 APERTURE LIST*
%ADD10C,0.100000*%
%ADD11C,2.235200*%
%ADD12R,1.500000X1.500000*%
%ADD13C,0.889000*%
%ADD14R,0.889000X1.498600*%
%ADD15R,1.498600X0.889000*%
G04 APERTURE END LIST*
D10*
D11*
X121473720Y-90496560D03*
X120025920Y-93493760D03*
X118400320Y-96440160D03*
X116647720Y-99437360D03*
X142479520Y-75815360D03*
X142174720Y-65706160D03*
X138720320Y-90445760D03*
X140853920Y-93392160D03*
X117574820Y-65960160D03*
X143063720Y-96313160D03*
D12*
X131531120Y-71065560D03*
X128231120Y-71065560D03*
D11*
X117308120Y-76145560D03*
D13*
X140932144Y-62070002D03*
D10*
G36*
X140716618Y-62914146D02*
X140088000Y-62285528D01*
X141147670Y-61225858D01*
X141776288Y-61854476D01*
X140716618Y-62914146D01*
X140716618Y-62914146D01*
G37*
D13*
X138597278Y-59735136D03*
D10*
G36*
X138381752Y-60579280D02*
X137753134Y-59950662D01*
X138812804Y-58890992D01*
X139441422Y-59519610D01*
X138381752Y-60579280D01*
X138381752Y-60579280D01*
G37*
D13*
X142045696Y-56286718D03*
D10*
G36*
X141830170Y-57130862D02*
X141201552Y-56502244D01*
X142261222Y-55442574D01*
X142889840Y-56071192D01*
X141830170Y-57130862D01*
X141830170Y-57130862D01*
G37*
D13*
X144380562Y-58621584D03*
D10*
G36*
X144165036Y-59465728D02*
X143536418Y-58837110D01*
X144596088Y-57777440D01*
X145224706Y-58406058D01*
X144165036Y-59465728D01*
X144165036Y-59465728D01*
G37*
D14*
X131532120Y-51812360D03*
X128230120Y-51812360D03*
X128230120Y-56689160D03*
X131532120Y-56689160D03*
D13*
X115203878Y-58672384D03*
D10*
G36*
X114359734Y-58456858D02*
X114988352Y-57828240D01*
X116048022Y-58887910D01*
X115419404Y-59516528D01*
X114359734Y-58456858D01*
X114359734Y-58456858D01*
G37*
D13*
X117538744Y-56337518D03*
D10*
G36*
X116694600Y-56121992D02*
X117323218Y-55493374D01*
X118382888Y-56553044D01*
X117754270Y-57181662D01*
X116694600Y-56121992D01*
X116694600Y-56121992D01*
G37*
D13*
X120987162Y-59785936D03*
D10*
G36*
X120143018Y-59570410D02*
X120771636Y-58941792D01*
X121831306Y-60001462D01*
X121202688Y-60630080D01*
X120143018Y-59570410D01*
X120143018Y-59570410D01*
G37*
D13*
X118652296Y-62120802D03*
D10*
G36*
X117808152Y-61905276D02*
X118436770Y-61276658D01*
X119496440Y-62336328D01*
X118867822Y-62964946D01*
X117808152Y-61905276D01*
X117808152Y-61905276D01*
G37*
D15*
X115606320Y-72614960D03*
X115606320Y-69312960D03*
X110729520Y-69312960D03*
X110729520Y-72614960D03*
D13*
X117360944Y-85565002D03*
D10*
G36*
X117145418Y-86409146D02*
X116516800Y-85780528D01*
X117576470Y-84720858D01*
X118205088Y-85349476D01*
X117145418Y-86409146D01*
X117145418Y-86409146D01*
G37*
D13*
X115026078Y-83230136D03*
D10*
G36*
X114810552Y-84074280D02*
X114181934Y-83445662D01*
X115241604Y-82385992D01*
X115870222Y-83014610D01*
X114810552Y-84074280D01*
X114810552Y-84074280D01*
G37*
D13*
X118474496Y-79781718D03*
D10*
G36*
X118258970Y-80625862D02*
X117630352Y-79997244D01*
X118690022Y-78937574D01*
X119318640Y-79566192D01*
X118258970Y-80625862D01*
X118258970Y-80625862D01*
G37*
D13*
X120809362Y-82116584D03*
D10*
G36*
X120593836Y-82960728D02*
X119965218Y-82332110D01*
X121024888Y-81272440D01*
X121653506Y-81901058D01*
X120593836Y-82960728D01*
X120593836Y-82960728D01*
G37*
D13*
X141969496Y-85412602D03*
D10*
G36*
X141125352Y-85197076D02*
X141753970Y-84568458D01*
X142813640Y-85628128D01*
X142185022Y-86256746D01*
X141125352Y-85197076D01*
X141125352Y-85197076D01*
G37*
D13*
X144304362Y-83077736D03*
D10*
G36*
X143460218Y-82862210D02*
X144088836Y-82233592D01*
X145148506Y-83293262D01*
X144519888Y-83921880D01*
X143460218Y-82862210D01*
X143460218Y-82862210D01*
G37*
D13*
X140855944Y-79629318D03*
D10*
G36*
X140011800Y-79413792D02*
X140640418Y-78785174D01*
X141700088Y-79844844D01*
X141071470Y-80473462D01*
X140011800Y-79413792D01*
X140011800Y-79413792D01*
G37*
D13*
X138521078Y-81964184D03*
D10*
G36*
X137676934Y-81748658D02*
X138305552Y-81120040D01*
X139365222Y-82179710D01*
X138736604Y-82808328D01*
X137676934Y-81748658D01*
X137676934Y-81748658D01*
G37*
D15*
X144003520Y-72564160D03*
X144003520Y-69262160D03*
X148880320Y-69262160D03*
X148880320Y-72564160D03*
M02*
