G04 #@! TF.GenerationSoftware,KiCad,Pcbnew,(2017-05-14 revision 14bb238b3)-makepkg*
G04 #@! TF.CreationDate,2017-07-07T13:01:08-06:00*
G04 #@! TF.ProjectId,001,3030312E6B696361645F706362000000,rev?*
G04 #@! TF.FileFunction,Copper,L2,Bot,Signal*
G04 #@! TF.FilePolarity,Positive*
%FSLAX46Y46*%
G04 Gerber Fmt 4.6, Leading zero omitted, Abs format (unit mm)*
G04 Created by KiCad (PCBNEW (2017-05-14 revision 14bb238b3)-makepkg) date 07/07/17 13:01:08*
%MOMM*%
%LPD*%
G01*
G04 APERTURE LIST*
%ADD10C,0.100000*%
%ADD11R,2.500000X1.100000*%
%ADD12R,1.100000X2.500000*%
%ADD13C,2.235200*%
%ADD14C,1.600000*%
%ADD15R,2.000000X1.700000*%
%ADD16R,2.200000X3.100000*%
%ADD17R,0.800000X1.700000*%
G04 APERTURE END LIST*
D10*
D11*
X122412020Y-75307360D03*
X122412020Y-73307360D03*
X122412020Y-71307360D03*
X122412020Y-69307360D03*
X122412020Y-67307360D03*
X122412020Y-65307360D03*
X122412020Y-63307360D03*
X122412020Y-61307360D03*
X137812020Y-61307360D03*
X137812020Y-63307360D03*
X137812020Y-65307360D03*
X137812020Y-67307360D03*
X137812020Y-69307360D03*
X137812020Y-71307360D03*
X137812020Y-73307360D03*
X137812020Y-75307360D03*
D12*
X125102020Y-59607360D03*
X127102020Y-59607360D03*
X129102020Y-59607360D03*
X131102020Y-59607360D03*
X133102020Y-59607360D03*
X135102020Y-59607360D03*
D13*
X121473720Y-90496560D03*
X120025920Y-93493760D03*
X118400320Y-96440160D03*
X116647720Y-99437360D03*
X142479520Y-75815360D03*
X142174720Y-65706160D03*
X138720320Y-90445760D03*
X140853920Y-93392160D03*
X117574820Y-65960160D03*
X143063720Y-96313160D03*
D14*
X142928781Y-84210450D03*
D10*
G36*
X141665135Y-84002610D02*
X142854166Y-82932001D01*
X144192427Y-84418290D01*
X143003396Y-85488899D01*
X141665135Y-84002610D01*
X141665135Y-84002610D01*
G37*
D14*
X140252259Y-81237870D03*
D10*
G36*
X138988613Y-81030030D02*
X140177644Y-79959421D01*
X141515905Y-81445710D01*
X140326874Y-82516319D01*
X138988613Y-81030030D01*
X138988613Y-81030030D01*
G37*
D13*
X117308120Y-76145560D03*
D15*
X113631720Y-71090960D03*
X117631720Y-71090960D03*
X146079720Y-70913160D03*
X142079720Y-70913160D03*
D16*
X126984720Y-88771560D03*
X133234720Y-88771560D03*
D17*
X129484720Y-85871560D03*
X130734720Y-85871560D03*
M02*
