  0
SECTION
  2
HEADER
  9
$ACADVER
  1
AC1014
  9
$HANDSEED
  5
FFFF
  9
$MEASUREMENT
 70
     1
  0
ENDSEC
  0
SECTION
  2
TABLES
  0
TABLE
  2
VPORT
  5
8
330
0
100
AcDbSymbolTable
 70
     4
  0
VPORT
  5
2E
330
8
100
AcDbSymbolTableRecord
100
AcDbViewportTableRecord
  2
*ACTIVE
 70
     0
 10
0.0
 20
0.0
 11
1.0
 21
1.0
 12
210.0
 22
148.5
 13
0.0
 23
0.0
 14
10.0
 24
10.0
 15
10.0
 25
10.0
 16
0.0
 26
0.0
 36
1.0
 17
0.0
 27
0.0
 37
0.0
 40
341.0
 41
1.24
 42
50.0
 43
0.0
 44
0.0
 50
0.0
 51
0.0
 71
     0
 72
   100
 73
     1
 74
     3
 75
     0
 76
     0
 77
     0
 78
     0
  0
ENDTAB
  0
TABLE
  2
LTYPE
  5
5
330
0
100
AcDbSymbolTable
 70
     1
  0
LTYPE
  5
14
330
5
100
AcDbSymbolTableRecord
100
AcDbLinetypeTableRecord
  2
BYBLOCK
 70
     0
  3

 72
    65
 73
     0
 40
0.0
  0
LTYPE
  5
15
330
5
100
AcDbSymbolTableRecord
100
AcDbLinetypeTableRecord
  2
BYLAYER
 70
     0
  3

 72
    65
 73
     0
 40
0.0
  0
LTYPE
  5
16
330
5
100
AcDbSymbolTableRecord
100
AcDbLinetypeTableRecord
  2
CONTINUOUS
 70
     0
  3
Solid line
 72
    65
 73
     0
 40
0.0
  0
ENDTAB
  0
TABLE
  2
LAYER
  5
2
100
AcDbSymbolTable
 70
2
  0
LAYER
  5
50
100
AcDbSymbolTableRecord
100
AcDbLayerTableRecord
  2
0
 70
0
  6
CONTINUOUS
  0
LAYER
  5
51
100
AcDbSymbolTableRecord
100
AcDbLayerTableRecord
  2
Layer_1
 70
0
  6
CONTINUOUS
  0
ENDTAB
  0
TABLE
  2
STYLE
  5
3
330
0
100
AcDbSymbolTable
 70
     1
  0
STYLE
  5
11
330
3
100
AcDbSymbolTableRecord
100
AcDbTextStyleTableRecord
  2
STANDARD
 70
     0
 40
0.0
 41
1.0
 50
0.0
 71
     0
 42
2.5
  3
txt
  4

  0
ENDTAB
  0
TABLE
  2
VIEW
  5
6
330
0
100
AcDbSymbolTable
 70
     0
  0
ENDTAB
  0
TABLE
  2
UCS
  5
7
330
0
100
AcDbSymbolTable
 70
     0
  0
ENDTAB
  0
TABLE
  2
APPID
  5
9
330
0
100
AcDbSymbolTable
 70
     2
  0
APPID
  5
12
330
9
100
AcDbSymbolTableRecord
100
AcDbRegAppTableRecord
  2
ACAD
 70
     0
  0
ENDTAB
  0
TABLE
  2
DIMSTYLE
  5
A
330
0
100
AcDbSymbolTable
 70
     1
  0
DIMSTYLE
105
27
330
A
100
AcDbSymbolTableRecord
100
AcDbDimStyleTableRecord
  2
ISO-25
 70
     0
  3

  4

  5

  6

  7

 40
1.0
 41
2.5
 42
0.625
 43
3.75
 44
1.25
 45
0.0
 46
0.0
 47
0.0
 48
0.0
140
2.5
141
2.5
142
0.0
143
0.03937007874016
144
1.0
145
0.0
146
1.0
147
0.625
 71
     0
 72
     0
 73
     0
 74
     0
 75
     0
 76
     0
 77
     1
 78
     8
170
     0
171
     3
172
     1
173
     0
174
     0
175
     0
176
     0
177
     0
178
     0
270
     2
271
     2
272
     2
273
     2
274
     3
340
11
275
     0
280
     0
281
     0
282
     0
283
     0
284
     8
285
     0
286
     0
287
     3
288
     0
  0
ENDTAB
  0
TABLE
  2
BLOCK_RECORD
  5
1
330
0
100
AcDbSymbolTable
 70
     1
  0
BLOCK_RECORD
  5
1F
330
1
100
AcDbSymbolTableRecord
100
AcDbBlockTableRecord
  2
*MODEL_SPACE
  0
BLOCK_RECORD
  5
1B
330
1
100
AcDbSymbolTableRecord
100
AcDbBlockTableRecord
  2
*PAPER_SPACE
  0
ENDTAB
  0
ENDSEC
  0
SECTION
  2
BLOCKS
  0
BLOCK
  5
20
330
1F
100
AcDbEntity
  8
0
100
AcDbBlockBegin
  2
*MODEL_SPACE
 70
     0
 10
0.0
 20
0.0
 30
0.0
  3
*MODEL_SPACE
  1

  0
ENDBLK
  5
21
330
1F
100
AcDbEntity
  8
0
100
AcDbBlockEnd
  0
BLOCK
  5
1C
330
1B
100
AcDbEntity
 67
     1
  8
0
100
AcDbBlockBegin
  2
*PAPER_SPACE
  1

  0
ENDBLK
  5
1D
330
1B
100
AcDbEntity
 67
     1
  8
0
100
AcDbBlockEnd
  0
ENDSEC
  0
SECTION
  2
ENTITIES
  0
SPLINE
  5
100
100
AcDbEntity
  8
Layer_1
 62
7
100
AcDbSpline
 70
8
 71
3
 72
8
 73
4
 74
0
 40
0
 40
0
 40
0
 40
0
 40
1
 40
1
 40
1
 40
1
 10
49.704636
 20
78.396458
 30
0.0
 10
52.216103
 20
75.061580
 30
0.0
 10
53.420162
 20
70.758325
 30
0.0
 10
52.558327
 20
66.455773
 30
0.0
  0
SPLINE
  5
101
100
AcDbEntity
  8
Layer_1
 62
7
100
AcDbSpline
 70
8
 71
3
 72
8
 73
4
 74
0
 40
0
 40
0
 40
0
 40
0
 40
1
 40
1
 40
1
 40
1
 10
38.299695
 20
84.581363
 30
0.0
 10
41.820299
 20
84.397430
 30
0.0
 10
45.041777
 20
82.950749
 30
0.0
 10
47.543579
 20
80.735292
 30
0.0
  0
SPLINE
  5
102
100
AcDbEntity
  8
Layer_1
 62
7
100
AcDbSpline
 70
8
 71
3
 72
8
 73
4
 74
0
 40
0
 40
0
 40
0
 40
0
 40
1
 40
1
 40
1
 40
1
 10
39.902043
 20
0.847199
 30
0.0
 10
39.225213
 20
1.098699
 30
0.0
 10
38.435070
 20
1.430976
 30
0.0
 10
38.146168
 20
1.585589
 30
0.0
  0
SPLINE
  5
103
100
AcDbEntity
  8
Layer_1
 62
7
100
AcDbSpline
 70
8
 71
3
 72
8
 73
4
 74
0
 40
0
 40
0
 40
0
 40
0
 40
1
 40
1
 40
1
 40
1
 10
38.146168
 20
1.585589
 30
0.0
 10
37.857266
 20
1.740206
 30
0.0
 10
37.188564
 20
1.866710
 30
0.0
 10
36.660161
 20
1.866710
 30
0.0
  0
SPLINE
  5
104
100
AcDbEntity
  8
Layer_1
 62
7
100
AcDbSpline
 70
8
 71
3
 72
8
 73
4
 74
0
 40
0
 40
0
 40
0
 40
0
 40
1
 40
1
 40
1
 40
1
 10
36.660161
 20
1.866710
 30
0.0
 10
35.348174
 20
1.866710
 30
0.0
 10
34.411482
 20
2.619912
 30
0.0
 10
34.411482
 20
3.674889
 30
0.0
  0
SPLINE
  5
105
100
AcDbEntity
  8
Layer_1
 62
7
100
AcDbSpline
 70
8
 71
3
 72
8
 73
4
 74
0
 40
0
 40
0
 40
0
 40
0
 40
1
 40
1
 40
1
 40
1
 10
34.411482
 20
3.674889
 30
0.0
 10
34.411482
 20
5.475357
 30
0.0
 10
36.803417
 20
6.333073
 30
0.0
 10
37.987038
 20
4.957034
 30
0.0
  0
SPLINE
  5
106
100
AcDbEntity
  8
Layer_1
 62
7
100
AcDbSpline
 70
8
 71
3
 72
8
 73
4
 74
0
 40
0
 40
0
 40
0
 40
0
 40
1
 40
1
 40
1
 40
1
 10
37.987038
 20
4.957034
 30
0.0
 10
38.305677
 20
4.586595
 30
0.0
 10
38.566380
 20
4.029869
 30
0.0
 10
38.566380
 20
3.719865
 30
0.0
  0
SPLINE
  5
107
100
AcDbEntity
  8
Layer_1
 62
7
100
AcDbSpline
 70
8
 71
3
 72
8
 73
4
 74
0
 40
0
 40
0
 40
0
 40
0
 40
1
 40
1
 40
1
 40
1
 10
38.566380
 20
3.719865
 30
0.0
 10
38.566380
 20
3.230307
 30
0.0
 10
38.748431
 20
3.119658
 30
0.0
 10
39.951374
 20
2.878073
 30
0.0
  0
SPLINE
  5
108
100
AcDbEntity
  8
Layer_1
 62
7
100
AcDbSpline
 70
8
 71
3
 72
8
 73
4
 74
0
 40
0
 40
0
 40
0
 40
0
 40
1
 40
1
 40
1
 40
1
 10
39.951374
 20
2.878073
 30
0.0
 10
41.691073
 20
2.528692
 30
0.0
 10
43.945168
 20
2.520310
 30
0.0
 10
44.843916
 20
2.859889
 30
0.0
  0
SPLINE
  5
109
100
AcDbEntity
  8
Layer_1
 62
7
100
AcDbSpline
 70
8
 71
3
 72
8
 73
4
 74
0
 40
0
 40
0
 40
0
 40
0
 40
1
 40
1
 40
1
 40
1
 10
44.843916
 20
2.859889
 30
0.0
 10
45.806730
 20
3.223665
 30
0.0
 10
46.825409
 20
4.256470
 30
0.0
 10
46.998443
 20
5.044292
 30
0.0
  0
SPLINE
  5
10a
100
AcDbEntity
  8
Layer_1
 62
7
100
AcDbSpline
 70
8
 71
3
 72
8
 73
4
 74
0
 40
0
 40
0
 40
0
 40
0
 40
1
 40
1
 40
1
 40
1
 10
46.998443
 20
5.044292
 30
0.0
 10
47.204091
 20
5.980598
 30
0.0
 10
46.506901
 20
7.664537
 30
0.0
 10
44.235424
 20
11.717886
 30
0.0
  0
SPLINE
  5
10b
100
AcDbEntity
  8
Layer_1
 62
7
100
AcDbSpline
 70
8
 71
3
 72
8
 73
4
 74
0
 40
0
 40
0
 40
0
 40
0
 40
1
 40
1
 40
1
 40
1
 10
44.235424
 20
11.717886
 30
0.0
 10
41.608002
 20
16.406404
 30
0.0
 10
40.639999
 20
18.375744
 30
0.0
 10
39.859007
 20
20.621427
 30
0.0
  0
LINE
  5
10c
100
AcDbEntity
  8
Layer_1
 62
7
100
AcDbLine
 10
39.859007
 20
20.621427
 30
0.0
 11
39.199083
 21
22.518993
 31
0.0
  0
LINE
  5
10d
100
AcDbEntity
  8
Layer_1
 62
7
100
AcDbLine
 10
39.199083
 20
22.518993
 30
0.0
 11
39.185586
 21
30.706584
 31
0.0
  0
SPLINE
  5
10e
100
AcDbEntity
  8
Layer_1
 62
7
100
AcDbSpline
 70
8
 71
3
 72
8
 73
4
 74
0
 40
0
 40
0
 40
0
 40
0
 40
1
 40
1
 40
1
 40
1
 10
39.185586
 20
30.706584
 30
0.0
 10
39.172047
 20
38.914510
 30
0.0
 10
38.852992
 20
43.063140
 30
0.0
 10
38.250700
 20
42.862378
 30
0.0
  0
SPLINE
  5
10f
100
AcDbEntity
  8
Layer_1
 62
7
100
AcDbSpline
 70
8
 71
3
 72
8
 73
4
 74
0
 40
0
 40
0
 40
0
 40
0
 40
1
 40
1
 40
1
 40
1
 10
38.250700
 20
42.862378
 30
0.0
 10
37.906217
 20
42.747549
 30
0.0
 10
36.937362
 20
40.109618
 30
0.0
 10
36.300736
 20
37.553149
 30
0.0
  0
SPLINE
  5
110
100
AcDbEntity
  8
Layer_1
 62
7
100
AcDbSpline
 70
8
 71
3
 72
8
 73
4
 74
0
 40
0
 40
0
 40
0
 40
0
 40
1
 40
1
 40
1
 40
1
 10
36.300736
 20
37.553149
 30
0.0
 10
35.865714
 20
35.806248
 30
0.0
 10
35.793772
 20
34.884428
 30
0.0
 10
35.852254
 20
31.806410
 30
0.0
  0
SPLINE
  5
111
100
AcDbEntity
  8
Layer_1
 62
7
100
AcDbSpline
 70
8
 71
3
 72
8
 73
4
 74
0
 40
0
 40
0
 40
0
 40
0
 40
1
 40
1
 40
1
 40
1
 10
35.852254
 20
31.806410
 30
0.0
 10
36.025176
 20
22.705057
 30
0.0
 10
36.105409
 20
23.617503
 30
0.0
 10
34.809935
 20
19.952732
 30
0.0
  0
SPLINE
  5
112
100
AcDbEntity
  8
Layer_1
 62
7
100
AcDbSpline
 70
8
 71
3
 72
8
 73
4
 74
0
 40
0
 40
0
 40
0
 40
0
 40
1
 40
1
 40
1
 40
1
 10
34.809935
 20
19.952732
 30
0.0
 10
34.168445
 20
18.138020
 30
0.0
 10
33.321442
 20
15.737316
 30
0.0
 10
32.927710
 20
14.617832
 30
0.0
  0
SPLINE
  5
113
100
AcDbEntity
  8
Layer_1
 62
7
100
AcDbSpline
 70
8
 71
3
 72
8
 73
4
 74
0
 40
0
 40
0
 40
0
 40
0
 40
1
 40
1
 40
1
 40
1
 10
32.927710
 20
14.617832
 30
0.0
 10
32.247504
 20
12.683843
 30
0.0
 10
32.030599
 20
10.933169
 30
0.0
 10
32.363651
 20
10.065251
 30
0.0
  0
SPLINE
  5
114
100
AcDbEntity
  8
Layer_1
 62
7
100
AcDbSpline
 70
8
 71
3
 72
8
 73
4
 74
0
 40
0
 40
0
 40
0
 40
0
 40
1
 40
1
 40
1
 40
1
 10
32.363651
 20
10.065251
 30
0.0
 10
32.695397
 20
9.200731
 30
0.0
 10
35.000577
 20
8.633150
 30
0.0
 10
36.243260
 20
9.110011
 30
0.0
  0
SPLINE
  5
115
100
AcDbEntity
  8
Layer_1
 62
7
100
AcDbSpline
 70
8
 71
3
 72
8
 73
4
 74
0
 40
0
 40
0
 40
0
 40
0
 40
1
 40
1
 40
1
 40
1
 10
36.243260
 20
9.110011
 30
0.0
 10
36.857385
 20
9.345674
 30
0.0
 10
37.105362
 20
10.258595
 30
0.0
 10
36.828054
 20
11.262922
 30
0.0
  0
SPLINE
  5
116
100
AcDbEntity
  8
Layer_1
 62
7
100
AcDbSpline
 70
8
 71
3
 72
8
 73
4
 74
0
 40
0
 40
0
 40
0
 40
0
 40
1
 40
1
 40
1
 40
1
 10
36.828054
 20
11.262922
 30
0.0
 10
36.634123
 20
11.965280
 30
0.0
 10
36.390900
 20
12.223827
 30
0.0
 10
35.642348
 20
12.523339
 30
0.0
  0
SPLINE
  5
117
100
AcDbEntity
  8
Layer_1
 62
7
100
AcDbSpline
 70
8
 71
3
 72
8
 73
4
 74
0
 40
0
 40
0
 40
0
 40
0
 40
1
 40
1
 40
1
 40
1
 10
35.642348
 20
12.523339
 30
0.0
 10
33.881045
 20
13.228073
 30
0.0
 10
33.746147
 20
15.070430
 30
0.0
 10
35.393476
 20
15.922297
 30
0.0
  0
SPLINE
  5
118
100
AcDbEntity
  8
Layer_1
 62
7
100
AcDbSpline
 70
8
 71
3
 72
8
 73
4
 74
0
 40
0
 40
0
 40
0
 40
0
 40
1
 40
1
 40
1
 40
1
 10
35.393476
 20
15.922297
 30
0.0
 10
36.013467
 20
16.242908
 30
0.0
 10
36.306321
 20
16.263829
 30
0.0
 10
36.994585
 20
16.036683
 30
0.0
  0
SPLINE
  5
119
100
AcDbEntity
  8
Layer_1
 62
7
100
AcDbSpline
 70
8
 71
3
 72
8
 73
4
 74
0
 40
0
 40
0
 40
0
 40
0
 40
1
 40
1
 40
1
 40
1
 10
36.994585
 20
16.036683
 30
0.0
 10
38.027130
 20
15.695911
 30
0.0
 10
38.354033
 20
15.130334
 30
0.0
 10
38.299223
 20
13.779512
 30
0.0
  0
SPLINE
  5
11a
100
AcDbEntity
  8
Layer_1
 62
7
100
AcDbSpline
 70
8
 71
3
 72
8
 73
4
 74
0
 40
0
 40
0
 40
0
 40
0
 40
1
 40
1
 40
1
 40
1
 10
38.299223
 20
13.779512
 30
0.0
 10
38.276077
 20
13.209300
 30
0.0
 10
38.368710
 20
12.213999
 30
0.0
 10
38.505052
 20
11.567734
 30
0.0
  0
SPLINE
  5
11b
100
AcDbEntity
  8
Layer_1
 62
7
100
AcDbSpline
 70
8
 71
3
 72
8
 73
4
 74
0
 40
0
 40
0
 40
0
 40
0
 40
1
 40
1
 40
1
 40
1
 10
38.505052
 20
11.567734
 30
0.0
 10
38.957820
 20
9.421596
 30
0.0
 10
38.181879
 20
7.802359
 30
0.0
 10
36.422418
 20
7.221686
 30
0.0
  0
SPLINE
  5
11c
100
AcDbEntity
  8
Layer_1
 62
7
100
AcDbSpline
 70
8
 71
3
 72
8
 73
4
 74
0
 40
0
 40
0
 40
0
 40
0
 40
1
 40
1
 40
1
 40
1
 10
36.422418
 20
7.221686
 30
0.0
 10
35.060045
 20
6.772059
 30
0.0
 10
31.737584
 20
7.043716
 30
0.0
 10
30.691440
 20
7.690270
 30
0.0
  0
SPLINE
  5
11d
100
AcDbEntity
  8
Layer_1
 62
7
100
AcDbSpline
 70
8
 71
3
 72
8
 73
4
 74
0
 40
0
 40
0
 40
0
 40
0
 40
1
 40
1
 40
1
 40
1
 10
30.691440
 20
7.690270
 30
0.0
 10
28.558110
 20
9.008738
 30
0.0
 10
28.568409
 20
11.035326
 30
0.0
 10
30.740225
 20
17.289724
 30
0.0
  0
SPLINE
  5
11e
100
AcDbEntity
  8
Layer_1
 62
7
100
AcDbSpline
 70
8
 71
3
 72
8
 73
4
 74
0
 40
0
 40
0
 40
0
 40
0
 40
1
 40
1
 40
1
 40
1
 10
30.740225
 20
17.289724
 30
0.0
 10
33.082240
 20
24.034270
 30
0.0
 10
33.239425
 20
25.209651
 30
0.0
 10
32.452754
 20
30.095569
 30
0.0
  0
SPLINE
  5
11f
100
AcDbEntity
  8
Layer_1
 62
7
100
AcDbSpline
 70
8
 71
3
 72
8
 73
4
 74
0
 40
0
 40
0
 40
0
 40
0
 40
1
 40
1
 40
1
 40
1
 10
32.452754
 20
30.095569
 30
0.0
 10
32.100893
 20
32.280940
 30
0.0
 10
32.325052
 20
35.340536
 30
0.0
 10
33.082669
 20
38.693440
 30
0.0
  0
SPLINE
  5
120
100
AcDbEntity
  8
Layer_1
 62
7
100
AcDbSpline
 70
8
 71
3
 72
8
 73
4
 74
0
 40
0
 40
0
 40
0
 40
0
 40
1
 40
1
 40
1
 40
1
 10
33.082669
 20
38.693440
 30
0.0
 10
33.407021
 20
40.128899
 30
0.0
 10
33.633713
 20
41.342051
 30
0.0
 10
33.586428
 20
41.389337
 30
0.0
  0
SPLINE
  5
121
100
AcDbEntity
  8
Layer_1
 62
7
100
AcDbSpline
 70
8
 71
3
 72
8
 73
4
 74
0
 40
0
 40
0
 40
0
 40
0
 40
1
 40
1
 40
1
 40
1
 10
33.586428
 20
41.389337
 30
0.0
 10
33.323193
 20
41.652572
 30
0.0
 10
30.991728
 20
35.284523
 30
0.0
 10
29.854230
 20
31.195396
 30
0.0
  0
SPLINE
  5
122
100
AcDbEntity
  8
Layer_1
 62
7
100
AcDbSpline
 70
8
 71
3
 72
8
 73
4
 74
0
 40
0
 40
0
 40
0
 40
0
 40
1
 40
1
 40
1
 40
1
 10
29.854230
 20
31.195396
 30
0.0
 10
29.043041
 20
28.279298
 30
0.0
 10
28.994836
 20
27.879055
 30
0.0
 10
28.794580
 20
22.396789
 30
0.0
  0
SPLINE
  5
123
100
AcDbEntity
  8
Layer_1
 62
7
100
AcDbSpline
 70
8
 71
3
 72
8
 73
4
 74
0
 40
0
 40
0
 40
0
 40
0
 40
1
 40
1
 40
1
 40
1
 10
28.794580
 20
22.396789
 30
0.0
 10
28.573654
 20
16.348670
 30
0.0
 10
28.292995
 20
14.425527
 30
0.0
 10
27.206221
 20
11.512932
 30
0.0
  0
SPLINE
  5
124
100
AcDbEntity
  8
Layer_1
 62
7
100
AcDbSpline
 70
8
 71
3
 72
8
 73
4
 74
0
 40
0
 40
0
 40
0
 40
0
 40
1
 40
1
 40
1
 40
1
 10
27.206221
 20
11.512932
 30
0.0
 10
25.973529
 20
8.209272
 30
0.0
 10
23.691561
 20
5.738673
 30
0.0
 10
21.091372
 20
4.892621
 30
0.0
  0
SPLINE
  5
125
100
AcDbEntity
  8
Layer_1
 62
7
100
AcDbSpline
 70
8
 71
3
 72
8
 73
4
 74
0
 40
0
 40
0
 40
0
 40
0
 40
1
 40
1
 40
1
 40
1
 10
21.091372
 20
4.892621
 30
0.0
 10
20.419256
 20
4.673929
 30
0.0
 10
19.526413
 20
4.288572
 30
0.0
 10
19.107277
 20
4.036272
 30
0.0
  0
SPLINE
  5
126
100
AcDbEntity
  8
Layer_1
 62
7
100
AcDbSpline
 70
8
 71
3
 72
8
 73
4
 74
0
 40
0
 40
0
 40
0
 40
0
 40
1
 40
1
 40
1
 40
1
 10
19.107277
 20
4.036272
 30
0.0
 10
18.009117
 20
3.375237
 30
0.0
 10
17.144444
 20
3.454181
 30
0.0
 10
16.306659
 20
4.291968
 30
0.0
  0
SPLINE
  5
127
100
AcDbEntity
  8
Layer_1
 62
7
100
AcDbSpline
 70
8
 71
3
 72
8
 73
4
 74
0
 40
0
 40
0
 40
0
 40
0
 40
1
 40
1
 40
1
 40
1
 10
16.306659
 20
4.291968
 30
0.0
 10
15.206677
 20
5.391949
 30
0.0
 10
15.461323
 20
6.520828
 30
0.0
 10
16.949717
 20
7.142717
 30
0.0
  0
SPLINE
  5
128
100
AcDbEntity
  8
Layer_1
 62
7
100
AcDbSpline
 70
8
 71
3
 72
8
 73
4
 74
0
 40
0
 40
0
 40
0
 40
0
 40
1
 40
1
 40
1
 40
1
 10
16.949717
 20
7.142717
 30
0.0
 10
17.680052
 20
7.447871
 30
0.0
 10
17.897971
 20
7.441641
 30
0.0
 10
18.775521
 20
7.090513
 30
0.0
  0
SPLINE
  5
129
100
AcDbEntity
  8
Layer_1
 62
7
100
AcDbSpline
 70
8
 71
3
 72
8
 73
4
 74
0
 40
0
 40
0
 40
0
 40
0
 40
1
 40
1
 40
1
 40
1
 10
18.775521
 20
7.090513
 30
0.0
 10
19.709271
 20
6.716902
 30
0.0
 10
19.833529
 20
6.719542
 30
0.0
 10
20.749235
 20
7.132467
 30
0.0
  0
SPLINE
  5
12a
100
AcDbEntity
  8
Layer_1
 62
7
100
AcDbSpline
 70
8
 71
3
 72
8
 73
4
 74
0
 40
0
 40
0
 40
0
 40
0
 40
1
 40
1
 40
1
 40
1
 10
20.749235
 20
7.132467
 30
0.0
 10
22.567570
 20
7.952421
 30
0.0
 10
23.831692
 20
9.868858
 30
0.0
 10
24.664474
 20
13.068049
 30
0.0
  0
SPLINE
  5
12b
100
AcDbEntity
  8
Layer_1
 62
7
100
AcDbSpline
 70
8
 71
3
 72
8
 73
4
 74
0
 40
0
 40
0
 40
0
 40
0
 40
1
 40
1
 40
1
 40
1
 10
24.664474
 20
13.068049
 30
0.0
 10
25.053273
 20
14.561654
 30
0.0
 10
25.198841
 20
16.282942
 30
0.0
 10
25.381054
 20
21.541370
 30
0.0
  0
SPLINE
  5
12c
100
AcDbEntity
  8
Layer_1
 62
7
100
AcDbSpline
 70
8
 71
3
 72
8
 73
4
 74
0
 40
0
 40
0
 40
0
 40
0
 40
1
 40
1
 40
1
 40
1
 10
25.381054
 20
21.541370
 30
0.0
 10
25.644225
 20
29.136094
 30
0.0
 10
25.948805
 20
31.020212
 30
0.0
 10
27.816266
 20
36.605443
 30
0.0
  0
SPLINE
  5
12d
100
AcDbEntity
  8
Layer_1
 62
7
100
AcDbSpline
 70
8
 71
3
 72
8
 73
4
 74
0
 40
0
 40
0
 40
0
 40
0
 40
1
 40
1
 40
1
 40
1
 10
27.816266
 20
36.605443
 30
0.0
 10
28.461880
 20
38.536361
 30
0.0
 10
28.948394
 20
40.158758
 30
0.0
 10
28.897404
 20
40.210767
 30
0.0
  0
SPLINE
  5
12e
100
AcDbEntity
  8
Layer_1
 62
7
100
AcDbSpline
 70
8
 71
3
 72
8
 73
4
 74
0
 40
0
 40
0
 40
0
 40
0
 40
1
 40
1
 40
1
 40
1
 10
28.897404
 20
40.210767
 30
0.0
 10
28.687369
 20
40.425009
 30
0.0
 10
24.077604
 20
30.663857
 30
0.0
 10
23.428527
 20
28.630445
 30
0.0
  0
SPLINE
  5
12f
100
AcDbEntity
  8
Layer_1
 62
7
100
AcDbSpline
 70
8
 71
3
 72
8
 73
4
 74
0
 40
0
 40
0
 40
0
 40
0
 40
1
 40
1
 40
1
 40
1
 10
23.428527
 20
28.630445
 30
0.0
 10
23.042118
 20
27.419916
 30
0.0
 10
22.271126
 20
24.339815
 30
0.0
 10
21.715209
 20
21.785775
 30
0.0
  0
SPLINE
  5
130
100
AcDbEntity
  8
Layer_1
 62
7
100
AcDbSpline
 70
8
 71
3
 72
8
 73
4
 74
0
 40
0
 40
0
 40
0
 40
0
 40
1
 40
1
 40
1
 40
1
 10
21.715209
 20
21.785775
 30
0.0
 10
19.745282
 20
12.735364
 30
0.0
 10
19.016718
 20
11.380331
 30
0.0
 10
15.800527
 20
10.785247
 30
0.0
  0
SPLINE
  5
131
100
AcDbEntity
  8
Layer_1
 62
7
100
AcDbSpline
 70
8
 71
3
 72
8
 73
4
 74
0
 40
0
 40
0
 40
0
 40
0
 40
1
 40
1
 40
1
 40
1
 10
15.800527
 20
10.785247
 30
0.0
 10
12.877869
 20
10.244476
 30
0.0
 10
9.482100
 20
12.617953
 30
0.0
 10
9.482100
 20
15.201523
 30
0.0
  0
SPLINE
  5
132
100
AcDbEntity
  8
Layer_1
 62
7
100
AcDbSpline
 70
8
 71
3
 72
8
 73
4
 74
0
 40
0
 40
0
 40
0
 40
0
 40
1
 40
1
 40
1
 40
1
 10
9.482100
 20
15.201523
 30
0.0
 10
9.482100
 20
15.554302
 30
0.0
 10
9.262134
 20
16.122580
 30
0.0
 10
8.993288
 20
16.464361
 30
0.0
  0
SPLINE
  5
133
100
AcDbEntity
  8
Layer_1
 62
7
100
AcDbSpline
 70
8
 71
3
 72
8
 73
4
 74
0
 40
0
 40
0
 40
0
 40
0
 40
1
 40
1
 40
1
 40
1
 10
8.993288
 20
16.464361
 30
0.0
 10
8.352669
 20
17.278777
 30
0.0
 10
8.374930
 20
18.064029
 30
0.0
 10
9.061258
 20
18.861930
 30
0.0
  0
SPLINE
  5
134
100
AcDbEntity
  8
Layer_1
 62
7
100
AcDbSpline
 70
8
 71
3
 72
8
 73
4
 74
0
 40
0
 40
0
 40
0
 40
0
 40
1
 40
1
 40
1
 40
1
 10
9.061258
 20
18.861930
 30
0.0
 10
10.247180
 20
20.240647
 30
0.0
 10
12.659374
 20
19.402676
 30
0.0
 10
12.659374
 20
17.611981
 30
0.0
  0
SPLINE
  5
135
100
AcDbEntity
  8
Layer_1
 62
7
100
AcDbSpline
 70
8
 71
3
 72
8
 73
4
 74
0
 40
0
 40
0
 40
0
 40
0
 40
1
 40
1
 40
1
 40
1
 10
12.659374
 20
17.611981
 30
0.0
 10
12.659374
 20
16.998293
 30
0.0
 10
12.461992
 20
16.664525
 30
0.0
 10
11.771473
 20
16.110572
 30
0.0
  0
SPLINE
  5
136
100
AcDbEntity
  8
Layer_1
 62
7
100
AcDbSpline
 70
8
 71
3
 72
8
 73
4
 74
0
 40
0
 40
0
 40
0
 40
0
 40
1
 40
1
 40
1
 40
1
 10
11.771473
 20
16.110572
 30
0.0
 10
10.953184
 20
15.454118
 30
0.0
 10
10.907674
 20
15.351661
 30
0.0
 10
11.191000
 20
14.803735
 30
0.0
  0
SPLINE
  5
137
100
AcDbEntity
  8
Layer_1
 62
7
100
AcDbSpline
 70
8
 71
3
 72
8
 73
4
 74
0
 40
0
 40
0
 40
0
 40
0
 40
1
 40
1
 40
1
 40
1
 10
11.191000
 20
14.803735
 30
0.0
 10
12.062030
 20
13.119246
 30
0.0
 10
13.607879
 20
12.396446
 30
0.0
 10
15.341226
 20
12.863188
 30
0.0
  0
SPLINE
  5
138
100
AcDbEntity
  8
Layer_1
 62
7
100
AcDbSpline
 70
8
 71
3
 72
8
 73
4
 74
0
 40
0
 40
0
 40
0
 40
0
 40
1
 40
1
 40
1
 40
1
 10
15.341226
 20
12.863188
 30
0.0
 10
17.267690
 20
13.381928
 30
0.0
 10
18.104310
 20
15.268365
 30
0.0
 10
19.256163
 20
21.690694
 30
0.0
  0
SPLINE
  5
139
100
AcDbEntity
  8
Layer_1
 62
7
100
AcDbSpline
 70
8
 71
3
 72
8
 73
4
 74
0
 40
0
 40
0
 40
0
 40
0
 40
1
 40
1
 40
1
 40
1
 10
19.256163
 20
21.690694
 30
0.0
 10
20.473611
 20
28.478770
 30
0.0
 10
21.506566
 20
32.518112
 30
0.0
 10
23.087516
 20
36.673102
 30
0.0
  0
SPLINE
  5
13a
100
AcDbEntity
  8
Layer_1
 62
7
100
AcDbSpline
 70
8
 71
3
 72
8
 73
4
 74
0
 40
0
 40
0
 40
0
 40
0
 40
1
 40
1
 40
1
 40
1
 10
23.087516
 20
36.673102
 30
0.0
 10
23.543357
 20
37.871127
 30
0.0
 10
23.883999
 20
38.948287
 30
0.0
 10
23.844497
 20
39.066795
 30
0.0
  0
SPLINE
  5
13b
100
AcDbEntity
  8
Layer_1
 62
7
100
AcDbSpline
 70
8
 71
3
 72
8
 73
4
 74
0
 40
0
 40
0
 40
0
 40
0
 40
1
 40
1
 40
1
 40
1
 10
23.844497
 20
39.066795
 30
0.0
 10
23.804996
 20
39.185299
 30
0.0
 10
23.198575
 20
38.456457
 30
0.0
 10
22.496896
 20
37.447142
 30
0.0
  0
SPLINE
  5
13c
100
AcDbEntity
  8
Layer_1
 62
7
100
AcDbSpline
 70
8
 71
3
 72
8
 73
4
 74
0
 40
0
 40
0
 40
0
 40
0
 40
1
 40
1
 40
1
 40
1
 10
22.496896
 20
37.447142
 30
0.0
 10
20.467900
 20
34.528579
 30
0.0
 10
17.696498
 20
32.690223
 30
0.0
 10
12.477690
 20
30.801091
 30
0.0
  0
SPLINE
  5
13d
100
AcDbEntity
  8
Layer_1
 62
7
100
AcDbSpline
 70
8
 71
3
 72
8
 73
4
 74
0
 40
0
 40
0
 40
0
 40
0
 40
1
 40
1
 40
1
 40
1
 10
12.477690
 20
30.801091
 30
0.0
 10
8.541196
 20
29.376140
 30
0.0
 10
7.131903
 20
28.395423
 30
0.0
 10
6.200646
 20
26.432945
 30
0.0
  0
SPLINE
  5
13e
100
AcDbEntity
  8
Layer_1
 62
7
100
AcDbSpline
 70
8
 71
3
 72
8
 73
4
 74
0
 40
0
 40
0
 40
0
 40
0
 40
1
 40
1
 40
1
 40
1
 10
6.200646
 20
26.432945
 30
0.0
 10
4.977414
 20
23.855176
 30
0.0
 10
7.249501
 20
21.269229
 30
0.0
 10
9.312105
 20
22.891675
 30
0.0
  0
SPLINE
  5
13f
100
AcDbEntity
  8
Layer_1
 62
7
100
AcDbSpline
 70
8
 71
3
 72
8
 73
4
 74
0
 40
0
 40
0
 40
0
 40
0
 40
1
 40
1
 40
1
 40
1
 10
9.312105
 20
22.891675
 30
0.0
 10
9.858156
 20
23.321198
 30
0.0
 10
9.909663
 20
23.477166
 30
0.0
 10
9.702095
 20
24.072597
 30
0.0
  0
SPLINE
  5
140
100
AcDbEntity
  8
Layer_1
 62
7
100
AcDbSpline
 70
8
 71
3
 72
8
 73
4
 74
0
 40
0
 40
0
 40
0
 40
0
 40
1
 40
1
 40
1
 40
1
 10
9.702095
 20
24.072597
 30
0.0
 10
9.155385
 20
25.640889
 30
0.0
 10
10.755823
 20
27.093446
 30
0.0
 10
12.399259
 20
26.520540
 30
0.0
  0
SPLINE
  5
141
100
AcDbEntity
  8
Layer_1
 62
7
100
AcDbSpline
 70
8
 71
3
 72
8
 73
4
 74
0
 40
0
 40
0
 40
0
 40
0
 40
1
 40
1
 40
1
 40
1
 10
12.399259
 20
26.520540
 30
0.0
 10
13.787344
 20
26.036651
 30
0.0
 10
14.120882
 20
24.279324
 30
0.0
 10
12.993022
 20
23.392152
 30
0.0
  0
SPLINE
  5
142
100
AcDbEntity
  8
Layer_1
 62
7
100
AcDbSpline
 70
8
 71
3
 72
8
 73
4
 74
0
 40
0
 40
0
 40
0
 40
0
 40
1
 40
1
 40
1
 40
1
 10
12.993022
 20
23.392152
 30
0.0
 10
12.638836
 20
23.113548
 30
0.0
 10
12.244911
 20
22.885601
 30
0.0
 10
12.117634
 20
22.885601
 30
0.0
  0
SPLINE
  5
143
100
AcDbEntity
  8
Layer_1
 62
7
100
AcDbSpline
 70
8
 71
3
 72
8
 73
4
 74
0
 40
0
 40
0
 40
0
 40
0
 40
1
 40
1
 40
1
 40
1
 10
12.117634
 20
22.885601
 30
0.0
 10
11.990356
 20
22.885601
 30
0.0
 10
11.427779
 20
22.515202
 30
0.0
 10
10.867463
 20
22.062489
 30
0.0
  0
SPLINE
  5
144
100
AcDbEntity
  8
Layer_1
 62
7
100
AcDbSpline
 70
8
 71
3
 72
8
 73
4
 74
0
 40
0
 40
0
 40
0
 40
0
 40
1
 40
1
 40
1
 40
1
 10
10.867463
 20
22.062489
 30
0.0
 10
9.438350
 20
20.907826
 30
0.0
 10
8.931329
 20
20.685950
 30
0.0
 10
7.721860
 20
20.685950
 30
0.0
  0
SPLINE
  5
145
100
AcDbEntity
  8
Layer_1
 62
7
100
AcDbSpline
 70
8
 71
3
 72
8
 73
4
 74
0
 40
0
 40
0
 40
0
 40
0
 40
1
 40
1
 40
1
 40
1
 10
7.721860
 20
20.685950
 30
0.0
 10
4.529550
 20
20.685950
 30
0.0
 10
2.872033
 20
24.590409
 30
0.0
 10
4.557334
 20
28.140324
 30
0.0
  0
SPLINE
  5
146
100
AcDbEntity
  8
Layer_1
 62
7
100
AcDbSpline
 70
8
 71
3
 72
8
 73
4
 74
0
 40
0
 40
0
 40
0
 40
0
 40
1
 40
1
 40
1
 40
1
 10
4.557334
 20
28.140324
 30
0.0
 10
5.774235
 20
30.703602
 30
0.0
 10
7.085724
 20
31.641693
 30
0.0
 10
12.781576
 20
34.023028
 30
0.0
  0
SPLINE
  5
147
100
AcDbEntity
  8
Layer_1
 62
7
100
AcDbSpline
 70
8
 71
3
 72
8
 73
4
 74
0
 40
0
 40
0
 40
0
 40
0
 40
1
 40
1
 40
1
 40
1
 10
12.781576
 20
34.023028
 30
0.0
 10
13.991385
 20
34.528828
 30
0.0
 10
15.531142
 20
35.293466
 30
0.0
 10
16.203256
 20
35.722226
 30
0.0
  0
SPLINE
  5
148
100
AcDbEntity
  8
Layer_1
 62
7
100
AcDbSpline
 70
8
 71
3
 72
8
 73
4
 74
0
 40
0
 40
0
 40
0
 40
0
 40
1
 40
1
 40
1
 40
1
 10
16.203256
 20
35.722226
 30
0.0
 10
19.106598
 20
37.574341
 30
0.0
 10
21.855462
 20
41.355590
 30
0.0
 10
25.389199
 20
48.358120
 30
0.0
  0
LINE
  5
149
100
AcDbEntity
  8
Layer_1
 62
7
100
AcDbLine
 10
25.389199
 20
48.358120
 30
0.0
 11
27.609972
 21
52.758853
 31
0.0
  0
LINE
  5
14a
100
AcDbEntity
  8
Layer_1
 62
7
100
AcDbLine
 10
27.609972
 20
52.758853
 30
0.0
 11
26.813764
 21
53.580332
 31
0.0
  0
LINE
  5
14b
100
AcDbEntity
  8
Layer_1
 62
7
100
AcDbLine
 10
26.813764
 20
53.580332
 30
0.0
 11
26.017556
 21
54.401808
 31
0.0
  0
LINE
  5
14c
100
AcDbEntity
  8
Layer_1
 62
7
100
AcDbLine
 10
26.017556
 20
54.401808
 30
0.0
 11
25.201339
 21
53.897360
 31
0.0
  0
LINE
  5
14d
100
AcDbEntity
  8
Layer_1
 62
7
100
AcDbLine
 10
25.201339
 20
53.897360
 30
0.0
 11
24.385123
 21
53.392909
 31
0.0
  0
LINE
  5
14e
100
AcDbEntity
  8
Layer_1
 62
7
100
AcDbLine
 10
24.385123
 20
53.392909
 30
0.0
 11
22.982653
 21
54.613682
 31
0.0
  0
SPLINE
  5
14f
100
AcDbEntity
  8
Layer_1
 62
7
100
AcDbSpline
 70
8
 71
3
 72
8
 73
4
 74
0
 40
0
 40
0
 40
0
 40
0
 40
1
 40
1
 40
1
 40
1
 10
22.982653
 20
54.613682
 30
0.0
 10
22.211294
 20
55.285106
 30
0.0
 10
21.280488
 20
56.150377
 30
0.0
 10
20.914193
 20
56.536506
 30
0.0
  0
LINE
  5
150
100
AcDbEntity
  8
Layer_1
 62
7
100
AcDbLine
 10
20.914193
 20
56.536506
 30
0.0
 11
20.248204
 21
57.238562
 31
0.0
  0
LINE
  5
151
100
AcDbEntity
  8
Layer_1
 62
7
100
AcDbLine
 10
20.248204
 20
57.238562
 30
0.0
 11
21.708028
 21
59.309030
 31
0.0
  0
SPLINE
  5
152
100
AcDbEntity
  8
Layer_1
 62
7
100
AcDbSpline
 70
8
 71
3
 72
8
 73
4
 74
0
 40
0
 40
0
 40
0
 40
0
 40
1
 40
1
 40
1
 40
1
 10
21.708028
 20
59.309030
 30
0.0
 10
22.510932
 20
60.447790
 30
0.0
 10
23.162928
 20
61.489484
 30
0.0
 10
23.156910
 20
61.623907
 30
0.0
  0
SPLINE
  5
153
100
AcDbEntity
  8
Layer_1
 62
7
100
AcDbSpline
 70
8
 71
3
 72
8
 73
4
 74
0
 40
0
 40
0
 40
0
 40
0
 40
1
 40
1
 40
1
 40
1
 10
23.156910
 20
61.623907
 30
0.0
 10
23.150897
 20
61.758330
 30
0.0
 10
22.787526
 20
62.748173
 30
0.0
 10
22.349429
 20
63.823559
 30
0.0
  0
LINE
  5
154
100
AcDbEntity
  8
Layer_1
 62
7
100
AcDbLine
 10
22.349429
 20
63.823559
 30
0.0
 11
21.552890
 21
65.778805
 31
0.0
  0
LINE
  5
155
100
AcDbEntity
  8
Layer_1
 62
7
100
AcDbLine
 10
21.552890
 20
65.778805
 30
0.0
 11
19.489088
 21
66.206231
 31
0.0
  0
SPLINE
  5
156
100
AcDbEntity
  8
Layer_1
 62
7
100
AcDbSpline
 70
8
 71
3
 72
8
 73
4
 74
0
 40
0
 40
0
 40
0
 40
0
 40
1
 40
1
 40
1
 40
1
 10
19.489088
 20
66.206231
 30
0.0
 10
18.353997
 20
66.441315
 30
0.0
 10
17.177824
 20
66.690871
 30
0.0
 10
16.875372
 20
66.760801
 30
0.0
  0
SPLINE
  5
157
100
AcDbEntity
  8
Layer_1
 62
7
100
AcDbSpline
 70
8
 71
3
 72
8
 73
4
 74
0
 40
0
 40
0
 40
0
 40
0
 40
1
 40
1
 40
1
 40
1
 10
16.875372
 20
66.760801
 30
0.0
 10
16.344816
 20
66.883468
 30
0.0
 10
16.325460
 20
66.985695
 30
0.0
 10
16.325460
 20
69.665091
 30
0.0
  0
LINE
  5
158
100
AcDbEntity
  8
Layer_1
 62
7
100
AcDbLine
 10
16.325460
 20
69.665091
 30
0.0
 11
16.325460
 21
72.442241
 31
0.0
  0
LINE
  5
159
100
AcDbEntity
  8
Layer_1
 62
7
100
AcDbLine
 10
16.325460
 20
72.442241
 30
0.0
 11
18.708415
 21
72.867076
 31
0.0
  0
SPLINE
  5
15a
100
AcDbEntity
  8
Layer_1
 62
7
100
AcDbSpline
 70
8
 71
3
 72
8
 73
4
 74
0
 40
0
 40
0
 40
0
 40
0
 40
1
 40
1
 40
1
 40
1
 10
18.708415
 20
72.867076
 30
0.0
 10
21.526738
 20
73.369529
 30
0.0
 10
21.819271
 20
73.499336
 30
0.0
 10
22.138123
 20
74.388947
 30
0.0
  0
SPLINE
  5
15b
100
AcDbEntity
  8
Layer_1
 62
7
100
AcDbSpline
 70
8
 71
3
 72
8
 73
4
 74
0
 40
0
 40
0
 40
0
 40
0
 40
1
 40
1
 40
1
 40
1
 10
22.138123
 20
74.388947
 30
0.0
 10
22.271634
 20
74.761447
 30
0.0
 10
22.600247
 20
75.616135
 30
0.0
 10
22.868376
 20
76.288250
 30
0.0
  0
LINE
  5
15c
100
AcDbEntity
  8
Layer_1
 62
7
100
AcDbLine
 10
22.868376
 20
76.288250
 30
0.0
 11
23.355880
 21
77.510278
 31
0.0
  0
LINE
  5
15d
100
AcDbEntity
  8
Layer_1
 62
7
100
AcDbLine
 10
23.355880
 20
77.510278
 30
0.0
 11
21.787954
 21
79.696823
 31
0.0
  0
LINE
  5
15e
100
AcDbEntity
  8
Layer_1
 62
7
100
AcDbLine
 10
21.787954
 20
79.696823
 30
0.0
 11
20.220029
 21
81.883366
 31
0.0
  0
LINE
  5
15f
100
AcDbEntity
  8
Layer_1
 62
7
100
AcDbLine
 10
20.220029
 20
81.883366
 30
0.0
 11
22.220371
 21
83.894155
 31
0.0
  0
LINE
  5
160
100
AcDbEntity
  8
Layer_1
 62
7
100
AcDbLine
 10
22.220371
 20
83.894155
 30
0.0
 11
24.220715
 21
85.904943
 31
0.0
  0
LINE
  5
161
100
AcDbEntity
  8
Layer_1
 62
7
100
AcDbLine
 10
24.220715
 20
85.904943
 30
0.0
 11
26.373855
 21
84.457176
 31
0.0
  0
SPLINE
  5
162
100
AcDbEntity
  8
Layer_1
 62
7
100
AcDbSpline
 70
8
 71
3
 72
8
 73
4
 74
0
 40
0
 40
0
 40
0
 40
0
 40
1
 40
1
 40
1
 40
1
 10
26.373855
 20
84.457176
 30
0.0
 10
27.558081
 20
83.660903
 30
0.0
 10
28.695030
 20
83.009408
 30
0.0
 10
28.900408
 20
83.009408
 30
0.0
  0
SPLINE
  5
163
100
AcDbEntity
  8
Layer_1
 62
7
100
AcDbSpline
 70
8
 71
3
 72
8
 73
4
 74
0
 40
0
 40
0
 40
0
 40
0
 40
1
 40
1
 40
1
 40
1
 10
28.900408
 20
83.009408
 30
0.0
 10
29.105784
 20
83.009408
 30
0.0
 10
29.998319
 20
83.299444
 30
0.0
 10
30.883819
 20
83.653934
 30
0.0
  0
SPLINE
  5
164
100
AcDbEntity
  8
Layer_1
 62
7
100
AcDbSpline
 70
8
 71
3
 72
8
 73
4
 74
0
 40
0
 40
0
 40
0
 40
0
 40
1
 40
1
 40
1
 40
1
 10
30.883819
 20
83.653934
 30
0.0
 10
32.707587
 20
84.384038
 30
0.0
 10
32.786272
 20
84.328259
 30
0.0
 10
33.305929
 20
87.592015
 30
0.0
  0
LINE
  5
165
100
AcDbEntity
  8
Layer_1
 62
7
100
AcDbLine
 10
33.305929
 20
87.592015
 30
0.0
 11
34.106152
 21
92.617902
 31
0.0
  0
SPLINE
  5
166
100
AcDbEntity
  8
Layer_1
 62
7
100
AcDbSpline
 70
8
 71
3
 72
8
 73
4
 74
0
 40
0
 40
0
 40
0
 40
0
 40
1
 40
1
 40
1
 40
1
 10
34.106152
 20
92.617902
 30
0.0
 10
35.930210
 20
92.453276
 30
0.0
 10
37.347670
 20
91.018133
 30
0.0
 10
39.149119
 20
90.720578
 30
0.0
  0
SPLINE
  5
167
100
AcDbEntity
  8
Layer_1
 62
7
100
AcDbSpline
 70
8
 71
3
 72
8
 73
4
 74
0
 40
0
 40
0
 40
0
 40
0
 40
1
 40
1
 40
1
 40
1
 10
39.149119
 20
90.720578
 30
0.0
 10
39.153245
 20
90.379330
 30
0.0
 10
40.321035
 20
84.594966
 30
0.0
 10
40.406176
 20
84.509824
 30
0.0
  0
SPLINE
  5
168
100
AcDbEntity
  8
Layer_1
 62
7
100
AcDbSpline
 70
8
 71
3
 72
8
 73
4
 74
0
 40
0
 40
0
 40
0
 40
0
 40
1
 40
1
 40
1
 40
1
 10
40.406176
 20
84.509824
 30
0.0
 10
40.622523
 20
84.293476
 30
0.0
 10
43.808491
 20
83.009408
 30
0.0
 10
44.128934
 20
83.009408
 30
0.0
  0
SPLINE
  5
169
100
AcDbEntity
  8
Layer_1
 62
7
100
AcDbSpline
 70
8
 71
3
 72
8
 73
4
 74
0
 40
0
 40
0
 40
0
 40
0
 40
1
 40
1
 40
1
 40
1
 10
44.128934
 20
83.009408
 30
0.0
 10
44.305998
 20
83.009408
 30
0.0
 10
45.450739
 20
83.681718
 30
0.0
 10
46.672802
 20
84.503433
 30
0.0
  0
LINE
  5
16a
100
AcDbEntity
  8
Layer_1
 62
7
100
AcDbLine
 10
46.672802
 20
84.503433
 30
0.0
 11
48.894737
 21
85.997459
 31
0.0
  0
LINE
  5
16b
100
AcDbEntity
  8
Layer_1
 62
7
100
AcDbLine
 10
48.894737
 20
85.997459
 30
0.0
 11
50.856016
 21
84.036180
 31
0.0
  0
LINE
  5
16c
100
AcDbEntity
  8
Layer_1
 62
7
100
AcDbLine
 10
50.856016
 20
84.036180
 30
0.0
 11
52.817294
 21
82.074903
 31
0.0
  0
LINE
  5
16d
100
AcDbEntity
  8
Layer_1
 62
7
100
AcDbLine
 10
52.817294
 20
82.074903
 30
0.0
 11
51.299813
 21
79.708782
 31
0.0
  0
LINE
  5
16e
100
AcDbEntity
  8
Layer_1
 62
7
100
AcDbLine
 10
51.299813
 20
79.708782
 30
0.0
 11
49.782335
 21
77.342663
 31
0.0
  0
LINE
  5
16f
100
AcDbEntity
  8
Layer_1
 62
7
100
AcDbLine
 10
49.782335
 20
77.342663
 30
0.0
 11
50.556924
 21
75.471225
 31
0.0
  0
SPLINE
  5
170
100
AcDbEntity
  8
Layer_1
 62
7
100
AcDbSpline
 70
8
 71
3
 72
8
 73
4
 74
0
 40
0
 40
0
 40
0
 40
0
 40
1
 40
1
 40
1
 40
1
 10
50.556924
 20
75.471225
 30
0.0
 10
50.982950
 20
74.441934
 30
0.0
 10
51.368385
 20
73.559476
 30
0.0
 10
51.413444
 20
73.510207
 30
0.0
  0
SPLINE
  5
171
100
AcDbEntity
  8
Layer_1
 62
7
100
AcDbSpline
 70
8
 71
3
 72
8
 73
4
 74
0
 40
0
 40
0
 40
0
 40
0
 40
1
 40
1
 40
1
 40
1
 10
51.413444
 20
73.510207
 30
0.0
 10
51.458505
 20
73.460937
 30
0.0
 10
52.612552
 20
73.219967
 30
0.0
 10
53.977996
 20
72.974716
 30
0.0
  0
SPLINE
  5
172
100
AcDbEntity
  8
Layer_1
 62
7
100
AcDbSpline
 70
8
 71
3
 72
8
 73
4
 74
0
 40
0
 40
0
 40
0
 40
0
 40
1
 40
1
 40
1
 40
1
 10
53.977996
 20
72.974716
 30
0.0
 10
55.343442
 20
72.729465
 30
0.0
 10
56.510823
 20
72.478605
 30
0.0
 10
56.572179
 20
72.417248
 30
0.0
  0
SPLINE
  5
173
100
AcDbEntity
  8
Layer_1
 62
7
100
AcDbSpline
 70
8
 71
3
 72
8
 73
4
 74
0
 40
0
 40
0
 40
0
 40
0
 40
1
 40
1
 40
1
 40
1
 10
56.572179
 20
72.417248
 30
0.0
 10
56.633535
 20
72.355892
 30
0.0
 10
56.748007
 20
71.087416
 30
0.0
 10
56.826557
 20
69.598414
 30
0.0
  0
SPLINE
  5
174
100
AcDbEntity
  8
Layer_1
 62
7
100
AcDbSpline
 70
8
 71
3
 72
8
 73
4
 74
0
 40
0
 40
0
 40
0
 40
0
 40
1
 40
1
 40
1
 40
1
 10
56.826557
 20
69.598414
 30
0.0
 10
56.942412
 20
67.402277
 30
0.0
 10
56.904847
 20
66.870603
 30
0.0
 10
56.627586
 20
66.782381
 30
0.0
  0
SPLINE
  5
175
100
AcDbEntity
  8
Layer_1
 62
7
100
AcDbSpline
 70
8
 71
3
 72
8
 73
4
 74
0
 40
0
 40
0
 40
0
 40
0
 40
1
 40
1
 40
1
 40
1
 10
56.627586
 20
66.782381
 30
0.0
 10
56.439601
 20
66.722567
 30
0.0
 10
55.240960
 20
66.493179
 30
0.0
 10
53.963940
 20
66.272633
 30
0.0
  0
LINE
  5
176
100
AcDbEntity
  8
Layer_1
 62
7
100
AcDbLine
 10
53.963940
 20
66.272633
 30
0.0
 11
51.642085
 21
65.871638
 31
0.0
  0
LINE
  5
177
100
AcDbEntity
  8
Layer_1
 62
7
100
AcDbLine
 10
51.642085
 20
65.871638
 30
0.0
 11
50.732640
 21
63.788975
 31
0.0
  0
LINE
  5
178
100
AcDbEntity
  8
Layer_1
 62
7
100
AcDbLine
 10
50.732640
 20
63.788975
 30
0.0
 11
49.823196
 21
61.706311
 31
0.0
  0
LINE
  5
179
100
AcDbEntity
  8
Layer_1
 62
7
100
AcDbLine
 10
49.823196
 20
61.706311
 30
0.0
 11
51.310146
 21
59.494901
 31
0.0
  0
LINE
  5
17a
100
AcDbEntity
  8
Layer_1
 62
7
100
AcDbLine
 10
51.310146
 20
59.494901
 30
0.0
 11
52.797093
 21
57.283489
 31
0.0
  0
LINE
  5
17b
100
AcDbEntity
  8
Layer_1
 62
7
100
AcDbLine
 10
52.797093
 20
57.283489
 30
0.0
 11
50.847251
 21
55.333647
 31
0.0
  0
SPLINE
  5
17c
100
AcDbEntity
  8
Layer_1
 62
7
100
AcDbSpline
 70
8
 71
3
 72
8
 73
4
 74
0
 40
0
 40
0
 40
0
 40
0
 40
1
 40
1
 40
1
 40
1
 10
50.847251
 20
55.333647
 30
0.0
 10
49.185092
 20
53.671488
 30
0.0
 10
48.828661
 20
53.420595
 30
0.0
 10
48.431467
 20
53.633166
 30
0.0
  0
SPLINE
  5
17d
100
AcDbEntity
  8
Layer_1
 62
7
100
AcDbSpline
 70
8
 71
3
 72
8
 73
4
 74
0
 40
0
 40
0
 40
0
 40
0
 40
1
 40
1
 40
1
 40
1
 10
48.431467
 20
53.633166
 30
0.0
 10
48.042312
 20
53.841436
 30
0.0
 10
47.832321
 20
53.723866
 30
0.0
 10
47.157223
 20
52.919747
 30
0.0
  0
LINE
  5
17e
100
AcDbEntity
  8
Layer_1
 62
7
100
AcDbLine
 10
47.157223
 20
52.919747
 30
0.0
 11
46.348920
 21
51.956967
 31
0.0
  0
LINE
  5
17f
100
AcDbEntity
  8
Layer_1
 62
7
100
AcDbLine
 10
46.348920
 20
51.956967
 30
0.0
 11
48.657384
 21
48.725048
 31
0.0
  0
SPLINE
  5
180
100
AcDbEntity
  8
Layer_1
 62
7
100
AcDbSpline
 70
8
 71
3
 72
8
 73
4
 74
0
 40
0
 40
0
 40
0
 40
0
 40
1
 40
1
 40
1
 40
1
 10
48.657384
 20
48.725048
 30
0.0
 10
54.289002
 20
40.840613
 30
0.0
 10
58.712736
 20
35.865725
 30
0.0
 10
61.610339
 20
34.158282
 30
0.0
  0
SPLINE
  5
181
100
AcDbEntity
  8
Layer_1
 62
7
100
AcDbSpline
 70
8
 71
3
 72
8
 73
4
 74
0
 40
0
 40
0
 40
0
 40
0
 40
1
 40
1
 40
1
 40
1
 10
61.610339
 20
34.158282
 30
0.0
 10
65.870276
 20
31.648067
 30
0.0
 10
70.152093
 20
31.506252
 30
0.0
 10
73.561451
 20
33.762460
 30
0.0
  0
SPLINE
  5
182
100
AcDbEntity
  8
Layer_1
 62
7
100
AcDbSpline
 70
8
 71
3
 72
8
 73
4
 74
0
 40
0
 40
0
 40
0
 40
0
 40
1
 40
1
 40
1
 40
1
 10
73.561451
 20
33.762460
 30
0.0
 10
74.329953
 20
34.271031
 30
0.0
 10
74.494020
 20
34.521994
 30
0.0
 10
74.494020
 20
35.188953
 30
0.0
  0
SPLINE
  5
183
100
AcDbEntity
  8
Layer_1
 62
7
100
AcDbSpline
 70
8
 71
3
 72
8
 73
4
 74
0
 40
0
 40
0
 40
0
 40
0
 40
1
 40
1
 40
1
 40
1
 10
74.494020
 20
35.188953
 30
0.0
 10
74.494020
 20
37.003180
 30
0.0
 10
76.880036
 20
37.868295
 30
0.0
 10
78.069575
 20
36.485372
 30
0.0
  0
SPLINE
  5
184
100
AcDbEntity
  8
Layer_1
 62
7
100
AcDbSpline
 70
8
 71
3
 72
8
 73
4
 74
0
 40
0
 40
0
 40
0
 40
0
 40
1
 40
1
 40
1
 40
1
 10
78.069575
 20
36.485372
 30
0.0
 10
78.718196
 20
35.731304
 30
0.0
 10
78.770976
 20
35.396777
 30
0.0
 10
78.377561
 20
34.533323
 30
0.0
  0
SPLINE
  5
185
100
AcDbEntity
  8
Layer_1
 62
7
100
AcDbSpline
 70
8
 71
3
 72
8
 73
4
 74
0
 40
0
 40
0
 40
0
 40
0
 40
1
 40
1
 40
1
 40
1
 10
78.377561
 20
34.533323
 30
0.0
 10
78.088490
 20
33.898882
 30
0.0
 10
77.226698
 20
33.395047
 30
0.0
 10
76.430576
 20
33.395047
 30
0.0
  0
SPLINE
  5
186
100
AcDbEntity
  8
Layer_1
 62
7
100
AcDbSpline
 70
8
 71
3
 72
8
 73
4
 74
0
 40
0
 40
0
 40
0
 40
0
 40
1
 40
1
 40
1
 40
1
 10
76.430576
 20
33.395047
 30
0.0
 10
76.164101
 20
33.395047
 30
0.0
 10
75.399627
 20
32.963104
 30
0.0
 10
74.731746
 20
32.435176
 30
0.0
  0
SPLINE
  5
187
100
AcDbEntity
  8
Layer_1
 62
7
100
AcDbSpline
 70
8
 71
3
 72
8
 73
4
 74
0
 40
0
 40
0
 40
0
 40
0
 40
1
 40
1
 40
1
 40
1
 10
74.731746
 20
32.435176
 30
0.0
 10
72.604805
 20
30.753925
 30
0.0
 10
71.211756
 20
30.357021
 30
0.0
 10
67.406254
 20
30.348005
 30
0.0
  0
SPLINE
  5
188
100
AcDbEntity
  8
Layer_1
 62
7
100
AcDbSpline
 70
8
 71
3
 72
8
 73
4
 74
0
 40
0
 40
0
 40
0
 40
0
 40
1
 40
1
 40
1
 40
1
 10
67.406254
 20
30.348005
 30
0.0
 10
63.670451
 20
30.339161
 30
0.0
 10
60.963092
 20
30.832059
 30
0.0
 10
59.029889
 20
31.873008
 30
0.0
  0
SPLINE
  5
189
100
AcDbEntity
  8
Layer_1
 62
7
100
AcDbSpline
 70
8
 71
3
 72
8
 73
4
 74
0
 40
0
 40
0
 40
0
 40
0
 40
1
 40
1
 40
1
 40
1
 10
59.029889
 20
31.873008
 30
0.0
 10
57.545740
 20
32.672161
 30
0.0
 10
54.289237
 20
36.052595
 30
0.0
 10
52.266127
 20
38.894176
 30
0.0
  0
SPLINE
  5
18a
100
AcDbEntity
  8
Layer_1
 62
7
100
AcDbSpline
 70
8
 71
3
 72
8
 73
4
 74
0
 40
0
 40
0
 40
0
 40
0
 40
1
 40
1
 40
1
 40
1
 10
52.266127
 20
38.894176
 30
0.0
 10
51.404783
 20
40.103984
 30
0.0
 10
50.664546
 20
41.139653
 30
0.0
 10
50.621153
 20
41.195663
 30
0.0
  0
SPLINE
  5
18b
100
AcDbEntity
  8
Layer_1
 62
7
100
AcDbSpline
 70
8
 71
3
 72
8
 73
4
 74
0
 40
0
 40
0
 40
0
 40
0
 40
1
 40
1
 40
1
 40
1
 10
50.621153
 20
41.195663
 30
0.0
 10
50.577762
 20
41.251672
 30
0.0
 10
50.479105
 20
41.234346
 30
0.0
 10
50.401917
 20
41.157158
 30
0.0
  0
SPLINE
  5
18c
100
AcDbEntity
  8
Layer_1
 62
7
100
AcDbSpline
 70
8
 71
3
 72
8
 73
4
 74
0
 40
0
 40
0
 40
0
 40
0
 40
1
 40
1
 40
1
 40
1
 10
50.401917
 20
41.157158
 30
0.0
 10
50.249801
 20
41.005040
 30
0.0
 10
52.705595
 20
36.395484
 30
0.0
 10
54.128402
 20
34.162498
 30
0.0
  0
SPLINE
  5
18d
100
AcDbEntity
  8
Layer_1
 62
7
100
AcDbSpline
 70
8
 71
3
 72
8
 73
4
 74
0
 40
0
 40
0
 40
0
 40
0
 40
1
 40
1
 40
1
 40
1
 10
54.128402
 20
34.162498
 30
0.0
 10
56.652239
 20
30.201535
 30
0.0
 10
57.668248
 20
29.590159
 30
0.0
 10
63.495763
 20
28.525777
 30
0.0
  0
SPLINE
  5
18e
100
AcDbEntity
  8
Layer_1
 62
7
100
AcDbSpline
 70
8
 71
3
 72
8
 73
4
 74
0
 40
0
 40
0
 40
0
 40
0
 40
1
 40
1
 40
1
 40
1
 10
63.495763
 20
28.525777
 30
0.0
 10
68.388601
 20
27.632109
 30
0.0
 10
69.631283
 20
27.274063
 30
0.0
 10
71.122040
 20
26.328451
 30
0.0
  0
SPLINE
  5
18f
100
AcDbEntity
  8
Layer_1
 62
7
100
AcDbSpline
 70
8
 71
3
 72
8
 73
4
 74
0
 40
0
 40
0
 40
0
 40
0
 40
1
 40
1
 40
1
 40
1
 10
71.122040
 20
26.328451
 30
0.0
 10
73.205557
 20
25.006848
 30
0.0
 10
73.783880
 20
22.883066
 30
0.0
 10
72.691818
 20
20.563747
 30
0.0
  0
SPLINE
  5
190
100
AcDbEntity
  8
Layer_1
 62
7
100
AcDbSpline
 70
8
 71
3
 72
8
 73
4
 74
0
 40
0
 40
0
 40
0
 40
0
 40
1
 40
1
 40
1
 40
1
 10
72.691818
 20
20.563747
 30
0.0
 10
71.939156
 20
18.965245
 30
0.0
 10
71.083417
 20
18.083012
 30
0.0
 10
69.685988
 20
17.464863
 30
0.0
  0
SPLINE
  5
191
100
AcDbEntity
  8
Layer_1
 62
7
100
AcDbSpline
 70
8
 71
3
 72
8
 73
4
 74
0
 40
0
 40
0
 40
0
 40
0
 40
1
 40
1
 40
1
 40
1
 10
69.685988
 20
17.464863
 30
0.0
 10
67.308885
 20
16.413359
 30
0.0
 10
64.680788
 20
17.440350
 30
0.0
 10
63.576580
 20
19.852258
 30
0.0
  0
SPLINE
  5
192
100
AcDbEntity
  8
Layer_1
 62
7
100
AcDbSpline
 70
8
 71
3
 72
8
 73
4
 74
0
 40
0
 40
0
 40
0
 40
0
 40
1
 40
1
 40
1
 40
1
 10
63.576580
 20
19.852258
 30
0.0
 10
63.197419
 20
20.680458
 30
0.0
 10
62.716179
 20
21.312572
 30
0.0
 10
62.301606
 20
21.526957
 30
0.0
  0
SPLINE
  5
193
100
AcDbEntity
  8
Layer_1
 62
7
100
AcDbSpline
 70
8
 71
3
 72
8
 73
4
 74
0
 40
0
 40
0
 40
0
 40
0
 40
1
 40
1
 40
1
 40
1
 10
62.301606
 20
21.526957
 30
0.0
 10
60.952555
 20
22.224579
 30
0.0
 10
60.834302
 20
23.829668
 30
0.0
 10
62.068285
 20
24.693981
 30
0.0
  0
SPLINE
  5
194
100
AcDbEntity
  8
Layer_1
 62
7
100
AcDbSpline
 70
8
 71
3
 72
8
 73
4
 74
0
 40
0
 40
0
 40
0
 40
0
 40
1
 40
1
 40
1
 40
1
 10
62.068285
 20
24.693981
 30
0.0
 10
62.937457
 20
25.302774
 30
0.0
 10
63.924147
 20
25.183281
 30
0.0
 10
64.736591
 20
24.370836
 30
0.0
  0
SPLINE
  5
195
100
AcDbEntity
  8
Layer_1
 62
7
100
AcDbSpline
 70
8
 71
3
 72
8
 73
4
 74
0
 40
0
 40
0
 40
0
 40
0
 40
1
 40
1
 40
1
 40
1
 10
64.736591
 20
24.370836
 30
0.0
 10
65.571244
 20
23.536184
 30
0.0
 10
65.634004
 20
22.939759
 30
0.0
 10
64.975302
 20
22.102354
 30
0.0
  0
SPLINE
  5
196
100
AcDbEntity
  8
Layer_1
 62
7
100
AcDbSpline
 70
8
 71
3
 72
8
 73
4
 74
0
 40
0
 40
0
 40
0
 40
0
 40
1
 40
1
 40
1
 40
1
 10
64.975302
 20
22.102354
 30
0.0
 10
64.502109
 20
21.500783
 30
0.0
 10
64.502430
 20
21.493517
 30
0.0
 10
65.036404
 20
20.725668
 30
0.0
  0
SPLINE
  5
197
100
AcDbEntity
  8
Layer_1
 62
7
100
AcDbSpline
 70
8
 71
3
 72
8
 73
4
 74
0
 40
0
 40
0
 40
0
 40
0
 40
1
 40
1
 40
1
 40
1
 10
65.036404
 20
20.725668
 30
0.0
 10
66.639035
 20
18.421096
 30
0.0
 10
70.583529
 20
19.965747
 30
0.0
 10
70.583529
 20
22.897905
 30
0.0
  0
SPLINE
  5
198
100
AcDbEntity
  8
Layer_1
 62
7
100
AcDbSpline
 70
8
 71
3
 72
8
 73
4
 74
0
 40
0
 40
0
 40
0
 40
0
 40
1
 40
1
 40
1
 40
1
 10
70.583529
 20
22.897905
 30
0.0
 10
70.583529
 20
23.895175
 30
0.0
 10
69.319558
 20
25.190951
 30
0.0
 10
68.002507
 20
25.543875
 30
0.0
  0
SPLINE
  5
199
100
AcDbEntity
  8
Layer_1
 62
7
100
AcDbSpline
 70
8
 71
3
 72
8
 73
4
 74
0
 40
0
 40
0
 40
0
 40
0
 40
1
 40
1
 40
1
 40
1
 10
68.002507
 20
25.543875
 30
0.0
 10
67.472933
 20
25.685779
 30
0.0
 10
65.554881
 20
25.973112
 30
0.0
 10
63.740168
 20
26.182388
 30
0.0
  0
SPLINE
  5
19a
100
AcDbEntity
  8
Layer_1
 62
7
100
AcDbSpline
 70
8
 71
3
 72
8
 73
4
 74
0
 40
0
 40
0
 40
0
 40
0
 40
1
 40
1
 40
1
 40
1
 10
63.740168
 20
26.182388
 30
0.0
 10
58.125421
 20
26.829891
 30
0.0
 10
56.141626
 20
27.556768
 30
0.0
 10
54.135317
 20
29.701673
 30
0.0
  0
SPLINE
  5
19b
100
AcDbEntity
  8
Layer_1
 62
7
100
AcDbSpline
 70
8
 71
3
 72
8
 73
4
 74
0
 40
0
 40
0
 40
0
 40
0
 40
1
 40
1
 40
1
 40
1
 10
54.135317
 20
29.701673
 30
0.0
 10
52.973017
 20
30.944268
 30
0.0
 10
50.183507
 20
35.044969
 30
0.0
 10
49.060452
 20
37.161951
 30
0.0
  0
SPLINE
  5
19c
100
AcDbEntity
  8
Layer_1
 62
7
100
AcDbSpline
 70
8
 71
3
 72
8
 73
4
 74
0
 40
0
 40
0
 40
0
 40
0
 40
1
 40
1
 40
1
 40
1
 10
49.060452
 20
37.161951
 30
0.0
 10
48.491964
 20
38.233556
 30
0.0
 10
47.861989
 20
38.749957
 30
0.0
 10
48.214422
 20
37.855451
 30
0.0
  0
SPLINE
  5
19d
100
AcDbEntity
  8
Layer_1
 62
7
100
AcDbSpline
 70
8
 71
3
 72
8
 73
4
 74
0
 40
0
 40
0
 40
0
 40
0
 40
1
 40
1
 40
1
 40
1
 10
48.214422
 20
37.855451
 30
0.0
 10
48.307105
 20
37.620211
 30
0.0
 10
48.602333
 20
36.437898
 30
0.0
 10
48.870481
 20
35.228090
 30
0.0
  0
SPLINE
  5
19e
100
AcDbEntity
  8
Layer_1
 62
7
100
AcDbSpline
 70
8
 71
3
 72
8
 73
4
 74
0
 40
0
 40
0
 40
0
 40
0
 40
1
 40
1
 40
1
 40
1
 10
48.870481
 20
35.228090
 30
0.0
 10
49.311623
 20
33.237770
 30
0.0
 10
49.341669
 20
32.515309
 30
0.0
 10
49.186190
 20
27.636476
 30
0.0
  0
SPLINE
  5
19f
100
AcDbEntity
  8
Layer_1
 62
7
100
AcDbSpline
 70
8
 71
3
 72
8
 73
4
 74
0
 40
0
 40
0
 40
0
 40
0
 40
1
 40
1
 40
1
 40
1
 10
49.186190
 20
27.636476
 30
0.0
 10
49.036222
 20
22.930579
 30
0.0
 10
49.067665
 20
22.059840
 30
0.0
 10
49.433318
 20
20.793117
 30
0.0
  0
SPLINE
  5
1a0
100
AcDbEntity
  8
Layer_1
 62
7
100
AcDbSpline
 70
8
 71
3
 72
8
 73
4
 74
0
 40
0
 40
0
 40
0
 40
0
 40
1
 40
1
 40
1
 40
1
 10
49.433318
 20
20.793117
 30
0.0
 10
50.237926
 20
18.005719
 30
0.0
 10
51.459463
 20
16.778079
 30
0.0
 10
53.430094
 20
16.776372
 30
0.0
  0
SPLINE
  5
1a1
100
AcDbEntity
  8
Layer_1
 62
7
100
AcDbSpline
 70
8
 71
3
 72
8
 73
4
 74
0
 40
0
 40
0
 40
0
 40
0
 40
1
 40
1
 40
1
 40
1
 10
53.430094
 20
16.776372
 30
0.0
 10
54.623726
 20
16.775404
 30
0.0
 10
55.360178
 20
17.083960
 30
0.0
 10
55.974852
 20
17.842788
 30
0.0
  0
SPLINE
  5
1a2
100
AcDbEntity
  8
Layer_1
 62
7
100
AcDbSpline
 70
8
 71
3
 72
8
 73
4
 74
0
 40
0
 40
0
 40
0
 40
0
 40
1
 40
1
 40
1
 40
1
 10
55.974852
 20
17.842788
 30
0.0
 10
56.790559
 20
18.849793
 30
0.0
 10
56.335937
 20
21.174761
 30
0.0
 10
55.323322
 20
21.174761
 30
0.0
  0
SPLINE
  5
1a3
100
AcDbEntity
  8
Layer_1
 62
7
100
AcDbSpline
 70
8
 71
3
 72
8
 73
4
 74
0
 40
0
 40
0
 40
0
 40
0
 40
1
 40
1
 40
1
 40
1
 10
55.323322
 20
21.174761
 30
0.0
 10
53.978420
 20
21.174761
 30
0.0
 10
52.991247
 20
22.691186
 30
0.0
 10
53.586631
 20
23.842536
 30
0.0
  0
SPLINE
  5
1a4
100
AcDbEntity
  8
Layer_1
 62
7
100
AcDbSpline
 70
8
 71
3
 72
8
 73
4
 74
0
 40
0
 40
0
 40
0
 40
0
 40
1
 40
1
 40
1
 40
1
 10
53.586631
 20
23.842536
 30
0.0
 10
54.718921
 20
26.032142
 30
0.0
 10
58.051239
 20
24.846372
 30
0.0
 10
57.412373
 20
22.481188
 30
0.0
  0
SPLINE
  5
1a5
100
AcDbEntity
  8
Layer_1
 62
7
100
AcDbSpline
 70
8
 71
3
 72
8
 73
4
 74
0
 40
0
 40
0
 40
0
 40
0
 40
1
 40
1
 40
1
 40
1
 10
57.412373
 20
22.481188
 30
0.0
 10
57.274594
 20
21.971111
 30
0.0
 10
57.375636
 20
21.460090
 30
0.0
 10
57.791499
 20
20.563747
 30
0.0
  0
SPLINE
  5
1a6
100
AcDbEntity
  8
Layer_1
 62
7
100
AcDbSpline
 70
8
 71
3
 72
8
 73
4
 74
0
 40
0
 40
0
 40
0
 40
0
 40
1
 40
1
 40
1
 40
1
 10
57.791499
 20
20.563747
 30
0.0
 10
58.633110
 20
18.749760
 30
0.0
 10
58.566584
 20
17.268467
 30
0.0
 10
57.593746
 20
16.160462
 30
0.0
  0
SPLINE
  5
1a7
100
AcDbEntity
  8
Layer_1
 62
7
100
AcDbSpline
 70
8
 71
3
 72
8
 73
4
 74
0
 40
0
 40
0
 40
0
 40
0
 40
1
 40
1
 40
1
 40
1
 10
57.593746
 20
16.160462
 30
0.0
 10
56.668352
 20
15.106500
 30
0.0
 10
55.859729
 20
14.662727
 30
0.0
 10
54.226319
 20
14.312423
 30
0.0
  0
SPLINE
  5
1a8
100
AcDbEntity
  8
Layer_1
 62
7
100
AcDbSpline
 70
8
 71
3
 72
8
 73
4
 74
0
 40
0
 40
0
 40
0
 40
0
 40
1
 40
1
 40
1
 40
1
 10
54.226319
 20
14.312423
 30
0.0
 10
51.545221
 20
13.737432
 30
0.0
 10
48.840196
 20
15.359887
 30
0.0
 10
47.279825
 20
18.478886
 30
0.0
  0
SPLINE
  5
1a9
100
AcDbEntity
  8
Layer_1
 62
7
100
AcDbSpline
 70
8
 71
3
 72
8
 73
4
 74
0
 40
0
 40
0
 40
0
 40
0
 40
1
 40
1
 40
1
 40
1
 10
47.279825
 20
18.478886
 30
0.0
 10
46.046062
 20
20.945034
 30
0.0
 10
45.757231
 20
22.957628
 30
0.0
 10
46.055846
 20
27.007692
 30
0.0
  0
SPLINE
  5
1aa
100
AcDbEntity
  8
Layer_1
 62
7
100
AcDbSpline
 70
8
 71
3
 72
8
 73
4
 74
0
 40
0
 40
0
 40
0
 40
0
 40
1
 40
1
 40
1
 40
1
 10
46.055846
 20
27.007692
 30
0.0
 10
46.456295
 20
32.438891
 30
0.0
 10
46.019642
 20
35.232792
 30
0.0
 10
44.026249
 20
39.994001
 30
0.0
  0
SPLINE
  5
1ab
100
AcDbEntity
  8
Layer_1
 62
7
100
AcDbSpline
 70
8
 71
3
 72
8
 73
4
 74
0
 40
0
 40
0
 40
0
 40
0
 40
1
 40
1
 40
1
 40
1
 10
44.026249
 20
39.994001
 30
0.0
 10
43.004533
 20
42.434371
 30
0.0
 10
42.345949
 20
43.627271
 30
0.0
 10
42.147038
 20
43.397840
 30
0.0
  0
SPLINE
  5
1ac
100
AcDbEntity
  8
Layer_1
 62
7
100
AcDbSpline
 70
8
 71
3
 72
8
 73
4
 74
0
 40
0
 40
0
 40
0
 40
0
 40
1
 40
1
 40
1
 40
1
 10
42.147038
 20
43.397840
 30
0.0
 10
42.097275
 20
43.340441
 30
0.0
 10
42.201991
 20
42.138662
 30
0.0
 10
42.379739
 20
40.727219
 30
0.0
  0
SPLINE
  5
1ad
100
AcDbEntity
  8
Layer_1
 62
7
100
AcDbSpline
 70
8
 71
3
 72
8
 73
4
 74
0
 40
0
 40
0
 40
0
 40
0
 40
1
 40
1
 40
1
 40
1
 10
42.379739
 20
40.727219
 30
0.0
 10
42.557488
 20
39.315775
 30
0.0
 10
42.707051
 20
35.766919
 30
0.0
 10
42.712097
 20
32.840869
 30
0.0
  0
SPLINE
  5
1ae
100
AcDbEntity
  8
Layer_1
 62
7
100
AcDbSpline
 70
8
 71
3
 72
8
 73
4
 74
0
 40
0
 40
0
 40
0
 40
0
 40
1
 40
1
 40
1
 40
1
 10
42.712097
 20
32.840869
 30
0.0
 10
42.719791
 20
28.376980
 30
0.0
 10
42.803925
 20
27.137965
 30
0.0
 10
43.234815
 20
25.142089
 30
0.0
  0
SPLINE
  5
1af
100
AcDbEntity
  8
Layer_1
 62
7
100
AcDbSpline
 70
8
 71
3
 72
8
 73
4
 74
0
 40
0
 40
0
 40
0
 40
0
 40
1
 40
1
 40
1
 40
1
 10
43.234815
 20
25.142089
 30
0.0
 10
43.991918
 20
21.635214
 30
0.0
 10
45.204268
 20
17.785719
 30
0.0
 10
47.409233
 20
11.887345
 30
0.0
  0
SPLINE
  5
1b0
100
AcDbEntity
  8
Layer_1
 62
7
100
AcDbSpline
 70
8
 71
3
 72
8
 73
4
 74
0
 40
0
 40
0
 40
0
 40
0
 40
1
 40
1
 40
1
 40
1
 10
47.409233
 20
11.887345
 30
0.0
 10
49.679632
 20
5.813918
 30
0.0
 10
49.916234
 20
4.506056
 30
0.0
 10
49.022075
 20
2.972047
 30
0.0
  0
SPLINE
  5
1b1
100
AcDbEntity
  8
Layer_1
 62
7
100
AcDbSpline
 70
8
 71
3
 72
8
 73
4
 74
0
 40
0
 40
0
 40
0
 40
0
 40
1
 40
1
 40
1
 40
1
 10
49.022075
 20
2.972047
 30
0.0
 10
48.617247
 20
2.277527
 30
0.0
 10
48.048696
 20
1.791919
 30
0.0
 10
47.031030
 20
1.271464
 30
0.0
  0
SPLINE
  5
1b2
100
AcDbEntity
  8
Layer_1
 62
7
100
AcDbSpline
 70
8
 71
3
 72
8
 73
4
 74
0
 40
0
 40
0
 40
0
 40
0
 40
1
 40
1
 40
1
 40
1
 10
47.031030
 20
1.271464
 30
0.0
 10
45.813532
 20
0.648813
 30
0.0
 10
45.281656
 20
0.531873
 30
0.0
 10
43.369626
 20
0.466457
 30
0.0
  0
SPLINE
  5
1b3
100
AcDbEntity
  8
Layer_1
 62
7
100
AcDbSpline
 70
8
 71
3
 72
8
 73
4
 74
0
 40
0
 40
0
 40
0
 40
0
 40
1
 40
1
 40
1
 40
1
 10
43.369626
 20
0.466457
 30
0.0
 10
41.642619
 20
0.407373
 30
0.0
 10
40.852094
 20
0.494174
 30
0.0
 10
39.902043
 20
0.847199
 30
0.0
  0
LINE
  5
1b4
100
AcDbEntity
  8
Layer_1
 62
7
100
AcDbLine
 10
39.902043
 20
0.847199
 30
0.0
 11
39.902043
 21
0.847199
 31
0.0
  0
SPLINE
  5
1b5
100
AcDbEntity
  8
Layer_1
 62
7
100
AcDbSpline
 70
8
 71
3
 72
8
 73
4
 74
0
 40
0
 40
0
 40
0
 40
0
 40
1
 40
1
 40
1
 40
1
 10
26.290468
 20
91.771813
 30
0.0
 10
26.927522
 20
93.623443
 30
0.0
 10
27.368967
 20
94.391388
 30
0.0
 10
28.299655
 20
95.267029
 30
0.0
  0
SPLINE
  5
1b6
100
AcDbEntity
  8
Layer_1
 62
7
100
AcDbSpline
 70
8
 71
3
 72
8
 73
4
 74
0
 40
0
 40
0
 40
0
 40
0
 40
1
 40
1
 40
1
 40
1
 10
28.299655
 20
95.267029
 30
0.0
 10
29.611605
 20
96.501382
 30
0.0
 10
30.633598
 20
96.897416
 30
0.0
 10
32.813701
 20
97.016273
 30
0.0
  0
SPLINE
  5
1b7
100
AcDbEntity
  8
Layer_1
 62
7
100
AcDbSpline
 70
8
 71
3
 72
8
 73
4
 74
0
 40
0
 40
0
 40
0
 40
0
 40
1
 40
1
 40
1
 40
1
 10
32.813701
 20
97.016273
 30
0.0
 10
34.770142
 20
97.122937
 30
0.0
 10
34.841999
 20
97.106020
 30
0.0
 10
37.335207
 20
95.951828
 30
0.0
  0
SPLINE
  5
1b8
100
AcDbEntity
  8
Layer_1
 62
7
100
AcDbSpline
 70
8
 71
3
 72
8
 73
4
 74
0
 40
0
 40
0
 40
0
 40
0
 40
1
 40
1
 40
1
 40
1
 10
37.335207
 20
95.951828
 30
0.0
 10
41.318448
 20
94.107849
 30
0.0
 10
43.964316
 20
94.191525
 30
0.0
 10
45.148715
 20
96.198932
 30
0.0
  0
SPLINE
  5
1b9
100
AcDbEntity
  8
Layer_1
 62
7
100
AcDbSpline
 70
8
 71
3
 72
8
 73
4
 74
0
 40
0
 40
0
 40
0
 40
0
 40
1
 40
1
 40
1
 40
1
 10
45.148715
 20
96.198932
 30
0.0
 10
45.595895
 20
96.956846
 30
0.0
 10
45.780846
 20
97.066333
 30
0.0
 10
46.613976
 20
97.066333
 30
0.0
  0
SPLINE
  5
1ba
100
AcDbEntity
  8
Layer_1
 62
7
100
AcDbSpline
 70
8
 71
3
 72
8
 73
4
 74
0
 40
0
 40
0
 40
0
 40
0
 40
1
 40
1
 40
1
 40
1
 10
46.613976
 20
97.066333
 30
0.0
 10
47.799703
 20
97.066333
 30
0.0
 10
47.832247
 20
96.763815
 30
0.0
 10
46.863758
 20
94.744478
 30
0.0
  0
SPLINE
  5
1bb
100
AcDbEntity
  8
Layer_1
 62
7
100
AcDbSpline
 70
8
 71
3
 72
8
 73
4
 74
0
 40
0
 40
0
 40
0
 40
0
 40
1
 40
1
 40
1
 40
1
 10
46.863758
 20
94.744478
 30
0.0
 10
45.544331
 20
91.993427
 30
0.0
 10
43.425629
 20
90.657341
 30
0.0
 10
40.383054
 20
90.657646
 30
0.0
  0
SPLINE
  5
1bc
100
AcDbEntity
  8
Layer_1
 62
7
100
AcDbSpline
 70
8
 71
3
 72
8
 73
4
 74
0
 40
0
 40
0
 40
0
 40
0
 40
1
 40
1
 40
1
 40
1
 10
40.383054
 20
90.657646
 30
0.0
 10
38.827991
 20
90.657767
 30
0.0
 10
38.378640
 20
90.780457
 30
0.0
 10
36.080388
 20
91.832102
 30
0.0
  0
SPLINE
  5
1bd
100
AcDbEntity
  8
Layer_1
 62
7
100
AcDbSpline
 70
8
 71
3
 72
8
 73
4
 74
0
 40
0
 40
0
 40
0
 40
0
 40
1
 40
1
 40
1
 40
1
 10
36.080388
 20
91.832102
 30
0.0
 10
33.863348
 20
92.846584
 30
0.0
 10
33.297944
 20
93.007116
 30
0.0
 10
31.925492
 20
93.011775
 30
0.0
  0
SPLINE
  5
1be
100
AcDbEntity
  8
Layer_1
 62
7
100
AcDbSpline
 70
8
 71
3
 72
8
 73
4
 74
0
 40
0
 40
0
 40
0
 40
0
 40
1
 40
1
 40
1
 40
1
 10
31.925492
 20
93.011775
 30
0.0
 10
30.006436
 20
93.018296
 30
0.0
 10
29.030364
 20
92.559203
 30
0.0
 10
28.374687
 20
91.341684
 30
0.0
  0
SPLINE
  5
1bf
100
AcDbEntity
  8
Layer_1
 62
7
100
AcDbSpline
 70
8
 71
3
 72
8
 73
4
 74
0
 40
0
 40
0
 40
0
 40
0
 40
1
 40
1
 40
1
 40
1
 10
28.374687
 20
91.341684
 30
0.0
 10
27.949116
 20
90.551448
 30
0.0
 10
27.804697
 20
90.467379
 30
0.0
 10
26.872759
 20
90.467379
 30
0.0
  0
LINE
  5
1c0
100
AcDbEntity
  8
Layer_1
 62
7
100
AcDbLine
 10
26.872759
 20
90.467379
 30
0.0
 11
25.841676
 21
90.467379
 31
0.0
  0
LINE
  5
1c1
100
AcDbEntity
  8
Layer_1
 62
7
100
AcDbLine
 10
25.841676
 20
90.467379
 30
0.0
 11
26.290468
 21
91.771813
 31
0.0
  0
LINE
  5
1c2
100
AcDbEntity
  8
Layer_1
 62
7
100
AcDbLine
 10
26.290468
 20
91.771813
 30
0.0
 11
26.290468
 21
91.771813
 31
0.0
  0
ENDSEC
  0
SECTION
  2
OBJECTS
  0
DICTIONARY
  5
C
330
0
100
AcDbDictionary
  3
ACAD_GROUP
350
D
  3
ACAD_MLINESTYLE
350
17
  0
DICTIONARY
  5
D
330
C
100
AcDbDictionary
  0
DICTIONARY
  5
1A
330
C
100
AcDbDictionary
  0
DICTIONARY
  5
17
330
C
100
AcDbDictionary
  3
STANDARD
350
18
  0
DICTIONARY
  5
19
330
C
100
AcDbDictionary
  0
ENDSEC
  0
EOF
