<?xml version="1.0" encoding="UTF-8" standalone="no"?>
<!-- Created with Inkscape (http://www.inkscape.org/) -->

<svg
   xmlns:dc="http://purl.org/dc/elements/1.1/"
   xmlns:cc="http://creativecommons.org/ns#"
   xmlns:rdf="http://www.w3.org/1999/02/22-rdf-syntax-ns#"
   xmlns:svg="http://www.w3.org/2000/svg"
   xmlns="http://www.w3.org/2000/svg"
   xmlns:sodipodi="http://sodipodi.sourceforge.net/DTD/sodipodi-0.dtd"
   xmlns:inkscape="http://www.inkscape.org/namespaces/inkscape"
   width="80mm"
   height="98mm"
   id="svg3274"
   version="1.1"
   inkscape:version="0.91 r13725"
   sodipodi:docname="002_5_Oshpark.svg"
   inkscape:export-filename="/home/salvari/work/graphicsResources/BL/oshwi.png"
   inkscape:export-xdpi="90"
   inkscape:export-ydpi="90">
  <defs
     id="defs3276" />
  <sodipodi:namedview
     id="base"
     pagecolor="#ffffff"
     bordercolor="#666666"
     borderopacity="1.0"
     inkscape:pageopacity="0.0"
     inkscape:pageshadow="2"
     inkscape:zoom="0.70710678"
     inkscape:cx="209.7847"
     inkscape:cy="387.21956"
     inkscape:document-units="px"
     inkscape:current-layer="layer1"
     showgrid="false"
     inkscape:window-width="1095"
     inkscape:window-height="933"
     inkscape:window-x="787"
     inkscape:window-y="27"
     inkscape:window-maximized="0"
     units="mm"
     showguides="false" />
  <metadata
     id="metadata3279">
    <rdf:RDF>
      <cc:Work
         rdf:about="">
        <dc:format>image/svg+xml</dc:format>
        <dc:type
           rdf:resource="http://purl.org/dc/dcmitype/StillImage" />
        <dc:title></dc:title>
      </cc:Work>
    </rdf:RDF>
  </metadata>
  <g
     inkscape:label="Layer 1"
     inkscape:groupmode="layer"
     id="layer1"
     transform="translate(0,-705.11813)">
    <path
       style="fill:#ffffff;fill-opacity:1;stroke:#000000;stroke-width:0.42865035;stroke-linejoin:round;stroke-miterlimit:10;stroke-dasharray:none;stroke-dashoffset:0;stroke-opacity:1"
       d="m 140.9884,1050.2107 c -2.2756,-0.2772 -4.3715,-0.7244 -5.7153,-0.9307 -1.1476,-0.1762 -3.5761,-0.3661 -5.4484,-0.3661 -4.6488,0 -6.9264,-3.2365 -6.6603,-6.9651 0.375,-5.2546 7.3813,-9.0318 11.3877,-3.9686 1.0743,1.3577 1.2573,2.8877 1.2573,3.9861 0,1.7347 4.5114,1.982 8.7738,2.838 6.1643,1.238 8.031,-0.8858 9.8013,-2.1769 2.9466,-2.1489 5.0323,-5.3463 5.6454,-8.1378 0.7287,-3.3176 -2.4488,-9.1075 -9.7902,-23.6465 -8.584,-16.9998 -11.3255,-23.9449 -14.0928,-31.9021 0,0 -0.8432,-3.7239 -1.2555,-6.06072 -1.2651,-7.16959 -2.7338,-16.30767 -2.5448,-29.32051 0.189,-13.01284 -1.3167,-13.43687 -2.5733,-15.05394 -1.2566,-1.61708 -5.5946,-3.39948 -7.6486,0.91946 -1.4251,2.99655 -1.5651,5.58043 -1.5891,10.23746 -0.055,10.74968 0.897,29.01581 -3.6933,42.00125 -2.273,6.43 -5.2742,14.9365 -6.6693,18.9032 -2.4102,6.8527 -3.1787,13.0558 -1.9986,16.1311 1.1755,3.0633 9.9059,5.3244 14.3091,3.6348 2.1761,-0.8351 2.9228,-4.1278 2.7596,-7.816 -0.1107,-2.5025 0.3974,-3.976 -2.5138,-5.466 -5.9837,-3.0625 -0.6583,-10.7981 2.1807,-11.3561 2.3473,-0.4613 4.742,0.5561 6.7982,2.0947 3.0336,2.27 0.7544,7.774 -0.5648,8.7479 -1.082,1.6454 -1.0038,2.4846 -0.5207,4.7745 1.6043,7.6044 -1.8326,13.4044 -8.0669,15.4619 -4.8273,1.5931 -14.252,0.5279 -17.6816,-2.1604 -4.684,-3.6717 -7.6956,-13.3789 0.4229,-35.3888 6.0485,-16.39797 6.0266,-26.1952 3.193,-43.50002 -0.8048,-4.91501 -1.3319,-5.3647 -2.7832,-6.72118 -0.7997,-0.74748 -1.2508,-0.63791 -2.3047,-0.82644 -2.492,-0.44577 -2.8467,0.73235 -4.1195,3.6506 -0.7697,1.76476 -3.0451,11.75081 -3.7546,31.17616 -0.7828,21.43038 -1.7773,28.24468 -5.6281,38.56488 -4.3678,11.7059 -12.4535,20.4599 -21.666798,23.4578 -2.3815,0.7749 -5.5451,2.1403 -7.0302,3.0343 -3.8911,2.3422 -6.9549,2.0625 -9.9235,-0.906 -3.8975,-3.8976 -2.9953,-7.8976 2.2786,-10.1011 2.5878,-1.0813 3.3599,-1.0592 6.4694,0.185 3.3085,1.3238 3.7488,1.3144 6.9934,-0.1487 6.443,-2.9053 10.922098,-9.6959 13.872898,-21.0316 1.3777,-5.2923 1.8088,-11.3945 2.5391,-30.0236 0.6825,-17.4104 1.1104,-19.49478 0.2537,-23.3141 -0.4666,-2.08032 -3.4665,-3.87641 -4.7317,-3.83727 0,0 -2.9581,-0.31989 -4.4404,2.90764 -1.879098,4.09162 -2.100998,14.32801 -4.070798,23.37773 -6.9801,32.0684 -12.5638,36.8748 -20.9576,38.9783 -9.3819,2.3511 -20.4435,-3.5329 -20.4435,-12.6872 0,-1.25 -1.3982,-2.5565 -2.3508,-3.7675 -2.2699,-2.8858 -3.3842,-6.5521 -0.9524,-9.3793 4.2021,-4.8852 13.1912,-2.0928 13.4564,3.5451 0.1021,2.1721 -1.2075,3.7118 -2.9252,5.6293 -2.3481,2.6214 -1.7547,3.4634 -0.6425,5.647 2.6227,5.1499 8.2101,5.392 12.2306,3.6498 6.4864,-2.8108 9.7905,-8.5223 13.8718,-31.2786 4.3138,-24.0522 3.9194,-19.05999 5.8471,-34.24457 0.2986,-2.35142 -0.5662,-3.24082 -1.2686,-4.71106 -0.6556,-1.37231 -4.5988,-3.23685 -7.4847,-1.92252 -8.8393,4.02574 -2.6202,1.90348 -21.112,8.59725 -13.9482,5.04904 -18.9418,8.52402 -22.2415,15.47768 -4.3343,9.13383 3.7164,18.29662 11.0249,12.54781 1.9348,-1.52193 2.1173,-2.07457 1.3818,-4.18437 -1.9371,-5.55694 3.7337,-10.7038 9.5569,-8.67381 4.9184,1.71457 6.1002,7.94131 2.1039,11.08484 -1.255,0.98717 -2.6508,1.79486 -3.1018,1.79486 -0.451,0 -2.4443,1.31244 -4.4297,2.91649 -5.0638,4.0914 -6.8603,4.8775 -11.1459,4.8775 -11.3113,0 -17.1844,-13.83465 -11.2128,-26.41308 4.3118,-9.08249 8.9588,-12.40643 29.141,-20.84423 4.2867,-1.79221 9.7425,-4.50155 12.124,-6.02078 10.2875,-6.56261 20.0275,-19.96074 32.548698,-44.77285 l 7.8688,-15.59315 -2.8212,-2.91076 -2.8212,-2.91074 -2.8921,1.78742 -2.8921,1.78742 -4.9694,-4.32557 c -2.733098,-2.37906 -6.031298,-5.44498 -7.329198,-6.81316 l -2.3598,-2.4876 5.1726,-7.3363 c 2.845,-4.03498 5.155198,-7.72602 5.133898,-8.20232 -0.021,-0.47631 -1.3089,-3.98362 -2.861198,-7.79404 l -2.8224,-6.92804 -7.3127,-1.5145 c -4.0219,-0.83298 -8.1895,-1.71723 -9.2612,-1.96501 -1.8799,-0.43465 -1.9485,-0.79687 -1.9485,-10.2908 l 0,-9.84029 8.4436,-1.50532 c 9.9862,-1.78035 11.0227,-2.24029 12.1525,-5.39246 0.4731,-1.31988 1.637398,-4.3483 2.587498,-6.72981 l 1.7274,-4.33002 -5.555698,-7.7476 -5.5556,-7.7476 7.0878,-7.12484 7.087898,-7.12484 7.6292,5.12989 c 4.1961,2.82143 8.2246,5.12988 8.9523,5.12988 0.7277,0 3.8903,-1.02769 7.0279,-2.28375 6.4621,-2.58698 6.796,-2.38071 8.5822,-13.95383 l 2.9588,-19.17009 c 0.202,0.0183 -0.9288,-0.33 -2.0499,-0.54152 -1.121,-0.21153 -2.1992,-0.29738 -2.0025,-0.26261 0.1966,0.0348 -0.9448,-0.13928 -3.0596,-0.0446 -2.1149,0.0947 -5.2021,0.48975 -5.0055,0.46324 0.2086,-0.0281 -0.9946,0.21272 -2.3313,0.80468 -1.3367,0.59195 -2.5795,1.71154 -2.4366,1.57455 0.2932,-0.28091 -0.3659,0.41408 -1.0478,1.15582 -0.6819,0.74174 -1.2372,1.84326 -1.3233,2.022 -0.1466,0.30392 -0.5873,1.24866 -1.2938,1.90818 -0.7065,0.65952 -1.1419,0.79624 -1.3307,0.85983 -0.2706,0.0911 -1.0113,0.23777 -2.0177,0.19813 -1.0064,-0.0397 -1.2717,-0.0236 -1.4791,-0.0196 -0.059,10e-4 -0.1198,0.004 -0.1738,0.006 -0.1039,0.004 -0.2079,0.005 -0.3034,0.008 -0.06,10e-4 -0.1251,0.002 -0.1942,0.003 -0.069,5.7e-4 -0.1423,7.6e-4 -0.2194,4.1e-4 -0.077,-3.5e-4 -0.1578,-10e-4 -0.242,-0.003 -0.084,-0.002 -0.1718,-0.004 -0.2624,-0.007 -0.091,-0.003 -0.1769,-0.005 -0.259,-0.006 -0.082,-8.9e-4 -0.1602,-7.8e-4 -0.234,8e-5 -0.074,8.6e-4 -0.1436,0.002 -0.2092,0.005 -0.1184,0.003 -0.2328,0.0115 -0.3442,0.017 -0.12,0.009 -0.2225,0.0133 -0.3339,0.02 -0.033,9.3e-4 0,-0.0856 0.045,-0.21529 0.046,-0.12088 0.1435,-0.32254 0.2088,-0.57845 0.065,-0.25591 0.1809,-0.51082 0.2899,-0.86527 0.109,-0.35444 0.2777,-0.81393 0.4268,-1.24699 0.1491,-0.43305 0.3063,-0.86176 0.4919,-1.3535 0.1857,-0.49174 0.3279,-1.041 0.5465,-1.5715 0.2186,-0.53051 0.3478,-1.08094 0.5957,-1.63029 0.2479,-0.54934 0.471,-1.10865 0.7447,-1.65692 0.5474,-1.09653 0.9248,-2.23209 1.5609,-3.22344 0.6361,-0.99136 1.248,-1.92689 1.8299,-2.69658 0.5819,-0.7697 1.5163,-1.48783 1.901,-1.91939 0.3848,-0.43156 2.2054,-1.99601 2.5363,-2.19298 0.8206,-0.48841 2.4591,-2.06007 6.5648,-3.18199 1.2747,-0.34833 2.5927,-0.51243 3.9113,-0.68286 1.3185,-0.17043 1.9336,-0.1526 3.0742,-0.23748 1.1765,-0.0875 2.36,-0.12728 3.0787,-0.13805 0.6576,-0.008 1.3716,0.007 1.8846,0.0484 0.4316,0.0454 0.7003,0.0333 1.0075,0.0806 0.305,0.047 0.9226,0.12664 1.2857,0.21416 0.3631,0.0875 0.6225,0.24182 1.0068,0.33358 1.5375,0.36705 2.7939,0.92104 2.9738,1.01097 0.1799,0.0899 0.1391,0.14589 2.3968,1.17306 2.2577,1.02716 2.9491,1.32963 3.1306,1.41524 0.045,0.0214 1.8665,0.79535 2.123,0.86736 0.2566,0.072 1.3393,0.67009 1.7467,0.77816 0.4075,0.10807 2.2555,0.82338 2.7535,0.95301 0.498,0.12964 1.0105,0.31329 1.5387,0.44998 0.5282,0.13669 0.9783,0.24202 1.4764,0.37126 0.4982,0.12923 0.9036,0.21986 1.3113,0.32713 0.4078,0.10727 0.7239,0.13744 0.9809,0.20824 0.257,0.0708 0.5016,0.0689 0.8171,0.12784 0.4614,0.0762 0.7532,0.0765 1.0838,0.13374 0.3279,0.0322 0.7274,0.0725 1.1302,0.0957 0.4033,0.0233 0.7367,0.0553 1.1639,0.0447 0.4272,-0.0106 1.0185,-0.0525 1.422,-0.0614 0.4034,-0.009 0.811,-0.0518 1.1388,-0.10584 0.3556,-0.0587 0.494,-0.077 0.7049,-0.10837 0.2289,-0.0341 0.3157,-0.0697 0.8392,-0.22441 0.4472,-0.13214 0.6727,-0.15229 1.1143,-0.34473 0.4068,-0.17723 0.418,-0.13582 1.1356,-0.49257 0.7176,-0.35675 1.689,-1.06549 2.4379,-1.71816 0.6754,-0.58863 1.2191,-1.36626 1.814,-2.24074 0.6209,-0.9129 1.3956,-2.38923 2.2811,-2.84042 0.8856,-0.45119 1.7416,-0.43614 2.5419,-0.49398 0.6738,-0.0487 2.0481,0.0143 2.5202,0.11746 0.4884,0.10671 0.7707,0.30536 1.112,0.65919 0.3099,0.32135 0.285,1.32558 0.06,2.0338 -0.2207,0.69402 -0.5609,1.95905 -1.1386,3.04546 -0.592,1.11344 -1.5856,3.50586 -2.3969,4.81019 -0.8349,1.34232 -1.4399,2.37923 -2.6088,3.7412 -1.0988,1.28024 -1.6304,1.90029 -2.8116,2.92761 -1.1921,1.03691 -2.1074,1.56963 -3.0381,2.11308 -1.0876,0.63509 -1.4435,0.753 -1.9993,1.02244 -0.6532,0.31665 -1.8672,0.71945 -2.4019,0.9461 -0.4757,0.20161 -0.5684,0.18165 -0.8491,0.2419 -0.3457,0.0742 -0.8217,0.23185 -1.4276,0.36356 -0.6255,0.13599 -1.7624,0.34746 -2.5401,0.43561 -0.8069,0.0915 -1.497,0.16182 -2.365,0.20758 -0.868,0.0458 -1.8039,0.0271 -2.609,0.009 -0.8114,-0.0178 -1.5691,-0.0134 -2.1744,-0.0548 -0.6379,-0.0437 -1.221,-0.14413 -1.5395,-0.2027 -0.3466,-0.0637 -0.4703,-0.0522 -0.4205,-0.044 0.015,1.20914 3.8999,21.70492 4.2016,22.00661 0.7666,0.76658 12.0555,5.31643 13.1909,5.31643 0.6274,0 4.4157,-1.4447 8.7458,-4.35629 l 7.873,-5.29379 6.9495,6.94941 6.9494,6.94941 -5.3769,8.38389 -5.3769,8.38389 2.7446,6.63108 c 1.5095,3.64709 2.8752,6.77391 3.0349,6.94849 0.1597,0.17457 4.2488,1.02841 9.087,1.89741 4.8382,0.869 8.9746,1.75787 9.192,1.97528 0.2174,0.2174 0.623,4.712 0.9013,9.98799 0.4105,7.78159 0.2774,9.66547 -0.705,9.97807 -0.6661,0.21194 -4.9132,1.02473 -9.4381,1.8062 l -8.2271,1.42084 -3.2224,7.37952 -3.2224,7.37951 5.2687,7.83571 5.2687,7.83571 -6.9089,6.90889 c -5.8895,5.88954 -7.1525,6.77853 -8.5599,6.02533 -1.3789,-0.73797 -2.1229,-0.32138 -4.515,2.52786 l -2.8641,3.41142 8.1796,11.45169 c 19.9546,27.93697 35.6292,45.56453 45.8963,51.61452 15.0943,8.89446 30.2661,9.39696 42.3465,1.40252 2.723,-1.80202 3.3044,-2.69126 3.3044,-5.0545 0,-6.42836 8.4544,-9.49373 12.6693,-4.59361 2.2982,2.67189 2.4852,3.85722 1.0912,6.91671 -1.0242,2.24802 -4.0778,4.03326 -6.8987,4.03326 -0.9442,0 -3.653,1.5305 -6.0195,3.40112 -7.5364,5.95718 -12.6974,8.65537 -25.9565,7.39548 -9.7362,-0.92515 -8.4684,-0.6066 -12.9591,-1.54923 -2.856,-0.59949 -8.4619,-1.69946 -10.6974,-2.54583 -1.9313,-0.73124 -2.0502,-0.73219 -3.8714,-1.38291 -2.1779,-0.77813 -3.5384,-0.8957 -5.0737,0.32364 -1.6473,1.30834 -1.8104,3.13819 -1.9314,4.21342 -0.2135,1.89726 2.2323,2.94756 3.7597,3.59659 0.8381,0.35612 3.1514,1.26374 4.774,1.79105 1.763,0.57297 7.1873,1.84363 12.3933,2.63499 8.8387,1.34356 21.49,3.8102 26.7722,7.1608 7.3826,4.68284 8.2442,11.83305 5.5622,20.42609 -1.8652,5.9761 -5.9549,8.9035 -10.6505,11.2928 -5.3438,2.7191 -11.3821,3.1801 -17.335,-2.9593 -2.0606,-2.125 -4.5535,-7.1735 -6.9552,-7.0589 -4.4149,0.2106 -6.911,-7.56366 -2.7017,-10.84676 2.2047,-1.71964 6.5341,-2.85642 9.2046,-0.605 2.9347,2.47412 2.4825,6.05766 1.8459,7.60046 -0.6728,1.6303 3.6994,6.7823 5.4665,8.4405 7.2527,6.8062 15.4676,-3.6199 15.4676,-14.00941 0,-3.53364 -6.2911,-8.24997 -10.9578,-9.50049 -1.8765,-0.50281 -8.7342,-1.10647 -15.1028,-2.26244 -15.3948,-2.79431 -23.8889,-5.56701 -27.2829,-7.21992 -5.4203,-2.63966 -6.9504,-4.42531 -8.3768,-5.72802 -2.6205,-2.39324 -8.7299,-3.75026 -11.3654,-3.12257 -3.2261,0.76836 -4.067,2.50899 -3.8092,6.45706 0.1669,2.55597 0.021,6.01241 0.1932,7.66524 0.1454,1.39642 -1.3481,16.55565 -0.052,21.04405 2.8509,9.8766 7.1792,14.2265 14.1618,14.2326 4.2294,0 6.8389,-1.0899 9.0168,-3.7787 2.8903,-3.5681 1.2795,-11.8062 -2.3085,-11.8062 -4.7654,0 -8.2633,-5.37315 -6.1537,-9.45273 4.0121,-7.75845 15.8195,-3.5569 13.5558,4.82367 -0.4882,1.80736 -0.1302,3.61806 1.3434,6.79406 2.9821,6.4275 2.7463,11.6762 -0.7007,15.6022 -3.279,3.7345 -6.1442,5.307 -11.9319,6.5482 -9.4999,2.0374 -19.0846,-3.7115 -24.6135,-14.7631 -4.3716,-8.7383 -1.8409,-16.06251 -3.0995,-30.39693 -0.5256,-5.98615 -0.1396,-13.73695 -2.4844,-22.26327 -0.6486,-2.3584 -3.9084,-5.71873 -6.3143,-5.95232 -3.7479,-0.36388 -5.8726,0.21404 -5.9303,5.46521 -0.055,5.04038 -0.142,-2.45262 -0.1242,7.91527 0.027,15.81693 0.3254,18.08582 1.8522,25.15782 2.6826,12.42592 8.2158,25.53552 16.559,43.43012 9.7083,20.8225 8.8831,26.1542 5.7148,31.5896 -1.4344,2.4609 -3.449,4.1816 -7.0549,6.0257 -4.314,2.2063 -5.5963,2.2724 -7.3608,2.4988 -2.1449,0.2753 -4.1722,0.4301 -5.967,0.2861 -2.0872,-0.1674 -3.715,-0.1728 -5.8292,-0.4303 z"
       id="path4195"
       inkscape:connector-curvature="0"
       sodipodi:nodetypes="sssssssssssszzsssssssssscssssssssssssssssssssssssssssssssssssssssssssssscccccsscscscssscssscccccsssscssssssssssscccsssssscccsssssssssssssssccsssssssssssssccssssssssssssssssssssssssssssscssscccccssssssscccccssscssssssssssssssssssssssssssssssssssscssssssssssssssssssss" />
  </g>
</svg>
