  0
SECTION
  2
HEADER
  9
$ACADVER
  1
AC1014
  9
$HANDSEED
  5
FFFF
  9
$MEASUREMENT
 70
     1
  0
ENDSEC
  0
SECTION
  2
TABLES
  0
TABLE
  2
VPORT
  5
8
330
0
100
AcDbSymbolTable
 70
     4
  0
VPORT
  5
2E
330
8
100
AcDbSymbolTableRecord
100
AcDbViewportTableRecord
  2
*ACTIVE
 70
     0
 10
0.0
 20
0.0
 11
1.0
 21
1.0
 12
210.0
 22
148.5
 13
0.0
 23
0.0
 14
10.0
 24
10.0
 15
10.0
 25
10.0
 16
0.0
 26
0.0
 36
1.0
 17
0.0
 27
0.0
 37
0.0
 40
341.0
 41
1.24
 42
50.0
 43
0.0
 44
0.0
 50
0.0
 51
0.0
 71
     0
 72
   100
 73
     1
 74
     3
 75
     0
 76
     0
 77
     0
 78
     0
  0
ENDTAB
  0
TABLE
  2
LTYPE
  5
5
330
0
100
AcDbSymbolTable
 70
     1
  0
LTYPE
  5
14
330
5
100
AcDbSymbolTableRecord
100
AcDbLinetypeTableRecord
  2
BYBLOCK
 70
     0
  3

 72
    65
 73
     0
 40
0.0
  0
LTYPE
  5
15
330
5
100
AcDbSymbolTableRecord
100
AcDbLinetypeTableRecord
  2
BYLAYER
 70
     0
  3

 72
    65
 73
     0
 40
0.0
  0
LTYPE
  5
16
330
5
100
AcDbSymbolTableRecord
100
AcDbLinetypeTableRecord
  2
CONTINUOUS
 70
     0
  3
Solid line
 72
    65
 73
     0
 40
0.0
  0
ENDTAB
  0
TABLE
  2
LAYER
  5
2
100
AcDbSymbolTable
 70
2
  0
LAYER
  5
50
100
AcDbSymbolTableRecord
100
AcDbLayerTableRecord
  2
0
 70
0
  6
CONTINUOUS
  0
LAYER
  5
51
100
AcDbSymbolTableRecord
100
AcDbLayerTableRecord
  2
Layer_1
 70
0
  6
CONTINUOUS
  0
ENDTAB
  0
TABLE
  2
STYLE
  5
3
330
0
100
AcDbSymbolTable
 70
     1
  0
STYLE
  5
11
330
3
100
AcDbSymbolTableRecord
100
AcDbTextStyleTableRecord
  2
STANDARD
 70
     0
 40
0.0
 41
1.0
 50
0.0
 71
     0
 42
2.5
  3
txt
  4

  0
ENDTAB
  0
TABLE
  2
VIEW
  5
6
330
0
100
AcDbSymbolTable
 70
     0
  0
ENDTAB
  0
TABLE
  2
UCS
  5
7
330
0
100
AcDbSymbolTable
 70
     0
  0
ENDTAB
  0
TABLE
  2
APPID
  5
9
330
0
100
AcDbSymbolTable
 70
     2
  0
APPID
  5
12
330
9
100
AcDbSymbolTableRecord
100
AcDbRegAppTableRecord
  2
ACAD
 70
     0
  0
ENDTAB
  0
TABLE
  2
DIMSTYLE
  5
A
330
0
100
AcDbSymbolTable
 70
     1
  0
DIMSTYLE
105
27
330
A
100
AcDbSymbolTableRecord
100
AcDbDimStyleTableRecord
  2
ISO-25
 70
     0
  3

  4

  5

  6

  7

 40
1.0
 41
2.5
 42
0.625
 43
3.75
 44
1.25
 45
0.0
 46
0.0
 47
0.0
 48
0.0
140
2.5
141
2.5
142
0.0
143
0.03937007874016
144
1.0
145
0.0
146
1.0
147
0.625
 71
     0
 72
     0
 73
     0
 74
     0
 75
     0
 76
     0
 77
     1
 78
     8
170
     0
171
     3
172
     1
173
     0
174
     0
175
     0
176
     0
177
     0
178
     0
270
     2
271
     2
272
     2
273
     2
274
     3
340
11
275
     0
280
     0
281
     0
282
     0
283
     0
284
     8
285
     0
286
     0
287
     3
288
     0
  0
ENDTAB
  0
TABLE
  2
BLOCK_RECORD
  5
1
330
0
100
AcDbSymbolTable
 70
     1
  0
BLOCK_RECORD
  5
1F
330
1
100
AcDbSymbolTableRecord
100
AcDbBlockTableRecord
  2
*MODEL_SPACE
  0
BLOCK_RECORD
  5
1B
330
1
100
AcDbSymbolTableRecord
100
AcDbBlockTableRecord
  2
*PAPER_SPACE
  0
ENDTAB
  0
ENDSEC
  0
SECTION
  2
BLOCKS
  0
BLOCK
  5
20
330
1F
100
AcDbEntity
  8
0
100
AcDbBlockBegin
  2
*MODEL_SPACE
 70
     0
 10
0.0
 20
0.0
 30
0.0
  3
*MODEL_SPACE
  1

  0
ENDBLK
  5
21
330
1F
100
AcDbEntity
  8
0
100
AcDbBlockEnd
  0
BLOCK
  5
1C
330
1B
100
AcDbEntity
 67
     1
  8
0
100
AcDbBlockBegin
  2
*PAPER_SPACE
  1

  0
ENDBLK
  5
1D
330
1B
100
AcDbEntity
 67
     1
  8
0
100
AcDbBlockEnd
  0
ENDSEC
  0
SECTION
  2
ENTITIES
  0
SPLINE
  5
100
100
AcDbEntity
  8
Layer_1
 62
7
100
AcDbSpline
 70
8
 71
3
 72
8
 73
4
 74
0
 40
0
 40
0
 40
0
 40
0
 40
1
 40
1
 40
1
 40
1
 10
49.704636
 20
78.396458
 30
0.0
 10
52.216104
 20
75.061579
 30
0.0
 10
53.420162
 20
70.758325
 30
0.0
 10
52.558326
 20
66.455774
 30
0.0
  0
SPLINE
  5
101
100
AcDbEntity
  8
Layer_1
 62
7
100
AcDbSpline
 70
8
 71
3
 72
8
 73
4
 74
0
 40
0
 40
0
 40
0
 40
0
 40
1
 40
1
 40
1
 40
1
 10
38.299695
 20
84.581363
 30
0.0
 10
41.820298
 20
84.397431
 30
0.0
 10
45.041778
 20
82.950748
 30
0.0
 10
47.543579
 20
80.735293
 30
0.0
  0
SPLINE
  5
102
100
AcDbEntity
  8
Layer_1
 62
7
100
AcDbSpline
 70
8
 71
3
 72
8
 73
4
 74
0
 40
0
 40
0
 40
0
 40
0
 40
1
 40
1
 40
1
 40
1
 10
39.902043
 20
0.847210
 30
0.0
 10
39.225212
 20
1.098698
 30
0.0
 10
38.435071
 20
1.430986
 30
0.0
 10
38.146169
 20
1.585588
 30
0.0
  0
SPLINE
  5
103
100
AcDbEntity
  8
Layer_1
 62
7
100
AcDbSpline
 70
8
 71
3
 72
8
 73
4
 74
0
 40
0
 40
0
 40
0
 40
0
 40
1
 40
1
 40
1
 40
1
 10
38.146169
 20
1.585588
 30
0.0
 10
37.857266
 20
1.740217
 30
0.0
 10
37.188563
 20
1.866709
 30
0.0
 10
36.660161
 20
1.866709
 30
0.0
  0
SPLINE
  5
104
100
AcDbEntity
  8
Layer_1
 62
7
100
AcDbSpline
 70
8
 71
3
 72
8
 73
4
 74
0
 40
0
 40
0
 40
0
 40
0
 40
1
 40
1
 40
1
 40
1
 10
36.660161
 20
1.866709
 30
0.0
 10
35.348175
 20
1.866709
 30
0.0
 10
34.411483
 20
2.619904
 30
0.0
 10
34.411483
 20
3.674879
 30
0.0
  0
SPLINE
  5
105
100
AcDbEntity
  8
Layer_1
 62
7
100
AcDbSpline
 70
8
 71
3
 72
8
 73
4
 74
0
 40
0
 40
0
 40
0
 40
0
 40
1
 40
1
 40
1
 40
1
 10
34.411483
 20
3.674879
 30
0.0
 10
34.411483
 20
5.475344
 30
0.0
 10
36.803417
 20
6.333074
 30
0.0
 10
37.987038
 20
4.957043
 30
0.0
  0
SPLINE
  5
106
100
AcDbEntity
  8
Layer_1
 62
7
100
AcDbSpline
 70
8
 71
3
 72
8
 73
4
 74
0
 40
0
 40
0
 40
0
 40
0
 40
1
 40
1
 40
1
 40
1
 10
37.987038
 20
4.957043
 30
0.0
 10
38.305678
 20
4.586598
 30
0.0
 10
38.566381
 20
4.029858
 30
0.0
 10
38.566381
 20
3.719865
 30
0.0
  0
SPLINE
  5
107
100
AcDbEntity
  8
Layer_1
 62
7
100
AcDbSpline
 70
8
 71
3
 72
8
 73
4
 74
0
 40
0
 40
0
 40
0
 40
0
 40
1
 40
1
 40
1
 40
1
 10
38.566381
 20
3.719865
 30
0.0
 10
38.566381
 20
3.230294
 30
0.0
 10
38.748431
 20
3.119663
 30
0.0
 10
39.951375
 20
2.878081
 30
0.0
  0
SPLINE
  5
108
100
AcDbEntity
  8
Layer_1
 62
7
100
AcDbSpline
 70
8
 71
3
 72
8
 73
4
 74
0
 40
0
 40
0
 40
0
 40
0
 40
1
 40
1
 40
1
 40
1
 10
39.951375
 20
2.878081
 30
0.0
 10
41.691072
 20
2.528690
 30
0.0
 10
43.945169
 20
2.520308
 30
0.0
 10
44.843914
 20
2.859736
 30
0.0
  0
SPLINE
  5
109
100
AcDbEntity
  8
Layer_1
 62
7
100
AcDbSpline
 70
8
 71
3
 72
8
 73
4
 74
0
 40
0
 40
0
 40
0
 40
0
 40
1
 40
1
 40
1
 40
1
 10
44.843914
 20
2.859736
 30
0.0
 10
45.806730
 20
3.223521
 30
0.0
 10
46.825408
 20
4.256341
 30
0.0
 10
46.998444
 20
5.044165
 30
0.0
  0
SPLINE
  5
10a
100
AcDbEntity
  8
Layer_1
 62
7
100
AcDbSpline
 70
8
 71
3
 72
8
 73
4
 74
0
 40
0
 40
0
 40
0
 40
0
 40
1
 40
1
 40
1
 40
1
 10
46.998444
 20
5.044165
 30
0.0
 10
47.204091
 20
5.980465
 30
0.0
 10
46.307338
 20
7.614504
 30
0.0
 10
44.235424
 20
11.717732
 30
0.0
  0
SPLINE
  5
10b
100
AcDbEntity
  8
Layer_1
 62
7
100
AcDbSpline
 70
8
 71
3
 72
8
 73
4
 74
0
 40
0
 40
0
 40
0
 40
0
 40
1
 40
1
 40
1
 40
1
 10
44.235424
 20
11.717732
 30
0.0
 10
41.812828
 20
16.515440
 30
0.0
 10
41.039121
 20
18.475524
 30
0.0
 10
40.258128
 20
20.721206
 30
0.0
  0
SPLINE
  5
10c
100
AcDbEntity
  8
Layer_1
 62
7
100
AcDbSpline
 70
8
 71
3
 72
8
 73
4
 74
0
 40
0
 40
0
 40
0
 40
0
 40
1
 40
1
 40
1
 40
1
 10
40.258128
 20
20.721206
 30
0.0
 10
40.258128
 20
20.721206
 30
0.0
 10
40.020150
 20
21.772190
 30
0.0
 10
39.903784
 20
22.431684
 30
0.0
  0
SPLINE
  5
10d
100
AcDbEntity
  8
Layer_1
 62
7
100
AcDbSpline
 70
8
 71
3
 72
8
 73
4
 74
0
 40
0
 40
0
 40
0
 40
0
 40
1
 40
1
 40
1
 40
1
 10
39.903784
 20
22.431684
 30
0.0
 10
39.546759
 20
24.455102
 30
0.0
 10
39.132256
 20
27.034071
 30
0.0
 10
39.185593
 20
30.706583
 30
0.0
  0
SPLINE
  5
10e
100
AcDbEntity
  8
Layer_1
 62
7
100
AcDbSpline
 70
8
 71
3
 72
8
 73
4
 74
0
 40
0
 40
0
 40
0
 40
0
 40
1
 40
1
 40
1
 40
1
 10
39.185593
 20
30.706583
 30
0.0
 10
39.238930
 20
34.379096
 30
0.0
 10
38.813991
 20
34.498767
 30
0.0
 10
38.459351
 20
34.955140
 30
0.0
  0
SPLINE
  5
10f
100
AcDbEntity
  8
Layer_1
 62
7
100
AcDbSpline
 70
8
 71
3
 72
8
 73
4
 74
0
 40
0
 40
0
 40
0
 40
0
 40
1
 40
1
 40
1
 40
1
 10
38.459351
 20
34.955140
 30
0.0
 10
38.104710
 20
35.411516
 30
0.0
 10
36.880430
 20
35.914549
 30
0.0
 10
36.300746
 20
34.695648
 30
0.0
  0
SPLINE
  5
110
100
AcDbEntity
  8
Layer_1
 62
7
100
AcDbSpline
 70
8
 71
3
 72
8
 73
4
 74
0
 40
0
 40
0
 40
0
 40
0
 40
1
 40
1
 40
1
 40
1
 10
36.300746
 20
34.695648
 30
0.0
 10
35.898551
 20
33.849955
 30
0.0
 10
35.859057
 20
33.120726
 30
0.0
 10
35.852264
 20
31.806409
 30
0.0
  0
SPLINE
  5
111
100
AcDbEntity
  8
Layer_1
 62
7
100
AcDbSpline
 70
8
 71
3
 72
8
 73
4
 74
0
 40
0
 40
0
 40
0
 40
0
 40
1
 40
1
 40
1
 40
1
 10
35.852264
 20
31.806409
 30
0.0
 10
35.836600
 20
28.772610
 30
0.0
 10
36.105417
 20
23.617503
 30
0.0
 10
34.809944
 20
19.952731
 30
0.0
  0
SPLINE
  5
112
100
AcDbEntity
  8
Layer_1
 62
7
100
AcDbSpline
 70
8
 71
3
 72
8
 73
4
 74
0
 40
0
 40
0
 40
0
 40
0
 40
1
 40
1
 40
1
 40
1
 10
34.809944
 20
19.952731
 30
0.0
 10
34.168453
 20
18.138020
 30
0.0
 10
33.321450
 20
15.737316
 30
0.0
 10
32.927719
 20
14.617820
 30
0.0
  0
SPLINE
  5
113
100
AcDbEntity
  8
Layer_1
 62
7
100
AcDbSpline
 70
8
 71
3
 72
8
 73
4
 74
0
 40
0
 40
0
 40
0
 40
0
 40
1
 40
1
 40
1
 40
1
 10
32.927719
 20
14.617820
 30
0.0
 10
32.247513
 20
12.683836
 30
0.0
 10
32.030608
 20
10.933183
 30
0.0
 10
32.363658
 20
10.065265
 30
0.0
  0
SPLINE
  5
114
100
AcDbEntity
  8
Layer_1
 62
7
100
AcDbSpline
 70
8
 71
3
 72
8
 73
4
 74
0
 40
0
 40
0
 40
0
 40
0
 40
1
 40
1
 40
1
 40
1
 10
32.363658
 20
10.065265
 30
0.0
 10
32.695405
 20
9.200734
 30
0.0
 10
35.000585
 20
8.633156
 30
0.0
 10
36.243268
 20
9.109999
 30
0.0
  0
SPLINE
  5
115
100
AcDbEntity
  8
Layer_1
 62
7
100
AcDbSpline
 70
8
 71
3
 72
8
 73
4
 74
0
 40
0
 40
0
 40
0
 40
0
 40
1
 40
1
 40
1
 40
1
 10
36.243268
 20
9.109999
 30
0.0
 10
36.857392
 20
9.345683
 30
0.0
 10
37.105370
 20
10.258587
 30
0.0
 10
36.828061
 20
11.262931
 30
0.0
  0
SPLINE
  5
116
100
AcDbEntity
  8
Layer_1
 62
7
100
AcDbSpline
 70
8
 71
3
 72
8
 73
4
 74
0
 40
0
 40
0
 40
0
 40
0
 40
1
 40
1
 40
1
 40
1
 10
36.828061
 20
11.262931
 30
0.0
 10
36.634132
 20
11.965270
 30
0.0
 10
36.390907
 20
12.223813
 30
0.0
 10
35.642358
 20
12.523336
 30
0.0
  0
SPLINE
  5
117
100
AcDbEntity
  8
Layer_1
 62
7
100
AcDbSpline
 70
8
 71
3
 72
8
 73
4
 74
0
 40
0
 40
0
 40
0
 40
0
 40
1
 40
1
 40
1
 40
1
 10
35.642358
 20
12.523336
 30
0.0
 10
33.881054
 20
13.228073
 30
0.0
 10
33.746155
 20
15.070431
 30
0.0
 10
35.393483
 20
15.922296
 30
0.0
  0
SPLINE
  5
118
100
AcDbEntity
  8
Layer_1
 62
7
100
AcDbSpline
 70
8
 71
3
 72
8
 73
4
 74
0
 40
0
 40
0
 40
0
 40
0
 40
1
 40
1
 40
1
 40
1
 10
35.393483
 20
15.922296
 30
0.0
 10
36.013475
 20
16.242909
 30
0.0
 10
36.306331
 20
16.263830
 30
0.0
 10
36.994595
 20
16.036684
 30
0.0
  0
SPLINE
  5
119
100
AcDbEntity
  8
Layer_1
 62
7
100
AcDbSpline
 70
8
 71
3
 72
8
 73
4
 74
0
 40
0
 40
0
 40
0
 40
0
 40
1
 40
1
 40
1
 40
1
 10
36.994595
 20
16.036684
 30
0.0
 10
38.027139
 20
15.695912
 30
0.0
 10
38.354042
 20
15.130335
 30
0.0
 10
38.299232
 20
13.779507
 30
0.0
  0
SPLINE
  5
11a
100
AcDbEntity
  8
Layer_1
 62
7
100
AcDbSpline
 70
8
 71
3
 72
8
 73
4
 74
0
 40
0
 40
0
 40
0
 40
0
 40
1
 40
1
 40
1
 40
1
 10
38.299232
 20
13.779507
 30
0.0
 10
38.276090
 20
13.209305
 30
0.0
 10
38.368718
 20
12.213992
 30
0.0
 10
38.505059
 20
11.567731
 30
0.0
  0
SPLINE
  5
11b
100
AcDbEntity
  8
Layer_1
 62
7
100
AcDbSpline
 70
8
 71
3
 72
8
 73
4
 74
0
 40
0
 40
0
 40
0
 40
0
 40
1
 40
1
 40
1
 40
1
 10
38.505059
 20
11.567731
 30
0.0
 10
38.957829
 20
9.421601
 30
0.0
 10
38.181887
 20
7.802351
 30
0.0
 10
36.422426
 20
7.221678
 30
0.0
  0
SPLINE
  5
11c
100
AcDbEntity
  8
Layer_1
 62
7
100
AcDbSpline
 70
8
 71
3
 72
8
 73
4
 74
0
 40
0
 40
0
 40
0
 40
0
 40
1
 40
1
 40
1
 40
1
 10
36.422426
 20
7.221678
 30
0.0
 10
35.060055
 20
6.772070
 30
0.0
 10
31.737594
 20
7.043709
 30
0.0
 10
30.691449
 20
7.690280
 30
0.0
  0
SPLINE
  5
11d
100
AcDbEntity
  8
Layer_1
 62
7
100
AcDbSpline
 70
8
 71
3
 72
8
 73
4
 74
0
 40
0
 40
0
 40
0
 40
0
 40
1
 40
1
 40
1
 40
1
 10
30.691449
 20
7.690280
 30
0.0
 10
28.558117
 20
9.008738
 30
0.0
 10
28.568416
 20
11.035319
 30
0.0
 10
30.740234
 20
17.289725
 30
0.0
  0
SPLINE
  5
11e
100
AcDbEntity
  8
Layer_1
 62
7
100
AcDbSpline
 70
8
 71
3
 72
8
 73
4
 74
0
 40
0
 40
0
 40
0
 40
0
 40
1
 40
1
 40
1
 40
1
 10
30.740234
 20
17.289725
 30
0.0
 10
33.082250
 20
24.034269
 30
0.0
 10
33.252461
 20
25.211765
 30
0.0
 10
32.452762
 20
30.095569
 30
0.0
  0
SPLINE
  5
11f
100
AcDbEntity
  8
Layer_1
 62
7
100
AcDbSpline
 70
8
 71
3
 72
8
 73
4
 74
0
 40
0
 40
0
 40
0
 40
0
 40
1
 40
1
 40
1
 40
1
 10
32.452762
 20
30.095569
 30
0.0
 10
32.225626
 20
31.482694
 30
0.0
 10
32.076867
 20
31.609607
 30
0.0
 10
31.667283
 20
31.992436
 30
0.0
  0
SPLINE
  5
120
100
AcDbEntity
  8
Layer_1
 62
7
100
AcDbSpline
 70
8
 71
3
 72
8
 73
4
 74
0
 40
0
 40
0
 40
0
 40
0
 40
1
 40
1
 40
1
 40
1
 10
31.667283
 20
31.992436
 30
0.0
 10
31.441588
 20
32.203391
 30
0.0
 10
31.314283
 20
32.172468
 30
0.0
 10
31.016846
 20
32.225676
 30
0.0
  0
SPLINE
  5
121
100
AcDbEntity
  8
Layer_1
 62
7
100
AcDbSpline
 70
8
 71
3
 72
8
 73
4
 74
0
 40
0
 40
0
 40
0
 40
0
 40
1
 40
1
 40
1
 40
1
 10
31.016846
 20
32.225676
 30
0.0
 10
30.313554
 20
32.351482
 30
0.0
 10
30.213444
 20
32.018990
 30
0.0
 10
29.854237
 20
31.195395
 30
0.0
  0
SPLINE
  5
122
100
AcDbEntity
  8
Layer_1
 62
7
100
AcDbSpline
 70
8
 71
3
 72
8
 73
4
 74
0
 40
0
 40
0
 40
0
 40
0
 40
1
 40
1
 40
1
 40
1
 10
29.854237
 20
31.195395
 30
0.0
 10
29.637014
 20
30.697341
 30
0.0
 10
28.994845
 20
27.879055
 30
0.0
 10
28.794589
 20
22.396790
 30
0.0
  0
SPLINE
  5
123
100
AcDbEntity
  8
Layer_1
 62
7
100
AcDbSpline
 70
8
 71
3
 72
8
 73
4
 74
0
 40
0
 40
0
 40
0
 40
0
 40
1
 40
1
 40
1
 40
1
 10
28.794589
 20
22.396790
 30
0.0
 10
28.573662
 20
16.348669
 30
0.0
 10
28.293004
 20
14.425514
 30
0.0
 10
27.206229
 20
11.512924
 30
0.0
  0
SPLINE
  5
124
100
AcDbEntity
  8
Layer_1
 62
7
100
AcDbSpline
 70
8
 71
3
 72
8
 73
4
 74
0
 40
0
 40
0
 40
0
 40
0
 40
1
 40
1
 40
1
 40
1
 10
27.206229
 20
11.512924
 30
0.0
 10
25.973537
 20
8.209259
 30
0.0
 10
23.691569
 20
5.738685
 30
0.0
 10
21.091380
 20
4.892611
 30
0.0
  0
SPLINE
  5
125
100
AcDbEntity
  8
Layer_1
 62
7
100
AcDbSpline
 70
8
 71
3
 72
8
 73
4
 74
0
 40
0
 40
0
 40
0
 40
0
 40
1
 40
1
 40
1
 40
1
 10
21.091380
 20
4.892611
 30
0.0
 10
20.419264
 20
4.673917
 30
0.0
 10
19.526422
 20
4.288571
 30
0.0
 10
19.107285
 20
4.036264
 30
0.0
  0
SPLINE
  5
126
100
AcDbEntity
  8
Layer_1
 62
7
100
AcDbSpline
 70
8
 71
3
 72
8
 73
4
 74
0
 40
0
 40
0
 40
0
 40
0
 40
1
 40
1
 40
1
 40
1
 10
19.107285
 20
4.036264
 30
0.0
 10
18.009126
 20
3.375244
 30
0.0
 10
17.144452
 20
3.454181
 30
0.0
 10
16.306668
 20
4.291958
 30
0.0
  0
SPLINE
  5
127
100
AcDbEntity
  8
Layer_1
 62
7
100
AcDbSpline
 70
8
 71
3
 72
8
 73
4
 74
0
 40
0
 40
0
 40
0
 40
0
 40
1
 40
1
 40
1
 40
1
 10
16.306668
 20
4.291958
 30
0.0
 10
15.206685
 20
5.391947
 30
0.0
 10
15.461332
 20
6.520836
 30
0.0
 10
16.949725
 20
7.142713
 30
0.0
  0
SPLINE
  5
128
100
AcDbEntity
  8
Layer_1
 62
7
100
AcDbSpline
 70
8
 71
3
 72
8
 73
4
 74
0
 40
0
 40
0
 40
0
 40
0
 40
1
 40
1
 40
1
 40
1
 10
16.949725
 20
7.142713
 30
0.0
 10
17.680060
 20
7.447880
 30
0.0
 10
17.897979
 20
7.441642
 30
0.0
 10
18.775530
 20
7.090502
 30
0.0
  0
SPLINE
  5
129
100
AcDbEntity
  8
Layer_1
 62
7
100
AcDbSpline
 70
8
 71
3
 72
8
 73
4
 74
0
 40
0
 40
0
 40
0
 40
0
 40
1
 40
1
 40
1
 40
1
 10
18.775530
 20
7.090502
 30
0.0
 10
19.709280
 20
6.716896
 30
0.0
 10
19.833538
 20
6.719549
 30
0.0
 10
20.749243
 20
7.132468
 30
0.0
  0
SPLINE
  5
12a
100
AcDbEntity
  8
Layer_1
 62
7
100
AcDbSpline
 70
8
 71
3
 72
8
 73
4
 74
0
 40
0
 40
0
 40
0
 40
0
 40
1
 40
1
 40
1
 40
1
 10
20.749243
 20
7.132468
 30
0.0
 10
22.567578
 20
7.952408
 30
0.0
 10
23.831700
 20
9.868866
 30
0.0
 10
24.664483
 20
13.068053
 30
0.0
  0
SPLINE
  5
12b
100
AcDbEntity
  8
Layer_1
 62
7
100
AcDbSpline
 70
8
 71
3
 72
8
 73
4
 74
0
 40
0
 40
0
 40
0
 40
0
 40
1
 40
1
 40
1
 40
1
 10
24.664483
 20
13.068053
 30
0.0
 10
25.053282
 20
14.561658
 30
0.0
 10
25.174965
 20
16.283826
 30
0.0
 10
25.381063
 20
21.541372
 30
0.0
  0
SPLINE
  5
12c
100
AcDbEntity
  8
Layer_1
 62
7
100
AcDbSpline
 70
8
 71
3
 72
8
 73
4
 74
0
 40
0
 40
0
 40
0
 40
0
 40
1
 40
1
 40
1
 40
1
 10
25.381063
 20
21.541372
 30
0.0
 10
25.573678
 20
26.454982
 30
0.0
 10
25.694433
 20
27.043240
 30
0.0
 10
25.452663
 20
28.121137
 30
0.0
  0
SPLINE
  5
12d
100
AcDbEntity
  8
Layer_1
 62
7
100
AcDbSpline
 70
8
 71
3
 72
8
 73
4
 74
0
 40
0
 40
0
 40
0
 40
0
 40
1
 40
1
 40
1
 40
1
 10
25.452663
 20
28.121137
 30
0.0
 10
25.320974
 20
28.708250
 30
0.0
 10
24.474336
 20
29.215146
 30
0.0
 10
24.117275
 20
29.204100
 30
0.0
  0
SPLINE
  5
12e
100
AcDbEntity
  8
Layer_1
 62
7
100
AcDbSpline
 70
8
 71
3
 72
8
 73
4
 74
0
 40
0
 40
0
 40
0
 40
0
 40
1
 40
1
 40
1
 40
1
 10
24.117275
 20
29.204100
 30
0.0
 10
24.117275
 20
29.204100
 30
0.0
 10
23.282426
 20
29.294380
 30
0.0
 10
22.864091
 20
28.383499
 30
0.0
  0
SPLINE
  5
12f
100
AcDbEntity
  8
Layer_1
 62
7
100
AcDbSpline
 70
8
 71
3
 72
8
 73
4
 74
0
 40
0
 40
0
 40
0
 40
0
 40
1
 40
1
 40
1
 40
1
 10
22.864091
 20
28.383499
 30
0.0
 10
22.333759
 20
27.228753
 30
0.0
 10
22.271135
 20
24.339817
 30
0.0
 10
21.715217
 20
21.785776
 30
0.0
  0
SPLINE
  5
130
100
AcDbEntity
  8
Layer_1
 62
7
100
AcDbSpline
 70
8
 71
3
 72
8
 73
4
 74
0
 40
0
 40
0
 40
0
 40
0
 40
1
 40
1
 40
1
 40
1
 10
21.715217
 20
21.785776
 30
0.0
 10
19.745290
 20
12.735369
 30
0.0
 10
19.016726
 20
11.380336
 30
0.0
 10
15.800535
 20
10.785242
 30
0.0
  0
SPLINE
  5
131
100
AcDbEntity
  8
Layer_1
 62
7
100
AcDbSpline
 70
8
 71
3
 72
8
 73
4
 74
0
 40
0
 40
0
 40
0
 40
0
 40
1
 40
1
 40
1
 40
1
 10
15.800535
 20
10.785242
 30
0.0
 10
12.877877
 20
10.244476
 30
0.0
 10
9.482109
 20
12.617965
 30
0.0
 10
9.482109
 20
15.201523
 30
0.0
  0
SPLINE
  5
132
100
AcDbEntity
  8
Layer_1
 62
7
100
AcDbSpline
 70
8
 71
3
 72
8
 73
4
 74
0
 40
0
 40
0
 40
0
 40
0
 40
1
 40
1
 40
1
 40
1
 10
9.482109
 20
15.201523
 30
0.0
 10
9.482109
 20
15.554301
 30
0.0
 10
9.262143
 20
16.122581
 30
0.0
 10
8.993296
 20
16.464360
 30
0.0
  0
SPLINE
  5
133
100
AcDbEntity
  8
Layer_1
 62
7
100
AcDbSpline
 70
8
 71
3
 72
8
 73
4
 74
0
 40
0
 40
0
 40
0
 40
0
 40
1
 40
1
 40
1
 40
1
 10
8.993296
 20
16.464360
 30
0.0
 10
8.352677
 20
17.278777
 30
0.0
 10
8.374939
 20
18.064030
 30
0.0
 10
9.061267
 20
18.861931
 30
0.0
  0
SPLINE
  5
134
100
AcDbEntity
  8
Layer_1
 62
7
100
AcDbSpline
 70
8
 71
3
 72
8
 73
4
 74
0
 40
0
 40
0
 40
0
 40
0
 40
1
 40
1
 40
1
 40
1
 10
9.061267
 20
18.861931
 30
0.0
 10
10.247189
 20
20.240646
 30
0.0
 10
12.659382
 20
19.402677
 30
0.0
 10
12.659382
 20
17.611980
 30
0.0
  0
SPLINE
  5
135
100
AcDbEntity
  8
Layer_1
 62
7
100
AcDbSpline
 70
8
 71
3
 72
8
 73
4
 74
0
 40
0
 40
0
 40
0
 40
0
 40
1
 40
1
 40
1
 40
1
 10
12.659382
 20
17.611980
 30
0.0
 10
12.659382
 20
16.998294
 30
0.0
 10
12.462000
 20
16.664524
 30
0.0
 10
11.771482
 20
16.110572
 30
0.0
  0
SPLINE
  5
136
100
AcDbEntity
  8
Layer_1
 62
7
100
AcDbSpline
 70
8
 71
3
 72
8
 73
4
 74
0
 40
0
 40
0
 40
0
 40
0
 40
1
 40
1
 40
1
 40
1
 10
11.771482
 20
16.110572
 30
0.0
 10
10.953192
 20
15.454118
 30
0.0
 10
10.907683
 20
15.351660
 30
0.0
 10
11.191009
 20
14.803734
 30
0.0
  0
SPLINE
  5
137
100
AcDbEntity
  8
Layer_1
 62
7
100
AcDbSpline
 70
8
 71
3
 72
8
 73
4
 74
0
 40
0
 40
0
 40
0
 40
0
 40
1
 40
1
 40
1
 40
1
 10
11.191009
 20
14.803734
 30
0.0
 10
12.062038
 20
13.119248
 30
0.0
 10
13.607888
 20
12.396449
 30
0.0
 10
15.341234
 20
12.863188
 30
0.0
  0
SPLINE
  5
138
100
AcDbEntity
  8
Layer_1
 62
7
100
AcDbSpline
 70
8
 71
3
 72
8
 73
4
 74
0
 40
0
 40
0
 40
0
 40
0
 40
1
 40
1
 40
1
 40
1
 10
15.341234
 20
12.863188
 30
0.0
 10
17.267699
 20
13.381940
 30
0.0
 10
18.104318
 20
15.268365
 30
0.0
 10
19.256172
 20
21.690695
 30
0.0
  0
SPLINE
  5
139
100
AcDbEntity
  8
Layer_1
 62
7
100
AcDbSpline
 70
8
 71
3
 72
8
 73
4
 74
0
 40
0
 40
0
 40
0
 40
0
 40
1
 40
1
 40
1
 40
1
 10
19.256172
 20
21.690695
 30
0.0
 10
20.473619
 20
28.478769
 30
0.0
 10
20.362304
 20
27.069857
 30
0.0
 10
20.906355
 20
31.355282
 30
0.0
  0
SPLINE
  5
13a
100
AcDbEntity
  8
Layer_1
 62
7
100
AcDbSpline
 70
8
 71
3
 72
8
 73
4
 74
0
 40
0
 40
0
 40
0
 40
0
 40
1
 40
1
 40
1
 40
1
 10
20.906355
 20
31.355282
 30
0.0
 10
20.990605
 20
32.018905
 30
0.0
 10
20.746544
 20
32.269914
 30
0.0
 10
20.548324
 20
32.684848
 30
0.0
  0
SPLINE
  5
13b
100
AcDbEntity
  8
Layer_1
 62
7
100
AcDbSpline
 70
8
 71
3
 72
8
 73
4
 74
0
 40
0
 40
0
 40
0
 40
0
 40
1
 40
1
 40
1
 40
1
 10
20.548324
 20
32.684848
 30
0.0
 10
20.363306
 20
33.072145
 30
0.0
 10
19.250442
 20
33.598359
 30
0.0
 10
18.435983
 20
33.227426
 30
0.0
  0
SPLINE
  5
13c
100
AcDbEntity
  8
Layer_1
 62
7
100
AcDbSpline
 70
8
 71
3
 72
8
 73
4
 74
0
 40
0
 40
0
 40
0
 40
0
 40
1
 40
1
 40
1
 40
1
 10
18.435983
 20
33.227426
 30
0.0
 10
15.941315
 20
32.091273
 30
0.0
 10
17.696505
 20
32.690222
 30
0.0
 10
12.477698
 20
30.801091
 30
0.0
  0
SPLINE
  5
13d
100
AcDbEntity
  8
Layer_1
 62
7
100
AcDbSpline
 70
8
 71
3
 72
8
 73
4
 74
0
 40
0
 40
0
 40
0
 40
0
 40
1
 40
1
 40
1
 40
1
 10
12.477698
 20
30.801091
 30
0.0
 10
8.541203
 20
29.376140
 30
0.0
 10
7.131910
 20
28.395423
 30
0.0
 10
6.200653
 20
26.432946
 30
0.0
  0
SPLINE
  5
13e
100
AcDbEntity
  8
Layer_1
 62
7
100
AcDbSpline
 70
8
 71
3
 72
8
 73
4
 74
0
 40
0
 40
0
 40
0
 40
0
 40
1
 40
1
 40
1
 40
1
 10
6.200653
 20
26.432946
 30
0.0
 10
4.977421
 20
23.855176
 30
0.0
 10
7.249508
 20
21.269230
 30
0.0
 10
9.312112
 20
22.891675
 30
0.0
  0
SPLINE
  5
13f
100
AcDbEntity
  8
Layer_1
 62
7
100
AcDbSpline
 70
8
 71
3
 72
8
 73
4
 74
0
 40
0
 40
0
 40
0
 40
0
 40
1
 40
1
 40
1
 40
1
 10
9.312112
 20
22.891675
 30
0.0
 10
9.858163
 20
23.321198
 30
0.0
 10
9.909670
 20
23.477165
 30
0.0
 10
9.702102
 20
24.072597
 30
0.0
  0
SPLINE
  5
140
100
AcDbEntity
  8
Layer_1
 62
7
100
AcDbSpline
 70
8
 71
3
 72
8
 73
4
 74
0
 40
0
 40
0
 40
0
 40
0
 40
1
 40
1
 40
1
 40
1
 10
9.702102
 20
24.072597
 30
0.0
 10
9.155392
 20
25.640889
 30
0.0
 10
10.755830
 20
27.093447
 30
0.0
 10
12.399266
 20
26.520539
 30
0.0
  0
SPLINE
  5
141
100
AcDbEntity
  8
Layer_1
 62
7
100
AcDbSpline
 70
8
 71
3
 72
8
 73
4
 74
0
 40
0
 40
0
 40
0
 40
0
 40
1
 40
1
 40
1
 40
1
 10
12.399266
 20
26.520539
 30
0.0
 10
13.787351
 20
26.036649
 30
0.0
 10
14.120889
 20
24.279325
 30
0.0
 10
12.993029
 20
23.392151
 30
0.0
  0
SPLINE
  5
142
100
AcDbEntity
  8
Layer_1
 62
7
100
AcDbSpline
 70
8
 71
3
 72
8
 73
4
 74
0
 40
0
 40
0
 40
0
 40
0
 40
1
 40
1
 40
1
 40
1
 10
12.993029
 20
23.392151
 30
0.0
 10
12.638843
 20
23.113550
 30
0.0
 10
12.244918
 20
22.885602
 30
0.0
 10
12.117641
 20
22.885602
 30
0.0
  0
SPLINE
  5
143
100
AcDbEntity
  8
Layer_1
 62
7
100
AcDbSpline
 70
8
 71
3
 72
8
 73
4
 74
0
 40
0
 40
0
 40
0
 40
0
 40
1
 40
1
 40
1
 40
1
 10
12.117641
 20
22.885602
 30
0.0
 10
11.990363
 20
22.885602
 30
0.0
 10
11.427786
 20
22.515202
 30
0.0
 10
10.867470
 20
22.062489
 30
0.0
  0
SPLINE
  5
144
100
AcDbEntity
  8
Layer_1
 62
7
100
AcDbSpline
 70
8
 71
3
 72
8
 73
4
 74
0
 40
0
 40
0
 40
0
 40
0
 40
1
 40
1
 40
1
 40
1
 10
10.867470
 20
22.062489
 30
0.0
 10
9.438357
 20
20.907825
 30
0.0
 10
8.931336
 20
20.685950
 30
0.0
 10
7.721867
 20
20.685950
 30
0.0
  0
SPLINE
  5
145
100
AcDbEntity
  8
Layer_1
 62
7
100
AcDbSpline
 70
8
 71
3
 72
8
 73
4
 74
0
 40
0
 40
0
 40
0
 40
0
 40
1
 40
1
 40
1
 40
1
 10
7.721867
 20
20.685950
 30
0.0
 10
4.529557
 20
20.685950
 30
0.0
 10
2.872040
 20
24.590410
 30
0.0
 10
4.557341
 20
28.140323
 30
0.0
  0
SPLINE
  5
146
100
AcDbEntity
  8
Layer_1
 62
7
100
AcDbSpline
 70
8
 71
3
 72
8
 73
4
 74
0
 40
0
 40
0
 40
0
 40
0
 40
1
 40
1
 40
1
 40
1
 10
4.557341
 20
28.140323
 30
0.0
 10
5.774242
 20
30.703603
 30
0.0
 10
7.085731
 20
31.641693
 30
0.0
 10
12.781583
 20
34.023028
 30
0.0
  0
SPLINE
  5
147
100
AcDbEntity
  8
Layer_1
 62
7
100
AcDbSpline
 70
8
 71
3
 72
8
 73
4
 74
0
 40
0
 40
0
 40
0
 40
0
 40
1
 40
1
 40
1
 40
1
 10
12.781583
 20
34.023028
 30
0.0
 10
13.991392
 20
34.528829
 30
0.0
 10
15.531149
 20
35.293465
 30
0.0
 10
16.203263
 20
35.722225
 30
0.0
  0
SPLINE
  5
148
100
AcDbEntity
  8
Layer_1
 62
7
100
AcDbSpline
 70
8
 71
3
 72
8
 73
4
 74
0
 40
0
 40
0
 40
0
 40
0
 40
1
 40
1
 40
1
 40
1
 10
16.203263
 20
35.722225
 30
0.0
 10
19.106605
 20
37.574340
 30
0.0
 10
21.855469
 20
41.355590
 30
0.0
 10
25.389206
 20
48.358119
 30
0.0
  0
LINE
  5
149
100
AcDbEntity
  8
Layer_1
 62
7
100
AcDbLine
 10
25.389206
 20
48.358119
 30
0.0
 11
27.609979
 21
52.758852
 31
0.0
  0
LINE
  5
14a
100
AcDbEntity
  8
Layer_1
 62
7
100
AcDbLine
 10
27.609979
 20
52.758852
 30
0.0
 11
26.813771
 21
53.580333
 31
0.0
  0
LINE
  5
14b
100
AcDbEntity
  8
Layer_1
 62
7
100
AcDbLine
 10
26.813771
 20
53.580333
 30
0.0
 11
26.017563
 21
54.401809
 31
0.0
  0
LINE
  5
14c
100
AcDbEntity
  8
Layer_1
 62
7
100
AcDbLine
 10
26.017563
 20
54.401809
 30
0.0
 11
25.201346
 21
53.897359
 31
0.0
  0
LINE
  5
14d
100
AcDbEntity
  8
Layer_1
 62
7
100
AcDbLine
 10
25.201346
 20
53.897359
 30
0.0
 11
24.385130
 21
53.392909
 31
0.0
  0
LINE
  5
14e
100
AcDbEntity
  8
Layer_1
 62
7
100
AcDbLine
 10
24.385130
 20
53.392909
 30
0.0
 11
22.982660
 21
54.613681
 31
0.0
  0
SPLINE
  5
14f
100
AcDbEntity
  8
Layer_1
 62
7
100
AcDbSpline
 70
8
 71
3
 72
8
 73
4
 74
0
 40
0
 40
0
 40
0
 40
0
 40
1
 40
1
 40
1
 40
1
 10
22.982660
 20
54.613681
 30
0.0
 10
22.211301
 20
55.285105
 30
0.0
 10
21.280495
 20
56.150376
 30
0.0
 10
20.914200
 20
56.536507
 30
0.0
  0
LINE
  5
150
100
AcDbEntity
  8
Layer_1
 62
7
100
AcDbLine
 10
20.914200
 20
56.536507
 30
0.0
 11
20.248211
 21
57.238563
 31
0.0
  0
LINE
  5
151
100
AcDbEntity
  8
Layer_1
 62
7
100
AcDbLine
 10
20.248211
 20
57.238563
 30
0.0
 11
21.708035
 21
59.309029
 31
0.0
  0
SPLINE
  5
152
100
AcDbEntity
  8
Layer_1
 62
7
100
AcDbSpline
 70
8
 71
3
 72
8
 73
4
 74
0
 40
0
 40
0
 40
0
 40
0
 40
1
 40
1
 40
1
 40
1
 10
21.708035
 20
59.309029
 30
0.0
 10
22.510939
 20
60.447791
 30
0.0
 10
23.162935
 20
61.489484
 30
0.0
 10
23.156917
 20
61.623906
 30
0.0
  0
SPLINE
  5
153
100
AcDbEntity
  8
Layer_1
 62
7
100
AcDbSpline
 70
8
 71
3
 72
8
 73
4
 74
0
 40
0
 40
0
 40
0
 40
0
 40
1
 40
1
 40
1
 40
1
 10
23.156917
 20
61.623906
 30
0.0
 10
23.150905
 20
61.758332
 30
0.0
 10
22.787533
 20
62.748173
 30
0.0
 10
22.349436
 20
63.823558
 30
0.0
  0
LINE
  5
154
100
AcDbEntity
  8
Layer_1
 62
7
100
AcDbLine
 10
22.349436
 20
63.823558
 30
0.0
 11
21.552897
 21
65.778805
 31
0.0
  0
LINE
  5
155
100
AcDbEntity
  8
Layer_1
 62
7
100
AcDbLine
 10
21.552897
 20
65.778805
 30
0.0
 11
19.489095
 21
66.206230
 31
0.0
  0
SPLINE
  5
156
100
AcDbEntity
  8
Layer_1
 62
7
100
AcDbSpline
 70
8
 71
3
 72
8
 73
4
 74
0
 40
0
 40
0
 40
0
 40
0
 40
1
 40
1
 40
1
 40
1
 10
19.489095
 20
66.206230
 30
0.0
 10
18.354004
 20
66.441316
 30
0.0
 10
17.177831
 20
66.690871
 30
0.0
 10
16.875379
 20
66.760800
 30
0.0
  0
SPLINE
  5
157
100
AcDbEntity
  8
Layer_1
 62
7
100
AcDbSpline
 70
8
 71
3
 72
8
 73
4
 74
0
 40
0
 40
0
 40
0
 40
0
 40
1
 40
1
 40
1
 40
1
 10
16.875379
 20
66.760800
 30
0.0
 10
16.344823
 20
66.883468
 30
0.0
 10
16.325467
 20
66.985694
 30
0.0
 10
16.325467
 20
69.665092
 30
0.0
  0
LINE
  5
158
100
AcDbEntity
  8
Layer_1
 62
7
100
AcDbLine
 10
16.325467
 20
69.665092
 30
0.0
 11
16.325467
 21
72.442241
 31
0.0
  0
LINE
  5
159
100
AcDbEntity
  8
Layer_1
 62
7
100
AcDbLine
 10
16.325467
 20
72.442241
 30
0.0
 11
18.708422
 21
72.867075
 31
0.0
  0
SPLINE
  5
15a
100
AcDbEntity
  8
Layer_1
 62
7
100
AcDbSpline
 70
8
 71
3
 72
8
 73
4
 74
0
 40
0
 40
0
 40
0
 40
0
 40
1
 40
1
 40
1
 40
1
 10
18.708422
 20
72.867075
 30
0.0
 10
21.526745
 20
73.369530
 30
0.0
 10
21.819278
 20
73.499335
 30
0.0
 10
22.138130
 20
74.388947
 30
0.0
  0
SPLINE
  5
15b
100
AcDbEntity
  8
Layer_1
 62
7
100
AcDbSpline
 70
8
 71
3
 72
8
 73
4
 74
0
 40
0
 40
0
 40
0
 40
0
 40
1
 40
1
 40
1
 40
1
 10
22.138130
 20
74.388947
 30
0.0
 10
22.271641
 20
74.761447
 30
0.0
 10
22.600254
 20
75.616134
 30
0.0
 10
22.868383
 20
76.288249
 30
0.0
  0
LINE
  5
15c
100
AcDbEntity
  8
Layer_1
 62
7
100
AcDbLine
 10
22.868383
 20
76.288249
 30
0.0
 11
23.355887
 21
77.510277
 31
0.0
  0
LINE
  5
15d
100
AcDbEntity
  8
Layer_1
 62
7
100
AcDbLine
 10
23.355887
 20
77.510277
 30
0.0
 11
21.787961
 21
79.696822
 31
0.0
  0
LINE
  5
15e
100
AcDbEntity
  8
Layer_1
 62
7
100
AcDbLine
 10
21.787961
 20
79.696822
 30
0.0
 11
20.220035
 21
81.883367
 31
0.0
  0
LINE
  5
15f
100
AcDbEntity
  8
Layer_1
 62
7
100
AcDbLine
 10
20.220035
 20
81.883367
 30
0.0
 11
22.220378
 21
83.894155
 31
0.0
  0
LINE
  5
160
100
AcDbEntity
  8
Layer_1
 62
7
100
AcDbLine
 10
22.220378
 20
83.894155
 30
0.0
 11
24.220722
 21
85.904943
 31
0.0
  0
LINE
  5
161
100
AcDbEntity
  8
Layer_1
 62
7
100
AcDbLine
 10
24.220722
 20
85.904943
 30
0.0
 11
26.373862
 21
84.457174
 31
0.0
  0
SPLINE
  5
162
100
AcDbEntity
  8
Layer_1
 62
7
100
AcDbSpline
 70
8
 71
3
 72
8
 73
4
 74
0
 40
0
 40
0
 40
0
 40
0
 40
1
 40
1
 40
1
 40
1
 10
26.373862
 20
84.457174
 30
0.0
 10
27.558088
 20
83.660904
 30
0.0
 10
28.695035
 20
83.009408
 30
0.0
 10
28.900414
 20
83.009408
 30
0.0
  0
SPLINE
  5
163
100
AcDbEntity
  8
Layer_1
 62
7
100
AcDbSpline
 70
8
 71
3
 72
8
 73
4
 74
0
 40
0
 40
0
 40
0
 40
0
 40
1
 40
1
 40
1
 40
1
 10
28.900414
 20
83.009408
 30
0.0
 10
29.105789
 20
83.009408
 30
0.0
 10
29.998326
 20
83.299445
 30
0.0
 10
30.883823
 20
83.653933
 30
0.0
  0
SPLINE
  5
164
100
AcDbEntity
  8
Layer_1
 62
7
100
AcDbSpline
 70
8
 71
3
 72
8
 73
4
 74
0
 40
0
 40
0
 40
0
 40
0
 40
1
 40
1
 40
1
 40
1
 10
30.883823
 20
83.653933
 30
0.0
 10
32.707591
 20
84.384036
 30
0.0
 10
32.801820
 20
84.325823
 30
0.0
 10
33.305933
 20
87.592014
 30
0.0
  0
LINE
  5
165
100
AcDbEntity
  8
Layer_1
 62
7
100
AcDbLine
 10
33.305933
 20
87.592014
 30
0.0
 11
34.140964
 21
93.002240
 31
0.0
  0
SPLINE
  5
166
100
AcDbEntity
  8
Layer_1
 62
7
100
AcDbSpline
 70
8
 71
3
 72
8
 73
4
 74
0
 40
0
 40
0
 40
0
 40
0
 40
1
 40
1
 40
1
 40
1
 10
34.140964
 20
93.002240
 30
0.0
 10
34.197965
 20
92.997075
 30
0.0
 10
33.878830
 20
93.095373
 30
0.0
 10
33.562440
 20
93.155069
 30
0.0
  0
SPLINE
  5
167
100
AcDbEntity
  8
Layer_1
 62
7
100
AcDbSpline
 70
8
 71
3
 72
8
 73
4
 74
0
 40
0
 40
0
 40
0
 40
0
 40
1
 40
1
 40
1
 40
1
 10
33.562440
 20
93.155069
 30
0.0
 10
33.246052
 20
93.214767
 30
0.0
 10
32.941760
 20
93.238996
 30
0.0
 10
32.997270
 20
93.229183
 30
0.0
  0
SPLINE
  5
168
100
AcDbEntity
  8
Layer_1
 62
7
100
AcDbSpline
 70
8
 71
3
 72
8
 73
4
 74
0
 40
0
 40
0
 40
0
 40
0
 40
1
 40
1
 40
1
 40
1
 10
32.997270
 20
93.229183
 30
0.0
 10
33.052780
 20
93.219362
 30
0.0
 10
32.730643
 20
93.268491
 30
0.0
 10
32.133786
 20
93.241770
 30
0.0
  0
SPLINE
  5
169
100
AcDbEntity
  8
Layer_1
 62
7
100
AcDbSpline
 70
8
 71
3
 72
8
 73
4
 74
0
 40
0
 40
0
 40
0
 40
0
 40
1
 40
1
 40
1
 40
1
 10
32.133786
 20
93.241770
 30
0.0
 10
31.536928
 20
93.215044
 30
0.0
 10
30.665660
 20
93.103552
 30
0.0
 10
30.721122
 20
93.111033
 30
0.0
  0
SPLINE
  5
16a
100
AcDbEntity
  8
Layer_1
 62
7
100
AcDbSpline
 70
8
 71
3
 72
8
 73
4
 74
0
 40
0
 40
0
 40
0
 40
0
 40
1
 40
1
 40
1
 40
1
 10
30.721122
 20
93.111033
 30
0.0
 10
30.780011
 20
93.118964
 30
0.0
 10
30.440447
 20
93.050999
 30
0.0
 10
30.063189
 20
92.883935
 30
0.0
  0
SPLINE
  5
16b
100
AcDbEntity
  8
Layer_1
 62
7
100
AcDbSpline
 70
8
 71
3
 72
8
 73
4
 74
0
 40
0
 40
0
 40
0
 40
0
 40
1
 40
1
 40
1
 40
1
 10
30.063189
 20
92.883935
 30
0.0
 10
29.685928
 20
92.716873
 30
0.0
 10
29.335185
 20
92.400900
 30
0.0
 10
29.375532
 20
92.439562
 30
0.0
  0
SPLINE
  5
16c
100
AcDbEntity
  8
Layer_1
 62
7
100
AcDbSpline
 70
8
 71
3
 72
8
 73
4
 74
0
 40
0
 40
0
 40
0
 40
0
 40
1
 40
1
 40
1
 40
1
 10
29.375532
 20
92.439562
 30
0.0
 10
29.458260
 20
92.518841
 30
0.0
 10
29.272270
 20
92.322699
 30
0.0
 10
29.079817
 20
92.113364
 30
0.0
  0
SPLINE
  5
16d
100
AcDbEntity
  8
Layer_1
 62
7
100
AcDbSpline
 70
8
 71
3
 72
8
 73
4
 74
0
 40
0
 40
0
 40
0
 40
0
 40
1
 40
1
 40
1
 40
1
 10
29.079817
 20
92.113364
 30
0.0
 10
28.887364
 20
91.904028
 30
0.0
 10
28.730660
 20
91.593155
 30
0.0
 10
28.706341
 20
91.542710
 30
0.0
  0
SPLINE
  5
16e
100
AcDbEntity
  8
Layer_1
 62
7
100
AcDbSpline
 70
8
 71
3
 72
8
 73
4
 74
0
 40
0
 40
0
 40
0
 40
0
 40
1
 40
1
 40
1
 40
1
 10
28.706341
 20
91.542710
 30
0.0
 10
28.664987
 20
91.456937
 30
0.0
 10
28.540608
 20
91.190311
 30
0.0
 10
28.341213
 20
91.004180
 30
0.0
  0
SPLINE
  5
16f
100
AcDbEntity
  8
Layer_1
 62
7
100
AcDbSpline
 70
8
 71
3
 72
8
 73
4
 74
0
 40
0
 40
0
 40
0
 40
0
 40
1
 40
1
 40
1
 40
1
 10
28.341213
 20
91.004180
 30
0.0
 10
28.141817
 20
90.818048
 30
0.0
 10
28.018930
 20
90.779463
 30
0.0
 10
27.965651
 20
90.761516
 30
0.0
  0
SPLINE
  5
170
100
AcDbEntity
  8
Layer_1
 62
7
100
AcDbSpline
 70
8
 71
3
 72
8
 73
4
 74
0
 40
0
 40
0
 40
0
 40
0
 40
1
 40
1
 40
1
 40
1
 10
27.965651
 20
90.761516
 30
0.0
 10
27.889280
 20
90.735806
 30
0.0
 10
27.680232
 20
90.694412
 30
0.0
 10
27.396216
 20
90.705600
 30
0.0
  0
SPLINE
  5
171
100
AcDbEntity
  8
Layer_1
 62
7
100
AcDbSpline
 70
8
 71
3
 72
8
 73
4
 74
0
 40
0
 40
0
 40
0
 40
0
 40
1
 40
1
 40
1
 40
1
 10
27.396216
 20
90.705600
 30
0.0
 10
27.112200
 20
90.716804
 30
0.0
 10
27.037323
 20
90.712260
 30
0.0
 10
26.978781
 20
90.711131
 30
0.0
  0
SPLINE
  5
172
100
AcDbEntity
  8
Layer_1
 62
7
100
AcDbSpline
 70
8
 71
3
 72
8
 73
4
 74
0
 40
0
 40
0
 40
0
 40
0
 40
1
 40
1
 40
1
 40
1
 10
26.978781
 20
90.711131
 30
0.0
 10
26.962056
 20
90.710849
 30
0.0
 10
26.944963
 20
90.710002
 30
0.0
 10
26.929731
 20
90.709438
 30
0.0
  0
SPLINE
  5
173
100
AcDbEntity
  8
Layer_1
 62
7
100
AcDbSpline
 70
8
 71
3
 72
8
 73
4
 74
0
 40
0
 40
0
 40
0
 40
0
 40
1
 40
1
 40
1
 40
1
 10
26.929731
 20
90.709438
 30
0.0
 10
26.900397
 20
90.708309
 30
0.0
 10
26.871062
 20
90.708027
 30
0.0
 10
26.844110
 20
90.707180
 30
0.0
  0
SPLINE
  5
174
100
AcDbEntity
  8
Layer_1
 62
7
100
AcDbSpline
 70
8
 71
3
 72
8
 73
4
 74
0
 40
0
 40
0
 40
0
 40
0
 40
1
 40
1
 40
1
 40
1
 10
26.844110
 20
90.707180
 30
0.0
 10
26.827094
 20
90.706898
 30
0.0
 10
26.808786
 20
90.706616
 30
0.0
 10
26.789294
 20
90.706334
 30
0.0
  0
SPLINE
  5
175
100
AcDbEntity
  8
Layer_1
 62
7
100
AcDbSpline
 70
8
 71
3
 72
8
 73
4
 74
0
 40
0
 40
0
 40
0
 40
0
 40
1
 40
1
 40
1
 40
1
 10
26.789294
 20
90.706334
 30
0.0
 10
26.769801
 20
90.706173
 30
0.0
 10
26.749129
 20
90.706119
 30
0.0
 10
26.727388
 20
90.706218
 30
0.0
  0
SPLINE
  5
176
100
AcDbEntity
  8
Layer_1
 62
7
100
AcDbSpline
 70
8
 71
3
 72
8
 73
4
 74
0
 40
0
 40
0
 40
0
 40
0
 40
1
 40
1
 40
1
 40
1
 10
26.727388
 20
90.706218
 30
0.0
 10
26.705645
 20
90.706317
 30
0.0
 10
26.682837
 20
90.706500
 30
0.0
 10
26.659073
 20
90.707065
 30
0.0
  0
SPLINE
  5
177
100
AcDbEntity
  8
Layer_1
 62
7
100
AcDbSpline
 70
8
 71
3
 72
8
 73
4
 74
0
 40
0
 40
0
 40
0
 40
0
 40
1
 40
1
 40
1
 40
1
 10
26.659073
 20
90.707065
 30
0.0
 10
26.635310
 20
90.707629
 30
0.0
 10
26.610593
 20
90.708193
 30
0.0
 10
26.585036
 20
90.709040
 30
0.0
  0
SPLINE
  5
178
100
AcDbEntity
  8
Layer_1
 62
7
100
AcDbSpline
 70
8
 71
3
 72
8
 73
4
 74
0
 40
0
 40
0
 40
0
 40
0
 40
1
 40
1
 40
1
 40
1
 10
26.585036
 20
90.709040
 30
0.0
 10
26.559478
 20
90.709887
 30
0.0
 10
26.535109
 20
90.710451
 30
0.0
 10
26.511918
 20
90.710733
 30
0.0
  0
SPLINE
  5
179
100
AcDbEntity
  8
Layer_1
 62
7
100
AcDbSpline
 70
8
 71
3
 72
8
 73
4
 74
0
 40
0
 40
0
 40
0
 40
0
 40
1
 40
1
 40
1
 40
1
 10
26.511918
 20
90.710733
 30
0.0
 10
26.488728
 20
90.710985
 30
0.0
 10
26.466716
 20
90.710954
 30
0.0
 10
26.445875
 20
90.710711
 30
0.0
  0
SPLINE
  5
17a
100
AcDbEntity
  8
Layer_1
 62
7
100
AcDbSpline
 70
8
 71
3
 72
8
 73
4
 74
0
 40
0
 40
0
 40
0
 40
0
 40
1
 40
1
 40
1
 40
1
 10
26.445875
 20
90.710711
 30
0.0
 10
26.425036
 20
90.710468
 30
0.0
 10
26.405366
 20
90.710146
 30
0.0
 10
26.386860
 20
90.709300
 30
0.0
  0
SPLINE
  5
17b
100
AcDbEntity
  8
Layer_1
 62
7
100
AcDbSpline
 70
8
 71
3
 72
8
 73
4
 74
0
 40
0
 40
0
 40
0
 40
0
 40
1
 40
1
 40
1
 40
1
 10
26.386860
 20
90.709300
 30
0.0
 10
26.353433
 20
90.708453
 30
0.0
 10
26.321138
 20
90.706054
 30
0.0
 10
26.289712
 20
90.704502
 30
0.0
  0
SPLINE
  5
17c
100
AcDbEntity
  8
Layer_1
 62
7
100
AcDbSpline
 70
8
 71
3
 72
8
 73
4
 74
0
 40
0
 40
0
 40
0
 40
0
 40
1
 40
1
 40
1
 40
1
 10
26.289712
 20
90.704502
 30
0.0
 10
26.255832
 20
90.701962
 30
0.0
 10
26.226914
 20
90.700748
 30
0.0
 10
26.195468
 20
90.698857
 30
0.0
  0
SPLINE
  5
17d
100
AcDbEntity
  8
Layer_1
 62
7
100
AcDbSpline
 70
8
 71
3
 72
8
 73
4
 74
0
 40
0
 40
0
 40
0
 40
0
 40
1
 40
1
 40
1
 40
1
 10
26.195468
 20
90.698857
 30
0.0
 10
26.186203
 20
90.698595
 30
0.0
 10
26.194340
 20
90.723016
 30
0.0
 10
26.208168
 20
90.759617
 30
0.0
  0
SPLINE
  5
17e
100
AcDbEntity
  8
Layer_1
 62
7
100
AcDbSpline
 70
8
 71
3
 72
8
 73
4
 74
0
 40
0
 40
0
 40
0
 40
0
 40
1
 40
1
 40
1
 40
1
 10
26.208168
 20
90.759617
 30
0.0
 10
26.221052
 20
90.793732
 30
0.0
 10
26.248658
 20
90.850645
 30
0.0
 10
26.267090
 20
90.922869
 30
0.0
  0
SPLINE
  5
17f
100
AcDbEntity
  8
Layer_1
 62
7
100
AcDbSpline
 70
8
 71
3
 72
8
 73
4
 74
0
 40
0
 40
0
 40
0
 40
0
 40
1
 40
1
 40
1
 40
1
 10
26.267090
 20
90.922869
 30
0.0
 10
26.285522
 20
90.995092
 30
0.0
 10
26.318167
 20
91.067033
 30
0.0
 10
26.348930
 20
91.167067
 30
0.0
  0
SPLINE
  5
180
100
AcDbEntity
  8
Layer_1
 62
7
100
AcDbSpline
 70
8
 71
3
 72
8
 73
4
 74
0
 40
0
 40
0
 40
0
 40
0
 40
1
 40
1
 40
1
 40
1
 10
26.348930
 20
91.167067
 30
0.0
 10
26.379693
 20
91.267098
 30
0.0
 10
26.427282
 20
91.396776
 30
0.0
 10
26.469364
 20
91.518995
 30
0.0
  0
SPLINE
  5
181
100
AcDbEntity
  8
Layer_1
 62
7
100
AcDbSpline
 70
8
 71
3
 72
8
 73
4
 74
0
 40
0
 40
0
 40
0
 40
0
 40
1
 40
1
 40
1
 40
1
 10
26.469364
 20
91.518995
 30
0.0
 10
26.511447
 20
91.641212
 30
0.0
 10
26.555818
 20
91.762203
 30
0.0
 10
26.608208
 20
91.900983
 30
0.0
  0
SPLINE
  5
182
100
AcDbEntity
  8
Layer_1
 62
7
100
AcDbSpline
 70
8
 71
3
 72
8
 73
4
 74
0
 40
0
 40
0
 40
0
 40
0
 40
1
 40
1
 40
1
 40
1
 10
26.608208
 20
91.900983
 30
0.0
 10
26.660598
 20
92.039763
 30
0.0
 10
26.700740
 20
92.194776
 30
0.0
 10
26.762426
 20
92.344495
 30
0.0
  0
SPLINE
  5
183
100
AcDbEntity
  8
Layer_1
 62
7
100
AcDbSpline
 70
8
 71
3
 72
8
 73
4
 74
0
 40
0
 40
0
 40
0
 40
0
 40
1
 40
1
 40
1
 40
1
 10
26.762426
 20
92.344495
 30
0.0
 10
26.824113
 20
92.494217
 30
0.0
 10
26.860573
 20
92.649561
 30
0.0
 10
26.930544
 20
92.804599
 30
0.0
  0
SPLINE
  5
184
100
AcDbEntity
  8
Layer_1
 62
7
100
AcDbSpline
 70
8
 71
3
 72
8
 73
4
 74
0
 40
0
 40
0
 40
0
 40
0
 40
1
 40
1
 40
1
 40
1
 10
26.930544
 20
92.804599
 30
0.0
 10
27.000516
 20
92.959635
 30
0.0
 10
27.063464
 20
93.117485
 30
0.0
 10
27.140709
 20
93.272219
 30
0.0
  0
SPLINE
  5
185
100
AcDbEntity
  8
Layer_1
 62
7
100
AcDbSpline
 70
8
 71
3
 72
8
 73
4
 74
0
 40
0
 40
0
 40
0
 40
0
 40
1
 40
1
 40
1
 40
1
 10
27.140709
 20
93.272219
 30
0.0
 10
27.295199
 20
93.581684
 30
0.0
 10
27.401732
 20
93.902164
 30
0.0
 10
27.581251
 20
94.181945
 30
0.0
  0
SPLINE
  5
186
100
AcDbEntity
  8
Layer_1
 62
7
100
AcDbSpline
 70
8
 71
3
 72
8
 73
4
 74
0
 40
0
 40
0
 40
0
 40
0
 40
1
 40
1
 40
1
 40
1
 10
27.581251
 20
94.181945
 30
0.0
 10
27.760771
 20
94.461729
 30
0.0
 10
27.933460
 20
94.725757
 30
0.0
 10
28.097678
 20
94.942980
 30
0.0
  0
SPLINE
  5
187
100
AcDbEntity
  8
Layer_1
 62
7
100
AcDbSpline
 70
8
 71
3
 72
8
 73
4
 74
0
 40
0
 40
0
 40
0
 40
0
 40
1
 40
1
 40
1
 40
1
 10
28.097678
 20
94.942980
 30
0.0
 10
28.261894
 20
95.160207
 30
0.0
 10
28.525611
 20
95.362879
 30
0.0
 10
28.634196
 20
95.484675
 30
0.0
  0
SPLINE
  5
188
100
AcDbEntity
  8
Layer_1
 62
7
100
AcDbSpline
 70
8
 71
3
 72
8
 73
4
 74
0
 40
0
 40
0
 40
0
 40
0
 40
1
 40
1
 40
1
 40
1
 10
28.634196
 20
95.484675
 30
0.0
 10
28.742778
 20
95.606471
 30
0.0
 10
29.256592
 20
96.047993
 30
0.0
 10
29.349988
 20
96.103582
 30
0.0
  0
SPLINE
  5
189
100
AcDbEntity
  8
Layer_1
 62
7
100
AcDbSpline
 70
8
 71
3
 72
8
 73
4
 74
0
 40
0
 40
0
 40
0
 40
0
 40
1
 40
1
 40
1
 40
1
 10
29.349988
 20
96.103582
 30
0.0
 10
29.581577
 20
96.241423
 30
0.0
 10
30.044009
 20
96.684980
 30
0.0
 10
31.202715
 20
97.001611
 30
0.0
  0
SPLINE
  5
18a
100
AcDbEntity
  8
Layer_1
 62
7
100
AcDbSpline
 70
8
 71
3
 72
8
 73
4
 74
0
 40
0
 40
0
 40
0
 40
0
 40
1
 40
1
 40
1
 40
1
 10
31.202715
 20
97.001611
 30
0.0
 10
31.562472
 20
97.099917
 30
0.0
 10
31.934441
 20
97.146230
 30
0.0
 10
32.306562
 20
97.194329
 30
0.0
  0
SPLINE
  5
18b
100
AcDbEntity
  8
Layer_1
 62
7
100
AcDbSpline
 70
8
 71
3
 72
8
 73
4
 74
0
 40
0
 40
0
 40
0
 40
0
 40
1
 40
1
 40
1
 40
1
 10
32.306562
 20
97.194329
 30
0.0
 10
32.678686
 20
97.242428
 30
0.0
 10
32.852278
 20
97.237396
 30
0.0
 10
33.174192
 20
97.261351
 30
0.0
  0
SPLINE
  5
18c
100
AcDbEntity
  8
Layer_1
 62
7
100
AcDbSpline
 70
8
 71
3
 72
8
 73
4
 74
0
 40
0
 40
0
 40
0
 40
0
 40
1
 40
1
 40
1
 40
1
 10
33.174192
 20
97.261351
 30
0.0
 10
33.506224
 20
97.286046
 30
0.0
 10
33.840214
 20
97.297272
 30
0.0
 10
34.043058
 20
97.300312
 30
0.0
  0
SPLINE
  5
18d
100
AcDbEntity
  8
Layer_1
 62
7
100
AcDbSpline
 70
8
 71
3
 72
8
 73
4
 74
0
 40
0
 40
0
 40
0
 40
0
 40
1
 40
1
 40
1
 40
1
 10
34.043058
 20
97.300312
 30
0.0
 10
34.228645
 20
97.302570
 30
0.0
 10
34.430149
 20
97.298336
 30
0.0
 10
34.574926
 20
97.286652
 30
0.0
  0
SPLINE
  5
18e
100
AcDbEntity
  8
Layer_1
 62
7
100
AcDbSpline
 70
8
 71
3
 72
8
 73
4
 74
0
 40
0
 40
0
 40
0
 40
0
 40
1
 40
1
 40
1
 40
1
 10
34.574926
 20
97.286652
 30
0.0
 10
34.696730
 20
97.273839
 30
0.0
 10
34.772563
 20
97.277254
 30
0.0
 10
34.859273
 20
97.263905
 30
0.0
  0
SPLINE
  5
18f
100
AcDbEntity
  8
Layer_1
 62
7
100
AcDbSpline
 70
8
 71
3
 72
8
 73
4
 74
0
 40
0
 40
0
 40
0
 40
0
 40
1
 40
1
 40
1
 40
1
 10
34.859273
 20
97.263905
 30
0.0
 10
34.945357
 20
97.250641
 30
0.0
 10
35.119643
 20
97.228165
 30
0.0
 10
35.222124
 20
97.203464
 30
0.0
  0
SPLINE
  5
190
100
AcDbEntity
  8
Layer_1
 62
7
100
AcDbSpline
 70
8
 71
3
 72
8
 73
4
 74
0
 40
0
 40
0
 40
0
 40
0
 40
1
 40
1
 40
1
 40
1
 10
35.222124
 20
97.203464
 30
0.0
 10
35.324604
 20
97.178770
 30
0.0
 10
35.397798
 20
97.135217
 30
0.0
 10
35.506273
 20
97.109321
 30
0.0
  0
SPLINE
  5
191
100
AcDbEntity
  8
Layer_1
 62
7
100
AcDbSpline
 70
8
 71
3
 72
8
 73
4
 74
0
 40
0
 40
0
 40
0
 40
0
 40
1
 40
1
 40
1
 40
1
 10
35.506273
 20
97.109321
 30
0.0
 10
35.940176
 20
97.005731
 30
0.0
 10
36.294763
 20
96.849383
 30
0.0
 10
36.345532
 20
96.824003
 30
0.0
  0
SPLINE
  5
192
100
AcDbEntity
  8
Layer_1
 62
7
100
AcDbSpline
 70
8
 71
3
 72
8
 73
4
 74
0
 40
0
 40
0
 40
0
 40
0
 40
1
 40
1
 40
1
 40
1
 10
36.345532
 20
96.824003
 30
0.0
 10
36.396303
 20
96.798631
 30
0.0
 10
36.384797
 20
96.782829
 30
0.0
 10
37.021973
 20
96.492939
 30
0.0
  0
SPLINE
  5
193
100
AcDbEntity
  8
Layer_1
 62
7
100
AcDbSpline
 70
8
 71
3
 72
8
 73
4
 74
0
 40
0
 40
0
 40
0
 40
0
 40
1
 40
1
 40
1
 40
1
 10
37.021973
 20
96.492939
 30
0.0
 10
37.659149
 20
96.203052
 30
0.0
 10
37.854269
 20
96.117688
 30
0.0
 10
37.905481
 20
96.093527
 30
0.0
  0
SPLINE
  5
194
100
AcDbEntity
  8
Layer_1
 62
7
100
AcDbSpline
 70
8
 71
3
 72
8
 73
4
 74
0
 40
0
 40
0
 40
0
 40
0
 40
1
 40
1
 40
1
 40
1
 10
37.905481
 20
96.093527
 30
0.0
 10
37.918294
 20
96.087487
 30
0.0
 10
38.432249
 20
95.869061
 30
0.0
 10
38.504653
 20
95.848739
 30
0.0
  0
SPLINE
  5
195
100
AcDbEntity
  8
Layer_1
 62
7
100
AcDbSpline
 70
8
 71
3
 72
8
 73
4
 74
0
 40
0
 40
0
 40
0
 40
0
 40
1
 40
1
 40
1
 40
1
 10
38.504653
 20
95.848739
 30
0.0
 10
38.577060
 20
95.828419
 30
0.0
 10
38.882636
 20
95.659624
 30
0.0
 10
38.997622
 20
95.629124
 30
0.0
  0
SPLINE
  5
196
100
AcDbEntity
  8
Layer_1
 62
7
100
AcDbSpline
 70
8
 71
3
 72
8
 73
4
 74
0
 40
0
 40
0
 40
0
 40
0
 40
1
 40
1
 40
1
 40
1
 10
38.997622
 20
95.629124
 30
0.0
 10
39.112605
 20
95.598625
 30
0.0
 10
39.634166
 20
95.396748
 30
0.0
 10
39.774704
 20
95.360164
 30
0.0
  0
SPLINE
  5
197
100
AcDbEntity
  8
Layer_1
 62
7
100
AcDbSpline
 70
8
 71
3
 72
8
 73
4
 74
0
 40
0
 40
0
 40
0
 40
0
 40
1
 40
1
 40
1
 40
1
 10
39.774704
 20
95.360164
 30
0.0
 10
39.915245
 20
95.323577
 30
0.0
 10
40.059895
 20
95.271746
 30
0.0
 10
40.208968
 20
95.233170
 30
0.0
  0
SPLINE
  5
198
100
AcDbEntity
  8
Layer_1
 62
7
100
AcDbSpline
 70
8
 71
3
 72
8
 73
4
 74
0
 40
0
 40
0
 40
0
 40
0
 40
1
 40
1
 40
1
 40
1
 10
40.208968
 20
95.233170
 30
0.0
 10
40.358040
 20
95.194593
 30
0.0
 10
40.485071
 20
95.164866
 30
0.0
 10
40.625649
 20
95.128392
 30
0.0
  0
SPLINE
  5
199
100
AcDbEntity
  8
Layer_1
 62
7
100
AcDbSpline
 70
8
 71
3
 72
8
 73
4
 74
0
 40
0
 40
0
 40
0
 40
0
 40
1
 40
1
 40
1
 40
1
 10
40.625649
 20
95.128392
 30
0.0
 10
40.766227
 20
95.091920
 30
0.0
 10
40.880665
 20
95.066342
 30
0.0
 10
40.995727
 20
95.036068
 30
0.0
  0
SPLINE
  5
19a
100
AcDbEntity
  8
Layer_1
 62
7
100
AcDbSpline
 70
8
 71
3
 72
8
 73
4
 74
0
 40
0
 40
0
 40
0
 40
0
 40
1
 40
1
 40
1
 40
1
 10
40.995727
 20
95.036068
 30
0.0
 10
41.110792
 20
95.005794
 30
0.0
 10
41.200019
 20
94.997280
 30
0.0
 10
41.272542
 20
94.977298
 30
0.0
  0
SPLINE
  5
19b
100
AcDbEntity
  8
Layer_1
 62
7
100
AcDbSpline
 70
8
 71
3
 72
8
 73
4
 74
0
 40
0
 40
0
 40
0
 40
0
 40
1
 40
1
 40
1
 40
1
 10
41.272542
 20
94.977298
 30
0.0
 10
41.345064
 20
94.957317
 30
0.0
 10
41.414110
 20
94.957853
 30
0.0
 10
41.503140
 20
94.941219
 30
0.0
  0
SPLINE
  5
19c
100
AcDbEntity
  8
Layer_1
 62
7
100
AcDbSpline
 70
8
 71
3
 72
8
 73
4
 74
0
 40
0
 40
0
 40
0
 40
0
 40
1
 40
1
 40
1
 40
1
 10
41.503140
 20
94.941219
 30
0.0
 10
41.633357
 20
94.919714
 30
0.0
 10
41.715727
 20
94.919629
 30
0.0
 10
41.809024
 20
94.903475
 30
0.0
  0
SPLINE
  5
19d
100
AcDbEntity
  8
Layer_1
 62
7
100
AcDbSpline
 70
8
 71
3
 72
8
 73
4
 74
0
 40
0
 40
0
 40
0
 40
0
 40
1
 40
1
 40
1
 40
1
 10
41.809024
 20
94.903475
 30
0.0
 10
41.901559
 20
94.894387
 30
0.0
 10
42.014323
 20
94.883014
 30
0.0
 10
42.127980
 20
94.876466
 30
0.0
  0
SPLINE
  5
19e
100
AcDbEntity
  8
Layer_1
 62
7
100
AcDbSpline
 70
8
 71
3
 72
8
 73
4
 74
0
 40
0
 40
0
 40
0
 40
0
 40
1
 40
1
 40
1
 40
1
 10
42.127980
 20
94.876466
 30
0.0
 10
42.241800
 20
94.869890
 30
0.0
 10
42.335896
 20
94.860859
 30
0.0
 10
42.456461
 20
94.863851
 30
0.0
  0
SPLINE
  5
19f
100
AcDbEntity
  8
Layer_1
 62
7
100
AcDbSpline
 70
8
 71
3
 72
8
 73
4
 74
0
 40
0
 40
0
 40
0
 40
0
 40
1
 40
1
 40
1
 40
1
 10
42.456461
 20
94.863851
 30
0.0
 10
42.577027
 20
94.866842
 30
0.0
 10
42.743905
 20
94.878667
 30
0.0
 10
42.857778
 20
94.881179
 30
0.0
  0
SPLINE
  5
1a0
100
AcDbEntity
  8
Layer_1
 62
7
100
AcDbSpline
 70
8
 71
3
 72
8
 73
4
 74
0
 40
0
 40
0
 40
0
 40
0
 40
1
 40
1
 40
1
 40
1
 10
42.857778
 20
94.881179
 30
0.0
 10
42.971649
 20
94.883719
 30
0.0
 10
43.086678
 20
94.895798
 30
0.0
 10
43.179173
 20
94.911050
 30
0.0
  0
SPLINE
  5
1a1
100
AcDbEntity
  8
Layer_1
 62
7
100
AcDbSpline
 70
8
 71
3
 72
8
 73
4
 74
0
 40
0
 40
0
 40
0
 40
0
 40
1
 40
1
 40
1
 40
1
 10
43.179173
 20
94.911050
 30
0.0
 10
43.279531
 20
94.927616
 30
0.0
 10
43.318594
 20
94.932781
 30
0.0
 10
43.378126
 20
94.941634
 30
0.0
  0
SPLINE
  5
1a2
100
AcDbEntity
  8
Layer_1
 62
7
100
AcDbSpline
 70
8
 71
3
 72
8
 73
4
 74
0
 40
0
 40
0
 40
0
 40
0
 40
1
 40
1
 40
1
 40
1
 10
43.378126
 20
94.941634
 30
0.0
 10
43.442712
 20
94.951258
 30
0.0
 10
43.467209
 20
94.961305
 30
0.0
 10
43.614967
 20
95.004967
 30
0.0
  0
SPLINE
  5
1a3
100
AcDbEntity
  8
Layer_1
 62
7
100
AcDbSpline
 70
8
 71
3
 72
8
 73
4
 74
0
 40
0
 40
0
 40
0
 40
0
 40
1
 40
1
 40
1
 40
1
 10
43.614967
 20
95.004967
 30
0.0
 10
43.741168
 20
95.042260
 30
0.0
 10
43.804800
 20
95.047947
 30
0.0
 10
43.929450
 20
95.102258
 30
0.0
  0
SPLINE
  5
1a4
100
AcDbEntity
  8
Layer_1
 62
7
100
AcDbSpline
 70
8
 71
3
 72
8
 73
4
 74
0
 40
0
 40
0
 40
0
 40
0
 40
1
 40
1
 40
1
 40
1
 10
43.929450
 20
95.102258
 30
0.0
 10
44.044246
 20
95.152276
 30
0.0
 10
44.047410
 20
95.140589
 30
0.0
 10
44.249927
 20
95.241272
 30
0.0
  0
SPLINE
  5
1a5
100
AcDbEntity
  8
Layer_1
 62
7
100
AcDbSpline
 70
8
 71
3
 72
8
 73
4
 74
0
 40
0
 40
0
 40
0
 40
0
 40
1
 40
1
 40
1
 40
1
 10
44.249927
 20
95.241272
 30
0.0
 10
44.452444
 20
95.341955
 30
0.0
 10
44.726595
 20
95.541977
 30
0.0
 10
44.937957
 20
95.726175
 30
0.0
  0
SPLINE
  5
1a6
100
AcDbEntity
  8
Layer_1
 62
7
100
AcDbSpline
 70
8
 71
3
 72
8
 73
4
 74
0
 40
0
 40
0
 40
0
 40
0
 40
1
 40
1
 40
1
 40
1
 10
44.937957
 20
95.726175
 30
0.0
 10
45.128584
 20
95.892300
 30
0.0
 10
45.282033
 20
96.111764
 30
0.0
 10
45.449905
 20
96.358562
 30
0.0
  0
SPLINE
  5
1a7
100
AcDbEntity
  8
Layer_1
 62
7
100
AcDbSpline
 70
8
 71
3
 72
8
 73
4
 74
0
 40
0
 40
0
 40
0
 40
0
 40
1
 40
1
 40
1
 40
1
 10
45.449905
 20
96.358562
 30
0.0
 10
45.625154
 20
96.616202
 30
0.0
 10
45.843771
 20
97.032855
 30
0.0
 10
46.093705
 20
97.160191
 30
0.0
  0
SPLINE
  5
1a8
100
AcDbEntity
  8
Layer_1
 62
7
100
AcDbSpline
 70
8
 71
3
 72
8
 73
4
 74
0
 40
0
 40
0
 40
0
 40
0
 40
1
 40
1
 40
1
 40
1
 10
46.093705
 20
97.160191
 30
0.0
 10
46.343641
 20
97.287527
 30
0.0
 10
46.585209
 20
97.283280
 30
0.0
 10
46.811063
 20
97.299603
 30
0.0
  0
SPLINE
  5
1a9
100
AcDbEntity
  8
Layer_1
 62
7
100
AcDbSpline
 70
8
 71
3
 72
8
 73
4
 74
0
 40
0
 40
0
 40
0
 40
0
 40
1
 40
1
 40
1
 40
1
 10
46.811063
 20
97.299603
 30
0.0
 10
47.001235
 20
97.313348
 30
0.0
 10
47.389105
 20
97.295568
 30
0.0
 10
47.522342
 20
97.266454
 30
0.0
  0
SPLINE
  5
1aa
100
AcDbEntity
  8
Layer_1
 62
7
100
AcDbSpline
 70
8
 71
3
 72
8
 73
4
 74
0
 40
0
 40
0
 40
0
 40
0
 40
1
 40
1
 40
1
 40
1
 10
47.522342
 20
97.266454
 30
0.0
 10
47.660179
 20
97.236338
 30
0.0
 10
47.739839
 20
97.180274
 30
0.0
 10
47.836153
 20
97.080416
 30
0.0
  0
SPLINE
  5
1ab
100
AcDbEntity
  8
Layer_1
 62
7
100
AcDbSpline
 70
8
 71
3
 72
8
 73
4
 74
0
 40
0
 40
0
 40
0
 40
0
 40
1
 40
1
 40
1
 40
1
 10
47.836153
 20
97.080416
 30
0.0
 10
47.923625
 20
96.989723
 30
0.0
 10
47.916603
 20
96.706307
 30
0.0
 10
47.853058
 20
96.506432
 30
0.0
  0
SPLINE
  5
1ac
100
AcDbEntity
  8
Layer_1
 62
7
100
AcDbSpline
 70
8
 71
3
 72
8
 73
4
 74
0
 40
0
 40
0
 40
0
 40
0
 40
1
 40
1
 40
1
 40
1
 10
47.853058
 20
96.506432
 30
0.0
 10
47.790789
 20
96.310564
 30
0.0
 10
47.694771
 20
95.953545
 30
0.0
 10
47.531734
 20
95.646936
 30
0.0
  0
SPLINE
  5
1ad
100
AcDbEntity
  8
Layer_1
 62
7
100
AcDbSpline
 70
8
 71
3
 72
8
 73
4
 74
0
 40
0
 40
0
 40
0
 40
0
 40
1
 40
1
 40
1
 40
1
 10
47.531734
 20
95.646936
 30
0.0
 10
47.364639
 20
95.332698
 30
0.0
 10
47.084240
 20
94.657504
 30
0.0
 10
46.855276
 20
94.289393
 30
0.0
  0
SPLINE
  5
1ae
100
AcDbEntity
  8
Layer_1
 62
7
100
AcDbSpline
 70
8
 71
3
 72
8
 73
4
 74
0
 40
0
 40
0
 40
0
 40
0
 40
1
 40
1
 40
1
 40
1
 10
46.855276
 20
94.289393
 30
0.0
 10
46.619645
 20
93.910560
 30
0.0
 10
46.448907
 20
93.617921
 30
0.0
 10
46.119003
 20
93.233543
 30
0.0
  0
SPLINE
  5
1af
100
AcDbEntity
  8
Layer_1
 62
7
100
AcDbSpline
 70
8
 71
3
 72
8
 73
4
 74
0
 40
0
 40
0
 40
0
 40
0
 40
1
 40
1
 40
1
 40
1
 10
46.119003
 20
93.233543
 30
0.0
 10
45.808894
 20
92.872231
 30
0.0
 10
45.658868
 20
92.697239
 30
0.0
 10
45.325524
 20
92.407307
 30
0.0
  0
SPLINE
  5
1b0
100
AcDbEntity
  8
Layer_1
 62
7
100
AcDbSpline
 70
8
 71
3
 72
8
 73
4
 74
0
 40
0
 40
0
 40
0
 40
0
 40
1
 40
1
 40
1
 40
1
 10
45.325524
 20
92.407307
 30
0.0
 10
44.989067
 20
92.114668
 30
0.0
 10
44.730766
 20
91.964322
 30
0.0
 10
44.468096
 20
91.810949
 30
0.0
  0
SPLINE
  5
1b1
100
AcDbEntity
  8
Layer_1
 62
7
100
AcDbSpline
 70
8
 71
3
 72
8
 73
4
 74
0
 40
0
 40
0
 40
0
 40
0
 40
1
 40
1
 40
1
 40
1
 10
44.468096
 20
91.810949
 30
0.0
 10
44.161134
 20
91.631712
 30
0.0
 10
44.060705
 20
91.598435
 30
0.0
 10
43.903849
 20
91.522393
 30
0.0
  0
SPLINE
  5
1b2
100
AcDbEntity
  8
Layer_1
 62
7
100
AcDbSpline
 70
8
 71
3
 72
8
 73
4
 74
0
 40
0
 40
0
 40
0
 40
0
 40
1
 40
1
 40
1
 40
1
 10
43.903849
 20
91.522393
 30
0.0
 10
43.719507
 20
91.433028
 30
0.0
 10
43.376881
 20
91.319348
 30
0.0
 10
43.225971
 20
91.255383
 30
0.0
  0
SPLINE
  5
1b3
100
AcDbEntity
  8
Layer_1
 62
7
100
AcDbSpline
 70
8
 71
3
 72
8
 73
4
 74
0
 40
0
 40
0
 40
0
 40
0
 40
1
 40
1
 40
1
 40
1
 10
43.225971
 20
91.255383
 30
0.0
 10
43.091735
 20
91.198484
 30
0.0
 10
43.065553
 20
91.204117
 30
0.0
 10
42.986331
 20
91.187113
 30
0.0
  0
SPLINE
  5
1b4
100
AcDbEntity
  8
Layer_1
 62
7
100
AcDbSpline
 70
8
 71
3
 72
8
 73
4
 74
0
 40
0
 40
0
 40
0
 40
0
 40
1
 40
1
 40
1
 40
1
 10
42.986331
 20
91.187113
 30
0.0
 10
42.888769
 20
91.166172
 30
0.0
 10
42.754426
 20
91.121680
 30
0.0
 10
42.583439
 20
91.084509
 30
0.0
  0
SPLINE
  5
1b5
100
AcDbEntity
  8
Layer_1
 62
7
100
AcDbSpline
 70
8
 71
3
 72
8
 73
4
 74
0
 40
0
 40
0
 40
0
 40
0
 40
1
 40
1
 40
1
 40
1
 10
42.583439
 20
91.084509
 30
0.0
 10
42.406906
 20
91.046129
 30
0.0
 10
42.086050
 20
90.986448
 30
0.0
 10
41.866569
 20
90.961570
 30
0.0
  0
SPLINE
  5
1b6
100
AcDbEntity
  8
Layer_1
 62
7
100
AcDbSpline
 70
8
 71
3
 72
8
 73
4
 74
0
 40
0
 40
0
 40
0
 40
0
 40
1
 40
1
 40
1
 40
1
 10
41.866569
 20
90.961570
 30
0.0
 10
41.638852
 20
90.935746
 30
0.0
 10
41.444091
 20
90.915900
 30
0.0
 10
41.199119
 20
90.902986
 30
0.0
  0
SPLINE
  5
1b7
100
AcDbEntity
  8
Layer_1
 62
7
100
AcDbSpline
 70
8
 71
3
 72
8
 73
4
 74
0
 40
0
 40
0
 40
0
 40
0
 40
1
 40
1
 40
1
 40
1
 10
41.199119
 20
90.902986
 30
0.0
 10
40.954144
 20
90.890060
 30
0.0
 10
40.689998
 20
90.895338
 30
0.0
 10
40.462807
 20
90.900446
 30
0.0
  0
SPLINE
  5
1b8
100
AcDbEntity
  8
Layer_1
 62
7
100
AcDbSpline
 70
8
 71
3
 72
8
 73
4
 74
0
 40
0
 40
0
 40
0
 40
0
 40
1
 40
1
 40
1
 40
1
 10
40.462807
 20
90.900446
 30
0.0
 10
40.233789
 20
90.905470
 30
0.0
 10
40.019949
 20
90.904228
 30
0.0
 10
39.849137
 20
90.915912
 30
0.0
  0
SPLINE
  5
1b9
100
AcDbEntity
  8
Layer_1
 62
7
100
AcDbSpline
 70
8
 71
3
 72
8
 73
4
 74
0
 40
0
 40
0
 40
0
 40
0
 40
1
 40
1
 40
1
 40
1
 10
39.849137
 20
90.915912
 30
0.0
 10
39.669108
 20
90.928245
 30
0.0
 10
39.504524
 20
90.956588
 30
0.0
 10
39.414653
 20
90.973118
 30
0.0
  0
SPLINE
  5
1ba
100
AcDbEntity
  8
Layer_1
 62
7
100
AcDbSpline
 70
8
 71
3
 72
8
 73
4
 74
0
 40
0
 40
0
 40
0
 40
0
 40
1
 40
1
 40
1
 40
1
 10
39.414653
 20
90.973118
 30
0.0
 10
39.316829
 20
90.991096
 30
0.0
 10
39.281907
 20
90.987850
 30
0.0
 10
39.295982
 20
90.985536
 30
0.0
  0
SPLINE
  5
1bb
100
AcDbEntity
  8
Layer_1
 62
7
100
AcDbSpline
 70
8
 71
3
 72
8
 73
4
 74
0
 40
0
 40
0
 40
0
 40
0
 40
1
 40
1
 40
1
 40
1
 10
39.295982
 20
90.985536
 30
0.0
 10
39.300102
 20
90.644290
 30
0.0
 10
40.396626
 20
84.859925
 30
0.0
 10
40.481766
 20
84.774782
 30
0.0
  0
SPLINE
  5
1bc
100
AcDbEntity
  8
Layer_1
 62
7
100
AcDbSpline
 70
8
 71
3
 72
8
 73
4
 74
0
 40
0
 40
0
 40
0
 40
0
 40
1
 40
1
 40
1
 40
1
 10
40.481766
 20
84.774782
 30
0.0
 10
40.698112
 20
84.558436
 30
0.0
 10
43.884082
 20
83.274367
 30
0.0
 10
44.204523
 20
83.274367
 30
0.0
  0
SPLINE
  5
1bd
100
AcDbEntity
  8
Layer_1
 62
7
100
AcDbSpline
 70
8
 71
3
 72
8
 73
4
 74
0
 40
0
 40
0
 40
0
 40
0
 40
1
 40
1
 40
1
 40
1
 10
44.204523
 20
83.274367
 30
0.0
 10
44.381589
 20
83.274367
 30
0.0
 10
45.450735
 20
83.682093
 30
0.0
 10
46.672796
 20
84.503809
 30
0.0
  0
LINE
  5
1be
100
AcDbEntity
  8
Layer_1
 62
7
100
AcDbLine
 10
46.672796
 20
84.503809
 30
0.0
 11
48.894732
 21
85.997834
 31
0.0
  0
LINE
  5
1bf
100
AcDbEntity
  8
Layer_1
 62
7
100
AcDbLine
 10
48.894732
 20
85.997834
 30
0.0
 11
50.856010
 21
84.036556
 31
0.0
  0
LINE
  5
1c0
100
AcDbEntity
  8
Layer_1
 62
7
100
AcDbLine
 10
50.856010
 20
84.036556
 30
0.0
 11
52.817288
 21
82.075278
 31
0.0
  0
LINE
  5
1c1
100
AcDbEntity
  8
Layer_1
 62
7
100
AcDbLine
 10
52.817288
 20
82.075278
 30
0.0
 11
51.299807
 21
79.709158
 31
0.0
  0
LINE
  5
1c2
100
AcDbEntity
  8
Layer_1
 62
7
100
AcDbLine
 10
51.299807
 20
79.709158
 30
0.0
 11
49.782329
 21
77.343038
 31
0.0
  0
LINE
  5
1c3
100
AcDbEntity
  8
Layer_1
 62
7
100
AcDbLine
 10
49.782329
 20
77.343038
 30
0.0
 11
50.556919
 21
75.471600
 31
0.0
  0
SPLINE
  5
1c4
100
AcDbEntity
  8
Layer_1
 62
7
100
AcDbSpline
 70
8
 71
3
 72
8
 73
4
 74
0
 40
0
 40
0
 40
0
 40
0
 40
1
 40
1
 40
1
 40
1
 10
50.556919
 20
75.471600
 30
0.0
 10
50.982945
 20
74.442310
 30
0.0
 10
51.368379
 20
73.559852
 30
0.0
 10
51.413438
 20
73.510582
 30
0.0
  0
SPLINE
  5
1c5
100
AcDbEntity
  8
Layer_1
 62
7
100
AcDbSpline
 70
8
 71
3
 72
8
 73
4
 74
0
 40
0
 40
0
 40
0
 40
0
 40
1
 40
1
 40
1
 40
1
 10
51.413438
 20
73.510582
 30
0.0
 10
51.458501
 20
73.461314
 30
0.0
 10
52.612547
 20
73.220341
 30
0.0
 10
53.977989
 20
72.975090
 30
0.0
  0
SPLINE
  5
1c6
100
AcDbEntity
  8
Layer_1
 62
7
100
AcDbSpline
 70
8
 71
3
 72
8
 73
4
 74
0
 40
0
 40
0
 40
0
 40
0
 40
1
 40
1
 40
1
 40
1
 10
53.977989
 20
72.975090
 30
0.0
 10
55.343436
 20
72.729839
 30
0.0
 10
56.510817
 20
72.478980
 30
0.0
 10
56.572173
 20
72.417622
 30
0.0
  0
SPLINE
  5
1c7
100
AcDbEntity
  8
Layer_1
 62
7
100
AcDbSpline
 70
8
 71
3
 72
8
 73
4
 74
0
 40
0
 40
0
 40
0
 40
0
 40
1
 40
1
 40
1
 40
1
 10
56.572173
 20
72.417622
 30
0.0
 10
56.633528
 20
72.356267
 30
0.0
 10
56.748003
 20
71.087791
 30
0.0
 10
56.826551
 20
69.598790
 30
0.0
  0
SPLINE
  5
1c8
100
AcDbEntity
  8
Layer_1
 62
7
100
AcDbSpline
 70
8
 71
3
 72
8
 73
4
 74
0
 40
0
 40
0
 40
0
 40
0
 40
1
 40
1
 40
1
 40
1
 10
56.826551
 20
69.598790
 30
0.0
 10
56.942406
 20
67.402652
 30
0.0
 10
56.904842
 20
66.870979
 30
0.0
 10
56.627581
 20
66.782757
 30
0.0
  0
SPLINE
  5
1c9
100
AcDbEntity
  8
Layer_1
 62
7
100
AcDbSpline
 70
8
 71
3
 72
8
 73
4
 74
0
 40
0
 40
0
 40
0
 40
0
 40
1
 40
1
 40
1
 40
1
 10
56.627581
 20
66.782757
 30
0.0
 10
56.439596
 20
66.722942
 30
0.0
 10
55.240956
 20
66.493555
 30
0.0
 10
53.963934
 20
66.273007
 30
0.0
  0
LINE
  5
1ca
100
AcDbEntity
  8
Layer_1
 62
7
100
AcDbLine
 10
53.963934
 20
66.273007
 30
0.0
 11
51.642081
 21
65.872014
 31
0.0
  0
LINE
  5
1cb
100
AcDbEntity
  8
Layer_1
 62
7
100
AcDbLine
 10
51.642081
 20
65.872014
 30
0.0
 11
50.732634
 21
63.789350
 31
0.0
  0
LINE
  5
1cc
100
AcDbEntity
  8
Layer_1
 62
7
100
AcDbLine
 10
50.732634
 20
63.789350
 30
0.0
 11
49.823189
 21
61.706688
 31
0.0
  0
LINE
  5
1cd
100
AcDbEntity
  8
Layer_1
 62
7
100
AcDbLine
 10
49.823189
 20
61.706688
 30
0.0
 11
51.310142
 21
59.495276
 31
0.0
  0
LINE
  5
1ce
100
AcDbEntity
  8
Layer_1
 62
7
100
AcDbLine
 10
51.310142
 20
59.495276
 30
0.0
 11
52.797086
 21
57.283865
 31
0.0
  0
LINE
  5
1cf
100
AcDbEntity
  8
Layer_1
 62
7
100
AcDbLine
 10
52.797086
 20
57.283865
 30
0.0
 11
50.847247
 21
55.334023
 31
0.0
  0
SPLINE
  5
1d0
100
AcDbEntity
  8
Layer_1
 62
7
100
AcDbSpline
 70
8
 71
3
 72
8
 73
4
 74
0
 40
0
 40
0
 40
0
 40
0
 40
1
 40
1
 40
1
 40
1
 10
50.847247
 20
55.334023
 30
0.0
 10
49.185088
 20
53.671864
 30
0.0
 10
48.828655
 20
53.420971
 30
0.0
 10
48.431461
 20
53.633541
 30
0.0
  0
SPLINE
  5
1d1
100
AcDbEntity
  8
Layer_1
 62
7
100
AcDbSpline
 70
8
 71
3
 72
8
 73
4
 74
0
 40
0
 40
0
 40
0
 40
0
 40
1
 40
1
 40
1
 40
1
 10
48.431461
 20
53.633541
 30
0.0
 10
48.042308
 20
53.841812
 30
0.0
 10
47.832315
 20
53.724241
 30
0.0
 10
47.157217
 20
52.920122
 30
0.0
  0
LINE
  5
1d2
100
AcDbEntity
  8
Layer_1
 62
7
100
AcDbLine
 10
47.157217
 20
52.920122
 30
0.0
 11
46.348915
 21
51.957344
 31
0.0
  0
LINE
  5
1d3
100
AcDbEntity
  8
Layer_1
 62
7
100
AcDbLine
 10
46.348915
 20
51.957344
 30
0.0
 11
48.657377
 21
48.725422
 31
0.0
  0
SPLINE
  5
1d4
100
AcDbEntity
  8
Layer_1
 62
7
100
AcDbSpline
 70
8
 71
3
 72
8
 73
4
 74
0
 40
0
 40
0
 40
0
 40
0
 40
1
 40
1
 40
1
 40
1
 10
48.657377
 20
48.725422
 30
0.0
 10
54.288998
 20
40.840989
 30
0.0
 10
58.712729
 20
35.866099
 30
0.0
 10
61.610333
 20
34.158658
 30
0.0
  0
SPLINE
  5
1d5
100
AcDbEntity
  8
Layer_1
 62
7
100
AcDbSpline
 70
8
 71
3
 72
8
 73
4
 74
0
 40
0
 40
0
 40
0
 40
0
 40
1
 40
1
 40
1
 40
1
 10
61.610333
 20
34.158658
 30
0.0
 10
65.870272
 20
31.648444
 30
0.0
 10
70.152088
 20
31.506627
 30
0.0
 10
73.561445
 20
33.762836
 30
0.0
  0
SPLINE
  5
1d6
100
AcDbEntity
  8
Layer_1
 62
7
100
AcDbSpline
 70
8
 71
3
 72
8
 73
4
 74
0
 40
0
 40
0
 40
0
 40
0
 40
1
 40
1
 40
1
 40
1
 10
73.561445
 20
33.762836
 30
0.0
 10
74.329948
 20
34.271406
 30
0.0
 10
74.494015
 20
34.522369
 30
0.0
 10
74.494015
 20
35.189328
 30
0.0
  0
SPLINE
  5
1d7
100
AcDbEntity
  8
Layer_1
 62
7
100
AcDbSpline
 70
8
 71
3
 72
8
 73
4
 74
0
 40
0
 40
0
 40
0
 40
0
 40
1
 40
1
 40
1
 40
1
 10
74.494015
 20
35.189328
 30
0.0
 10
74.494015
 20
37.003554
 30
0.0
 10
76.880031
 20
37.868669
 30
0.0
 10
78.069570
 20
36.485747
 30
0.0
  0
SPLINE
  5
1d8
100
AcDbEntity
  8
Layer_1
 62
7
100
AcDbSpline
 70
8
 71
3
 72
8
 73
4
 74
0
 40
0
 40
0
 40
0
 40
0
 40
1
 40
1
 40
1
 40
1
 10
78.069570
 20
36.485747
 30
0.0
 10
78.718190
 20
35.731680
 30
0.0
 10
78.770971
 20
35.397153
 30
0.0
 10
78.377556
 20
34.533697
 30
0.0
  0
SPLINE
  5
1d9
100
AcDbEntity
  8
Layer_1
 62
7
100
AcDbSpline
 70
8
 71
3
 72
8
 73
4
 74
0
 40
0
 40
0
 40
0
 40
0
 40
1
 40
1
 40
1
 40
1
 10
78.377556
 20
34.533697
 30
0.0
 10
78.088484
 20
33.899256
 30
0.0
 10
77.226693
 20
33.395422
 30
0.0
 10
76.430570
 20
33.395422
 30
0.0
  0
SPLINE
  5
1da
100
AcDbEntity
  8
Layer_1
 62
7
100
AcDbSpline
 70
8
 71
3
 72
8
 73
4
 74
0
 40
0
 40
0
 40
0
 40
0
 40
1
 40
1
 40
1
 40
1
 10
76.430570
 20
33.395422
 30
0.0
 10
76.164096
 20
33.395422
 30
0.0
 10
75.399621
 20
32.963481
 30
0.0
 10
74.731742
 20
32.435550
 30
0.0
  0
SPLINE
  5
1db
100
AcDbEntity
  8
Layer_1
 62
7
100
AcDbSpline
 70
8
 71
3
 72
8
 73
4
 74
0
 40
0
 40
0
 40
0
 40
0
 40
1
 40
1
 40
1
 40
1
 10
74.731742
 20
32.435550
 30
0.0
 10
72.604799
 20
30.754302
 30
0.0
 10
71.211750
 20
30.357395
 30
0.0
 10
67.406249
 20
30.348381
 30
0.0
  0
SPLINE
  5
1dc
100
AcDbEntity
  8
Layer_1
 62
7
100
AcDbSpline
 70
8
 71
3
 72
8
 73
4
 74
0
 40
0
 40
0
 40
0
 40
0
 40
1
 40
1
 40
1
 40
1
 10
67.406249
 20
30.348381
 30
0.0
 10
63.670445
 20
30.339548
 30
0.0
 10
61.961062
 20
30.236096
 30
0.0
 10
59.964743
 20
31.150189
 30
0.0
  0
SPLINE
  5
1dd
100
AcDbEntity
  8
Layer_1
 62
7
100
AcDbSpline
 70
8
 71
3
 72
8
 73
4
 74
0
 40
0
 40
0
 40
0
 40
0
 40
1
 40
1
 40
1
 40
1
 10
59.964743
 20
31.150189
 30
0.0
 10
59.964743
 20
31.150189
 30
0.0
 10
58.908939
 20
31.512178
 30
0.0
 10
58.383887
 20
31.821598
 30
0.0
  0
SPLINE
  5
1de
100
AcDbEntity
  8
Layer_1
 62
7
100
AcDbSpline
 70
8
 71
3
 72
8
 73
4
 74
0
 40
0
 40
0
 40
0
 40
0
 40
1
 40
1
 40
1
 40
1
 10
58.383887
 20
31.821598
 30
0.0
 10
57.881763
 20
32.117505
 30
0.0
 10
57.602416
 20
32.266364
 30
0.0
 10
57.114883
 20
32.547025
 30
0.0
  0
SPLINE
  5
1df
100
AcDbEntity
  8
Layer_1
 62
7
100
AcDbSpline
 70
8
 71
3
 72
8
 73
4
 74
0
 40
0
 40
0
 40
0
 40
0
 40
1
 40
1
 40
1
 40
1
 10
57.114883
 20
32.547025
 30
0.0
 10
56.549234
 20
32.872656
 30
0.0
 10
56.138956
 20
32.592931
 30
0.0
 10
55.941524
 20
32.480892
 30
0.0
  0
SPLINE
  5
1e0
100
AcDbEntity
  8
Layer_1
 62
7
100
AcDbSpline
 70
8
 71
3
 72
8
 73
4
 74
0
 40
0
 40
0
 40
0
 40
0
 40
1
 40
1
 40
1
 40
1
 10
55.941524
 20
32.480892
 30
0.0
 10
55.728805
 20
32.360177
 30
0.0
 10
55.577740
 20
32.187381
 30
0.0
 10
55.543597
 20
31.883927
 30
0.0
  0
SPLINE
  5
1e1
100
AcDbEntity
  8
Layer_1
 62
7
100
AcDbSpline
 70
8
 71
3
 72
8
 73
4
 74
0
 40
0
 40
0
 40
0
 40
0
 40
1
 40
1
 40
1
 40
1
 10
55.543597
 20
31.883927
 30
0.0
 10
55.483351
 20
31.348478
 30
0.0
 10
56.109633
 20
30.960019
 30
0.0
 10
56.481193
 20
30.674862
 30
0.0
  0
SPLINE
  5
1e2
100
AcDbEntity
  8
Layer_1
 62
7
100
AcDbSpline
 70
8
 71
3
 72
8
 73
4
 74
0
 40
0
 40
0
 40
0
 40
0
 40
1
 40
1
 40
1
 40
1
 10
56.481193
 20
30.674862
 30
0.0
 10
56.686848
 20
30.517032
 30
0.0
 10
57.151501
 20
30.171259
 30
0.0
 10
57.574138
 20
29.916607
 30
0.0
  0
SPLINE
  5
1e3
100
AcDbEntity
  8
Layer_1
 62
7
100
AcDbSpline
 70
8
 71
3
 72
8
 73
4
 74
0
 40
0
 40
0
 40
0
 40
0
 40
1
 40
1
 40
1
 40
1
 10
57.574138
 20
29.916607
 30
0.0
 10
58.022267
 20
29.646593
 30
0.0
 10
57.668250
 20
29.590536
 30
0.0
 10
63.495767
 20
28.526151
 30
0.0
  0
SPLINE
  5
1e4
100
AcDbEntity
  8
Layer_1
 62
7
100
AcDbSpline
 70
8
 71
3
 72
8
 73
4
 74
0
 40
0
 40
0
 40
0
 40
0
 40
1
 40
1
 40
1
 40
1
 10
63.495767
 20
28.526151
 30
0.0
 10
68.388603
 20
27.632483
 30
0.0
 10
69.631286
 20
27.274439
 30
0.0
 10
71.122043
 20
26.328826
 30
0.0
  0
SPLINE
  5
1e5
100
AcDbEntity
  8
Layer_1
 62
7
100
AcDbSpline
 70
8
 71
3
 72
8
 73
4
 74
0
 40
0
 40
0
 40
0
 40
0
 40
1
 40
1
 40
1
 40
1
 10
71.122043
 20
26.328826
 30
0.0
 10
73.205560
 20
25.007224
 30
0.0
 10
73.783881
 20
22.883443
 30
0.0
 10
72.691820
 20
20.564123
 30
0.0
  0
SPLINE
  5
1e6
100
AcDbEntity
  8
Layer_1
 62
7
100
AcDbSpline
 70
8
 71
3
 72
8
 73
4
 74
0
 40
0
 40
0
 40
0
 40
0
 40
1
 40
1
 40
1
 40
1
 10
72.691820
 20
20.564123
 30
0.0
 10
71.939158
 20
18.965620
 30
0.0
 10
71.083418
 20
18.083387
 30
0.0
 10
69.685989
 20
17.465239
 30
0.0
  0
SPLINE
  5
1e7
100
AcDbEntity
  8
Layer_1
 62
7
100
AcDbSpline
 70
8
 71
3
 72
8
 73
4
 74
0
 40
0
 40
0
 40
0
 40
0
 40
1
 40
1
 40
1
 40
1
 10
69.685989
 20
17.465239
 30
0.0
 10
67.308888
 20
16.413735
 30
0.0
 10
64.680792
 20
17.440714
 30
0.0
 10
63.576584
 20
19.852633
 30
0.0
  0
SPLINE
  5
1e8
100
AcDbEntity
  8
Layer_1
 62
7
100
AcDbSpline
 70
8
 71
3
 72
8
 73
4
 74
0
 40
0
 40
0
 40
0
 40
0
 40
1
 40
1
 40
1
 40
1
 10
63.576584
 20
19.852633
 30
0.0
 10
63.197421
 20
20.680834
 30
0.0
 10
62.716181
 20
21.312947
 30
0.0
 10
62.301608
 20
21.527334
 30
0.0
  0
SPLINE
  5
1e9
100
AcDbEntity
  8
Layer_1
 62
7
100
AcDbSpline
 70
8
 71
3
 72
8
 73
4
 74
0
 40
0
 40
0
 40
0
 40
0
 40
1
 40
1
 40
1
 40
1
 10
62.301608
 20
21.527334
 30
0.0
 10
60.952558
 20
22.224956
 30
0.0
 10
60.834304
 20
23.830044
 30
0.0
 10
62.068287
 20
24.694355
 30
0.0
  0
SPLINE
  5
1ea
100
AcDbEntity
  8
Layer_1
 62
7
100
AcDbSpline
 70
8
 71
3
 72
8
 73
4
 74
0
 40
0
 40
0
 40
0
 40
0
 40
1
 40
1
 40
1
 40
1
 10
62.068287
 20
24.694355
 30
0.0
 10
62.937461
 20
25.303148
 30
0.0
 10
63.924149
 20
25.183655
 30
0.0
 10
64.736593
 20
24.371211
 30
0.0
  0
SPLINE
  5
1eb
100
AcDbEntity
  8
Layer_1
 62
7
100
AcDbSpline
 70
8
 71
3
 72
8
 73
4
 74
0
 40
0
 40
0
 40
0
 40
0
 40
1
 40
1
 40
1
 40
1
 10
64.736593
 20
24.371211
 30
0.0
 10
65.571246
 20
23.536558
 30
0.0
 10
65.634006
 20
22.940133
 30
0.0
 10
64.975305
 20
22.102728
 30
0.0
  0
SPLINE
  5
1ec
100
AcDbEntity
  8
Layer_1
 62
7
100
AcDbSpline
 70
8
 71
3
 72
8
 73
4
 74
0
 40
0
 40
0
 40
0
 40
0
 40
1
 40
1
 40
1
 40
1
 10
64.975305
 20
22.102728
 30
0.0
 10
64.502112
 20
21.501158
 30
0.0
 10
64.502434
 20
21.493893
 30
0.0
 10
65.036406
 20
20.726043
 30
0.0
  0
SPLINE
  5
1ed
100
AcDbEntity
  8
Layer_1
 62
7
100
AcDbSpline
 70
8
 71
3
 72
8
 73
4
 74
0
 40
0
 40
0
 40
0
 40
0
 40
1
 40
1
 40
1
 40
1
 10
65.036406
 20
20.726043
 30
0.0
 10
66.639039
 20
18.421473
 30
0.0
 10
70.583532
 20
19.966123
 30
0.0
 10
70.583532
 20
22.898279
 30
0.0
  0
SPLINE
  5
1ee
100
AcDbEntity
  8
Layer_1
 62
7
100
AcDbSpline
 70
8
 71
3
 72
8
 73
4
 74
0
 40
0
 40
0
 40
0
 40
0
 40
1
 40
1
 40
1
 40
1
 10
70.583532
 20
22.898279
 30
0.0
 10
70.583532
 20
23.895551
 30
0.0
 10
69.319561
 20
25.191326
 30
0.0
 10
68.002508
 20
25.544251
 30
0.0
  0
SPLINE
  5
1ef
100
AcDbEntity
  8
Layer_1
 62
7
100
AcDbSpline
 70
8
 71
3
 72
8
 73
4
 74
0
 40
0
 40
0
 40
0
 40
0
 40
1
 40
1
 40
1
 40
1
 10
68.002508
 20
25.544251
 30
0.0
 10
67.472935
 20
25.686155
 30
0.0
 10
65.537540
 20
25.856521
 30
0.0
 10
63.740171
 20
26.182762
 30
0.0
  0
SPLINE
  5
1f0
100
AcDbEntity
  8
Layer_1
 62
7
100
AcDbSpline
 70
8
 71
3
 72
8
 73
4
 74
0
 40
0
 40
0
 40
0
 40
0
 40
1
 40
1
 40
1
 40
1
 10
63.740171
 20
26.182762
 30
0.0
 10
59.395425
 20
26.971378
 30
0.0
 10
56.998198
 20
27.753895
 30
0.0
 10
56.040319
 20
28.220383
 30
0.0
  0
SPLINE
  5
1f1
100
AcDbEntity
  8
Layer_1
 62
7
100
AcDbSpline
 70
8
 71
3
 72
8
 73
4
 74
0
 40
0
 40
0
 40
0
 40
0
 40
1
 40
1
 40
1
 40
1
 10
56.040319
 20
28.220383
 30
0.0
 10
54.510615
 20
28.965354
 30
0.0
 10
54.078787
 20
29.469304
 30
0.0
 10
53.676223
 20
29.836958
 30
0.0
  0
SPLINE
  5
1f2
100
AcDbEntity
  8
Layer_1
 62
7
100
AcDbSpline
 70
8
 71
3
 72
8
 73
4
 74
0
 40
0
 40
0
 40
0
 40
0
 40
1
 40
1
 40
1
 40
1
 10
53.676223
 20
29.836958
 30
0.0
 10
52.936662
 20
30.512383
 30
0.0
 10
51.212448
 20
30.895365
 30
0.0
 10
50.468657
 20
30.718217
 30
0.0
  0
SPLINE
  5
1f3
100
AcDbEntity
  8
Layer_1
 62
7
100
AcDbSpline
 70
8
 71
3
 72
8
 73
4
 74
0
 40
0
 40
0
 40
0
 40
0
 40
1
 40
1
 40
1
 40
1
 10
50.468657
 20
30.718217
 30
0.0
 10
49.558169
 20
30.501368
 30
0.0
 10
49.320837
 20
30.010124
 30
0.0
 10
49.393602
 20
28.895891
 30
0.0
  0
SPLINE
  5
1f4
100
AcDbEntity
  8
Layer_1
 62
7
100
AcDbSpline
 70
8
 71
3
 72
8
 73
4
 74
0
 40
0
 40
0
 40
0
 40
0
 40
1
 40
1
 40
1
 40
1
 10
49.393602
 20
28.895891
 30
0.0
 10
49.440711
 20
28.174539
 30
0.0
 10
49.399529
 20
27.199055
 30
0.0
 10
49.448122
 20
26.732590
 30
0.0
  0
SPLINE
  5
1f5
100
AcDbEntity
  8
Layer_1
 62
7
100
AcDbSpline
 70
8
 71
3
 72
8
 73
4
 74
0
 40
0
 40
0
 40
0
 40
0
 40
1
 40
1
 40
1
 40
1
 10
49.448122
 20
26.732590
 30
0.0
 10
49.489165
 20
26.338489
 30
0.0
 10
49.067672
 20
22.060215
 30
0.0
 10
49.433333
 20
20.793491
 30
0.0
  0
SPLINE
  5
1f6
100
AcDbEntity
  8
Layer_1
 62
7
100
AcDbSpline
 70
8
 71
3
 72
8
 73
4
 74
0
 40
0
 40
0
 40
0
 40
0
 40
1
 40
1
 40
1
 40
1
 10
49.433333
 20
20.793491
 30
0.0
 10
50.237940
 20
18.006095
 30
0.0
 10
51.459477
 20
16.778454
 30
0.0
 10
53.430108
 20
16.776746
 30
0.0
  0
SPLINE
  5
1f7
100
AcDbEntity
  8
Layer_1
 62
7
100
AcDbSpline
 70
8
 71
3
 72
8
 73
4
 74
0
 40
0
 40
0
 40
0
 40
0
 40
1
 40
1
 40
1
 40
1
 10
53.430108
 20
16.776746
 30
0.0
 10
54.623739
 20
16.775900
 30
0.0
 10
55.360192
 20
17.084335
 30
0.0
 10
55.974866
 20
17.843163
 30
0.0
  0
SPLINE
  5
1f8
100
AcDbEntity
  8
Layer_1
 62
7
100
AcDbSpline
 70
8
 71
3
 72
8
 73
4
 74
0
 40
0
 40
0
 40
0
 40
0
 40
1
 40
1
 40
1
 40
1
 10
55.974866
 20
17.843163
 30
0.0
 10
56.790573
 20
18.850168
 30
0.0
 10
56.335950
 20
21.175137
 30
0.0
 10
55.323336
 20
21.175137
 30
0.0
  0
SPLINE
  5
1f9
100
AcDbEntity
  8
Layer_1
 62
7
100
AcDbSpline
 70
8
 71
3
 72
8
 73
4
 74
0
 40
0
 40
0
 40
0
 40
0
 40
1
 40
1
 40
1
 40
1
 10
55.323336
 20
21.175137
 30
0.0
 10
53.978435
 20
21.175137
 30
0.0
 10
52.991261
 20
22.691563
 30
0.0
 10
53.586645
 20
23.842911
 30
0.0
  0
SPLINE
  5
1fa
100
AcDbEntity
  8
Layer_1
 62
7
100
AcDbSpline
 70
8
 71
3
 72
8
 73
4
 74
0
 40
0
 40
0
 40
0
 40
0
 40
1
 40
1
 40
1
 40
1
 10
53.586645
 20
23.842911
 30
0.0
 10
54.718935
 20
26.032518
 30
0.0
 10
58.051254
 20
24.846747
 30
0.0
 10
57.412388
 20
22.481564
 30
0.0
  0
SPLINE
  5
1fb
100
AcDbEntity
  8
Layer_1
 62
7
100
AcDbSpline
 70
8
 71
3
 72
8
 73
4
 74
0
 40
0
 40
0
 40
0
 40
0
 40
1
 40
1
 40
1
 40
1
 10
57.412388
 20
22.481564
 30
0.0
 10
57.274607
 20
21.971487
 30
0.0
 10
57.375651
 20
21.460464
 30
0.0
 10
57.791514
 20
20.564123
 30
0.0
  0
SPLINE
  5
1fc
100
AcDbEntity
  8
Layer_1
 62
7
100
AcDbSpline
 70
8
 71
3
 72
8
 73
4
 74
0
 40
0
 40
0
 40
0
 40
0
 40
1
 40
1
 40
1
 40
1
 10
57.791514
 20
20.564123
 30
0.0
 10
58.633123
 20
18.750135
 30
0.0
 10
58.566598
 20
17.268843
 30
0.0
 10
57.593761
 20
16.160839
 30
0.0
  0
SPLINE
  5
1fd
100
AcDbEntity
  8
Layer_1
 62
7
100
AcDbSpline
 70
8
 71
3
 72
8
 73
4
 74
0
 40
0
 40
0
 40
0
 40
0
 40
1
 40
1
 40
1
 40
1
 10
57.593761
 20
16.160839
 30
0.0
 10
56.668365
 20
15.106874
 30
0.0
 10
55.859742
 20
14.663088
 30
0.0
 10
54.226333
 20
14.312794
 30
0.0
  0
SPLINE
  5
1fe
100
AcDbEntity
  8
Layer_1
 62
7
100
AcDbSpline
 70
8
 71
3
 72
8
 73
4
 74
0
 40
0
 40
0
 40
0
 40
0
 40
1
 40
1
 40
1
 40
1
 10
54.226333
 20
14.312794
 30
0.0
 10
51.545236
 20
13.737794
 30
0.0
 10
48.840209
 20
15.360262
 30
0.0
 10
47.279839
 20
18.479260
 30
0.0
  0
SPLINE
  5
1ff
100
AcDbEntity
  8
Layer_1
 62
7
100
AcDbSpline
 70
8
 71
3
 72
8
 73
4
 74
0
 40
0
 40
0
 40
0
 40
0
 40
1
 40
1
 40
1
 40
1
 10
47.279839
 20
18.479260
 30
0.0
 10
46.046077
 20
20.945409
 30
0.0
 10
46.760311
 20
23.012466
 30
0.0
 10
46.405092
 20
27.057958
 30
0.0
  0
SPLINE
  5
200
100
AcDbEntity
  8
Layer_1
 62
7
100
AcDbSpline
 70
8
 71
3
 72
8
 73
4
 74
0
 40
0
 40
0
 40
0
 40
0
 40
1
 40
1
 40
1
 40
1
 10
46.405092
 20
27.057958
 30
0.0
 10
46.256747
 20
28.747383
 30
0.0
 10
46.365691
 20
30.934831
 30
0.0
 10
45.703944
 20
33.341148
 30
0.0
  0
SPLINE
  5
201
100
AcDbEntity
  8
Layer_1
 62
7
100
AcDbSpline
 70
8
 71
3
 72
8
 73
4
 74
0
 40
0
 40
0
 40
0
 40
0
 40
1
 40
1
 40
1
 40
1
 10
45.703944
 20
33.341148
 30
0.0
 10
45.520904
 20
34.006740
 30
0.0
 10
44.600910
 20
34.955100
 30
0.0
 10
43.921900
 20
35.021025
 30
0.0
  0
SPLINE
  5
202
100
AcDbEntity
  8
Layer_1
 62
7
100
AcDbSpline
 70
8
 71
3
 72
8
 73
4
 74
0
 40
0
 40
0
 40
0
 40
0
 40
1
 40
1
 40
1
 40
1
 10
43.921900
 20
35.021025
 30
0.0
 10
42.864165
 20
35.123720
 30
0.0
 10
42.264519
 20
34.960618
 30
0.0
 10
42.248241
 20
33.478621
 30
0.0
  0
SPLINE
  5
203
100
AcDbEntity
  8
Layer_1
 62
7
100
AcDbSpline
 70
8
 71
3
 72
8
 73
4
 74
0
 40
0
 40
0
 40
0
 40
0
 40
1
 40
1
 40
1
 40
1
 10
42.248241
 20
33.478621
 30
0.0
 10
42.232605
 20
32.056114
 30
0.0
 10
42.208171
 20
34.170805
 30
0.0
 10
42.213194
 20
31.244756
 30
0.0
  0
SPLINE
  5
204
100
AcDbEntity
  8
Layer_1
 62
7
100
AcDbSpline
 70
8
 71
3
 72
8
 73
4
 74
0
 40
0
 40
0
 40
0
 40
0
 40
1
 40
1
 40
1
 40
1
 10
42.213194
 20
31.244756
 30
0.0
 10
42.220899
 20
26.780867
 30
0.0
 10
42.305024
 20
26.140535
 30
0.0
 10
42.735918
 20
24.144660
 30
0.0
  0
SPLINE
  5
205
100
AcDbEntity
  8
Layer_1
 62
7
100
AcDbSpline
 70
8
 71
3
 72
8
 73
4
 74
0
 40
0
 40
0
 40
0
 40
0
 40
1
 40
1
 40
1
 40
1
 10
42.735918
 20
24.144660
 30
0.0
 10
43.493018
 20
20.637783
 30
0.0
 10
45.054602
 20
16.937960
 30
0.0
 10
47.409238
 20
11.887715
 30
0.0
  0
SPLINE
  5
206
100
AcDbEntity
  8
Layer_1
 62
7
100
AcDbSpline
 70
8
 71
3
 72
8
 73
4
 74
0
 40
0
 40
0
 40
0
 40
0
 40
1
 40
1
 40
1
 40
1
 10
47.409238
 20
11.887715
 30
0.0
 10
50.149142
 20
6.011143
 30
0.0
 10
49.916241
 20
4.506418
 30
0.0
 10
49.022082
 20
2.972428
 30
0.0
  0
SPLINE
  5
207
100
AcDbEntity
  8
Layer_1
 62
7
100
AcDbSpline
 70
8
 71
3
 72
8
 73
4
 74
0
 40
0
 40
0
 40
0
 40
0
 40
1
 40
1
 40
1
 40
1
 10
49.022082
 20
2.972428
 30
0.0
 10
48.617254
 20
2.277907
 30
0.0
 10
48.048703
 20
1.792287
 30
0.0
 10
47.031035
 20
1.271841
 30
0.0
  0
SPLINE
  5
208
100
AcDbEntity
  8
Layer_1
 62
7
100
AcDbSpline
 70
8
 71
3
 72
8
 73
4
 74
0
 40
0
 40
0
 40
0
 40
0
 40
1
 40
1
 40
1
 40
1
 10
47.031035
 20
1.271841
 30
0.0
 10
45.813537
 20
0.649174
 30
0.0
 10
45.281661
 20
0.532250
 30
0.0
 10
43.369631
 20
0.466831
 30
0.0
  0
SPLINE
  5
209
100
AcDbEntity
  8
Layer_1
 62
7
100
AcDbSpline
 70
8
 71
3
 72
8
 73
4
 74
0
 40
0
 40
0
 40
0
 40
0
 40
1
 40
1
 40
1
 40
1
 10
43.369631
 20
0.466831
 30
0.0
 10
41.642625
 20
0.407733
 30
0.0
 10
40.852098
 20
0.494488
 30
0.0
 10
39.902048
 20
0.847577
 30
0.0
  0
LINE
  5
20a
100
AcDbEntity
  8
Layer_1
 62
7
100
AcDbLine
 10
39.902048
 20
0.847577
 30
0.0
 11
39.902043
 21
0.847210
 31
0.0
  0
ENDSEC
  0
SECTION
  2
OBJECTS
  0
DICTIONARY
  5
C
330
0
100
AcDbDictionary
  3
ACAD_GROUP
350
D
  3
ACAD_MLINESTYLE
350
17
  0
DICTIONARY
  5
D
330
C
100
AcDbDictionary
  0
DICTIONARY
  5
1A
330
C
100
AcDbDictionary
  0
DICTIONARY
  5
17
330
C
100
AcDbDictionary
  3
STANDARD
350
18
  0
DICTIONARY
  5
19
330
C
100
AcDbDictionary
  0
ENDSEC
  0
EOF
