<?xml version="1.0" encoding="UTF-8" standalone="no"?>
<!-- Created with Inkscape (http://www.inkscape.org/) -->

<svg
   xmlns:dc="http://purl.org/dc/elements/1.1/"
   xmlns:cc="http://creativecommons.org/ns#"
   xmlns:rdf="http://www.w3.org/1999/02/22-rdf-syntax-ns#"
   xmlns:svg="http://www.w3.org/2000/svg"
   xmlns="http://www.w3.org/2000/svg"
   xmlns:sodipodi="http://sodipodi.sourceforge.net/DTD/sodipodi-0.dtd"
   xmlns:inkscape="http://www.inkscape.org/namespaces/inkscape"
   width="80mm"
   height="98mm"
   id="svg3274"
   version="1.1"
   inkscape:version="0.91 r13725"
   sodipodi:docname="002_4_Oshpark.svg"
   inkscape:export-filename="/home/salvari/work/graphicsResources/BL/oshwi.png"
   inkscape:export-xdpi="90"
   inkscape:export-ydpi="90">
  <defs
     id="defs3276" />
  <sodipodi:namedview
     id="base"
     pagecolor="#ffffff"
     bordercolor="#666666"
     borderopacity="1.0"
     inkscape:pageopacity="0.0"
     inkscape:pageshadow="2"
     inkscape:zoom="1.4142136"
     inkscape:cx="239.67058"
     inkscape:cy="113.88487"
     inkscape:document-units="px"
     inkscape:current-layer="layer1"
     showgrid="false"
     inkscape:window-width="1102"
     inkscape:window-height="1106"
     inkscape:window-x="802"
     inkscape:window-y="2"
     inkscape:window-maximized="0"
     units="mm" />
  <metadata
     id="metadata3279">
    <rdf:RDF>
      <cc:Work
         rdf:about="">
        <dc:format>image/svg+xml</dc:format>
        <dc:type
           rdf:resource="http://purl.org/dc/dcmitype/StillImage" />
        <dc:title></dc:title>
      </cc:Work>
    </rdf:RDF>
  </metadata>
  <g
     inkscape:label="Layer 1"
     inkscape:groupmode="layer"
     id="layer1"
     transform="translate(0,-705.11813)">
    <path
       d="m 176.11879,774.5795 c 8.8989,11.8165 13.16525,27.06425 10.1115,42.30951"
       id="path33"
       inkscape:connector-curvature="0"
       style="fill:none" />
    <path
       d="m 135.70758,752.66448 c 12.47458,0.65173 23.88927,5.77777 32.75392,13.62781"
       id="path35"
       inkscape:connector-curvature="0"
       style="fill:none" />
    <path
       style="fill:none;stroke:#010202;stroke-width:0.03396736;stroke-miterlimit:10"
       inkscape:connector-curvature="0"
       id="path42"
       d="M 142.4113,874.84754"
       stroke-miterlimit="10" />
    <path
       style="fill:none;stroke:#010202;stroke-width:0.03396736;stroke-miterlimit:10"
       inkscape:connector-curvature="0"
       id="path44"
       d="M 154.18334,874.5457"
       stroke-miterlimit="10" />
    <path
       style="fill:none;stroke:#010202;stroke-width:0.03396736;stroke-miterlimit:10"
       inkscape:connector-curvature="0"
       id="path46"
       d="M 142.4113,874.51974"
       stroke-miterlimit="10" />
    <path
       style="fill:none;stroke:#010202;stroke-width:0.03396736;stroke-miterlimit:10"
       inkscape:connector-curvature="0"
       id="path48"
       d="M 153.99445,879.15891"
       stroke-miterlimit="10" />
    <path
       style="fill:none;stroke:#010202;stroke-width:0.03396736;stroke-miterlimit:10"
       inkscape:connector-curvature="0"
       id="path50"
       d="M 142.22213,879.13295"
       stroke-miterlimit="10" />
    <path
       style="fill:#ffffff;fill-opacity:1;stroke:#000000;stroke-width:0.42865035;stroke-linejoin:round;stroke-miterlimit:10;stroke-dasharray:none;stroke-dashoffset:0;stroke-opacity:1"
       d="m 141.38519,1049.3603 c -2.39822,-0.8911 -5.19793,-2.0685 -6.2216,-2.6163 -1.02367,-0.5479 -3.39309,-0.9961 -5.26538,-0.9961 -4.64877,0 -7.96776,-2.6688 -7.96776,-6.4069 0,-6.3796 8.47536,-9.4188 12.66929,-4.5431 1.12904,1.3126 2.05279,3.2853 2.05279,4.3837 0,1.7347 0.64506,2.1267 4.90746,2.9827 6.16428,1.238 14.15124,1.2677 17.33577,0.065 3.41155,-1.289 7.02104,-4.9486 7.63416,-7.7401 0.72867,-3.3176 -2.4488,-9.1075 -9.79023,-23.6465 -8.584,-16.99975 -11.32548,-23.94493 -14.09278,-31.90207 0,0 -0.84323,-3.72396 -1.25555,-6.06075 -1.26505,-7.16959 -2.73376,-16.30767 -2.54477,-29.32051 0.18899,-13.01284 -1.3167,-13.43687 -2.5733,-15.05394 -1.2566,-1.61708 -5.5946,-3.39948 -7.6486,0.91946 -1.4251,2.99655 -1.56504,5.58043 -1.58911,10.23746 -0.0555,10.74968 0.897,29.01581 -3.69326,42.00122 -2.273,6.43008 -5.27419,14.93651 -6.6693,18.90323 -2.41018,6.8527 -3.17874,13.0558 -1.99864,16.1311 1.17548,3.0633 9.34344,5.0744 13.74665,3.3848 2.17603,-0.8351 3.05469,-4.0698 2.0721,-7.6285 -0.68715,-2.4886 -1.54897,-3.4047 -4.20131,-4.466 -6.24084,-2.4971 -6.71883,-9.02514 -0.88184,-12.04356 2.19682,-1.13603 3.2345,-1.21016 5.67323,-0.40531 3.65862,1.20746 4.81694,3.21147 4.62273,7.99787 -0.082,2.0204 0.24621,5.5471 0.72931,7.837 1.6043,7.6044 -1.1451,13.3419 -7.37941,15.3994 -4.8273,1.5931 -14.25204,0.5279 -17.68161,-2.1604 -4.68405,-3.6717 -7.69558,-13.3789 0.42286,-35.38878 6.04848,-16.39799 6.02659,-26.19522 3.19301,-43.50004 -0.80481,-4.91501 -1.33191,-5.3647 -2.78319,-6.72118 -0.79971,-0.74748 -1.25079,-0.63791 -2.3047,-0.82644 -2.49198,-0.44577 -2.8467,0.73235 -4.11948,3.6506 -0.76969,1.76476 -3.04509,11.75081 -3.75466,31.17616 -0.78281,21.43035 -1.77727,28.24468 -5.628046,38.56488 -4.367805,11.7059 -12.453518,20.4599 -21.666788,23.4578 -2.381513,0.7749 -5.545128,2.1403 -7.030256,3.0343 -3.891116,2.3422 -6.954921,2.0625 -9.923449,-0.906 -3.897576,-3.8976 -2.995284,-7.8976 2.278551,-10.1011 2.587801,-1.0813 3.359955,-1.0592 6.469385,0.185 3.308563,1.3238 3.748847,1.3144 6.993473,-0.1487 6.442919,-2.9053 10.922093,-9.6959 13.872896,-21.0316 1.377635,-5.2923 1.808796,-11.39447 2.539063,-30.02357 0.682495,-17.41043 1.110367,-19.49481 0.253702,-23.31413 -0.466613,-2.08032 -3.466512,-3.87641 -4.731691,-3.83727 0,0 -2.958126,-0.31989 -4.440415,2.90764 -1.87913,4.09162 -2.101026,14.32801 -4.070812,23.37776 -6.980057,32.06837 -9.561582,36.86967 -20.957535,38.97827 -10.355875,1.9161 -22.388125,-6.4939 -22.388125,-15.64824 0,-1.25 -0.779406,-3.26359 -1.732013,-4.47462 -2.26991,-2.88573 -2.191029,-5.66812 0.240841,-8.49533 4.202085,-4.88521 12.749228,-1.91603 12.749228,4.42896 0,2.17448 -0.699386,3.35713 -3.146105,5.31995 -2.899451,2.32602 -3.060705,2.68906 -2.056793,4.63053 3.086325,5.96865 8.563744,8.52975 14.705523,6.87595 6.826056,-1.8381 9.790456,-8.52228 13.871825,-31.27857 4.313791,-24.05223 3.919367,-19.06002 5.847108,-34.2446 0.298521,-2.35142 -0.566259,-3.24082 -1.268616,-4.71106 -0.655573,-1.37231 -4.598795,-3.23685 -7.484671,-1.92252 -8.839376,4.02574 -2.620197,1.90348 -21.112036,8.59725 -13.94821,5.04904 -18.941768,8.52402 -22.241497,15.47768 -4.334285,9.13383 3.716416,18.29663 11.024857,12.54781 1.934825,-1.52193 2.117331,-2.07457 1.381853,-4.18437 -1.937161,-5.55694 3.733682,-10.7038 9.55688,-8.67381 4.918411,1.71457 6.100239,7.94131 2.103885,11.08484 -1.25499,0.98717 -2.650787,1.79486 -3.10177,1.79486 -0.450983,0 -2.444366,1.31244 -4.429737,2.91654 -5.063788,4.09133 -6.860318,4.8775 -11.14584,4.8775 -11.311333,0 -17.184426,-13.8347 -11.212885,-26.41313 4.311854,-9.08249 8.958862,-12.40643 29.141015,-20.84423 4.286722,-1.79221 9.742554,-4.50155 12.124063,-6.02078 10.287432,-6.56261 20.0275,-19.96074 32.548617,-44.77285 l 7.868881,-15.59315 -2.82121,-2.91076 -2.821209,-2.91074 -2.892109,1.78742 -2.892104,1.78742 -4.969382,-4.32557 c -2.73316,-2.37906 -6.031295,-5.44498 -7.329188,-6.81316 l -2.359806,-2.4876 5.172605,-7.3363 c 2.844936,-4.03498 5.15516,-7.72602 5.133834,-8.20232 -0.0213,-0.47631 -1.308841,-3.98362 -2.861151,-7.79404 l -2.822384,-6.92804 -7.312685,-1.5145 c -4.021975,-0.83298 -8.189515,-1.71723 -9.261197,-1.96501 -1.879923,-0.43465 -1.948507,-0.79687 -1.948507,-10.2908 l 0,-9.84029 8.443542,-1.50532 c 9.986182,-1.78035 11.022718,-2.24029 12.152508,-5.39246 0.473071,-1.31988 1.637448,-4.3483 2.587509,-6.72981 l 1.727379,-4.33002 -5.555643,-7.7476 -5.555643,-7.7476 7.087828,-7.12484 7.087833,-7.12484 7.629235,5.12989 c 4.196079,2.82143 8.224629,5.12988 8.952349,5.12988 0.72771,0 3.89024,-1.02769 7.02783,-2.28375 6.46217,-2.58698 6.79605,-2.38071 8.58228,-13.95383 l 2.95877,-19.17009 c 0.20197,0.0183 -0.92882,-0.33 -2.04989,-0.54152 -1.12106,-0.21153 -2.19926,-0.29738 -2.00257,-0.26261 0.19669,0.0348 -0.94474,-0.13928 -3.05959,-0.0446 -2.11485,0.0947 -5.20202,0.48975 -5.0055,0.46324 0.20866,-0.0281 -0.99452,0.21272 -2.33126,0.80468 -1.33675,0.59195 -2.57954,1.71154 -2.43658,1.57455 0.29313,-0.28091 -0.36589,0.41408 -1.04781,1.15582 -0.68192,0.74174 -1.23717,1.84326 -1.32334,2.022 -0.14653,0.30392 -0.58724,1.24866 -1.29376,1.90818 -0.706521,0.65952 -1.141946,0.79624 -1.330731,0.85983 -0.270605,0.0911 -1.011328,0.23777 -2.017682,0.19813 -1.006355,-0.0397 -1.271668,-0.0236 -1.479102,-0.0196 -0.05926,10e-4 -0.119828,0.004 -0.173799,0.006 -0.103938,0.004 -0.207883,0.005 -0.303382,0.008 -0.06029,10e-4 -0.125163,0.002 -0.194228,0.003 -0.06907,5.7e-4 -0.142318,7.6e-4 -0.219354,4.1e-4 -0.07704,-3.5e-4 -0.157858,-10e-4 -0.242058,-0.003 -0.0842,-0.002 -0.171782,-0.004 -0.262339,-0.007 -0.09056,-0.003 -0.176907,-0.005 -0.259078,-0.006 -0.08217,-8.9e-4 -0.160165,-7.8e-4 -0.234009,8e-5 -0.07384,8.6e-4 -0.143538,0.002 -0.209111,0.005 -0.118442,0.003 -0.232872,0.0115 -0.344224,0.017 -0.120047,0.009 -0.222512,0.0133 -0.333934,0.02 -0.03283,9.3e-4 -0.004,-0.0856 0.045,-0.21529 0.04565,-0.12088 0.143466,-0.32254 0.208776,-0.57845 0.06531,-0.25591 0.180984,-0.51082 0.289986,-0.86527 0.109002,-0.35444 0.277625,-0.81393 0.426735,-1.24699 0.149111,-0.43305 0.306331,-0.86176 0.491965,-1.3535 0.185635,-0.49174 0.327869,-1.041 0.546444,-1.5715 0.218575,-0.53051 0.347762,-1.08094 0.595693,-1.63029 0.247931,-0.54934 0.470975,-1.10865 0.744678,-1.65692 0.547407,-1.09653 0.924884,-2.23209 1.560977,-3.22344 0.636094,-0.99136 1.247985,-1.92689 1.829858,-2.69658 0.581869,-0.7697 1.516299,-1.48783 1.901049,-1.91939 0.38474,-0.43156 2.20534,-1.99601 2.53627,-2.19298 0.82059,-0.48841 2.45913,-2.06007 6.56478,-3.18199 1.27473,-0.34833 2.59273,-0.51243 3.91127,-0.68286 1.31855,-0.17043 1.93364,-0.1526 3.07428,-0.23748 1.17649,-0.0875 2.35992,-0.12728 3.07866,-0.13805 0.65759,-0.008 1.37158,0.007 1.88457,0.0484 0.43159,0.0454 0.70029,0.0333 1.00753,0.0806 0.30502,0.047 0.92257,0.12664 1.28569,0.21416 0.36312,0.0875 0.62247,0.24182 1.00683,0.33358 1.53745,0.36705 2.79386,0.92104 2.97375,1.01097 0.1799,0.0899 0.13913,0.14589 2.39684,1.17306 2.25771,1.02716 2.94908,1.32963 3.13054,1.41524 0.0454,0.0214 1.8665,0.79535 2.12305,0.86736 0.25656,0.072 1.33931,0.67009 1.74674,0.77816 0.40742,0.10807 2.25547,0.82338 2.75344,0.95301 0.49798,0.12964 1.01052,0.31329 1.53873,0.44998 0.52821,0.13669 0.97832,0.24202 1.47643,0.37126 0.49811,0.12923 0.9036,0.21986 1.3113,0.32713 0.40771,0.10727 0.72387,0.13744 0.98084,0.20824 0.25697,0.0708 0.50162,0.0689 0.81708,0.12784 0.4614,0.0762 0.75326,0.0765 1.08384,0.13374 0.32788,0.0322 0.72744,0.0725 1.13016,0.0957 0.4033,0.0233 0.73671,0.0553 1.16391,0.0447 0.4272,-0.0106 1.0185,-0.0525 1.42199,-0.0614 0.40348,-0.009 0.81106,-0.0518 1.1388,-0.10584 0.3556,-0.0587 0.49401,-0.077 0.70495,-0.10837 0.22885,-0.0341 0.31565,-0.0697 0.8392,-0.22441 0.44717,-0.13214 0.67264,-0.15229 1.11431,-0.34473 0.40676,-0.17723 0.41797,-0.13582 1.13555,-0.49257 0.71758,-0.35675 1.68898,-1.06549 2.4379,-1.71816 0.67545,-0.58863 1.21917,-1.36626 1.81399,-2.24074 0.62096,-0.9129 1.39559,-2.38923 2.28118,-2.84042 0.8856,-0.45119 1.74155,-0.43614 2.54182,-0.49398 0.67384,-0.0487 2.04818,0.0143 2.52028,0.11746 0.4884,0.10671 0.77066,0.30536 1.11193,0.65919 0.30994,0.32135 0.28506,1.32558 0.0599,2.0338 -0.22064,0.69402 -0.56086,1.95905 -1.13855,3.04546 -0.59207,1.11344 -1.58561,3.50586 -2.3969,4.81019 -0.83491,1.34232 -1.43989,2.37923 -2.60884,3.7412 -1.09881,1.28024 -1.6304,1.90029 -2.81154,2.92761 -1.19217,1.03691 -2.10741,1.56963 -3.03813,2.11308 -1.08766,0.63509 -1.44351,0.753 -1.9993,1.02244 -0.65318,0.31665 -1.86721,0.71945 -2.40193,0.9461 -0.47564,0.20161 -0.56841,0.18165 -0.84912,0.2419 -0.34569,0.0742 -0.82171,0.23185 -1.42757,0.36356 -0.62551,0.13599 -1.7624,0.34746 -2.54009,0.43561 -0.80687,0.0915 -1.49697,0.16182 -2.36498,0.20758 -0.86802,0.0458 -1.80397,0.0271 -2.60898,0.009 -0.81148,-0.0178 -1.56918,-0.0134 -2.17442,-0.0548 -0.6379,-0.0437 -1.22107,-0.14413 -1.53951,-0.2027 -0.34662,-0.0637 -0.47036,-0.0522 -0.42049,-0.044 0.0146,1.20914 3.89992,21.70492 4.2016,22.00661 0.76658,0.76658 12.05545,5.31643 13.19087,5.31643 0.6274,0 4.41571,-1.4447 8.74585,-4.35629 l 7.873,-5.29379 6.94941,6.94941 6.94941,6.94941 -5.3769,8.38389 -5.37689,8.38389 2.74461,6.63108 c 1.50954,3.64709 2.87525,6.77391 3.03491,6.94849 0.15967,0.17457 4.24881,1.02841 9.08699,1.89741 4.8382,0.869 8.97459,1.75787 9.19199,1.97528 0.2174,0.2174 0.62302,4.712 0.90134,9.98799 0.41051,7.78159 0.27741,9.66547 -0.70501,9.97807 -0.66609,0.21194 -4.91324,1.02473 -9.43812,1.8062 l -8.22704,1.42084 -3.22245,7.37952 -3.22244,7.37951 5.26873,7.83571 5.2687,7.83571 -6.90888,6.90889 c -5.88954,5.88954 -7.15249,6.77853 -8.55987,6.02533 -1.37889,-0.73797 -2.12296,-0.32138 -4.51504,2.52786 l -2.86406,3.41142 8.17959,11.45169 c 19.95456,27.93697 35.6292,45.56453 45.8963,51.61452 15.09427,8.89446 30.26606,9.39696 42.34646,1.40252 2.72304,-1.80202 3.30438,-2.69126 3.30438,-5.0545 0,-6.42836 8.45439,-9.49373 12.66929,-4.59361 2.29826,2.67189 2.48528,3.85722 1.09129,6.91671 -1.02427,2.24802 -4.07786,4.03326 -6.89877,4.03326 -0.9442,0 -3.65297,1.5305 -6.01947,3.40112 -7.53641,5.95718 -12.47241,7.36354 -25.95647,7.39548 -13.2371,0.0313 -12.87272,0.52912 -17.00986,-0.41351 -2.84529,-0.64829 -4.91122,-1.14768 -7.14664,-1.99405 -1.93135,-0.73124 -1.30024,-0.41969 -3.12147,-1.07041 -2.17782,-0.77813 -3.92676,-1.50641 -4.97007,-1.23442 -0.83861,0.21862 -2.164,2.69625 -2.28498,3.77148 -0.21347,1.89726 2.23228,2.94756 3.75969,3.59659 0.83808,0.35612 3.15144,1.26374 4.77397,1.79105 1.76306,0.57297 7.18728,1.84363 12.39332,2.63499 8.83873,1.34356 21.49003,3.8102 26.77224,7.1608 7.38254,4.68284 9.43171,12.20805 5.5622,20.42611 -2.66691,5.66399 -5.69906,8.79001 -10.65058,10.9803 -8.4228,3.7258 -17.73495,0.0869 -21.6475,-8.45927 -1.34349,-2.93457 -3.04867,-5.17434 -4.51763,-5.93398 -4.7801,-2.47189 -5.19911,-8.15921 -0.82673,-11.22173 3.07975,-2.15714 6.57589,-1.73374 9.45463,1.145 2.95743,2.95743 3.17981,5.07075 0.84583,8.03793 -1.67667,2.13155 -1.67553,2.15729 0.2165,4.87802 5.67862,8.1658 19.65517,2.69263 19.65517,-7.6969 0,-3.53364 -4.47864,-8.12497 -9.14536,-9.37549 -1.87644,-0.50281 -8.73414,-1.10647 -15.10277,-2.26244 -15.39477,-2.79431 -23.88888,-5.56701 -27.28294,-7.21992 -5.42021,-2.63966 -6.95031,-4.42531 -8.37672,-5.72802 -2.62049,-2.39324 -8.72991,-3.75026 -11.36539,-3.12257 -3.22614,0.76836 -4.06708,2.50899 -3.80925,6.45706 0.16692,2.55597 0.021,6.01241 0.19318,7.66524 0.14543,1.39642 -1.34805,16.55566 -0.0524,21.04405 2.85097,9.8766 7.17925,14.22651 14.1618,14.23256 4.2294,0.003 6.83888,-1.08988 9.01686,-3.77864 2.8903,-3.56813 1.27943,-11.80621 -2.30857,-11.80621 -4.7654,0 -8.26326,-5.37316 -6.15363,-9.45274 4.01205,-7.75845 15.81948,-3.5569 13.55578,4.82367 -0.4882,1.80736 -0.13017,3.61807 1.34336,6.79408 2.98208,6.42752 2.74636,11.67619 -0.7007,15.60219 -3.27896,3.73452 -6.14416,5.30699 -11.93183,6.54819 -9.49995,2.0374 -19.08469,-3.7115 -24.61356,-14.76307 -4.3716,-8.73832 -1.84085,-16.06254 -3.0995,-30.39696 -0.52563,-5.98615 -0.13961,-13.73695 -2.48438,-22.26327 -0.64857,-2.3584 -3.90839,-5.71873 -6.31433,-5.95232 -3.74788,-0.36388 -5.87261,0.21404 -5.93029,5.46521 -0.0554,5.04038 -0.14198,-2.45262 -0.12418,7.91527 0.0273,15.81693 0.32538,18.08582 1.85217,25.15782 2.68264,12.42594 8.21581,25.53555 16.55901,43.43012 9.70832,20.8225 8.88308,26.1542 5.7148,31.5896 -1.43443,2.4609 -3.44898,4.1816 -7.05489,6.0257 -4.31397,2.2063 -6.19857,2.6206 -12.97348,2.8524 -6.11931,0.2094 -8.92039,-0.098 -12.28671,-1.3491 z"
       id="path4195"
       inkscape:connector-curvature="0"
       sodipodi:nodetypes="cssssssssssszzsssssssssscssssssssssssssssssssssssssssssssssssssssssssssscccccsscscscssscssscccccsssscssssssssssscccsssssscccsssssssssssssssccsssssssssssssccssssssssssssssssssssssssssssscssscccccssssssscccccssscssssssssssssssssssssssssssssssssssscsssssssssssssssssssc" />
  </g>
</svg>
