  0
SECTION
  2
HEADER
  9
$ACADVER
  1
AC1014
  9
$HANDSEED
  5
FFFF
  9
$MEASUREMENT
 70
     1
  0
ENDSEC
  0
SECTION
  2
TABLES
  0
TABLE
  2
VPORT
  5
8
330
0
100
AcDbSymbolTable
 70
     4
  0
VPORT
  5
2E
330
8
100
AcDbSymbolTableRecord
100
AcDbViewportTableRecord
  2
*ACTIVE
 70
     0
 10
0.0
 20
0.0
 11
1.0
 21
1.0
 12
210.0
 22
148.5
 13
0.0
 23
0.0
 14
10.0
 24
10.0
 15
10.0
 25
10.0
 16
0.0
 26
0.0
 36
1.0
 17
0.0
 27
0.0
 37
0.0
 40
341.0
 41
1.24
 42
50.0
 43
0.0
 44
0.0
 50
0.0
 51
0.0
 71
     0
 72
   100
 73
     1
 74
     3
 75
     0
 76
     0
 77
     0
 78
     0
  0
ENDTAB
  0
TABLE
  2
LTYPE
  5
5
330
0
100
AcDbSymbolTable
 70
     1
  0
LTYPE
  5
14
330
5
100
AcDbSymbolTableRecord
100
AcDbLinetypeTableRecord
  2
BYBLOCK
 70
     0
  3

 72
    65
 73
     0
 40
0.0
  0
LTYPE
  5
15
330
5
100
AcDbSymbolTableRecord
100
AcDbLinetypeTableRecord
  2
BYLAYER
 70
     0
  3

 72
    65
 73
     0
 40
0.0
  0
LTYPE
  5
16
330
5
100
AcDbSymbolTableRecord
100
AcDbLinetypeTableRecord
  2
CONTINUOUS
 70
     0
  3
Solid line
 72
    65
 73
     0
 40
0.0
  0
ENDTAB
  0
TABLE
  2
LAYER
  5
2
100
AcDbSymbolTable
 70
2
  0
LAYER
  5
50
100
AcDbSymbolTableRecord
100
AcDbLayerTableRecord
  2
0
 70
0
  6
CONTINUOUS
  0
LAYER
  5
51
100
AcDbSymbolTableRecord
100
AcDbLayerTableRecord
  2
Layer_1
 70
0
  6
CONTINUOUS
  0
ENDTAB
  0
TABLE
  2
STYLE
  5
3
330
0
100
AcDbSymbolTable
 70
     1
  0
STYLE
  5
11
330
3
100
AcDbSymbolTableRecord
100
AcDbTextStyleTableRecord
  2
STANDARD
 70
     0
 40
0.0
 41
1.0
 50
0.0
 71
     0
 42
2.5
  3
txt
  4

  0
ENDTAB
  0
TABLE
  2
VIEW
  5
6
330
0
100
AcDbSymbolTable
 70
     0
  0
ENDTAB
  0
TABLE
  2
UCS
  5
7
330
0
100
AcDbSymbolTable
 70
     0
  0
ENDTAB
  0
TABLE
  2
APPID
  5
9
330
0
100
AcDbSymbolTable
 70
     2
  0
APPID
  5
12
330
9
100
AcDbSymbolTableRecord
100
AcDbRegAppTableRecord
  2
ACAD
 70
     0
  0
ENDTAB
  0
TABLE
  2
DIMSTYLE
  5
A
330
0
100
AcDbSymbolTable
 70
     1
  0
DIMSTYLE
105
27
330
A
100
AcDbSymbolTableRecord
100
AcDbDimStyleTableRecord
  2
ISO-25
 70
     0
  3

  4

  5

  6

  7

 40
1.0
 41
2.5
 42
0.625
 43
3.75
 44
1.25
 45
0.0
 46
0.0
 47
0.0
 48
0.0
140
2.5
141
2.5
142
0.0
143
0.03937007874016
144
1.0
145
0.0
146
1.0
147
0.625
 71
     0
 72
     0
 73
     0
 74
     0
 75
     0
 76
     0
 77
     1
 78
     8
170
     0
171
     3
172
     1
173
     0
174
     0
175
     0
176
     0
177
     0
178
     0
270
     2
271
     2
272
     2
273
     2
274
     3
340
11
275
     0
280
     0
281
     0
282
     0
283
     0
284
     8
285
     0
286
     0
287
     3
288
     0
  0
ENDTAB
  0
TABLE
  2
BLOCK_RECORD
  5
1
330
0
100
AcDbSymbolTable
 70
     1
  0
BLOCK_RECORD
  5
1F
330
1
100
AcDbSymbolTableRecord
100
AcDbBlockTableRecord
  2
*MODEL_SPACE
  0
BLOCK_RECORD
  5
1B
330
1
100
AcDbSymbolTableRecord
100
AcDbBlockTableRecord
  2
*PAPER_SPACE
  0
ENDTAB
  0
ENDSEC
  0
SECTION
  2
BLOCKS
  0
BLOCK
  5
20
330
1F
100
AcDbEntity
  8
0
100
AcDbBlockBegin
  2
*MODEL_SPACE
 70
     0
 10
0.0
 20
0.0
 30
0.0
  3
*MODEL_SPACE
  1

  0
ENDBLK
  5
21
330
1F
100
AcDbEntity
  8
0
100
AcDbBlockEnd
  0
BLOCK
  5
1C
330
1B
100
AcDbEntity
 67
     1
  8
0
100
AcDbBlockBegin
  2
*PAPER_SPACE
  1

  0
ENDBLK
  5
1D
330
1B
100
AcDbEntity
 67
     1
  8
0
100
AcDbBlockEnd
  0
ENDSEC
  0
SECTION
  2
ENTITIES
  0
SPLINE
  5
100
100
AcDbEntity
  8
Layer_1
 62
7
100
AcDbSpline
 70
8
 71
3
 72
8
 73
4
 74
0
 40
0
 40
0
 40
0
 40
0
 40
1
 40
1
 40
1
 40
1
 10
49.704636
 20
78.396458
 30
0.0
 10
52.216104
 20
75.061579
 30
0.0
 10
53.420162
 20
70.758325
 30
0.0
 10
52.558326
 20
66.455774
 30
0.0
  0
SPLINE
  5
101
100
AcDbEntity
  8
Layer_1
 62
7
100
AcDbSpline
 70
8
 71
3
 72
8
 73
4
 74
0
 40
0
 40
0
 40
0
 40
0
 40
1
 40
1
 40
1
 40
1
 10
38.299695
 20
84.581363
 30
0.0
 10
41.820298
 20
84.397431
 30
0.0
 10
45.041778
 20
82.950748
 30
0.0
 10
47.543579
 20
80.735293
 30
0.0
  0
SPLINE
  5
102
100
AcDbEntity
  8
Layer_1
 62
7
100
AcDbSpline
 70
8
 71
3
 72
8
 73
4
 74
0
 40
0
 40
0
 40
0
 40
0
 40
1
 40
1
 40
1
 40
1
 10
39.902043
 20
0.847210
 30
0.0
 10
39.225212
 20
1.098698
 30
0.0
 10
38.435071
 20
1.430986
 30
0.0
 10
38.146169
 20
1.585588
 30
0.0
  0
SPLINE
  5
103
100
AcDbEntity
  8
Layer_1
 62
7
100
AcDbSpline
 70
8
 71
3
 72
8
 73
4
 74
0
 40
0
 40
0
 40
0
 40
0
 40
1
 40
1
 40
1
 40
1
 10
38.146169
 20
1.585588
 30
0.0
 10
37.857266
 20
1.740217
 30
0.0
 10
37.188563
 20
1.866709
 30
0.0
 10
36.660161
 20
1.866709
 30
0.0
  0
SPLINE
  5
104
100
AcDbEntity
  8
Layer_1
 62
7
100
AcDbSpline
 70
8
 71
3
 72
8
 73
4
 74
0
 40
0
 40
0
 40
0
 40
0
 40
1
 40
1
 40
1
 40
1
 10
36.660161
 20
1.866709
 30
0.0
 10
35.348175
 20
1.866709
 30
0.0
 10
34.411483
 20
2.619904
 30
0.0
 10
34.411483
 20
3.674879
 30
0.0
  0
SPLINE
  5
105
100
AcDbEntity
  8
Layer_1
 62
7
100
AcDbSpline
 70
8
 71
3
 72
8
 73
4
 74
0
 40
0
 40
0
 40
0
 40
0
 40
1
 40
1
 40
1
 40
1
 10
34.411483
 20
3.674879
 30
0.0
 10
34.411483
 20
5.475344
 30
0.0
 10
36.803417
 20
6.333074
 30
0.0
 10
37.987038
 20
4.957043
 30
0.0
  0
SPLINE
  5
106
100
AcDbEntity
  8
Layer_1
 62
7
100
AcDbSpline
 70
8
 71
3
 72
8
 73
4
 74
0
 40
0
 40
0
 40
0
 40
0
 40
1
 40
1
 40
1
 40
1
 10
37.987038
 20
4.957043
 30
0.0
 10
38.305678
 20
4.586598
 30
0.0
 10
38.566381
 20
4.029858
 30
0.0
 10
38.566381
 20
3.719865
 30
0.0
  0
SPLINE
  5
107
100
AcDbEntity
  8
Layer_1
 62
7
100
AcDbSpline
 70
8
 71
3
 72
8
 73
4
 74
0
 40
0
 40
0
 40
0
 40
0
 40
1
 40
1
 40
1
 40
1
 10
38.566381
 20
3.719865
 30
0.0
 10
38.566381
 20
3.230294
 30
0.0
 10
38.748431
 20
3.119663
 30
0.0
 10
39.951375
 20
2.878081
 30
0.0
  0
SPLINE
  5
108
100
AcDbEntity
  8
Layer_1
 62
7
100
AcDbSpline
 70
8
 71
3
 72
8
 73
4
 74
0
 40
0
 40
0
 40
0
 40
0
 40
1
 40
1
 40
1
 40
1
 10
39.951375
 20
2.878081
 30
0.0
 10
41.691072
 20
2.528690
 30
0.0
 10
43.945169
 20
2.520308
 30
0.0
 10
44.843914
 20
2.859736
 30
0.0
  0
SPLINE
  5
109
100
AcDbEntity
  8
Layer_1
 62
7
100
AcDbSpline
 70
8
 71
3
 72
8
 73
4
 74
0
 40
0
 40
0
 40
0
 40
0
 40
1
 40
1
 40
1
 40
1
 10
44.843914
 20
2.859736
 30
0.0
 10
45.806730
 20
3.223521
 30
0.0
 10
46.825408
 20
4.256341
 30
0.0
 10
46.998444
 20
5.044165
 30
0.0
  0
SPLINE
  5
10a
100
AcDbEntity
  8
Layer_1
 62
7
100
AcDbSpline
 70
8
 71
3
 72
8
 73
4
 74
0
 40
0
 40
0
 40
0
 40
0
 40
1
 40
1
 40
1
 40
1
 10
46.998444
 20
5.044165
 30
0.0
 10
47.204091
 20
5.980465
 30
0.0
 10
46.506900
 20
7.664400
 30
0.0
 10
44.235424
 20
11.717732
 30
0.0
  0
SPLINE
  5
10b
100
AcDbEntity
  8
Layer_1
 62
7
100
AcDbSpline
 70
8
 71
3
 72
8
 73
4
 74
0
 40
0
 40
0
 40
0
 40
0
 40
1
 40
1
 40
1
 40
1
 10
44.235424
 20
11.717732
 30
0.0
 10
41.608002
 20
16.406403
 30
0.0
 10
40.640000
 20
18.375744
 30
0.0
 10
39.859006
 20
20.621426
 30
0.0
  0
LINE
  5
10c
100
AcDbEntity
  8
Layer_1
 62
7
100
AcDbLine
 10
39.859006
 20
20.621426
 30
0.0
 11
39.199083
 21
22.518992
 31
0.0
  0
LINE
  5
10d
100
AcDbEntity
  8
Layer_1
 62
7
100
AcDbLine
 10
39.199083
 20
22.518992
 30
0.0
 11
39.185593
 21
30.706583
 31
0.0
  0
SPLINE
  5
10e
100
AcDbEntity
  8
Layer_1
 62
7
100
AcDbSpline
 70
8
 71
3
 72
8
 73
4
 74
0
 40
0
 40
0
 40
0
 40
0
 40
1
 40
1
 40
1
 40
1
 10
39.185593
 20
30.706583
 30
0.0
 10
39.172047
 20
38.914512
 30
0.0
 10
38.853000
 20
43.063142
 30
0.0
 10
38.250709
 20
42.862377
 30
0.0
  0
SPLINE
  5
10f
100
AcDbEntity
  8
Layer_1
 62
7
100
AcDbSpline
 70
8
 71
3
 72
8
 73
4
 74
0
 40
0
 40
0
 40
0
 40
0
 40
1
 40
1
 40
1
 40
1
 10
38.250709
 20
42.862377
 30
0.0
 10
37.906226
 20
42.747549
 30
0.0
 10
36.937371
 20
40.109618
 30
0.0
 10
36.300746
 20
37.553148
 30
0.0
  0
SPLINE
  5
110
100
AcDbEntity
  8
Layer_1
 62
7
100
AcDbSpline
 70
8
 71
3
 72
8
 73
4
 74
0
 40
0
 40
0
 40
0
 40
0
 40
1
 40
1
 40
1
 40
1
 10
36.300746
 20
37.553148
 30
0.0
 10
35.865723
 20
35.806249
 30
0.0
 10
35.793782
 20
34.884429
 30
0.0
 10
35.852264
 20
31.806409
 30
0.0
  0
SPLINE
  5
111
100
AcDbEntity
  8
Layer_1
 62
7
100
AcDbSpline
 70
8
 71
3
 72
8
 73
4
 74
0
 40
0
 40
0
 40
0
 40
0
 40
1
 40
1
 40
1
 40
1
 10
35.852264
 20
31.806409
 30
0.0
 10
36.025184
 20
22.705056
 30
0.0
 10
36.105417
 20
23.617503
 30
0.0
 10
34.809944
 20
19.952731
 30
0.0
  0
SPLINE
  5
112
100
AcDbEntity
  8
Layer_1
 62
7
100
AcDbSpline
 70
8
 71
3
 72
8
 73
4
 74
0
 40
0
 40
0
 40
0
 40
0
 40
1
 40
1
 40
1
 40
1
 10
34.809944
 20
19.952731
 30
0.0
 10
34.168453
 20
18.138020
 30
0.0
 10
33.321450
 20
15.737316
 30
0.0
 10
32.927719
 20
14.617820
 30
0.0
  0
SPLINE
  5
113
100
AcDbEntity
  8
Layer_1
 62
7
100
AcDbSpline
 70
8
 71
3
 72
8
 73
4
 74
0
 40
0
 40
0
 40
0
 40
0
 40
1
 40
1
 40
1
 40
1
 10
32.927719
 20
14.617820
 30
0.0
 10
32.247513
 20
12.683836
 30
0.0
 10
32.030608
 20
10.933183
 30
0.0
 10
32.363658
 20
10.065265
 30
0.0
  0
SPLINE
  5
114
100
AcDbEntity
  8
Layer_1
 62
7
100
AcDbSpline
 70
8
 71
3
 72
8
 73
4
 74
0
 40
0
 40
0
 40
0
 40
0
 40
1
 40
1
 40
1
 40
1
 10
32.363658
 20
10.065265
 30
0.0
 10
32.695405
 20
9.200734
 30
0.0
 10
35.000585
 20
8.633156
 30
0.0
 10
36.243268
 20
9.109999
 30
0.0
  0
SPLINE
  5
115
100
AcDbEntity
  8
Layer_1
 62
7
100
AcDbSpline
 70
8
 71
3
 72
8
 73
4
 74
0
 40
0
 40
0
 40
0
 40
0
 40
1
 40
1
 40
1
 40
1
 10
36.243268
 20
9.109999
 30
0.0
 10
36.857392
 20
9.345683
 30
0.0
 10
37.105370
 20
10.258587
 30
0.0
 10
36.828061
 20
11.262931
 30
0.0
  0
SPLINE
  5
116
100
AcDbEntity
  8
Layer_1
 62
7
100
AcDbSpline
 70
8
 71
3
 72
8
 73
4
 74
0
 40
0
 40
0
 40
0
 40
0
 40
1
 40
1
 40
1
 40
1
 10
36.828061
 20
11.262931
 30
0.0
 10
36.634132
 20
11.965270
 30
0.0
 10
36.390907
 20
12.223813
 30
0.0
 10
35.642358
 20
12.523336
 30
0.0
  0
SPLINE
  5
117
100
AcDbEntity
  8
Layer_1
 62
7
100
AcDbSpline
 70
8
 71
3
 72
8
 73
4
 74
0
 40
0
 40
0
 40
0
 40
0
 40
1
 40
1
 40
1
 40
1
 10
35.642358
 20
12.523336
 30
0.0
 10
33.881054
 20
13.228073
 30
0.0
 10
33.746155
 20
15.070431
 30
0.0
 10
35.393483
 20
15.922296
 30
0.0
  0
SPLINE
  5
118
100
AcDbEntity
  8
Layer_1
 62
7
100
AcDbSpline
 70
8
 71
3
 72
8
 73
4
 74
0
 40
0
 40
0
 40
0
 40
0
 40
1
 40
1
 40
1
 40
1
 10
35.393483
 20
15.922296
 30
0.0
 10
36.013475
 20
16.242909
 30
0.0
 10
36.306331
 20
16.263830
 30
0.0
 10
36.994595
 20
16.036684
 30
0.0
  0
SPLINE
  5
119
100
AcDbEntity
  8
Layer_1
 62
7
100
AcDbSpline
 70
8
 71
3
 72
8
 73
4
 74
0
 40
0
 40
0
 40
0
 40
0
 40
1
 40
1
 40
1
 40
1
 10
36.994595
 20
16.036684
 30
0.0
 10
38.027139
 20
15.695912
 30
0.0
 10
38.354042
 20
15.130335
 30
0.0
 10
38.299232
 20
13.779507
 30
0.0
  0
SPLINE
  5
11a
100
AcDbEntity
  8
Layer_1
 62
7
100
AcDbSpline
 70
8
 71
3
 72
8
 73
4
 74
0
 40
0
 40
0
 40
0
 40
0
 40
1
 40
1
 40
1
 40
1
 10
38.299232
 20
13.779507
 30
0.0
 10
38.276090
 20
13.209305
 30
0.0
 10
38.368718
 20
12.213992
 30
0.0
 10
38.505059
 20
11.567731
 30
0.0
  0
SPLINE
  5
11b
100
AcDbEntity
  8
Layer_1
 62
7
100
AcDbSpline
 70
8
 71
3
 72
8
 73
4
 74
0
 40
0
 40
0
 40
0
 40
0
 40
1
 40
1
 40
1
 40
1
 10
38.505059
 20
11.567731
 30
0.0
 10
38.957829
 20
9.421601
 30
0.0
 10
38.181887
 20
7.802351
 30
0.0
 10
36.422426
 20
7.221678
 30
0.0
  0
SPLINE
  5
11c
100
AcDbEntity
  8
Layer_1
 62
7
100
AcDbSpline
 70
8
 71
3
 72
8
 73
4
 74
0
 40
0
 40
0
 40
0
 40
0
 40
1
 40
1
 40
1
 40
1
 10
36.422426
 20
7.221678
 30
0.0
 10
35.060055
 20
6.772070
 30
0.0
 10
31.737594
 20
7.043709
 30
0.0
 10
30.691449
 20
7.690280
 30
0.0
  0
SPLINE
  5
11d
100
AcDbEntity
  8
Layer_1
 62
7
100
AcDbSpline
 70
8
 71
3
 72
8
 73
4
 74
0
 40
0
 40
0
 40
0
 40
0
 40
1
 40
1
 40
1
 40
1
 10
30.691449
 20
7.690280
 30
0.0
 10
28.558117
 20
9.008738
 30
0.0
 10
28.568416
 20
11.035319
 30
0.0
 10
30.740234
 20
17.289725
 30
0.0
  0
SPLINE
  5
11e
100
AcDbEntity
  8
Layer_1
 62
7
100
AcDbSpline
 70
8
 71
3
 72
8
 73
4
 74
0
 40
0
 40
0
 40
0
 40
0
 40
1
 40
1
 40
1
 40
1
 10
30.740234
 20
17.289725
 30
0.0
 10
33.082250
 20
24.034269
 30
0.0
 10
33.239433
 20
25.209651
 30
0.0
 10
32.452762
 20
30.095569
 30
0.0
  0
SPLINE
  5
11f
100
AcDbEntity
  8
Layer_1
 62
7
100
AcDbSpline
 70
8
 71
3
 72
8
 73
4
 74
0
 40
0
 40
0
 40
0
 40
0
 40
1
 40
1
 40
1
 40
1
 10
32.452762
 20
30.095569
 30
0.0
 10
32.100901
 20
32.280940
 30
0.0
 10
32.325059
 20
35.340537
 30
0.0
 10
33.082676
 20
38.693441
 30
0.0
  0
SPLINE
  5
120
100
AcDbEntity
  8
Layer_1
 62
7
100
AcDbSpline
 70
8
 71
3
 72
8
 73
4
 74
0
 40
0
 40
0
 40
0
 40
0
 40
1
 40
1
 40
1
 40
1
 10
33.082676
 20
38.693441
 30
0.0
 10
33.407028
 20
40.128900
 30
0.0
 10
33.633720
 20
41.342052
 30
0.0
 10
33.586437
 20
41.389338
 30
0.0
  0
SPLINE
  5
121
100
AcDbEntity
  8
Layer_1
 62
7
100
AcDbSpline
 70
8
 71
3
 72
8
 73
4
 74
0
 40
0
 40
0
 40
0
 40
0
 40
1
 40
1
 40
1
 40
1
 10
33.586437
 20
41.389338
 30
0.0
 10
33.323203
 20
41.652572
 30
0.0
 10
30.991737
 20
35.284524
 30
0.0
 10
29.854237
 20
31.195395
 30
0.0
  0
SPLINE
  5
122
100
AcDbEntity
  8
Layer_1
 62
7
100
AcDbSpline
 70
8
 71
3
 72
8
 73
4
 74
0
 40
0
 40
0
 40
0
 40
0
 40
1
 40
1
 40
1
 40
1
 10
29.854237
 20
31.195395
 30
0.0
 10
29.043049
 20
28.279297
 30
0.0
 10
28.994845
 20
27.879055
 30
0.0
 10
28.794589
 20
22.396790
 30
0.0
  0
SPLINE
  5
123
100
AcDbEntity
  8
Layer_1
 62
7
100
AcDbSpline
 70
8
 71
3
 72
8
 73
4
 74
0
 40
0
 40
0
 40
0
 40
0
 40
1
 40
1
 40
1
 40
1
 10
28.794589
 20
22.396790
 30
0.0
 10
28.573662
 20
16.348669
 30
0.0
 10
28.293004
 20
14.425514
 30
0.0
 10
27.206229
 20
11.512924
 30
0.0
  0
SPLINE
  5
124
100
AcDbEntity
  8
Layer_1
 62
7
100
AcDbSpline
 70
8
 71
3
 72
8
 73
4
 74
0
 40
0
 40
0
 40
0
 40
0
 40
1
 40
1
 40
1
 40
1
 10
27.206229
 20
11.512924
 30
0.0
 10
25.973537
 20
8.209259
 30
0.0
 10
23.691569
 20
5.738685
 30
0.0
 10
21.091380
 20
4.892611
 30
0.0
  0
SPLINE
  5
125
100
AcDbEntity
  8
Layer_1
 62
7
100
AcDbSpline
 70
8
 71
3
 72
8
 73
4
 74
0
 40
0
 40
0
 40
0
 40
0
 40
1
 40
1
 40
1
 40
1
 10
21.091380
 20
4.892611
 30
0.0
 10
20.419264
 20
4.673917
 30
0.0
 10
19.526422
 20
4.288571
 30
0.0
 10
19.107285
 20
4.036264
 30
0.0
  0
SPLINE
  5
126
100
AcDbEntity
  8
Layer_1
 62
7
100
AcDbSpline
 70
8
 71
3
 72
8
 73
4
 74
0
 40
0
 40
0
 40
0
 40
0
 40
1
 40
1
 40
1
 40
1
 10
19.107285
 20
4.036264
 30
0.0
 10
18.009126
 20
3.375244
 30
0.0
 10
17.144452
 20
3.454181
 30
0.0
 10
16.306668
 20
4.291958
 30
0.0
  0
SPLINE
  5
127
100
AcDbEntity
  8
Layer_1
 62
7
100
AcDbSpline
 70
8
 71
3
 72
8
 73
4
 74
0
 40
0
 40
0
 40
0
 40
0
 40
1
 40
1
 40
1
 40
1
 10
16.306668
 20
4.291958
 30
0.0
 10
15.206685
 20
5.391947
 30
0.0
 10
15.461332
 20
6.520836
 30
0.0
 10
16.949725
 20
7.142713
 30
0.0
  0
SPLINE
  5
128
100
AcDbEntity
  8
Layer_1
 62
7
100
AcDbSpline
 70
8
 71
3
 72
8
 73
4
 74
0
 40
0
 40
0
 40
0
 40
0
 40
1
 40
1
 40
1
 40
1
 10
16.949725
 20
7.142713
 30
0.0
 10
17.680060
 20
7.447880
 30
0.0
 10
17.897979
 20
7.441642
 30
0.0
 10
18.775530
 20
7.090502
 30
0.0
  0
SPLINE
  5
129
100
AcDbEntity
  8
Layer_1
 62
7
100
AcDbSpline
 70
8
 71
3
 72
8
 73
4
 74
0
 40
0
 40
0
 40
0
 40
0
 40
1
 40
1
 40
1
 40
1
 10
18.775530
 20
7.090502
 30
0.0
 10
19.709280
 20
6.716896
 30
0.0
 10
19.833538
 20
6.719549
 30
0.0
 10
20.749243
 20
7.132468
 30
0.0
  0
SPLINE
  5
12a
100
AcDbEntity
  8
Layer_1
 62
7
100
AcDbSpline
 70
8
 71
3
 72
8
 73
4
 74
0
 40
0
 40
0
 40
0
 40
0
 40
1
 40
1
 40
1
 40
1
 10
20.749243
 20
7.132468
 30
0.0
 10
22.567578
 20
7.952408
 30
0.0
 10
23.831700
 20
9.868866
 30
0.0
 10
24.664483
 20
13.068053
 30
0.0
  0
SPLINE
  5
12b
100
AcDbEntity
  8
Layer_1
 62
7
100
AcDbSpline
 70
8
 71
3
 72
8
 73
4
 74
0
 40
0
 40
0
 40
0
 40
0
 40
1
 40
1
 40
1
 40
1
 10
24.664483
 20
13.068053
 30
0.0
 10
25.053282
 20
14.561658
 30
0.0
 10
25.198849
 20
16.282942
 30
0.0
 10
25.381063
 20
21.541372
 30
0.0
  0
SPLINE
  5
12c
100
AcDbEntity
  8
Layer_1
 62
7
100
AcDbSpline
 70
8
 71
3
 72
8
 73
4
 74
0
 40
0
 40
0
 40
0
 40
0
 40
1
 40
1
 40
1
 40
1
 10
25.381063
 20
21.541372
 30
0.0
 10
25.644233
 20
29.136093
 30
0.0
 10
25.948814
 20
31.020211
 30
0.0
 10
27.816274
 20
36.605443
 30
0.0
  0
SPLINE
  5
12d
100
AcDbEntity
  8
Layer_1
 62
7
100
AcDbSpline
 70
8
 71
3
 72
8
 73
4
 74
0
 40
0
 40
0
 40
0
 40
0
 40
1
 40
1
 40
1
 40
1
 10
27.816274
 20
36.605443
 30
0.0
 10
28.461888
 20
38.536362
 30
0.0
 10
28.948403
 20
40.158759
 30
0.0
 10
28.897413
 20
40.210767
 30
0.0
  0
SPLINE
  5
12e
100
AcDbEntity
  8
Layer_1
 62
7
100
AcDbSpline
 70
8
 71
3
 72
8
 73
4
 74
0
 40
0
 40
0
 40
0
 40
0
 40
1
 40
1
 40
1
 40
1
 10
28.897413
 20
40.210767
 30
0.0
 10
28.687378
 20
40.425007
 30
0.0
 10
24.077613
 20
30.663858
 30
0.0
 10
23.428535
 20
28.630444
 30
0.0
  0
SPLINE
  5
12f
100
AcDbEntity
  8
Layer_1
 62
7
100
AcDbSpline
 70
8
 71
3
 72
8
 73
4
 74
0
 40
0
 40
0
 40
0
 40
0
 40
1
 40
1
 40
1
 40
1
 10
23.428535
 20
28.630444
 30
0.0
 10
23.042126
 20
27.419917
 30
0.0
 10
22.271135
 20
24.339817
 30
0.0
 10
21.715217
 20
21.785776
 30
0.0
  0
SPLINE
  5
130
100
AcDbEntity
  8
Layer_1
 62
7
100
AcDbSpline
 70
8
 71
3
 72
8
 73
4
 74
0
 40
0
 40
0
 40
0
 40
0
 40
1
 40
1
 40
1
 40
1
 10
21.715217
 20
21.785776
 30
0.0
 10
19.745290
 20
12.735369
 30
0.0
 10
19.016726
 20
11.380336
 30
0.0
 10
15.800535
 20
10.785242
 30
0.0
  0
SPLINE
  5
131
100
AcDbEntity
  8
Layer_1
 62
7
100
AcDbSpline
 70
8
 71
3
 72
8
 73
4
 74
0
 40
0
 40
0
 40
0
 40
0
 40
1
 40
1
 40
1
 40
1
 10
15.800535
 20
10.785242
 30
0.0
 10
12.877877
 20
10.244476
 30
0.0
 10
9.482109
 20
12.617965
 30
0.0
 10
9.482109
 20
15.201523
 30
0.0
  0
SPLINE
  5
132
100
AcDbEntity
  8
Layer_1
 62
7
100
AcDbSpline
 70
8
 71
3
 72
8
 73
4
 74
0
 40
0
 40
0
 40
0
 40
0
 40
1
 40
1
 40
1
 40
1
 10
9.482109
 20
15.201523
 30
0.0
 10
9.482109
 20
15.554301
 30
0.0
 10
9.262143
 20
16.122581
 30
0.0
 10
8.993296
 20
16.464360
 30
0.0
  0
SPLINE
  5
133
100
AcDbEntity
  8
Layer_1
 62
7
100
AcDbSpline
 70
8
 71
3
 72
8
 73
4
 74
0
 40
0
 40
0
 40
0
 40
0
 40
1
 40
1
 40
1
 40
1
 10
8.993296
 20
16.464360
 30
0.0
 10
8.352677
 20
17.278777
 30
0.0
 10
8.374939
 20
18.064030
 30
0.0
 10
9.061267
 20
18.861931
 30
0.0
  0
SPLINE
  5
134
100
AcDbEntity
  8
Layer_1
 62
7
100
AcDbSpline
 70
8
 71
3
 72
8
 73
4
 74
0
 40
0
 40
0
 40
0
 40
0
 40
1
 40
1
 40
1
 40
1
 10
9.061267
 20
18.861931
 30
0.0
 10
10.247189
 20
20.240646
 30
0.0
 10
12.659382
 20
19.402677
 30
0.0
 10
12.659382
 20
17.611980
 30
0.0
  0
SPLINE
  5
135
100
AcDbEntity
  8
Layer_1
 62
7
100
AcDbSpline
 70
8
 71
3
 72
8
 73
4
 74
0
 40
0
 40
0
 40
0
 40
0
 40
1
 40
1
 40
1
 40
1
 10
12.659382
 20
17.611980
 30
0.0
 10
12.659382
 20
16.998294
 30
0.0
 10
12.462000
 20
16.664524
 30
0.0
 10
11.771482
 20
16.110572
 30
0.0
  0
SPLINE
  5
136
100
AcDbEntity
  8
Layer_1
 62
7
100
AcDbSpline
 70
8
 71
3
 72
8
 73
4
 74
0
 40
0
 40
0
 40
0
 40
0
 40
1
 40
1
 40
1
 40
1
 10
11.771482
 20
16.110572
 30
0.0
 10
10.953192
 20
15.454118
 30
0.0
 10
10.907683
 20
15.351660
 30
0.0
 10
11.191009
 20
14.803734
 30
0.0
  0
SPLINE
  5
137
100
AcDbEntity
  8
Layer_1
 62
7
100
AcDbSpline
 70
8
 71
3
 72
8
 73
4
 74
0
 40
0
 40
0
 40
0
 40
0
 40
1
 40
1
 40
1
 40
1
 10
11.191009
 20
14.803734
 30
0.0
 10
12.062038
 20
13.119248
 30
0.0
 10
13.607888
 20
12.396449
 30
0.0
 10
15.341234
 20
12.863188
 30
0.0
  0
SPLINE
  5
138
100
AcDbEntity
  8
Layer_1
 62
7
100
AcDbSpline
 70
8
 71
3
 72
8
 73
4
 74
0
 40
0
 40
0
 40
0
 40
0
 40
1
 40
1
 40
1
 40
1
 10
15.341234
 20
12.863188
 30
0.0
 10
17.267699
 20
13.381940
 30
0.0
 10
18.104318
 20
15.268365
 30
0.0
 10
19.256172
 20
21.690695
 30
0.0
  0
SPLINE
  5
139
100
AcDbEntity
  8
Layer_1
 62
7
100
AcDbSpline
 70
8
 71
3
 72
8
 73
4
 74
0
 40
0
 40
0
 40
0
 40
0
 40
1
 40
1
 40
1
 40
1
 10
19.256172
 20
21.690695
 30
0.0
 10
20.473619
 20
28.478769
 30
0.0
 10
21.506575
 20
32.518111
 30
0.0
 10
23.087525
 20
36.673103
 30
0.0
  0
SPLINE
  5
13a
100
AcDbEntity
  8
Layer_1
 62
7
100
AcDbSpline
 70
8
 71
3
 72
8
 73
4
 74
0
 40
0
 40
0
 40
0
 40
0
 40
1
 40
1
 40
1
 40
1
 10
23.087525
 20
36.673103
 30
0.0
 10
23.543366
 20
37.871128
 30
0.0
 10
23.884007
 20
38.948288
 30
0.0
 10
23.844505
 20
39.066796
 30
0.0
  0
SPLINE
  5
13b
100
AcDbEntity
  8
Layer_1
 62
7
100
AcDbSpline
 70
8
 71
3
 72
8
 73
4
 74
0
 40
0
 40
0
 40
0
 40
0
 40
1
 40
1
 40
1
 40
1
 10
23.844505
 20
39.066796
 30
0.0
 10
23.805005
 20
39.185298
 30
0.0
 10
23.198583
 20
38.456456
 30
0.0
 10
22.496905
 20
37.447142
 30
0.0
  0
SPLINE
  5
13c
100
AcDbEntity
  8
Layer_1
 62
7
100
AcDbSpline
 70
8
 71
3
 72
8
 73
4
 74
0
 40
0
 40
0
 40
0
 40
0
 40
1
 40
1
 40
1
 40
1
 10
22.496905
 20
37.447142
 30
0.0
 10
20.467908
 20
34.528578
 30
0.0
 10
17.696507
 20
32.690222
 30
0.0
 10
12.477699
 20
30.801091
 30
0.0
  0
SPLINE
  5
13d
100
AcDbEntity
  8
Layer_1
 62
7
100
AcDbSpline
 70
8
 71
3
 72
8
 73
4
 74
0
 40
0
 40
0
 40
0
 40
0
 40
1
 40
1
 40
1
 40
1
 10
12.477699
 20
30.801091
 30
0.0
 10
8.541204
 20
29.376140
 30
0.0
 10
7.131911
 20
28.395423
 30
0.0
 10
6.200654
 20
26.432946
 30
0.0
  0
SPLINE
  5
13e
100
AcDbEntity
  8
Layer_1
 62
7
100
AcDbSpline
 70
8
 71
3
 72
8
 73
4
 74
0
 40
0
 40
0
 40
0
 40
0
 40
1
 40
1
 40
1
 40
1
 10
6.200654
 20
26.432946
 30
0.0
 10
4.977423
 20
23.855176
 30
0.0
 10
7.249509
 20
21.269230
 30
0.0
 10
9.312114
 20
22.891675
 30
0.0
  0
SPLINE
  5
13f
100
AcDbEntity
  8
Layer_1
 62
7
100
AcDbSpline
 70
8
 71
3
 72
8
 73
4
 74
0
 40
0
 40
0
 40
0
 40
0
 40
1
 40
1
 40
1
 40
1
 10
9.312114
 20
22.891675
 30
0.0
 10
9.858164
 20
23.321198
 30
0.0
 10
9.909672
 20
23.477165
 30
0.0
 10
9.702103
 20
24.072597
 30
0.0
  0
SPLINE
  5
140
100
AcDbEntity
  8
Layer_1
 62
7
100
AcDbSpline
 70
8
 71
3
 72
8
 73
4
 74
0
 40
0
 40
0
 40
0
 40
0
 40
1
 40
1
 40
1
 40
1
 10
9.702103
 20
24.072597
 30
0.0
 10
9.155394
 20
25.640889
 30
0.0
 10
10.755832
 20
27.093447
 30
0.0
 10
12.399267
 20
26.520539
 30
0.0
  0
SPLINE
  5
141
100
AcDbEntity
  8
Layer_1
 62
7
100
AcDbSpline
 70
8
 71
3
 72
8
 73
4
 74
0
 40
0
 40
0
 40
0
 40
0
 40
1
 40
1
 40
1
 40
1
 10
12.399267
 20
26.520539
 30
0.0
 10
13.787352
 20
26.036649
 30
0.0
 10
14.120890
 20
24.279325
 30
0.0
 10
12.993030
 20
23.392151
 30
0.0
  0
SPLINE
  5
142
100
AcDbEntity
  8
Layer_1
 62
7
100
AcDbSpline
 70
8
 71
3
 72
8
 73
4
 74
0
 40
0
 40
0
 40
0
 40
0
 40
1
 40
1
 40
1
 40
1
 10
12.993030
 20
23.392151
 30
0.0
 10
12.638844
 20
23.113550
 30
0.0
 10
12.244919
 20
22.885602
 30
0.0
 10
12.117642
 20
22.885602
 30
0.0
  0
SPLINE
  5
143
100
AcDbEntity
  8
Layer_1
 62
7
100
AcDbSpline
 70
8
 71
3
 72
8
 73
4
 74
0
 40
0
 40
0
 40
0
 40
0
 40
1
 40
1
 40
1
 40
1
 10
12.117642
 20
22.885602
 30
0.0
 10
11.990365
 20
22.885602
 30
0.0
 10
11.427788
 20
22.515202
 30
0.0
 10
10.867472
 20
22.062489
 30
0.0
  0
SPLINE
  5
144
100
AcDbEntity
  8
Layer_1
 62
7
100
AcDbSpline
 70
8
 71
3
 72
8
 73
4
 74
0
 40
0
 40
0
 40
0
 40
0
 40
1
 40
1
 40
1
 40
1
 10
10.867472
 20
22.062489
 30
0.0
 10
9.438358
 20
20.907825
 30
0.0
 10
8.931338
 20
20.685950
 30
0.0
 10
7.721868
 20
20.685950
 30
0.0
  0
SPLINE
  5
145
100
AcDbEntity
  8
Layer_1
 62
7
100
AcDbSpline
 70
8
 71
3
 72
8
 73
4
 74
0
 40
0
 40
0
 40
0
 40
0
 40
1
 40
1
 40
1
 40
1
 10
7.721868
 20
20.685950
 30
0.0
 10
4.529559
 20
20.685950
 30
0.0
 10
2.872041
 20
24.590410
 30
0.0
 10
4.557343
 20
28.140323
 30
0.0
  0
SPLINE
  5
146
100
AcDbEntity
  8
Layer_1
 62
7
100
AcDbSpline
 70
8
 71
3
 72
8
 73
4
 74
0
 40
0
 40
0
 40
0
 40
0
 40
1
 40
1
 40
1
 40
1
 10
4.557343
 20
28.140323
 30
0.0
 10
5.774244
 20
30.703603
 30
0.0
 10
7.085733
 20
31.641693
 30
0.0
 10
12.781585
 20
34.023028
 30
0.0
  0
SPLINE
  5
147
100
AcDbEntity
  8
Layer_1
 62
7
100
AcDbSpline
 70
8
 71
3
 72
8
 73
4
 74
0
 40
0
 40
0
 40
0
 40
0
 40
1
 40
1
 40
1
 40
1
 10
12.781585
 20
34.023028
 30
0.0
 10
13.991393
 20
34.528829
 30
0.0
 10
15.531150
 20
35.293465
 30
0.0
 10
16.203265
 20
35.722225
 30
0.0
  0
SPLINE
  5
148
100
AcDbEntity
  8
Layer_1
 62
7
100
AcDbSpline
 70
8
 71
3
 72
8
 73
4
 74
0
 40
0
 40
0
 40
0
 40
0
 40
1
 40
1
 40
1
 40
1
 10
16.203265
 20
35.722225
 30
0.0
 10
19.106607
 20
37.574340
 30
0.0
 10
21.855470
 20
41.355590
 30
0.0
 10
25.389208
 20
48.358119
 30
0.0
  0
LINE
  5
149
100
AcDbEntity
  8
Layer_1
 62
7
100
AcDbLine
 10
25.389208
 20
48.358119
 30
0.0
 11
27.609981
 21
52.758852
 31
0.0
  0
LINE
  5
14a
100
AcDbEntity
  8
Layer_1
 62
7
100
AcDbLine
 10
27.609981
 20
52.758852
 30
0.0
 11
26.813773
 21
53.580333
 31
0.0
  0
LINE
  5
14b
100
AcDbEntity
  8
Layer_1
 62
7
100
AcDbLine
 10
26.813773
 20
53.580333
 30
0.0
 11
26.017565
 21
54.401809
 31
0.0
  0
LINE
  5
14c
100
AcDbEntity
  8
Layer_1
 62
7
100
AcDbLine
 10
26.017565
 20
54.401809
 30
0.0
 11
25.201347
 21
53.897359
 31
0.0
  0
LINE
  5
14d
100
AcDbEntity
  8
Layer_1
 62
7
100
AcDbLine
 10
25.201347
 20
53.897359
 30
0.0
 11
24.385131
 21
53.392909
 31
0.0
  0
LINE
  5
14e
100
AcDbEntity
  8
Layer_1
 62
7
100
AcDbLine
 10
24.385131
 20
53.392909
 30
0.0
 11
22.982661
 21
54.613681
 31
0.0
  0
SPLINE
  5
14f
100
AcDbEntity
  8
Layer_1
 62
7
100
AcDbSpline
 70
8
 71
3
 72
8
 73
4
 74
0
 40
0
 40
0
 40
0
 40
0
 40
1
 40
1
 40
1
 40
1
 10
22.982661
 20
54.613681
 30
0.0
 10
22.211303
 20
55.285105
 30
0.0
 10
21.280496
 20
56.150376
 30
0.0
 10
20.914202
 20
56.536507
 30
0.0
  0
LINE
  5
150
100
AcDbEntity
  8
Layer_1
 62
7
100
AcDbLine
 10
20.914202
 20
56.536507
 30
0.0
 11
20.248212
 21
57.238563
 31
0.0
  0
LINE
  5
151
100
AcDbEntity
  8
Layer_1
 62
7
100
AcDbLine
 10
20.248212
 20
57.238563
 30
0.0
 11
21.708036
 21
59.309029
 31
0.0
  0
SPLINE
  5
152
100
AcDbEntity
  8
Layer_1
 62
7
100
AcDbSpline
 70
8
 71
3
 72
8
 73
4
 74
0
 40
0
 40
0
 40
0
 40
0
 40
1
 40
1
 40
1
 40
1
 10
21.708036
 20
59.309029
 30
0.0
 10
22.510940
 20
60.447791
 30
0.0
 10
23.162937
 20
61.489484
 30
0.0
 10
23.156918
 20
61.623906
 30
0.0
  0
SPLINE
  5
153
100
AcDbEntity
  8
Layer_1
 62
7
100
AcDbSpline
 70
8
 71
3
 72
8
 73
4
 74
0
 40
0
 40
0
 40
0
 40
0
 40
1
 40
1
 40
1
 40
1
 10
23.156918
 20
61.623906
 30
0.0
 10
23.150907
 20
61.758332
 30
0.0
 10
22.787534
 20
62.748173
 30
0.0
 10
22.349438
 20
63.823558
 30
0.0
  0
LINE
  5
154
100
AcDbEntity
  8
Layer_1
 62
7
100
AcDbLine
 10
22.349438
 20
63.823558
 30
0.0
 11
21.552898
 21
65.778805
 31
0.0
  0
LINE
  5
155
100
AcDbEntity
  8
Layer_1
 62
7
100
AcDbLine
 10
21.552898
 20
65.778805
 30
0.0
 11
19.489096
 21
66.206230
 31
0.0
  0
SPLINE
  5
156
100
AcDbEntity
  8
Layer_1
 62
7
100
AcDbSpline
 70
8
 71
3
 72
8
 73
4
 74
0
 40
0
 40
0
 40
0
 40
0
 40
1
 40
1
 40
1
 40
1
 10
19.489096
 20
66.206230
 30
0.0
 10
18.354005
 20
66.441316
 30
0.0
 10
17.177833
 20
66.690871
 30
0.0
 10
16.875380
 20
66.760800
 30
0.0
  0
SPLINE
  5
157
100
AcDbEntity
  8
Layer_1
 62
7
100
AcDbSpline
 70
8
 71
3
 72
8
 73
4
 74
0
 40
0
 40
0
 40
0
 40
0
 40
1
 40
1
 40
1
 40
1
 10
16.875380
 20
66.760800
 30
0.0
 10
16.344824
 20
66.883468
 30
0.0
 10
16.325468
 20
66.985694
 30
0.0
 10
16.325468
 20
69.665092
 30
0.0
  0
LINE
  5
158
100
AcDbEntity
  8
Layer_1
 62
7
100
AcDbLine
 10
16.325468
 20
69.665092
 30
0.0
 11
16.325468
 21
72.442241
 31
0.0
  0
LINE
  5
159
100
AcDbEntity
  8
Layer_1
 62
7
100
AcDbLine
 10
16.325468
 20
72.442241
 30
0.0
 11
18.708424
 21
72.867075
 31
0.0
  0
SPLINE
  5
15a
100
AcDbEntity
  8
Layer_1
 62
7
100
AcDbSpline
 70
8
 71
3
 72
8
 73
4
 74
0
 40
0
 40
0
 40
0
 40
0
 40
1
 40
1
 40
1
 40
1
 10
18.708424
 20
72.867075
 30
0.0
 10
21.526746
 20
73.369530
 30
0.0
 10
21.819280
 20
73.499335
 30
0.0
 10
22.138131
 20
74.388947
 30
0.0
  0
SPLINE
  5
15b
100
AcDbEntity
  8
Layer_1
 62
7
100
AcDbSpline
 70
8
 71
3
 72
8
 73
4
 74
0
 40
0
 40
0
 40
0
 40
0
 40
1
 40
1
 40
1
 40
1
 10
22.138131
 20
74.388947
 30
0.0
 10
22.271643
 20
74.761447
 30
0.0
 10
22.600256
 20
75.616134
 30
0.0
 10
22.868384
 20
76.288249
 30
0.0
  0
LINE
  5
15c
100
AcDbEntity
  8
Layer_1
 62
7
100
AcDbLine
 10
22.868384
 20
76.288249
 30
0.0
 11
23.355889
 21
77.510277
 31
0.0
  0
LINE
  5
15d
100
AcDbEntity
  8
Layer_1
 62
7
100
AcDbLine
 10
23.355889
 20
77.510277
 30
0.0
 11
21.787963
 21
79.696822
 31
0.0
  0
LINE
  5
15e
100
AcDbEntity
  8
Layer_1
 62
7
100
AcDbLine
 10
21.787963
 20
79.696822
 30
0.0
 11
20.220037
 21
81.883367
 31
0.0
  0
LINE
  5
15f
100
AcDbEntity
  8
Layer_1
 62
7
100
AcDbLine
 10
20.220037
 20
81.883367
 30
0.0
 11
22.220379
 21
83.894155
 31
0.0
  0
LINE
  5
160
100
AcDbEntity
  8
Layer_1
 62
7
100
AcDbLine
 10
22.220379
 20
83.894155
 30
0.0
 11
24.220723
 21
85.904943
 31
0.0
  0
LINE
  5
161
100
AcDbEntity
  8
Layer_1
 62
7
100
AcDbLine
 10
24.220723
 20
85.904943
 30
0.0
 11
26.373863
 21
84.457174
 31
0.0
  0
SPLINE
  5
162
100
AcDbEntity
  8
Layer_1
 62
7
100
AcDbSpline
 70
8
 71
3
 72
8
 73
4
 74
0
 40
0
 40
0
 40
0
 40
0
 40
1
 40
1
 40
1
 40
1
 10
26.373863
 20
84.457174
 30
0.0
 10
27.558090
 20
83.660904
 30
0.0
 10
28.695038
 20
83.009408
 30
0.0
 10
28.900416
 20
83.009408
 30
0.0
  0
SPLINE
  5
163
100
AcDbEntity
  8
Layer_1
 62
7
100
AcDbSpline
 70
8
 71
3
 72
8
 73
4
 74
0
 40
0
 40
0
 40
0
 40
0
 40
1
 40
1
 40
1
 40
1
 10
28.900416
 20
83.009408
 30
0.0
 10
29.105792
 20
83.009408
 30
0.0
 10
29.998329
 20
83.299445
 30
0.0
 10
30.883826
 20
83.653933
 30
0.0
  0
SPLINE
  5
164
100
AcDbEntity
  8
Layer_1
 62
7
100
AcDbSpline
 70
8
 71
3
 72
8
 73
4
 74
0
 40
0
 40
0
 40
0
 40
0
 40
1
 40
1
 40
1
 40
1
 10
30.883826
 20
83.653933
 30
0.0
 10
32.707594
 20
84.384036
 30
0.0
 10
32.801822
 20
84.325823
 30
0.0
 10
33.305936
 20
87.592014
 30
0.0
  0
LINE
  5
165
100
AcDbEntity
  8
Layer_1
 62
7
100
AcDbLine
 10
33.305936
 20
87.592014
 30
0.0
 11
34.140967
 21
93.002240
 31
0.0
  0
SPLINE
  5
166
100
AcDbEntity
  8
Layer_1
 62
7
100
AcDbSpline
 70
8
 71
3
 72
8
 73
4
 74
0
 40
0
 40
0
 40
0
 40
0
 40
1
 40
1
 40
1
 40
1
 10
34.140967
 20
93.002240
 30
0.0
 10
34.197967
 20
92.997075
 30
0.0
 10
33.878833
 20
93.095373
 30
0.0
 10
33.562442
 20
93.155069
 30
0.0
  0
SPLINE
  5
167
100
AcDbEntity
  8
Layer_1
 62
7
100
AcDbSpline
 70
8
 71
3
 72
8
 73
4
 74
0
 40
0
 40
0
 40
0
 40
0
 40
1
 40
1
 40
1
 40
1
 10
33.562442
 20
93.155069
 30
0.0
 10
33.246054
 20
93.214767
 30
0.0
 10
32.941762
 20
93.238996
 30
0.0
 10
32.997273
 20
93.229183
 30
0.0
  0
SPLINE
  5
168
100
AcDbEntity
  8
Layer_1
 62
7
100
AcDbSpline
 70
8
 71
3
 72
8
 73
4
 74
0
 40
0
 40
0
 40
0
 40
0
 40
1
 40
1
 40
1
 40
1
 10
32.997273
 20
93.229183
 30
0.0
 10
33.052783
 20
93.219362
 30
0.0
 10
32.730646
 20
93.268491
 30
0.0
 10
32.133788
 20
93.241770
 30
0.0
  0
SPLINE
  5
169
100
AcDbEntity
  8
Layer_1
 62
7
100
AcDbSpline
 70
8
 71
3
 72
8
 73
4
 74
0
 40
0
 40
0
 40
0
 40
0
 40
1
 40
1
 40
1
 40
1
 10
32.133788
 20
93.241770
 30
0.0
 10
31.536931
 20
93.215044
 30
0.0
 10
30.665663
 20
93.103552
 30
0.0
 10
30.721125
 20
93.111033
 30
0.0
  0
SPLINE
  5
16a
100
AcDbEntity
  8
Layer_1
 62
7
100
AcDbSpline
 70
8
 71
3
 72
8
 73
4
 74
0
 40
0
 40
0
 40
0
 40
0
 40
1
 40
1
 40
1
 40
1
 10
30.721125
 20
93.111033
 30
0.0
 10
30.780014
 20
93.118964
 30
0.0
 10
30.440449
 20
93.050999
 30
0.0
 10
30.063192
 20
92.883935
 30
0.0
  0
SPLINE
  5
16b
100
AcDbEntity
  8
Layer_1
 62
7
100
AcDbSpline
 70
8
 71
3
 72
8
 73
4
 74
0
 40
0
 40
0
 40
0
 40
0
 40
1
 40
1
 40
1
 40
1
 10
30.063192
 20
92.883935
 30
0.0
 10
29.685931
 20
92.716873
 30
0.0
 10
29.335188
 20
92.400900
 30
0.0
 10
29.375535
 20
92.439562
 30
0.0
  0
SPLINE
  5
16c
100
AcDbEntity
  8
Layer_1
 62
7
100
AcDbSpline
 70
8
 71
3
 72
8
 73
4
 74
0
 40
0
 40
0
 40
0
 40
0
 40
1
 40
1
 40
1
 40
1
 10
29.375535
 20
92.439562
 30
0.0
 10
29.458262
 20
92.518841
 30
0.0
 10
29.272272
 20
92.322699
 30
0.0
 10
29.079819
 20
92.113364
 30
0.0
  0
SPLINE
  5
16d
100
AcDbEntity
  8
Layer_1
 62
7
100
AcDbSpline
 70
8
 71
3
 72
8
 73
4
 74
0
 40
0
 40
0
 40
0
 40
0
 40
1
 40
1
 40
1
 40
1
 10
29.079819
 20
92.113364
 30
0.0
 10
28.887366
 20
91.904028
 30
0.0
 10
28.730662
 20
91.593155
 30
0.0
 10
28.706343
 20
91.542710
 30
0.0
  0
SPLINE
  5
16e
100
AcDbEntity
  8
Layer_1
 62
7
100
AcDbSpline
 70
8
 71
3
 72
8
 73
4
 74
0
 40
0
 40
0
 40
0
 40
0
 40
1
 40
1
 40
1
 40
1
 10
28.706343
 20
91.542710
 30
0.0
 10
28.664989
 20
91.456937
 30
0.0
 10
28.540611
 20
91.190311
 30
0.0
 10
28.341216
 20
91.004180
 30
0.0
  0
SPLINE
  5
16f
100
AcDbEntity
  8
Layer_1
 62
7
100
AcDbSpline
 70
8
 71
3
 72
8
 73
4
 74
0
 40
0
 40
0
 40
0
 40
0
 40
1
 40
1
 40
1
 40
1
 10
28.341216
 20
91.004180
 30
0.0
 10
28.141818
 20
90.818048
 30
0.0
 10
28.018932
 20
90.779463
 30
0.0
 10
27.965652
 20
90.761516
 30
0.0
  0
SPLINE
  5
170
100
AcDbEntity
  8
Layer_1
 62
7
100
AcDbSpline
 70
8
 71
3
 72
8
 73
4
 74
0
 40
0
 40
0
 40
0
 40
0
 40
1
 40
1
 40
1
 40
1
 10
27.965652
 20
90.761516
 30
0.0
 10
27.889282
 20
90.735806
 30
0.0
 10
27.680233
 20
90.694412
 30
0.0
 10
27.396218
 20
90.705600
 30
0.0
  0
SPLINE
  5
171
100
AcDbEntity
  8
Layer_1
 62
7
100
AcDbSpline
 70
8
 71
3
 72
8
 73
4
 74
0
 40
0
 40
0
 40
0
 40
0
 40
1
 40
1
 40
1
 40
1
 10
27.396218
 20
90.705600
 30
0.0
 10
27.112202
 20
90.716804
 30
0.0
 10
27.037325
 20
90.712260
 30
0.0
 10
26.978782
 20
90.711131
 30
0.0
  0
SPLINE
  5
172
100
AcDbEntity
  8
Layer_1
 62
7
100
AcDbSpline
 70
8
 71
3
 72
8
 73
4
 74
0
 40
0
 40
0
 40
0
 40
0
 40
1
 40
1
 40
1
 40
1
 10
26.978782
 20
90.711131
 30
0.0
 10
26.962058
 20
90.710849
 30
0.0
 10
26.944964
 20
90.710002
 30
0.0
 10
26.929732
 20
90.709438
 30
0.0
  0
SPLINE
  5
173
100
AcDbEntity
  8
Layer_1
 62
7
100
AcDbSpline
 70
8
 71
3
 72
8
 73
4
 74
0
 40
0
 40
0
 40
0
 40
0
 40
1
 40
1
 40
1
 40
1
 10
26.929732
 20
90.709438
 30
0.0
 10
26.900399
 20
90.708309
 30
0.0
 10
26.871063
 20
90.708027
 30
0.0
 10
26.844111
 20
90.707180
 30
0.0
  0
SPLINE
  5
174
100
AcDbEntity
  8
Layer_1
 62
7
100
AcDbSpline
 70
8
 71
3
 72
8
 73
4
 74
0
 40
0
 40
0
 40
0
 40
0
 40
1
 40
1
 40
1
 40
1
 10
26.844111
 20
90.707180
 30
0.0
 10
26.827096
 20
90.706898
 30
0.0
 10
26.808787
 20
90.706616
 30
0.0
 10
26.789296
 20
90.706334
 30
0.0
  0
SPLINE
  5
175
100
AcDbEntity
  8
Layer_1
 62
7
100
AcDbSpline
 70
8
 71
3
 72
8
 73
4
 74
0
 40
0
 40
0
 40
0
 40
0
 40
1
 40
1
 40
1
 40
1
 10
26.789296
 20
90.706334
 30
0.0
 10
26.769803
 20
90.706173
 30
0.0
 10
26.749130
 20
90.706119
 30
0.0
 10
26.727389
 20
90.706218
 30
0.0
  0
SPLINE
  5
176
100
AcDbEntity
  8
Layer_1
 62
7
100
AcDbSpline
 70
8
 71
3
 72
8
 73
4
 74
0
 40
0
 40
0
 40
0
 40
0
 40
1
 40
1
 40
1
 40
1
 10
26.727389
 20
90.706218
 30
0.0
 10
26.705647
 20
90.706317
 30
0.0
 10
26.682838
 20
90.706500
 30
0.0
 10
26.659075
 20
90.707065
 30
0.0
  0
SPLINE
  5
177
100
AcDbEntity
  8
Layer_1
 62
7
100
AcDbSpline
 70
8
 71
3
 72
8
 73
4
 74
0
 40
0
 40
0
 40
0
 40
0
 40
1
 40
1
 40
1
 40
1
 10
26.659075
 20
90.707065
 30
0.0
 10
26.635312
 20
90.707629
 30
0.0
 10
26.610594
 20
90.708193
 30
0.0
 10
26.585037
 20
90.709040
 30
0.0
  0
SPLINE
  5
178
100
AcDbEntity
  8
Layer_1
 62
7
100
AcDbSpline
 70
8
 71
3
 72
8
 73
4
 74
0
 40
0
 40
0
 40
0
 40
0
 40
1
 40
1
 40
1
 40
1
 10
26.585037
 20
90.709040
 30
0.0
 10
26.559479
 20
90.709887
 30
0.0
 10
26.535110
 20
90.710451
 30
0.0
 10
26.511919
 20
90.710733
 30
0.0
  0
SPLINE
  5
179
100
AcDbEntity
  8
Layer_1
 62
7
100
AcDbSpline
 70
8
 71
3
 72
8
 73
4
 74
0
 40
0
 40
0
 40
0
 40
0
 40
1
 40
1
 40
1
 40
1
 10
26.511919
 20
90.710733
 30
0.0
 10
26.488729
 20
90.710985
 30
0.0
 10
26.466717
 20
90.710954
 30
0.0
 10
26.445877
 20
90.710711
 30
0.0
  0
SPLINE
  5
17a
100
AcDbEntity
  8
Layer_1
 62
7
100
AcDbSpline
 70
8
 71
3
 72
8
 73
4
 74
0
 40
0
 40
0
 40
0
 40
0
 40
1
 40
1
 40
1
 40
1
 10
26.445877
 20
90.710711
 30
0.0
 10
26.425038
 20
90.710468
 30
0.0
 10
26.405367
 20
90.710146
 30
0.0
 10
26.386861
 20
90.709300
 30
0.0
  0
SPLINE
  5
17b
100
AcDbEntity
  8
Layer_1
 62
7
100
AcDbSpline
 70
8
 71
3
 72
8
 73
4
 74
0
 40
0
 40
0
 40
0
 40
0
 40
1
 40
1
 40
1
 40
1
 10
26.386861
 20
90.709300
 30
0.0
 10
26.353434
 20
90.708453
 30
0.0
 10
26.321139
 20
90.706054
 30
0.0
 10
26.289713
 20
90.704502
 30
0.0
  0
SPLINE
  5
17c
100
AcDbEntity
  8
Layer_1
 62
7
100
AcDbSpline
 70
8
 71
3
 72
8
 73
4
 74
0
 40
0
 40
0
 40
0
 40
0
 40
1
 40
1
 40
1
 40
1
 10
26.289713
 20
90.704502
 30
0.0
 10
26.255834
 20
90.701962
 30
0.0
 10
26.226916
 20
90.700748
 30
0.0
 10
26.195470
 20
90.698857
 30
0.0
  0
SPLINE
  5
17d
100
AcDbEntity
  8
Layer_1
 62
7
100
AcDbSpline
 70
8
 71
3
 72
8
 73
4
 74
0
 40
0
 40
0
 40
0
 40
0
 40
1
 40
1
 40
1
 40
1
 10
26.195470
 20
90.698857
 30
0.0
 10
26.186205
 20
90.698595
 30
0.0
 10
26.194341
 20
90.723016
 30
0.0
 10
26.208170
 20
90.759617
 30
0.0
  0
SPLINE
  5
17e
100
AcDbEntity
  8
Layer_1
 62
7
100
AcDbSpline
 70
8
 71
3
 72
8
 73
4
 74
0
 40
0
 40
0
 40
0
 40
0
 40
1
 40
1
 40
1
 40
1
 10
26.208170
 20
90.759617
 30
0.0
 10
26.221053
 20
90.793732
 30
0.0
 10
26.248659
 20
90.850645
 30
0.0
 10
26.267091
 20
90.922869
 30
0.0
  0
SPLINE
  5
17f
100
AcDbEntity
  8
Layer_1
 62
7
100
AcDbSpline
 70
8
 71
3
 72
8
 73
4
 74
0
 40
0
 40
0
 40
0
 40
0
 40
1
 40
1
 40
1
 40
1
 10
26.267091
 20
90.922869
 30
0.0
 10
26.285523
 20
90.995092
 30
0.0
 10
26.318169
 20
91.067033
 30
0.0
 10
26.348932
 20
91.167067
 30
0.0
  0
SPLINE
  5
180
100
AcDbEntity
  8
Layer_1
 62
7
100
AcDbSpline
 70
8
 71
3
 72
8
 73
4
 74
0
 40
0
 40
0
 40
0
 40
0
 40
1
 40
1
 40
1
 40
1
 10
26.348932
 20
91.167067
 30
0.0
 10
26.379694
 20
91.267098
 30
0.0
 10
26.427284
 20
91.396776
 30
0.0
 10
26.469366
 20
91.518995
 30
0.0
  0
SPLINE
  5
181
100
AcDbEntity
  8
Layer_1
 62
7
100
AcDbSpline
 70
8
 71
3
 72
8
 73
4
 74
0
 40
0
 40
0
 40
0
 40
0
 40
1
 40
1
 40
1
 40
1
 10
26.469366
 20
91.518995
 30
0.0
 10
26.511448
 20
91.641212
 30
0.0
 10
26.555819
 20
91.762203
 30
0.0
 10
26.608209
 20
91.900983
 30
0.0
  0
SPLINE
  5
182
100
AcDbEntity
  8
Layer_1
 62
7
100
AcDbSpline
 70
8
 71
3
 72
8
 73
4
 74
0
 40
0
 40
0
 40
0
 40
0
 40
1
 40
1
 40
1
 40
1
 10
26.608209
 20
91.900983
 30
0.0
 10
26.660599
 20
92.039763
 30
0.0
 10
26.700741
 20
92.194776
 30
0.0
 10
26.762428
 20
92.344495
 30
0.0
  0
SPLINE
  5
183
100
AcDbEntity
  8
Layer_1
 62
7
100
AcDbSpline
 70
8
 71
3
 72
8
 73
4
 74
0
 40
0
 40
0
 40
0
 40
0
 40
1
 40
1
 40
1
 40
1
 10
26.762428
 20
92.344495
 30
0.0
 10
26.824114
 20
92.494217
 30
0.0
 10
26.860574
 20
92.649561
 30
0.0
 10
26.930546
 20
92.804599
 30
0.0
  0
SPLINE
  5
184
100
AcDbEntity
  8
Layer_1
 62
7
100
AcDbSpline
 70
8
 71
3
 72
8
 73
4
 74
0
 40
0
 40
0
 40
0
 40
0
 40
1
 40
1
 40
1
 40
1
 10
26.930546
 20
92.804599
 30
0.0
 10
27.000517
 20
92.959635
 30
0.0
 10
27.063465
 20
93.117485
 30
0.0
 10
27.140710
 20
93.272219
 30
0.0
  0
SPLINE
  5
185
100
AcDbEntity
  8
Layer_1
 62
7
100
AcDbSpline
 70
8
 71
3
 72
8
 73
4
 74
0
 40
0
 40
0
 40
0
 40
0
 40
1
 40
1
 40
1
 40
1
 10
27.140710
 20
93.272219
 30
0.0
 10
27.295201
 20
93.581684
 30
0.0
 10
27.401733
 20
93.902164
 30
0.0
 10
27.581253
 20
94.181945
 30
0.0
  0
SPLINE
  5
186
100
AcDbEntity
  8
Layer_1
 62
7
100
AcDbSpline
 70
8
 71
3
 72
8
 73
4
 74
0
 40
0
 40
0
 40
0
 40
0
 40
1
 40
1
 40
1
 40
1
 10
27.581253
 20
94.181945
 30
0.0
 10
27.760773
 20
94.461729
 30
0.0
 10
27.933462
 20
94.725757
 30
0.0
 10
28.097679
 20
94.942980
 30
0.0
  0
SPLINE
  5
187
100
AcDbEntity
  8
Layer_1
 62
7
100
AcDbSpline
 70
8
 71
3
 72
8
 73
4
 74
0
 40
0
 40
0
 40
0
 40
0
 40
1
 40
1
 40
1
 40
1
 10
28.097679
 20
94.942980
 30
0.0
 10
28.261897
 20
95.160207
 30
0.0
 10
28.525614
 20
95.362879
 30
0.0
 10
28.634199
 20
95.484675
 30
0.0
  0
SPLINE
  5
188
100
AcDbEntity
  8
Layer_1
 62
7
100
AcDbSpline
 70
8
 71
3
 72
8
 73
4
 74
0
 40
0
 40
0
 40
0
 40
0
 40
1
 40
1
 40
1
 40
1
 10
28.634199
 20
95.484675
 30
0.0
 10
28.742781
 20
95.606471
 30
0.0
 10
29.256595
 20
96.047993
 30
0.0
 10
29.349991
 20
96.103582
 30
0.0
  0
SPLINE
  5
189
100
AcDbEntity
  8
Layer_1
 62
7
100
AcDbSpline
 70
8
 71
3
 72
8
 73
4
 74
0
 40
0
 40
0
 40
0
 40
0
 40
1
 40
1
 40
1
 40
1
 10
29.349991
 20
96.103582
 30
0.0
 10
29.581579
 20
96.241423
 30
0.0
 10
30.044012
 20
96.684980
 30
0.0
 10
31.202717
 20
97.001611
 30
0.0
  0
SPLINE
  5
18a
100
AcDbEntity
  8
Layer_1
 62
7
100
AcDbSpline
 70
8
 71
3
 72
8
 73
4
 74
0
 40
0
 40
0
 40
0
 40
0
 40
1
 40
1
 40
1
 40
1
 10
31.202717
 20
97.001611
 30
0.0
 10
31.562475
 20
97.099917
 30
0.0
 10
31.934444
 20
97.146230
 30
0.0
 10
32.306565
 20
97.194329
 30
0.0
  0
SPLINE
  5
18b
100
AcDbEntity
  8
Layer_1
 62
7
100
AcDbSpline
 70
8
 71
3
 72
8
 73
4
 74
0
 40
0
 40
0
 40
0
 40
0
 40
1
 40
1
 40
1
 40
1
 10
32.306565
 20
97.194329
 30
0.0
 10
32.678689
 20
97.242428
 30
0.0
 10
32.852281
 20
97.237396
 30
0.0
 10
33.174195
 20
97.261351
 30
0.0
  0
SPLINE
  5
18c
100
AcDbEntity
  8
Layer_1
 62
7
100
AcDbSpline
 70
8
 71
3
 72
8
 73
4
 74
0
 40
0
 40
0
 40
0
 40
0
 40
1
 40
1
 40
1
 40
1
 10
33.174195
 20
97.261351
 30
0.0
 10
33.506227
 20
97.286046
 30
0.0
 10
33.840217
 20
97.297272
 30
0.0
 10
34.043061
 20
97.300312
 30
0.0
  0
SPLINE
  5
18d
100
AcDbEntity
  8
Layer_1
 62
7
100
AcDbSpline
 70
8
 71
3
 72
8
 73
4
 74
0
 40
0
 40
0
 40
0
 40
0
 40
1
 40
1
 40
1
 40
1
 10
34.043061
 20
97.300312
 30
0.0
 10
34.228648
 20
97.302570
 30
0.0
 10
34.430152
 20
97.298336
 30
0.0
 10
34.574929
 20
97.286652
 30
0.0
  0
SPLINE
  5
18e
100
AcDbEntity
  8
Layer_1
 62
7
100
AcDbSpline
 70
8
 71
3
 72
8
 73
4
 74
0
 40
0
 40
0
 40
0
 40
0
 40
1
 40
1
 40
1
 40
1
 10
34.574929
 20
97.286652
 30
0.0
 10
34.696733
 20
97.273839
 30
0.0
 10
34.772566
 20
97.277254
 30
0.0
 10
34.859276
 20
97.263905
 30
0.0
  0
SPLINE
  5
18f
100
AcDbEntity
  8
Layer_1
 62
7
100
AcDbSpline
 70
8
 71
3
 72
8
 73
4
 74
0
 40
0
 40
0
 40
0
 40
0
 40
1
 40
1
 40
1
 40
1
 10
34.859276
 20
97.263905
 30
0.0
 10
34.945360
 20
97.250641
 30
0.0
 10
35.119646
 20
97.228165
 30
0.0
 10
35.222126
 20
97.203464
 30
0.0
  0
SPLINE
  5
190
100
AcDbEntity
  8
Layer_1
 62
7
100
AcDbSpline
 70
8
 71
3
 72
8
 73
4
 74
0
 40
0
 40
0
 40
0
 40
0
 40
1
 40
1
 40
1
 40
1
 10
35.222126
 20
97.203464
 30
0.0
 10
35.324607
 20
97.178770
 30
0.0
 10
35.397801
 20
97.135217
 30
0.0
 10
35.506276
 20
97.109321
 30
0.0
  0
SPLINE
  5
191
100
AcDbEntity
  8
Layer_1
 62
7
100
AcDbSpline
 70
8
 71
3
 72
8
 73
4
 74
0
 40
0
 40
0
 40
0
 40
0
 40
1
 40
1
 40
1
 40
1
 10
35.506276
 20
97.109321
 30
0.0
 10
35.940179
 20
97.005731
 30
0.0
 10
36.294766
 20
96.849383
 30
0.0
 10
36.345535
 20
96.824003
 30
0.0
  0
SPLINE
  5
192
100
AcDbEntity
  8
Layer_1
 62
7
100
AcDbSpline
 70
8
 71
3
 72
8
 73
4
 74
0
 40
0
 40
0
 40
0
 40
0
 40
1
 40
1
 40
1
 40
1
 10
36.345535
 20
96.824003
 30
0.0
 10
36.396306
 20
96.798631
 30
0.0
 10
36.384800
 20
96.782829
 30
0.0
 10
37.021976
 20
96.492939
 30
0.0
  0
SPLINE
  5
193
100
AcDbEntity
  8
Layer_1
 62
7
100
AcDbSpline
 70
8
 71
3
 72
8
 73
4
 74
0
 40
0
 40
0
 40
0
 40
0
 40
1
 40
1
 40
1
 40
1
 10
37.021976
 20
96.492939
 30
0.0
 10
37.659152
 20
96.203052
 30
0.0
 10
37.854272
 20
96.117688
 30
0.0
 10
37.905484
 20
96.093527
 30
0.0
  0
SPLINE
  5
194
100
AcDbEntity
  8
Layer_1
 62
7
100
AcDbSpline
 70
8
 71
3
 72
8
 73
4
 74
0
 40
0
 40
0
 40
0
 40
0
 40
1
 40
1
 40
1
 40
1
 10
37.905484
 20
96.093527
 30
0.0
 10
37.918297
 20
96.087487
 30
0.0
 10
38.432252
 20
95.869061
 30
0.0
 10
38.504656
 20
95.848739
 30
0.0
  0
SPLINE
  5
195
100
AcDbEntity
  8
Layer_1
 62
7
100
AcDbSpline
 70
8
 71
3
 72
8
 73
4
 74
0
 40
0
 40
0
 40
0
 40
0
 40
1
 40
1
 40
1
 40
1
 10
38.504656
 20
95.848739
 30
0.0
 10
38.577063
 20
95.828419
 30
0.0
 10
38.882639
 20
95.659624
 30
0.0
 10
38.997625
 20
95.629124
 30
0.0
  0
SPLINE
  5
196
100
AcDbEntity
  8
Layer_1
 62
7
100
AcDbSpline
 70
8
 71
3
 72
8
 73
4
 74
0
 40
0
 40
0
 40
0
 40
0
 40
1
 40
1
 40
1
 40
1
 10
38.997625
 20
95.629124
 30
0.0
 10
39.112608
 20
95.598625
 30
0.0
 10
39.634168
 20
95.396748
 30
0.0
 10
39.774707
 20
95.360164
 30
0.0
  0
SPLINE
  5
197
100
AcDbEntity
  8
Layer_1
 62
7
100
AcDbSpline
 70
8
 71
3
 72
8
 73
4
 74
0
 40
0
 40
0
 40
0
 40
0
 40
1
 40
1
 40
1
 40
1
 10
39.774707
 20
95.360164
 30
0.0
 10
39.915248
 20
95.323577
 30
0.0
 10
40.059898
 20
95.271746
 30
0.0
 10
40.208970
 20
95.233170
 30
0.0
  0
SPLINE
  5
198
100
AcDbEntity
  8
Layer_1
 62
7
100
AcDbSpline
 70
8
 71
3
 72
8
 73
4
 74
0
 40
0
 40
0
 40
0
 40
0
 40
1
 40
1
 40
1
 40
1
 10
40.208970
 20
95.233170
 30
0.0
 10
40.358043
 20
95.194593
 30
0.0
 10
40.485074
 20
95.164866
 30
0.0
 10
40.625652
 20
95.128392
 30
0.0
  0
SPLINE
  5
199
100
AcDbEntity
  8
Layer_1
 62
7
100
AcDbSpline
 70
8
 71
3
 72
8
 73
4
 74
0
 40
0
 40
0
 40
0
 40
0
 40
1
 40
1
 40
1
 40
1
 10
40.625652
 20
95.128392
 30
0.0
 10
40.766230
 20
95.091920
 30
0.0
 10
40.880668
 20
95.066342
 30
0.0
 10
40.995730
 20
95.036068
 30
0.0
  0
SPLINE
  5
19a
100
AcDbEntity
  8
Layer_1
 62
7
100
AcDbSpline
 70
8
 71
3
 72
8
 73
4
 74
0
 40
0
 40
0
 40
0
 40
0
 40
1
 40
1
 40
1
 40
1
 10
40.995730
 20
95.036068
 30
0.0
 10
41.110795
 20
95.005794
 30
0.0
 10
41.200022
 20
94.997280
 30
0.0
 10
41.272545
 20
94.977298
 30
0.0
  0
SPLINE
  5
19b
100
AcDbEntity
  8
Layer_1
 62
7
100
AcDbSpline
 70
8
 71
3
 72
8
 73
4
 74
0
 40
0
 40
0
 40
0
 40
0
 40
1
 40
1
 40
1
 40
1
 10
41.272545
 20
94.977298
 30
0.0
 10
41.345067
 20
94.957317
 30
0.0
 10
41.414113
 20
94.957853
 30
0.0
 10
41.503143
 20
94.941219
 30
0.0
  0
SPLINE
  5
19c
100
AcDbEntity
  8
Layer_1
 62
7
100
AcDbSpline
 70
8
 71
3
 72
8
 73
4
 74
0
 40
0
 40
0
 40
0
 40
0
 40
1
 40
1
 40
1
 40
1
 10
41.503143
 20
94.941219
 30
0.0
 10
41.633360
 20
94.919714
 30
0.0
 10
41.715730
 20
94.919629
 30
0.0
 10
41.809027
 20
94.903475
 30
0.0
  0
SPLINE
  5
19d
100
AcDbEntity
  8
Layer_1
 62
7
100
AcDbSpline
 70
8
 71
3
 72
8
 73
4
 74
0
 40
0
 40
0
 40
0
 40
0
 40
1
 40
1
 40
1
 40
1
 10
41.809027
 20
94.903475
 30
0.0
 10
41.901562
 20
94.894387
 30
0.0
 10
42.014326
 20
94.883014
 30
0.0
 10
42.127983
 20
94.876466
 30
0.0
  0
SPLINE
  5
19e
100
AcDbEntity
  8
Layer_1
 62
7
100
AcDbSpline
 70
8
 71
3
 72
8
 73
4
 74
0
 40
0
 40
0
 40
0
 40
0
 40
1
 40
1
 40
1
 40
1
 10
42.127983
 20
94.876466
 30
0.0
 10
42.241803
 20
94.869890
 30
0.0
 10
42.335899
 20
94.860859
 30
0.0
 10
42.456464
 20
94.863851
 30
0.0
  0
SPLINE
  5
19f
100
AcDbEntity
  8
Layer_1
 62
7
100
AcDbSpline
 70
8
 71
3
 72
8
 73
4
 74
0
 40
0
 40
0
 40
0
 40
0
 40
1
 40
1
 40
1
 40
1
 10
42.456464
 20
94.863851
 30
0.0
 10
42.577029
 20
94.866842
 30
0.0
 10
42.743907
 20
94.878667
 30
0.0
 10
42.857781
 20
94.881179
 30
0.0
  0
SPLINE
  5
1a0
100
AcDbEntity
  8
Layer_1
 62
7
100
AcDbSpline
 70
8
 71
3
 72
8
 73
4
 74
0
 40
0
 40
0
 40
0
 40
0
 40
1
 40
1
 40
1
 40
1
 10
42.857781
 20
94.881179
 30
0.0
 10
42.971652
 20
94.883719
 30
0.0
 10
43.086680
 20
94.895798
 30
0.0
 10
43.179176
 20
94.911050
 30
0.0
  0
SPLINE
  5
1a1
100
AcDbEntity
  8
Layer_1
 62
7
100
AcDbSpline
 70
8
 71
3
 72
8
 73
4
 74
0
 40
0
 40
0
 40
0
 40
0
 40
1
 40
1
 40
1
 40
1
 10
43.179176
 20
94.911050
 30
0.0
 10
43.279534
 20
94.927616
 30
0.0
 10
43.318597
 20
94.932781
 30
0.0
 10
43.378128
 20
94.941634
 30
0.0
  0
SPLINE
  5
1a2
100
AcDbEntity
  8
Layer_1
 62
7
100
AcDbSpline
 70
8
 71
3
 72
8
 73
4
 74
0
 40
0
 40
0
 40
0
 40
0
 40
1
 40
1
 40
1
 40
1
 10
43.378128
 20
94.941634
 30
0.0
 10
43.442715
 20
94.951258
 30
0.0
 10
43.467212
 20
94.961305
 30
0.0
 10
43.614969
 20
95.004967
 30
0.0
  0
SPLINE
  5
1a3
100
AcDbEntity
  8
Layer_1
 62
7
100
AcDbSpline
 70
8
 71
3
 72
8
 73
4
 74
0
 40
0
 40
0
 40
0
 40
0
 40
1
 40
1
 40
1
 40
1
 10
43.614969
 20
95.004967
 30
0.0
 10
43.741171
 20
95.042260
 30
0.0
 10
43.804803
 20
95.047947
 30
0.0
 10
43.929452
 20
95.102258
 30
0.0
  0
SPLINE
  5
1a4
100
AcDbEntity
  8
Layer_1
 62
7
100
AcDbSpline
 70
8
 71
3
 72
8
 73
4
 74
0
 40
0
 40
0
 40
0
 40
0
 40
1
 40
1
 40
1
 40
1
 10
43.929452
 20
95.102258
 30
0.0
 10
44.044249
 20
95.152276
 30
0.0
 10
44.047413
 20
95.140589
 30
0.0
 10
44.249930
 20
95.241272
 30
0.0
  0
SPLINE
  5
1a5
100
AcDbEntity
  8
Layer_1
 62
7
100
AcDbSpline
 70
8
 71
3
 72
8
 73
4
 74
0
 40
0
 40
0
 40
0
 40
0
 40
1
 40
1
 40
1
 40
1
 10
44.249930
 20
95.241272
 30
0.0
 10
44.452447
 20
95.341955
 30
0.0
 10
44.726598
 20
95.541977
 30
0.0
 10
44.937959
 20
95.726175
 30
0.0
  0
SPLINE
  5
1a6
100
AcDbEntity
  8
Layer_1
 62
7
100
AcDbSpline
 70
8
 71
3
 72
8
 73
4
 74
0
 40
0
 40
0
 40
0
 40
0
 40
1
 40
1
 40
1
 40
1
 10
44.937959
 20
95.726175
 30
0.0
 10
45.128586
 20
95.892300
 30
0.0
 10
45.282036
 20
96.111764
 30
0.0
 10
45.449908
 20
96.358562
 30
0.0
  0
SPLINE
  5
1a7
100
AcDbEntity
  8
Layer_1
 62
7
100
AcDbSpline
 70
8
 71
3
 72
8
 73
4
 74
0
 40
0
 40
0
 40
0
 40
0
 40
1
 40
1
 40
1
 40
1
 10
45.449908
 20
96.358562
 30
0.0
 10
45.625156
 20
96.616202
 30
0.0
 10
45.843774
 20
97.032855
 30
0.0
 10
46.093707
 20
97.160191
 30
0.0
  0
SPLINE
  5
1a8
100
AcDbEntity
  8
Layer_1
 62
7
100
AcDbSpline
 70
8
 71
3
 72
8
 73
4
 74
0
 40
0
 40
0
 40
0
 40
0
 40
1
 40
1
 40
1
 40
1
 10
46.093707
 20
97.160191
 30
0.0
 10
46.343643
 20
97.287527
 30
0.0
 10
46.585211
 20
97.283280
 30
0.0
 10
46.811065
 20
97.299603
 30
0.0
  0
SPLINE
  5
1a9
100
AcDbEntity
  8
Layer_1
 62
7
100
AcDbSpline
 70
8
 71
3
 72
8
 73
4
 74
0
 40
0
 40
0
 40
0
 40
0
 40
1
 40
1
 40
1
 40
1
 10
46.811065
 20
97.299603
 30
0.0
 10
47.001238
 20
97.313348
 30
0.0
 10
47.389107
 20
97.295568
 30
0.0
 10
47.522344
 20
97.266454
 30
0.0
  0
SPLINE
  5
1aa
100
AcDbEntity
  8
Layer_1
 62
7
100
AcDbSpline
 70
8
 71
3
 72
8
 73
4
 74
0
 40
0
 40
0
 40
0
 40
0
 40
1
 40
1
 40
1
 40
1
 10
47.522344
 20
97.266454
 30
0.0
 10
47.660182
 20
97.236338
 30
0.0
 10
47.739842
 20
97.180274
 30
0.0
 10
47.836156
 20
97.080416
 30
0.0
  0
SPLINE
  5
1ab
100
AcDbEntity
  8
Layer_1
 62
7
100
AcDbSpline
 70
8
 71
3
 72
8
 73
4
 74
0
 40
0
 40
0
 40
0
 40
0
 40
1
 40
1
 40
1
 40
1
 10
47.836156
 20
97.080416
 30
0.0
 10
47.923628
 20
96.989723
 30
0.0
 10
47.916606
 20
96.706307
 30
0.0
 10
47.853061
 20
96.506432
 30
0.0
  0
SPLINE
  5
1ac
100
AcDbEntity
  8
Layer_1
 62
7
100
AcDbSpline
 70
8
 71
3
 72
8
 73
4
 74
0
 40
0
 40
0
 40
0
 40
0
 40
1
 40
1
 40
1
 40
1
 10
47.853061
 20
96.506432
 30
0.0
 10
47.790791
 20
96.310564
 30
0.0
 10
47.694774
 20
95.953545
 30
0.0
 10
47.531737
 20
95.646936
 30
0.0
  0
SPLINE
  5
1ad
100
AcDbEntity
  8
Layer_1
 62
7
100
AcDbSpline
 70
8
 71
3
 72
8
 73
4
 74
0
 40
0
 40
0
 40
0
 40
0
 40
1
 40
1
 40
1
 40
1
 10
47.531737
 20
95.646936
 30
0.0
 10
47.364642
 20
95.332698
 30
0.0
 10
47.084242
 20
94.657504
 30
0.0
 10
46.855278
 20
94.289393
 30
0.0
  0
SPLINE
  5
1ae
100
AcDbEntity
  8
Layer_1
 62
7
100
AcDbSpline
 70
8
 71
3
 72
8
 73
4
 74
0
 40
0
 40
0
 40
0
 40
0
 40
1
 40
1
 40
1
 40
1
 10
46.855278
 20
94.289393
 30
0.0
 10
46.619648
 20
93.910560
 30
0.0
 10
46.448909
 20
93.617921
 30
0.0
 10
46.119006
 20
93.233543
 30
0.0
  0
SPLINE
  5
1af
100
AcDbEntity
  8
Layer_1
 62
7
100
AcDbSpline
 70
8
 71
3
 72
8
 73
4
 74
0
 40
0
 40
0
 40
0
 40
0
 40
1
 40
1
 40
1
 40
1
 10
46.119006
 20
93.233543
 30
0.0
 10
45.808897
 20
92.872231
 30
0.0
 10
45.658871
 20
92.697239
 30
0.0
 10
45.325527
 20
92.407307
 30
0.0
  0
SPLINE
  5
1b0
100
AcDbEntity
  8
Layer_1
 62
7
100
AcDbSpline
 70
8
 71
3
 72
8
 73
4
 74
0
 40
0
 40
0
 40
0
 40
0
 40
1
 40
1
 40
1
 40
1
 10
45.325527
 20
92.407307
 30
0.0
 10
44.989070
 20
92.114668
 30
0.0
 10
44.730769
 20
91.964322
 30
0.0
 10
44.468099
 20
91.810949
 30
0.0
  0
SPLINE
  5
1b1
100
AcDbEntity
  8
Layer_1
 62
7
100
AcDbSpline
 70
8
 71
3
 72
8
 73
4
 74
0
 40
0
 40
0
 40
0
 40
0
 40
1
 40
1
 40
1
 40
1
 10
44.468099
 20
91.810949
 30
0.0
 10
44.161137
 20
91.631712
 30
0.0
 10
44.060708
 20
91.598435
 30
0.0
 10
43.903852
 20
91.522393
 30
0.0
  0
SPLINE
  5
1b2
100
AcDbEntity
  8
Layer_1
 62
7
100
AcDbSpline
 70
8
 71
3
 72
8
 73
4
 74
0
 40
0
 40
0
 40
0
 40
0
 40
1
 40
1
 40
1
 40
1
 10
43.903852
 20
91.522393
 30
0.0
 10
43.719510
 20
91.433028
 30
0.0
 10
43.376884
 20
91.319348
 30
0.0
 10
43.225974
 20
91.255383
 30
0.0
  0
SPLINE
  5
1b3
100
AcDbEntity
  8
Layer_1
 62
7
100
AcDbSpline
 70
8
 71
3
 72
8
 73
4
 74
0
 40
0
 40
0
 40
0
 40
0
 40
1
 40
1
 40
1
 40
1
 10
43.225974
 20
91.255383
 30
0.0
 10
43.091738
 20
91.198484
 30
0.0
 10
43.065556
 20
91.204117
 30
0.0
 10
42.986333
 20
91.187113
 30
0.0
  0
SPLINE
  5
1b4
100
AcDbEntity
  8
Layer_1
 62
7
100
AcDbSpline
 70
8
 71
3
 72
8
 73
4
 74
0
 40
0
 40
0
 40
0
 40
0
 40
1
 40
1
 40
1
 40
1
 10
42.986333
 20
91.187113
 30
0.0
 10
42.888772
 20
91.166172
 30
0.0
 10
42.754429
 20
91.121680
 30
0.0
 10
42.583441
 20
91.084509
 30
0.0
  0
SPLINE
  5
1b5
100
AcDbEntity
  8
Layer_1
 62
7
100
AcDbSpline
 70
8
 71
3
 72
8
 73
4
 74
0
 40
0
 40
0
 40
0
 40
0
 40
1
 40
1
 40
1
 40
1
 10
42.583441
 20
91.084509
 30
0.0
 10
42.406909
 20
91.046129
 30
0.0
 10
42.086053
 20
90.986448
 30
0.0
 10
41.866572
 20
90.961570
 30
0.0
  0
SPLINE
  5
1b6
100
AcDbEntity
  8
Layer_1
 62
7
100
AcDbSpline
 70
8
 71
3
 72
8
 73
4
 74
0
 40
0
 40
0
 40
0
 40
0
 40
1
 40
1
 40
1
 40
1
 10
41.866572
 20
90.961570
 30
0.0
 10
41.638855
 20
90.935746
 30
0.0
 10
41.444093
 20
90.915900
 30
0.0
 10
41.199122
 20
90.902986
 30
0.0
  0
SPLINE
  5
1b7
100
AcDbEntity
  8
Layer_1
 62
7
100
AcDbSpline
 70
8
 71
3
 72
8
 73
4
 74
0
 40
0
 40
0
 40
0
 40
0
 40
1
 40
1
 40
1
 40
1
 10
41.199122
 20
90.902986
 30
0.0
 10
40.954147
 20
90.890060
 30
0.0
 10
40.690001
 20
90.895338
 30
0.0
 10
40.462810
 20
90.900446
 30
0.0
  0
SPLINE
  5
1b8
100
AcDbEntity
  8
Layer_1
 62
7
100
AcDbSpline
 70
8
 71
3
 72
8
 73
4
 74
0
 40
0
 40
0
 40
0
 40
0
 40
1
 40
1
 40
1
 40
1
 10
40.462810
 20
90.900446
 30
0.0
 10
40.233792
 20
90.905470
 30
0.0
 10
40.019952
 20
90.904228
 30
0.0
 10
39.849140
 20
90.915912
 30
0.0
  0
SPLINE
  5
1b9
100
AcDbEntity
  8
Layer_1
 62
7
100
AcDbSpline
 70
8
 71
3
 72
8
 73
4
 74
0
 40
0
 40
0
 40
0
 40
0
 40
1
 40
1
 40
1
 40
1
 10
39.849140
 20
90.915912
 30
0.0
 10
39.669110
 20
90.928245
 30
0.0
 10
39.504527
 20
90.956588
 30
0.0
 10
39.414656
 20
90.973118
 30
0.0
  0
SPLINE
  5
1ba
100
AcDbEntity
  8
Layer_1
 62
7
100
AcDbSpline
 70
8
 71
3
 72
8
 73
4
 74
0
 40
0
 40
0
 40
0
 40
0
 40
1
 40
1
 40
1
 40
1
 10
39.414656
 20
90.973118
 30
0.0
 10
39.316832
 20
90.991096
 30
0.0
 10
39.281910
 20
90.987850
 30
0.0
 10
39.295984
 20
90.985536
 30
0.0
  0
SPLINE
  5
1bb
100
AcDbEntity
  8
Layer_1
 62
7
100
AcDbSpline
 70
8
 71
3
 72
8
 73
4
 74
0
 40
0
 40
0
 40
0
 40
0
 40
1
 40
1
 40
1
 40
1
 10
39.295984
 20
90.985536
 30
0.0
 10
39.300105
 20
90.644290
 30
0.0
 10
40.396628
 20
84.859925
 30
0.0
 10
40.481769
 20
84.774782
 30
0.0
  0
SPLINE
  5
1bc
100
AcDbEntity
  8
Layer_1
 62
7
100
AcDbSpline
 70
8
 71
3
 72
8
 73
4
 74
0
 40
0
 40
0
 40
0
 40
0
 40
1
 40
1
 40
1
 40
1
 10
40.481769
 20
84.774782
 30
0.0
 10
40.698115
 20
84.558436
 30
0.0
 10
43.884085
 20
83.274367
 30
0.0
 10
44.204526
 20
83.274367
 30
0.0
  0
SPLINE
  5
1bd
100
AcDbEntity
  8
Layer_1
 62
7
100
AcDbSpline
 70
8
 71
3
 72
8
 73
4
 74
0
 40
0
 40
0
 40
0
 40
0
 40
1
 40
1
 40
1
 40
1
 10
44.204526
 20
83.274367
 30
0.0
 10
44.381592
 20
83.274367
 30
0.0
 10
45.450737
 20
83.682093
 30
0.0
 10
46.672799
 20
84.503809
 30
0.0
  0
LINE
  5
1be
100
AcDbEntity
  8
Layer_1
 62
7
100
AcDbLine
 10
46.672799
 20
84.503809
 30
0.0
 11
48.894735
 21
85.997834
 31
0.0
  0
LINE
  5
1bf
100
AcDbEntity
  8
Layer_1
 62
7
100
AcDbLine
 10
48.894735
 20
85.997834
 30
0.0
 11
50.856013
 21
84.036556
 31
0.0
  0
LINE
  5
1c0
100
AcDbEntity
  8
Layer_1
 62
7
100
AcDbLine
 10
50.856013
 20
84.036556
 30
0.0
 11
52.817291
 21
82.075278
 31
0.0
  0
LINE
  5
1c1
100
AcDbEntity
  8
Layer_1
 62
7
100
AcDbLine
 10
52.817291
 20
82.075278
 30
0.0
 11
51.299810
 21
79.709158
 31
0.0
  0
LINE
  5
1c2
100
AcDbEntity
  8
Layer_1
 62
7
100
AcDbLine
 10
51.299810
 20
79.709158
 30
0.0
 11
49.782332
 21
77.343038
 31
0.0
  0
LINE
  5
1c3
100
AcDbEntity
  8
Layer_1
 62
7
100
AcDbLine
 10
49.782332
 20
77.343038
 30
0.0
 11
50.556922
 21
75.471600
 31
0.0
  0
SPLINE
  5
1c4
100
AcDbEntity
  8
Layer_1
 62
7
100
AcDbSpline
 70
8
 71
3
 72
8
 73
4
 74
0
 40
0
 40
0
 40
0
 40
0
 40
1
 40
1
 40
1
 40
1
 10
50.556922
 20
75.471600
 30
0.0
 10
50.982948
 20
74.442310
 30
0.0
 10
51.368381
 20
73.559852
 30
0.0
 10
51.413441
 20
73.510582
 30
0.0
  0
SPLINE
  5
1c5
100
AcDbEntity
  8
Layer_1
 62
7
100
AcDbSpline
 70
8
 71
3
 72
8
 73
4
 74
0
 40
0
 40
0
 40
0
 40
0
 40
1
 40
1
 40
1
 40
1
 10
51.413441
 20
73.510582
 30
0.0
 10
51.458503
 20
73.461314
 30
0.0
 10
52.612550
 20
73.220341
 30
0.0
 10
53.977992
 20
72.975090
 30
0.0
  0
SPLINE
  5
1c6
100
AcDbEntity
  8
Layer_1
 62
7
100
AcDbSpline
 70
8
 71
3
 72
8
 73
4
 74
0
 40
0
 40
0
 40
0
 40
0
 40
1
 40
1
 40
1
 40
1
 10
53.977992
 20
72.975090
 30
0.0
 10
55.343439
 20
72.729839
 30
0.0
 10
56.510820
 20
72.478980
 30
0.0
 10
56.572175
 20
72.417622
 30
0.0
  0
SPLINE
  5
1c7
100
AcDbEntity
  8
Layer_1
 62
7
100
AcDbSpline
 70
8
 71
3
 72
8
 73
4
 74
0
 40
0
 40
0
 40
0
 40
0
 40
1
 40
1
 40
1
 40
1
 10
56.572175
 20
72.417622
 30
0.0
 10
56.633531
 20
72.356267
 30
0.0
 10
56.748005
 20
71.087791
 30
0.0
 10
56.826554
 20
69.598790
 30
0.0
  0
SPLINE
  5
1c8
100
AcDbEntity
  8
Layer_1
 62
7
100
AcDbSpline
 70
8
 71
3
 72
8
 73
4
 74
0
 40
0
 40
0
 40
0
 40
0
 40
1
 40
1
 40
1
 40
1
 10
56.826554
 20
69.598790
 30
0.0
 10
56.942409
 20
67.402652
 30
0.0
 10
56.904845
 20
66.870979
 30
0.0
 10
56.627584
 20
66.782757
 30
0.0
  0
SPLINE
  5
1c9
100
AcDbEntity
  8
Layer_1
 62
7
100
AcDbSpline
 70
8
 71
3
 72
8
 73
4
 74
0
 40
0
 40
0
 40
0
 40
0
 40
1
 40
1
 40
1
 40
1
 10
56.627584
 20
66.782757
 30
0.0
 10
56.439599
 20
66.722942
 30
0.0
 10
55.240959
 20
66.493555
 30
0.0
 10
53.963937
 20
66.273007
 30
0.0
  0
LINE
  5
1ca
100
AcDbEntity
  8
Layer_1
 62
7
100
AcDbLine
 10
53.963937
 20
66.273007
 30
0.0
 11
51.642083
 21
65.872014
 31
0.0
  0
LINE
  5
1cb
100
AcDbEntity
  8
Layer_1
 62
7
100
AcDbLine
 10
51.642083
 20
65.872014
 30
0.0
 11
50.732636
 21
63.789350
 31
0.0
  0
LINE
  5
1cc
100
AcDbEntity
  8
Layer_1
 62
7
100
AcDbLine
 10
50.732636
 20
63.789350
 30
0.0
 11
49.823192
 21
61.706688
 31
0.0
  0
LINE
  5
1cd
100
AcDbEntity
  8
Layer_1
 62
7
100
AcDbLine
 10
49.823192
 20
61.706688
 30
0.0
 11
51.310145
 21
59.495276
 31
0.0
  0
LINE
  5
1ce
100
AcDbEntity
  8
Layer_1
 62
7
100
AcDbLine
 10
51.310145
 20
59.495276
 30
0.0
 11
52.797089
 21
57.283865
 31
0.0
  0
LINE
  5
1cf
100
AcDbEntity
  8
Layer_1
 62
7
100
AcDbLine
 10
52.797089
 20
57.283865
 30
0.0
 11
50.847250
 21
55.334023
 31
0.0
  0
SPLINE
  5
1d0
100
AcDbEntity
  8
Layer_1
 62
7
100
AcDbSpline
 70
8
 71
3
 72
8
 73
4
 74
0
 40
0
 40
0
 40
0
 40
0
 40
1
 40
1
 40
1
 40
1
 10
50.847250
 20
55.334023
 30
0.0
 10
49.185091
 20
53.671864
 30
0.0
 10
48.828658
 20
53.420971
 30
0.0
 10
48.431464
 20
53.633541
 30
0.0
  0
SPLINE
  5
1d1
100
AcDbEntity
  8
Layer_1
 62
7
100
AcDbSpline
 70
8
 71
3
 72
8
 73
4
 74
0
 40
0
 40
0
 40
0
 40
0
 40
1
 40
1
 40
1
 40
1
 10
48.431464
 20
53.633541
 30
0.0
 10
48.042311
 20
53.841812
 30
0.0
 10
47.832318
 20
53.724241
 30
0.0
 10
47.157219
 20
52.920122
 30
0.0
  0
LINE
  5
1d2
100
AcDbEntity
  8
Layer_1
 62
7
100
AcDbLine
 10
47.157219
 20
52.920122
 30
0.0
 11
46.348918
 21
51.957344
 31
0.0
  0
LINE
  5
1d3
100
AcDbEntity
  8
Layer_1
 62
7
100
AcDbLine
 10
46.348918
 20
51.957344
 30
0.0
 11
48.657380
 21
48.725422
 31
0.0
  0
SPLINE
  5
1d4
100
AcDbEntity
  8
Layer_1
 62
7
100
AcDbSpline
 70
8
 71
3
 72
8
 73
4
 74
0
 40
0
 40
0
 40
0
 40
0
 40
1
 40
1
 40
1
 40
1
 10
48.657380
 20
48.725422
 30
0.0
 10
54.289000
 20
40.840989
 30
0.0
 10
58.712732
 20
35.866099
 30
0.0
 10
61.610336
 20
34.158658
 30
0.0
  0
SPLINE
  5
1d5
100
AcDbEntity
  8
Layer_1
 62
7
100
AcDbSpline
 70
8
 71
3
 72
8
 73
4
 74
0
 40
0
 40
0
 40
0
 40
0
 40
1
 40
1
 40
1
 40
1
 10
61.610336
 20
34.158658
 30
0.0
 10
65.870274
 20
31.648444
 30
0.0
 10
70.152091
 20
31.506627
 30
0.0
 10
73.561448
 20
33.762836
 30
0.0
  0
SPLINE
  5
1d6
100
AcDbEntity
  8
Layer_1
 62
7
100
AcDbSpline
 70
8
 71
3
 72
8
 73
4
 74
0
 40
0
 40
0
 40
0
 40
0
 40
1
 40
1
 40
1
 40
1
 10
73.561448
 20
33.762836
 30
0.0
 10
74.329950
 20
34.271406
 30
0.0
 10
74.494017
 20
34.522369
 30
0.0
 10
74.494017
 20
35.189328
 30
0.0
  0
SPLINE
  5
1d7
100
AcDbEntity
  8
Layer_1
 62
7
100
AcDbSpline
 70
8
 71
3
 72
8
 73
4
 74
0
 40
0
 40
0
 40
0
 40
0
 40
1
 40
1
 40
1
 40
1
 10
74.494017
 20
35.189328
 30
0.0
 10
74.494017
 20
37.003554
 30
0.0
 10
76.880034
 20
37.868669
 30
0.0
 10
78.069573
 20
36.485747
 30
0.0
  0
SPLINE
  5
1d8
100
AcDbEntity
  8
Layer_1
 62
7
100
AcDbSpline
 70
8
 71
3
 72
8
 73
4
 74
0
 40
0
 40
0
 40
0
 40
0
 40
1
 40
1
 40
1
 40
1
 10
78.069573
 20
36.485747
 30
0.0
 10
78.718193
 20
35.731680
 30
0.0
 10
78.770974
 20
35.397153
 30
0.0
 10
78.377559
 20
34.533697
 30
0.0
  0
SPLINE
  5
1d9
100
AcDbEntity
  8
Layer_1
 62
7
100
AcDbSpline
 70
8
 71
3
 72
8
 73
4
 74
0
 40
0
 40
0
 40
0
 40
0
 40
1
 40
1
 40
1
 40
1
 10
78.377559
 20
34.533697
 30
0.0
 10
78.088487
 20
33.899256
 30
0.0
 10
77.226696
 20
33.395422
 30
0.0
 10
76.430573
 20
33.395422
 30
0.0
  0
SPLINE
  5
1da
100
AcDbEntity
  8
Layer_1
 62
7
100
AcDbSpline
 70
8
 71
3
 72
8
 73
4
 74
0
 40
0
 40
0
 40
0
 40
0
 40
1
 40
1
 40
1
 40
1
 10
76.430573
 20
33.395422
 30
0.0
 10
76.164099
 20
33.395422
 30
0.0
 10
75.399623
 20
32.963481
 30
0.0
 10
74.731745
 20
32.435550
 30
0.0
  0
SPLINE
  5
1db
100
AcDbEntity
  8
Layer_1
 62
7
100
AcDbSpline
 70
8
 71
3
 72
8
 73
4
 74
0
 40
0
 40
0
 40
0
 40
0
 40
1
 40
1
 40
1
 40
1
 10
74.731745
 20
32.435550
 30
0.0
 10
72.604802
 20
30.754302
 30
0.0
 10
71.211753
 20
30.357395
 30
0.0
 10
67.406252
 20
30.348381
 30
0.0
  0
SPLINE
  5
1dc
100
AcDbEntity
  8
Layer_1
 62
7
100
AcDbSpline
 70
8
 71
3
 72
8
 73
4
 74
0
 40
0
 40
0
 40
0
 40
0
 40
1
 40
1
 40
1
 40
1
 10
67.406252
 20
30.348381
 30
0.0
 10
63.670448
 20
30.339548
 30
0.0
 10
60.963090
 20
30.832435
 30
0.0
 10
59.029885
 20
31.873383
 30
0.0
  0
SPLINE
  5
1dd
100
AcDbEntity
  8
Layer_1
 62
7
100
AcDbSpline
 70
8
 71
3
 72
8
 73
4
 74
0
 40
0
 40
0
 40
0
 40
0
 40
1
 40
1
 40
1
 40
1
 10
59.029885
 20
31.873383
 30
0.0
 10
57.545738
 20
32.672538
 30
0.0
 10
54.289235
 20
36.052970
 30
0.0
 10
52.266125
 20
38.894550
 30
0.0
  0
SPLINE
  5
1de
100
AcDbEntity
  8
Layer_1
 62
7
100
AcDbSpline
 70
8
 71
3
 72
8
 73
4
 74
0
 40
0
 40
0
 40
0
 40
0
 40
1
 40
1
 40
1
 40
1
 10
52.266125
 20
38.894550
 30
0.0
 10
51.404780
 20
40.104360
 30
0.0
 10
50.664542
 20
41.140028
 30
0.0
 10
50.621150
 20
41.196038
 30
0.0
  0
SPLINE
  5
1df
100
AcDbEntity
  8
Layer_1
 62
7
100
AcDbSpline
 70
8
 71
3
 72
8
 73
4
 74
0
 40
0
 40
0
 40
0
 40
0
 40
1
 40
1
 40
1
 40
1
 10
50.621150
 20
41.196038
 30
0.0
 10
50.577758
 20
41.252048
 30
0.0
 10
50.479102
 20
41.234723
 30
0.0
 10
50.401914
 20
41.157535
 30
0.0
  0
SPLINE
  5
1e0
100
AcDbEntity
  8
Layer_1
 62
7
100
AcDbSpline
 70
8
 71
3
 72
8
 73
4
 74
0
 40
0
 40
0
 40
0
 40
0
 40
1
 40
1
 40
1
 40
1
 10
50.401914
 20
41.157535
 30
0.0
 10
50.249799
 20
41.005414
 30
0.0
 10
52.705593
 20
36.395859
 30
0.0
 10
54.128399
 20
34.162874
 30
0.0
  0
SPLINE
  5
1e1
100
AcDbEntity
  8
Layer_1
 62
7
100
AcDbSpline
 70
8
 71
3
 72
8
 73
4
 74
0
 40
0
 40
0
 40
0
 40
0
 40
1
 40
1
 40
1
 40
1
 10
54.128399
 20
34.162874
 30
0.0
 10
56.652236
 20
30.201911
 30
0.0
 10
57.668245
 20
29.590536
 30
0.0
 10
63.495761
 20
28.526151
 30
0.0
  0
SPLINE
  5
1e2
100
AcDbEntity
  8
Layer_1
 62
7
100
AcDbSpline
 70
8
 71
3
 72
8
 73
4
 74
0
 40
0
 40
0
 40
0
 40
0
 40
1
 40
1
 40
1
 40
1
 10
63.495761
 20
28.526151
 30
0.0
 10
68.388597
 20
27.632483
 30
0.0
 10
69.631281
 20
27.274439
 30
0.0
 10
71.122038
 20
26.328826
 30
0.0
  0
SPLINE
  5
1e3
100
AcDbEntity
  8
Layer_1
 62
7
100
AcDbSpline
 70
8
 71
3
 72
8
 73
4
 74
0
 40
0
 40
0
 40
0
 40
0
 40
1
 40
1
 40
1
 40
1
 10
71.122038
 20
26.328826
 30
0.0
 10
73.205554
 20
25.007224
 30
0.0
 10
73.783876
 20
22.883443
 30
0.0
 10
72.691814
 20
20.564123
 30
0.0
  0
SPLINE
  5
1e4
100
AcDbEntity
  8
Layer_1
 62
7
100
AcDbSpline
 70
8
 71
3
 72
8
 73
4
 74
0
 40
0
 40
0
 40
0
 40
0
 40
1
 40
1
 40
1
 40
1
 10
72.691814
 20
20.564123
 30
0.0
 10
71.939153
 20
18.965620
 30
0.0
 10
71.083413
 20
18.083387
 30
0.0
 10
69.685984
 20
17.465239
 30
0.0
  0
SPLINE
  5
1e5
100
AcDbEntity
  8
Layer_1
 62
7
100
AcDbSpline
 70
8
 71
3
 72
8
 73
4
 74
0
 40
0
 40
0
 40
0
 40
0
 40
1
 40
1
 40
1
 40
1
 10
69.685984
 20
17.465239
 30
0.0
 10
67.308882
 20
16.413735
 30
0.0
 10
64.680787
 20
17.440714
 30
0.0
 10
63.576578
 20
19.852633
 30
0.0
  0
SPLINE
  5
1e6
100
AcDbEntity
  8
Layer_1
 62
7
100
AcDbSpline
 70
8
 71
3
 72
8
 73
4
 74
0
 40
0
 40
0
 40
0
 40
0
 40
1
 40
1
 40
1
 40
1
 10
63.576578
 20
19.852633
 30
0.0
 10
63.197415
 20
20.680834
 30
0.0
 10
62.716176
 20
21.312947
 30
0.0
 10
62.301603
 20
21.527334
 30
0.0
  0
SPLINE
  5
1e7
100
AcDbEntity
  8
Layer_1
 62
7
100
AcDbSpline
 70
8
 71
3
 72
8
 73
4
 74
0
 40
0
 40
0
 40
0
 40
0
 40
1
 40
1
 40
1
 40
1
 10
62.301603
 20
21.527334
 30
0.0
 10
60.952552
 20
22.224956
 30
0.0
 10
60.834298
 20
23.830044
 30
0.0
 10
62.068281
 20
24.694355
 30
0.0
  0
SPLINE
  5
1e8
100
AcDbEntity
  8
Layer_1
 62
7
100
AcDbSpline
 70
8
 71
3
 72
8
 73
4
 74
0
 40
0
 40
0
 40
0
 40
0
 40
1
 40
1
 40
1
 40
1
 10
62.068281
 20
24.694355
 30
0.0
 10
62.937455
 20
25.303148
 30
0.0
 10
63.924143
 20
25.183655
 30
0.0
 10
64.736588
 20
24.371211
 30
0.0
  0
SPLINE
  5
1e9
100
AcDbEntity
  8
Layer_1
 62
7
100
AcDbSpline
 70
8
 71
3
 72
8
 73
4
 74
0
 40
0
 40
0
 40
0
 40
0
 40
1
 40
1
 40
1
 40
1
 10
64.736588
 20
24.371211
 30
0.0
 10
65.571240
 20
23.536558
 30
0.0
 10
65.634001
 20
22.940133
 30
0.0
 10
64.975300
 20
22.102728
 30
0.0
  0
SPLINE
  5
1ea
100
AcDbEntity
  8
Layer_1
 62
7
100
AcDbSpline
 70
8
 71
3
 72
8
 73
4
 74
0
 40
0
 40
0
 40
0
 40
0
 40
1
 40
1
 40
1
 40
1
 10
64.975300
 20
22.102728
 30
0.0
 10
64.502106
 20
21.501158
 30
0.0
 10
64.502428
 20
21.493893
 30
0.0
 10
65.036401
 20
20.726043
 30
0.0
  0
SPLINE
  5
1eb
100
AcDbEntity
  8
Layer_1
 62
7
100
AcDbSpline
 70
8
 71
3
 72
8
 73
4
 74
0
 40
0
 40
0
 40
0
 40
0
 40
1
 40
1
 40
1
 40
1
 10
65.036401
 20
20.726043
 30
0.0
 10
66.639034
 20
18.421473
 30
0.0
 10
70.583527
 20
19.966123
 30
0.0
 10
70.583527
 20
22.898279
 30
0.0
  0
SPLINE
  5
1ec
100
AcDbEntity
  8
Layer_1
 62
7
100
AcDbSpline
 70
8
 71
3
 72
8
 73
4
 74
0
 40
0
 40
0
 40
0
 40
0
 40
1
 40
1
 40
1
 40
1
 10
70.583527
 20
22.898279
 30
0.0
 10
70.583527
 20
23.895551
 30
0.0
 10
69.319555
 20
25.191326
 30
0.0
 10
68.002503
 20
25.544251
 30
0.0
  0
SPLINE
  5
1ed
100
AcDbEntity
  8
Layer_1
 62
7
100
AcDbSpline
 70
8
 71
3
 72
8
 73
4
 74
0
 40
0
 40
0
 40
0
 40
0
 40
1
 40
1
 40
1
 40
1
 10
68.002503
 20
25.544251
 30
0.0
 10
67.472930
 20
25.686155
 30
0.0
 10
65.554877
 20
25.973488
 30
0.0
 10
63.740165
 20
26.182762
 30
0.0
  0
SPLINE
  5
1ee
100
AcDbEntity
  8
Layer_1
 62
7
100
AcDbSpline
 70
8
 71
3
 72
8
 73
4
 74
0
 40
0
 40
0
 40
0
 40
0
 40
1
 40
1
 40
1
 40
1
 10
63.740165
 20
26.182762
 30
0.0
 10
58.125419
 20
26.830267
 30
0.0
 10
56.141623
 20
27.557144
 30
0.0
 10
54.135314
 20
29.702050
 30
0.0
  0
SPLINE
  5
1ef
100
AcDbEntity
  8
Layer_1
 62
7
100
AcDbSpline
 70
8
 71
3
 72
8
 73
4
 74
0
 40
0
 40
0
 40
0
 40
0
 40
1
 40
1
 40
1
 40
1
 10
54.135314
 20
29.702050
 30
0.0
 10
52.973015
 20
30.944643
 30
0.0
 10
50.183505
 20
35.045344
 30
0.0
 10
49.060450
 20
37.162326
 30
0.0
  0
SPLINE
  5
1f0
100
AcDbEntity
  8
Layer_1
 62
7
100
AcDbSpline
 70
8
 71
3
 72
8
 73
4
 74
0
 40
0
 40
0
 40
0
 40
0
 40
1
 40
1
 40
1
 40
1
 10
49.060450
 20
37.162326
 30
0.0
 10
48.491961
 20
38.233933
 30
0.0
 10
47.861985
 20
38.750332
 30
0.0
 10
48.214418
 20
37.855825
 30
0.0
  0
SPLINE
  5
1f1
100
AcDbEntity
  8
Layer_1
 62
7
100
AcDbSpline
 70
8
 71
3
 72
8
 73
4
 74
0
 40
0
 40
0
 40
0
 40
0
 40
1
 40
1
 40
1
 40
1
 10
48.214418
 20
37.855825
 30
0.0
 10
48.307103
 20
37.620588
 30
0.0
 10
48.602330
 20
36.438274
 30
0.0
 10
48.870478
 20
35.228466
 30
0.0
  0
SPLINE
  5
1f2
100
AcDbEntity
  8
Layer_1
 62
7
100
AcDbSpline
 70
8
 71
3
 72
8
 73
4
 74
0
 40
0
 40
0
 40
0
 40
0
 40
1
 40
1
 40
1
 40
1
 10
48.870478
 20
35.228466
 30
0.0
 10
49.311619
 20
33.238145
 30
0.0
 10
49.341665
 20
32.515684
 30
0.0
 10
49.186186
 20
27.636852
 30
0.0
  0
SPLINE
  5
1f3
100
AcDbEntity
  8
Layer_1
 62
7
100
AcDbSpline
 70
8
 71
3
 72
8
 73
4
 74
0
 40
0
 40
0
 40
0
 40
0
 40
1
 40
1
 40
1
 40
1
 10
49.186186
 20
27.636852
 30
0.0
 10
49.036218
 20
22.930955
 30
0.0
 10
49.067661
 20
22.060215
 30
0.0
 10
49.433316
 20
20.793491
 30
0.0
  0
SPLINE
  5
1f4
100
AcDbEntity
  8
Layer_1
 62
7
100
AcDbSpline
 70
8
 71
3
 72
8
 73
4
 74
0
 40
0
 40
0
 40
0
 40
0
 40
1
 40
1
 40
1
 40
1
 10
49.433316
 20
20.793491
 30
0.0
 10
50.237923
 20
18.006095
 30
0.0
 10
51.459460
 20
16.778454
 30
0.0
 10
53.430091
 20
16.776746
 30
0.0
  0
SPLINE
  5
1f5
100
AcDbEntity
  8
Layer_1
 62
7
100
AcDbSpline
 70
8
 71
3
 72
8
 73
4
 74
0
 40
0
 40
0
 40
0
 40
0
 40
1
 40
1
 40
1
 40
1
 10
53.430091
 20
16.776746
 30
0.0
 10
54.623722
 20
16.775900
 30
0.0
 10
55.360175
 20
17.084335
 30
0.0
 10
55.974849
 20
17.843163
 30
0.0
  0
SPLINE
  5
1f6
100
AcDbEntity
  8
Layer_1
 62
7
100
AcDbSpline
 70
8
 71
3
 72
8
 73
4
 74
0
 40
0
 40
0
 40
0
 40
0
 40
1
 40
1
 40
1
 40
1
 10
55.974849
 20
17.843163
 30
0.0
 10
56.790556
 20
18.850168
 30
0.0
 10
56.335933
 20
21.175137
 30
0.0
 10
55.323319
 20
21.175137
 30
0.0
  0
SPLINE
  5
1f7
100
AcDbEntity
  8
Layer_1
 62
7
100
AcDbSpline
 70
8
 71
3
 72
8
 73
4
 74
0
 40
0
 40
0
 40
0
 40
0
 40
1
 40
1
 40
1
 40
1
 10
55.323319
 20
21.175137
 30
0.0
 10
53.978418
 20
21.175137
 30
0.0
 10
52.991244
 20
22.691563
 30
0.0
 10
53.586628
 20
23.842911
 30
0.0
  0
SPLINE
  5
1f8
100
AcDbEntity
  8
Layer_1
 62
7
100
AcDbSpline
 70
8
 71
3
 72
8
 73
4
 74
0
 40
0
 40
0
 40
0
 40
0
 40
1
 40
1
 40
1
 40
1
 10
53.586628
 20
23.842911
 30
0.0
 10
54.718918
 20
26.032518
 30
0.0
 10
58.051237
 20
24.846747
 30
0.0
 10
57.412371
 20
22.481564
 30
0.0
  0
SPLINE
  5
1f9
100
AcDbEntity
  8
Layer_1
 62
7
100
AcDbSpline
 70
8
 71
3
 72
8
 73
4
 74
0
 40
0
 40
0
 40
0
 40
0
 40
1
 40
1
 40
1
 40
1
 10
57.412371
 20
22.481564
 30
0.0
 10
57.274590
 20
21.971487
 30
0.0
 10
57.375634
 20
21.460464
 30
0.0
 10
57.791497
 20
20.564123
 30
0.0
  0
SPLINE
  5
1fa
100
AcDbEntity
  8
Layer_1
 62
7
100
AcDbSpline
 70
8
 71
3
 72
8
 73
4
 74
0
 40
0
 40
0
 40
0
 40
0
 40
1
 40
1
 40
1
 40
1
 10
57.791497
 20
20.564123
 30
0.0
 10
58.633106
 20
18.750135
 30
0.0
 10
58.566581
 20
17.268843
 30
0.0
 10
57.593744
 20
16.160839
 30
0.0
  0
SPLINE
  5
1fb
100
AcDbEntity
  8
Layer_1
 62
7
100
AcDbSpline
 70
8
 71
3
 72
8
 73
4
 74
0
 40
0
 40
0
 40
0
 40
0
 40
1
 40
1
 40
1
 40
1
 10
57.593744
 20
16.160839
 30
0.0
 10
56.668348
 20
15.106874
 30
0.0
 10
55.859725
 20
14.663091
 30
0.0
 10
54.226316
 20
14.312797
 30
0.0
  0
SPLINE
  5
1fc
100
AcDbEntity
  8
Layer_1
 62
7
100
AcDbSpline
 70
8
 71
3
 72
8
 73
4
 74
0
 40
0
 40
0
 40
0
 40
0
 40
1
 40
1
 40
1
 40
1
 10
54.226316
 20
14.312797
 30
0.0
 10
51.545219
 20
13.737797
 30
0.0
 10
48.840192
 20
15.360262
 30
0.0
 10
47.279822
 20
18.479260
 30
0.0
  0
SPLINE
  5
1fd
100
AcDbEntity
  8
Layer_1
 62
7
100
AcDbSpline
 70
8
 71
3
 72
8
 73
4
 74
0
 40
0
 40
0
 40
0
 40
0
 40
1
 40
1
 40
1
 40
1
 10
47.279822
 20
18.479260
 30
0.0
 10
46.046060
 20
20.945409
 30
0.0
 10
45.757228
 20
22.958003
 30
0.0
 10
46.055842
 20
27.008067
 30
0.0
  0
SPLINE
  5
1fe
100
AcDbEntity
  8
Layer_1
 62
7
100
AcDbSpline
 70
8
 71
3
 72
8
 73
4
 74
0
 40
0
 40
0
 40
0
 40
0
 40
1
 40
1
 40
1
 40
1
 10
46.055842
 20
27.008067
 30
0.0
 10
46.456292
 20
32.439267
 30
0.0
 10
46.019638
 20
35.233168
 30
0.0
 10
44.026246
 20
39.994376
 30
0.0
  0
SPLINE
  5
1ff
100
AcDbEntity
  8
Layer_1
 62
7
100
AcDbSpline
 70
8
 71
3
 72
8
 73
4
 74
0
 40
0
 40
0
 40
0
 40
0
 40
1
 40
1
 40
1
 40
1
 10
44.026246
 20
39.994376
 30
0.0
 10
43.004531
 20
42.434746
 30
0.0
 10
42.345946
 20
43.627645
 30
0.0
 10
42.147036
 20
43.398215
 30
0.0
  0
SPLINE
  5
200
100
AcDbEntity
  8
Layer_1
 62
7
100
AcDbSpline
 70
8
 71
3
 72
8
 73
4
 74
0
 40
0
 40
0
 40
0
 40
0
 40
1
 40
1
 40
1
 40
1
 10
42.147036
 20
43.398215
 30
0.0
 10
42.097271
 20
43.340817
 30
0.0
 10
42.201987
 20
42.139036
 30
0.0
 10
42.379736
 20
40.727595
 30
0.0
  0
SPLINE
  5
201
100
AcDbEntity
  8
Layer_1
 62
7
100
AcDbSpline
 70
8
 71
3
 72
8
 73
4
 74
0
 40
0
 40
0
 40
0
 40
0
 40
1
 40
1
 40
1
 40
1
 10
42.379736
 20
40.727595
 30
0.0
 10
42.557486
 20
39.316150
 30
0.0
 10
42.707049
 20
35.767293
 30
0.0
 10
42.712092
 20
32.841245
 30
0.0
  0
SPLINE
  5
202
100
AcDbEntity
  8
Layer_1
 62
7
100
AcDbSpline
 70
8
 71
3
 72
8
 73
4
 74
0
 40
0
 40
0
 40
0
 40
0
 40
1
 40
1
 40
1
 40
1
 10
42.712092
 20
32.841245
 30
0.0
 10
42.719797
 20
28.377355
 30
0.0
 10
42.803922
 20
27.138341
 30
0.0
 10
43.234813
 20
25.142465
 30
0.0
  0
SPLINE
  5
203
100
AcDbEntity
  8
Layer_1
 62
7
100
AcDbSpline
 70
8
 71
3
 72
8
 73
4
 74
0
 40
0
 40
0
 40
0
 40
0
 40
1
 40
1
 40
1
 40
1
 10
43.234813
 20
25.142465
 30
0.0
 10
43.991914
 20
21.635589
 30
0.0
 10
45.204264
 20
17.786094
 30
0.0
 10
47.409230
 20
11.887718
 30
0.0
  0
SPLINE
  5
204
100
AcDbEntity
  8
Layer_1
 62
7
100
AcDbSpline
 70
8
 71
3
 72
8
 73
4
 74
0
 40
0
 40
0
 40
0
 40
0
 40
1
 40
1
 40
1
 40
1
 10
47.409230
 20
11.887718
 30
0.0
 10
49.679629
 20
5.814296
 30
0.0
 10
49.916232
 20
4.506421
 30
0.0
 10
49.022073
 20
2.972431
 30
0.0
  0
SPLINE
  5
205
100
AcDbEntity
  8
Layer_1
 62
7
100
AcDbSpline
 70
8
 71
3
 72
8
 73
4
 74
0
 40
0
 40
0
 40
0
 40
0
 40
1
 40
1
 40
1
 40
1
 10
49.022073
 20
2.972431
 30
0.0
 10
48.617245
 20
2.277910
 30
0.0
 10
48.048695
 20
1.792290
 30
0.0
 10
47.031027
 20
1.271844
 30
0.0
  0
SPLINE
  5
206
100
AcDbEntity
  8
Layer_1
 62
7
100
AcDbSpline
 70
8
 71
3
 72
8
 73
4
 74
0
 40
0
 40
0
 40
0
 40
0
 40
1
 40
1
 40
1
 40
1
 10
47.031027
 20
1.271844
 30
0.0
 10
45.813528
 20
0.649177
 30
0.0
 10
45.281652
 20
0.532253
 30
0.0
 10
43.369622
 20
0.466834
 30
0.0
  0
SPLINE
  5
207
100
AcDbEntity
  8
Layer_1
 62
7
100
AcDbSpline
 70
8
 71
3
 72
8
 73
4
 74
0
 40
0
 40
0
 40
0
 40
0
 40
1
 40
1
 40
1
 40
1
 10
43.369622
 20
0.466834
 30
0.0
 10
41.642617
 20
0.407736
 30
0.0
 10
40.852090
 20
0.494491
 30
0.0
 10
39.902040
 20
0.847580
 30
0.0
  0
LINE
  5
208
100
AcDbEntity
  8
Layer_1
 62
7
100
AcDbLine
 10
39.902040
 20
0.847580
 30
0.0
 11
39.902043
 21
0.847210
 31
0.0
  0
ENDSEC
  0
SECTION
  2
OBJECTS
  0
DICTIONARY
  5
C
330
0
100
AcDbDictionary
  3
ACAD_GROUP
350
D
  3
ACAD_MLINESTYLE
350
17
  0
DICTIONARY
  5
D
330
C
100
AcDbDictionary
  0
DICTIONARY
  5
1A
330
C
100
AcDbDictionary
  0
DICTIONARY
  5
17
330
C
100
AcDbDictionary
  3
STANDARD
350
18
  0
DICTIONARY
  5
19
330
C
100
AcDbDictionary
  0
ENDSEC
  0
EOF
