  0
SECTION
  2
HEADER
  9
$ACADVER
  1
AC1014
  9
$HANDSEED
  5
FFFF
  9
$MEASUREMENT
 70
     1
  0
ENDSEC
  0
SECTION
  2
TABLES
  0
TABLE
  2
VPORT
  5
8
330
0
100
AcDbSymbolTable
 70
     4
  0
VPORT
  5
2E
330
8
100
AcDbSymbolTableRecord
100
AcDbViewportTableRecord
  2
*ACTIVE
 70
     0
 10
0.0
 20
0.0
 11
1.0
 21
1.0
 12
210.0
 22
148.5
 13
0.0
 23
0.0
 14
10.0
 24
10.0
 15
10.0
 25
10.0
 16
0.0
 26
0.0
 36
1.0
 17
0.0
 27
0.0
 37
0.0
 40
341.0
 41
1.24
 42
50.0
 43
0.0
 44
0.0
 50
0.0
 51
0.0
 71
     0
 72
   100
 73
     1
 74
     3
 75
     0
 76
     0
 77
     0
 78
     0
  0
ENDTAB
  0
TABLE
  2
LTYPE
  5
5
330
0
100
AcDbSymbolTable
 70
     1
  0
LTYPE
  5
14
330
5
100
AcDbSymbolTableRecord
100
AcDbLinetypeTableRecord
  2
BYBLOCK
 70
     0
  3

 72
    65
 73
     0
 40
0.0
  0
LTYPE
  5
15
330
5
100
AcDbSymbolTableRecord
100
AcDbLinetypeTableRecord
  2
BYLAYER
 70
     0
  3

 72
    65
 73
     0
 40
0.0
  0
LTYPE
  5
16
330
5
100
AcDbSymbolTableRecord
100
AcDbLinetypeTableRecord
  2
CONTINUOUS
 70
     0
  3
Solid line
 72
    65
 73
     0
 40
0.0
  0
ENDTAB
  0
TABLE
  2
LAYER
  5
2
100
AcDbSymbolTable
 70
2
  0
LAYER
  5
50
100
AcDbSymbolTableRecord
100
AcDbLayerTableRecord
  2
0
 70
0
  6
CONTINUOUS
  0
LAYER
  5
51
100
AcDbSymbolTableRecord
100
AcDbLayerTableRecord
  2
Layer_1
 70
0
  6
CONTINUOUS
  0
ENDTAB
  0
TABLE
  2
STYLE
  5
3
330
0
100
AcDbSymbolTable
 70
     1
  0
STYLE
  5
11
330
3
100
AcDbSymbolTableRecord
100
AcDbTextStyleTableRecord
  2
STANDARD
 70
     0
 40
0.0
 41
1.0
 50
0.0
 71
     0
 42
2.5
  3
txt
  4

  0
ENDTAB
  0
TABLE
  2
VIEW
  5
6
330
0
100
AcDbSymbolTable
 70
     0
  0
ENDTAB
  0
TABLE
  2
UCS
  5
7
330
0
100
AcDbSymbolTable
 70
     0
  0
ENDTAB
  0
TABLE
  2
APPID
  5
9
330
0
100
AcDbSymbolTable
 70
     2
  0
APPID
  5
12
330
9
100
AcDbSymbolTableRecord
100
AcDbRegAppTableRecord
  2
ACAD
 70
     0
  0
ENDTAB
  0
TABLE
  2
DIMSTYLE
  5
A
330
0
100
AcDbSymbolTable
 70
     1
  0
DIMSTYLE
105
27
330
A
100
AcDbSymbolTableRecord
100
AcDbDimStyleTableRecord
  2
ISO-25
 70
     0
  3

  4

  5

  6

  7

 40
1.0
 41
2.5
 42
0.625
 43
3.75
 44
1.25
 45
0.0
 46
0.0
 47
0.0
 48
0.0
140
2.5
141
2.5
142
0.0
143
0.03937007874016
144
1.0
145
0.0
146
1.0
147
0.625
 71
     0
 72
     0
 73
     0
 74
     0
 75
     0
 76
     0
 77
     1
 78
     8
170
     0
171
     3
172
     1
173
     0
174
     0
175
     0
176
     0
177
     0
178
     0
270
     2
271
     2
272
     2
273
     2
274
     3
340
11
275
     0
280
     0
281
     0
282
     0
283
     0
284
     8
285
     0
286
     0
287
     3
288
     0
  0
ENDTAB
  0
TABLE
  2
BLOCK_RECORD
  5
1
330
0
100
AcDbSymbolTable
 70
     1
  0
BLOCK_RECORD
  5
1F
330
1
100
AcDbSymbolTableRecord
100
AcDbBlockTableRecord
  2
*MODEL_SPACE
  0
BLOCK_RECORD
  5
1B
330
1
100
AcDbSymbolTableRecord
100
AcDbBlockTableRecord
  2
*PAPER_SPACE
  0
ENDTAB
  0
ENDSEC
  0
SECTION
  2
BLOCKS
  0
BLOCK
  5
20
330
1F
100
AcDbEntity
  8
0
100
AcDbBlockBegin
  2
*MODEL_SPACE
 70
     0
 10
0.0
 20
0.0
 30
0.0
  3
*MODEL_SPACE
  1

  0
ENDBLK
  5
21
330
1F
100
AcDbEntity
  8
0
100
AcDbBlockEnd
  0
BLOCK
  5
1C
330
1B
100
AcDbEntity
 67
     1
  8
0
100
AcDbBlockBegin
  2
*PAPER_SPACE
  1

  0
ENDBLK
  5
1D
330
1B
100
AcDbEntity
 67
     1
  8
0
100
AcDbBlockEnd
  0
ENDSEC
  0
SECTION
  2
ENTITIES
  0
SPLINE
  5
100
100
AcDbEntity
  8
Layer_1
 62
7
100
AcDbSpline
 70
8
 71
3
 72
8
 73
4
 74
0
 40
0
 40
0
 40
0
 40
0
 40
1
 40
1
 40
1
 40
1
 10
49.704636
 20
78.396458
 30
0.0
 10
52.216104
 20
75.061579
 30
0.0
 10
53.420162
 20
70.758325
 30
0.0
 10
52.558326
 20
66.455774
 30
0.0
  0
SPLINE
  5
101
100
AcDbEntity
  8
Layer_1
 62
7
100
AcDbSpline
 70
8
 71
3
 72
8
 73
4
 74
0
 40
0
 40
0
 40
0
 40
0
 40
1
 40
1
 40
1
 40
1
 10
38.299695
 20
84.581363
 30
0.0
 10
41.820298
 20
84.397431
 30
0.0
 10
45.041778
 20
82.950748
 30
0.0
 10
47.543579
 20
80.735293
 30
0.0
  0
SPLINE
  5
102
100
AcDbEntity
  8
Layer_1
 62
7
100
AcDbSpline
 70
8
 71
3
 72
8
 73
4
 74
0
 40
0
 40
0
 40
0
 40
0
 40
1
 40
1
 40
1
 40
1
 10
-200.269069
 20
-15.239457
 30
0.0
 10
-200.945900
 20
-14.987969
 30
0.0
 10
-201.736040
 20
-14.655680
 30
0.0
 10
-202.024942
 20
-14.501079
 30
0.0
  0
SPLINE
  5
103
100
AcDbEntity
  8
Layer_1
 62
7
100
AcDbSpline
 70
8
 71
3
 72
8
 73
4
 74
0
 40
0
 40
0
 40
0
 40
0
 40
1
 40
1
 40
1
 40
1
 10
-202.024942
 20
-14.501079
 30
0.0
 10
-202.313845
 20
-14.346449
 30
0.0
 10
-202.982548
 20
-14.219957
 30
0.0
 10
-203.510950
 20
-14.219957
 30
0.0
  0
SPLINE
  5
104
100
AcDbEntity
  8
Layer_1
 62
7
100
AcDbSpline
 70
8
 71
3
 72
8
 73
4
 74
0
 40
0
 40
0
 40
0
 40
0
 40
1
 40
1
 40
1
 40
1
 10
-203.510950
 20
-14.219957
 30
0.0
 10
-204.822936
 20
-14.219957
 30
0.0
 10
-205.759629
 20
-13.466763
 30
0.0
 10
-205.759629
 20
-12.411788
 30
0.0
  0
SPLINE
  5
105
100
AcDbEntity
  8
Layer_1
 62
7
100
AcDbSpline
 70
8
 71
3
 72
8
 73
4
 74
0
 40
0
 40
0
 40
0
 40
0
 40
1
 40
1
 40
1
 40
1
 10
-205.759629
 20
-12.411788
 30
0.0
 10
-205.759629
 20
-10.611323
 30
0.0
 10
-203.367694
 20
-9.753593
 30
0.0
 10
-202.184073
 20
-11.129624
 30
0.0
  0
SPLINE
  5
106
100
AcDbEntity
  8
Layer_1
 62
7
100
AcDbSpline
 70
8
 71
3
 72
8
 73
4
 74
0
 40
0
 40
0
 40
0
 40
0
 40
1
 40
1
 40
1
 40
1
 10
-202.184073
 20
-11.129624
 30
0.0
 10
-201.865433
 20
-11.500069
 30
0.0
 10
-201.604730
 20
-12.056809
 30
0.0
 10
-201.604730
 20
-12.366802
 30
0.0
  0
SPLINE
  5
107
100
AcDbEntity
  8
Layer_1
 62
7
100
AcDbSpline
 70
8
 71
3
 72
8
 73
4
 74
0
 40
0
 40
0
 40
0
 40
0
 40
1
 40
1
 40
1
 40
1
 10
-201.604730
 20
-12.366802
 30
0.0
 10
-201.604730
 20
-12.856372
 30
0.0
 10
-201.422680
 20
-12.967004
 30
0.0
 10
-200.219736
 20
-13.208586
 30
0.0
  0
SPLINE
  5
108
100
AcDbEntity
  8
Layer_1
 62
7
100
AcDbSpline
 70
8
 71
3
 72
8
 73
4
 74
0
 40
0
 40
0
 40
0
 40
0
 40
1
 40
1
 40
1
 40
1
 10
-200.219736
 20
-13.208586
 30
0.0
 10
-198.480039
 20
-13.557977
 30
0.0
 10
-196.225942
 20
-13.566359
 30
0.0
 10
-195.327197
 20
-13.226930
 30
0.0
  0
SPLINE
  5
109
100
AcDbEntity
  8
Layer_1
 62
7
100
AcDbSpline
 70
8
 71
3
 72
8
 73
4
 74
0
 40
0
 40
0
 40
0
 40
0
 40
1
 40
1
 40
1
 40
1
 10
-195.327197
 20
-13.226930
 30
0.0
 10
-194.364381
 20
-12.863146
 30
0.0
 10
-193.345703
 20
-11.830325
 30
0.0
 10
-193.172667
 20
-11.042502
 30
0.0
  0
SPLINE
  5
10a
100
AcDbEntity
  8
Layer_1
 62
7
100
AcDbSpline
 70
8
 71
3
 72
8
 73
4
 74
0
 40
0
 40
0
 40
0
 40
0
 40
1
 40
1
 40
1
 40
1
 10
-193.172667
 20
-11.042502
 30
0.0
 10
-192.967020
 20
-10.106202
 30
0.0
 10
-193.664211
 20
-8.422266
 30
0.0
 10
-195.935687
 20
-4.368934
 30
0.0
  0
SPLINE
  5
10b
100
AcDbEntity
  8
Layer_1
 62
7
100
AcDbSpline
 70
8
 71
3
 72
8
 73
4
 74
0
 40
0
 40
0
 40
0
 40
0
 40
1
 40
1
 40
1
 40
1
 10
-195.935687
 20
-4.368934
 30
0.0
 10
-198.563109
 20
0.319736
 30
0.0
 10
-199.531111
 20
2.289083
 30
0.0
 10
-200.312105
 20
4.534754
 30
0.0
  0
LINE
  5
10c
100
AcDbEntity
  8
Layer_1
 62
7
100
AcDbLine
 10
-200.312105
 20
4.534754
 30
0.0
 11
-200.972028
 21
6.432331
 31
0.0
  0
LINE
  5
10d
100
AcDbEntity
  8
Layer_1
 62
7
100
AcDbLine
 10
-200.972028
 20
6.432331
 30
0.0
 11
-200.985518
 21
14.619908
 31
0.0
  0
SPLINE
  5
10e
100
AcDbEntity
  8
Layer_1
 62
7
100
AcDbSpline
 70
8
 71
3
 72
8
 73
4
 74
0
 40
0
 40
0
 40
0
 40
0
 40
1
 40
1
 40
1
 40
1
 10
-200.985518
 20
14.619908
 30
0.0
 10
-200.999065
 20
22.827845
 30
0.0
 10
-201.318111
 20
26.976475
 30
0.0
 10
-201.920402
 20
26.775710
 30
0.0
  0
SPLINE
  5
10f
100
AcDbEntity
  8
Layer_1
 62
7
100
AcDbSpline
 70
8
 71
3
 72
8
 73
4
 74
0
 40
0
 40
0
 40
0
 40
0
 40
1
 40
1
 40
1
 40
1
 10
-201.920402
 20
26.775710
 30
0.0
 10
-202.264885
 20
26.660883
 30
0.0
 10
-203.233740
 20
24.022952
 30
0.0
 10
-203.870365
 20
21.466481
 30
0.0
  0
SPLINE
  5
110
100
AcDbEntity
  8
Layer_1
 62
7
100
AcDbSpline
 70
8
 71
3
 72
8
 73
4
 74
0
 40
0
 40
0
 40
0
 40
0
 40
1
 40
1
 40
1
 40
1
 10
-203.870365
 20
21.466481
 30
0.0
 10
-204.305388
 20
19.719582
 30
0.0
 10
-204.377330
 20
18.797762
 30
0.0
 10
-204.318847
 20
15.719742
 30
0.0
  0
SPLINE
  5
111
100
AcDbEntity
  8
Layer_1
 62
7
100
AcDbSpline
 70
8
 71
3
 72
8
 73
4
 74
0
 40
0
 40
0
 40
0
 40
0
 40
1
 40
1
 40
1
 40
1
 10
-204.318847
 20
15.719742
 30
0.0
 10
-204.145927
 20
6.618400
 30
0.0
 10
-204.065694
 20
7.530825
 30
0.0
 10
-205.361167
 20
3.866056
 30
0.0
  0
SPLINE
  5
112
100
AcDbEntity
  8
Layer_1
 62
7
100
AcDbSpline
 70
8
 71
3
 72
8
 73
4
 74
0
 40
0
 40
0
 40
0
 40
0
 40
1
 40
1
 40
1
 40
1
 10
-205.361167
 20
3.866056
 30
0.0
 10
-206.002659
 20
2.051367
 30
0.0
 10
-206.849661
 20
-0.349356
 30
0.0
 10
-207.243392
 20
-1.468847
 30
0.0
  0
SPLINE
  5
113
100
AcDbEntity
  8
Layer_1
 62
7
100
AcDbSpline
 70
8
 71
3
 72
8
 73
4
 74
0
 40
0
 40
0
 40
0
 40
0
 40
1
 40
1
 40
1
 40
1
 10
-207.243392
 20
-1.468847
 30
0.0
 10
-207.923598
 20
-3.402831
 30
0.0
 10
-208.140503
 20
-5.153484
 30
0.0
 10
-207.807453
 20
-6.021402
 30
0.0
  0
SPLINE
  5
114
100
AcDbEntity
  8
Layer_1
 62
7
100
AcDbSpline
 70
8
 71
3
 72
8
 73
4
 74
0
 40
0
 40
0
 40
0
 40
0
 40
1
 40
1
 40
1
 40
1
 10
-207.807453
 20
-6.021402
 30
0.0
 10
-207.475706
 20
-6.885933
 30
0.0
 10
-205.170526
 20
-7.453510
 30
0.0
 10
-203.927843
 20
-6.976668
 30
0.0
  0
SPLINE
  5
115
100
AcDbEntity
  8
Layer_1
 62
7
100
AcDbSpline
 70
8
 71
3
 72
8
 73
4
 74
0
 40
0
 40
0
 40
0
 40
0
 40
1
 40
1
 40
1
 40
1
 10
-203.927843
 20
-6.976668
 30
0.0
 10
-203.313719
 20
-6.740984
 30
0.0
 10
-203.065741
 20
-5.828080
 30
0.0
 10
-203.343050
 20
-4.823735
 30
0.0
  0
SPLINE
  5
116
100
AcDbEntity
  8
Layer_1
 62
7
100
AcDbSpline
 70
8
 71
3
 72
8
 73
4
 74
0
 40
0
 40
0
 40
0
 40
0
 40
1
 40
1
 40
1
 40
1
 10
-203.343050
 20
-4.823735
 30
0.0
 10
-203.536979
 20
-4.121397
 30
0.0
 10
-203.780204
 20
-3.862853
 30
0.0
 10
-204.528753
 20
-3.563331
 30
0.0
  0
SPLINE
  5
117
100
AcDbEntity
  8
Layer_1
 62
7
100
AcDbSpline
 70
8
 71
3
 72
8
 73
4
 74
0
 40
0
 40
0
 40
0
 40
0
 40
1
 40
1
 40
1
 40
1
 10
-204.528753
 20
-3.563331
 30
0.0
 10
-206.290057
 20
-2.858594
 30
0.0
 10
-206.424956
 20
-1.016247
 30
0.0
 10
-204.777628
 20
-0.164359
 30
0.0
  0
SPLINE
  5
118
100
AcDbEntity
  8
Layer_1
 62
7
100
AcDbSpline
 70
8
 71
3
 72
8
 73
4
 74
0
 40
0
 40
0
 40
0
 40
0
 40
1
 40
1
 40
1
 40
1
 10
-204.777628
 20
-0.164359
 30
0.0
 10
-204.157636
 20
0.156245
 30
0.0
 10
-203.864780
 20
0.177158
 30
0.0
 10
-203.176516
 20
-0.049975
 30
0.0
  0
SPLINE
  5
119
100
AcDbEntity
  8
Layer_1
 62
7
100
AcDbSpline
 70
8
 71
3
 72
8
 73
4
 74
0
 40
0
 40
0
 40
0
 40
0
 40
1
 40
1
 40
1
 40
1
 10
-203.176516
 20
-0.049975
 30
0.0
 10
-202.143972
 20
-0.390758
 30
0.0
 10
-201.817069
 20
-0.956331
 30
0.0
 10
-201.871879
 20
-2.307160
 30
0.0
  0
SPLINE
  5
11a
100
AcDbEntity
  8
Layer_1
 62
7
100
AcDbSpline
 70
8
 71
3
 72
8
 73
4
 74
0
 40
0
 40
0
 40
0
 40
0
 40
1
 40
1
 40
1
 40
1
 10
-201.871879
 20
-2.307160
 30
0.0
 10
-201.895021
 20
-2.877362
 30
0.0
 10
-201.802393
 20
-3.872675
 30
0.0
 10
-201.666052
 20
-4.518935
 30
0.0
  0
SPLINE
  5
11b
100
AcDbEntity
  8
Layer_1
 62
7
100
AcDbSpline
 70
8
 71
3
 72
8
 73
4
 74
0
 40
0
 40
0
 40
0
 40
0
 40
1
 40
1
 40
1
 40
1
 10
-201.666052
 20
-4.518935
 30
0.0
 10
-201.213283
 20
-6.665066
 30
0.0
 10
-201.989224
 20
-8.284316
 30
0.0
 10
-203.748685
 20
-8.864988
 30
0.0
  0
SPLINE
  5
11c
100
AcDbEntity
  8
Layer_1
 62
7
100
AcDbSpline
 70
8
 71
3
 72
8
 73
4
 74
0
 40
0
 40
0
 40
0
 40
0
 40
1
 40
1
 40
1
 40
1
 10
-203.748685
 20
-8.864988
 30
0.0
 10
-205.111056
 20
-9.314596
 30
0.0
 10
-208.433518
 20
-9.042958
 30
0.0
 10
-209.479662
 20
-8.396386
 30
0.0
  0
SPLINE
  5
11d
100
AcDbEntity
  8
Layer_1
 62
7
100
AcDbSpline
 70
8
 71
3
 72
8
 73
4
 74
0
 40
0
 40
0
 40
0
 40
0
 40
1
 40
1
 40
1
 40
1
 10
-209.479662
 20
-8.396386
 30
0.0
 10
-211.612994
 20
-7.077929
 30
0.0
 10
-211.602695
 20
-5.051348
 30
0.0
 10
-209.430877
 20
1.203064
 30
0.0
  0
SPLINE
  5
11e
100
AcDbEntity
  8
Layer_1
 62
7
100
AcDbSpline
 70
8
 71
3
 72
8
 73
4
 74
0
 40
0
 40
0
 40
0
 40
0
 40
1
 40
1
 40
1
 40
1
 10
-209.430877
 20
1.203064
 30
0.0
 10
-207.088861
 20
7.947610
 30
0.0
 10
-206.931678
 20
9.122981
 30
0.0
 10
-207.718350
 20
14.008897
 30
0.0
  0
SPLINE
  5
11f
100
AcDbEntity
  8
Layer_1
 62
7
100
AcDbSpline
 70
8
 71
3
 72
8
 73
4
 74
0
 40
0
 40
0
 40
0
 40
0
 40
1
 40
1
 40
1
 40
1
 10
-207.718350
 20
14.008897
 30
0.0
 10
-208.070210
 20
16.194274
 30
0.0
 10
-207.846052
 20
19.253870
 30
0.0
 10
-207.088435
 20
22.606775
 30
0.0
  0
SPLINE
  5
120
100
AcDbEntity
  8
Layer_1
 62
7
100
AcDbSpline
 70
8
 71
3
 72
8
 73
4
 74
0
 40
0
 40
0
 40
0
 40
0
 40
1
 40
1
 40
1
 40
1
 10
-207.088435
 20
22.606775
 30
0.0
 10
-206.764083
 20
24.042233
 30
0.0
 10
-206.537391
 20
25.255385
 30
0.0
 10
-206.584674
 20
25.302671
 30
0.0
  0
SPLINE
  5
121
100
AcDbEntity
  8
Layer_1
 62
7
100
AcDbSpline
 70
8
 71
3
 72
8
 73
4
 74
0
 40
0
 40
0
 40
0
 40
0
 40
1
 40
1
 40
1
 40
1
 10
-206.584674
 20
25.302671
 30
0.0
 10
-206.847908
 20
25.565906
 30
0.0
 10
-209.179374
 20
19.197857
 30
0.0
 10
-210.316874
 20
15.108728
 30
0.0
  0
SPLINE
  5
122
100
AcDbEntity
  8
Layer_1
 62
7
100
AcDbSpline
 70
8
 71
3
 72
8
 73
4
 74
0
 40
0
 40
0
 40
0
 40
0
 40
1
 40
1
 40
1
 40
1
 10
-210.316874
 20
15.108728
 30
0.0
 10
-211.128062
 20
12.192628
 30
0.0
 10
-211.176266
 20
11.792380
 30
0.0
 10
-211.376522
 20
6.310129
 30
0.0
  0
SPLINE
  5
123
100
AcDbEntity
  8
Layer_1
 62
7
100
AcDbSpline
 70
8
 71
3
 72
8
 73
4
 74
0
 40
0
 40
0
 40
0
 40
0
 40
1
 40
1
 40
1
 40
1
 10
-211.376522
 20
6.310129
 30
0.0
 10
-211.597449
 20
0.261994
 30
0.0
 10
-211.878108
 20
-1.661153
 30
0.0
 10
-212.964883
 20
-4.573743
 30
0.0
  0
SPLINE
  5
124
100
AcDbEntity
  8
Layer_1
 62
7
100
AcDbSpline
 70
8
 71
3
 72
8
 73
4
 74
0
 40
0
 40
0
 40
0
 40
0
 40
1
 40
1
 40
1
 40
1
 10
-212.964883
 20
-4.573743
 30
0.0
 10
-214.197573
 20
-7.877408
 30
0.0
 10
-216.479541
 20
-10.347981
 30
0.0
 10
-219.079730
 20
-11.194055
 30
0.0
  0
SPLINE
  5
125
100
AcDbEntity
  8
Layer_1
 62
7
100
AcDbSpline
 70
8
 71
3
 72
8
 73
4
 74
0
 40
0
 40
0
 40
0
 40
0
 40
1
 40
1
 40
1
 40
1
 10
-219.079730
 20
-11.194055
 30
0.0
 10
-219.751848
 20
-11.412749
 30
0.0
 10
-220.644689
 20
-11.798096
 30
0.0
 10
-221.063826
 20
-12.050402
 30
0.0
  0
SPLINE
  5
126
100
AcDbEntity
  8
Layer_1
 62
7
100
AcDbSpline
 70
8
 71
3
 72
8
 73
4
 74
0
 40
0
 40
0
 40
0
 40
0
 40
1
 40
1
 40
1
 40
1
 10
-221.063826
 20
-12.050402
 30
0.0
 10
-222.161986
 20
-12.711423
 30
0.0
 10
-223.026659
 20
-12.632486
 30
0.0
 10
-223.864444
 20
-11.794709
 30
0.0
  0
SPLINE
  5
127
100
AcDbEntity
  8
Layer_1
 62
7
100
AcDbSpline
 70
8
 71
3
 72
8
 73
4
 74
0
 40
0
 40
0
 40
0
 40
0
 40
1
 40
1
 40
1
 40
1
 10
-223.864444
 20
-11.794709
 30
0.0
 10
-224.964425
 20
-10.694720
 30
0.0
 10
-224.709778
 20
-9.565831
 30
0.0
 10
-223.221386
 20
-8.943954
 30
0.0
  0
SPLINE
  5
128
100
AcDbEntity
  8
Layer_1
 62
7
100
AcDbSpline
 70
8
 71
3
 72
8
 73
4
 74
0
 40
0
 40
0
 40
0
 40
0
 40
1
 40
1
 40
1
 40
1
 10
-223.221386
 20
-8.943954
 30
0.0
 10
-222.491052
 20
-8.638787
 30
0.0
 10
-222.273131
 20
-8.645024
 30
0.0
 10
-221.395581
 20
-8.996165
 30
0.0
  0
SPLINE
  5
129
100
AcDbEntity
  8
Layer_1
 62
7
100
AcDbSpline
 70
8
 71
3
 72
8
 73
4
 74
0
 40
0
 40
0
 40
0
 40
0
 40
1
 40
1
 40
1
 40
1
 10
-221.395581
 20
-8.996165
 30
0.0
 10
-220.461832
 20
-9.369771
 30
0.0
 10
-220.337575
 20
-9.367118
 30
0.0
 10
-219.421868
 20
-8.954199
 30
0.0
  0
SPLINE
  5
12a
100
AcDbEntity
  8
Layer_1
 62
7
100
AcDbSpline
 70
8
 71
3
 72
8
 73
4
 74
0
 40
0
 40
0
 40
0
 40
0
 40
1
 40
1
 40
1
 40
1
 10
-219.421868
 20
-8.954199
 30
0.0
 10
-217.603533
 20
-8.134258
 30
0.0
 10
-216.339412
 20
-6.217800
 30
0.0
 10
-215.506627
 20
-3.018614
 30
0.0
  0
SPLINE
  5
12b
100
AcDbEntity
  8
Layer_1
 62
7
100
AcDbSpline
 70
8
 71
3
 72
8
 73
4
 74
0
 40
0
 40
0
 40
0
 40
0
 40
1
 40
1
 40
1
 40
1
 10
-215.506627
 20
-3.018614
 30
0.0
 10
-215.117830
 20
-1.525009
 30
0.0
 10
-214.972262
 20
0.196264
 30
0.0
 10
-214.790048
 20
5.454713
 30
0.0
  0
SPLINE
  5
12c
100
AcDbEntity
  8
Layer_1
 62
7
100
AcDbSpline
 70
8
 71
3
 72
8
 73
4
 74
0
 40
0
 40
0
 40
0
 40
0
 40
1
 40
1
 40
1
 40
1
 10
-214.790048
 20
5.454713
 30
0.0
 10
-214.526879
 20
13.049426
 30
0.0
 10
-214.222296
 20
14.933545
 30
0.0
 10
-212.354837
 20
20.518776
 30
0.0
  0
SPLINE
  5
12d
100
AcDbEntity
  8
Layer_1
 62
7
100
AcDbSpline
 70
8
 71
3
 72
8
 73
4
 74
0
 40
0
 40
0
 40
0
 40
0
 40
1
 40
1
 40
1
 40
1
 10
-212.354837
 20
20.518776
 30
0.0
 10
-211.709223
 20
22.449695
 30
0.0
 10
-211.222709
 20
24.072092
 30
0.0
 10
-211.273698
 20
24.124100
 30
0.0
  0
SPLINE
  5
12e
100
AcDbEntity
  8
Layer_1
 62
7
100
AcDbSpline
 70
8
 71
3
 72
8
 73
4
 74
0
 40
0
 40
0
 40
0
 40
0
 40
1
 40
1
 40
1
 40
1
 10
-211.273698
 20
24.124100
 30
0.0
 10
-211.483733
 20
24.338341
 30
0.0
 10
-216.093497
 20
14.577180
 30
0.0
 10
-216.742574
 20
12.543769
 30
0.0
  0
SPLINE
  5
12f
100
AcDbEntity
  8
Layer_1
 62
7
100
AcDbSpline
 70
8
 71
3
 72
8
 73
4
 74
0
 40
0
 40
0
 40
0
 40
0
 40
1
 40
1
 40
1
 40
1
 10
-216.742574
 20
12.543769
 30
0.0
 10
-217.128985
 20
11.333261
 30
0.0
 10
-217.899976
 20
8.253144
 30
0.0
 10
-218.455895
 20
5.699118
 30
0.0
  0
SPLINE
  5
130
100
AcDbEntity
  8
Layer_1
 62
7
100
AcDbSpline
 70
8
 71
3
 72
8
 73
4
 74
0
 40
0
 40
0
 40
0
 40
0
 40
1
 40
1
 40
1
 40
1
 10
-218.455895
 20
5.699118
 30
0.0
 10
-220.425820
 20
-3.351297
 30
0.0
 10
-221.154385
 20
-4.706331
 30
0.0
 10
-224.370575
 20
-5.301425
 30
0.0
  0
SPLINE
  5
131
100
AcDbEntity
  8
Layer_1
 62
7
100
AcDbSpline
 70
8
 71
3
 72
8
 73
4
 74
0
 40
0
 40
0
 40
0
 40
0
 40
1
 40
1
 40
1
 40
1
 10
-224.370575
 20
-5.301425
 30
0.0
 10
-227.293235
 20
-5.842191
 30
0.0
 10
-230.689003
 20
-3.468702
 30
0.0
 10
-230.689003
 20
-0.885155
 30
0.0
  0
SPLINE
  5
132
100
AcDbEntity
  8
Layer_1
 62
7
100
AcDbSpline
 70
8
 71
3
 72
8
 73
4
 74
0
 40
0
 40
0
 40
0
 40
0
 40
1
 40
1
 40
1
 40
1
 10
-230.689003
 20
-0.885155
 30
0.0
 10
-230.689003
 20
-0.532377
 30
0.0
 10
-230.908967
 20
0.035906
 30
0.0
 10
-231.177815
 20
0.377705
 30
0.0
  0
SPLINE
  5
133
100
AcDbEntity
  8
Layer_1
 62
7
100
AcDbSpline
 70
8
 71
3
 72
8
 73
4
 74
0
 40
0
 40
0
 40
0
 40
0
 40
1
 40
1
 40
1
 40
1
 10
-231.177815
 20
0.377705
 30
0.0
 10
-231.818434
 20
1.192114
 30
0.0
 10
-231.796172
 20
1.977369
 30
0.0
 10
-231.109845
 20
2.775267
 30
0.0
  0
SPLINE
  5
134
100
AcDbEntity
  8
Layer_1
 62
7
100
AcDbSpline
 70
8
 71
3
 72
8
 73
4
 74
0
 40
0
 40
0
 40
0
 40
0
 40
1
 40
1
 40
1
 40
1
 10
-231.109845
 20
2.775267
 30
0.0
 10
-229.923921
 20
4.153979
 30
0.0
 10
-227.511729
 20
3.316005
 30
0.0
 10
-227.511729
 20
1.525305
 30
0.0
  0
SPLINE
  5
135
100
AcDbEntity
  8
Layer_1
 62
7
100
AcDbSpline
 70
8
 71
3
 72
8
 73
4
 74
0
 40
0
 40
0
 40
0
 40
0
 40
1
 40
1
 40
1
 40
1
 10
-227.511729
 20
1.525305
 30
0.0
 10
-227.511729
 20
0.911641
 30
0.0
 10
-227.709112
 20
0.577857
 30
0.0
 10
-228.399631
 20
0.023911
 30
0.0
  0
SPLINE
  5
136
100
AcDbEntity
  8
Layer_1
 62
7
100
AcDbSpline
 70
8
 71
3
 72
8
 73
4
 74
0
 40
0
 40
0
 40
0
 40
0
 40
1
 40
1
 40
1
 40
1
 10
-228.399631
 20
0.023911
 30
0.0
 10
-229.217920
 20
-0.632538
 30
0.0
 10
-229.263428
 20
-0.735013
 30
0.0
 10
-228.980103
 20
-1.282919
 30
0.0
  0
SPLINE
  5
137
100
AcDbEntity
  8
Layer_1
 62
7
100
AcDbSpline
 70
8
 71
3
 72
8
 73
4
 74
0
 40
0
 40
0
 40
0
 40
0
 40
1
 40
1
 40
1
 40
1
 10
-228.980103
 20
-1.282919
 30
0.0
 10
-228.109072
 20
-2.967419
 30
0.0
 10
-226.563222
 20
-3.690218
 30
0.0
 10
-224.829878
 20
-3.223479
 30
0.0
  0
SPLINE
  5
138
100
AcDbEntity
  8
Layer_1
 62
7
100
AcDbSpline
 70
8
 71
3
 72
8
 73
4
 74
0
 40
0
 40
0
 40
0
 40
0
 40
1
 40
1
 40
1
 40
1
 10
-224.829878
 20
-3.223479
 30
0.0
 10
-222.903412
 20
-2.704726
 30
0.0
 10
-222.066793
 20
-0.818296
 30
0.0
 10
-220.914939
 20
5.604037
 30
0.0
  0
SPLINE
  5
139
100
AcDbEntity
  8
Layer_1
 62
7
100
AcDbSpline
 70
8
 71
3
 72
8
 73
4
 74
0
 40
0
 40
0
 40
0
 40
0
 40
1
 40
1
 40
1
 40
1
 10
-220.914939
 20
5.604037
 30
0.0
 10
-219.697492
 20
12.392102
 30
0.0
 10
-218.664536
 20
16.431445
 30
0.0
 10
-217.083586
 20
20.586436
 30
0.0
  0
SPLINE
  5
13a
100
AcDbEntity
  8
Layer_1
 62
7
100
AcDbSpline
 70
8
 71
3
 72
8
 73
4
 74
0
 40
0
 40
0
 40
0
 40
0
 40
1
 40
1
 40
1
 40
1
 10
-217.083586
 20
20.586436
 30
0.0
 10
-216.627744
 20
21.784461
 30
0.0
 10
-216.287104
 20
22.861621
 30
0.0
 10
-216.326604
 20
22.980129
 30
0.0
  0
SPLINE
  5
13b
100
AcDbEntity
  8
Layer_1
 62
7
100
AcDbSpline
 70
8
 71
3
 72
8
 73
4
 74
0
 40
0
 40
0
 40
0
 40
0
 40
1
 40
1
 40
1
 40
1
 10
-216.326604
 20
22.980129
 30
0.0
 10
-216.366107
 20
23.098631
 30
0.0
 10
-216.972529
 20
22.369790
 30
0.0
 10
-217.674207
 20
21.360476
 30
0.0
  0
SPLINE
  5
13c
100
AcDbEntity
  8
Layer_1
 62
7
100
AcDbSpline
 70
8
 71
3
 72
8
 73
4
 74
0
 40
0
 40
0
 40
0
 40
0
 40
1
 40
1
 40
1
 40
1
 10
-217.674207
 20
21.360476
 30
0.0
 10
-219.703204
 20
18.441911
 30
0.0
 10
-222.474604
 20
16.603555
 30
0.0
 10
-227.693412
 20
14.714424
 30
0.0
  0
SPLINE
  5
13d
100
AcDbEntity
  8
Layer_1
 62
7
100
AcDbSpline
 70
8
 71
3
 72
8
 73
4
 74
0
 40
0
 40
0
 40
0
 40
0
 40
1
 40
1
 40
1
 40
1
 10
-227.693412
 20
14.714424
 30
0.0
 10
-231.629907
 20
13.289484
 30
0.0
 10
-233.039200
 20
12.308762
 30
0.0
 10
-233.970457
 20
10.346274
 30
0.0
  0
SPLINE
  5
13e
100
AcDbEntity
  8
Layer_1
 62
7
100
AcDbSpline
 70
8
 71
3
 72
8
 73
4
 74
0
 40
0
 40
0
 40
0
 40
0
 40
1
 40
1
 40
1
 40
1
 10
-233.970457
 20
10.346274
 30
0.0
 10
-235.193688
 20
7.768512
 30
0.0
 10
-232.921601
 20
5.182566
 30
0.0
 10
-230.858997
 20
6.805006
 30
0.0
  0
SPLINE
  5
13f
100
AcDbEntity
  8
Layer_1
 62
7
100
AcDbSpline
 70
8
 71
3
 72
8
 73
4
 74
0
 40
0
 40
0
 40
0
 40
0
 40
1
 40
1
 40
1
 40
1
 10
-230.858997
 20
6.805006
 30
0.0
 10
-230.312948
 20
7.234520
 30
0.0
 10
-230.261439
 20
7.390504
 30
0.0
 10
-230.469008
 20
7.985936
 30
0.0
  0
SPLINE
  5
140
100
AcDbEntity
  8
Layer_1
 62
7
100
AcDbSpline
 70
8
 71
3
 72
8
 73
4
 74
0
 40
0
 40
0
 40
0
 40
0
 40
1
 40
1
 40
1
 40
1
 10
-230.469008
 20
7.985936
 30
0.0
 10
-231.015718
 20
9.554217
 30
0.0
 10
-229.415281
 20
11.006786
 30
0.0
 10
-227.771844
 20
10.433875
 30
0.0
  0
SPLINE
  5
141
100
AcDbEntity
  8
Layer_1
 62
7
100
AcDbSpline
 70
8
 71
3
 72
8
 73
4
 74
0
 40
0
 40
0
 40
0
 40
0
 40
1
 40
1
 40
1
 40
1
 10
-227.771844
 20
10.433875
 30
0.0
 10
-226.383760
 20
9.949977
 30
0.0
 10
-226.050221
 20
8.192664
 30
0.0
 10
-227.178080
 20
7.305498
 30
0.0
  0
SPLINE
  5
142
100
AcDbEntity
  8
Layer_1
 62
7
100
AcDbSpline
 70
8
 71
3
 72
8
 73
4
 74
0
 40
0
 40
0
 40
0
 40
0
 40
1
 40
1
 40
1
 40
1
 10
-227.178080
 20
7.305498
 30
0.0
 10
-227.532266
 20
7.026889
 30
0.0
 10
-227.926192
 20
6.798938
 30
0.0
 10
-228.053468
 20
6.798938
 30
0.0
  0
SPLINE
  5
143
100
AcDbEntity
  8
Layer_1
 62
7
100
AcDbSpline
 70
8
 71
3
 72
8
 73
4
 74
0
 40
0
 40
0
 40
0
 40
0
 40
1
 40
1
 40
1
 40
1
 10
-228.053468
 20
6.798938
 30
0.0
 10
-228.180748
 20
6.798938
 30
0.0
 10
-228.743324
 20
6.428549
 30
0.0
 10
-229.303639
 20
5.975837
 30
0.0
  0
SPLINE
  5
144
100
AcDbEntity
  8
Layer_1
 62
7
100
AcDbSpline
 70
8
 71
3
 72
8
 73
4
 74
0
 40
0
 40
0
 40
0
 40
0
 40
1
 40
1
 40
1
 40
1
 10
-229.303639
 20
5.975837
 30
0.0
 10
-230.732753
 20
4.821153
 30
0.0
 10
-231.239774
 20
4.599298
 30
0.0
 10
-232.449243
 20
4.599298
 30
0.0
  0
SPLINE
  5
145
100
AcDbEntity
  8
Layer_1
 62
7
100
AcDbSpline
 70
8
 71
3
 72
8
 73
4
 74
0
 40
0
 40
0
 40
0
 40
0
 40
1
 40
1
 40
1
 40
1
 10
-232.449243
 20
4.599298
 30
0.0
 10
-235.641552
 20
4.599298
 30
0.0
 10
-237.299071
 20
8.503758
 30
0.0
 10
-235.613767
 20
12.053662
 30
0.0
  0
SPLINE
  5
146
100
AcDbEntity
  8
Layer_1
 62
7
100
AcDbSpline
 70
8
 71
3
 72
8
 73
4
 74
0
 40
0
 40
0
 40
0
 40
0
 40
1
 40
1
 40
1
 40
1
 10
-235.613767
 20
12.053662
 30
0.0
 10
-234.396867
 20
14.616945
 30
0.0
 10
-233.085378
 20
15.555026
 30
0.0
 10
-227.389526
 20
17.936361
 30
0.0
  0
SPLINE
  5
147
100
AcDbEntity
  8
Layer_1
 62
7
100
AcDbSpline
 70
8
 71
3
 72
8
 73
4
 74
0
 40
0
 40
0
 40
0
 40
0
 40
1
 40
1
 40
1
 40
1
 10
-227.389526
 20
17.936361
 30
0.0
 10
-226.179719
 20
18.442162
 30
0.0
 10
-224.639962
 20
19.206798
 30
0.0
 10
-223.967847
 20
19.635559
 30
0.0
  0
SPLINE
  5
148
100
AcDbEntity
  8
Layer_1
 62
7
100
AcDbSpline
 70
8
 71
3
 72
8
 73
4
 74
0
 40
0
 40
0
 40
0
 40
0
 40
1
 40
1
 40
1
 40
1
 10
-223.967847
 20
19.635559
 30
0.0
 10
-221.064503
 20
21.487673
 30
0.0
 10
-218.315642
 20
25.268923
 30
0.0
 10
-214.781903
 20
32.271452
 30
0.0
  0
LINE
  5
149
100
AcDbEntity
  8
Layer_1
 62
7
100
AcDbLine
 10
-214.781903
 20
32.271452
 30
0.0
 11
-212.561130
 21
36.672185
 31
0.0
  0
LINE
  5
14a
100
AcDbEntity
  8
Layer_1
 62
7
100
AcDbLine
 10
-212.561130
 20
36.672185
 30
0.0
 11
-213.357339
 21
37.493667
 31
0.0
  0
LINE
  5
14b
100
AcDbEntity
  8
Layer_1
 62
7
100
AcDbLine
 10
-213.357339
 20
37.493667
 30
0.0
 11
-214.153547
 21
38.315142
 31
0.0
  0
LINE
  5
14c
100
AcDbEntity
  8
Layer_1
 62
7
100
AcDbLine
 10
-214.153547
 20
38.315142
 30
0.0
 11
-214.969765
 21
37.810692
 31
0.0
  0
LINE
  5
14d
100
AcDbEntity
  8
Layer_1
 62
7
100
AcDbLine
 10
-214.969765
 20
37.810692
 30
0.0
 11
-215.785979
 21
37.306243
 31
0.0
  0
LINE
  5
14e
100
AcDbEntity
  8
Layer_1
 62
7
100
AcDbLine
 10
-215.785979
 20
37.306243
 30
0.0
 11
-217.188449
 21
38.527015
 31
0.0
  0
SPLINE
  5
14f
100
AcDbEntity
  8
Layer_1
 62
7
100
AcDbSpline
 70
8
 71
3
 72
8
 73
4
 74
0
 40
0
 40
0
 40
0
 40
0
 40
1
 40
1
 40
1
 40
1
 10
-217.188449
 20
38.527015
 30
0.0
 10
-217.959807
 20
39.198438
 30
0.0
 10
-218.890616
 20
40.063709
 30
0.0
 10
-219.256909
 20
40.449840
 30
0.0
  0
LINE
  5
150
100
AcDbEntity
  8
Layer_1
 62
7
100
AcDbLine
 10
-219.256909
 20
40.449840
 30
0.0
 11
-219.922900
 21
41.151896
 31
0.0
  0
LINE
  5
151
100
AcDbEntity
  8
Layer_1
 62
7
100
AcDbLine
 10
-219.922900
 20
41.151896
 30
0.0
 11
-218.463074
 21
43.222363
 31
0.0
  0
SPLINE
  5
152
100
AcDbEntity
  8
Layer_1
 62
7
100
AcDbSpline
 70
8
 71
3
 72
8
 73
4
 74
0
 40
0
 40
0
 40
0
 40
0
 40
1
 40
1
 40
1
 40
1
 10
-218.463074
 20
43.222363
 30
0.0
 10
-217.660172
 20
44.361124
 30
0.0
 10
-217.008174
 20
45.402817
 30
0.0
 10
-217.014194
 20
45.537240
 30
0.0
  0
SPLINE
  5
153
100
AcDbEntity
  8
Layer_1
 62
7
100
AcDbSpline
 70
8
 71
3
 72
8
 73
4
 74
0
 40
0
 40
0
 40
0
 40
0
 40
1
 40
1
 40
1
 40
1
 10
-217.014194
 20
45.537240
 30
0.0
 10
-217.020205
 20
45.671665
 30
0.0
 10
-217.383577
 20
46.661506
 30
0.0
 10
-217.821674
 20
47.736891
 30
0.0
  0
LINE
  5
154
100
AcDbEntity
  8
Layer_1
 62
7
100
AcDbLine
 10
-217.821674
 20
47.736891
 30
0.0
 11
-218.618212
 21
49.692138
 31
0.0
  0
LINE
  5
155
100
AcDbEntity
  8
Layer_1
 62
7
100
AcDbLine
 10
-218.618212
 20
49.692138
 30
0.0
 11
-220.682016
 21
50.119563
 31
0.0
  0
SPLINE
  5
156
100
AcDbEntity
  8
Layer_1
 62
7
100
AcDbSpline
 70
8
 71
3
 72
8
 73
4
 74
0
 40
0
 40
0
 40
0
 40
0
 40
1
 40
1
 40
1
 40
1
 10
-220.682016
 20
50.119563
 30
0.0
 10
-221.817105
 20
50.354649
 30
0.0
 10
-222.993277
 20
50.604204
 30
0.0
 10
-223.295729
 20
50.674133
 30
0.0
  0
SPLINE
  5
157
100
AcDbEntity
  8
Layer_1
 62
7
100
AcDbSpline
 70
8
 71
3
 72
8
 73
4
 74
0
 40
0
 40
0
 40
0
 40
0
 40
1
 40
1
 40
1
 40
1
 10
-223.295729
 20
50.674133
 30
0.0
 10
-223.826287
 20
50.796801
 30
0.0
 10
-223.845642
 20
50.899027
 30
0.0
 10
-223.845642
 20
53.578425
 30
0.0
  0
LINE
  5
158
100
AcDbEntity
  8
Layer_1
 62
7
100
AcDbLine
 10
-223.845642
 20
53.578425
 30
0.0
 11
-223.845642
 21
56.355574
 31
0.0
  0
LINE
  5
159
100
AcDbEntity
  8
Layer_1
 62
7
100
AcDbLine
 10
-223.845642
 20
56.355574
 30
0.0
 11
-221.462687
 21
56.780409
 31
0.0
  0
SPLINE
  5
15a
100
AcDbEntity
  8
Layer_1
 62
7
100
AcDbSpline
 70
8
 71
3
 72
8
 73
4
 74
0
 40
0
 40
0
 40
0
 40
0
 40
1
 40
1
 40
1
 40
1
 10
-221.462687
 20
56.780409
 30
0.0
 10
-218.644366
 20
57.282863
 30
0.0
 10
-218.351831
 20
57.412668
 30
0.0
 10
-218.032979
 20
58.302281
 30
0.0
  0
SPLINE
  5
15b
100
AcDbEntity
  8
Layer_1
 62
7
100
AcDbSpline
 70
8
 71
3
 72
8
 73
4
 74
0
 40
0
 40
0
 40
0
 40
0
 40
1
 40
1
 40
1
 40
1
 10
-218.032979
 20
58.302281
 30
0.0
 10
-217.899468
 20
58.674780
 30
0.0
 10
-217.570854
 20
59.529468
 30
0.0
 10
-217.302726
 20
60.201583
 30
0.0
  0
LINE
  5
15c
100
AcDbEntity
  8
Layer_1
 62
7
100
AcDbLine
 10
-217.302726
 20
60.201583
 30
0.0
 11
-216.815221
 21
61.423611
 31
0.0
  0
LINE
  5
15d
100
AcDbEntity
  8
Layer_1
 62
7
100
AcDbLine
 10
-216.815221
 20
61.423611
 30
0.0
 11
-218.383149
 21
63.610155
 31
0.0
  0
LINE
  5
15e
100
AcDbEntity
  8
Layer_1
 62
7
100
AcDbLine
 10
-218.383149
 20
63.610155
 30
0.0
 11
-219.951074
 21
65.796700
 31
0.0
  0
LINE
  5
15f
100
AcDbEntity
  8
Layer_1
 62
7
100
AcDbLine
 10
-219.951074
 20
65.796700
 30
0.0
 11
-217.950731
 21
67.807488
 31
0.0
  0
LINE
  5
160
100
AcDbEntity
  8
Layer_1
 62
7
100
AcDbLine
 10
-217.950731
 20
67.807488
 30
0.0
 11
-215.950388
 21
69.818277
 31
0.0
  0
LINE
  5
161
100
AcDbEntity
  8
Layer_1
 62
7
100
AcDbLine
 10
-215.950388
 20
69.818277
 30
0.0
 11
-213.797247
 21
68.370508
 31
0.0
  0
SPLINE
  5
162
100
AcDbEntity
  8
Layer_1
 62
7
100
AcDbSpline
 70
8
 71
3
 72
8
 73
4
 74
0
 40
0
 40
0
 40
0
 40
0
 40
1
 40
1
 40
1
 40
1
 10
-213.797247
 20
68.370508
 30
0.0
 10
-212.613020
 20
67.574237
 30
0.0
 10
-211.476074
 20
66.922742
 30
0.0
 10
-211.270695
 20
66.922742
 30
0.0
  0
SPLINE
  5
163
100
AcDbEntity
  8
Layer_1
 62
7
100
AcDbSpline
 70
8
 71
3
 72
8
 73
4
 74
0
 40
0
 40
0
 40
0
 40
0
 40
1
 40
1
 40
1
 40
1
 10
-211.270695
 20
66.922742
 30
0.0
 10
-211.065319
 20
66.922742
 30
0.0
 10
-210.172783
 20
67.212779
 30
0.0
 10
-209.287285
 20
67.567267
 30
0.0
  0
SPLINE
  5
164
100
AcDbEntity
  8
Layer_1
 62
7
100
AcDbSpline
 70
8
 71
3
 72
8
 73
4
 74
0
 40
0
 40
0
 40
0
 40
0
 40
1
 40
1
 40
1
 40
1
 10
-209.287285
 20
67.567267
 30
0.0
 10
-207.463517
 20
68.297370
 30
0.0
 10
-207.369289
 20
68.239156
 30
0.0
 10
-206.865175
 20
71.505347
 30
0.0
  0
LINE
  5
165
100
AcDbEntity
  8
Layer_1
 62
7
100
AcDbLine
 10
-206.865175
 20
71.505347
 30
0.0
 11
-206.030144
 21
76.915573
 31
0.0
  0
SPLINE
  5
166
100
AcDbEntity
  8
Layer_1
 62
7
100
AcDbSpline
 70
8
 71
3
 72
8
 73
4
 74
0
 40
0
 40
0
 40
0
 40
0
 40
1
 40
1
 40
1
 40
1
 10
-206.030144
 20
76.915573
 30
0.0
 10
-205.973144
 20
76.910408
 30
0.0
 10
-206.292278
 20
77.008706
 30
0.0
 10
-206.608669
 20
77.068402
 30
0.0
  0
SPLINE
  5
167
100
AcDbEntity
  8
Layer_1
 62
7
100
AcDbSpline
 70
8
 71
3
 72
8
 73
4
 74
0
 40
0
 40
0
 40
0
 40
0
 40
1
 40
1
 40
1
 40
1
 10
-206.608669
 20
77.068402
 30
0.0
 10
-206.925057
 20
77.128100
 30
0.0
 10
-207.229349
 20
77.152329
 30
0.0
 10
-207.173838
 20
77.142516
 30
0.0
  0
SPLINE
  5
168
100
AcDbEntity
  8
Layer_1
 62
7
100
AcDbSpline
 70
8
 71
3
 72
8
 73
4
 74
0
 40
0
 40
0
 40
0
 40
0
 40
1
 40
1
 40
1
 40
1
 10
-207.173838
 20
77.142516
 30
0.0
 10
-207.118328
 20
77.132695
 30
0.0
 10
-207.440465
 20
77.181824
 30
0.0
 10
-208.037323
 20
77.155103
 30
0.0
  0
SPLINE
  5
169
100
AcDbEntity
  8
Layer_1
 62
7
100
AcDbSpline
 70
8
 71
3
 72
8
 73
4
 74
0
 40
0
 40
0
 40
0
 40
0
 40
1
 40
1
 40
1
 40
1
 10
-208.037323
 20
77.155103
 30
0.0
 10
-208.634180
 20
77.128377
 30
0.0
 10
-209.505448
 20
77.016885
 30
0.0
 10
-209.449986
 20
77.024367
 30
0.0
  0
SPLINE
  5
16a
100
AcDbEntity
  8
Layer_1
 62
7
100
AcDbSpline
 70
8
 71
3
 72
8
 73
4
 74
0
 40
0
 40
0
 40
0
 40
0
 40
1
 40
1
 40
1
 40
1
 10
-209.449986
 20
77.024367
 30
0.0
 10
-209.391098
 20
77.032297
 30
0.0
 10
-209.730662
 20
76.964332
 30
0.0
 10
-210.107919
 20
76.797268
 30
0.0
  0
SPLINE
  5
16b
100
AcDbEntity
  8
Layer_1
 62
7
100
AcDbSpline
 70
8
 71
3
 72
8
 73
4
 74
0
 40
0
 40
0
 40
0
 40
0
 40
1
 40
1
 40
1
 40
1
 10
-210.107919
 20
76.797268
 30
0.0
 10
-210.485180
 20
76.630207
 30
0.0
 10
-210.835923
 20
76.314234
 30
0.0
 10
-210.795576
 20
76.352895
 30
0.0
  0
SPLINE
  5
16c
100
AcDbEntity
  8
Layer_1
 62
7
100
AcDbSpline
 70
8
 71
3
 72
8
 73
4
 74
0
 40
0
 40
0
 40
0
 40
0
 40
1
 40
1
 40
1
 40
1
 10
-210.795576
 20
76.352895
 30
0.0
 10
-210.712849
 20
76.432174
 30
0.0
 10
-210.898839
 20
76.236033
 30
0.0
 10
-211.091292
 20
76.026697
 30
0.0
  0
SPLINE
  5
16d
100
AcDbEntity
  8
Layer_1
 62
7
100
AcDbSpline
 70
8
 71
3
 72
8
 73
4
 74
0
 40
0
 40
0
 40
0
 40
0
 40
1
 40
1
 40
1
 40
1
 10
-211.091292
 20
76.026697
 30
0.0
 10
-211.283745
 20
75.817362
 30
0.0
 10
-211.440449
 20
75.506488
 30
0.0
 10
-211.464768
 20
75.456044
 30
0.0
  0
SPLINE
  5
16e
100
AcDbEntity
  8
Layer_1
 62
7
100
AcDbSpline
 70
8
 71
3
 72
8
 73
4
 74
0
 40
0
 40
0
 40
0
 40
0
 40
1
 40
1
 40
1
 40
1
 10
-211.464768
 20
75.456044
 30
0.0
 10
-211.506122
 20
75.370271
 30
0.0
 10
-211.630500
 20
75.103644
 30
0.0
 10
-211.829896
 20
74.917513
 30
0.0
  0
SPLINE
  5
16f
100
AcDbEntity
  8
Layer_1
 62
7
100
AcDbSpline
 70
8
 71
3
 72
8
 73
4
 74
0
 40
0
 40
0
 40
0
 40
0
 40
1
 40
1
 40
1
 40
1
 10
-211.829896
 20
74.917513
 30
0.0
 10
-212.029294
 20
74.731382
 30
0.0
 10
-212.152179
 20
74.692796
 30
0.0
 10
-212.205460
 20
74.674850
 30
0.0
  0
SPLINE
  5
170
100
AcDbEntity
  8
Layer_1
 62
7
100
AcDbSpline
 70
8
 71
3
 72
8
 73
4
 74
0
 40
0
 40
0
 40
0
 40
0
 40
1
 40
1
 40
1
 40
1
 10
-212.205460
 20
74.674850
 30
0.0
 10
-212.281829
 20
74.649139
 30
0.0
 10
-212.490877
 20
74.607746
 30
0.0
 10
-212.774894
 20
74.618933
 30
0.0
  0
SPLINE
  5
171
100
AcDbEntity
  8
Layer_1
 62
7
100
AcDbSpline
 70
8
 71
3
 72
8
 73
4
 74
0
 40
0
 40
0
 40
0
 40
0
 40
1
 40
1
 40
1
 40
1
 10
-212.774894
 20
74.618933
 30
0.0
 10
-213.058908
 20
74.630137
 30
0.0
 10
-213.133788
 20
74.625594
 30
0.0
 10
-213.192329
 20
74.624465
 30
0.0
  0
SPLINE
  5
172
100
AcDbEntity
  8
Layer_1
 62
7
100
AcDbSpline
 70
8
 71
3
 72
8
 73
4
 74
0
 40
0
 40
0
 40
0
 40
0
 40
1
 40
1
 40
1
 40
1
 10
-213.192329
 20
74.624465
 30
0.0
 10
-213.209065
 20
74.624182
 30
0.0
 10
-213.226148
 20
74.623336
 30
0.0
 10
-213.241379
 20
74.622771
 30
0.0
  0
SPLINE
  5
173
100
AcDbEntity
  8
Layer_1
 62
7
100
AcDbSpline
 70
8
 71
3
 72
8
 73
4
 74
0
 40
0
 40
0
 40
0
 40
0
 40
1
 40
1
 40
1
 40
1
 10
-213.241379
 20
74.622771
 30
0.0
 10
-213.270713
 20
74.621642
 30
0.0
 10
-213.300048
 20
74.621360
 30
0.0
 10
-213.327000
 20
74.620514
 30
0.0
  0
SPLINE
  5
174
100
AcDbEntity
  8
Layer_1
 62
7
100
AcDbSpline
 70
8
 71
3
 72
8
 73
4
 74
0
 40
0
 40
0
 40
0
 40
0
 40
1
 40
1
 40
1
 40
1
 10
-213.327000
 20
74.620514
 30
0.0
 10
-213.344018
 20
74.620231
 30
0.0
 10
-213.362323
 20
74.619949
 30
0.0
 10
-213.381816
 20
74.619667
 30
0.0
  0
SPLINE
  5
175
100
AcDbEntity
  8
Layer_1
 62
7
100
AcDbSpline
 70
8
 71
3
 72
8
 73
4
 74
0
 40
0
 40
0
 40
0
 40
0
 40
1
 40
1
 40
1
 40
1
 10
-213.381816
 20
74.619667
 30
0.0
 10
-213.401317
 20
74.619506
 30
0.0
 10
-213.421982
 20
74.619452
 30
0.0
 10
-213.443721
 20
74.619551
 30
0.0
  0
SPLINE
  5
176
100
AcDbEntity
  8
Layer_1
 62
7
100
AcDbSpline
 70
8
 71
3
 72
8
 73
4
 74
0
 40
0
 40
0
 40
0
 40
0
 40
1
 40
1
 40
1
 40
1
 10
-213.443721
 20
74.619551
 30
0.0
 10
-213.465452
 20
74.619650
 30
0.0
 10
-213.488273
 20
74.619833
 30
0.0
 10
-213.512036
 20
74.620398
 30
0.0
  0
SPLINE
  5
177
100
AcDbEntity
  8
Layer_1
 62
7
100
AcDbSpline
 70
8
 71
3
 72
8
 73
4
 74
0
 40
0
 40
0
 40
0
 40
0
 40
1
 40
1
 40
1
 40
1
 10
-213.512036
 20
74.620398
 30
0.0
 10
-213.535799
 20
74.620962
 30
0.0
 10
-213.560516
 20
74.621527
 30
0.0
 10
-213.586074
 20
74.622373
 30
0.0
  0
SPLINE
  5
178
100
AcDbEntity
  8
Layer_1
 62
7
100
AcDbSpline
 70
8
 71
3
 72
8
 73
4
 74
0
 40
0
 40
0
 40
0
 40
0
 40
1
 40
1
 40
1
 40
1
 10
-213.586074
 20
74.622373
 30
0.0
 10
-213.611643
 20
74.623220
 30
0.0
 10
-213.636002
 20
74.623785
 30
0.0
 10
-213.659192
 20
74.624067
 30
0.0
  0
SPLINE
  5
179
100
AcDbEntity
  8
Layer_1
 62
7
100
AcDbSpline
 70
8
 71
3
 72
8
 73
4
 74
0
 40
0
 40
0
 40
0
 40
0
 40
1
 40
1
 40
1
 40
1
 10
-213.659192
 20
74.624067
 30
0.0
 10
-213.682391
 20
74.624318
 30
0.0
 10
-213.704393
 20
74.624287
 30
0.0
 10
-213.725235
 20
74.624044
 30
0.0
  0
SPLINE
  5
17a
100
AcDbEntity
  8
Layer_1
 62
7
100
AcDbSpline
 70
8
 71
3
 72
8
 73
4
 74
0
 40
0
 40
0
 40
0
 40
0
 40
1
 40
1
 40
1
 40
1
 10
-213.725235
 20
74.624044
 30
0.0
 10
-213.746063
 20
74.623801
 30
0.0
 10
-213.765742
 20
74.623480
 30
0.0
 10
-213.784251
 20
74.622633
 30
0.0
  0
SPLINE
  5
17b
100
AcDbEntity
  8
Layer_1
 62
7
100
AcDbSpline
 70
8
 71
3
 72
8
 73
4
 74
0
 40
0
 40
0
 40
0
 40
0
 40
1
 40
1
 40
1
 40
1
 10
-213.784251
 20
74.622633
 30
0.0
 10
-213.817677
 20
74.621786
 30
0.0
 10
-213.849972
 20
74.619387
 30
0.0
 10
-213.881397
 20
74.617835
 30
0.0
  0
SPLINE
  5
17c
100
AcDbEntity
  8
Layer_1
 62
7
100
AcDbSpline
 70
8
 71
3
 72
8
 73
4
 74
0
 40
0
 40
0
 40
0
 40
0
 40
1
 40
1
 40
1
 40
1
 10
-213.881397
 20
74.617835
 30
0.0
 10
-213.915278
 20
74.615295
 30
0.0
 10
-213.944194
 20
74.614082
 30
0.0
 10
-213.975642
 20
74.612191
 30
0.0
  0
SPLINE
  5
17d
100
AcDbEntity
  8
Layer_1
 62
7
100
AcDbSpline
 70
8
 71
3
 72
8
 73
4
 74
0
 40
0
 40
0
 40
0
 40
0
 40
1
 40
1
 40
1
 40
1
 10
-213.975642
 20
74.612191
 30
0.0
 10
-213.984899
 20
74.611928
 30
0.0
 10
-213.976771
 20
74.636349
 30
0.0
 10
-213.962942
 20
74.672950
 30
0.0
  0
SPLINE
  5
17e
100
AcDbEntity
  8
Layer_1
 62
7
100
AcDbSpline
 70
8
 71
3
 72
8
 73
4
 74
0
 40
0
 40
0
 40
0
 40
0
 40
1
 40
1
 40
1
 40
1
 10
-213.962942
 20
74.672950
 30
0.0
 10
-213.950073
 20
74.707065
 30
0.0
 10
-213.922452
 20
74.763978
 30
0.0
 10
-213.904020
 20
74.836202
 30
0.0
  0
SPLINE
  5
17f
100
AcDbEntity
  8
Layer_1
 62
7
100
AcDbSpline
 70
8
 71
3
 72
8
 73
4
 74
0
 40
0
 40
0
 40
0
 40
0
 40
1
 40
1
 40
1
 40
1
 10
-213.904020
 20
74.836202
 30
0.0
 10
-213.885591
 20
74.908425
 30
0.0
 10
-213.852943
 20
74.980367
 30
0.0
 10
-213.822178
 20
75.080400
 30
0.0
  0
SPLINE
  5
180
100
AcDbEntity
  8
Layer_1
 62
7
100
AcDbSpline
 70
8
 71
3
 72
8
 73
4
 74
0
 40
0
 40
0
 40
0
 40
0
 40
1
 40
1
 40
1
 40
1
 10
-213.822178
 20
75.080400
 30
0.0
 10
-213.791416
 20
75.180431
 30
0.0
 10
-213.743828
 20
75.310109
 30
0.0
 10
-213.701746
 20
75.432329
 30
0.0
  0
SPLINE
  5
181
100
AcDbEntity
  8
Layer_1
 62
7
100
AcDbSpline
 70
8
 71
3
 72
8
 73
4
 74
0
 40
0
 40
0
 40
0
 40
0
 40
1
 40
1
 40
1
 40
1
 10
-213.701746
 20
75.432329
 30
0.0
 10
-213.659664
 20
75.554545
 30
0.0
 10
-213.615293
 20
75.675536
 30
0.0
 10
-213.562901
 20
75.814316
 30
0.0
  0
SPLINE
  5
182
100
AcDbEntity
  8
Layer_1
 62
7
100
AcDbSpline
 70
8
 71
3
 72
8
 73
4
 74
0
 40
0
 40
0
 40
0
 40
0
 40
1
 40
1
 40
1
 40
1
 10
-213.562901
 20
75.814316
 30
0.0
 10
-213.510512
 20
75.953096
 30
0.0
 10
-213.470369
 20
76.108110
 30
0.0
 10
-213.408683
 20
76.257829
 30
0.0
  0
SPLINE
  5
183
100
AcDbEntity
  8
Layer_1
 62
7
100
AcDbSpline
 70
8
 71
3
 72
8
 73
4
 74
0
 40
0
 40
0
 40
0
 40
0
 40
1
 40
1
 40
1
 40
1
 10
-213.408683
 20
76.257829
 30
0.0
 10
-213.346995
 20
76.407550
 30
0.0
 10
-213.310538
 20
76.562894
 30
0.0
 10
-213.240566
 20
76.717933
 30
0.0
  0
SPLINE
  5
184
100
AcDbEntity
  8
Layer_1
 62
7
100
AcDbSpline
 70
8
 71
3
 72
8
 73
4
 74
0
 40
0
 40
0
 40
0
 40
0
 40
1
 40
1
 40
1
 40
1
 10
-213.240566
 20
76.717933
 30
0.0
 10
-213.170595
 20
76.872969
 30
0.0
 10
-213.107645
 20
77.030818
 30
0.0
 10
-213.030401
 20
77.185552
 30
0.0
  0
SPLINE
  5
185
100
AcDbEntity
  8
Layer_1
 62
7
100
AcDbSpline
 70
8
 71
3
 72
8
 73
4
 74
0
 40
0
 40
0
 40
0
 40
0
 40
1
 40
1
 40
1
 40
1
 10
-213.030401
 20
77.185552
 30
0.0
 10
-212.875910
 20
77.495017
 30
0.0
 10
-212.769377
 20
77.815498
 30
0.0
 10
-212.589858
 20
78.095279
 30
0.0
  0
SPLINE
  5
186
100
AcDbEntity
  8
Layer_1
 62
7
100
AcDbSpline
 70
8
 71
3
 72
8
 73
4
 74
0
 40
0
 40
0
 40
0
 40
0
 40
1
 40
1
 40
1
 40
1
 10
-212.589858
 20
78.095279
 30
0.0
 10
-212.410339
 20
78.375063
 30
0.0
 10
-212.237650
 20
78.639090
 30
0.0
 10
-212.073431
 20
78.856314
 30
0.0
  0
SPLINE
  5
187
100
AcDbEntity
  8
Layer_1
 62
7
100
AcDbSpline
 70
8
 71
3
 72
8
 73
4
 74
0
 40
0
 40
0
 40
0
 40
0
 40
1
 40
1
 40
1
 40
1
 10
-212.073431
 20
78.856314
 30
0.0
 10
-211.909214
 20
79.073540
 30
0.0
 10
-211.645497
 20
79.276212
 30
0.0
 10
-211.536912
 20
79.398008
 30
0.0
  0
SPLINE
  5
188
100
AcDbEntity
  8
Layer_1
 62
7
100
AcDbSpline
 70
8
 71
3
 72
8
 73
4
 74
0
 40
0
 40
0
 40
0
 40
0
 40
1
 40
1
 40
1
 40
1
 10
-211.536912
 20
79.398008
 30
0.0
 10
-211.428330
 20
79.519804
 30
0.0
 10
-210.914516
 20
79.961326
 30
0.0
 10
-210.821120
 20
80.016916
 30
0.0
  0
SPLINE
  5
189
100
AcDbEntity
  8
Layer_1
 62
7
100
AcDbSpline
 70
8
 71
3
 72
8
 73
4
 74
0
 40
0
 40
0
 40
0
 40
0
 40
1
 40
1
 40
1
 40
1
 10
-210.821120
 20
80.016916
 30
0.0
 10
-210.589532
 20
80.154756
 30
0.0
 10
-210.127099
 20
80.598313
 30
0.0
 10
-208.968394
 20
80.914944
 30
0.0
  0
SPLINE
  5
18a
100
AcDbEntity
  8
Layer_1
 62
7
100
AcDbSpline
 70
8
 71
3
 72
8
 73
4
 74
0
 40
0
 40
0
 40
0
 40
0
 40
1
 40
1
 40
1
 40
1
 10
-208.968394
 20
80.914944
 30
0.0
 10
-208.608636
 20
81.013250
 30
0.0
 10
-208.236668
 20
81.059563
 30
0.0
 10
-207.864546
 20
81.107662
 30
0.0
  0
SPLINE
  5
18b
100
AcDbEntity
  8
Layer_1
 62
7
100
AcDbSpline
 70
8
 71
3
 72
8
 73
4
 74
0
 40
0
 40
0
 40
0
 40
0
 40
1
 40
1
 40
1
 40
1
 10
-207.864546
 20
81.107662
 30
0.0
 10
-207.492422
 20
81.155761
 30
0.0
 10
-207.318830
 20
81.150729
 30
0.0
 10
-206.996916
 20
81.174684
 30
0.0
  0
SPLINE
  5
18c
100
AcDbEntity
  8
Layer_1
 62
7
100
AcDbSpline
 70
8
 71
3
 72
8
 73
4
 74
0
 40
0
 40
0
 40
0
 40
0
 40
1
 40
1
 40
1
 40
1
 10
-206.996916
 20
81.174684
 30
0.0
 10
-206.664885
 20
81.199379
 30
0.0
 10
-206.330894
 20
81.210606
 30
0.0
 10
-206.128050
 20
81.213645
 30
0.0
  0
SPLINE
  5
18d
100
AcDbEntity
  8
Layer_1
 62
7
100
AcDbSpline
 70
8
 71
3
 72
8
 73
4
 74
0
 40
0
 40
0
 40
0
 40
0
 40
1
 40
1
 40
1
 40
1
 10
-206.128050
 20
81.213645
 30
0.0
 10
-205.942463
 20
81.215903
 30
0.0
 10
-205.740960
 20
81.211670
 30
0.0
 10
-205.596182
 20
81.199986
 30
0.0
  0
SPLINE
  5
18e
100
AcDbEntity
  8
Layer_1
 62
7
100
AcDbSpline
 70
8
 71
3
 72
8
 73
4
 74
0
 40
0
 40
0
 40
0
 40
0
 40
1
 40
1
 40
1
 40
1
 10
-205.596182
 20
81.199986
 30
0.0
 10
-205.474378
 20
81.187173
 30
0.0
 10
-205.398545
 20
81.190588
 30
0.0
 10
-205.311835
 20
81.177239
 30
0.0
  0
SPLINE
  5
18f
100
AcDbEntity
  8
Layer_1
 62
7
100
AcDbSpline
 70
8
 71
3
 72
8
 73
4
 74
0
 40
0
 40
0
 40
0
 40
0
 40
1
 40
1
 40
1
 40
1
 10
-205.311835
 20
81.177239
 30
0.0
 10
-205.225752
 20
81.163974
 30
0.0
 10
-205.051465
 20
81.141498
 30
0.0
 10
-204.948985
 20
81.116798
 30
0.0
  0
SPLINE
  5
190
100
AcDbEntity
  8
Layer_1
 62
7
100
AcDbSpline
 70
8
 71
3
 72
8
 73
4
 74
0
 40
0
 40
0
 40
0
 40
0
 40
1
 40
1
 40
1
 40
1
 10
-204.948985
 20
81.116798
 30
0.0
 10
-204.846504
 20
81.092103
 30
0.0
 10
-204.773310
 20
81.048551
 30
0.0
 10
-204.664835
 20
81.022654
 30
0.0
  0
SPLINE
  5
191
100
AcDbEntity
  8
Layer_1
 62
7
100
AcDbSpline
 70
8
 71
3
 72
8
 73
4
 74
0
 40
0
 40
0
 40
0
 40
0
 40
1
 40
1
 40
1
 40
1
 10
-204.664835
 20
81.022654
 30
0.0
 10
-204.230932
 20
80.919064
 30
0.0
 10
-203.876346
 20
80.762716
 30
0.0
 10
-203.825577
 20
80.737336
 30
0.0
  0
SPLINE
  5
192
100
AcDbEntity
  8
Layer_1
 62
7
100
AcDbSpline
 70
8
 71
3
 72
8
 73
4
 74
0
 40
0
 40
0
 40
0
 40
0
 40
1
 40
1
 40
1
 40
1
 10
-203.825577
 20
80.737336
 30
0.0
 10
-203.774805
 20
80.711964
 30
0.0
 10
-203.786311
 20
80.696163
 30
0.0
 10
-203.149135
 20
80.406272
 30
0.0
  0
SPLINE
  5
193
100
AcDbEntity
  8
Layer_1
 62
7
100
AcDbSpline
 70
8
 71
3
 72
8
 73
4
 74
0
 40
0
 40
0
 40
0
 40
0
 40
1
 40
1
 40
1
 40
1
 10
-203.149135
 20
80.406272
 30
0.0
 10
-202.511959
 20
80.116385
 30
0.0
 10
-202.316839
 20
80.031021
 30
0.0
 10
-202.265627
 20
80.006860
 30
0.0
  0
SPLINE
  5
194
100
AcDbEntity
  8
Layer_1
 62
7
100
AcDbSpline
 70
8
 71
3
 72
8
 73
4
 74
0
 40
0
 40
0
 40
0
 40
0
 40
1
 40
1
 40
1
 40
1
 10
-202.265627
 20
80.006860
 30
0.0
 10
-202.252814
 20
80.000821
 30
0.0
 10
-201.738859
 20
79.782395
 30
0.0
 10
-201.666455
 20
79.762072
 30
0.0
  0
SPLINE
  5
195
100
AcDbEntity
  8
Layer_1
 62
7
100
AcDbSpline
 70
8
 71
3
 72
8
 73
4
 74
0
 40
0
 40
0
 40
0
 40
0
 40
1
 40
1
 40
1
 40
1
 10
-201.666455
 20
79.762072
 30
0.0
 10
-201.594048
 20
79.741752
 30
0.0
 10
-201.288472
 20
79.572958
 30
0.0
 10
-201.173486
 20
79.542458
 30
0.0
  0
SPLINE
  5
196
100
AcDbEntity
  8
Layer_1
 62
7
100
AcDbSpline
 70
8
 71
3
 72
8
 73
4
 74
0
 40
0
 40
0
 40
0
 40
0
 40
1
 40
1
 40
1
 40
1
 10
-201.173486
 20
79.542458
 30
0.0
 10
-201.058503
 20
79.511958
 30
0.0
 10
-200.536943
 20
79.310082
 30
0.0
 10
-200.396404
 20
79.273497
 30
0.0
  0
SPLINE
  5
197
100
AcDbEntity
  8
Layer_1
 62
7
100
AcDbSpline
 70
8
 71
3
 72
8
 73
4
 74
0
 40
0
 40
0
 40
0
 40
0
 40
1
 40
1
 40
1
 40
1
 10
-200.396404
 20
79.273497
 30
0.0
 10
-200.255863
 20
79.236910
 30
0.0
 10
-200.111213
 20
79.185080
 30
0.0
 10
-199.962141
 20
79.146503
 30
0.0
  0
SPLINE
  5
198
100
AcDbEntity
  8
Layer_1
 62
7
100
AcDbSpline
 70
8
 71
3
 72
8
 73
4
 74
0
 40
0
 40
0
 40
0
 40
0
 40
1
 40
1
 40
1
 40
1
 10
-199.962141
 20
79.146503
 30
0.0
 10
-199.813068
 20
79.107926
 30
0.0
 10
-199.686037
 20
79.078199
 30
0.0
 10
-199.545459
 20
79.041725
 30
0.0
  0
SPLINE
  5
199
100
AcDbEntity
  8
Layer_1
 62
7
100
AcDbSpline
 70
8
 71
3
 72
8
 73
4
 74
0
 40
0
 40
0
 40
0
 40
0
 40
1
 40
1
 40
1
 40
1
 10
-199.545459
 20
79.041725
 30
0.0
 10
-199.404882
 20
79.005253
 30
0.0
 10
-199.290443
 20
78.979676
 30
0.0
 10
-199.175381
 20
78.949402
 30
0.0
  0
SPLINE
  5
19a
100
AcDbEntity
  8
Layer_1
 62
7
100
AcDbSpline
 70
8
 71
3
 72
8
 73
4
 74
0
 40
0
 40
0
 40
0
 40
0
 40
1
 40
1
 40
1
 40
1
 10
-199.175381
 20
78.949402
 30
0.0
 10
-199.060316
 20
78.919128
 30
0.0
 10
-198.971089
 20
78.910613
 30
0.0
 10
-198.898566
 20
78.890632
 30
0.0
  0
SPLINE
  5
19b
100
AcDbEntity
  8
Layer_1
 62
7
100
AcDbSpline
 70
8
 71
3
 72
8
 73
4
 74
0
 40
0
 40
0
 40
0
 40
0
 40
1
 40
1
 40
1
 40
1
 10
-198.898566
 20
78.890632
 30
0.0
 10
-198.826044
 20
78.870650
 30
0.0
 10
-198.756998
 20
78.871187
 30
0.0
 10
-198.667968
 20
78.854552
 30
0.0
  0
SPLINE
  5
19c
100
AcDbEntity
  8
Layer_1
 62
7
100
AcDbSpline
 70
8
 71
3
 72
8
 73
4
 74
0
 40
0
 40
0
 40
0
 40
0
 40
1
 40
1
 40
1
 40
1
 10
-198.667968
 20
78.854552
 30
0.0
 10
-198.537751
 20
78.833047
 30
0.0
 10
-198.455382
 20
78.832962
 30
0.0
 10
-198.362085
 20
78.816808
 30
0.0
  0
SPLINE
  5
19d
100
AcDbEntity
  8
Layer_1
 62
7
100
AcDbSpline
 70
8
 71
3
 72
8
 73
4
 74
0
 40
0
 40
0
 40
0
 40
0
 40
1
 40
1
 40
1
 40
1
 10
-198.362085
 20
78.816808
 30
0.0
 10
-198.269550
 20
78.807720
 30
0.0
 10
-198.156785
 20
78.796347
 30
0.0
 10
-198.043128
 20
78.789799
 30
0.0
  0
SPLINE
  5
19e
100
AcDbEntity
  8
Layer_1
 62
7
100
AcDbSpline
 70
8
 71
3
 72
8
 73
4
 74
0
 40
0
 40
0
 40
0
 40
0
 40
1
 40
1
 40
1
 40
1
 10
-198.043128
 20
78.789799
 30
0.0
 10
-197.929308
 20
78.783224
 30
0.0
 10
-197.835212
 20
78.774192
 30
0.0
 10
-197.714647
 20
78.777184
 30
0.0
  0
SPLINE
  5
19f
100
AcDbEntity
  8
Layer_1
 62
7
100
AcDbSpline
 70
8
 71
3
 72
8
 73
4
 74
0
 40
0
 40
0
 40
0
 40
0
 40
1
 40
1
 40
1
 40
1
 10
-197.714647
 20
78.777184
 30
0.0
 10
-197.594082
 20
78.780176
 30
0.0
 10
-197.427204
 20
78.792001
 30
0.0
 10
-197.313330
 20
78.794512
 30
0.0
  0
SPLINE
  5
1a0
100
AcDbEntity
  8
Layer_1
 62
7
100
AcDbSpline
 70
8
 71
3
 72
8
 73
4
 74
0
 40
0
 40
0
 40
0
 40
0
 40
1
 40
1
 40
1
 40
1
 10
-197.313330
 20
78.794512
 30
0.0
 10
-197.199459
 20
78.797052
 30
0.0
 10
-197.084431
 20
78.809132
 30
0.0
 10
-196.991935
 20
78.824383
 30
0.0
  0
SPLINE
  5
1a1
100
AcDbEntity
  8
Layer_1
 62
7
100
AcDbSpline
 70
8
 71
3
 72
8
 73
4
 74
0
 40
0
 40
0
 40
0
 40
0
 40
1
 40
1
 40
1
 40
1
 10
-196.991935
 20
78.824383
 30
0.0
 10
-196.891577
 20
78.840949
 30
0.0
 10
-196.852515
 20
78.846114
 30
0.0
 10
-196.792983
 20
78.854967
 30
0.0
  0
SPLINE
  5
1a2
100
AcDbEntity
  8
Layer_1
 62
7
100
AcDbSpline
 70
8
 71
3
 72
8
 73
4
 74
0
 40
0
 40
0
 40
0
 40
0
 40
1
 40
1
 40
1
 40
1
 10
-196.792983
 20
78.854967
 30
0.0
 10
-196.728396
 20
78.864591
 30
0.0
 10
-196.703899
 20
78.874638
 30
0.0
 10
-196.556142
 20
78.918301
 30
0.0
  0
SPLINE
  5
1a3
100
AcDbEntity
  8
Layer_1
 62
7
100
AcDbSpline
 70
8
 71
3
 72
8
 73
4
 74
0
 40
0
 40
0
 40
0
 40
0
 40
1
 40
1
 40
1
 40
1
 10
-196.556142
 20
78.918301
 30
0.0
 10
-196.429940
 20
78.955594
 30
0.0
 10
-196.366308
 20
78.961280
 30
0.0
 10
-196.241659
 20
79.015591
 30
0.0
  0
SPLINE
  5
1a4
100
AcDbEntity
  8
Layer_1
 62
7
100
AcDbSpline
 70
8
 71
3
 72
8
 73
4
 74
0
 40
0
 40
0
 40
0
 40
0
 40
1
 40
1
 40
1
 40
1
 10
-196.241659
 20
79.015591
 30
0.0
 10
-196.126862
 20
79.065610
 30
0.0
 10
-196.123698
 20
79.053923
 30
0.0
 10
-195.921181
 20
79.154605
 30
0.0
  0
SPLINE
  5
1a5
100
AcDbEntity
  8
Layer_1
 62
7
100
AcDbSpline
 70
8
 71
3
 72
8
 73
4
 74
0
 40
0
 40
0
 40
0
 40
0
 40
1
 40
1
 40
1
 40
1
 10
-195.921181
 20
79.154605
 30
0.0
 10
-195.718664
 20
79.255288
 30
0.0
 10
-195.444514
 20
79.455310
 30
0.0
 10
-195.233152
 20
79.639508
 30
0.0
  0
SPLINE
  5
1a6
100
AcDbEntity
  8
Layer_1
 62
7
100
AcDbSpline
 70
8
 71
3
 72
8
 73
4
 74
0
 40
0
 40
0
 40
0
 40
0
 40
1
 40
1
 40
1
 40
1
 10
-195.233152
 20
79.639508
 30
0.0
 10
-195.042525
 20
79.805633
 30
0.0
 10
-194.889075
 20
80.025097
 30
0.0
 10
-194.721203
 20
80.271895
 30
0.0
  0
SPLINE
  5
1a7
100
AcDbEntity
  8
Layer_1
 62
7
100
AcDbSpline
 70
8
 71
3
 72
8
 73
4
 74
0
 40
0
 40
0
 40
0
 40
0
 40
1
 40
1
 40
1
 40
1
 10
-194.721203
 20
80.271895
 30
0.0
 10
-194.545955
 20
80.529536
 30
0.0
 10
-194.327337
 20
80.946189
 30
0.0
 10
-194.077404
 20
81.073525
 30
0.0
  0
SPLINE
  5
1a8
100
AcDbEntity
  8
Layer_1
 62
7
100
AcDbSpline
 70
8
 71
3
 72
8
 73
4
 74
0
 40
0
 40
0
 40
0
 40
0
 40
1
 40
1
 40
1
 40
1
 10
-194.077404
 20
81.073525
 30
0.0
 10
-193.827468
 20
81.200861
 30
0.0
 10
-193.585900
 20
81.196613
 30
0.0
 10
-193.360046
 20
81.212937
 30
0.0
  0
SPLINE
  5
1a9
100
AcDbEntity
  8
Layer_1
 62
7
100
AcDbSpline
 70
8
 71
3
 72
8
 73
4
 74
0
 40
0
 40
0
 40
0
 40
0
 40
1
 40
1
 40
1
 40
1
 10
-193.360046
 20
81.212937
 30
0.0
 10
-193.169873
 20
81.226681
 30
0.0
 10
-192.782004
 20
81.208901
 30
0.0
 10
-192.648767
 20
81.179787
 30
0.0
  0
SPLINE
  5
1aa
100
AcDbEntity
  8
Layer_1
 62
7
100
AcDbSpline
 70
8
 71
3
 72
8
 73
4
 74
0
 40
0
 40
0
 40
0
 40
0
 40
1
 40
1
 40
1
 40
1
 10
-192.648767
 20
81.179787
 30
0.0
 10
-192.510929
 20
81.149671
 30
0.0
 10
-192.431269
 20
81.093608
 30
0.0
 10
-192.334955
 20
80.993749
 30
0.0
  0
SPLINE
  5
1ab
100
AcDbEntity
  8
Layer_1
 62
7
100
AcDbSpline
 70
8
 71
3
 72
8
 73
4
 74
0
 40
0
 40
0
 40
0
 40
0
 40
1
 40
1
 40
1
 40
1
 10
-192.334955
 20
80.993749
 30
0.0
 10
-192.247483
 20
80.903057
 30
0.0
 10
-192.254505
 20
80.619641
 30
0.0
 10
-192.318050
 20
80.419765
 30
0.0
  0
SPLINE
  5
1ac
100
AcDbEntity
  8
Layer_1
 62
7
100
AcDbSpline
 70
8
 71
3
 72
8
 73
4
 74
0
 40
0
 40
0
 40
0
 40
0
 40
1
 40
1
 40
1
 40
1
 10
-192.318050
 20
80.419765
 30
0.0
 10
-192.380320
 20
80.223897
 30
0.0
 10
-192.476337
 20
79.866878
 30
0.0
 10
-192.639374
 20
79.560269
 30
0.0
  0
SPLINE
  5
1ad
100
AcDbEntity
  8
Layer_1
 62
7
100
AcDbSpline
 70
8
 71
3
 72
8
 73
4
 74
0
 40
0
 40
0
 40
0
 40
0
 40
1
 40
1
 40
1
 40
1
 10
-192.639374
 20
79.560269
 30
0.0
 10
-192.806470
 20
79.246031
 30
0.0
 10
-193.086869
 20
78.570837
 30
0.0
 10
-193.315833
 20
78.202726
 30
0.0
  0
SPLINE
  5
1ae
100
AcDbEntity
  8
Layer_1
 62
7
100
AcDbSpline
 70
8
 71
3
 72
8
 73
4
 74
0
 40
0
 40
0
 40
0
 40
0
 40
1
 40
1
 40
1
 40
1
 10
-193.315833
 20
78.202726
 30
0.0
 10
-193.551463
 20
77.823894
 30
0.0
 10
-193.722202
 20
77.531255
 30
0.0
 10
-194.052105
 20
77.146877
 30
0.0
  0
SPLINE
  5
1af
100
AcDbEntity
  8
Layer_1
 62
7
100
AcDbSpline
 70
8
 71
3
 72
8
 73
4
 74
0
 40
0
 40
0
 40
0
 40
0
 40
1
 40
1
 40
1
 40
1
 10
-194.052105
 20
77.146877
 30
0.0
 10
-194.362214
 20
76.785564
 30
0.0
 10
-194.512240
 20
76.610573
 30
0.0
 10
-194.845584
 20
76.320640
 30
0.0
  0
SPLINE
  5
1b0
100
AcDbEntity
  8
Layer_1
 62
7
100
AcDbSpline
 70
8
 71
3
 72
8
 73
4
 74
0
 40
0
 40
0
 40
0
 40
0
 40
1
 40
1
 40
1
 40
1
 10
-194.845584
 20
76.320640
 30
0.0
 10
-195.182041
 20
76.028001
 30
0.0
 10
-195.440342
 20
75.877656
 30
0.0
 10
-195.703012
 20
75.724282
 30
0.0
  0
SPLINE
  5
1b1
100
AcDbEntity
  8
Layer_1
 62
7
100
AcDbSpline
 70
8
 71
3
 72
8
 73
4
 74
0
 40
0
 40
0
 40
0
 40
0
 40
1
 40
1
 40
1
 40
1
 10
-195.703012
 20
75.724282
 30
0.0
 10
-196.009974
 20
75.545045
 30
0.0
 10
-196.110403
 20
75.511769
 30
0.0
 10
-196.267259
 20
75.435727
 30
0.0
  0
SPLINE
  5
1b2
100
AcDbEntity
  8
Layer_1
 62
7
100
AcDbSpline
 70
8
 71
3
 72
8
 73
4
 74
0
 40
0
 40
0
 40
0
 40
0
 40
1
 40
1
 40
1
 40
1
 10
-196.267259
 20
75.435727
 30
0.0
 10
-196.451601
 20
75.346361
 30
0.0
 10
-196.794227
 20
75.232682
 30
0.0
 10
-196.945137
 20
75.168716
 30
0.0
  0
SPLINE
  5
1b3
100
AcDbEntity
  8
Layer_1
 62
7
100
AcDbSpline
 70
8
 71
3
 72
8
 73
4
 74
0
 40
0
 40
0
 40
0
 40
0
 40
1
 40
1
 40
1
 40
1
 10
-196.945137
 20
75.168716
 30
0.0
 10
-197.079373
 20
75.111817
 30
0.0
 10
-197.105555
 20
75.117450
 30
0.0
 10
-197.184778
 20
75.100447
 30
0.0
  0
SPLINE
  5
1b4
100
AcDbEntity
  8
Layer_1
 62
7
100
AcDbSpline
 70
8
 71
3
 72
8
 73
4
 74
0
 40
0
 40
0
 40
0
 40
0
 40
1
 40
1
 40
1
 40
1
 10
-197.184778
 20
75.100447
 30
0.0
 10
-197.282339
 20
75.079506
 30
0.0
 10
-197.416682
 20
75.035013
 30
0.0
 10
-197.587670
 20
74.997842
 30
0.0
  0
SPLINE
  5
1b5
100
AcDbEntity
  8
Layer_1
 62
7
100
AcDbSpline
 70
8
 71
3
 72
8
 73
4
 74
0
 40
0
 40
0
 40
0
 40
0
 40
1
 40
1
 40
1
 40
1
 10
-197.587670
 20
74.997842
 30
0.0
 10
-197.764202
 20
74.959462
 30
0.0
 10
-198.085058
 20
74.899781
 30
0.0
 10
-198.304539
 20
74.874903
 30
0.0
  0
SPLINE
  5
1b6
100
AcDbEntity
  8
Layer_1
 62
7
100
AcDbSpline
 70
8
 71
3
 72
8
 73
4
 74
0
 40
0
 40
0
 40
0
 40
0
 40
1
 40
1
 40
1
 40
1
 10
-198.304539
 20
74.874903
 30
0.0
 10
-198.532256
 20
74.849080
 30
0.0
 10
-198.727018
 20
74.829234
 30
0.0
 10
-198.971989
 20
74.816319
 30
0.0
  0
SPLINE
  5
1b7
100
AcDbEntity
  8
Layer_1
 62
7
100
AcDbSpline
 70
8
 71
3
 72
8
 73
4
 74
0
 40
0
 40
0
 40
0
 40
0
 40
1
 40
1
 40
1
 40
1
 10
-198.971989
 20
74.816319
 30
0.0
 10
-199.216964
 20
74.803394
 30
0.0
 10
-199.481110
 20
74.808671
 30
0.0
 10
-199.708302
 20
74.813779
 30
0.0
  0
SPLINE
  5
1b8
100
AcDbEntity
  8
Layer_1
 62
7
100
AcDbSpline
 70
8
 71
3
 72
8
 73
4
 74
0
 40
0
 40
0
 40
0
 40
0
 40
1
 40
1
 40
1
 40
1
 10
-199.708302
 20
74.813779
 30
0.0
 10
-199.937319
 20
74.818803
 30
0.0
 10
-200.151159
 20
74.817561
 30
0.0
 10
-200.321971
 20
74.829245
 30
0.0
  0
SPLINE
  5
1b9
100
AcDbEntity
  8
Layer_1
 62
7
100
AcDbSpline
 70
8
 71
3
 72
8
 73
4
 74
0
 40
0
 40
0
 40
0
 40
0
 40
1
 40
1
 40
1
 40
1
 10
-200.321971
 20
74.829245
 30
0.0
 10
-200.502001
 20
74.841578
 30
0.0
 10
-200.666584
 20
74.869922
 30
0.0
 10
-200.756455
 20
74.886452
 30
0.0
  0
SPLINE
  5
1ba
100
AcDbEntity
  8
Layer_1
 62
7
100
AcDbSpline
 70
8
 71
3
 72
8
 73
4
 74
0
 40
0
 40
0
 40
0
 40
0
 40
1
 40
1
 40
1
 40
1
 10
-200.756455
 20
74.886452
 30
0.0
 10
-200.854279
 20
74.904429
 30
0.0
 10
-200.889201
 20
74.901184
 30
0.0
 10
-200.875127
 20
74.898869
 30
0.0
  0
SPLINE
  5
1bb
100
AcDbEntity
  8
Layer_1
 62
7
100
AcDbSpline
 70
8
 71
3
 72
8
 73
4
 74
0
 40
0
 40
0
 40
0
 40
0
 40
1
 40
1
 40
1
 40
1
 10
-200.875127
 20
74.898869
 30
0.0
 10
-200.871006
 20
74.557623
 30
0.0
 10
-199.774483
 20
68.773259
 30
0.0
 10
-199.689342
 20
68.688115
 30
0.0
  0
SPLINE
  5
1bc
100
AcDbEntity
  8
Layer_1
 62
7
100
AcDbSpline
 70
8
 71
3
 72
8
 73
4
 74
0
 40
0
 40
0
 40
0
 40
0
 40
1
 40
1
 40
1
 40
1
 10
-199.689342
 20
68.688115
 30
0.0
 10
-199.472996
 20
68.471769
 30
0.0
 10
-196.287026
 20
67.187700
 30
0.0
 10
-195.966585
 20
67.187700
 30
0.0
  0
SPLINE
  5
1bd
100
AcDbEntity
  8
Layer_1
 62
7
100
AcDbSpline
 70
8
 71
3
 72
8
 73
4
 74
0
 40
0
 40
0
 40
0
 40
0
 40
1
 40
1
 40
1
 40
1
 10
-195.966585
 20
67.187700
 30
0.0
 10
-195.789519
 20
67.187700
 30
0.0
 10
-194.720374
 20
67.595427
 30
0.0
 10
-193.498312
 20
68.417142
 30
0.0
  0
LINE
  5
1be
100
AcDbEntity
  8
Layer_1
 62
7
100
AcDbLine
 10
-193.498312
 20
68.417142
 30
0.0
 11
-191.276376
 21
69.911167
 31
0.0
  0
LINE
  5
1bf
100
AcDbEntity
  8
Layer_1
 62
7
100
AcDbLine
 10
-191.276376
 20
69.911167
 30
0.0
 11
-189.315098
 21
67.949889
 31
0.0
  0
LINE
  5
1c0
100
AcDbEntity
  8
Layer_1
 62
7
100
AcDbLine
 10
-189.315098
 20
67.949889
 30
0.0
 11
-187.353821
 21
65.988611
 31
0.0
  0
LINE
  5
1c1
100
AcDbEntity
  8
Layer_1
 62
7
100
AcDbLine
 10
-187.353821
 20
65.988611
 30
0.0
 11
-188.871301
 21
63.622491
 31
0.0
  0
LINE
  5
1c2
100
AcDbEntity
  8
Layer_1
 62
7
100
AcDbLine
 10
-188.871301
 20
63.622491
 30
0.0
 11
-190.388779
 21
61.256371
 31
0.0
  0
LINE
  5
1c3
100
AcDbEntity
  8
Layer_1
 62
7
100
AcDbLine
 10
-190.388779
 20
61.256371
 30
0.0
 11
-189.614189
 21
59.384933
 31
0.0
  0
SPLINE
  5
1c4
100
AcDbEntity
  8
Layer_1
 62
7
100
AcDbSpline
 70
8
 71
3
 72
8
 73
4
 74
0
 40
0
 40
0
 40
0
 40
0
 40
1
 40
1
 40
1
 40
1
 10
-189.614189
 20
59.384933
 30
0.0
 10
-189.188163
 20
58.355643
 30
0.0
 10
-188.802730
 20
57.473185
 30
0.0
 10
-188.757670
 20
57.423915
 30
0.0
  0
SPLINE
  5
1c5
100
AcDbEntity
  8
Layer_1
 62
7
100
AcDbSpline
 70
8
 71
3
 72
8
 73
4
 74
0
 40
0
 40
0
 40
0
 40
0
 40
1
 40
1
 40
1
 40
1
 10
-188.757670
 20
57.423915
 30
0.0
 10
-188.712608
 20
57.374647
 30
0.0
 10
-187.558561
 20
57.133675
 30
0.0
 10
-186.193120
 20
56.888424
 30
0.0
  0
SPLINE
  5
1c6
100
AcDbEntity
  8
Layer_1
 62
7
100
AcDbSpline
 70
8
 71
3
 72
8
 73
4
 74
0
 40
0
 40
0
 40
0
 40
0
 40
1
 40
1
 40
1
 40
1
 10
-186.193120
 20
56.888424
 30
0.0
 10
-184.827672
 20
56.643172
 30
0.0
 10
-183.660291
 20
56.392314
 30
0.0
 10
-183.598936
 20
56.330956
 30
0.0
  0
SPLINE
  5
1c7
100
AcDbEntity
  8
Layer_1
 62
7
100
AcDbSpline
 70
8
 71
3
 72
8
 73
4
 74
0
 40
0
 40
0
 40
0
 40
0
 40
1
 40
1
 40
1
 40
1
 10
-183.598936
 20
56.330956
 30
0.0
 10
-183.537581
 20
56.269601
 30
0.0
 10
-183.423106
 20
55.001125
 30
0.0
 10
-183.344558
 20
53.512123
 30
0.0
  0
SPLINE
  5
1c8
100
AcDbEntity
  8
Layer_1
 62
7
100
AcDbSpline
 70
8
 71
3
 72
8
 73
4
 74
0
 40
0
 40
0
 40
0
 40
0
 40
1
 40
1
 40
1
 40
1
 10
-183.344558
 20
53.512123
 30
0.0
 10
-183.228702
 20
51.315985
 30
0.0
 10
-183.266266
 20
50.784313
 30
0.0
 10
-183.543527
 20
50.696090
 30
0.0
  0
SPLINE
  5
1c9
100
AcDbEntity
  8
Layer_1
 62
7
100
AcDbSpline
 70
8
 71
3
 72
8
 73
4
 74
0
 40
0
 40
0
 40
0
 40
0
 40
1
 40
1
 40
1
 40
1
 10
-183.543527
 20
50.696090
 30
0.0
 10
-183.731512
 20
50.636276
 30
0.0
 10
-184.930153
 20
50.406888
 30
0.0
 10
-186.207174
 20
50.186340
 30
0.0
  0
LINE
  5
1ca
100
AcDbEntity
  8
Layer_1
 62
7
100
AcDbLine
 10
-186.207174
 20
50.186340
 30
0.0
 11
-188.529028
 21
49.785347
 31
0.0
  0
LINE
  5
1cb
100
AcDbEntity
  8
Layer_1
 62
7
100
AcDbLine
 10
-188.529028
 20
49.785347
 30
0.0
 11
-189.438475
 21
47.702683
 31
0.0
  0
LINE
  5
1cc
100
AcDbEntity
  8
Layer_1
 62
7
100
AcDbLine
 10
-189.438475
 20
47.702683
 30
0.0
 11
-190.347919
 21
45.620021
 31
0.0
  0
LINE
  5
1cd
100
AcDbEntity
  8
Layer_1
 62
7
100
AcDbLine
 10
-190.347919
 20
45.620021
 30
0.0
 11
-188.860966
 21
43.408610
 31
0.0
  0
LINE
  5
1ce
100
AcDbEntity
  8
Layer_1
 62
7
100
AcDbLine
 10
-188.860966
 20
43.408610
 30
0.0
 11
-187.374022
 21
41.197198
 31
0.0
  0
LINE
  5
1cf
100
AcDbEntity
  8
Layer_1
 62
7
100
AcDbLine
 10
-187.374022
 20
41.197198
 30
0.0
 11
-189.323861
 21
39.247356
 31
0.0
  0
SPLINE
  5
1d0
100
AcDbEntity
  8
Layer_1
 62
7
100
AcDbSpline
 70
8
 71
3
 72
8
 73
4
 74
0
 40
0
 40
0
 40
0
 40
0
 40
1
 40
1
 40
1
 40
1
 10
-189.323861
 20
39.247356
 30
0.0
 10
-190.986021
 20
37.585197
 30
0.0
 10
-191.342453
 20
37.334304
 30
0.0
 10
-191.739647
 20
37.546874
 30
0.0
  0
SPLINE
  5
1d1
100
AcDbEntity
  8
Layer_1
 62
7
100
AcDbSpline
 70
8
 71
3
 72
8
 73
4
 74
0
 40
0
 40
0
 40
0
 40
0
 40
1
 40
1
 40
1
 40
1
 10
-191.739647
 20
37.546874
 30
0.0
 10
-192.128800
 20
37.755145
 30
0.0
 10
-192.338793
 20
37.637575
 30
0.0
 10
-193.013892
 20
36.833456
 30
0.0
  0
LINE
  5
1d2
100
AcDbEntity
  8
Layer_1
 62
7
100
AcDbLine
 10
-193.013892
 20
36.833456
 30
0.0
 11
-193.822193
 21
35.870677
 31
0.0
  0
LINE
  5
1d3
100
AcDbEntity
  8
Layer_1
 62
7
100
AcDbLine
 10
-193.822193
 20
35.870677
 30
0.0
 11
-191.513731
 21
32.638756
 31
0.0
  0
SPLINE
  5
1d4
100
AcDbEntity
  8
Layer_1
 62
7
100
AcDbSpline
 70
8
 71
3
 72
8
 73
4
 74
0
 40
0
 40
0
 40
0
 40
0
 40
1
 40
1
 40
1
 40
1
 10
-191.513731
 20
32.638756
 30
0.0
 10
-185.882111
 20
24.754322
 30
0.0
 10
-181.458379
 20
19.779433
 30
0.0
 10
-178.560775
 20
18.071991
 30
0.0
  0
SPLINE
  5
1d5
100
AcDbEntity
  8
Layer_1
 62
7
100
AcDbSpline
 70
8
 71
3
 72
8
 73
4
 74
0
 40
0
 40
0
 40
0
 40
0
 40
1
 40
1
 40
1
 40
1
 10
-178.560775
 20
18.071991
 30
0.0
 10
-174.300837
 20
15.561777
 30
0.0
 10
-170.019020
 20
15.419960
 30
0.0
 10
-166.609663
 20
17.676169
 30
0.0
  0
SPLINE
  5
1d6
100
AcDbEntity
  8
Layer_1
 62
7
100
AcDbSpline
 70
8
 71
3
 72
8
 73
4
 74
0
 40
0
 40
0
 40
0
 40
0
 40
1
 40
1
 40
1
 40
1
 10
-166.609663
 20
17.676169
 30
0.0
 10
-165.841161
 20
18.184739
 30
0.0
 10
-165.677094
 20
18.435702
 30
0.0
 10
-165.677094
 20
19.102661
 30
0.0
  0
SPLINE
  5
1d7
100
AcDbEntity
  8
Layer_1
 62
7
100
AcDbSpline
 70
8
 71
3
 72
8
 73
4
 74
0
 40
0
 40
0
 40
0
 40
0
 40
1
 40
1
 40
1
 40
1
 10
-165.677094
 20
19.102661
 30
0.0
 10
-165.677094
 20
20.916887
 30
0.0
 10
-163.291077
 20
21.782003
 30
0.0
 10
-162.101538
 20
20.399080
 30
0.0
  0
SPLINE
  5
1d8
100
AcDbEntity
  8
Layer_1
 62
7
100
AcDbSpline
 70
8
 71
3
 72
8
 73
4
 74
0
 40
0
 40
0
 40
0
 40
0
 40
1
 40
1
 40
1
 40
1
 10
-162.101538
 20
20.399080
 30
0.0
 10
-161.452918
 20
19.645013
 30
0.0
 10
-161.400137
 20
19.310487
 30
0.0
 10
-161.793552
 20
18.447031
 30
0.0
  0
SPLINE
  5
1d9
100
AcDbEntity
  8
Layer_1
 62
7
100
AcDbSpline
 70
8
 71
3
 72
8
 73
4
 74
0
 40
0
 40
0
 40
0
 40
0
 40
1
 40
1
 40
1
 40
1
 10
-161.793552
 20
18.447031
 30
0.0
 10
-162.082624
 20
17.812589
 30
0.0
 10
-162.944415
 20
17.308755
 30
0.0
 10
-163.740538
 20
17.308755
 30
0.0
  0
SPLINE
  5
1da
100
AcDbEntity
  8
Layer_1
 62
7
100
AcDbSpline
 70
8
 71
3
 72
8
 73
4
 74
0
 40
0
 40
0
 40
0
 40
0
 40
1
 40
1
 40
1
 40
1
 10
-163.740538
 20
17.308755
 30
0.0
 10
-164.007013
 20
17.308755
 30
0.0
 10
-164.771488
 20
16.876814
 30
0.0
 10
-165.439367
 20
16.348883
 30
0.0
  0
SPLINE
  5
1db
100
AcDbEntity
  8
Layer_1
 62
7
100
AcDbSpline
 70
8
 71
3
 72
8
 73
4
 74
0
 40
0
 40
0
 40
0
 40
0
 40
1
 40
1
 40
1
 40
1
 10
-165.439367
 20
16.348883
 30
0.0
 10
-167.566309
 20
14.667632
 30
0.0
 10
-168.959358
 20
14.270743
 30
0.0
 10
-172.764859
 20
14.261712
 30
0.0
  0
SPLINE
  5
1dc
100
AcDbEntity
  8
Layer_1
 62
7
100
AcDbSpline
 70
8
 71
3
 72
8
 73
4
 74
0
 40
0
 40
0
 40
0
 40
0
 40
1
 40
1
 40
1
 40
1
 10
-172.764859
 20
14.261712
 30
0.0
 10
-176.500663
 20
14.252963
 30
0.0
 10
-179.208021
 20
14.745779
 30
0.0
 10
-181.141226
 20
15.786717
 30
0.0
  0
SPLINE
  5
1dd
100
AcDbEntity
  8
Layer_1
 62
7
100
AcDbSpline
 70
8
 71
3
 72
8
 73
4
 74
0
 40
0
 40
0
 40
0
 40
0
 40
1
 40
1
 40
1
 40
1
 10
-181.141226
 20
15.786717
 30
0.0
 10
-182.625373
 20
16.585871
 30
0.0
 10
-185.881876
 20
19.966303
 30
0.0
 10
-187.904986
 20
22.807883
 30
0.0
  0
SPLINE
  5
1de
100
AcDbEntity
  8
Layer_1
 62
7
100
AcDbSpline
 70
8
 71
3
 72
8
 73
4
 74
0
 40
0
 40
0
 40
0
 40
0
 40
1
 40
1
 40
1
 40
1
 10
-187.904986
 20
22.807883
 30
0.0
 10
-188.766331
 20
24.017694
 30
0.0
 10
-189.506569
 20
25.053362
 30
0.0
 10
-189.549961
 20
25.109372
 30
0.0
  0
SPLINE
  5
1df
100
AcDbEntity
  8
Layer_1
 62
7
100
AcDbSpline
 70
8
 71
3
 72
8
 73
4
 74
0
 40
0
 40
0
 40
0
 40
0
 40
1
 40
1
 40
1
 40
1
 10
-189.549961
 20
25.109372
 30
0.0
 10
-189.593353
 20
25.165381
 30
0.0
 10
-189.692009
 20
25.148056
 30
0.0
 10
-189.769197
 20
25.070868
 30
0.0
  0
SPLINE
  5
1e0
100
AcDbEntity
  8
Layer_1
 62
7
100
AcDbSpline
 70
8
 71
3
 72
8
 73
4
 74
0
 40
0
 40
0
 40
0
 40
0
 40
1
 40
1
 40
1
 40
1
 10
-189.769197
 20
25.070868
 30
0.0
 10
-189.921312
 20
24.918747
 30
0.0
 10
-187.465518
 20
20.309192
 30
0.0
 10
-186.042712
 20
18.076208
 30
0.0
  0
SPLINE
  5
1e1
100
AcDbEntity
  8
Layer_1
 62
7
100
AcDbSpline
 70
8
 71
3
 72
8
 73
4
 74
0
 40
0
 40
0
 40
0
 40
0
 40
1
 40
1
 40
1
 40
1
 10
-186.042712
 20
18.076208
 30
0.0
 10
-183.518875
 20
14.115238
 30
0.0
 10
-182.502866
 20
13.503860
 30
0.0
 10
-176.675350
 20
12.439488
 30
0.0
  0
SPLINE
  5
1e2
100
AcDbEntity
  8
Layer_1
 62
7
100
AcDbSpline
 70
8
 71
3
 72
8
 73
4
 74
0
 40
0
 40
0
 40
0
 40
0
 40
1
 40
1
 40
1
 40
1
 10
-176.675350
 20
12.439488
 30
0.0
 10
-171.782514
 20
11.545831
 30
0.0
 10
-170.539831
 20
11.187776
 30
0.0
 10
-169.049073
 20
10.242162
 30
0.0
  0
SPLINE
  5
1e3
100
AcDbEntity
  8
Layer_1
 62
7
100
AcDbSpline
 70
8
 71
3
 72
8
 73
4
 74
0
 40
0
 40
0
 40
0
 40
0
 40
1
 40
1
 40
1
 40
1
 10
-169.049073
 20
10.242162
 30
0.0
 10
-166.965557
 20
8.920572
 30
0.0
 10
-166.387235
 20
6.796765
 30
0.0
 10
-167.479297
 20
4.477462
 30
0.0
  0
SPLINE
  5
1e4
100
AcDbEntity
  8
Layer_1
 62
7
100
AcDbSpline
 70
8
 71
3
 72
8
 73
4
 74
0
 40
0
 40
0
 40
0
 40
0
 40
1
 40
1
 40
1
 40
1
 10
-167.479297
 20
4.477462
 30
0.0
 10
-168.231958
 20
2.878956
 30
0.0
 10
-169.087698
 20
1.996729
 30
0.0
 10
-170.485127
 20
1.378578
 30
0.0
  0
SPLINE
  5
1e5
100
AcDbEntity
  8
Layer_1
 62
7
100
AcDbSpline
 70
8
 71
3
 72
8
 73
4
 74
0
 40
0
 40
0
 40
0
 40
0
 40
1
 40
1
 40
1
 40
1
 10
-170.485127
 20
1.378578
 30
0.0
 10
-172.862229
 20
0.327074
 30
0.0
 10
-175.490324
 20
1.354024
 30
0.0
 10
-176.594533
 20
3.765980
 30
0.0
  0
SPLINE
  5
1e6
100
AcDbEntity
  8
Layer_1
 62
7
100
AcDbSpline
 70
8
 71
3
 72
8
 73
4
 74
0
 40
0
 40
0
 40
0
 40
0
 40
1
 40
1
 40
1
 40
1
 10
-176.594533
 20
3.765980
 30
0.0
 10
-176.973696
 20
4.594161
 30
0.0
 10
-177.454935
 20
5.226283
 30
0.0
 10
-177.869509
 20
5.440659
 30
0.0
  0
SPLINE
  5
1e7
100
AcDbEntity
  8
Layer_1
 62
7
100
AcDbSpline
 70
8
 71
3
 72
8
 73
4
 74
0
 40
0
 40
0
 40
0
 40
0
 40
1
 40
1
 40
1
 40
1
 10
-177.869509
 20
5.440659
 30
0.0
 10
-179.218559
 20
6.138284
 30
0.0
 10
-179.336813
 20
7.743366
 30
0.0
 10
-178.102830
 20
8.607700
 30
0.0
  0
SPLINE
  5
1e8
100
AcDbEntity
  8
Layer_1
 62
7
100
AcDbSpline
 70
8
 71
3
 72
8
 73
4
 74
0
 40
0
 40
0
 40
0
 40
0
 40
1
 40
1
 40
1
 40
1
 10
-178.102830
 20
8.607700
 30
0.0
 10
-177.233656
 20
9.216482
 30
0.0
 10
-176.246968
 20
9.096989
 30
0.0
 10
-175.434523
 20
8.284556
 30
0.0
  0
SPLINE
  5
1e9
100
AcDbEntity
  8
Layer_1
 62
7
100
AcDbSpline
 70
8
 71
3
 72
8
 73
4
 74
0
 40
0
 40
0
 40
0
 40
0
 40
1
 40
1
 40
1
 40
1
 10
-175.434523
 20
8.284556
 30
0.0
 10
-174.599871
 20
7.449883
 30
0.0
 10
-174.537110
 20
6.853463
 30
0.0
 10
-175.195811
 20
6.016053
 30
0.0
  0
SPLINE
  5
1ea
100
AcDbEntity
  8
Layer_1
 62
7
100
AcDbSpline
 70
8
 71
3
 72
8
 73
4
 74
0
 40
0
 40
0
 40
0
 40
0
 40
1
 40
1
 40
1
 40
1
 10
-175.195811
 20
6.016053
 30
0.0
 10
-175.669005
 20
5.414497
 30
0.0
 10
-175.668683
 20
5.407215
 30
0.0
 10
-175.134710
 20
4.639373
 30
0.0
  0
SPLINE
  5
1eb
100
AcDbEntity
  8
Layer_1
 62
7
100
AcDbSpline
 70
8
 71
3
 72
8
 73
4
 74
0
 40
0
 40
0
 40
0
 40
0
 40
1
 40
1
 40
1
 40
1
 10
-175.134710
 20
4.639373
 30
0.0
 10
-173.532078
 20
2.334803
 30
0.0
 10
-169.587585
 20
3.879462
 30
0.0
 10
-169.587585
 20
6.811610
 30
0.0
  0
SPLINE
  5
1ec
100
AcDbEntity
  8
Layer_1
 62
7
100
AcDbSpline
 70
8
 71
3
 72
8
 73
4
 74
0
 40
0
 40
0
 40
0
 40
0
 40
1
 40
1
 40
1
 40
1
 10
-169.587585
 20
6.811610
 30
0.0
 10
-169.587585
 20
7.808898
 30
0.0
 10
-170.851556
 20
9.104665
 30
0.0
 10
-172.168608
 20
9.457584
 30
0.0
  0
SPLINE
  5
1ed
100
AcDbEntity
  8
Layer_1
 62
7
100
AcDbSpline
 70
8
 71
3
 72
8
 73
4
 74
0
 40
0
 40
0
 40
0
 40
0
 40
1
 40
1
 40
1
 40
1
 10
-172.168608
 20
9.457584
 30
0.0
 10
-172.698181
 20
9.599485
 30
0.0
 10
-174.616234
 20
9.886816
 30
0.0
 10
-176.430946
 20
10.096084
 30
0.0
  0
SPLINE
  5
1ee
100
AcDbEntity
  8
Layer_1
 62
7
100
AcDbSpline
 70
8
 71
3
 72
8
 73
4
 74
0
 40
0
 40
0
 40
0
 40
0
 40
1
 40
1
 40
1
 40
1
 10
-176.430946
 20
10.096084
 30
0.0
 10
-182.045692
 20
10.743614
 30
0.0
 10
-184.029488
 20
11.470478
 30
0.0
 10
-186.035798
 20
13.615395
 30
0.0
  0
SPLINE
  5
1ef
100
AcDbEntity
  8
Layer_1
 62
7
100
AcDbSpline
 70
8
 71
3
 72
8
 73
4
 74
0
 40
0
 40
0
 40
0
 40
0
 40
1
 40
1
 40
1
 40
1
 10
-186.035798
 20
13.615395
 30
0.0
 10
-187.198096
 20
14.857977
 30
0.0
 10
-189.987606
 20
18.958677
 30
0.0
 10
-191.110661
 20
21.075660
 30
0.0
  0
SPLINE
  5
1f0
100
AcDbEntity
  8
Layer_1
 62
7
100
AcDbSpline
 70
8
 71
3
 72
8
 73
4
 74
0
 40
0
 40
0
 40
0
 40
0
 40
1
 40
1
 40
1
 40
1
 10
-191.110661
 20
21.075660
 30
0.0
 10
-191.679150
 20
22.147266
 30
0.0
 10
-192.309126
 20
22.663665
 30
0.0
 10
-191.956693
 20
21.769159
 30
0.0
  0
SPLINE
  5
1f1
100
AcDbEntity
  8
Layer_1
 62
7
100
AcDbSpline
 70
8
 71
3
 72
8
 73
4
 74
0
 40
0
 40
0
 40
0
 40
0
 40
1
 40
1
 40
1
 40
1
 10
-191.956693
 20
21.769159
 30
0.0
 10
-191.864008
 20
21.533921
 30
0.0
 10
-191.568781
 20
20.351607
 30
0.0
 10
-191.300633
 20
19.141800
 30
0.0
  0
SPLINE
  5
1f2
100
AcDbEntity
  8
Layer_1
 62
7
100
AcDbSpline
 70
8
 71
3
 72
8
 73
4
 74
0
 40
0
 40
0
 40
0
 40
0
 40
1
 40
1
 40
1
 40
1
 10
-191.300633
 20
19.141800
 30
0.0
 10
-190.859492
 20
17.151478
 30
0.0
 10
-190.829446
 20
16.429018
 30
0.0
 10
-190.984926
 20
11.550177
 30
0.0
  0
SPLINE
  5
1f3
100
AcDbEntity
  8
Layer_1
 62
7
100
AcDbSpline
 70
8
 71
3
 72
8
 73
4
 74
0
 40
0
 40
0
 40
0
 40
0
 40
1
 40
1
 40
1
 40
1
 10
-190.984926
 20
11.550177
 30
0.0
 10
-191.134893
 20
6.844291
 30
0.0
 10
-191.103450
 20
5.973551
 30
0.0
 10
-190.737795
 20
4.706824
 30
0.0
  0
SPLINE
  5
1f4
100
AcDbEntity
  8
Layer_1
 62
7
100
AcDbSpline
 70
8
 71
3
 72
8
 73
4
 74
0
 40
0
 40
0
 40
0
 40
0
 40
1
 40
1
 40
1
 40
1
 10
-190.737795
 20
4.706824
 30
0.0
 10
-189.933188
 20
1.919428
 30
0.0
 10
-188.711651
 20
0.691790
 30
0.0
 10
-186.741020
 20
0.690068
 30
0.0
  0
SPLINE
  5
1f5
100
AcDbEntity
  8
Layer_1
 62
7
100
AcDbSpline
 70
8
 71
3
 72
8
 73
4
 74
0
 40
0
 40
0
 40
0
 40
0
 40
1
 40
1
 40
1
 40
1
 10
-186.741020
 20
0.690068
 30
0.0
 10
-185.547389
 20
0.690068
 30
0.0
 10
-184.810936
 20
0.997662
 30
0.0
 10
-184.196262
 20
1.756502
 30
0.0
  0
SPLINE
  5
1f6
100
AcDbEntity
  8
Layer_1
 62
7
100
AcDbSpline
 70
8
 71
3
 72
8
 73
4
 74
0
 40
0
 40
0
 40
0
 40
0
 40
1
 40
1
 40
1
 40
1
 10
-184.196262
 20
1.756502
 30
0.0
 10
-183.380555
 20
2.763499
 30
0.0
 10
-183.835178
 20
5.088474
 30
0.0
 10
-184.847792
 20
5.088474
 30
0.0
  0
SPLINE
  5
1f7
100
AcDbEntity
  8
Layer_1
 62
7
100
AcDbSpline
 70
8
 71
3
 72
8
 73
4
 74
0
 40
0
 40
0
 40
0
 40
0
 40
1
 40
1
 40
1
 40
1
 10
-184.847792
 20
5.088474
 30
0.0
 10
-186.192693
 20
5.088474
 30
0.0
 10
-187.179867
 20
6.604910
 30
0.0
 10
-186.584483
 20
7.756236
 30
0.0
  0
SPLINE
  5
1f8
100
AcDbEntity
  8
Layer_1
 62
7
100
AcDbSpline
 70
8
 71
3
 72
8
 73
4
 74
0
 40
0
 40
0
 40
0
 40
0
 40
1
 40
1
 40
1
 40
1
 10
-186.584483
 20
7.756236
 30
0.0
 10
-185.452193
 20
9.945857
 30
0.0
 10
-182.119874
 20
8.760072
 30
0.0
 10
-182.758740
 20
6.394908
 30
0.0
  0
SPLINE
  5
1f9
100
AcDbEntity
  8
Layer_1
 62
7
100
AcDbSpline
 70
8
 71
3
 72
8
 73
4
 74
0
 40
0
 40
0
 40
0
 40
0
 40
1
 40
1
 40
1
 40
1
 10
-182.758740
 20
6.394908
 30
0.0
 10
-182.896521
 20
5.884820
 30
0.0
 10
-182.795477
 20
5.373800
 30
0.0
 10
-182.379614
 20
4.477462
 30
0.0
  0
SPLINE
  5
1fa
100
AcDbEntity
  8
Layer_1
 62
7
100
AcDbSpline
 70
8
 71
3
 72
8
 73
4
 74
0
 40
0
 40
0
 40
0
 40
0
 40
1
 40
1
 40
1
 40
1
 10
-182.379614
 20
4.477462
 30
0.0
 10
-181.538005
 20
2.663479
 30
0.0
 10
-181.604531
 20
1.182179
 30
0.0
 10
-182.577367
 20
0.074175
 30
0.0
  0
SPLINE
  5
1fb
100
AcDbEntity
  8
Layer_1
 62
7
100
AcDbSpline
 70
8
 71
3
 72
8
 73
4
 74
0
 40
0
 40
0
 40
0
 40
0
 40
1
 40
1
 40
1
 40
1
 10
-182.577367
 20
0.074175
 30
0.0
 10
-183.502763
 20
-0.979784
 30
0.0
 10
-184.311386
 20
-1.423578
 30
0.0
 10
-185.944795
 20
-1.773873
 30
0.0
  0
SPLINE
  5
1fc
100
AcDbEntity
  8
Layer_1
 62
7
100
AcDbSpline
 70
8
 71
3
 72
8
 73
4
 74
0
 40
0
 40
0
 40
0
 40
0
 40
1
 40
1
 40
1
 40
1
 10
-185.944795
 20
-1.773873
 30
0.0
 10
-188.625892
 20
-2.348872
 30
0.0
 10
-191.330919
 20
-0.726405
 30
0.0
 10
-192.891289
 20
2.392602
 30
0.0
  0
SPLINE
  5
1fd
100
AcDbEntity
  8
Layer_1
 62
7
100
AcDbSpline
 70
8
 71
3
 72
8
 73
4
 74
0
 40
0
 40
0
 40
0
 40
0
 40
1
 40
1
 40
1
 40
1
 10
-192.891289
 20
2.392602
 30
0.0
 10
-194.125051
 20
4.858745
 30
0.0
 10
-194.413883
 20
6.871328
 30
0.0
 10
-194.115269
 20
10.921414
 30
0.0
  0
SPLINE
  5
1fe
100
AcDbEntity
  8
Layer_1
 62
7
100
AcDbSpline
 70
8
 71
3
 72
8
 73
4
 74
0
 40
0
 40
0
 40
0
 40
0
 40
1
 40
1
 40
1
 40
1
 10
-194.115269
 20
10.921414
 30
0.0
 10
-193.714819
 20
16.352600
 30
0.0
 10
-194.151473
 20
19.146502
 30
0.0
 10
-196.144865
 20
23.907709
 30
0.0
  0
SPLINE
  5
1ff
100
AcDbEntity
  8
Layer_1
 62
7
100
AcDbSpline
 70
8
 71
3
 72
8
 73
4
 74
0
 40
0
 40
0
 40
0
 40
0
 40
1
 40
1
 40
1
 40
1
 10
-196.144865
 20
23.907709
 30
0.0
 10
-197.166580
 20
26.348079
 30
0.0
 10
-197.825165
 20
27.540979
 30
0.0
 10
-198.024075
 20
27.311549
 30
0.0
  0
SPLINE
  5
200
100
AcDbEntity
  8
Layer_1
 62
7
100
AcDbSpline
 70
8
 71
3
 72
8
 73
4
 74
0
 40
0
 40
0
 40
0
 40
0
 40
1
 40
1
 40
1
 40
1
 10
-198.024075
 20
27.311549
 30
0.0
 10
-198.073840
 20
27.254150
 30
0.0
 10
-197.969124
 20
26.052369
 30
0.0
 10
-197.791375
 20
24.640928
 30
0.0
  0
SPLINE
  5
201
100
AcDbEntity
  8
Layer_1
 62
7
100
AcDbSpline
 70
8
 71
3
 72
8
 73
4
 74
0
 40
0
 40
0
 40
0
 40
0
 40
1
 40
1
 40
1
 40
1
 10
-197.791375
 20
24.640928
 30
0.0
 10
-197.613626
 20
23.229484
 30
0.0
 10
-197.464062
 20
19.680627
 30
0.0
 10
-197.459019
 20
16.754578
 30
0.0
  0
SPLINE
  5
202
100
AcDbEntity
  8
Layer_1
 62
7
100
AcDbSpline
 70
8
 71
3
 72
8
 73
4
 74
0
 40
0
 40
0
 40
0
 40
0
 40
1
 40
1
 40
1
 40
1
 10
-197.459019
 20
16.754578
 30
0.0
 10
-197.451314
 20
12.290700
 30
0.0
 10
-197.367189
 20
11.051688
 30
0.0
 10
-196.936298
 20
9.055812
 30
0.0
  0
SPLINE
  5
203
100
AcDbEntity
  8
Layer_1
 62
7
100
AcDbSpline
 70
8
 71
3
 72
8
 73
4
 74
0
 40
0
 40
0
 40
0
 40
0
 40
1
 40
1
 40
1
 40
1
 10
-196.936298
 20
9.055812
 30
0.0
 10
-196.179197
 20
5.548919
 30
0.0
 10
-194.966847
 20
1.699436
 30
0.0
 10
-192.761881
 20
-4.198952
 30
0.0
  0
SPLINE
  5
204
100
AcDbEntity
  8
Layer_1
 62
7
100
AcDbSpline
 70
8
 71
3
 72
8
 73
4
 74
0
 40
0
 40
0
 40
0
 40
0
 40
1
 40
1
 40
1
 40
1
 10
-192.761881
 20
-4.198952
 30
0.0
 10
-190.491483
 20
-10.272374
 30
0.0
 10
-190.254879
 20
-11.580248
 30
0.0
 10
-191.149038
 20
-13.114239
 30
0.0
  0
SPLINE
  5
205
100
AcDbEntity
  8
Layer_1
 62
7
100
AcDbSpline
 70
8
 71
3
 72
8
 73
4
 74
0
 40
0
 40
0
 40
0
 40
0
 40
1
 40
1
 40
1
 40
1
 10
-191.149038
 20
-13.114239
 30
0.0
 10
-191.553866
 20
-13.808760
 30
0.0
 10
-192.122417
 20
-14.294379
 30
0.0
 10
-193.140084
 20
-14.814825
 30
0.0
  0
SPLINE
  5
206
100
AcDbEntity
  8
Layer_1
 62
7
100
AcDbSpline
 70
8
 71
3
 72
8
 73
4
 74
0
 40
0
 40
0
 40
0
 40
0
 40
1
 40
1
 40
1
 40
1
 10
-193.140084
 20
-14.814825
 30
0.0
 10
-194.357583
 20
-15.437492
 30
0.0
 10
-194.889459
 20
-15.554417
 30
0.0
 10
-196.801489
 20
-15.619836
 30
0.0
  0
SPLINE
  5
207
100
AcDbEntity
  8
Layer_1
 62
7
100
AcDbSpline
 70
8
 71
3
 72
8
 73
4
 74
0
 40
0
 40
0
 40
0
 40
0
 40
1
 40
1
 40
1
 40
1
 10
-196.801489
 20
-15.619836
 30
0.0
 10
-198.528494
 20
-15.678933
 30
0.0
 10
-199.319021
 20
-15.592178
 30
0.0
 10
-200.269071
 20
-15.239090
 30
0.0
  0
LINE
  5
208
100
AcDbEntity
  8
Layer_1
 62
7
100
AcDbLine
 10
-200.269071
 20
-15.239090
 30
0.0
 11
-200.269069
 21
-15.239457
 31
0.0
  0
SPLINE
  5
209
100
AcDbEntity
  8
Layer_1
 62
4
100
AcDbSpline
 70
8
 71
3
 72
8
 73
4
 74
0
 40
0
 40
0
 40
0
 40
0
 40
1
 40
1
 40
1
 40
1
 10
-96.951902
 20
-6.049709
 30
0.0
 10
-97.995557
 20
-5.897139
 30
0.0
 10
-99.109674
 20
-5.522997
 30
0.0
 10
-100.165854
 20
-4.970745
 30
0.0
  0
SPLINE
  5
20a
100
AcDbEntity
  8
Layer_1
 62
4
100
AcDbSpline
 70
8
 71
3
 72
8
 73
4
 74
0
 40
0
 40
0
 40
0
 40
0
 40
1
 40
1
 40
1
 40
1
 10
-100.165854
 20
-4.970745
 30
0.0
 10
-100.982478
 20
-4.543997
 30
0.0
 10
-101.209983
 20
-4.468305
 30
0.0
 10
-101.427621
 20
-4.551588
 30
0.0
  0
SPLINE
  5
20b
100
AcDbEntity
  8
Layer_1
 62
4
100
AcDbSpline
 70
8
 71
3
 72
8
 73
4
 74
0
 40
0
 40
0
 40
0
 40
0
 40
1
 40
1
 40
1
 40
1
 10
-101.427621
 20
-4.551588
 30
0.0
 10
-101.881223
 20
-4.725014
 30
0.0
 10
-102.924096
 20
-4.573320
 30
0.0
 10
-103.387638
 20
-4.266318
 30
0.0
  0
SPLINE
  5
20c
100
AcDbEntity
  8
Layer_1
 62
4
100
AcDbSpline
 70
8
 71
3
 72
8
 73
4
 74
0
 40
0
 40
0
 40
0
 40
0
 40
1
 40
1
 40
1
 40
1
 10
-103.387638
 20
-4.266318
 30
0.0
 10
-104.525321
 20
-3.513349
 30
0.0
 10
-104.657313
 20
-2.135710
 30
0.0
 10
-103.684586
 20
-1.165712
 30
0.0
  0
SPLINE
  5
20d
100
AcDbEntity
  8
Layer_1
 62
4
100
AcDbSpline
 70
8
 71
3
 72
8
 73
4
 74
0
 40
0
 40
0
 40
0
 40
0
 40
1
 40
1
 40
1
 40
1
 10
-103.684586
 20
-1.165712
 30
0.0
 10
-102.815511
 20
-0.299403
 30
0.0
 10
-101.398967
 20
-0.297681
 30
0.0
 10
-100.448398
 20
-1.162608
 30
0.0
  0
SPLINE
  5
20e
100
AcDbEntity
  8
Layer_1
 62
4
100
AcDbSpline
 70
8
 71
3
 72
8
 73
4
 74
0
 40
0
 40
0
 40
0
 40
0
 40
1
 40
1
 40
1
 40
1
 10
-100.448398
 20
-1.162608
 30
0.0
 10
-100.055705
 20
-1.519760
 30
0.0
 10
-99.882689
 20
-1.935134
 30
0.0
 10
-99.882689
 20
-2.521987
 30
0.0
  0
LINE
  5
20f
100
AcDbEntity
  8
Layer_1
 62
4
100
AcDbLine
 10
-99.882689
 20
-2.521987
 30
0.0
 11
-99.882689
 21
-3.054738
 31
0.0
  0
LINE
  5
210
100
AcDbEntity
  8
Layer_1
 62
4
100
AcDbLine
 10
-99.882689
 20
-3.054738
 30
0.0
 11
-99.126974
 21
-3.236292
 31
0.0
  0
SPLINE
  5
211
100
AcDbEntity
  8
Layer_1
 62
4
100
AcDbSpline
 70
8
 71
3
 72
8
 73
4
 74
0
 40
0
 40
0
 40
0
 40
0
 40
1
 40
1
 40
1
 40
1
 10
-99.126974
 20
-3.236292
 30
0.0
 10
-95.806235
 20
-4.033118
 30
0.0
 10
-93.596246
 20
-3.832938
 30
0.0
 10
-92.389201
 20
-2.625732
 30
0.0
  0
SPLINE
  5
212
100
AcDbEntity
  8
Layer_1
 62
4
100
AcDbSpline
 70
8
 71
3
 72
8
 73
4
 74
0
 40
0
 40
0
 40
0
 40
0
 40
1
 40
1
 40
1
 40
1
 10
-92.389201
 20
-2.625732
 30
0.0
 10
-91.902170
 20
-2.138786
 30
0.0
 10
-91.549720
 20
-1.439580
 30
0.0
 10
-91.546432
 20
-0.953170
 30
0.0
  0
SPLINE
  5
213
100
AcDbEntity
  8
Layer_1
 62
4
100
AcDbSpline
 70
8
 71
3
 72
8
 73
4
 74
0
 40
0
 40
0
 40
0
 40
0
 40
1
 40
1
 40
1
 40
1
 10
-91.546432
 20
-0.953170
 30
0.0
 10
-91.538529
 20
0.131184
 30
0.0
 10
-92.210235
 20
1.613415
 30
0.0
 10
-94.491545
 20
5.545278
 30
0.0
  0
SPLINE
  5
214
100
AcDbEntity
  8
Layer_1
 62
4
100
AcDbSpline
 70
8
 71
3
 72
8
 73
4
 74
0
 40
0
 40
0
 40
0
 40
0
 40
1
 40
1
 40
1
 40
1
 10
-94.491545
 20
5.545278
 30
0.0
 10
-97.571235
 20
10.853427
 30
0.0
 10
-98.755810
 20
13.567050
 30
0.0
 10
-99.460324
 20
16.927157
 30
0.0
  0
SPLINE
  5
215
100
AcDbEntity
  8
Layer_1
 62
4
100
AcDbSpline
 70
8
 71
3
 72
8
 73
4
 74
0
 40
0
 40
0
 40
0
 40
0
 40
1
 40
1
 40
1
 40
1
 10
-99.460324
 20
16.927157
 30
0.0
 10
-99.645944
 20
17.812595
 30
0.0
 10
-99.643988
 20
20.838658
 30
0.0
 10
-99.455865
 20
23.370256
 30
0.0
  0
SPLINE
  5
216
100
AcDbEntity
  8
Layer_1
 62
4
100
AcDbSpline
 70
8
 71
3
 72
8
 73
4
 74
0
 40
0
 40
0
 40
0
 40
0
 40
1
 40
1
 40
1
 40
1
 10
-99.455865
 20
23.370256
 30
0.0
 10
-99.271655
 20
25.851359
 30
0.0
 10
-99.344150
 20
30.525775
 30
0.0
 10
-99.603439
 20
32.891949
 30
0.0
  0
SPLINE
  5
217
100
AcDbEntity
  8
Layer_1
 62
4
100
AcDbSpline
 70
8
 71
3
 72
8
 73
4
 74
0
 40
0
 40
0
 40
0
 40
0
 40
1
 40
1
 40
1
 40
1
 10
-99.603439
 20
32.891949
 30
0.0
 10
-99.800881
 20
34.695470
 30
0.0
 10
-100.084986
 20
36.494837
 30
0.0
 10
-100.207118
 20
36.716864
 30
0.0
  0
SPLINE
  5
218
100
AcDbEntity
  8
Layer_1
 62
4
100
AcDbSpline
 70
8
 71
3
 72
8
 73
4
 74
0
 40
0
 40
0
 40
0
 40
0
 40
1
 40
1
 40
1
 40
1
 10
-100.207118
 20
36.716864
 30
0.0
 10
-100.377394
 20
37.026493
 30
0.0
 10
-101.609723
 20
33.634743
 30
0.0
 10
-102.131825
 20
31.418960
 30
0.0
  0
SPLINE
  5
219
100
AcDbEntity
  8
Layer_1
 62
4
100
AcDbSpline
 70
8
 71
3
 72
8
 73
4
 74
0
 40
0
 40
0
 40
0
 40
0
 40
1
 40
1
 40
1
 40
1
 10
-102.131825
 20
31.418960
 30
0.0
 10
-102.820761
 20
28.495220
 30
0.0
 10
-102.976161
 20
25.173775
 30
0.0
 10
-102.545264
 20
22.577669
 30
0.0
  0
SPLINE
  5
21a
100
AcDbEntity
  8
Layer_1
 62
4
100
AcDbSpline
 70
8
 71
3
 72
8
 73
4
 74
0
 40
0
 40
0
 40
0
 40
0
 40
1
 40
1
 40
1
 40
1
 10
-102.545264
 20
22.577669
 30
0.0
 10
-102.192263
 20
20.451133
 30
0.0
 10
-102.165020
 20
20.046776
 30
0.0
 10
-102.293177
 20
18.829868
 30
0.0
  0
SPLINE
  5
21b
100
AcDbEntity
  8
Layer_1
 62
4
100
AcDbSpline
 70
8
 71
3
 72
8
 73
4
 74
0
 40
0
 40
0
 40
0
 40
0
 40
1
 40
1
 40
1
 40
1
 10
-102.293177
 20
18.829868
 30
0.0
 10
-102.522091
 20
16.656751
 30
0.0
 10
-103.100327
 20
14.742308
 30
0.0
 10
-105.033022
 20
9.758264
 30
0.0
  0
SPLINE
  5
21c
100
AcDbEntity
  8
Layer_1
 62
4
100
AcDbSpline
 70
8
 71
3
 72
8
 73
4
 74
0
 40
0
 40
0
 40
0
 40
0
 40
1
 40
1
 40
1
 40
1
 10
-105.033022
 20
9.758264
 30
0.0
 10
-106.750423
 20
5.330056
 30
0.0
 10
-106.788159
 20
3.843055
 30
0.0
 10
-105.204235
 20
3.016172
 30
0.0
  0
SPLINE
  5
21d
100
AcDbEntity
  8
Layer_1
 62
4
100
AcDbSpline
 70
8
 71
3
 72
8
 73
4
 74
0
 40
0
 40
0
 40
0
 40
0
 40
1
 40
1
 40
1
 40
1
 10
-105.204235
 20
3.016172
 30
0.0
 10
-104.536596
 20
2.667882
 30
0.0
 10
-102.931381
 20
2.613526
 30
0.0
 10
-102.331929
 20
2.919483
 30
0.0
  0
SPLINE
  5
21e
100
AcDbEntity
  8
Layer_1
 62
4
100
AcDbSpline
 70
8
 71
3
 72
8
 73
4
 74
0
 40
0
 40
0
 40
0
 40
0
 40
1
 40
1
 40
1
 40
1
 10
-102.331929
 20
2.919483
 30
0.0
 10
-102.057530
 20
3.059550
 30
0.0
 10
-101.836288
 20
3.272966
 30
0.0
 10
-101.750094
 20
3.481049
 30
0.0
  0
SPLINE
  5
21f
100
AcDbEntity
  8
Layer_1
 62
4
100
AcDbSpline
 70
8
 71
3
 72
8
 73
4
 74
0
 40
0
 40
0
 40
0
 40
0
 40
1
 40
1
 40
1
 40
1
 10
-101.750094
 20
3.481049
 30
0.0
 10
-101.569718
 20
3.916574
 30
0.0
 10
-101.653408
 20
4.845847
 30
0.0
 10
-101.922484
 20
5.395588
 30
0.0
  0
SPLINE
  5
220
100
AcDbEntity
  8
Layer_1
 62
4
100
AcDbSpline
 70
8
 71
3
 72
8
 73
4
 74
0
 40
0
 40
0
 40
0
 40
0
 40
1
 40
1
 40
1
 40
1
 10
-101.922484
 20
5.395588
 30
0.0
 10
-102.107088
 20
5.772778
 30
0.0
 10
-102.203304
 20
5.841584
 30
0.0
 10
-102.729321
 20
5.974680
 30
0.0
  0
SPLINE
  5
221
100
AcDbEntity
  8
Layer_1
 62
4
100
AcDbSpline
 70
8
 71
3
 72
8
 73
4
 74
0
 40
0
 40
0
 40
0
 40
0
 40
1
 40
1
 40
1
 40
1
 10
-102.729321
 20
5.974680
 30
0.0
 10
-103.483156
 20
6.165546
 30
0.0
 10
-104.018407
 20
6.570535
 30
0.0
 10
-104.281142
 20
7.149063
 30
0.0
  0
SPLINE
  5
222
100
AcDbEntity
  8
Layer_1
 62
4
100
AcDbSpline
 70
8
 71
3
 72
8
 73
4
 74
0
 40
0
 40
0
 40
0
 40
0
 40
1
 40
1
 40
1
 40
1
 10
-104.281142
 20
7.149063
 30
0.0
 10
-104.702723
 20
8.077404
 30
0.0
 10
-104.397246
 20
9.087337
 30
0.0
 10
-103.528326
 20
9.638545
 30
0.0
  0
SPLINE
  5
223
100
AcDbEntity
  8
Layer_1
 62
4
100
AcDbSpline
 70
8
 71
3
 72
8
 73
4
 74
0
 40
0
 40
0
 40
0
 40
0
 40
1
 40
1
 40
1
 40
1
 10
-103.528326
 20
9.638545
 30
0.0
 10
-102.672405
 20
10.181484
 30
0.0
 10
-101.702732
 20
10.167373
 30
0.0
 10
-100.860979
 20
9.600191
 30
0.0
  0
SPLINE
  5
224
100
AcDbEntity
  8
Layer_1
 62
4
100
AcDbSpline
 70
8
 71
3
 72
8
 73
4
 74
0
 40
0
 40
0
 40
0
 40
0
 40
1
 40
1
 40
1
 40
1
 10
-100.860979
 20
9.600191
 30
0.0
 10
-100.099470
 20
9.086998
 30
0.0
 10
-99.770819
 20
7.963669
 30
0.0
 10
-100.161240
 20
7.208724
 30
0.0
  0
SPLINE
  5
225
100
AcDbEntity
  8
Layer_1
 62
4
100
AcDbSpline
 70
8
 71
3
 72
8
 73
4
 74
0
 40
0
 40
0
 40
0
 40
0
 40
1
 40
1
 40
1
 40
1
 10
-100.161240
 20
7.208724
 30
0.0
 10
-100.319380
 20
6.902711
 30
0.0
 10
-100.311475
 20
6.832550
 30
0.0
 10
-100.034883
 20
6.089375
 30
0.0
  0
SPLINE
  5
226
100
AcDbEntity
  8
Layer_1
 62
4
100
AcDbSpline
 70
8
 71
3
 72
8
 73
4
 74
0
 40
0
 40
0
 40
0
 40
0
 40
1
 40
1
 40
1
 40
1
 10
-100.034883
 20
6.089375
 30
0.0
 10
-99.791720
 20
5.436454
 30
0.0
 10
-99.737858
 20
5.103177
 30
0.0
 10
-99.728934
 20
4.199191
 30
0.0
  0
SPLINE
  5
227
100
AcDbEntity
  8
Layer_1
 62
4
100
AcDbSpline
 70
8
 71
3
 72
8
 73
4
 74
0
 40
0
 40
0
 40
0
 40
0
 40
1
 40
1
 40
1
 40
1
 10
-99.728934
 20
4.199191
 30
0.0
 10
-99.719057
 20
3.203201
 30
0.0
 10
-99.746940
 20
3.043491
 30
0.0
 10
-100.030969
 20
2.465020
 30
0.0
  0
SPLINE
  5
228
100
AcDbEntity
  8
Layer_1
 62
4
100
AcDbSpline
 70
8
 71
3
 72
8
 73
4
 74
0
 40
0
 40
0
 40
0
 40
0
 40
1
 40
1
 40
1
 40
1
 10
-100.030969
 20
2.465020
 30
0.0
 10
-100.440024
 20
1.631816
 30
0.0
 10
-101.174835
 20
1.045753
 30
0.0
 10
-102.223892
 20
0.715920
 30
0.0
  0
SPLINE
  5
229
100
AcDbEntity
  8
Layer_1
 62
4
100
AcDbSpline
 70
8
 71
3
 72
8
 73
4
 74
0
 40
0
 40
0
 40
0
 40
0
 40
1
 40
1
 40
1
 40
1
 10
-102.223892
 20
0.715920
 30
0.0
 10
-102.872743
 20
0.512043
 30
0.0
 10
-103.248996
 20
0.470020
 30
0.0
 10
-104.381351
 20
0.476596
 30
0.0
  0
SPLINE
  5
22a
100
AcDbEntity
  8
Layer_1
 62
4
100
AcDbSpline
 70
8
 71
3
 72
8
 73
4
 74
0
 40
0
 40
0
 40
0
 40
0
 40
1
 40
1
 40
1
 40
1
 10
-104.381351
 20
0.476596
 30
0.0
 10
-107.032182
 20
0.492118
 30
0.0
 10
-108.631917
 20
1.232782
 30
0.0
 10
-109.340737
 20
2.772784
 30
0.0
  0
SPLINE
  5
22b
100
AcDbEntity
  8
Layer_1
 62
4
100
AcDbSpline
 70
8
 71
3
 72
8
 73
4
 74
0
 40
0
 40
0
 40
0
 40
0
 40
1
 40
1
 40
1
 40
1
 10
-109.340737
 20
2.772784
 30
0.0
 10
-109.560569
 20
3.250642
 30
0.0
 10
-109.592745
 20
3.491463
 30
0.0
 10
-109.589615
 20
4.638301
 30
0.0
  0
SPLINE
  5
22c
100
AcDbEntity
  8
Layer_1
 62
4
100
AcDbSpline
 70
8
 71
3
 72
8
 73
4
 74
0
 40
0
 40
0
 40
0
 40
0
 40
1
 40
1
 40
1
 40
1
 10
-109.589615
 20
4.638301
 30
0.0
 10
-109.585156
 20
6.290402
 30
0.0
 10
-109.315137
 20
7.331548
 30
0.0
 10
-107.838627
 20
11.389367
 30
0.0
  0
SPLINE
  5
22d
100
AcDbEntity
  8
Layer_1
 62
4
100
AcDbSpline
 70
8
 71
3
 72
8
 73
4
 74
0
 40
0
 40
0
 40
0
 40
0
 40
1
 40
1
 40
1
 40
1
 10
-107.838627
 20
11.389367
 30
0.0
 10
-106.244136
 20
15.771079
 30
0.0
 10
-105.834846
 20
17.315232
 30
0.0
 10
-105.731350
 20
19.340933
 30
0.0
  0
SPLINE
  5
22e
100
AcDbEntity
  8
Layer_1
 62
4
100
AcDbSpline
 70
8
 71
3
 72
8
 73
4
 74
0
 40
0
 40
0
 40
0
 40
0
 40
1
 40
1
 40
1
 40
1
 10
-105.731350
 20
19.340933
 30
0.0
 10
-105.678661
 20
20.371281
 30
0.0
 10
-105.712412
 20
20.763815
 30
0.0
 10
-105.962377
 20
22.023861
 30
0.0
  0
SPLINE
  5
22f
100
AcDbEntity
  8
Layer_1
 62
4
100
AcDbSpline
 70
8
 71
3
 72
8
 73
4
 74
0
 40
0
 40
0
 40
0
 40
0
 40
1
 40
1
 40
1
 40
1
 10
-105.962377
 20
22.023861
 30
0.0
 10
-106.530671
 20
24.889278
 30
0.0
 10
-106.547737
 20
27.596161
 30
0.0
 10
-106.016865
 20
30.690728
 30
0.0
  0
SPLINE
  5
230
100
AcDbEntity
  8
Layer_1
 62
4
100
AcDbSpline
 70
8
 71
3
 72
8
 73
4
 74
0
 40
0
 40
0
 40
0
 40
0
 40
1
 40
1
 40
1
 40
1
 10
-106.016865
 20
30.690728
 30
0.0
 10
-105.835941
 20
31.745892
 30
0.0
 10
-105.255907
 20
34.182604
 30
0.0
 10
-104.983777
 20
35.031168
 30
0.0
  0
SPLINE
  5
231
100
AcDbEntity
  8
Layer_1
 62
4
100
AcDbSpline
 70
8
 71
3
 72
8
 73
4
 74
0
 40
0
 40
0
 40
0
 40
0
 40
1
 40
1
 40
1
 40
1
 10
-104.983777
 20
35.031168
 30
0.0
 10
-104.801444
 20
35.599696
 30
0.0
 10
-105.174251
 20
34.806558
 30
0.0
 10
-105.731584
 20
33.440199
 30
0.0
  0
SPLINE
  5
232
100
AcDbEntity
  8
Layer_1
 62
4
100
AcDbSpline
 70
8
 71
3
 72
8
 73
4
 74
0
 40
0
 40
0
 40
0
 40
0
 40
1
 40
1
 40
1
 40
1
 10
-105.731584
 20
33.440199
 30
0.0
 10
-107.273465
 20
29.660693
 30
0.0
 10
-108.565137
 20
25.637788
 30
0.0
 10
-109.231055
 20
22.541734
 30
0.0
  0
SPLINE
  5
233
100
AcDbEntity
  8
Layer_1
 62
4
100
AcDbSpline
 70
8
 71
3
 72
8
 73
4
 74
0
 40
0
 40
0
 40
0
 40
0
 40
1
 40
1
 40
1
 40
1
 10
-109.231055
 20
22.541734
 30
0.0
 10
-109.563075
 20
20.998678
 30
0.0
 10
-109.566284
 20
20.951081
 30
0.0
 10
-109.652556
 20
16.323402
 30
0.0
  0
SPLINE
  5
234
100
AcDbEntity
  8
Layer_1
 62
4
100
AcDbSpline
 70
8
 71
3
 72
8
 73
4
 74
0
 40
0
 40
0
 40
0
 40
0
 40
1
 40
1
 40
1
 40
1
 10
-109.652556
 20
16.323402
 30
0.0
 10
-109.700548
 20
13.758764
 30
0.0
 10
-109.795200
 20
11.265217
 30
0.0
 10
-109.862995
 20
10.782561
 30
0.0
  0
SPLINE
  5
235
100
AcDbEntity
  8
Layer_1
 62
4
100
AcDbSpline
 70
8
 71
3
 72
8
 73
4
 74
0
 40
0
 40
0
 40
0
 40
0
 40
1
 40
1
 40
1
 40
1
 10
-109.862995
 20
10.782561
 30
0.0
 10
-110.556156
 20
5.854650
 30
0.0
 10
-111.969880
 20
2.539160
 30
0.0
 10
-114.331826
 20
0.303650
 30
0.0
  0
SPLINE
  5
236
100
AcDbEntity
  8
Layer_1
 62
4
100
AcDbSpline
 70
8
 71
3
 72
8
 73
4
 74
0
 40
0
 40
0
 40
0
 40
0
 40
1
 40
1
 40
1
 40
1
 10
-114.331826
 20
0.303650
 30
0.0
 10
-115.416505
 20
-0.723329
 30
0.0
 10
-116.784509
 20
-1.465658
 30
0.0
 10
-118.084560
 20
-1.733007
 30
0.0
  0
SPLINE
  5
237
100
AcDbEntity
  8
Layer_1
 62
4
100
AcDbSpline
 70
8
 71
3
 72
8
 73
4
 74
0
 40
0
 40
0
 40
0
 40
0
 40
1
 40
1
 40
1
 40
1
 10
-118.084560
 20
-1.733007
 30
0.0
 10
-118.696926
 20
-1.858737
 30
0.0
 10
-118.947842
 20
-1.966320
 30
0.0
 10
-119.109896
 20
-2.172370
 30
0.0
  0
SPLINE
  5
238
100
AcDbEntity
  8
Layer_1
 62
4
100
AcDbSpline
 70
8
 71
3
 72
8
 73
4
 74
0
 40
0
 40
0
 40
0
 40
0
 40
1
 40
1
 40
1
 40
1
 10
-119.109896
 20
-2.172370
 30
0.0
 10
-119.880642
 20
-3.152359
 30
0.0
 10
-121.784683
 20
-3.118379
 30
0.0
 10
-122.633401
 20
-2.109576
 30
0.0
  0
SPLINE
  5
239
100
AcDbEntity
  8
Layer_1
 62
4
100
AcDbSpline
 70
8
 71
3
 72
8
 73
4
 74
0
 40
0
 40
0
 40
0
 40
0
 40
1
 40
1
 40
1
 40
1
 10
-122.633401
 20
-2.109576
 30
0.0
 10
-123.733975
 20
-0.801702
 30
0.0
 10
-122.842980
 20
1.031642
 30
0.0
 10
-121.043689
 20
1.161690
 30
0.0
  0
SPLINE
  5
23a
100
AcDbEntity
  8
Layer_1
 62
4
100
AcDbSpline
 70
8
 71
3
 72
8
 73
4
 74
0
 40
0
 40
0
 40
0
 40
0
 40
1
 40
1
 40
1
 40
1
 10
-121.043689
 20
1.161690
 30
0.0
 10
-120.471401
 20
1.203261
 30
0.0
 10
-120.302378
 20
1.164512
 30
0.0
 10
-119.691184
 20
0.854491
 30
0.0
  0
LINE
  5
23b
100
AcDbEntity
  8
Layer_1
 62
4
100
AcDbLine
 10
-119.691184
 20
0.854491
 30
0.0
 11
-118.992622
 21
0.499907
 31
0.0
  0
LINE
  5
23c
100
AcDbEntity
  8
Layer_1
 62
4
100
AcDbLine
 10
-118.992622
 20
0.499907
 30
0.0
 11
-118.441865
 21
0.682815
 31
0.0
  0
SPLINE
  5
23d
100
AcDbEntity
  8
Layer_1
 62
4
100
AcDbSpline
 70
8
 71
3
 72
8
 73
4
 74
0
 40
0
 40
0
 40
0
 40
0
 40
1
 40
1
 40
1
 40
1
 10
-118.441865
 20
0.682815
 30
0.0
 10
-115.716349
 20
1.588043
 30
0.0
 10
-113.991901
 20
4.832611
 30
0.0
 10
-113.482323
 20
10.014493
 30
0.0
  0
SPLINE
  5
23e
100
AcDbEntity
  8
Layer_1
 62
4
100
AcDbSpline
 70
8
 71
3
 72
8
 73
4
 74
0
 40
0
 40
0
 40
0
 40
0
 40
1
 40
1
 40
1
 40
1
 10
-113.482323
 20
10.014493
 30
0.0
 10
-113.417110
 20
10.678280
 30
0.0
 10
-113.322540
 20
13.467990
 30
0.0
 10
-113.272197
 20
16.213719
 30
0.0
  0
SPLINE
  5
23f
100
AcDbEntity
  8
Layer_1
 62
4
100
AcDbSpline
 70
8
 71
3
 72
8
 73
4
 74
0
 40
0
 40
0
 40
0
 40
0
 40
1
 40
1
 40
1
 40
1
 10
-113.272197
 20
16.213719
 30
0.0
 10
-113.172773
 20
21.652697
 30
0.0
 10
-113.122044
 20
22.196093
 30
0.0
 10
-112.440235
 20
25.156161
 30
0.0
  0
SPLINE
  5
240
100
AcDbEntity
  8
Layer_1
 62
4
100
AcDbSpline
 70
8
 71
3
 72
8
 73
4
 74
0
 40
0
 40
0
 40
0
 40
0
 40
1
 40
1
 40
1
 40
1
 10
-112.440235
 20
25.156161
 30
0.0
 10
-111.870298
 20
27.630372
 30
0.0
 10
-110.796891
 20
31.071833
 30
0.0
 10
-109.910595
 20
33.266870
 30
0.0
  0
SPLINE
  5
241
100
AcDbEntity
  8
Layer_1
 62
4
100
AcDbSpline
 70
8
 71
3
 72
8
 73
4
 74
0
 40
0
 40
0
 40
0
 40
0
 40
1
 40
1
 40
1
 40
1
 10
-109.910595
 20
33.266870
 30
0.0
 10
-109.766388
 20
33.624019
 30
0.0
 10
-109.665476
 20
33.933255
 30
0.0
 10
-109.686457
 20
33.954239
 30
0.0
  0
SPLINE
  5
242
100
AcDbEntity
  8
Layer_1
 62
4
100
AcDbSpline
 70
8
 71
3
 72
8
 73
4
 74
0
 40
0
 40
0
 40
0
 40
0
 40
1
 40
1
 40
1
 40
1
 10
-109.686457
 20
33.954239
 30
0.0
 10
-109.747835
 20
34.015695
 30
0.0
 10
-112.291094
 20
28.948743
 30
0.0
 10
-113.261631
 20
26.831602
 30
0.0
  0
SPLINE
  5
243
100
AcDbEntity
  8
Layer_1
 62
4
100
AcDbSpline
 70
8
 71
3
 72
8
 73
4
 74
0
 40
0
 40
0
 40
0
 40
0
 40
1
 40
1
 40
1
 40
1
 10
-113.261631
 20
26.831602
 30
0.0
 10
-115.200354
 20
22.601858
 30
0.0
 10
-115.640254
 20
21.165824
 30
0.0
 10
-116.950482
 20
14.787469
 30
0.0
  0
SPLINE
  5
244
100
AcDbEntity
  8
Layer_1
 62
4
100
AcDbSpline
 70
8
 71
3
 72
8
 73
4
 74
0
 40
0
 40
0
 40
0
 40
0
 40
1
 40
1
 40
1
 40
1
 10
-116.950482
 20
14.787469
 30
0.0
 10
-118.251311
 20
8.455864
 30
0.0
 10
-118.907523
 20
6.631044
 30
0.0
 10
-120.330093
 20
5.391270
 30
0.0
  0
SPLINE
  5
245
100
AcDbEntity
  8
Layer_1
 62
4
100
AcDbSpline
 70
8
 71
3
 72
8
 73
4
 74
0
 40
0
 40
0
 40
0
 40
0
 40
1
 40
1
 40
1
 40
1
 10
-120.330093
 20
5.391270
 30
0.0
 10
-121.548175
 20
4.329522
 30
0.0
 10
-123.590708
 20
4.024129
 30
0.0
 10
-125.690624
 20
4.589618
 30
0.0
  0
SPLINE
  5
246
100
AcDbEntity
  8
Layer_1
 62
4
100
AcDbSpline
 70
8
 71
3
 72
8
 73
4
 74
0
 40
0
 40
0
 40
0
 40
0
 40
1
 40
1
 40
1
 40
1
 10
-125.690624
 20
4.589618
 30
0.0
 10
-127.748815
 20
5.143733
 30
0.0
 10
-129.288345
 20
7.018874
 30
0.0
 10
-129.288345
 20
8.971682
 30
0.0
  0
SPLINE
  5
247
100
AcDbEntity
  8
Layer_1
 62
4
100
AcDbSpline
 70
8
 71
3
 72
8
 73
4
 74
0
 40
0
 40
0
 40
0
 40
0
 40
1
 40
1
 40
1
 40
1
 10
-129.288345
 20
8.971682
 30
0.0
 10
-129.288345
 20
9.547585
 30
0.0
 10
-129.321306
 20
9.629768
 30
0.0
 10
-129.722220
 20
10.050984
 30
0.0
  0
SPLINE
  5
248
100
AcDbEntity
  8
Layer_1
 62
4
100
AcDbSpline
 70
8
 71
3
 72
8
 73
4
 74
0
 40
0
 40
0
 40
0
 40
0
 40
1
 40
1
 40
1
 40
1
 10
-129.722220
 20
10.050984
 30
0.0
 10
-130.916815
 20
11.306930
 30
0.0
 10
-130.089546
 20
13.249183
 30
0.0
 10
-128.280468
 20
13.435676
 30
0.0
  0
SPLINE
  5
249
100
AcDbEntity
  8
Layer_1
 62
4
100
AcDbSpline
 70
8
 71
3
 72
8
 73
4
 74
0
 40
0
 40
0
 40
0
 40
0
 40
1
 40
1
 40
1
 40
1
 10
-128.280468
 20
13.435676
 30
0.0
 10
-127.772222
 20
13.488282
 30
0.0
 10
-127.565542
 20
13.451762
 30
0.0
 10
-127.059961
 20
13.220368
 30
0.0
  0
SPLINE
  5
24a
100
AcDbEntity
  8
Layer_1
 62
4
100
AcDbSpline
 70
8
 71
3
 72
8
 73
4
 74
0
 40
0
 40
0
 40
0
 40
0
 40
1
 40
1
 40
1
 40
1
 10
-127.059961
 20
13.220368
 30
0.0
 10
-126.222983
 20
12.837167
 30
0.0
 10
-125.830759
 20
12.247718
 30
0.0
 10
-125.835692
 20
11.380533
 30
0.0
  0
SPLINE
  5
24b
100
AcDbEntity
  8
Layer_1
 62
4
100
AcDbSpline
 70
8
 71
3
 72
8
 73
4
 74
0
 40
0
 40
0
 40
0
 40
0
 40
1
 40
1
 40
1
 40
1
 10
-125.835692
 20
11.380533
 30
0.0
 10
-125.840546
 20
10.546059
 30
0.0
 10
-126.210145
 20
9.972752
 30
0.0
 10
-126.973920
 20
9.614443
 30
0.0
  0
SPLINE
  5
24c
100
AcDbEntity
  8
Layer_1
 62
4
100
AcDbSpline
 70
8
 71
3
 72
8
 73
4
 74
0
 40
0
 40
0
 40
0
 40
0
 40
1
 40
1
 40
1
 40
1
 10
-126.973920
 20
9.614443
 30
0.0
 10
-127.638508
 20
9.302446
 30
0.0
 10
-127.662384
 20
9.156763
 30
0.0
 10
-127.200409
 20
8.232175
 30
0.0
  0
SPLINE
  5
24d
100
AcDbEntity
  8
Layer_1
 62
4
100
AcDbSpline
 70
8
 71
3
 72
8
 73
4
 74
0
 40
0
 40
0
 40
0
 40
0
 40
1
 40
1
 40
1
 40
1
 10
-127.200409
 20
8.232175
 30
0.0
 10
-126.483212
 20
6.796849
 30
0.0
 10
-124.874709
 20
6.189422
 30
0.0
 10
-123.143447
 20
6.700019
 30
0.0
  0
SPLINE
  5
24e
100
AcDbEntity
  8
Layer_1
 62
4
100
AcDbSpline
 70
8
 71
3
 72
8
 73
4
 74
0
 40
0
 40
0
 40
0
 40
0
 40
1
 40
1
 40
1
 40
1
 10
-123.143447
 20
6.700019
 30
0.0
 10
-121.832985
 20
7.086438
 30
0.0
 10
-120.871923
 20
8.681247
 30
0.0
 10
-120.187139
 20
11.605606
 30
0.0
  0
SPLINE
  5
24f
100
AcDbEntity
  8
Layer_1
 62
4
100
AcDbSpline
 70
8
 71
3
 72
8
 73
4
 74
0
 40
0
 40
0
 40
0
 40
0
 40
1
 40
1
 40
1
 40
1
 10
-120.187139
 20
11.605606
 30
0.0
 10
-120.067200
 20
12.118629
 30
0.0
 10
-119.747239
 20
13.849724
 30
0.0
 10
-119.476362
 20
15.452447
 30
0.0
  0
SPLINE
  5
250
100
AcDbEntity
  8
Layer_1
 62
4
100
AcDbSpline
 70
8
 71
3
 72
8
 73
4
 74
0
 40
0
 40
0
 40
0
 40
0
 40
1
 40
1
 40
1
 40
1
 10
-119.476362
 20
15.452447
 30
0.0
 10
-118.371326
 20
21.991762
 30
0.0
 10
-117.116685
 20
26.833950
 30
0.0
 10
-115.419638
 20
31.111603
 30
0.0
  0
SPLINE
  5
251
100
AcDbEntity
  8
Layer_1
 62
4
100
AcDbSpline
 70
8
 71
3
 72
8
 73
4
 74
0
 40
0
 40
0
 40
0
 40
0
 40
1
 40
1
 40
1
 40
1
 10
-115.419638
 20
31.111603
 30
0.0
 10
-114.981931
 20
32.214288
 30
0.0
 10
-114.657973
 20
33.078354
 30
0.0
 10
-114.699545
 20
33.031536
 30
0.0
  0
SPLINE
  5
252
100
AcDbEntity
  8
Layer_1
 62
4
100
AcDbSpline
 70
8
 71
3
 72
8
 73
4
 74
0
 40
0
 40
0
 40
0
 40
0
 40
1
 40
1
 40
1
 40
1
 10
-114.699545
 20
33.031536
 30
0.0
 10
-114.741116
 20
32.984876
 30
0.0
 10
-115.037983
 20
32.551552
 30
0.0
 10
-115.359355
 20
32.068672
 30
0.0
  0
SPLINE
  5
253
100
AcDbEntity
  8
Layer_1
 62
4
100
AcDbSpline
 70
8
 71
3
 72
8
 73
4
 74
0
 40
0
 40
0
 40
0
 40
0
 40
1
 40
1
 40
1
 40
1
 10
-115.359355
 20
32.068672
 30
0.0
 10
-117.356247
 20
29.068837
 30
0.0
 10
-118.693717
 20
27.858425
 30
0.0
 10
-121.717432
 20
26.314353
 30
0.0
  0
SPLINE
  5
254
100
AcDbEntity
  8
Layer_1
 62
4
100
AcDbSpline
 70
8
 71
3
 72
8
 73
4
 74
0
 40
0
 40
0
 40
0
 40
0
 40
1
 40
1
 40
1
 40
1
 10
-121.717432
 20
26.314353
 30
0.0
 10
-123.152058
 20
25.581812
 30
0.0
 10
-124.453910
 20
25.048279
 30
0.0
 10
-126.819536
 20
24.223360
 30
0.0
  0
SPLINE
  5
255
100
AcDbEntity
  8
Layer_1
 62
4
100
AcDbSpline
 70
8
 71
3
 72
8
 73
4
 74
0
 40
0
 40
0
 40
0
 40
0
 40
1
 40
1
 40
1
 40
1
 10
-126.819536
 20
24.223360
 30
0.0
 10
-128.719741
 20
23.560497
 30
0.0
 10
-129.745782
 20
23.056086
 30
0.0
 10
-130.621433
 20
22.353607
 30
0.0
  0
SPLINE
  5
256
100
AcDbEntity
  8
Layer_1
 62
4
100
AcDbSpline
 70
8
 71
3
 72
8
 73
4
 74
0
 40
0
 40
0
 40
0
 40
0
 40
1
 40
1
 40
1
 40
1
 10
-130.621433
 20
22.353607
 30
0.0
 10
-131.419422
 20
21.713448
 30
0.0
 10
-131.939022
 20
21.087222
 30
0.0
 10
-132.325841
 20
20.299255
 30
0.0
  0
SPLINE
  5
257
100
AcDbEntity
  8
Layer_1
 62
4
100
AcDbSpline
 70
8
 71
3
 72
8
 73
4
 74
0
 40
0
 40
0
 40
0
 40
0
 40
1
 40
1
 40
1
 40
1
 10
-132.325841
 20
20.299255
 30
0.0
 10
-132.595465
 20
19.750299
 30
0.0
 10
-132.713837
 20
19.531015
 30
0.0
 10
-132.713211
 20
18.669379
 30
0.0
  0
SPLINE
  5
258
100
AcDbEntity
  8
Layer_1
 62
4
100
AcDbSpline
 70
8
 71
3
 72
8
 73
4
 74
0
 40
0
 40
0
 40
0
 40
0
 40
1
 40
1
 40
1
 40
1
 10
-132.713211
 20
18.669379
 30
0.0
 10
-132.712646
 20
17.858784
 30
0.0
 10
-132.589281
 20
17.612804
 30
0.0
 10
-132.388079
 20
17.235377
 30
0.0
  0
SPLINE
  5
259
100
AcDbEntity
  8
Layer_1
 62
4
100
AcDbSpline
 70
8
 71
3
 72
8
 73
4
 74
0
 40
0
 40
0
 40
0
 40
0
 40
1
 40
1
 40
1
 40
1
 10
-132.388079
 20
17.235377
 30
0.0
 10
-131.698362
 20
15.940573
 30
0.0
 10
-130.308830
 20
15.770844
 30
0.0
 10
-129.252884
 20
16.852707
 30
0.0
  0
LINE
  5
25a
100
AcDbEntity
  8
Layer_1
 62
4
100
AcDbLine
 10
-129.252884
 20
16.852707
 30
0.0
 11
-128.845471
 21
17.269588
 31
0.0
  0
LINE
  5
25b
100
AcDbEntity
  8
Layer_1
 62
4
100
AcDbLine
 10
-128.845471
 20
17.269588
 30
0.0
 11
-129.039470
 21
17.647015
 31
0.0
  0
SPLINE
  5
25c
100
AcDbEntity
  8
Layer_1
 62
4
100
AcDbSpline
 70
8
 71
3
 72
8
 73
4
 74
0
 40
0
 40
0
 40
0
 40
0
 40
1
 40
1
 40
1
 40
1
 10
-129.039470
 20
17.647015
 30
0.0
 10
-129.153065
 20
17.868024
 30
0.0
 10
-129.231119
 20
18.253982
 30
0.0
 10
-129.228065
 20
18.579269
 30
0.0
  0
SPLINE
  5
25d
100
AcDbEntity
  8
Layer_1
 62
4
100
AcDbSpline
 70
8
 71
3
 72
8
 73
4
 74
0
 40
0
 40
0
 40
0
 40
0
 40
1
 40
1
 40
1
 40
1
 10
-129.228065
 20
18.579269
 30
0.0
 10
-129.210935
 20
20.332605
 30
0.0
 10
-126.867135
 20
21.237223
 30
0.0
 10
-125.485119
 20
20.023761
 30
0.0
  0
SPLINE
  5
25e
100
AcDbEntity
  8
Layer_1
 62
4
100
AcDbSpline
 70
8
 71
3
 72
8
 73
4
 74
0
 40
0
 40
0
 40
0
 40
0
 40
1
 40
1
 40
1
 40
1
 10
-125.485119
 20
20.023761
 30
0.0
 10
-124.578779
 20
19.228041
 30
0.0
 10
-124.543786
 20
17.880549
 30
0.0
 10
-125.408631
 20
17.068468
 30
0.0
  0
SPLINE
  5
25f
100
AcDbEntity
  8
Layer_1
 62
4
100
AcDbSpline
 70
8
 71
3
 72
8
 73
4
 74
0
 40
0
 40
0
 40
0
 40
0
 40
1
 40
1
 40
1
 40
1
 10
-125.408631
 20
17.068468
 30
0.0
 10
-125.706909
 20
16.788430
 30
0.0
 10
-126.502312
 20
16.433319
 30
0.0
 10
-126.831358
 20
16.433319
 30
0.0
  0
SPLINE
  5
260
100
AcDbEntity
  8
Layer_1
 62
4
100
AcDbSpline
 70
8
 71
3
 72
8
 73
4
 74
0
 40
0
 40
0
 40
0
 40
0
 40
1
 40
1
 40
1
 40
1
 10
-126.831358
 20
16.433319
 30
0.0
 10
-126.913013
 20
16.433319
 30
0.0
 10
-127.293884
 20
16.119462
 30
0.0
 10
-127.677728
 20
15.735694
 30
0.0
  0
SPLINE
  5
261
100
AcDbEntity
  8
Layer_1
 62
4
100
AcDbSpline
 70
8
 71
3
 72
8
 73
4
 74
0
 40
0
 40
0
 40
0
 40
0
 40
1
 40
1
 40
1
 40
1
 10
-127.677728
 20
15.735694
 30
0.0
 10
-128.127729
 20
15.285775
 30
0.0
 10
-128.643959
 20
14.905921
 30
0.0
 10
-129.132005
 20
14.665798
 30
0.0
  0
SPLINE
  5
262
100
AcDbEntity
  8
Layer_1
 62
4
100
AcDbSpline
 70
8
 71
3
 72
8
 73
4
 74
0
 40
0
 40
0
 40
0
 40
0
 40
1
 40
1
 40
1
 40
1
 10
-129.132005
 20
14.665798
 30
0.0
 10
-129.823602
 20
14.325635
 30
0.0
 10
-129.997324
 20
14.229680
 30
0.0
 10
-130.901705
 20
14.231062
 30
0.0
  0
SPLINE
  5
263
100
AcDbEntity
  8
Layer_1
 62
4
100
AcDbSpline
 70
8
 71
3
 72
8
 73
4
 74
0
 40
0
 40
0
 40
0
 40
0
 40
1
 40
1
 40
1
 40
1
 10
-130.901705
 20
14.231062
 30
0.0
 10
-131.773208
 20
14.231062
 30
0.0
 10
-131.941996
 20
14.334977
 30
0.0
 10
-132.499405
 20
14.615929
 30
0.0
  0
SPLINE
  5
264
100
AcDbEntity
  8
Layer_1
 62
4
100
AcDbSpline
 70
8
 71
3
 72
8
 73
4
 74
0
 40
0
 40
0
 40
0
 40
0
 40
1
 40
1
 40
1
 40
1
 10
-132.499405
 20
14.615929
 30
0.0
 10
-134.247419
 20
15.496445
 30
0.0
 10
-135.322939
 20
17.720450
 30
0.0
 10
-134.994675
 20
19.775039
 30
0.0
  0
SPLINE
  5
265
100
AcDbEntity
  8
Layer_1
 62
4
100
AcDbSpline
 70
8
 71
3
 72
8
 73
4
 74
0
 40
0
 40
0
 40
0
 40
0
 40
1
 40
1
 40
1
 40
1
 10
-134.994675
 20
19.775039
 30
0.0
 10
-134.851253
 20
20.673315
 30
0.0
 10
-134.363440
 20
21.978062
 30
0.0
 10
-133.856685
 20
22.819658
 30
0.0
  0
SPLINE
  5
266
100
AcDbEntity
  8
Layer_1
 62
4
100
AcDbSpline
 70
8
 71
3
 72
8
 73
4
 74
0
 40
0
 40
0
 40
0
 40
0
 40
1
 40
1
 40
1
 40
1
 10
-133.856685
 20
22.819658
 30
0.0
 10
-133.299900
 20
23.744551
 30
0.0
 10
-132.717986
 20
24.395124
 30
0.0
 10
-131.866761
 20
25.044523
 30
0.0
  0
SPLINE
  5
267
100
AcDbEntity
  8
Layer_1
 62
4
100
AcDbSpline
 70
8
 71
3
 72
8
 73
4
 74
0
 40
0
 40
0
 40
0
 40
0
 40
1
 40
1
 40
1
 40
1
 10
-131.866761
 20
25.044523
 30
0.0
 10
-130.605307
 20
26.006994
 30
0.0
 10
-130.134718
 20
26.233793
 30
0.0
 10
-126.161213
 20
27.793915
 30
0.0
  0
SPLINE
  5
268
100
AcDbEntity
  8
Layer_1
 62
4
100
AcDbSpline
 70
8
 71
3
 72
8
 73
4
 74
0
 40
0
 40
0
 40
0
 40
0
 40
1
 40
1
 40
1
 40
1
 10
-126.161213
 20
27.793915
 30
0.0
 10
-122.409811
 20
29.266434
 30
0.0
 10
-120.583198
 20
30.638509
 30
0.0
 10
-118.300946
 20
33.698314
 30
0.0
  0
SPLINE
  5
269
100
AcDbEntity
  8
Layer_1
 62
4
100
AcDbSpline
 70
8
 71
3
 72
8
 73
4
 74
0
 40
0
 40
0
 40
0
 40
0
 40
1
 40
1
 40
1
 40
1
 10
-118.300946
 20
33.698314
 30
0.0
 10
-117.722478
 20
34.473835
 30
0.0
 10
-116.711547
 20
36.002641
 30
0.0
 10
-116.054398
 20
37.095699
 30
0.0
  0
SPLINE
  5
26a
100
AcDbEntity
  8
Layer_1
 62
4
100
AcDbSpline
 70
8
 71
3
 72
8
 73
4
 74
0
 40
0
 40
0
 40
0
 40
0
 40
1
 40
1
 40
1
 40
1
 10
-116.054398
 20
37.095699
 30
0.0
 10
-114.914914
 20
38.991363
 30
0.0
 10
-112.467085
 20
43.720110
 30
0.0
 10
-111.574682
 20
45.749804
 30
0.0
  0
LINE
  5
26b
100
AcDbEntity
  8
Layer_1
 62
4
100
AcDbLine
 10
-111.574682
 20
45.749804
 30
0.0
 11
-111.155528
 21
46.702962
 31
0.0
  0
LINE
  5
26c
100
AcDbEntity
  8
Layer_1
 62
4
100
AcDbLine
 10
-111.155528
 20
46.702962
 30
0.0
 11
-111.886345
 21
47.423052
 31
0.0
  0
SPLINE
  5
26d
100
AcDbEntity
  8
Layer_1
 62
4
100
AcDbSpline
 70
8
 71
3
 72
8
 73
4
 74
0
 40
0
 40
0
 40
0
 40
0
 40
1
 40
1
 40
1
 40
1
 10
-111.886345
 20
47.423052
 30
0.0
 10
-112.288199
 20
47.819032
 30
0.0
 10
-112.642060
 20
48.143068
 30
0.0
 10
-112.672749
 20
48.143068
 30
0.0
  0
SPLINE
  5
26e
100
AcDbEntity
  8
Layer_1
 62
4
100
AcDbSpline
 70
8
 71
3
 72
8
 73
4
 74
0
 40
0
 40
0
 40
0
 40
0
 40
1
 40
1
 40
1
 40
1
 10
-112.672749
 20
48.143068
 30
0.0
 10
-112.703280
 20
48.143068
 30
0.0
 10
-113.080549
 20
47.895833
 30
0.0
 10
-113.510977
 20
47.593406
 30
0.0
  0
LINE
  5
26f
100
AcDbEntity
  8
Layer_1
 62
4
100
AcDbLine
 10
-113.510977
 20
47.593406
 30
0.0
 11
-114.293622
 21
47.043906
 31
0.0
  0
LINE
  5
270
100
AcDbEntity
  8
Layer_1
 62
4
100
AcDbLine
 10
-114.293622
 20
47.043906
 30
0.0
 11
-115.180155
 21
47.890276
 31
0.0
  0
SPLINE
  5
271
100
AcDbEntity
  8
Layer_1
 62
4
100
AcDbSpline
 70
8
 71
3
 72
8
 73
4
 74
0
 40
0
 40
0
 40
0
 40
0
 40
1
 40
1
 40
1
 40
1
 10
-115.180155
 20
47.890276
 30
0.0
 10
-115.667889
 20
48.355618
 30
0.0
 10
-116.621123
 20
49.275894
 30
0.0
 10
-117.298628
 20
49.935157
 30
0.0
  0
LINE
  5
272
100
AcDbEntity
  8
Layer_1
 62
4
100
AcDbLine
 10
-117.298628
 20
49.935157
 30
0.0
 11
-118.530489
 21
51.133743
 31
0.0
  0
LINE
  5
273
100
AcDbEntity
  8
Layer_1
 62
4
100
AcDbLine
 10
-118.530489
 20
51.133743
 30
0.0
 11
-118.331401
 21
51.421531
 31
0.0
  0
SPLINE
  5
274
100
AcDbEntity
  8
Layer_1
 62
4
100
AcDbSpline
 70
8
 71
3
 72
8
 73
4
 74
0
 40
0
 40
0
 40
0
 40
0
 40
1
 40
1
 40
1
 40
1
 10
-118.331401
 20
51.421531
 30
0.0
 10
-118.221720
 20
51.579595
 30
0.0
 10
-117.533335
 20
52.555923
 30
0.0
 10
-116.801499
 20
53.591046
 30
0.0
  0
LINE
  5
275
100
AcDbEntity
  8
Layer_1
 62
4
100
AcDbLine
 10
-116.801499
 20
53.591046
 30
0.0
 11
-115.470838
 21
55.473088
 31
0.0
  0
LINE
  5
276
100
AcDbEntity
  8
Layer_1
 62
4
100
AcDbLine
 10
-115.470838
 20
55.473088
 30
0.0
 11
-116.308988
 21
57.541065
 31
0.0
  0
SPLINE
  5
277
100
AcDbEntity
  8
Layer_1
 62
4
100
AcDbSpline
 70
8
 71
3
 72
8
 73
4
 74
0
 40
0
 40
0
 40
0
 40
0
 40
1
 40
1
 40
1
 40
1
 10
-116.308988
 20
57.541065
 30
0.0
 10
-116.770105
 20
58.678511
 30
0.0
 10
-117.163971
 20
59.630258
 30
0.0
 10
-117.184249
 20
59.655858
 30
0.0
  0
SPLINE
  5
278
100
AcDbEntity
  8
Layer_1
 62
4
100
AcDbSpline
 70
8
 71
3
 72
8
 73
4
 74
0
 40
0
 40
0
 40
0
 40
0
 40
1
 40
1
 40
1
 40
1
 10
-117.184249
 20
59.655858
 30
0.0
 10
-117.204513
 20
59.681766
 30
0.0
 10
-118.358409
 20
59.910058
 30
0.0
 10
-119.748179
 20
60.163398
 30
0.0
  0
SPLINE
  5
279
100
AcDbEntity
  8
Layer_1
 62
4
100
AcDbSpline
 70
8
 71
3
 72
8
 73
4
 74
0
 40
0
 40
0
 40
0
 40
0
 40
1
 40
1
 40
1
 40
1
 10
-119.748179
 20
60.163398
 30
0.0
 10
-121.138103
 20
60.416659
 30
0.0
 10
-122.291207
 20
60.642600
 30
0.0
 10
-122.310463
 20
60.665223
 30
0.0
  0
SPLINE
  5
27a
100
AcDbEntity
  8
Layer_1
 62
4
100
AcDbSpline
 70
8
 71
3
 72
8
 73
4
 74
0
 40
0
 40
0
 40
0
 40
0
 40
1
 40
1
 40
1
 40
1
 10
-122.310463
 20
60.665223
 30
0.0
 10
-122.329795
 20
60.687773
 30
0.0
 10
-122.378419
 20
61.998782
 30
0.0
 10
-122.418266
 20
63.578397
 30
0.0
  0
SPLINE
  5
27b
100
AcDbEntity
  8
Layer_1
 62
4
100
AcDbSpline
 70
8
 71
3
 72
8
 73
4
 74
0
 40
0
 40
0
 40
0
 40
0
 40
1
 40
1
 40
1
 40
1
 10
-122.418266
 20
63.578397
 30
0.0
 10
-122.486141
 20
66.268917
 30
0.0
 10
-122.478549
 20
66.453835
 30
0.0
 10
-122.296216
 20
66.508400
 30
0.0
  0
SPLINE
  5
27c
100
AcDbEntity
  8
Layer_1
 62
4
100
AcDbSpline
 70
8
 71
3
 72
8
 73
4
 74
0
 40
0
 40
0
 40
0
 40
0
 40
1
 40
1
 40
1
 40
1
 10
-122.296216
 20
66.508400
 30
0.0
 10
-122.189198
 20
66.540500
 30
0.0
 10
-120.966024
 20
66.770979
 30
0.0
 10
-119.578058
 20
67.021031
 30
0.0
  0
SPLINE
  5
27d
100
AcDbEntity
  8
Layer_1
 62
4
100
AcDbSpline
 70
8
 71
3
 72
8
 73
4
 74
0
 40
0
 40
0
 40
0
 40
0
 40
1
 40
1
 40
1
 40
1
 10
-119.578058
 20
67.021031
 30
0.0
 10
-118.190092
 20
67.270925
 30
0.0
 10
-117.017574
 20
67.510018
 30
0.0
 10
-116.972557
 20
67.552137
 30
0.0
  0
SPLINE
  5
27e
100
AcDbEntity
  8
Layer_1
 62
4
100
AcDbSpline
 70
8
 71
3
 72
8
 73
4
 74
0
 40
0
 40
0
 40
0
 40
0
 40
1
 40
1
 40
1
 40
1
 10
-116.972557
 20
67.552137
 30
0.0
 10
-116.927698
 20
67.594411
 30
0.0
 10
-116.552622
 20
68.496523
 30
0.0
 10
-116.139338
 20
69.556778
 30
0.0
  0
LINE
  5
27f
100
AcDbEntity
  8
Layer_1
 62
4
100
AcDbLine
 10
-116.139338
 20
69.556778
 30
0.0
 11
-115.387775
 21
71.484694
 31
0.0
  0
LINE
  5
280
100
AcDbEntity
  8
Layer_1
 62
4
100
AcDbLine
 10
-115.387775
 20
71.484694
 30
0.0
 11
-116.975845
 21
73.706743
 31
0.0
  0
LINE
  5
281
100
AcDbEntity
  8
Layer_1
 62
4
100
AcDbLine
 10
-116.975845
 20
73.706743
 30
0.0
 11
-118.563760
 21
75.928868
 31
0.0
  0
LINE
  5
282
100
AcDbEntity
  8
Layer_1
 62
4
100
AcDbLine
 10
-118.563760
 20
75.928868
 30
0.0
 11
-116.480361
 21
78.012345
 31
0.0
  0
LINE
  5
283
100
AcDbEntity
  8
Layer_1
 62
4
100
AcDbLine
 10
-116.480361
 20
78.012345
 30
0.0
 11
-114.396805
 21
80.095743
 31
0.0
  0
LINE
  5
284
100
AcDbEntity
  8
Layer_1
 62
4
100
AcDbLine
 10
-114.396805
 20
80.095743
 30
0.0
 11
-112.141799
 21
78.547991
 31
0.0
  0
SPLINE
  5
285
100
AcDbEntity
  8
Layer_1
 62
4
100
AcDbSpline
 70
8
 71
3
 72
8
 73
4
 74
0
 40
0
 40
0
 40
0
 40
0
 40
1
 40
1
 40
1
 40
1
 10
-112.141799
 20
78.547991
 30
0.0
 10
-110.901483
 20
77.696688
 30
0.0
 10
-109.826436
 20
76.999923
 30
0.0
 10
-109.753002
 20
76.999923
 30
0.0
  0
SPLINE
  5
286
100
AcDbEntity
  8
Layer_1
 62
4
100
AcDbSpline
 70
8
 71
3
 72
8
 73
4
 74
0
 40
0
 40
0
 40
0
 40
0
 40
1
 40
1
 40
1
 40
1
 10
-109.753002
 20
76.999923
 30
0.0
 10
-109.679489
 20
76.999923
 30
0.0
 10
-108.798123
 20
77.347681
 30
0.0
 10
-107.794470
 20
77.772628
 30
0.0
  0
LINE
  5
287
100
AcDbEntity
  8
Layer_1
 62
4
100
AcDbLine
 10
-107.794470
 20
77.772628
 30
0.0
 11
-105.969737
 21
78.545330
 31
0.0
  0
LINE
  5
288
100
AcDbEntity
  8
Layer_1
 62
4
100
AcDbLine
 10
-105.969737
 20
78.545330
 30
0.0
 11
-105.418509
 21
81.311243
 31
0.0
  0
LINE
  5
289
100
AcDbEntity
  8
Layer_1
 62
4
100
AcDbLine
 10
-105.418509
 20
81.311243
 30
0.0
 11
-104.867363
 21
84.076998
 31
0.0
  0
LINE
  5
28a
100
AcDbEntity
  8
Layer_1
 62
4
100
AcDbLine
 10
-104.867363
 20
84.076998
 30
0.0
 11
-102.024180
 21
84.076998
 31
0.0
  0
LINE
  5
28b
100
AcDbEntity
  8
Layer_1
 62
4
100
AcDbLine
 10
-102.024180
 20
84.076998
 30
0.0
 11
-99.180997
 21
84.076998
 31
0.0
  0
LINE
  5
28c
100
AcDbEntity
  8
Layer_1
 62
4
100
AcDbLine
 10
-99.180997
 20
84.076998
 30
0.0
 11
-98.641749
 21
81.313749
 31
0.0
  0
LINE
  5
28d
100
AcDbEntity
  8
Layer_1
 62
4
100
AcDbLine
 10
-98.641749
 20
81.313749
 30
0.0
 11
-98.102268
 21
78.550498
 31
0.0
  0
LINE
  5
28e
100
AcDbEntity
  8
Layer_1
 62
4
100
AcDbLine
 10
-98.102268
 20
78.550498
 30
0.0
 11
-96.181237
 21
77.779359
 31
0.0
  0
LINE
  5
28f
100
AcDbEntity
  8
Layer_1
 62
4
100
AcDbLine
 10
-96.181237
 20
77.779359
 30
0.0
 11
-94.260207
 21
77.008145
 31
0.0
  0
LINE
  5
290
100
AcDbEntity
  8
Layer_1
 62
4
100
AcDbLine
 10
-94.260207
 20
77.008145
 30
0.0
 11
-91.926289
 21
78.593240
 31
0.0
  0
LINE
  5
291
100
AcDbEntity
  8
Layer_1
 62
4
100
AcDbLine
 10
-91.926289
 20
78.593240
 30
0.0
 11
-89.592446
 21
80.178415
 31
0.0
  0
LINE
  5
292
100
AcDbEntity
  8
Layer_1
 62
4
100
AcDbLine
 10
-89.592446
 20
80.178415
 30
0.0
 11
-87.553357
 21
78.094548
 31
0.0
  0
LINE
  5
293
100
AcDbEntity
  8
Layer_1
 62
4
100
AcDbLine
 10
-87.553357
 20
78.094548
 30
0.0
 11
-85.514270
 21
76.010757
 31
0.0
  0
LINE
  5
294
100
AcDbEntity
  8
Layer_1
 62
4
100
AcDbLine
 10
-85.514270
 20
76.010757
 30
0.0
 11
-86.752865
 21
74.119007
 31
0.0
  0
SPLINE
  5
295
100
AcDbEntity
  8
Layer_1
 62
4
100
AcDbSpline
 70
8
 71
3
 72
8
 73
4
 74
0
 40
0
 40
0
 40
0
 40
0
 40
1
 40
1
 40
1
 40
1
 10
-86.752865
 20
74.119007
 30
0.0
 10
-87.434126
 20
73.078482
 30
0.0
 10
-88.124939
 20
72.026056
 30
0.0
 10
-88.288012
 20
71.780232
 30
0.0
  0
LINE
  5
296
100
AcDbEntity
  8
Layer_1
 62
4
100
AcDbLine
 10
-88.288012
 20
71.780232
 30
0.0
 11
-88.584803
 21
71.333209
 31
0.0
  0
LINE
  5
297
100
AcDbEntity
  8
Layer_1
 62
4
100
AcDbLine
 10
-88.584803
 20
71.333209
 30
0.0
 11
-87.774052
 21
69.421182
 31
0.0
  0
LINE
  5
298
100
AcDbEntity
  8
Layer_1
 62
4
100
AcDbLine
 10
-87.774052
 20
69.421182
 30
0.0
 11
-86.963380
 21
67.509157
 31
0.0
  0
LINE
  5
299
100
AcDbEntity
  8
Layer_1
 62
4
100
AcDbLine
 10
-86.963380
 20
67.509157
 30
0.0
 11
-84.302922
 21
67.047961
 31
0.0
  0
SPLINE
  5
29a
100
AcDbEntity
  8
Layer_1
 62
4
100
AcDbSpline
 70
8
 71
3
 72
8
 73
4
 74
0
 40
0
 40
0
 40
0
 40
0
 40
1
 40
1
 40
1
 40
1
 10
-84.302922
 20
67.047961
 30
0.0
 10
-82.839797
 20
66.794387
 30
0.0
 10
-81.626179
 20
66.570404
 30
0.0
 10
-81.606057
 20
66.550205
 30
0.0
  0
SPLINE
  5
29b
100
AcDbEntity
  8
Layer_1
 62
4
100
AcDbSpline
 70
8
 71
3
 72
8
 73
4
 74
0
 40
0
 40
0
 40
0
 40
0
 40
1
 40
1
 40
1
 40
1
 10
-81.606057
 20
66.550205
 30
0.0
 10
-81.580601
 20
66.524777
 30
0.0
 10
-81.504206
 20
62.100241
 30
0.0
 10
-81.504206
 20
60.649802
 30
0.0
  0
SPLINE
  5
29c
100
AcDbEntity
  8
Layer_1
 62
4
100
AcDbSpline
 70
8
 71
3
 72
8
 73
4
 74
0
 40
0
 40
0
 40
0
 40
0
 40
1
 40
1
 40
1
 40
1
 10
-81.504206
 20
60.649802
 30
0.0
 10
-81.504206
 20
60.648956
 30
0.0
 10
-82.659736
 20
60.453768
 30
0.0
 10
-84.072363
 20
60.215773
 30
0.0
  0
SPLINE
  5
29d
100
AcDbEntity
  8
Layer_1
 62
4
100
AcDbSpline
 70
8
 71
3
 72
8
 73
4
 74
0
 40
0
 40
0
 40
0
 40
0
 40
1
 40
1
 40
1
 40
1
 10
-84.072363
 20
60.215773
 30
0.0
 10
-85.484835
 20
59.977933
 30
0.0
 10
-86.674418
 20
59.744089
 30
0.0
 10
-86.716148
 20
59.696097
 30
0.0
  0
SPLINE
  5
29e
100
AcDbEntity
  8
Layer_1
 62
4
100
AcDbSpline
 70
8
 71
3
 72
8
 73
4
 74
0
 40
0
 40
0
 40
0
 40
0
 40
1
 40
1
 40
1
 40
1
 10
-86.716148
 20
59.696097
 30
0.0
 10
-86.757795
 20
59.648184
 30
0.0
 10
-87.176638
 20
58.713820
 30
0.0
 10
-87.646914
 20
57.619822
 30
0.0
  0
LINE
  5
29f
100
AcDbEntity
  8
Layer_1
 62
4
100
AcDbLine
 10
-87.646914
 20
57.619822
 30
0.0
 11
-88.502442
 21
55.630446
 31
0.0
  0
LINE
  5
2a0
100
AcDbEntity
  8
Layer_1
 62
4
100
AcDbLine
 10
-88.502442
 20
55.630446
 30
0.0
 11
-87.004638
 21
53.414663
 31
0.0
  0
LINE
  5
2a1
100
AcDbEntity
  8
Layer_1
 62
4
100
AcDbLine
 10
-87.004638
 20
53.414663
 30
0.0
 11
-85.506755
 21
51.198959
 31
0.0
  0
LINE
  5
2a2
100
AcDbEntity
  8
Layer_1
 62
4
100
AcDbLine
 10
-85.506755
 20
51.198959
 30
0.0
 11
-87.502393
 21
49.123466
 31
0.0
  0
LINE
  5
2a3
100
AcDbEntity
  8
Layer_1
 62
4
100
AcDbLine
 10
-87.502393
 20
49.123466
 30
0.0
 11
-89.497953
 21
47.047975
 31
0.0
  0
LINE
  5
2a4
100
AcDbEntity
  8
Layer_1
 62
4
100
AcDbLine
 10
-89.497953
 20
47.047975
 30
0.0
 11
-89.993749
 21
47.338111
 31
0.0
  0
LINE
  5
2a5
100
AcDbEntity
  8
Layer_1
 62
4
100
AcDbLine
 10
-89.993749
 20
47.338111
 30
0.0
 11
-90.489233
 21
47.628715
 31
0.0
  0
LINE
  5
2a6
100
AcDbEntity
  8
Layer_1
 62
4
100
AcDbLine
 10
-90.489233
 20
47.628715
 30
0.0
 11
-90.769660
 21
47.255750
 31
0.0
  0
SPLINE
  5
2a7
100
AcDbEntity
  8
Layer_1
 62
4
100
AcDbSpline
 70
8
 71
3
 72
8
 73
4
 74
0
 40
0
 40
0
 40
0
 40
0
 40
1
 40
1
 40
1
 40
1
 10
-90.769660
 20
47.255750
 30
0.0
 10
-90.923889
 20
47.050637
 30
0.0
 10
-91.264207
 20
46.650508
 30
0.0
 10
-91.526081
 20
46.366479
 30
0.0
  0
LINE
  5
2a8
100
AcDbEntity
  8
Layer_1
 62
4
100
AcDbLine
 10
-91.526081
 20
46.366479
 30
0.0
 11
-92.002226
 21
45.850092
 31
0.0
  0
LINE
  5
2a9
100
AcDbEntity
  8
Layer_1
 62
4
100
AcDbLine
 10
-92.002226
 20
45.850092
 30
0.0
 11
-90.275509
 21
43.403202
 31
0.0
  0
SPLINE
  5
2aa
100
AcDbEntity
  8
Layer_1
 62
4
100
AcDbSpline
 70
8
 71
3
 72
8
 73
4
 74
0
 40
0
 40
0
 40
0
 40
0
 40
1
 40
1
 40
1
 40
1
 10
-90.275509
 20
43.403202
 30
0.0
 10
-83.812213
 20
34.244061
 30
0.0
 10
-79.903608
 20
29.867373
 30
0.0
 10
-76.347145
 20
27.806835
 30
0.0
  0
SPLINE
  5
2ab
100
AcDbEntity
  8
Layer_1
 62
4
100
AcDbSpline
 70
8
 71
3
 72
8
 73
4
 74
0
 40
0
 40
0
 40
0
 40
0
 40
1
 40
1
 40
1
 40
1
 10
-76.347145
 20
27.806835
 30
0.0
 10
-75.234515
 20
27.162211
 30
0.0
 10
-73.872463
 20
26.586952
 30
0.0
 10
-72.735877
 20
26.281472
 30
0.0
  0
SPLINE
  5
2ac
100
AcDbEntity
  8
Layer_1
 62
4
100
AcDbSpline
 70
8
 71
3
 72
8
 73
4
 74
0
 40
0
 40
0
 40
0
 40
0
 40
1
 40
1
 40
1
 40
1
 10
-72.735877
 20
26.281472
 30
0.0
 10
-71.458765
 20
25.938335
 30
0.0
 10
-69.136980
 20
25.940606
 30
0.0
 10
-67.921717
 20
26.286241
 30
0.0
  0
SPLINE
  5
2ad
100
AcDbEntity
  8
Layer_1
 62
4
100
AcDbSpline
 70
8
 71
3
 72
8
 73
4
 74
0
 40
0
 40
0
 40
0
 40
0
 40
1
 40
1
 40
1
 40
1
 10
-67.921717
 20
26.286241
 30
0.0
 10
-66.864828
 20
26.587025
 30
0.0
 10
-65.849669
 20
27.039763
 30
0.0
 10
-64.754890
 20
27.698792
 30
0.0
  0
SPLINE
  5
2ae
100
AcDbEntity
  8
Layer_1
 62
4
100
AcDbSpline
 70
8
 71
3
 72
8
 73
4
 74
0
 40
0
 40
0
 40
0
 40
0
 40
1
 40
1
 40
1
 40
1
 10
-64.754890
 20
27.698792
 30
0.0
 10
-63.927934
 20
28.196389
 30
0.0
 10
-63.917288
 20
28.208838
 30
0.0
 10
-64.027674
 20
28.525669
 30
0.0
  0
SPLINE
  5
2af
100
AcDbEntity
  8
Layer_1
 62
4
100
AcDbSpline
 70
8
 71
3
 72
8
 73
4
 74
0
 40
0
 40
0
 40
0
 40
0
 40
1
 40
1
 40
1
 40
1
 10
-64.027674
 20
28.525669
 30
0.0
 10
-64.459903
 20
29.765200
 30
0.0
 10
-63.308834
 20
31.136100
 30
0.0
 10
-61.836159
 20
31.136100
 30
0.0
  0
SPLINE
  5
2b0
100
AcDbEntity
  8
Layer_1
 62
4
100
AcDbSpline
 70
8
 71
3
 72
8
 73
4
 74
0
 40
0
 40
0
 40
0
 40
0
 40
1
 40
1
 40
1
 40
1
 10
-61.836159
 20
31.136100
 30
0.0
 10
-60.108344
 20
31.136100
 30
0.0
 10
-59.036506
 20
29.355442
 30
0.0
 10
-59.956545
 20
28.012724
 30
0.0
  0
SPLINE
  5
2b1
100
AcDbEntity
  8
Layer_1
 62
4
100
AcDbSpline
 70
8
 71
3
 72
8
 73
4
 74
0
 40
0
 40
0
 40
0
 40
0
 40
1
 40
1
 40
1
 40
1
 10
-59.956545
 20
28.012724
 30
0.0
 10
-60.389087
 20
27.381413
 30
0.0
 10
-60.870400
 20
27.138719
 30
0.0
 10
-61.780341
 20
27.092685
 30
0.0
  0
LINE
  5
2b2
100
AcDbEntity
  8
Layer_1
 62
4
100
AcDbLine
 10
-61.780341
 20
27.092685
 30
0.0
 11
-62.594301
 21
27.051662
 31
0.0
  0
LINE
  5
2b3
100
AcDbEntity
  8
Layer_1
 62
4
100
AcDbLine
 10
-62.594301
 20
27.051662
 30
0.0
 11
-63.326213
 21
26.319984
 31
0.0
  0
SPLINE
  5
2b4
100
AcDbEntity
  8
Layer_1
 62
4
100
AcDbSpline
 70
8
 71
3
 72
8
 73
4
 74
0
 40
0
 40
0
 40
0
 40
0
 40
1
 40
1
 40
1
 40
1
 10
-63.326213
 20
26.319984
 30
0.0
 10
-65.142965
 20
24.503469
 30
0.0
 10
-68.621377
 20
23.580376
 30
0.0
 10
-72.484807
 20
23.888752
 30
0.0
  0
SPLINE
  5
2b5
100
AcDbEntity
  8
Layer_1
 62
4
100
AcDbSpline
 70
8
 71
3
 72
8
 73
4
 74
0
 40
0
 40
0
 40
0
 40
0
 40
1
 40
1
 40
1
 40
1
 10
-72.484807
 20
23.888752
 30
0.0
 10
-75.096023
 20
24.097232
 30
0.0
 10
-77.913763
 20
24.699345
 30
0.0
 10
-79.113995
 20
25.305214
 30
0.0
  0
SPLINE
  5
2b6
100
AcDbEntity
  8
Layer_1
 62
4
100
AcDbSpline
 70
8
 71
3
 72
8
 73
4
 74
0
 40
0
 40
0
 40
0
 40
0
 40
1
 40
1
 40
1
 40
1
 10
-79.113995
 20
25.305214
 30
0.0
 10
-81.301127
 20
26.409310
 30
0.0
 10
-84.253835
 20
29.538714
 30
0.0
 10
-87.254924
 20
33.933955
 30
0.0
  0
SPLINE
  5
2b7
100
AcDbEntity
  8
Layer_1
 62
4
100
AcDbSpline
 70
8
 71
3
 72
8
 73
4
 74
0
 40
0
 40
0
 40
0
 40
0
 40
1
 40
1
 40
1
 40
1
 10
-87.254924
 20
33.933955
 30
0.0
 10
-87.743050
 20
34.648333
 30
0.0
 10
-88.142318
 20
35.199011
 30
0.0
 10
-88.142318
 20
35.157598
 30
0.0
  0
SPLINE
  5
2b8
100
AcDbEntity
  8
Layer_1
 62
4
100
AcDbSpline
 70
8
 71
3
 72
8
 73
4
 74
0
 40
0
 40
0
 40
0
 40
0
 40
1
 40
1
 40
1
 40
1
 10
-88.142318
 20
35.157598
 30
0.0
 10
-88.142318
 20
35.029988
 30
0.0
 10
-87.080575
 20
32.958096
 30
0.0
 10
-86.089767
 20
31.151995
 30
0.0
  0
SPLINE
  5
2b9
100
AcDbEntity
  8
Layer_1
 62
4
100
AcDbSpline
 70
8
 71
3
 72
8
 73
4
 74
0
 40
0
 40
0
 40
0
 40
0
 40
1
 40
1
 40
1
 40
1
 10
-86.089767
 20
31.151995
 30
0.0
 10
-83.737368
 20
26.863927
 30
0.0
 10
-81.894863
 20
24.509260
 30
0.0
 10
-80.236802
 20
23.672443
 30
0.0
  0
SPLINE
  5
2ba
100
AcDbEntity
  8
Layer_1
 62
4
100
AcDbSpline
 70
8
 71
3
 72
8
 73
4
 74
0
 40
0
 40
0
 40
0
 40
0
 40
1
 40
1
 40
1
 40
1
 10
-80.236802
 20
23.672443
 30
0.0
 10
-79.422842
 20
23.261666
 30
0.0
 10
-77.930440
 20
22.895589
 30
0.0
 10
-75.551033
 20
22.523722
 30
0.0
  0
SPLINE
  5
2bb
100
AcDbEntity
  8
Layer_1
 62
4
100
AcDbSpline
 70
8
 71
3
 72
8
 73
4
 74
0
 40
0
 40
0
 40
0
 40
0
 40
1
 40
1
 40
1
 40
1
 10
-75.551033
 20
22.523722
 30
0.0
 10
-69.922523
 20
21.643688
 30
0.0
 10
-67.842646
 20
20.983878
 30
0.0
 10
-66.377566
 20
19.613212
 30
0.0
  0
SPLINE
  5
2bc
100
AcDbEntity
  8
Layer_1
 62
4
100
AcDbSpline
 70
8
 71
3
 72
8
 73
4
 74
0
 40
0
 40
0
 40
0
 40
0
 40
1
 40
1
 40
1
 40
1
 10
-66.377566
 20
19.613212
 30
0.0
 10
-65.887560
 20
19.154915
 30
0.0
 10
-65.587406
 20
18.757994
 30
0.0
 10
-65.365145
 20
18.273628
 30
0.0
  0
SPLINE
  5
2bd
100
AcDbEntity
  8
Layer_1
 62
4
100
AcDbSpline
 70
8
 71
3
 72
8
 73
4
 74
0
 40
0
 40
0
 40
0
 40
0
 40
1
 40
1
 40
1
 40
1
 10
-65.365145
 20
18.273628
 30
0.0
 10
-65.081977
 20
17.657658
 30
0.0
 10
-65.049332
 20
17.470392
 30
0.0
 10
-65.053247
 20
16.488036
 30
0.0
  0
SPLINE
  5
2be
100
AcDbEntity
  8
Layer_1
 62
4
100
AcDbSpline
 70
8
 71
3
 72
8
 73
4
 74
0
 40
0
 40
0
 40
0
 40
0
 40
1
 40
1
 40
1
 40
1
 10
-65.053247
 20
16.488036
 30
0.0
 10
-65.056916
 20
15.558365
 30
0.0
 10
-65.103350
 20
15.273868
 30
0.0
 10
-65.358569
 20
14.622815
 30
0.0
  0
SPLINE
  5
2bf
100
AcDbEntity
  8
Layer_1
 62
4
100
AcDbSpline
 70
8
 71
3
 72
8
 73
4
 74
0
 40
0
 40
0
 40
0
 40
0
 40
1
 40
1
 40
1
 40
1
 10
-65.358569
 20
14.622815
 30
0.0
 10
-66.500163
 20
11.709661
 30
0.0
 10
-68.951752
 20
10.183657
 30
0.0
 10
-71.596083
 20
10.740679
 30
0.0
  0
SPLINE
  5
2c0
100
AcDbEntity
  8
Layer_1
 62
4
100
AcDbSpline
 70
8
 71
3
 72
8
 73
4
 74
0
 40
0
 40
0
 40
0
 40
0
 40
1
 40
1
 40
1
 40
1
 10
-71.596083
 20
10.740679
 30
0.0
 10
-73.409310
 20
11.122328
 30
0.0
 10
-74.890204
 20
12.548284
 30
0.0
 10
-75.298633
 20
14.306077
 30
0.0
  0
SPLINE
  5
2c1
100
AcDbEntity
  8
Layer_1
 62
4
100
AcDbSpline
 70
8
 71
3
 72
8
 73
4
 74
0
 40
0
 40
0
 40
0
 40
0
 40
1
 40
1
 40
1
 40
1
 10
-75.298633
 20
14.306077
 30
0.0
 10
-75.419433
 20
14.826218
 30
0.0
 10
-75.460140
 20
14.876242
 30
0.0
 10
-75.862462
 20
14.996805
 30
0.0
  0
SPLINE
  5
2c2
100
AcDbEntity
  8
Layer_1
 62
4
100
AcDbSpline
 70
8
 71
3
 72
8
 73
4
 74
0
 40
0
 40
0
 40
0
 40
0
 40
1
 40
1
 40
1
 40
1
 10
-75.862462
 20
14.996805
 30
0.0
 10
-76.400378
 20
15.158081
 30
0.0
 10
-77.044846
 20
15.711733
 30
0.0
 10
-77.241191
 20
16.181224
 30
0.0
  0
SPLINE
  5
2c3
100
AcDbEntity
  8
Layer_1
 62
4
100
AcDbSpline
 70
8
 71
3
 72
8
 73
4
 74
0
 40
0
 40
0
 40
0
 40
0
 40
1
 40
1
 40
1
 40
1
 10
-77.241191
 20
16.181224
 30
0.0
 10
-77.573838
 20
16.977570
 30
0.0
 10
-77.359719
 20
17.784328
 30
0.0
 10
-76.644638
 20
18.429575
 30
0.0
  0
SPLINE
  5
2c4
100
AcDbEntity
  8
Layer_1
 62
4
100
AcDbSpline
 70
8
 71
3
 72
8
 73
4
 74
0
 40
0
 40
0
 40
0
 40
0
 40
1
 40
1
 40
1
 40
1
 10
-76.644638
 20
18.429575
 30
0.0
 10
-76.141168
 20
18.883724
 30
0.0
 10
-75.692968
 20
19.007262
 30
0.0
 10
-74.812855
 20
18.934299
 30
0.0
  0
SPLINE
  5
2c5
100
AcDbEntity
  8
Layer_1
 62
4
100
AcDbSpline
 70
8
 71
3
 72
8
 73
4
 74
0
 40
0
 40
0
 40
0
 40
0
 40
1
 40
1
 40
1
 40
1
 10
-74.812855
 20
18.934299
 30
0.0
 10
-73.127083
 20
18.794553
 30
0.0
 10
-72.313044
 20
16.946960
 30
0.0
 10
-73.385197
 20
15.694038
 30
0.0
  0
LINE
  5
2c6
100
AcDbEntity
  8
Layer_1
 62
4
100
AcDbLine
 10
-73.385197
 20
15.694038
 30
0.0
 11
-73.766618
 21
15.248739
 31
0.0
  0
LINE
  5
2c7
100
AcDbEntity
  8
Layer_1
 62
4
100
AcDbLine
 10
-73.766618
 20
15.248739
 30
0.0
 11
-73.333997
 21
14.606700
 31
0.0
  0
SPLINE
  5
2c8
100
AcDbEntity
  8
Layer_1
 62
4
100
AcDbSpline
 70
8
 71
3
 72
8
 73
4
 74
0
 40
0
 40
0
 40
0
 40
0
 40
1
 40
1
 40
1
 40
1
 10
-73.333997
 20
14.606700
 30
0.0
 10
-72.691958
 20
13.653862
 30
0.0
 10
-72.276406
 20
13.416005
 30
0.0
 10
-71.252867
 20
13.416005
 30
0.0
  0
SPLINE
  5
2c9
100
AcDbEntity
  8
Layer_1
 62
4
100
AcDbSpline
 70
8
 71
3
 72
8
 73
4
 74
0
 40
0
 40
0
 40
0
 40
0
 40
1
 40
1
 40
1
 40
1
 10
-71.252867
 20
13.416005
 30
0.0
 10
-70.256733
 20
13.416005
 30
0.0
 10
-69.650861
 20
13.678838
 30
0.0
 10
-68.887320
 20
14.442532
 30
0.0
  0
SPLINE
  5
2ca
100
AcDbEntity
  8
Layer_1
 62
4
100
AcDbSpline
 70
8
 71
3
 72
8
 73
4
 74
0
 40
0
 40
0
 40
0
 40
0
 40
1
 40
1
 40
1
 40
1
 10
-68.887320
 20
14.442532
 30
0.0
 10
-68.198622
 20
15.131148
 30
0.0
 10
-67.902850
 20
15.779763
 30
0.0
 10
-67.900344
 20
16.606016
 30
0.0
  0
SPLINE
  5
2cb
100
AcDbEntity
  8
Layer_1
 62
4
100
AcDbSpline
 70
8
 71
3
 72
8
 73
4
 74
0
 40
0
 40
0
 40
0
 40
0
 40
1
 40
1
 40
1
 40
1
 10
-67.900344
 20
16.606016
 30
0.0
 10
-67.898086
 20
17.394689
 30
0.0
 10
-68.224925
 20
17.987093
 30
0.0
 10
-68.954334
 20
18.515379
 30
0.0
  0
SPLINE
  5
2cc
100
AcDbEntity
  8
Layer_1
 62
4
100
AcDbSpline
 70
8
 71
3
 72
8
 73
4
 74
0
 40
0
 40
0
 40
0
 40
0
 40
1
 40
1
 40
1
 40
1
 10
-68.954334
 20
18.515379
 30
0.0
 10
-69.945304
 20
19.233358
 30
0.0
 10
-70.863387
 20
19.435734
 30
0.0
 10
-75.191925
 20
19.891213
 30
0.0
  0
SPLINE
  5
2cd
100
AcDbEntity
  8
Layer_1
 62
4
100
AcDbSpline
 70
8
 71
3
 72
8
 73
4
 74
0
 40
0
 40
0
 40
0
 40
0
 40
1
 40
1
 40
1
 40
1
 10
-75.191925
 20
19.891213
 30
0.0
 10
-79.051444
 20
20.297370
 30
0.0
 10
-80.196873
 20
20.574354
 30
0.0
 10
-82.214669
 20
21.589042
 30
0.0
  0
SPLINE
  5
2ce
100
AcDbEntity
  8
Layer_1
 62
4
100
AcDbSpline
 70
8
 71
3
 72
8
 73
4
 74
0
 40
0
 40
0
 40
0
 40
0
 40
1
 40
1
 40
1
 40
1
 10
-82.214669
 20
21.589042
 30
0.0
 10
-83.774633
 20
22.373487
 30
0.0
 10
-85.041881
 20
23.753079
 30
0.0
 10
-87.118077
 20
26.926245
 30
0.0
  0
SPLINE
  5
2cf
100
AcDbEntity
  8
Layer_1
 62
4
100
AcDbSpline
 70
8
 71
3
 72
8
 73
4
 74
0
 40
0
 40
0
 40
0
 40
0
 40
1
 40
1
 40
1
 40
1
 10
-87.118077
 20
26.926245
 30
0.0
 10
-87.715415
 20
27.839632
 30
0.0
 10
-88.669980
 20
29.404842
 30
0.0
 10
-89.239053
 20
30.404893
 30
0.0
  0
SPLINE
  5
2d0
100
AcDbEntity
  8
Layer_1
 62
4
100
AcDbSpline
 70
8
 71
3
 72
8
 73
4
 74
0
 40
0
 40
0
 40
0
 40
0
 40
1
 40
1
 40
1
 40
1
 10
-89.239053
 20
30.404893
 30
0.0
 10
-89.808287
 20
31.404942
 30
0.0
 10
-90.288426
 20
32.208412
 30
0.0
 10
-90.306353
 20
32.190719
 30
0.0
  0
SPLINE
  5
2d1
100
AcDbEntity
  8
Layer_1
 62
4
100
AcDbSpline
 70
8
 71
3
 72
8
 73
4
 74
0
 40
0
 40
0
 40
0
 40
0
 40
1
 40
1
 40
1
 40
1
 10
-90.306353
 20
32.190719
 30
0.0
 10
-90.324443
 20
32.172629
 30
0.0
 10
-90.262044
 20
31.940668
 30
0.0
 10
-90.168019
 20
31.674642
 30
0.0
  0
SPLINE
  5
2d2
100
AcDbEntity
  8
Layer_1
 62
4
100
AcDbSpline
 70
8
 71
3
 72
8
 73
4
 74
0
 40
0
 40
0
 40
0
 40
0
 40
1
 40
1
 40
1
 40
1
 10
-90.168019
 20
31.674642
 30
0.0
 10
-89.862776
 20
30.810424
 30
0.0
 10
-89.367447
 20
28.695708
 30
0.0
 10
-89.180808
 20
27.460483
 30
0.0
  0
SPLINE
  5
2d3
100
AcDbEntity
  8
Layer_1
 62
4
100
AcDbSpline
 70
8
 71
3
 72
8
 73
4
 74
0
 40
0
 40
0
 40
0
 40
0
 40
1
 40
1
 40
1
 40
1
 10
-89.180808
 20
27.460483
 30
0.0
 10
-88.936000
 20
25.838747
 30
0.0
 10
-88.937098
 20
23.641517
 30
0.0
 10
-89.183941
 20
21.755172
 30
0.0
  0
SPLINE
  5
2d4
100
AcDbEntity
  8
Layer_1
 62
4
100
AcDbSpline
 70
8
 71
3
 72
8
 73
4
 74
0
 40
0
 40
0
 40
0
 40
0
 40
1
 40
1
 40
1
 40
1
 10
-89.183941
 20
21.755172
 30
0.0
 10
-89.473684
 20
19.541421
 30
0.0
 10
-89.454818
 20
16.745995
 30
0.0
 10
-89.140335
 20
15.245840
 30
0.0
  0
SPLINE
  5
2d5
100
AcDbEntity
  8
Layer_1
 62
4
100
AcDbSpline
 70
8
 71
3
 72
8
 73
4
 74
0
 40
0
 40
0
 40
0
 40
0
 40
1
 40
1
 40
1
 40
1
 10
-89.140335
 20
15.245840
 30
0.0
 10
-88.730732
 20
13.292786
 30
0.0
 10
-88.045555
 20
11.995721
 30
0.0
 10
-87.005422
 20
11.205640
 30
0.0
  0
SPLINE
  5
2d6
100
AcDbEntity
  8
Layer_1
 62
4
100
AcDbSpline
 70
8
 71
3
 72
8
 73
4
 74
0
 40
0
 40
0
 40
0
 40
0
 40
1
 40
1
 40
1
 40
1
 10
-87.005422
 20
11.205640
 30
0.0
 10
-85.443421
 20
10.018952
 30
0.0
 10
-83.116468
 20
10.445390
 30
0.0
 10
-82.250447
 20
12.077142
 30
0.0
  0
SPLINE
  5
2d7
100
AcDbEntity
  8
Layer_1
 62
4
100
AcDbSpline
 70
8
 71
3
 72
8
 73
4
 74
0
 40
0
 40
0
 40
0
 40
0
 40
1
 40
1
 40
1
 40
1
 10
-82.250447
 20
12.077142
 30
0.0
 10
-81.951466
 20
12.640035
 30
0.0
 10
-82.000866
 20
13.528752
 30
0.0
 10
-82.368113
 20
14.198748
 30
0.0
  0
SPLINE
  5
2d8
100
AcDbEntity
  8
Layer_1
 62
4
100
AcDbSpline
 70
8
 71
3
 72
8
 73
4
 74
0
 40
0
 40
0
 40
0
 40
0
 40
1
 40
1
 40
1
 40
1
 10
-82.368113
 20
14.198748
 30
0.0
 10
-82.660990
 20
14.732910
 30
0.0
 10
-82.702950
 20
14.764434
 30
0.0
 10
-83.187630
 20
14.811184
 30
0.0
  0
SPLINE
  5
2d9
100
AcDbEntity
  8
Layer_1
 62
4
100
AcDbSpline
 70
8
 71
3
 72
8
 73
4
 74
0
 40
0
 40
0
 40
0
 40
0
 40
1
 40
1
 40
1
 40
1
 10
-83.187630
 20
14.811184
 30
0.0
 10
-84.681912
 20
14.955391
 30
0.0
 10
-85.619178
 20
16.263350
 30
0.0
 10
-85.120717
 20
17.509068
 30
0.0
  0
SPLINE
  5
2da
100
AcDbEntity
  8
Layer_1
 62
4
100
AcDbSpline
 70
8
 71
3
 72
8
 73
4
 74
0
 40
0
 40
0
 40
0
 40
0
 40
1
 40
1
 40
1
 40
1
 10
-85.120717
 20
17.509068
 30
0.0
 10
-84.502399
 20
19.054472
 30
0.0
 10
-82.283876
 20
19.377331
 30
0.0
 10
-81.192855
 20
18.080960
 30
0.0
  0
SPLINE
  5
2db
100
AcDbEntity
  8
Layer_1
 62
4
100
AcDbSpline
 70
8
 71
3
 72
8
 73
4
 74
0
 40
0
 40
0
 40
0
 40
0
 40
1
 40
1
 40
1
 40
1
 10
-81.192855
 20
18.080960
 30
0.0
 10
-80.744029
 20
17.547507
 30
0.0
 10
-80.670519
 20
16.636860
 30
0.0
 10
-81.010991
 20
15.825248
 30
0.0
  0
SPLINE
  5
2dc
100
AcDbEntity
  8
Layer_1
 62
4
100
AcDbSpline
 70
8
 71
3
 72
8
 73
4
 74
0
 40
0
 40
0
 40
0
 40
0
 40
1
 40
1
 40
1
 40
1
 10
-81.010991
 20
15.825248
 30
0.0
 10
-81.136958
 20
15.524546
 30
0.0
 10
-81.123804
 20
15.447511
 30
0.0
 10
-80.878528
 20
15.057011
 30
0.0
  0
SPLINE
  5
2dd
100
AcDbEntity
  8
Layer_1
 62
4
100
AcDbSpline
 70
8
 71
3
 72
8
 73
4
 74
0
 40
0
 40
0
 40
0
 40
0
 40
1
 40
1
 40
1
 40
1
 10
-80.878528
 20
15.057011
 30
0.0
 10
-80.020022
 20
13.690268
 30
0.0
 10
-79.690431
 20
11.893557
 30
0.0
 10
-80.082105
 20
10.714545
 30
0.0
  0
SPLINE
  5
2de
100
AcDbEntity
  8
Layer_1
 62
4
100
AcDbSpline
 70
8
 71
3
 72
8
 73
4
 74
0
 40
0
 40
0
 40
0
 40
0
 40
1
 40
1
 40
1
 40
1
 10
-80.082105
 20
10.714545
 30
0.0
 10
-80.602407
 20
9.147986
 30
0.0
 10
-83.073488
 20
7.765521
 30
0.0
 10
-85.353624
 20
7.765521
 30
0.0
  0
SPLINE
  5
2df
100
AcDbEntity
  8
Layer_1
 62
4
100
AcDbSpline
 70
8
 71
3
 72
8
 73
4
 74
0
 40
0
 40
0
 40
0
 40
0
 40
1
 40
1
 40
1
 40
1
 10
-85.353624
 20
7.765521
 30
0.0
 10
-88.700198
 20
7.765521
 30
0.0
 10
-91.540957
 20
10.827350
 30
0.0
 10
-92.479786
 20
15.446023
 30
0.0
  0
SPLINE
  5
2e0
100
AcDbEntity
  8
Layer_1
 62
4
100
AcDbSpline
 70
8
 71
3
 72
8
 73
4
 74
0
 40
0
 40
0
 40
0
 40
0
 40
1
 40
1
 40
1
 40
1
 10
-92.479786
 20
15.446023
 30
0.0
 10
-92.781507
 20
16.930831
 30
0.0
 10
-92.807734
 20
19.230149
 30
0.0
 10
-92.543825
 20
21.073831
 30
0.0
  0
SPLINE
  5
2e1
100
AcDbEntity
  8
Layer_1
 62
4
100
AcDbSpline
 70
8
 71
3
 72
8
 73
4
 74
0
 40
0
 40
0
 40
0
 40
0
 40
1
 40
1
 40
1
 40
1
 10
-92.543825
 20
21.073831
 30
0.0
 10
-92.009666
 20
24.805737
 30
0.0
 10
-92.464752
 20
28.329713
 30
0.0
 10
-94.025345
 20
32.548495
 30
0.0
  0
SPLINE
  5
2e2
100
AcDbEntity
  8
Layer_1
 62
4
100
AcDbSpline
 70
8
 71
3
 72
8
 73
4
 74
0
 40
0
 40
0
 40
0
 40
0
 40
1
 40
1
 40
1
 40
1
 10
-94.025345
 20
32.548495
 30
0.0
 10
-94.457495
 20
33.716785
 30
0.0
 10
-95.910911
 20
36.771581
 30
0.0
 10
-96.198461
 20
37.116127
 30
0.0
  0
SPLINE
  5
2e3
100
AcDbEntity
  8
Layer_1
 62
4
100
AcDbSpline
 70
8
 71
3
 72
8
 73
4
 74
0
 40
0
 40
0
 40
0
 40
0
 40
1
 40
1
 40
1
 40
1
 10
-96.198461
 20
37.116127
 30
0.0
 10
-96.376411
 20
37.329774
 30
0.0
 10
-96.379857
 20
37.326563
 30
0.0
 10
-96.321688
 20
37.006523
 30
0.0
  0
SPLINE
  5
2e4
100
AcDbEntity
  8
Layer_1
 62
4
100
AcDbSpline
 70
8
 71
3
 72
8
 73
4
 74
0
 40
0
 40
0
 40
0
 40
0
 40
1
 40
1
 40
1
 40
1
 10
-96.321688
 20
37.006523
 30
0.0
 10
-96.168712
 20
36.165007
 30
0.0
 10
-95.825420
 20
33.114125
 30
0.0
 10
-95.716598
 20
31.630175
 30
0.0
  0
SPLINE
  5
2e5
100
AcDbEntity
  8
Layer_1
 62
4
100
AcDbSpline
 70
8
 71
3
 72
8
 73
4
 74
0
 40
0
 40
0
 40
0
 40
0
 40
1
 40
1
 40
1
 40
1
 10
-95.716598
 20
31.630175
 30
0.0
 10
-95.649116
 20
30.709355
 30
0.0
 10
-95.609579
 20
28.074887
 30
0.0
 10
-95.626961
 20
25.650152
 30
0.0
  0
LINE
  5
2e6
100
AcDbEntity
  8
Layer_1
 62
4
100
AcDbLine
 10
-95.626961
 20
25.650152
 30
0.0
 11
-95.657961
 21
21.316209
 31
0.0
  0
LINE
  5
2e7
100
AcDbEntity
  8
Layer_1
 62
4
100
AcDbLine
 10
-95.657961
 20
21.316209
 30
0.0
 11
-95.359765
 21
19.830148
 31
0.0
  0
SPLINE
  5
2e8
100
AcDbEntity
  8
Layer_1
 62
4
100
AcDbSpline
 70
8
 71
3
 72
8
 73
4
 74
0
 40
0
 40
0
 40
0
 40
0
 40
1
 40
1
 40
1
 40
1
 10
-95.359765
 20
19.830148
 30
0.0
 10
-94.514018
 20
15.615281
 30
0.0
 10
-93.070466
 20
10.926522
 30
0.0
 10
-90.935632
 20
5.461346
 30
0.0
  0
SPLINE
  5
2e9
100
AcDbEntity
  8
Layer_1
 62
4
100
AcDbSpline
 70
8
 71
3
 72
8
 73
4
 74
0
 40
0
 40
0
 40
0
 40
0
 40
1
 40
1
 40
1
 40
1
 10
-90.935632
 20
5.461346
 30
0.0
 10
-88.909308
 20
0.273734
 30
0.0
 10
-88.861158
 20
0.117806
 30
0.0
 10
-88.857949
 20
-1.288422
 30
0.0
  0
SPLINE
  5
2ea
100
AcDbEntity
  8
Layer_1
 62
4
100
AcDbSpline
 70
8
 71
3
 72
8
 73
4
 74
0
 40
0
 40
0
 40
0
 40
0
 40
1
 40
1
 40
1
 40
1
 10
-88.857949
 20
-1.288422
 30
0.0
 10
-88.855409
 20
-2.436022
 30
0.0
 10
-88.873528
 20
-2.534518
 30
0.0
 10
-89.215880
 20
-3.230252
 30
0.0
  0
SPLINE
  5
2eb
100
AcDbEntity
  8
Layer_1
 62
4
100
AcDbSpline
 70
8
 71
3
 72
8
 73
4
 74
0
 40
0
 40
0
 40
0
 40
0
 40
1
 40
1
 40
1
 40
1
 10
-89.215880
 20
-3.230252
 30
0.0
 10
-89.441977
 20
-3.690133
 30
0.0
 10
-89.767811
 20
-4.131670
 30
0.0
 10
-90.089888
 20
-4.415219
 30
0.0
  0
SPLINE
  5
2ec
100
AcDbEntity
  8
Layer_1
 62
4
100
AcDbSpline
 70
8
 71
3
 72
8
 73
4
 74
0
 40
0
 40
0
 40
0
 40
0
 40
1
 40
1
 40
1
 40
1
 10
-90.089888
 20
-4.415219
 30
0.0
 10
-91.538292
 20
-5.690073
 30
0.0
 10
-94.532885
 20
-6.403361
 30
0.0
 10
-96.951281
 20
-6.049652
 30
0.0
  0
LINE
  5
2ed
100
AcDbEntity
  8
Layer_1
 62
4
100
AcDbLine
 10
-96.951281
 20
-6.049652
 30
0.0
 11
-96.951845
 21
-6.049652
 31
0.0
  0
LINE
  5
2ee
100
AcDbEntity
  8
Layer_1
 62
4
100
AcDbLine
 10
-96.951845
 20
-6.049652
 30
0.0
 11
-96.951902
 21
-6.049709
 31
0.0
  0
SPLINE
  5
2ef
100
AcDbEntity
  8
Layer_1
 62
7
100
AcDbSpline
 70
8
 71
3
 72
8
 73
4
 74
0
 40
0
 40
0
 40
0
 40
0
 40
1
 40
1
 40
1
 40
1
 10
22.579423
 20
63.706128
 30
0.0
 10
21.897142
 20
63.867088
 30
0.0
 10
21.415203
 20
64.573244
 30
0.0
 10
21.540464
 20
65.228124
 30
0.0
  0
SPLINE
  5
2f0
100
AcDbEntity
  8
Layer_1
 62
7
100
AcDbSpline
 70
8
 71
3
 72
8
 73
4
 74
0
 40
0
 40
0
 40
0
 40
0
 40
1
 40
1
 40
1
 40
1
 10
21.540464
 20
65.228124
 30
0.0
 10
21.601687
 20
65.549183
 30
0.0
 10
21.783861
 20
65.437465
 30
0.0
 10
21.783861
 20
65.078908
 30
0.0
  0
SPLINE
  5
2f1
100
AcDbEntity
  8
Layer_1
 62
7
100
AcDbSpline
 70
8
 71
3
 72
8
 73
4
 74
0
 40
0
 40
0
 40
0
 40
0
 40
1
 40
1
 40
1
 40
1
 10
21.783861
 20
65.078908
 30
0.0
 10
21.783861
 20
64.179770
 30
0.0
 10
22.719010
 20
63.662053
 30
0.0
 10
23.558963
 20
64.096551
 30
0.0
  0
SPLINE
  5
2f2
100
AcDbEntity
  8
Layer_1
 62
7
100
AcDbSpline
 70
8
 71
3
 72
8
 73
4
 74
0
 40
0
 40
0
 40
0
 40
0
 40
1
 40
1
 40
1
 40
1
 10
23.558963
 20
64.096551
 30
0.0
 10
23.882525
 20
64.263774
 30
0.0
 10
24.219792
 20
64.765051
 30
0.0
 10
24.219792
 20
65.078908
 30
0.0
  0
SPLINE
  5
2f3
100
AcDbEntity
  8
Layer_1
 62
7
100
AcDbSpline
 70
8
 71
3
 72
8
 73
4
 74
0
 40
0
 40
0
 40
0
 40
0
 40
1
 40
1
 40
1
 40
1
 10
24.219792
 20
65.078908
 30
0.0
 10
24.219792
 20
65.254430
 30
0.0
 10
24.418095
 20
65.427839
 30
0.0
 10
24.511491
 20
65.334519
 30
0.0
  0
SPLINE
  5
2f4
100
AcDbEntity
  8
Layer_1
 62
7
100
AcDbSpline
 70
8
 71
3
 72
8
 73
4
 74
0
 40
0
 40
0
 40
0
 40
0
 40
1
 40
1
 40
1
 40
1
 10
24.511491
 20
65.334519
 30
0.0
 10
24.542259
 20
65.303751
 30
0.0
 10
24.505310
 20
65.072177
 30
0.0
 10
24.429760
 20
64.819774
 30
0.0
  0
SPLINE
  5
2f5
100
AcDbEntity
  8
Layer_1
 62
7
100
AcDbSpline
 70
8
 71
3
 72
8
 73
4
 74
0
 40
0
 40
0
 40
0
 40
0
 40
1
 40
1
 40
1
 40
1
 10
24.429760
 20
64.819774
 30
0.0
 10
24.291112
 20
64.357248
 30
0.0
 10
23.679683
 20
63.795220
 30
0.0
 10
23.408022
 20
63.724213
 30
0.0
  0
SPLINE
  5
2f6
100
AcDbEntity
  8
Layer_1
 62
7
100
AcDbSpline
 70
8
 71
3
 72
8
 73
4
 74
0
 40
0
 40
0
 40
0
 40
0
 40
1
 40
1
 40
1
 40
1
 10
23.408022
 20
63.724213
 30
0.0
 10
23.275561
 20
63.689454
 30
0.0
 10
23.245420
 20
63.672309
 30
0.0
 10
23.093776
 20
63.663306
 30
0.0
  0
SPLINE
  5
2f7
100
AcDbEntity
  8
Layer_1
 62
7
100
AcDbSpline
 70
8
 71
3
 72
8
 73
4
 74
0
 40
0
 40
0
 40
0
 40
0
 40
1
 40
1
 40
1
 40
1
 10
23.093776
 20
63.663306
 30
0.0
 10
23.009459
 20
63.658367
 30
0.0
 10
22.781249
 20
63.658367
 30
0.0
 10
22.579268
 20
63.706207
 30
0.0
  0
LINE
  5
2f8
100
AcDbEntity
  8
Layer_1
 62
7
100
AcDbLine
 10
22.579268
 20
63.706207
 30
0.0
 11
22.579389
 21
63.706207
 31
0.0
  0
LINE
  5
2f9
100
AcDbEntity
  8
Layer_1
 62
7
100
AcDbLine
 10
22.579389
 20
63.706207
 30
0.0
 11
22.579423
 21
63.706128
 31
0.0
  0
LINE
  5
2fa
100
AcDbEntity
  8
Layer_1
 62
4
100
AcDbLine
 10
47.368776
 20
25.438631
 30
0.0
 11
47.368776
 21
27.190088
 31
0.0
  0
LINE
  5
2fb
100
AcDbEntity
  8
Layer_1
 62
4
100
AcDbLine
 10
47.368776
 20
27.190088
 30
0.0
 11
46.902494
 21
27.313157
 31
0.0
  0
SPLINE
  5
2fc
100
AcDbEntity
  8
Layer_1
 62
4
100
AcDbSpline
 70
8
 71
3
 72
8
 73
4
 74
0
 40
0
 40
0
 40
0
 40
0
 40
1
 40
1
 40
1
 40
1
 10
46.902494
 20
27.313157
 30
0.0
 10
45.109463
 20
27.785783
 30
0.0
 10
43.899133
 20
29.637528
 30
0.0
 10
44.192165
 20
31.459992
 30
0.0
  0
SPLINE
  5
2fd
100
AcDbEntity
  8
Layer_1
 62
4
100
AcDbSpline
 70
8
 71
3
 72
8
 73
4
 74
0
 40
0
 40
0
 40
0
 40
0
 40
1
 40
1
 40
1
 40
1
 10
44.192165
 20
31.459992
 30
0.0
 10
44.596129
 20
33.970920
 30
0.0
 10
47.265280
 20
35.330390
 30
0.0
 10
49.534298
 20
34.180577
 30
0.0
  0
SPLINE
  5
2fe
100
AcDbEntity
  8
Layer_1
 62
4
100
AcDbSpline
 70
8
 71
3
 72
8
 73
4
 74
0
 40
0
 40
0
 40
0
 40
0
 40
1
 40
1
 40
1
 40
1
 10
49.534298
 20
34.180577
 30
0.0
 10
50.187925
 20
33.849339
 30
0.0
 10
50.933694
 20
33.058239
 30
0.0
 10
51.235418
 20
32.376429
 30
0.0
  0
SPLINE
  5
2ff
100
AcDbEntity
  8
Layer_1
 62
4
100
AcDbSpline
 70
8
 71
3
 72
8
 73
4
 74
0
 40
0
 40
0
 40
0
 40
0
 40
1
 40
1
 40
1
 40
1
 10
51.235418
 20
32.376429
 30
0.0
 10
51.506529
 20
31.763671
 30
0.0
 10
51.608146
 20
30.603131
 30
0.0
 10
51.443819
 20
29.996320
 30
0.0
  0
SPLINE
  5
300
100
AcDbEntity
  8
Layer_1
 62
4
100
AcDbSpline
 70
8
 71
3
 72
8
 73
4
 74
0
 40
0
 40
0
 40
0
 40
0
 40
1
 40
1
 40
1
 40
1
 10
51.443819
 20
29.996320
 30
0.0
 10
51.131684
 20
28.844077
 30
0.0
 10
50.099852
 20
27.732703
 30
0.0
 10
49.035527
 20
27.402562
 30
0.0
  0
LINE
  5
301
100
AcDbEntity
  8
Layer_1
 62
4
100
AcDbLine
 10
49.035527
 20
27.402562
 30
0.0
 11
48.521019
 21
27.242621
 31
0.0
  0
LINE
  5
302
100
AcDbEntity
  8
Layer_1
 62
4
100
AcDbLine
 10
48.521019
 20
27.242621
 30
0.0
 11
48.490564
 21
25.449669
 31
0.0
  0
LINE
  5
303
100
AcDbEntity
  8
Layer_1
 62
4
100
AcDbLine
 10
48.490564
 20
25.449669
 30
0.0
 11
48.486190
 21
23.671985
 31
0.0
  0
LINE
  5
304
100
AcDbEntity
  8
Layer_1
 62
4
100
AcDbLine
 10
48.486190
 20
23.671985
 30
0.0
 11
49.065911
 21
23.727647
 31
0.0
  0
SPLINE
  5
305
100
AcDbEntity
  8
Layer_1
 62
4
100
AcDbSpline
 70
8
 71
3
 72
8
 73
4
 74
0
 40
0
 40
0
 40
0
 40
0
 40
1
 40
1
 40
1
 40
1
 10
49.065911
 20
23.727647
 30
0.0
 10
49.398868
 20
23.766713
 30
0.0
 10
50.056096
 20
23.939102
 30
0.0
 10
50.526374
 20
24.110632
 30
0.0
  0
SPLINE
  5
306
100
AcDbEntity
  8
Layer_1
 62
4
100
AcDbSpline
 70
8
 71
3
 72
8
 73
4
 74
0
 40
0
 40
0
 40
0
 40
0
 40
1
 40
1
 40
1
 40
1
 10
50.526374
 20
24.110632
 30
0.0
 10
53.061726
 20
25.036075
 30
0.0
 10
54.956453
 20
27.104831
 30
0.0
 10
55.665505
 20
29.722000
 30
0.0
  0
SPLINE
  5
307
100
AcDbEntity
  8
Layer_1
 62
4
100
AcDbSpline
 70
8
 71
3
 72
8
 73
4
 74
0
 40
0
 40
0
 40
0
 40
0
 40
1
 40
1
 40
1
 40
1
 10
55.665505
 20
29.722000
 30
0.0
 10
55.928240
 20
30.692299
 30
0.0
 10
55.928788
 20
32.699368
 30
0.0
 10
55.666634
 20
33.671939
 30
0.0
  0
SPLINE
  5
308
100
AcDbEntity
  8
Layer_1
 62
4
100
AcDbSpline
 70
8
 71
3
 72
8
 73
4
 74
0
 40
0
 40
0
 40
0
 40
0
 40
1
 40
1
 40
1
 40
1
 10
55.666634
 20
33.671939
 30
0.0
 10
55.039937
 20
35.994352
 30
0.0
 10
53.411391
 20
37.964311
 30
0.0
 10
51.264501
 20
38.997007
 30
0.0
  0
SPLINE
  5
309
100
AcDbEntity
  8
Layer_1
 62
4
100
AcDbSpline
 70
8
 71
3
 72
8
 73
4
 74
0
 40
0
 40
0
 40
0
 40
0
 40
1
 40
1
 40
1
 40
1
 10
51.264501
 20
38.997007
 30
0.0
 10
50.163459
 20
39.526546
 30
0.0
 10
49.168657
 20
39.740428
 30
0.0
 10
47.808089
 20
39.740039
 30
0.0
  0
SPLINE
  5
30a
100
AcDbEntity
  8
Layer_1
 62
4
100
AcDbSpline
 70
8
 71
3
 72
8
 73
4
 74
0
 40
0
 40
0
 40
0
 40
0
 40
1
 40
1
 40
1
 40
1
 10
47.808089
 20
39.740039
 30
0.0
 10
46.383248
 20
39.739757
 30
0.0
 10
45.565139
 20
39.541970
 30
0.0
 10
44.187271
 20
38.865717
 30
0.0
  0
SPLINE
  5
30b
100
AcDbEntity
  8
Layer_1
 62
4
100
AcDbSpline
 70
8
 71
3
 72
8
 73
4
 74
0
 40
0
 40
0
 40
0
 40
0
 40
1
 40
1
 40
1
 40
1
 10
44.187271
 20
38.865717
 30
0.0
 10
43.305671
 20
38.432786
 30
0.0
 10
42.991893
 20
38.200271
 30
0.0
 10
42.153115
 20
37.357031
 30
0.0
  0
SPLINE
  5
30c
100
AcDbEntity
  8
Layer_1
 62
4
100
AcDbSpline
 70
8
 71
3
 72
8
 73
4
 74
0
 40
0
 40
0
 40
0
 40
0
 40
1
 40
1
 40
1
 40
1
 10
42.153115
 20
37.357031
 30
0.0
 10
40.503512
 20
35.699362
 30
0.0
 10
39.796570
 20
34.001375
 30
0.0
 10
39.800095
 20
31.706832
 30
0.0
  0
SPLINE
  5
30d
100
AcDbEntity
  8
Layer_1
 62
4
100
AcDbSpline
 70
8
 71
3
 72
8
 73
4
 74
0
 40
0
 40
0
 40
0
 40
0
 40
1
 40
1
 40
1
 40
1
 10
39.800095
 20
31.706832
 30
0.0
 10
39.804018
 20
29.323200
 30
0.0
 10
40.659149
 20
27.380955
 30
0.0
 10
42.424226
 20
25.746773
 30
0.0
  0
SPLINE
  5
30e
100
AcDbEntity
  8
Layer_1
 62
4
100
AcDbSpline
 70
8
 71
3
 72
8
 73
4
 74
0
 40
0
 40
0
 40
0
 40
0
 40
1
 40
1
 40
1
 40
1
 10
42.424226
 20
25.746773
 30
0.0
 10
43.638004
 20
24.622950
 30
0.0
 10
45.647810
 20
23.712616
 30
0.0
 10
46.957725
 20
23.693513
 30
0.0
  0
LINE
  5
30f
100
AcDbEntity
  8
Layer_1
 62
4
100
AcDbLine
 10
46.957725
 20
23.693513
 30
0.0
 11
47.369208
 21
23.687247
 31
0.0
  0
LINE
  5
310
100
AcDbEntity
  8
Layer_1
 62
4
100
AcDbLine
 10
47.369208
 20
23.687247
 30
0.0
 11
47.369208
 21
25.438625
 31
0.0
  0
LINE
  5
311
100
AcDbEntity
  8
Layer_1
 62
4
100
AcDbLine
 10
47.369208
 20
25.438625
 30
0.0
 11
47.368643
 21
25.438625
 31
0.0
  0
LINE
  5
312
100
AcDbEntity
  8
Layer_1
 62
4
100
AcDbLine
 10
47.368643
 20
25.438625
 30
0.0
 11
47.368776
 21
25.438631
 31
0.0
  0
LINE
  5
313
100
AcDbEntity
  8
Layer_1
 62
4
100
AcDbLine
 10
36.835368
 20
27.306815
 30
0.0
 11
36.835368
 21
29.060778
 31
0.0
  0
LINE
  5
314
100
AcDbEntity
  8
Layer_1
 62
4
100
AcDbLine
 10
36.835368
 20
29.060778
 30
0.0
 11
36.425451
 21
29.232152
 31
0.0
  0
SPLINE
  5
315
100
AcDbEntity
  8
Layer_1
 62
4
100
AcDbSpline
 70
8
 71
3
 72
8
 73
4
 74
0
 40
0
 40
0
 40
0
 40
0
 40
1
 40
1
 40
1
 40
1
 10
36.425451
 20
29.232152
 30
0.0
 10
35.497584
 20
29.619677
 30
0.0
 10
35.034119
 20
30.391360
 30
0.0
 10
35.100585
 20
31.437132
 30
0.0
  0
SPLINE
  5
316
100
AcDbEntity
  8
Layer_1
 62
4
100
AcDbSpline
 70
8
 71
3
 72
8
 73
4
 74
0
 40
0
 40
0
 40
0
 40
0
 40
1
 40
1
 40
1
 40
1
 10
35.100585
 20
31.437132
 30
0.0
 10
35.136754
 20
32.005736
 30
0.0
 10
35.203768
 20
32.201220
 30
0.0
 10
35.479265
 20
32.543341
 30
0.0
  0
SPLINE
  5
317
100
AcDbEntity
  8
Layer_1
 62
4
100
AcDbSpline
 70
8
 71
3
 72
8
 73
4
 74
0
 40
0
 40
0
 40
0
 40
0
 40
1
 40
1
 40
1
 40
1
 10
35.479265
 20
32.543341
 30
0.0
 10
35.663319
 20
32.771862
 30
0.0
 10
36.006769
 20
33.071941
 30
0.0
 10
36.242416
 20
33.210354
 30
0.0
  0
SPLINE
  5
318
100
AcDbEntity
  8
Layer_1
 62
4
100
AcDbSpline
 70
8
 71
3
 72
8
 73
4
 74
0
 40
0
 40
0
 40
0
 40
0
 40
1
 40
1
 40
1
 40
1
 10
36.242416
 20
33.210354
 30
0.0
 10
37.161123
 20
33.749054
 30
0.0
 10
38.672863
 20
33.317217
 30
0.0
 10
39.130300
 20
32.385432
 30
0.0
  0
SPLINE
  5
319
100
AcDbEntity
  8
Layer_1
 62
4
100
AcDbSpline
 70
8
 71
3
 72
8
 73
4
 74
0
 40
0
 40
0
 40
0
 40
0
 40
1
 40
1
 40
1
 40
1
 10
39.130300
 20
32.385432
 30
0.0
 10
39.359840
 20
31.917818
 30
0.0
 10
39.468349
 20
31.934495
 30
0.0
 10
39.470539
 20
32.437652
 30
0.0
  0
SPLINE
  5
31a
100
AcDbEntity
  8
Layer_1
 62
4
100
AcDbSpline
 70
8
 71
3
 72
8
 73
4
 74
0
 40
0
 40
0
 40
0
 40
0
 40
1
 40
1
 40
1
 40
1
 10
39.470539
 20
32.437652
 30
0.0
 10
39.476099
 20
33.613302
 30
0.0
 10
40.213492
 20
35.585609
 30
0.0
 10
41.058454
 20
36.684303
 30
0.0
  0
LINE
  5
31b
100
AcDbEntity
  8
Layer_1
 62
4
100
AcDbLine
 10
41.058454
 20
36.684303
 30
0.0
 11
41.476354
 21
37.228013
 31
0.0
  0
LINE
  5
31c
100
AcDbEntity
  8
Layer_1
 62
4
100
AcDbLine
 10
41.476354
 20
37.228013
 30
0.0
 11
41.003339
 21
37.635657
 31
0.0
  0
SPLINE
  5
31d
100
AcDbEntity
  8
Layer_1
 62
4
100
AcDbSpline
 70
8
 71
3
 72
8
 73
4
 74
0
 40
0
 40
0
 40
0
 40
0
 40
1
 40
1
 40
1
 40
1
 10
41.003339
 20
37.635657
 30
0.0
 10
40.427845
 20
38.131065
 30
0.0
 10
39.591183
 20
38.552019
 30
0.0
 10
38.741133
 20
38.773337
 30
0.0
  0
SPLINE
  5
31e
100
AcDbEntity
  8
Layer_1
 62
4
100
AcDbSpline
 70
8
 71
3
 72
8
 73
4
 74
0
 40
0
 40
0
 40
0
 40
0
 40
1
 40
1
 40
1
 40
1
 10
38.741133
 20
38.773337
 30
0.0
 10
36.975268
 20
39.233357
 30
0.0
 10
35.155700
 20
38.678844
 30
0.0
 10
33.703537
 20
37.238190
 30
0.0
  0
SPLINE
  5
31f
100
AcDbEntity
  8
Layer_1
 62
4
100
AcDbSpline
 70
8
 71
3
 72
8
 73
4
 74
0
 40
0
 40
0
 40
0
 40
0
 40
1
 40
1
 40
1
 40
1
 10
33.703537
 20
37.238190
 30
0.0
 10
31.558290
 20
35.110011
 30
0.0
 10
31.062415
 20
31.739087
 30
0.0
 10
32.471206
 20
28.861772
 30
0.0
  0
SPLINE
  5
320
100
AcDbEntity
  8
Layer_1
 62
4
100
AcDbSpline
 70
8
 71
3
 72
8
 73
4
 74
0
 40
0
 40
0
 40
0
 40
0
 40
1
 40
1
 40
1
 40
1
 10
32.471206
 20
28.861772
 30
0.0
 10
32.714290
 20
28.365504
 30
0.0
 10
33.093204
 20
27.866261
 30
0.0
 10
33.652650
 20
27.305094
 30
0.0
  0
SPLINE
  5
321
100
AcDbEntity
  8
Layer_1
 62
4
100
AcDbSpline
 70
8
 71
3
 72
8
 73
4
 74
0
 40
0
 40
0
 40
0
 40
0
 40
1
 40
1
 40
1
 40
1
 10
33.652650
 20
27.305094
 30
0.0
 10
34.685659
 20
26.268951
 30
0.0
 10
35.204160
 20
25.982262
 30
0.0
 10
36.808046
 20
25.560054
 30
0.0
  0
SPLINE
  5
322
100
AcDbEntity
  8
Layer_1
 62
4
100
AcDbSpline
 70
8
 71
3
 72
8
 73
4
 74
0
 40
0
 40
0
 40
0
 40
0
 40
1
 40
1
 40
1
 40
1
 10
36.808046
 20
25.560054
 30
0.0
 10
36.823145
 20
25.555990
 30
0.0
 10
36.835365
 20
26.341996
 30
0.0
 10
36.835365
 20
27.306815
 30
0.0
  0
LINE
  5
323
100
AcDbEntity
  8
Layer_1
 62
4
100
AcDbLine
 10
36.835365
 20
27.306815
 30
0.0
 11
36.835365
 21
27.306815
 31
0.0
  0
LINE
  5
324
100
AcDbEntity
  8
Layer_1
 62
4
100
AcDbLine
 10
36.835365
 20
27.306815
 30
0.0
 11
36.835368
 21
27.306815
 31
0.0
  0
SPLINE
  5
325
100
AcDbEntity
  8
Layer_1
 62
4
100
AcDbSpline
 70
8
 71
3
 72
8
 73
4
 74
0
 40
0
 40
0
 40
0
 40
0
 40
1
 40
1
 40
1
 40
1
 10
39.375969
 20
25.878138
 30
0.0
 10
39.672288
 20
25.990717
 30
0.0
 10
40.159630
 20
26.240142
 30
0.0
 10
40.459160
 20
26.432338
 30
0.0
  0
LINE
  5
326
100
AcDbEntity
  8
Layer_1
 62
4
100
AcDbLine
 10
40.459160
 20
26.432338
 30
0.0
 11
41.003965
 21
26.781972
 31
0.0
  0
LINE
  5
327
100
AcDbEntity
  8
Layer_1
 62
4
100
AcDbLine
 10
41.003965
 20
26.781972
 30
0.0
 11
40.799086
 21
27.072658
 31
0.0
  0
SPLINE
  5
328
100
AcDbEntity
  8
Layer_1
 62
4
100
AcDbSpline
 70
8
 71
3
 72
8
 73
4
 74
0
 40
0
 40
0
 40
0
 40
0
 40
1
 40
1
 40
1
 40
1
 10
40.799086
 20
27.072658
 30
0.0
 10
40.288726
 20
27.796349
 30
0.0
 10
39.693348
 20
29.313491
 30
0.0
 10
39.522679
 20
30.325207
 30
0.0
  0
LINE
  5
329
100
AcDbEntity
  8
Layer_1
 62
4
100
AcDbLine
 10
39.522679
 20
30.325207
 30
0.0
 11
39.448777
 21
30.763464
 31
0.0
  0
LINE
  5
32a
100
AcDbEntity
  8
Layer_1
 62
4
100
AcDbLine
 10
39.448777
 20
30.763464
 30
0.0
 11
39.240138
 21
30.334681
 31
0.0
  0
SPLINE
  5
32b
100
AcDbEntity
  8
Layer_1
 62
4
100
AcDbSpline
 70
8
 71
3
 72
8
 73
4
 74
0
 40
0
 40
0
 40
0
 40
0
 40
1
 40
1
 40
1
 40
1
 10
39.240138
 20
30.334681
 30
0.0
 10
38.956971
 20
29.752375
 30
0.0
 10
38.755303
 20
29.548591
 30
0.0
 10
38.192490
 20
29.276227
 30
0.0
  0
LINE
  5
32c
100
AcDbEntity
  8
Layer_1
 62
4
100
AcDbLine
 10
38.192490
 20
29.276227
 30
0.0
 11
37.713288
 21
29.044339
 31
0.0
  0
LINE
  5
32d
100
AcDbEntity
  8
Layer_1
 62
4
100
AcDbLine
 10
37.713288
 20
29.044339
 30
0.0
 11
37.713288
 21
27.284268
 31
0.0
  0
LINE
  5
32e
100
AcDbEntity
  8
Layer_1
 62
4
100
AcDbLine
 10
37.713288
 20
27.284268
 30
0.0
 11
37.713288
 21
25.524277
 31
0.0
  0
LINE
  5
32f
100
AcDbEntity
  8
Layer_1
 62
4
100
AcDbLine
 10
37.713288
 20
25.524277
 30
0.0
 11
38.275319
 21
25.598885
 31
0.0
  0
SPLINE
  5
330
100
AcDbEntity
  8
Layer_1
 62
4
100
AcDbSpline
 70
8
 71
3
 72
8
 73
4
 74
0
 40
0
 40
0
 40
0
 40
0
 40
1
 40
1
 40
1
 40
1
 10
38.275319
 20
25.598885
 30
0.0
 10
38.584477
 20
25.639909
 30
0.0
 10
39.079726
 20
25.765560
 30
0.0
 10
39.375969
 20
25.878138
 30
0.0
  0
LINE
  5
331
100
AcDbEntity
  8
Layer_1
 62
4
100
AcDbLine
 10
39.375969
 20
25.878138
 30
0.0
 11
39.375969
 21
25.878138
 31
0.0
  0
LINE
  5
332
100
AcDbEntity
  8
Layer_1
 62
4
100
AcDbLine
 10
39.375969
 20
25.878138
 30
0.0
 11
39.375969
 21
25.878138
 31
0.0
  0
SPLINE
  5
333
100
AcDbEntity
  8
Layer_1
 62
7
100
AcDbSpline
 70
8
 71
3
 72
8
 73
4
 74
0
 40
0
 40
0
 40
0
 40
0
 40
1
 40
1
 40
1
 40
1
 10
-70.534716
 20
104.424360
 30
0.0
 10
-70.493145
 20
104.620473
 30
0.0
 10
-70.317701
 20
105.225326
 30
0.0
 10
-70.144764
 20
105.768488
 30
0.0
  0
SPLINE
  5
334
100
AcDbEntity
  8
Layer_1
 62
7
100
AcDbSpline
 70
8
 71
3
 72
8
 73
4
 74
0
 40
0
 40
0
 40
0
 40
0
 40
1
 40
1
 40
1
 40
1
 10
-70.144764
 20
105.768488
 30
0.0
 10
-69.175715
 20
108.811775
 30
0.0
 10
-67.016142
 20
110.571453
 30
0.0
 10
-63.897620
 20
110.859238
 30
0.0
  0
SPLINE
  5
335
100
AcDbEntity
  8
Layer_1
 62
7
100
AcDbSpline
 70
8
 71
3
 72
8
 73
4
 74
0
 40
0
 40
0
 40
0
 40
0
 40
1
 40
1
 40
1
 40
1
 10
-63.897620
 20
110.859238
 30
0.0
 10
-62.085020
 20
111.026540
 30
0.0
 10
-60.828341
 20
110.726072
 30
0.0
 10
-58.688184
 20
109.613679
 30
0.0
  0
SPLINE
  5
336
100
AcDbEntity
  8
Layer_1
 62
7
100
AcDbSpline
 70
8
 71
3
 72
8
 73
4
 74
0
 40
0
 40
0
 40
0
 40
0
 40
1
 40
1
 40
1
 40
1
 10
-58.688184
 20
109.613679
 30
0.0
 10
-57.039126
 20
108.756581
 30
0.0
 10
-56.360684
 20
108.503086
 30
0.0
 10
-55.330649
 20
108.359819
 30
0.0
  0
SPLINE
  5
337
100
AcDbEntity
  8
Layer_1
 62
7
100
AcDbSpline
 70
8
 71
3
 72
8
 73
4
 74
0
 40
0
 40
0
 40
0
 40
0
 40
1
 40
1
 40
1
 40
1
 10
-55.330649
 20
108.359819
 30
0.0
 10
-53.197303
 20
108.063107
 30
0.0
 10
-51.516147
 20
108.830329
 30
0.0
 10
-50.977605
 20
110.346531
 30
0.0
  0
LINE
  5
338
100
AcDbEntity
  8
Layer_1
 62
7
100
AcDbLine
 10
-50.977605
 20
110.346531
 30
0.0
 11
-50.791593
 21
110.870355
 31
0.0
  0
LINE
  5
339
100
AcDbEntity
  8
Layer_1
 62
7
100
AcDbLine
 10
-50.791593
 20
110.870355
 30
0.0
 11
-49.651327
 21
110.870355
 31
0.0
  0
LINE
  5
33a
100
AcDbEntity
  8
Layer_1
 62
7
100
AcDbLine
 10
-49.651327
 20
110.870355
 30
0.0
 11
-48.510907
 21
110.870355
 31
0.0
  0
LINE
  5
33b
100
AcDbEntity
  8
Layer_1
 62
7
100
AcDbLine
 10
-48.510907
 20
110.870355
 30
0.0
 11
-48.584733
 21
110.408769
 31
0.0
  0
SPLINE
  5
33c
100
AcDbEntity
  8
Layer_1
 62
7
100
AcDbSpline
 70
8
 71
3
 72
8
 73
4
 74
0
 40
0
 40
0
 40
0
 40
0
 40
1
 40
1
 40
1
 40
1
 10
-48.584733
 20
110.408769
 30
0.0
 10
-48.625365
 20
110.154727
 30
0.0
 10
-48.782489
 20
109.574534
 30
0.0
 10
-48.933975
 20
109.119525
 30
0.0
  0
SPLINE
  5
33d
100
AcDbEntity
  8
Layer_1
 62
7
100
AcDbSpline
 70
8
 71
3
 72
8
 73
4
 74
0
 40
0
 40
0
 40
0
 40
0
 40
1
 40
1
 40
1
 40
1
 10
-48.933975
 20
109.119525
 30
0.0
 10
-50.017169
 20
105.865485
 30
0.0
 10
-52.532170
 20
104.067682
 30
0.0
 10
-56.001186
 20
104.067682
 30
0.0
  0
SPLINE
  5
33e
100
AcDbEntity
  8
Layer_1
 62
7
100
AcDbSpline
 70
8
 71
3
 72
8
 73
4
 74
0
 40
0
 40
0
 40
0
 40
0
 40
1
 40
1
 40
1
 40
1
 10
-56.001186
 20
104.067682
 30
0.0
 10
-57.466267
 20
104.067682
 30
0.0
 10
-58.271379
 20
104.295655
 30
0.0
 10
-60.271011
 20
105.277151
 30
0.0
  0
SPLINE
  5
33f
100
AcDbEntity
  8
Layer_1
 62
7
100
AcDbSpline
 70
8
 71
3
 72
8
 73
4
 74
0
 40
0
 40
0
 40
0
 40
0
 40
1
 40
1
 40
1
 40
1
 10
-60.271011
 20
105.277151
 30
0.0
 10
-62.525780
 20
106.383987
 30
0.0
 10
-63.223874
 20
106.602647
 30
0.0
 10
-64.503413
 20
106.602881
 30
0.0
  0
SPLINE
  5
340
100
AcDbEntity
  8
Layer_1
 62
7
100
AcDbSpline
 70
8
 71
3
 72
8
 73
4
 74
0
 40
0
 40
0
 40
0
 40
0
 40
1
 40
1
 40
1
 40
1
 10
-64.503413
 20
106.602881
 30
0.0
 10
-66.419039
 20
106.603163
 30
0.0
 10
-67.501606
 20
105.967416
 30
0.0
 10
-68.120864
 20
104.479162
 30
0.0
  0
LINE
  5
341
100
AcDbEntity
  8
Layer_1
 62
7
100
AcDbLine
 10
-68.120864
 20
104.479162
 30
0.0
 11
-68.292080
 21
104.067682
 31
0.0
  0
LINE
  5
342
100
AcDbEntity
  8
Layer_1
 62
7
100
AcDbLine
 10
-68.292080
 20
104.067682
 30
0.0
 11
-69.451291
 21
104.067682
 31
0.0
  0
LINE
  5
343
100
AcDbEntity
  8
Layer_1
 62
7
100
AcDbLine
 10
-69.451291
 20
104.067682
 30
0.0
 11
-70.610657
 21
104.067682
 31
0.0
  0
LINE
  5
344
100
AcDbEntity
  8
Layer_1
 62
7
100
AcDbLine
 10
-70.610657
 20
104.067682
 30
0.0
 11
-70.534716
 21
104.424360
 31
0.0
  0
LINE
  5
345
100
AcDbEntity
  8
Layer_1
 62
7
100
AcDbLine
 10
-70.534716
 20
104.424360
 30
0.0
 11
-70.534716
 21
104.424360
 31
0.0
  0
SPLINE
  5
346
100
AcDbEntity
  8
Layer_1
 62
7
100
AcDbSpline
 70
8
 71
3
 72
8
 73
4
 74
0
 40
0
 40
0
 40
0
 40
0
 40
1
 40
1
 40
1
 40
1
 10
42.425050
 20
77.345888
 30
0.0
 10
44.947800
 20
73.996024
 30
0.0
 10
46.157269
 20
69.673435
 30
0.0
 10
45.291561
 20
65.351548
 30
0.0
  0
SPLINE
  5
347
100
AcDbEntity
  8
Layer_1
 62
7
100
AcDbSpline
 70
8
 71
3
 72
8
 73
4
 74
0
 40
0
 40
0
 40
0
 40
0
 40
1
 40
1
 40
1
 40
1
 10
30.968863
 20
83.558584
 30
0.0
 10
34.505285
 20
83.373825
 30
0.0
 10
37.741239
 20
81.920643
 30
0.0
 10
40.254281
 20
79.695230
 30
0.0
  0
LINE
  5
348
100
AcDbEntity
  8
Layer_1
 62
4
100
AcDbLine
 10
60.828088
 20
80.869059
 30
0.0
 11
62.164622
 21
81.370729
 31
0.0
  0
LINE
  5
349
100
AcDbEntity
  8
Layer_1
 62
4
100
AcDbLine
 10
62.164622
 20
81.370729
 30
0.0
 11
62.162364
 21
81.375188
 31
0.0
  0
SPLINE
  5
34a
100
AcDbEntity
  8
Layer_1
 62
4
100
AcDbSpline
 70
8
 71
3
 72
8
 73
4
 74
0
 40
0
 40
0
 40
0
 40
0
 40
1
 40
1
 40
1
 40
1
 10
62.162364
 20
81.375188
 30
0.0
 10
62.025283
 20
81.655302
 30
0.0
 10
61.950519
 20
81.965479
 30
0.0
 10
61.950519
 20
82.298360
 30
0.0
  0
SPLINE
  5
34b
100
AcDbEntity
  8
Layer_1
 62
4
100
AcDbSpline
 70
8
 71
3
 72
8
 73
4
 74
0
 40
0
 40
0
 40
0
 40
0
 40
1
 40
1
 40
1
 40
1
 10
61.950519
 20
82.298360
 30
0.0
 10
61.950519
 20
82.526023
 30
0.0
 10
61.975101
 20
82.708982
 30
0.0
 10
62.041725
 20
82.914488
 30
0.0
  0
LINE
  5
34c
100
AcDbEntity
  8
Layer_1
 62
4
100
AcDbLine
 10
62.041725
 20
82.914488
 30
0.0
 11
62.053155
 21
82.950889
 31
0.0
  0
LINE
  5
34d
100
AcDbEntity
  8
Layer_1
 62
4
100
AcDbLine
 10
62.053155
 20
82.950889
 30
0.0
 11
60.532959
 21
83.428445
 31
0.0
  0
LINE
  5
34e
100
AcDbEntity
  8
Layer_1
 62
4
100
AcDbLine
 10
60.532959
 20
83.428445
 30
0.0
 11
60.501960
 21
83.438238
 31
0.0
  0
SPLINE
  5
34f
100
AcDbEntity
  8
Layer_1
 62
4
100
AcDbSpline
 70
8
 71
3
 72
8
 73
4
 74
0
 40
0
 40
0
 40
0
 40
0
 40
1
 40
1
 40
1
 40
1
 10
60.501960
 20
83.438238
 30
0.0
 10
60.319314
 20
83.269371
 30
0.0
 10
60.076854
 20
83.164229
 30
0.0
 10
59.810050
 20
83.158124
 30
0.0
  0
LINE
  5
350
100
AcDbEntity
  8
Layer_1
 62
4
100
AcDbLine
 10
59.810050
 20
83.158124
 30
0.0
 11
59.807792
 21
83.139893
 31
0.0
  0
LINE
  5
351
100
AcDbEntity
  8
Layer_1
 62
4
100
AcDbLine
 10
59.807792
 20
83.139893
 30
0.0
 11
59.676740
 21
82.019279
 31
0.0
  0
LINE
  5
352
100
AcDbEntity
  8
Layer_1
 62
4
100
AcDbLine
 10
59.676740
 20
82.019279
 30
0.0
 11
59.676816
 21
82.019279
 31
0.0
  0
SPLINE
  5
353
100
AcDbEntity
  8
Layer_1
 62
4
100
AcDbSpline
 70
8
 71
3
 72
8
 73
4
 74
0
 40
0
 40
0
 40
0
 40
0
 40
1
 40
1
 40
1
 40
1
 10
59.676816
 20
82.019279
 30
0.0
 10
60.220918
 20
81.842585
 30
0.0
 10
60.651109
 20
81.413017
 30
0.0
 10
60.827961
 20
80.869074
 30
0.0
  0
SPLINE
  5
354
100
AcDbEntity
  8
Layer_1
 62
7
100
AcDbSpline
 70
8
 71
3
 72
8
 73
4
 74
0
 40
0
 40
0
 40
0
 40
0
 40
1
 40
1
 40
1
 40
1
 10
49.364933
 20
85.881919
 30
0.0
 10
49.354520
 20
85.895463
 30
0.0
 10
49.349197
 20
85.902430
 30
0.0
 10
49.349197
 20
85.902430
 30
0.0
  0
SPLINE
  5
355
100
AcDbEntity
  8
Layer_1
 62
7
100
AcDbSpline
 70
8
 71
3
 72
8
 73
4
 74
0
 40
0
 40
0
 40
0
 40
0
 40
1
 40
1
 40
1
 40
1
 10
49.349197
 20
85.902430
 30
0.0
 10
52.885620
 20
85.717749
 30
0.0
 10
56.121574
 20
84.264490
 30
0.0
 10
58.634538
 20
82.039077
 30
0.0
  0
LINE
  5
356
100
AcDbEntity
  8
Layer_1
 62
7
100
AcDbLine
 10
58.634538
 20
82.039077
 30
0.0
 11
58.634538
 21
82.038998
 31
0.0
  0
SPLINE
  5
357
100
AcDbEntity
  8
Layer_1
 62
7
100
AcDbSpline
 70
8
 71
3
 72
8
 73
4
 74
0
 40
0
 40
0
 40
0
 40
0
 40
1
 40
1
 40
1
 40
1
 10
58.634538
 20
82.038998
 30
0.0
 10
58.790410
 20
82.083231
 30
0.0
 10
58.954814
 20
82.106952
 30
0.0
 10
59.124778
 20
82.106952
 30
0.0
  0
SPLINE
  5
358
100
AcDbEntity
  8
Layer_1
 62
7
100
AcDbSpline
 70
8
 71
3
 72
8
 73
4
 74
0
 40
0
 40
0
 40
0
 40
0
 40
1
 40
1
 40
1
 40
1
 10
59.124778
 20
82.106952
 30
0.0
 10
59.189052
 20
82.106952
 30
0.0
 10
59.252309
 20
82.103586
 30
0.0
 10
59.314704
 20
82.097010
 30
0.0
  0
LINE
  5
359
100
AcDbEntity
  8
Layer_1
 62
7
100
AcDbLine
 10
59.314704
 20
82.097010
 30
0.0
 11
59.458284
 21
83.210656
 31
0.0
  0
LINE
  5
35a
100
AcDbEntity
  8
Layer_1
 62
7
100
AcDbLine
 10
59.458284
 20
83.210656
 30
0.0
 11
59.438791
 21
83.217232
 31
0.0
  0
SPLINE
  5
35b
100
AcDbEntity
  8
Layer_1
 62
7
100
AcDbSpline
 70
8
 71
3
 72
8
 73
4
 74
0
 40
0
 40
0
 40
0
 40
0
 40
1
 40
1
 40
1
 40
1
 10
59.438791
 20
83.217232
 30
0.0
 10
59.016505
 20
83.355489
 30
0.0
 10
58.730754
 20
83.746145
 30
0.0
 10
58.730754
 20
84.214620
 30
0.0
  0
SPLINE
  5
35c
100
AcDbEntity
  8
Layer_1
 62
7
100
AcDbSpline
 70
8
 71
3
 72
8
 73
4
 74
0
 40
0
 40
0
 40
0
 40
0
 40
1
 40
1
 40
1
 40
1
 10
58.730754
 20
84.214620
 30
0.0
 10
58.730754
 20
84.797866
 30
0.0
 10
59.203614
 20
85.270725
 30
0.0
 10
59.786937
 20
85.270725
 30
0.0
  0
SPLINE
  5
35d
100
AcDbEntity
  8
Layer_1
 62
7
100
AcDbSpline
 70
8
 71
3
 72
8
 73
4
 74
0
 40
0
 40
0
 40
0
 40
0
 40
1
 40
1
 40
1
 40
1
 10
59.786937
 20
85.270725
 30
0.0
 10
60.370182
 20
85.270725
 30
0.0
 10
60.843041
 20
84.797787
 30
0.0
 10
60.843041
 20
84.214620
 30
0.0
  0
SPLINE
  5
35e
100
AcDbEntity
  8
Layer_1
 62
7
100
AcDbSpline
 70
8
 71
3
 72
8
 73
4
 74
0
 40
0
 40
0
 40
0
 40
0
 40
1
 40
1
 40
1
 40
1
 10
60.843041
 20
84.214620
 30
0.0
 10
60.843041
 20
84.056244
 30
0.0
 10
60.808203
 20
83.905853
 30
0.0
 10
60.745573
 20
83.770963
 30
0.0
  0
LINE
  5
35f
100
AcDbEntity
  8
Layer_1
 62
7
100
AcDbLine
 10
60.745573
 20
83.770963
 30
0.0
 11
60.790119
 21
83.757732
 31
0.0
  0
LINE
  5
360
100
AcDbEntity
  8
Layer_1
 62
7
100
AcDbLine
 10
60.790119
 20
83.757732
 30
0.0
 11
62.201102
 21
83.334429
 31
0.0
  0
LINE
  5
361
100
AcDbEntity
  8
Layer_1
 62
7
100
AcDbLine
 10
62.201102
 20
83.334429
 30
0.0
 11
62.219422
 21
83.329027
 31
0.0
  0
SPLINE
  5
362
100
AcDbEntity
  8
Layer_1
 62
7
100
AcDbSpline
 70
8
 71
3
 72
8
 73
4
 74
0
 40
0
 40
0
 40
0
 40
0
 40
1
 40
1
 40
1
 40
1
 10
62.219422
 20
83.329027
 30
0.0
 10
62.580877
 20
83.974824
 30
0.0
 10
63.271612
 20
84.411358
 30
0.0
 10
64.064199
 20
84.411358
 30
0.0
  0
SPLINE
  5
363
100
AcDbEntity
  8
Layer_1
 62
7
100
AcDbSpline
 70
8
 71
3
 72
8
 73
4
 74
0
 40
0
 40
0
 40
0
 40
0
 40
1
 40
1
 40
1
 40
1
 10
64.064199
 20
84.411358
 30
0.0
 10
65.230846
 20
84.411358
 30
0.0
 10
66.176564
 20
83.465796
 30
0.0
 10
66.176564
 20
82.299228
 30
0.0
  0
SPLINE
  5
364
100
AcDbEntity
  8
Layer_1
 62
7
100
AcDbSpline
 70
8
 71
3
 72
8
 73
4
 74
0
 40
0
 40
0
 40
0
 40
0
 40
1
 40
1
 40
1
 40
1
 10
66.176564
 20
82.299228
 30
0.0
 10
66.176564
 20
81.589939
 30
0.0
 10
65.827165
 20
80.962461
 30
0.0
 10
65.291049
 20
80.579320
 30
0.0
  0
LINE
  5
365
100
AcDbEntity
  8
Layer_1
 62
7
100
AcDbLine
 10
65.291049
 20
80.579320
 30
0.0
 11
65.304671
 21
80.560531
 31
0.0
  0
LINE
  5
366
100
AcDbEntity
  8
Layer_1
 62
7
100
AcDbLine
 10
65.304671
 20
80.560531
 30
0.0
 11
65.786064
 21
79.897432
 31
0.0
  0
LINE
  5
367
100
AcDbEntity
  8
Layer_1
 62
7
100
AcDbLine
 10
65.786064
 20
79.897432
 30
0.0
 11
65.800312
 21
79.875746
 31
0.0
  0
SPLINE
  5
368
100
AcDbEntity
  8
Layer_1
 62
7
100
AcDbSpline
 70
8
 71
3
 72
8
 73
4
 74
0
 40
0
 40
0
 40
0
 40
0
 40
1
 40
1
 40
1
 40
1
 10
65.800312
 20
79.875746
 30
0.0
 10
65.947963
 20
79.929765
 30
0.0
 10
66.107358
 20
79.959201
 30
0.0
 10
66.273641
 20
79.959201
 30
0.0
  0
SPLINE
  5
369
100
AcDbEntity
  8
Layer_1
 62
7
100
AcDbSpline
 70
8
 71
3
 72
8
 73
4
 74
0
 40
0
 40
0
 40
0
 40
0
 40
1
 40
1
 40
1
 40
1
 10
66.273641
 20
79.959201
 30
0.0
 10
67.033817
 20
79.959201
 30
0.0
 10
67.649865
 20
79.343153
 30
0.0
 10
67.649865
 20
78.582977
 30
0.0
  0
SPLINE
  5
36a
100
AcDbEntity
  8
Layer_1
 62
7
100
AcDbSpline
 70
8
 71
3
 72
8
 73
4
 74
0
 40
0
 40
0
 40
0
 40
0
 40
1
 40
1
 40
1
 40
1
 10
67.649865
 20
78.582977
 30
0.0
 10
67.649865
 20
78.067921
 30
0.0
 10
67.366932
 20
77.619096
 30
0.0
 10
66.948170
 20
77.383058
 30
0.0
  0
SPLINE
  5
36b
100
AcDbEntity
  8
Layer_1
 62
7
100
AcDbSpline
 70
8
 71
3
 72
8
 73
4
 74
0
 40
0
 40
0
 40
0
 40
0
 40
1
 40
1
 40
1
 40
1
 10
66.948170
 20
77.383058
 30
0.0
 10
68.105814
 20
73.161615
 30
0.0
 10
68.116539
 20
68.280910
 30
0.0
 10
66.322649
 20
65.235587
 30
0.0
  0
LINE
  5
36c
100
AcDbEntity
  8
Layer_1
 62
7
100
AcDbLine
 10
66.322649
 20
65.235587
 30
0.0
 11
66.329539
 21
65.220634
 31
0.0
  0
LINE
  5
36d
100
AcDbEntity
  8
Layer_1
 62
7
100
AcDbLine
 10
66.329539
 20
65.220634
 30
0.0
 11
66.810775
 21
64.228804
 31
0.0
  0
SPLINE
  5
36e
100
AcDbEntity
  8
Layer_1
 62
7
100
AcDbSpline
 70
8
 71
3
 72
8
 73
4
 74
0
 40
0
 40
0
 40
0
 40
0
 40
1
 40
1
 40
1
 40
1
 10
66.810775
 20
64.228804
 30
0.0
 10
67.442872
 20
62.925936
 30
0.0
 10
67.660121
 20
61.981001
 30
0.0
 10
67.660121
 20
60.533691
 30
0.0
  0
SPLINE
  5
36f
100
AcDbEntity
  8
Layer_1
 62
7
100
AcDbSpline
 70
8
 71
3
 72
8
 73
4
 74
0
 40
0
 40
0
 40
0
 40
0
 40
1
 40
1
 40
1
 40
1
 10
67.660121
 20
60.533691
 30
0.0
 10
67.660121
 20
59.169837
 30
0.0
 10
67.456964
 20
58.211201
 30
0.0
 10
66.922492
 20
57.054575
 30
0.0
  0
SPLINE
  5
370
100
AcDbEntity
  8
Layer_1
 62
7
100
AcDbSpline
 70
8
 71
3
 72
8
 73
4
 74
0
 40
0
 40
0
 40
0
 40
0
 40
1
 40
1
 40
1
 40
1
 10
66.922492
 20
57.054575
 30
0.0
 10
66.711506
 20
56.597530
 30
0.0
 10
66.538724
 20
56.217286
 30
0.0
 10
66.538724
 20
56.209379
 30
0.0
  0
SPLINE
  5
371
100
AcDbEntity
  8
Layer_1
 62
7
100
AcDbSpline
 70
8
 71
3
 72
8
 73
4
 74
0
 40
0
 40
0
 40
0
 40
0
 40
1
 40
1
 40
1
 40
1
 10
66.538724
 20
56.209379
 30
0.0
 10
66.538724
 20
56.201393
 30
0.0
 10
66.718160
 20
56.098131
 30
0.0
 10
66.937758
 20
55.979917
 30
0.0
  0
LINE
  5
372
100
AcDbEntity
  8
Layer_1
 62
7
100
AcDbLine
 10
66.937758
 20
55.979917
 30
0.0
 11
67.336635
 21
55.765094
 31
0.0
  0
LINE
  5
373
100
AcDbEntity
  8
Layer_1
 62
7
100
AcDbLine
 10
67.336635
 20
55.765094
 30
0.0
 11
69.128255
 21
57.628348
 31
0.0
  0
SPLINE
  5
374
100
AcDbEntity
  8
Layer_1
 62
7
100
AcDbSpline
 70
8
 71
3
 72
8
 73
4
 74
0
 40
0
 40
0
 40
0
 40
0
 40
1
 40
1
 40
1
 40
1
 10
69.128255
 20
57.628348
 30
0.0
 10
70.113587
 20
58.652902
 30
0.0
 10
70.921440
 20
59.531841
 30
0.0
 10
70.923710
 20
59.581162
 30
0.0
  0
SPLINE
  5
375
100
AcDbEntity
  8
Layer_1
 62
7
100
AcDbSpline
 70
8
 71
3
 72
8
 73
4
 74
0
 40
0
 40
0
 40
0
 40
0
 40
1
 40
1
 40
1
 40
1
 10
70.923710
 20
59.581162
 30
0.0
 10
70.925746
 20
59.630483
 30
0.0
 10
70.277365
 20
60.628342
 30
0.0
 10
69.482508
 20
61.798511
 30
0.0
  0
LINE
  5
376
100
AcDbEntity
  8
Layer_1
 62
7
100
AcDbLine
 10
69.482508
 20
61.798511
 30
0.0
 11
68.037469
 21
63.926221
 31
0.0
  0
LINE
  5
377
100
AcDbEntity
  8
Layer_1
 62
7
100
AcDbLine
 10
68.037469
 20
63.926221
 30
0.0
 11
68.673323
 21
65.384491
 31
0.0
  0
SPLINE
  5
378
100
AcDbEntity
  8
Layer_1
 62
7
100
AcDbSpline
 70
8
 71
3
 72
8
 73
4
 74
0
 40
0
 40
0
 40
0
 40
0
 40
1
 40
1
 40
1
 40
1
 10
68.673323
 20
65.384491
 30
0.0
 10
69.023114
 20
66.186629
 30
0.0
 10
69.443520
 20
67.163663
 30
0.0
 10
69.607533
 20
67.556042
 30
0.0
  0
LINE
  5
379
100
AcDbEntity
  8
Layer_1
 62
7
100
AcDbLine
 10
69.607533
 20
67.556042
 30
0.0
 11
69.905732
 21
68.269088
 31
0.0
  0
LINE
  5
37a
100
AcDbEntity
  8
Layer_1
 62
7
100
AcDbLine
 10
69.905732
 20
68.269088
 30
0.0
 11
70.773319
 21
68.456666
 31
0.0
  0
SPLINE
  5
37b
100
AcDbEntity
  8
Layer_1
 62
7
100
AcDbSpline
 70
8
 71
3
 72
8
 73
4
 74
0
 40
0
 40
0
 40
0
 40
0
 40
1
 40
1
 40
1
 40
1
 10
70.773319
 20
68.456666
 30
0.0
 10
71.250484
 20
68.559615
 30
0.0
 10
72.404370
 20
68.771932
 30
0.0
 10
73.337641
 20
68.928195
 30
0.0
  0
SPLINE
  5
37c
100
AcDbEntity
  8
Layer_1
 62
7
100
AcDbSpline
 70
8
 71
3
 72
8
 73
4
 74
0
 40
0
 40
0
 40
0
 40
0
 40
1
 40
1
 40
1
 40
1
 10
73.337641
 20
68.928195
 30
0.0
 10
74.270833
 20
69.084457
 30
0.0
 10
75.053478
 20
69.231482
 30
0.0
 10
75.077199
 20
69.254969
 30
0.0
  0
SPLINE
  5
37d
100
AcDbEntity
  8
Layer_1
 62
7
100
AcDbSpline
 70
8
 71
3
 72
8
 73
4
 74
0
 40
0
 40
0
 40
0
 40
0
 40
1
 40
1
 40
1
 40
1
 10
75.077199
 20
69.254969
 30
0.0
 10
75.100529
 20
69.278298
 30
0.0
 10
75.083697
 20
70.503505
 30
0.0
 10
75.039699
 20
71.977510
 30
0.0
  0
LINE
  5
37e
100
AcDbEntity
  8
Layer_1
 62
7
100
AcDbLine
 10
75.039699
 20
71.977510
 30
0.0
 11
74.959532
 21
74.657306
 31
0.0
  0
LINE
  5
37f
100
AcDbEntity
  8
Layer_1
 62
7
100
AcDbLine
 10
74.959532
 20
74.657306
 30
0.0
 11
73.245339
 21
74.958167
 31
0.0
  0
SPLINE
  5
380
100
AcDbEntity
  8
Layer_1
 62
7
100
AcDbSpline
 70
8
 71
3
 72
8
 73
4
 74
0
 40
0
 40
0
 40
0
 40
0
 40
1
 40
1
 40
1
 40
1
 10
73.245339
 20
74.958167
 30
0.0
 10
72.302518
 20
75.123668
 30
0.0
 10
71.132426
 20
75.331757
 30
0.0
 10
70.644927
 20
75.420770
 30
0.0
  0
LINE
  5
381
100
AcDbEntity
  8
Layer_1
 62
7
100
AcDbLine
 10
70.644927
 20
75.420770
 30
0.0
 11
69.758707
 21
75.582592
 31
0.0
  0
LINE
  5
382
100
AcDbEntity
  8
Layer_1
 62
7
100
AcDbLine
 10
69.758707
 20
75.582592
 30
0.0
 11
69.422774
 21
76.369542
 31
0.0
  0
SPLINE
  5
383
100
AcDbEntity
  8
Layer_1
 62
7
100
AcDbSpline
 70
8
 71
3
 72
8
 73
4
 74
0
 40
0
 40
0
 40
0
 40
0
 40
1
 40
1
 40
1
 40
1
 10
69.422774
 20
76.369542
 30
0.0
 10
69.238014
 20
76.802474
 30
0.0
 10
68.832718
 20
77.713824
 30
0.0
 10
68.522149
 20
78.395008
 30
0.0
  0
SPLINE
  5
384
100
AcDbEntity
  8
Layer_1
 62
7
100
AcDbSpline
 70
8
 71
3
 72
8
 73
4
 74
0
 40
0
 40
0
 40
0
 40
0
 40
1
 40
1
 40
1
 40
1
 10
68.522149
 20
78.395008
 30
0.0
 10
68.211581
 20
79.076191
 30
0.0
 10
67.991357
 20
79.693335
 30
0.0
 10
68.033006
 20
79.766613
 30
0.0
  0
SPLINE
  5
385
100
AcDbEntity
  8
Layer_1
 62
7
100
AcDbSpline
 70
8
 71
3
 72
8
 73
4
 74
0
 40
0
 40
0
 40
0
 40
0
 40
1
 40
1
 40
1
 40
1
 10
68.033006
 20
79.766613
 30
0.0
 10
68.074812
 20
79.839812
 30
0.0
 10
68.743000
 20
80.871334
 30
0.0
 10
69.518285
 20
82.058884
 30
0.0
  0
SPLINE
  5
386
100
AcDbEntity
  8
Layer_1
 62
7
100
AcDbSpline
 70
8
 71
3
 72
8
 73
4
 74
0
 40
0
 40
0
 40
0
 40
0
 40
1
 40
1
 40
1
 40
1
 10
69.518285
 20
82.058884
 30
0.0
 10
70.293414
 20
83.246355
 30
0.0
 10
70.927703
 20
84.259088
 30
0.0
 10
70.927703
 20
84.309427
 30
0.0
  0
SPLINE
  5
387
100
AcDbEntity
  8
Layer_1
 62
7
100
AcDbSpline
 70
8
 71
3
 72
8
 73
4
 74
0
 40
0
 40
0
 40
0
 40
0
 40
1
 40
1
 40
1
 40
1
 10
70.927703
 20
84.309427
 30
0.0
 10
70.927703
 20
84.359688
 30
0.0
 10
70.093858
 20
85.233538
 30
0.0
 10
69.074627
 20
86.251438
 30
0.0
  0
LINE
  5
388
100
AcDbEntity
  8
Layer_1
 62
7
100
AcDbLine
 10
69.074627
 20
86.251438
 30
0.0
 11
67.221630
 21
88.102087
 31
0.0
  0
LINE
  5
389
100
AcDbEntity
  8
Layer_1
 62
7
100
AcDbLine
 10
67.221630
 20
88.102087
 30
0.0
 11
64.928576
 21
86.554177
 31
0.0
  0
LINE
  5
38a
100
AcDbEntity
  8
Layer_1
 62
7
100
AcDbLine
 10
64.928576
 20
86.554177
 30
0.0
 11
62.635600
 21
85.006346
 31
0.0
  0
LINE
  5
38b
100
AcDbEntity
  8
Layer_1
 62
7
100
AcDbLine
 10
62.635600
 20
85.006346
 30
0.0
 11
60.616241
 21
85.829857
 31
0.0
  0
SPLINE
  5
38c
100
AcDbEntity
  8
Layer_1
 62
7
100
AcDbSpline
 70
8
 71
3
 72
8
 73
4
 74
0
 40
0
 40
0
 40
0
 40
0
 40
1
 40
1
 40
1
 40
1
 10
60.616241
 20
85.829857
 30
0.0
 10
59.505414
 20
86.282910
 30
0.0
 10
58.581224
 20
86.668869
 30
0.0
 10
58.562357
 20
86.687737
 30
0.0
  0
SPLINE
  5
38d
100
AcDbEntity
  8
Layer_1
 62
7
100
AcDbSpline
 70
8
 71
3
 72
8
 73
4
 74
0
 40
0
 40
0
 40
0
 40
0
 40
1
 40
1
 40
1
 40
1
 10
58.562357
 20
86.687737
 30
0.0
 10
58.543490
 20
86.706682
 30
0.0
 10
58.306903
 20
87.828705
 30
0.0
 10
58.036653
 20
89.181129
 30
0.0
  0
SPLINE
  5
38e
100
AcDbEntity
  8
Layer_1
 62
7
100
AcDbSpline
 70
8
 71
3
 72
8
 73
4
 74
0
 40
0
 40
0
 40
0
 40
0
 40
1
 40
1
 40
1
 40
1
 10
58.036653
 20
89.181129
 30
0.0
 10
57.766247
 20
90.533554
 30
0.0
 10
57.518622
 20
91.752184
 30
0.0
 10
57.485976
 20
91.889031
 30
0.0
  0
LINE
  5
38f
100
AcDbEntity
  8
Layer_1
 62
7
100
AcDbLine
 10
57.485976
 20
91.889031
 30
0.0
 11
57.426712
 21
92.137830
 31
0.0
  0
LINE
  5
390
100
AcDbEntity
  8
Layer_1
 62
7
100
AcDbLine
 10
57.426712
 20
92.137830
 30
0.0
 11
54.827865
 21
92.108472
 31
0.0
  0
LINE
  5
391
100
AcDbEntity
  8
Layer_1
 62
7
100
AcDbLine
 10
54.827865
 20
92.108472
 30
0.0
 11
52.229019
 21
92.079114
 31
0.0
  0
LINE
  5
392
100
AcDbEntity
  8
Layer_1
 62
7
100
AcDbLine
 10
52.229019
 20
92.079114
 30
0.0
 11
51.690319
 21
89.375440
 31
0.0
  0
LINE
  5
393
100
AcDbEntity
  8
Layer_1
 62
7
100
AcDbLine
 10
51.690319
 20
89.375440
 30
0.0
 11
51.151620
 21
86.672001
 31
0.0
  0
LINE
  5
394
100
AcDbEntity
  8
Layer_1
 62
7
100
AcDbLine
 10
51.151620
 20
86.672001
 30
0.0
 11
49.349353
 21
85.902509
 31
0.0
  0
SPLINE
  5
395
100
AcDbEntity
  8
Layer_1
 62
7
100
AcDbSpline
 70
8
 71
3
 72
8
 73
4
 74
0
 40
0
 40
0
 40
0
 40
0
 40
1
 40
1
 40
1
 40
1
 10
63.671741
 20
67.695394
 30
0.0
 10
64.537449
 20
72.017359
 30
0.0
 10
63.327901
 20
76.340028
 30
0.0
 10
60.805150
 20
79.689734
 30
0.0
  0
SPLINE
  5
396
100
AcDbEntity
  8
Layer_1
 62
7
100
AcDbSpline
 70
8
 71
3
 72
8
 73
4
 74
0
 40
0
 40
0
 40
0
 40
0
 40
1
 40
1
 40
1
 40
1
 10
60.805150
 20
79.689734
 30
0.0
 10
60.877566
 20
79.884358
 30
0.0
 10
60.917180
 20
80.094874
 30
0.0
 10
60.917180
 20
80.314628
 30
0.0
  0
SPLINE
  5
397
100
AcDbEntity
  8
Layer_1
 62
7
100
AcDbSpline
 70
8
 71
3
 72
8
 73
4
 74
0
 40
0
 40
0
 40
0
 40
0
 40
1
 40
1
 40
1
 40
1
 10
60.917180
 20
80.314628
 30
0.0
 10
60.917180
 20
80.364028
 30
0.0
 10
60.915145
 20
80.412880
 30
0.0
 10
60.911152
 20
80.461340
 30
0.0
  0
LINE
  5
398
100
AcDbEntity
  8
Layer_1
 62
7
100
AcDbLine
 10
60.911152
 20
80.461340
 30
0.0
 11
62.376780
 21
81.028145
 31
0.0
  0
LINE
  5
399
100
AcDbEntity
  8
Layer_1
 62
7
100
AcDbLine
 10
62.376780
 20
81.028145
 30
0.0
 11
62.376780
 21
81.028066
 31
0.0
  0
SPLINE
  5
39a
100
AcDbEntity
  8
Layer_1
 62
7
100
AcDbSpline
 70
8
 71
3
 72
8
 73
4
 74
0
 40
0
 40
0
 40
0
 40
0
 40
1
 40
1
 40
1
 40
1
 10
62.376780
 20
81.028066
 30
0.0
 10
62.762427
 20
80.516924
 30
0.0
 10
63.374717
 20
80.186549
 30
0.0
 10
64.064277
 20
80.186549
 30
0.0
  0
SPLINE
  5
39b
100
AcDbEntity
  8
Layer_1
 62
7
100
AcDbSpline
 70
8
 71
3
 72
8
 73
4
 74
0
 40
0
 40
0
 40
0
 40
0
 40
1
 40
1
 40
1
 40
1
 10
64.064277
 20
80.186549
 30
0.0
 10
64.348541
 20
80.186549
 30
0.0
 10
64.619730
 20
80.242682
 30
0.0
 10
64.867355
 20
80.344456
 30
0.0
  0
LINE
  5
39c
100
AcDbEntity
  8
Layer_1
 62
7
100
AcDbLine
 10
64.867355
 20
80.344456
 30
0.0
 11
64.878080
 21
80.329816
 31
0.0
  0
LINE
  5
39d
100
AcDbEntity
  8
Layer_1
 62
7
100
AcDbLine
 10
64.878080
 20
80.329816
 30
0.0
 11
65.377244
 21
79.644483
 31
0.0
  0
LINE
  5
39e
100
AcDbEntity
  8
Layer_1
 62
7
100
AcDbLine
 10
65.377244
 20
79.644483
 30
0.0
 11
65.385151
 21
79.633680
 31
0.0
  0
SPLINE
  5
39f
100
AcDbEntity
  8
Layer_1
 62
7
100
AcDbSpline
 70
8
 71
3
 72
8
 73
4
 74
0
 40
0
 40
0
 40
0
 40
0
 40
1
 40
1
 40
1
 40
1
 10
65.385151
 20
79.633680
 30
0.0
 10
65.086953
 20
79.381201
 30
0.0
 10
64.897496
 20
79.004088
 30
0.0
 10
64.897496
 20
78.582664
 30
0.0
  0
SPLINE
  5
3a0
100
AcDbEntity
  8
Layer_1
 62
7
100
AcDbSpline
 70
8
 71
3
 72
8
 73
4
 74
0
 40
0
 40
0
 40
0
 40
0
 40
1
 40
1
 40
1
 40
1
 10
64.897496
 20
78.582664
 30
0.0
 10
64.897496
 20
77.822488
 30
0.0
 10
65.513544
 20
77.206440
 30
0.0
 10
66.273720
 20
77.206440
 30
0.0
  0
SPLINE
  5
3a1
100
AcDbEntity
  8
Layer_1
 62
7
100
AcDbSpline
 70
8
 71
3
 72
8
 73
4
 74
0
 40
0
 40
0
 40
0
 40
0
 40
1
 40
1
 40
1
 40
1
 10
66.273720
 20
77.206440
 30
0.0
 10
66.356078
 20
77.206440
 30
0.0
 10
66.436715
 20
77.213643
 30
0.0
 10
66.515081
 20
77.227500
 30
0.0
  0
LINE
  5
3a2
100
AcDbEntity
  8
Layer_1
 62
7
100
AcDbLine
 10
66.515081
 20
77.227500
 30
0.0
 11
66.515081
 21
77.227578
 31
0.0
  0
SPLINE
  5
3a3
100
AcDbEntity
  8
Layer_1
 62
7
100
AcDbSpline
 70
8
 71
3
 72
8
 73
4
 74
0
 40
0
 40
0
 40
0
 40
0
 40
1
 40
1
 40
1
 40
1
 10
66.515081
 20
77.227578
 30
0.0
 10
67.743263
 20
73.668217
 30
0.0
 10
67.721890
 20
68.750168
 30
0.0
 10
66.074555
 20
65.590388
 30
0.0
  0
LINE
  5
3a4
100
AcDbEntity
  8
Layer_1
 62
7
100
AcDbLine
 10
66.074555
 20
65.590388
 30
0.0
 11
66.049816
 21
65.615127
 31
0.0
  0
LINE
  5
3a5
100
AcDbEntity
  8
Layer_1
 62
7
100
AcDbLine
 10
66.049816
 20
65.615127
 30
0.0
 11
65.346634
 21
66.334358
 31
0.0
  0
SPLINE
  5
3a6
100
AcDbEntity
  8
Layer_1
 62
7
100
AcDbSpline
 70
8
 71
3
 72
8
 73
4
 74
0
 40
0
 40
0
 40
0
 40
0
 40
1
 40
1
 40
1
 40
1
 10
65.346634
 20
66.334358
 30
0.0
 10
64.800262
 20
66.893021
 30
0.0
 10
64.258901
 20
67.337070
 30
0.0
 10
63.671741
 20
67.695394
 30
0.0
  0
LINE
  5
3a7
100
AcDbEntity
  8
Layer_1
 62
7
100
AcDbLine
 10
63.671741
 20
67.695394
 30
0.0
 11
63.671741
 21
67.695394
 31
0.0
  0
ENDSEC
  0
SECTION
  2
OBJECTS
  0
DICTIONARY
  5
C
330
0
100
AcDbDictionary
  3
ACAD_GROUP
350
D
  3
ACAD_MLINESTYLE
350
17
  0
DICTIONARY
  5
D
330
C
100
AcDbDictionary
  0
DICTIONARY
  5
1A
330
C
100
AcDbDictionary
  0
DICTIONARY
  5
17
330
C
100
AcDbDictionary
  3
STANDARD
350
18
  0
DICTIONARY
  5
19
330
C
100
AcDbDictionary
  0
ENDSEC
  0
EOF
