  0
SECTION
  2
HEADER
  9
$ACADVER
  1
AC1014
  9
$HANDSEED
  5
FFFF
  9
$MEASUREMENT
 70
     1
  0
ENDSEC
  0
SECTION
  2
TABLES
  0
TABLE
  2
VPORT
  5
8
330
0
100
AcDbSymbolTable
 70
     4
  0
VPORT
  5
2E
330
8
100
AcDbSymbolTableRecord
100
AcDbViewportTableRecord
  2
*ACTIVE
 70
     0
 10
0.0
 20
0.0
 11
1.0
 21
1.0
 12
210.0
 22
148.5
 13
0.0
 23
0.0
 14
10.0
 24
10.0
 15
10.0
 25
10.0
 16
0.0
 26
0.0
 36
1.0
 17
0.0
 27
0.0
 37
0.0
 40
341.0
 41
1.24
 42
50.0
 43
0.0
 44
0.0
 50
0.0
 51
0.0
 71
     0
 72
   100
 73
     1
 74
     3
 75
     0
 76
     0
 77
     0
 78
     0
  0
ENDTAB
  0
TABLE
  2
LTYPE
  5
5
330
0
100
AcDbSymbolTable
 70
     1
  0
LTYPE
  5
14
330
5
100
AcDbSymbolTableRecord
100
AcDbLinetypeTableRecord
  2
BYBLOCK
 70
     0
  3

 72
    65
 73
     0
 40
0.0
  0
LTYPE
  5
15
330
5
100
AcDbSymbolTableRecord
100
AcDbLinetypeTableRecord
  2
BYLAYER
 70
     0
  3

 72
    65
 73
     0
 40
0.0
  0
LTYPE
  5
16
330
5
100
AcDbSymbolTableRecord
100
AcDbLinetypeTableRecord
  2
CONTINUOUS
 70
     0
  3
Solid line
 72
    65
 73
     0
 40
0.0
  0
ENDTAB
  0
TABLE
  2
LAYER
  5
2
100
AcDbSymbolTable
 70
2
  0
LAYER
  5
50
100
AcDbSymbolTableRecord
100
AcDbLayerTableRecord
  2
0
 70
0
  6
CONTINUOUS
  0
LAYER
  5
51
100
AcDbSymbolTableRecord
100
AcDbLayerTableRecord
  2
Layer_1
 70
0
  6
CONTINUOUS
  0
ENDTAB
  0
TABLE
  2
STYLE
  5
3
330
0
100
AcDbSymbolTable
 70
     1
  0
STYLE
  5
11
330
3
100
AcDbSymbolTableRecord
100
AcDbTextStyleTableRecord
  2
STANDARD
 70
     0
 40
0.0
 41
1.0
 50
0.0
 71
     0
 42
2.5
  3
txt
  4

  0
ENDTAB
  0
TABLE
  2
VIEW
  5
6
330
0
100
AcDbSymbolTable
 70
     0
  0
ENDTAB
  0
TABLE
  2
UCS
  5
7
330
0
100
AcDbSymbolTable
 70
     0
  0
ENDTAB
  0
TABLE
  2
APPID
  5
9
330
0
100
AcDbSymbolTable
 70
     2
  0
APPID
  5
12
330
9
100
AcDbSymbolTableRecord
100
AcDbRegAppTableRecord
  2
ACAD
 70
     0
  0
ENDTAB
  0
TABLE
  2
DIMSTYLE
  5
A
330
0
100
AcDbSymbolTable
 70
     1
  0
DIMSTYLE
105
27
330
A
100
AcDbSymbolTableRecord
100
AcDbDimStyleTableRecord
  2
ISO-25
 70
     0
  3

  4

  5

  6

  7

 40
1.0
 41
2.5
 42
0.625
 43
3.75
 44
1.25
 45
0.0
 46
0.0
 47
0.0
 48
0.0
140
2.5
141
2.5
142
0.0
143
0.03937007874016
144
1.0
145
0.0
146
1.0
147
0.625
 71
     0
 72
     0
 73
     0
 74
     0
 75
     0
 76
     0
 77
     1
 78
     8
170
     0
171
     3
172
     1
173
     0
174
     0
175
     0
176
     0
177
     0
178
     0
270
     2
271
     2
272
     2
273
     2
274
     3
340
11
275
     0
280
     0
281
     0
282
     0
283
     0
284
     8
285
     0
286
     0
287
     3
288
     0
  0
ENDTAB
  0
TABLE
  2
BLOCK_RECORD
  5
1
330
0
100
AcDbSymbolTable
 70
     1
  0
BLOCK_RECORD
  5
1F
330
1
100
AcDbSymbolTableRecord
100
AcDbBlockTableRecord
  2
*MODEL_SPACE
  0
BLOCK_RECORD
  5
1B
330
1
100
AcDbSymbolTableRecord
100
AcDbBlockTableRecord
  2
*PAPER_SPACE
  0
ENDTAB
  0
ENDSEC
  0
SECTION
  2
BLOCKS
  0
BLOCK
  5
20
330
1F
100
AcDbEntity
  8
0
100
AcDbBlockBegin
  2
*MODEL_SPACE
 70
     0
 10
0.0
 20
0.0
 30
0.0
  3
*MODEL_SPACE
  1

  0
ENDBLK
  5
21
330
1F
100
AcDbEntity
  8
0
100
AcDbBlockEnd
  0
BLOCK
  5
1C
330
1B
100
AcDbEntity
 67
     1
  8
0
100
AcDbBlockBegin
  2
*PAPER_SPACE
  1

  0
ENDBLK
  5
1D
330
1B
100
AcDbEntity
 67
     1
  8
0
100
AcDbBlockEnd
  0
ENDSEC
  0
SECTION
  2
ENTITIES
  0
SPLINE
  5
100
100
AcDbEntity
  8
Layer_1
 62
7
100
AcDbSpline
 70
8
 71
3
 72
8
 73
4
 74
0
 40
0
 40
0
 40
0
 40
0
 40
1
 40
1
 40
1
 40
1
 10
49.704636
 20
78.396458
 30
0.0
 10
52.216104
 20
75.061579
 30
0.0
 10
53.420162
 20
70.758325
 30
0.0
 10
52.558326
 20
66.455774
 30
0.0
  0
SPLINE
  5
101
100
AcDbEntity
  8
Layer_1
 62
7
100
AcDbSpline
 70
8
 71
3
 72
8
 73
4
 74
0
 40
0
 40
0
 40
0
 40
0
 40
1
 40
1
 40
1
 40
1
 10
38.299695
 20
84.581363
 30
0.0
 10
41.820298
 20
84.397431
 30
0.0
 10
45.041778
 20
82.950748
 30
0.0
 10
47.543579
 20
80.735293
 30
0.0
  0
SPLINE
  5
102
100
AcDbEntity
  8
Layer_1
 62
4
100
AcDbSpline
 70
8
 71
3
 72
8
 73
4
 74
0
 40
0
 40
0
 40
0
 40
0
 40
1
 40
1
 40
1
 40
1
 10
33.788254
 20
74.571083
 30
0.0
 10
34.084573
 20
74.683661
 30
0.0
 10
34.571915
 20
74.933086
 30
0.0
 10
34.871446
 20
75.125282
 30
0.0
  0
LINE
  5
103
100
AcDbEntity
  8
Layer_1
 62
4
100
AcDbLine
 10
34.871446
 20
75.125282
 30
0.0
 11
35.416250
 21
75.474916
 31
0.0
  0
LINE
  5
104
100
AcDbEntity
  8
Layer_1
 62
4
100
AcDbLine
 10
35.416250
 20
75.474916
 30
0.0
 11
35.211371
 21
75.765602
 31
0.0
  0
SPLINE
  5
105
100
AcDbEntity
  8
Layer_1
 62
4
100
AcDbSpline
 70
8
 71
3
 72
8
 73
4
 74
0
 40
0
 40
0
 40
0
 40
0
 40
1
 40
1
 40
1
 40
1
 10
35.211371
 20
75.765602
 30
0.0
 10
34.701012
 20
76.489293
 30
0.0
 10
34.105633
 20
78.006435
 30
0.0
 10
33.934964
 20
79.018151
 30
0.0
  0
LINE
  5
106
100
AcDbEntity
  8
Layer_1
 62
4
100
AcDbLine
 10
33.934964
 20
79.018151
 30
0.0
 11
33.861062
 21
79.456409
 31
0.0
  0
LINE
  5
107
100
AcDbEntity
  8
Layer_1
 62
4
100
AcDbLine
 10
33.861062
 20
79.456409
 30
0.0
 11
33.652423
 21
79.027626
 31
0.0
  0
SPLINE
  5
108
100
AcDbEntity
  8
Layer_1
 62
4
100
AcDbSpline
 70
8
 71
3
 72
8
 73
4
 74
0
 40
0
 40
0
 40
0
 40
0
 40
1
 40
1
 40
1
 40
1
 10
33.652423
 20
79.027626
 30
0.0
 10
33.369256
 20
78.445319
 30
0.0
 10
33.167588
 20
78.241535
 30
0.0
 10
32.604775
 20
77.969171
 30
0.0
  0
LINE
  5
109
100
AcDbEntity
  8
Layer_1
 62
4
100
AcDbLine
 10
32.604775
 20
77.969171
 30
0.0
 11
32.125573
 21
77.737283
 31
0.0
  0
LINE
  5
10a
100
AcDbEntity
  8
Layer_1
 62
4
100
AcDbLine
 10
32.125573
 20
77.737283
 30
0.0
 11
32.125573
 21
75.977213
 31
0.0
  0
LINE
  5
10b
100
AcDbEntity
  8
Layer_1
 62
4
100
AcDbLine
 10
32.125573
 20
75.977213
 30
0.0
 11
32.125573
 21
74.217221
 31
0.0
  0
LINE
  5
10c
100
AcDbEntity
  8
Layer_1
 62
4
100
AcDbLine
 10
32.125573
 20
74.217221
 30
0.0
 11
32.687604
 21
74.291829
 31
0.0
  0
SPLINE
  5
10d
100
AcDbEntity
  8
Layer_1
 62
4
100
AcDbSpline
 70
8
 71
3
 72
8
 73
4
 74
0
 40
0
 40
0
 40
0
 40
0
 40
1
 40
1
 40
1
 40
1
 10
32.687604
 20
74.291829
 30
0.0
 10
32.996762
 20
74.332853
 30
0.0
 10
33.492011
 20
74.458504
 30
0.0
 10
33.788254
 20
74.571083
 30
0.0
  0
LINE
  5
10e
100
AcDbEntity
  8
Layer_1
 62
4
100
AcDbLine
 10
33.788254
 20
74.571083
 30
0.0
 11
33.788254
 21
74.571083
 31
0.0
  0
LINE
  5
10f
100
AcDbEntity
  8
Layer_1
 62
4
100
AcDbLine
 10
33.788254
 20
74.571083
 30
0.0
 11
33.788254
 21
74.571083
 31
0.0
  0
LINE
  5
110
100
AcDbEntity
  8
Layer_1
 62
4
100
AcDbLine
 10
31.247653
 20
75.999759
 30
0.0
 11
31.247653
 21
77.753722
 31
0.0
  0
LINE
  5
111
100
AcDbEntity
  8
Layer_1
 62
4
100
AcDbLine
 10
31.247653
 20
77.753722
 30
0.0
 11
30.837736
 21
77.925096
 31
0.0
  0
SPLINE
  5
112
100
AcDbEntity
  8
Layer_1
 62
4
100
AcDbSpline
 70
8
 71
3
 72
8
 73
4
 74
0
 40
0
 40
0
 40
0
 40
0
 40
1
 40
1
 40
1
 40
1
 10
30.837736
 20
77.925096
 30
0.0
 10
29.909869
 20
78.312621
 30
0.0
 10
29.446404
 20
79.084304
 30
0.0
 10
29.512870
 20
80.130076
 30
0.0
  0
SPLINE
  5
113
100
AcDbEntity
  8
Layer_1
 62
4
100
AcDbSpline
 70
8
 71
3
 72
8
 73
4
 74
0
 40
0
 40
0
 40
0
 40
0
 40
1
 40
1
 40
1
 40
1
 10
29.512870
 20
80.130076
 30
0.0
 10
29.549039
 20
80.698680
 30
0.0
 10
29.616053
 20
80.894164
 30
0.0
 10
29.891550
 20
81.236285
 30
0.0
  0
SPLINE
  5
114
100
AcDbEntity
  8
Layer_1
 62
4
100
AcDbSpline
 70
8
 71
3
 72
8
 73
4
 74
0
 40
0
 40
0
 40
0
 40
0
 40
1
 40
1
 40
1
 40
1
 10
29.891550
 20
81.236285
 30
0.0
 10
30.075604
 20
81.464806
 30
0.0
 10
30.419054
 20
81.764885
 30
0.0
 10
30.654701
 20
81.903298
 30
0.0
  0
SPLINE
  5
115
100
AcDbEntity
  8
Layer_1
 62
4
100
AcDbSpline
 70
8
 71
3
 72
8
 73
4
 74
0
 40
0
 40
0
 40
0
 40
0
 40
1
 40
1
 40
1
 40
1
 10
30.654701
 20
81.903298
 30
0.0
 10
31.573408
 20
82.441998
 30
0.0
 10
33.085148
 20
82.010161
 30
0.0
 10
33.542585
 20
81.078376
 30
0.0
  0
SPLINE
  5
116
100
AcDbEntity
  8
Layer_1
 62
4
100
AcDbSpline
 70
8
 71
3
 72
8
 73
4
 74
0
 40
0
 40
0
 40
0
 40
0
 40
1
 40
1
 40
1
 40
1
 10
33.542585
 20
81.078376
 30
0.0
 10
33.772125
 20
80.610762
 30
0.0
 10
33.880634
 20
80.627439
 30
0.0
 10
33.882824
 20
81.130596
 30
0.0
  0
SPLINE
  5
117
100
AcDbEntity
  8
Layer_1
 62
4
100
AcDbSpline
 70
8
 71
3
 72
8
 73
4
 74
0
 40
0
 40
0
 40
0
 40
0
 40
1
 40
1
 40
1
 40
1
 10
33.882824
 20
81.130596
 30
0.0
 10
33.888384
 20
82.306246
 30
0.0
 10
34.625777
 20
84.278553
 30
0.0
 10
35.470739
 20
85.377247
 30
0.0
  0
LINE
  5
118
100
AcDbEntity
  8
Layer_1
 62
4
100
AcDbLine
 10
35.470739
 20
85.377247
 30
0.0
 11
35.888639
 21
85.920957
 31
0.0
  0
LINE
  5
119
100
AcDbEntity
  8
Layer_1
 62
4
100
AcDbLine
 10
35.888639
 20
85.920957
 30
0.0
 11
35.415624
 21
86.328602
 31
0.0
  0
SPLINE
  5
11a
100
AcDbEntity
  8
Layer_1
 62
4
100
AcDbSpline
 70
8
 71
3
 72
8
 73
4
 74
0
 40
0
 40
0
 40
0
 40
0
 40
1
 40
1
 40
1
 40
1
 10
35.415624
 20
86.328602
 30
0.0
 10
34.840130
 20
86.824009
 30
0.0
 10
34.003468
 20
87.244963
 30
0.0
 10
33.153418
 20
87.466282
 30
0.0
  0
SPLINE
  5
11b
100
AcDbEntity
  8
Layer_1
 62
4
100
AcDbSpline
 70
8
 71
3
 72
8
 73
4
 74
0
 40
0
 40
0
 40
0
 40
0
 40
1
 40
1
 40
1
 40
1
 10
33.153418
 20
87.466282
 30
0.0
 10
31.387553
 20
87.926301
 30
0.0
 10
29.567985
 20
87.371788
 30
0.0
 10
28.115822
 20
85.931134
 30
0.0
  0
SPLINE
  5
11c
100
AcDbEntity
  8
Layer_1
 62
4
100
AcDbSpline
 70
8
 71
3
 72
8
 73
4
 74
0
 40
0
 40
0
 40
0
 40
0
 40
1
 40
1
 40
1
 40
1
 10
28.115822
 20
85.931134
 30
0.0
 10
25.970575
 20
83.802955
 30
0.0
 10
25.474700
 20
80.432031
 30
0.0
 10
26.883491
 20
77.554716
 30
0.0
  0
SPLINE
  5
11d
100
AcDbEntity
  8
Layer_1
 62
4
100
AcDbSpline
 70
8
 71
3
 72
8
 73
4
 74
0
 40
0
 40
0
 40
0
 40
0
 40
1
 40
1
 40
1
 40
1
 10
26.883491
 20
77.554716
 30
0.0
 10
27.126575
 20
77.058448
 30
0.0
 10
27.505489
 20
76.559206
 30
0.0
 10
28.064935
 20
75.998038
 30
0.0
  0
SPLINE
  5
11e
100
AcDbEntity
  8
Layer_1
 62
4
100
AcDbSpline
 70
8
 71
3
 72
8
 73
4
 74
0
 40
0
 40
0
 40
0
 40
0
 40
1
 40
1
 40
1
 40
1
 10
28.064935
 20
75.998038
 30
0.0
 10
29.097945
 20
74.961895
 30
0.0
 10
29.616445
 20
74.675206
 30
0.0
 10
31.220331
 20
74.252998
 30
0.0
  0
SPLINE
  5
11f
100
AcDbEntity
  8
Layer_1
 62
4
100
AcDbSpline
 70
8
 71
3
 72
8
 73
4
 74
0
 40
0
 40
0
 40
0
 40
0
 40
1
 40
1
 40
1
 40
1
 10
31.220331
 20
74.252998
 30
0.0
 10
31.235430
 20
74.248934
 30
0.0
 10
31.247650
 20
75.034940
 30
0.0
 10
31.247650
 20
75.999759
 30
0.0
  0
LINE
  5
120
100
AcDbEntity
  8
Layer_1
 62
4
100
AcDbLine
 10
31.247650
 20
75.999759
 30
0.0
 11
31.247650
 21
75.999759
 31
0.0
  0
LINE
  5
121
100
AcDbEntity
  8
Layer_1
 62
4
100
AcDbLine
 10
31.247650
 20
75.999759
 30
0.0
 11
31.247653
 21
75.999759
 31
0.0
  0
LINE
  5
122
100
AcDbEntity
  8
Layer_1
 62
4
100
AcDbLine
 10
41.781061
 20
74.131575
 30
0.0
 11
41.781061
 21
75.883032
 31
0.0
  0
LINE
  5
123
100
AcDbEntity
  8
Layer_1
 62
4
100
AcDbLine
 10
41.781061
 20
75.883032
 30
0.0
 11
41.314779
 21
76.006101
 31
0.0
  0
SPLINE
  5
124
100
AcDbEntity
  8
Layer_1
 62
4
100
AcDbSpline
 70
8
 71
3
 72
8
 73
4
 74
0
 40
0
 40
0
 40
0
 40
0
 40
1
 40
1
 40
1
 40
1
 10
41.314779
 20
76.006101
 30
0.0
 10
39.521748
 20
76.478727
 30
0.0
 10
38.311418
 20
78.330472
 30
0.0
 10
38.604450
 20
80.152936
 30
0.0
  0
SPLINE
  5
125
100
AcDbEntity
  8
Layer_1
 62
4
100
AcDbSpline
 70
8
 71
3
 72
8
 73
4
 74
0
 40
0
 40
0
 40
0
 40
0
 40
1
 40
1
 40
1
 40
1
 10
38.604450
 20
80.152936
 30
0.0
 10
39.008414
 20
82.663864
 30
0.0
 10
41.677565
 20
84.023334
 30
0.0
 10
43.946583
 20
82.873521
 30
0.0
  0
SPLINE
  5
126
100
AcDbEntity
  8
Layer_1
 62
4
100
AcDbSpline
 70
8
 71
3
 72
8
 73
4
 74
0
 40
0
 40
0
 40
0
 40
0
 40
1
 40
1
 40
1
 40
1
 10
43.946583
 20
82.873521
 30
0.0
 10
44.600210
 20
82.542283
 30
0.0
 10
45.345979
 20
81.751183
 30
0.0
 10
45.647703
 20
81.069373
 30
0.0
  0
SPLINE
  5
127
100
AcDbEntity
  8
Layer_1
 62
4
100
AcDbSpline
 70
8
 71
3
 72
8
 73
4
 74
0
 40
0
 40
0
 40
0
 40
0
 40
1
 40
1
 40
1
 40
1
 10
45.647703
 20
81.069373
 30
0.0
 10
45.918814
 20
80.456615
 30
0.0
 10
46.020431
 20
79.296075
 30
0.0
 10
45.856105
 20
78.689264
 30
0.0
  0
SPLINE
  5
128
100
AcDbEntity
  8
Layer_1
 62
4
100
AcDbSpline
 70
8
 71
3
 72
8
 73
4
 74
0
 40
0
 40
0
 40
0
 40
0
 40
1
 40
1
 40
1
 40
1
 10
45.856105
 20
78.689264
 30
0.0
 10
45.543970
 20
77.537021
 30
0.0
 10
44.512137
 20
76.425647
 30
0.0
 10
43.447812
 20
76.095506
 30
0.0
  0
LINE
  5
129
100
AcDbEntity
  8
Layer_1
 62
4
100
AcDbLine
 10
43.447812
 20
76.095506
 30
0.0
 11
42.933304
 21
75.935565
 31
0.0
  0
LINE
  5
12a
100
AcDbEntity
  8
Layer_1
 62
4
100
AcDbLine
 10
42.933304
 20
75.935565
 30
0.0
 11
42.902849
 21
74.142613
 31
0.0
  0
LINE
  5
12b
100
AcDbEntity
  8
Layer_1
 62
4
100
AcDbLine
 10
42.902849
 20
74.142613
 30
0.0
 11
42.898475
 21
72.364929
 31
0.0
  0
LINE
  5
12c
100
AcDbEntity
  8
Layer_1
 62
4
100
AcDbLine
 10
42.898475
 20
72.364929
 30
0.0
 11
43.478196
 21
72.420592
 31
0.0
  0
SPLINE
  5
12d
100
AcDbEntity
  8
Layer_1
 62
4
100
AcDbSpline
 70
8
 71
3
 72
8
 73
4
 74
0
 40
0
 40
0
 40
0
 40
0
 40
1
 40
1
 40
1
 40
1
 10
43.478196
 20
72.420592
 30
0.0
 10
43.811153
 20
72.459657
 30
0.0
 10
44.468381
 20
72.632047
 30
0.0
 10
44.938659
 20
72.803576
 30
0.0
  0
SPLINE
  5
12e
100
AcDbEntity
  8
Layer_1
 62
4
100
AcDbSpline
 70
8
 71
3
 72
8
 73
4
 74
0
 40
0
 40
0
 40
0
 40
0
 40
1
 40
1
 40
1
 40
1
 10
44.938659
 20
72.803576
 30
0.0
 10
47.474011
 20
73.729019
 30
0.0
 10
49.368738
 20
75.797776
 30
0.0
 10
50.077791
 20
78.414944
 30
0.0
  0
SPLINE
  5
12f
100
AcDbEntity
  8
Layer_1
 62
4
100
AcDbSpline
 70
8
 71
3
 72
8
 73
4
 74
0
 40
0
 40
0
 40
0
 40
0
 40
1
 40
1
 40
1
 40
1
 10
50.077791
 20
78.414944
 30
0.0
 10
50.340525
 20
79.385243
 30
0.0
 10
50.341073
 20
81.392312
 30
0.0
 10
50.078919
 20
82.364884
 30
0.0
  0
SPLINE
  5
130
100
AcDbEntity
  8
Layer_1
 62
4
100
AcDbSpline
 70
8
 71
3
 72
8
 73
4
 74
0
 40
0
 40
0
 40
0
 40
0
 40
1
 40
1
 40
1
 40
1
 10
50.078919
 20
82.364884
 30
0.0
 10
49.452222
 20
84.687296
 30
0.0
 10
47.823676
 20
86.657255
 30
0.0
 10
45.676786
 20
87.689951
 30
0.0
  0
SPLINE
  5
131
100
AcDbEntity
  8
Layer_1
 62
4
100
AcDbSpline
 70
8
 71
3
 72
8
 73
4
 74
0
 40
0
 40
0
 40
0
 40
0
 40
1
 40
1
 40
1
 40
1
 10
45.676786
 20
87.689951
 30
0.0
 10
44.575744
 20
88.219490
 30
0.0
 10
43.580942
 20
88.433373
 30
0.0
 10
42.220374
 20
88.432983
 30
0.0
  0
SPLINE
  5
132
100
AcDbEntity
  8
Layer_1
 62
4
100
AcDbSpline
 70
8
 71
3
 72
8
 73
4
 74
0
 40
0
 40
0
 40
0
 40
0
 40
1
 40
1
 40
1
 40
1
 10
42.220374
 20
88.432983
 30
0.0
 10
40.795533
 20
88.432701
 30
0.0
 10
39.977424
 20
88.234914
 30
0.0
 10
38.599556
 20
87.558661
 30
0.0
  0
SPLINE
  5
133
100
AcDbEntity
  8
Layer_1
 62
4
100
AcDbSpline
 70
8
 71
3
 72
8
 73
4
 74
0
 40
0
 40
0
 40
0
 40
0
 40
1
 40
1
 40
1
 40
1
 10
38.599556
 20
87.558661
 30
0.0
 10
37.717956
 20
87.125730
 30
0.0
 10
37.404178
 20
86.893215
 30
0.0
 10
36.565400
 20
86.049975
 30
0.0
  0
SPLINE
  5
134
100
AcDbEntity
  8
Layer_1
 62
4
100
AcDbSpline
 70
8
 71
3
 72
8
 73
4
 74
0
 40
0
 40
0
 40
0
 40
0
 40
1
 40
1
 40
1
 40
1
 10
36.565400
 20
86.049975
 30
0.0
 10
34.915797
 20
84.392306
 30
0.0
 10
34.208855
 20
82.694319
 30
0.0
 10
34.212380
 20
80.399776
 30
0.0
  0
SPLINE
  5
135
100
AcDbEntity
  8
Layer_1
 62
4
100
AcDbSpline
 70
8
 71
3
 72
8
 73
4
 74
0
 40
0
 40
0
 40
0
 40
0
 40
1
 40
1
 40
1
 40
1
 10
34.212380
 20
80.399776
 30
0.0
 10
34.216303
 20
78.016144
 30
0.0
 10
35.071434
 20
76.073899
 30
0.0
 10
36.836511
 20
74.439717
 30
0.0
  0
SPLINE
  5
136
100
AcDbEntity
  8
Layer_1
 62
4
100
AcDbSpline
 70
8
 71
3
 72
8
 73
4
 74
0
 40
0
 40
0
 40
0
 40
0
 40
1
 40
1
 40
1
 40
1
 10
36.836511
 20
74.439717
 30
0.0
 10
38.050289
 20
73.315894
 30
0.0
 10
40.060095
 20
72.405560
 30
0.0
 10
41.370010
 20
72.386457
 30
0.0
  0
LINE
  5
137
100
AcDbEntity
  8
Layer_1
 62
4
100
AcDbLine
 10
41.370010
 20
72.386457
 30
0.0
 11
41.781493
 21
72.380192
 31
0.0
  0
LINE
  5
138
100
AcDbEntity
  8
Layer_1
 62
4
100
AcDbLine
 10
41.781493
 20
72.380192
 30
0.0
 11
41.781493
 21
74.131569
 31
0.0
  0
LINE
  5
139
100
AcDbEntity
  8
Layer_1
 62
4
100
AcDbLine
 10
41.781493
 20
74.131569
 30
0.0
 11
41.780929
 21
74.131569
 31
0.0
  0
LINE
  5
13a
100
AcDbEntity
  8
Layer_1
 62
4
100
AcDbLine
 10
41.780929
 20
74.131569
 30
0.0
 11
41.781061
 21
74.131575
 31
0.0
  0
SPLINE
  5
13b
100
AcDbEntity
  8
Layer_1
 62
7
100
AcDbSpline
 70
8
 71
3
 72
8
 73
4
 74
0
 40
0
 40
0
 40
0
 40
0
 40
1
 40
1
 40
1
 40
1
 10
42.425050
 20
77.345888
 30
0.0
 10
44.947800
 20
73.996024
 30
0.0
 10
46.157269
 20
69.673435
 30
0.0
 10
45.291561
 20
65.351548
 30
0.0
  0
SPLINE
  5
13c
100
AcDbEntity
  8
Layer_1
 62
7
100
AcDbSpline
 70
8
 71
3
 72
8
 73
4
 74
0
 40
0
 40
0
 40
0
 40
0
 40
1
 40
1
 40
1
 40
1
 10
30.968863
 20
83.558584
 30
0.0
 10
34.505285
 20
83.373825
 30
0.0
 10
37.741239
 20
81.920643
 30
0.0
 10
40.254281
 20
79.695230
 30
0.0
  0
ENDSEC
  0
SECTION
  2
OBJECTS
  0
DICTIONARY
  5
C
330
0
100
AcDbDictionary
  3
ACAD_GROUP
350
D
  3
ACAD_MLINESTYLE
350
17
  0
DICTIONARY
  5
D
330
C
100
AcDbDictionary
  0
DICTIONARY
  5
1A
330
C
100
AcDbDictionary
  0
DICTIONARY
  5
17
330
C
100
AcDbDictionary
  3
STANDARD
350
18
  0
DICTIONARY
  5
19
330
C
100
AcDbDictionary
  0
ENDSEC
  0
EOF
