G04 #@! TF.GenerationSoftware,KiCad,Pcbnew,no-vcs-found-077fb3c~59~ubuntu16.04.1*
G04 #@! TF.CreationDate,2017-08-19T10:31:39-06:00*
G04 #@! TF.ProjectId,001,3030312E6B696361645F706362000000,rev?*
G04 #@! TF.SameCoordinates,Original*
G04 #@! TF.FileFunction,Legend,Top*
G04 #@! TF.FilePolarity,Positive*
%FSLAX46Y46*%
G04 Gerber Fmt 4.6, Leading zero omitted, Abs format (unit mm)*
G04 Created by KiCad (PCBNEW no-vcs-found-077fb3c~59~ubuntu16.04.1) date Sat Aug 19 10:31:39 2017*
%MOMM*%
%LPD*%
G01*
G04 APERTURE LIST*
%ADD10C,0.152400*%
%ADD11C,0.010000*%
%ADD12C,0.050000*%
%ADD13C,0.120000*%
G04 APERTURE END LIST*
D10*
X135460180Y-99618899D02*
X135121514Y-99135089D01*
X134879609Y-99618899D02*
X134879609Y-98602899D01*
X135266657Y-98602899D01*
X135363419Y-98651280D01*
X135411800Y-98699660D01*
X135460180Y-98796422D01*
X135460180Y-98941565D01*
X135411800Y-99038327D01*
X135363419Y-99086708D01*
X135266657Y-99135089D01*
X134879609Y-99135089D01*
X135895609Y-99086708D02*
X136234276Y-99086708D01*
X136379419Y-99618899D02*
X135895609Y-99618899D01*
X135895609Y-98602899D01*
X136379419Y-98602899D01*
X136766466Y-99570518D02*
X136911609Y-99618899D01*
X137153514Y-99618899D01*
X137250276Y-99570518D01*
X137298657Y-99522137D01*
X137347038Y-99425375D01*
X137347038Y-99328613D01*
X137298657Y-99231851D01*
X137250276Y-99183470D01*
X137153514Y-99135089D01*
X136959990Y-99086708D01*
X136863228Y-99038327D01*
X136814847Y-98989946D01*
X136766466Y-98893184D01*
X136766466Y-98796422D01*
X136814847Y-98699660D01*
X136863228Y-98651280D01*
X136959990Y-98602899D01*
X137201895Y-98602899D01*
X137347038Y-98651280D01*
X137782466Y-99086708D02*
X138121133Y-99086708D01*
X138266276Y-99618899D02*
X137782466Y-99618899D01*
X137782466Y-98602899D01*
X138266276Y-98602899D01*
X138556561Y-98602899D02*
X139137133Y-98602899D01*
X138846847Y-99618899D02*
X138846847Y-98602899D01*
X120547720Y-98653699D02*
X120547720Y-99476175D01*
X120596100Y-99572937D01*
X120644481Y-99621318D01*
X120741243Y-99669699D01*
X120934767Y-99669699D01*
X121031529Y-99621318D01*
X121079910Y-99572937D01*
X121128291Y-99476175D01*
X121128291Y-98653699D01*
X121563720Y-99621318D02*
X121708862Y-99669699D01*
X121950767Y-99669699D01*
X122047529Y-99621318D01*
X122095910Y-99572937D01*
X122144291Y-99476175D01*
X122144291Y-99379413D01*
X122095910Y-99282651D01*
X122047529Y-99234270D01*
X121950767Y-99185889D01*
X121757243Y-99137508D01*
X121660481Y-99089127D01*
X121612100Y-99040746D01*
X121563720Y-98943984D01*
X121563720Y-98847222D01*
X121612100Y-98750460D01*
X121660481Y-98702080D01*
X121757243Y-98653699D01*
X121999148Y-98653699D01*
X122144291Y-98702080D01*
X122579720Y-99137508D02*
X122918386Y-99137508D01*
X123063529Y-99669699D02*
X122579720Y-99669699D01*
X122579720Y-98653699D01*
X123063529Y-98653699D01*
X124079529Y-99669699D02*
X123740862Y-99185889D01*
X123498958Y-99669699D02*
X123498958Y-98653699D01*
X123886005Y-98653699D01*
X123982767Y-98702080D01*
X124031148Y-98750460D01*
X124079529Y-98847222D01*
X124079529Y-98992365D01*
X124031148Y-99089127D01*
X123982767Y-99137508D01*
X123886005Y-99185889D01*
X123498958Y-99185889D01*
X125240672Y-98605318D02*
X124369815Y-99911603D01*
X125918005Y-99137508D02*
X125579339Y-99137508D01*
X125579339Y-99669699D02*
X125579339Y-98653699D01*
X126063148Y-98653699D01*
X126934005Y-99669699D02*
X126450196Y-99669699D01*
X126450196Y-98653699D01*
X127224291Y-99379413D02*
X127708100Y-99379413D01*
X127127529Y-99669699D02*
X127466196Y-98653699D01*
X127804862Y-99669699D01*
X128095148Y-99621318D02*
X128240291Y-99669699D01*
X128482196Y-99669699D01*
X128578958Y-99621318D01*
X128627339Y-99572937D01*
X128675720Y-99476175D01*
X128675720Y-99379413D01*
X128627339Y-99282651D01*
X128578958Y-99234270D01*
X128482196Y-99185889D01*
X128288672Y-99137508D01*
X128191910Y-99089127D01*
X128143529Y-99040746D01*
X128095148Y-98943984D01*
X128095148Y-98847222D01*
X128143529Y-98750460D01*
X128191910Y-98702080D01*
X128288672Y-98653699D01*
X128530577Y-98653699D01*
X128675720Y-98702080D01*
X129111148Y-99669699D02*
X129111148Y-98653699D01*
X129111148Y-99137508D02*
X129691720Y-99137508D01*
X129691720Y-99669699D02*
X129691720Y-98653699D01*
X131264476Y-100459619D02*
X130780666Y-100459619D01*
X130780666Y-99443619D01*
X149685738Y-101326000D02*
G75*
G03X149685738Y-101326000I-1457738J0D01*
G01*
D11*
G36*
X131282926Y-60881554D02*
X131345200Y-60882386D01*
X131399013Y-60883695D01*
X131445423Y-60885518D01*
X131485487Y-60887895D01*
X131520265Y-60890866D01*
X131550815Y-60894469D01*
X131578196Y-60898744D01*
X131597017Y-60902359D01*
X131686516Y-60925766D01*
X131766454Y-60957139D01*
X131837582Y-60997037D01*
X131900654Y-61046015D01*
X131956421Y-61104632D01*
X132005636Y-61173445D01*
X132036491Y-61227786D01*
X132069453Y-61296260D01*
X132095708Y-61362399D01*
X132115880Y-61428867D01*
X132130596Y-61498328D01*
X132140480Y-61573446D01*
X132146159Y-61656884D01*
X132147579Y-61700901D01*
X132147487Y-61811632D01*
X132141729Y-61912555D01*
X132129980Y-62005387D01*
X132111909Y-62091843D01*
X132087188Y-62173642D01*
X132055490Y-62252500D01*
X132033228Y-62298642D01*
X131983629Y-62383381D01*
X131926988Y-62457552D01*
X131863263Y-62521186D01*
X131792414Y-62574310D01*
X131714399Y-62616954D01*
X131629177Y-62649147D01*
X131536706Y-62670918D01*
X131495286Y-62677012D01*
X131477672Y-62678360D01*
X131448393Y-62679589D01*
X131408484Y-62680684D01*
X131358977Y-62681629D01*
X131300909Y-62682409D01*
X131235313Y-62683007D01*
X131163224Y-62683408D01*
X131085676Y-62683597D01*
X131058702Y-62683610D01*
X130675926Y-62683610D01*
X130676311Y-62467710D01*
X130923620Y-62467710D01*
X131182382Y-62467626D01*
X131248146Y-62467553D01*
X131302655Y-62467342D01*
X131347351Y-62466938D01*
X131383679Y-62466284D01*
X131413083Y-62465325D01*
X131437006Y-62464004D01*
X131456892Y-62462264D01*
X131474185Y-62460051D01*
X131490330Y-62457308D01*
X131500658Y-62455263D01*
X131572525Y-62435070D01*
X131636724Y-62405544D01*
X131693618Y-62366329D01*
X131743575Y-62317068D01*
X131786959Y-62257405D01*
X131824138Y-62186983D01*
X131853501Y-62111413D01*
X131866961Y-62069147D01*
X131877504Y-62030510D01*
X131885460Y-61992981D01*
X131891162Y-61954040D01*
X131894942Y-61911166D01*
X131897132Y-61861839D01*
X131898065Y-61803539D01*
X131898163Y-61772385D01*
X131897817Y-61712293D01*
X131896537Y-61662328D01*
X131894008Y-61619928D01*
X131889916Y-61582535D01*
X131883946Y-61547589D01*
X131875783Y-61512531D01*
X131865113Y-61474802D01*
X131859227Y-61455685D01*
X131843391Y-61412378D01*
X131822472Y-61365489D01*
X131798561Y-61319103D01*
X131773746Y-61277304D01*
X131752478Y-61247118D01*
X131705900Y-61197959D01*
X131650110Y-61157064D01*
X131584807Y-61124249D01*
X131517345Y-61101385D01*
X131504340Y-61097968D01*
X131491556Y-61095137D01*
X131477647Y-61092823D01*
X131461265Y-61090956D01*
X131441061Y-61089469D01*
X131415688Y-61088292D01*
X131383799Y-61087356D01*
X131344045Y-61086592D01*
X131295079Y-61085933D01*
X131235554Y-61085308D01*
X131195082Y-61084930D01*
X130923620Y-61082451D01*
X130923620Y-62467710D01*
X130676311Y-62467710D01*
X130677535Y-61783497D01*
X130679145Y-60883385D01*
X131034745Y-60881519D01*
X131128756Y-60881160D01*
X131211130Y-60881158D01*
X131282926Y-60881554D01*
X131282926Y-60881554D01*
G37*
X131282926Y-60881554D02*
X131345200Y-60882386D01*
X131399013Y-60883695D01*
X131445423Y-60885518D01*
X131485487Y-60887895D01*
X131520265Y-60890866D01*
X131550815Y-60894469D01*
X131578196Y-60898744D01*
X131597017Y-60902359D01*
X131686516Y-60925766D01*
X131766454Y-60957139D01*
X131837582Y-60997037D01*
X131900654Y-61046015D01*
X131956421Y-61104632D01*
X132005636Y-61173445D01*
X132036491Y-61227786D01*
X132069453Y-61296260D01*
X132095708Y-61362399D01*
X132115880Y-61428867D01*
X132130596Y-61498328D01*
X132140480Y-61573446D01*
X132146159Y-61656884D01*
X132147579Y-61700901D01*
X132147487Y-61811632D01*
X132141729Y-61912555D01*
X132129980Y-62005387D01*
X132111909Y-62091843D01*
X132087188Y-62173642D01*
X132055490Y-62252500D01*
X132033228Y-62298642D01*
X131983629Y-62383381D01*
X131926988Y-62457552D01*
X131863263Y-62521186D01*
X131792414Y-62574310D01*
X131714399Y-62616954D01*
X131629177Y-62649147D01*
X131536706Y-62670918D01*
X131495286Y-62677012D01*
X131477672Y-62678360D01*
X131448393Y-62679589D01*
X131408484Y-62680684D01*
X131358977Y-62681629D01*
X131300909Y-62682409D01*
X131235313Y-62683007D01*
X131163224Y-62683408D01*
X131085676Y-62683597D01*
X131058702Y-62683610D01*
X130675926Y-62683610D01*
X130676311Y-62467710D01*
X130923620Y-62467710D01*
X131182382Y-62467626D01*
X131248146Y-62467553D01*
X131302655Y-62467342D01*
X131347351Y-62466938D01*
X131383679Y-62466284D01*
X131413083Y-62465325D01*
X131437006Y-62464004D01*
X131456892Y-62462264D01*
X131474185Y-62460051D01*
X131490330Y-62457308D01*
X131500658Y-62455263D01*
X131572525Y-62435070D01*
X131636724Y-62405544D01*
X131693618Y-62366329D01*
X131743575Y-62317068D01*
X131786959Y-62257405D01*
X131824138Y-62186983D01*
X131853501Y-62111413D01*
X131866961Y-62069147D01*
X131877504Y-62030510D01*
X131885460Y-61992981D01*
X131891162Y-61954040D01*
X131894942Y-61911166D01*
X131897132Y-61861839D01*
X131898065Y-61803539D01*
X131898163Y-61772385D01*
X131897817Y-61712293D01*
X131896537Y-61662328D01*
X131894008Y-61619928D01*
X131889916Y-61582535D01*
X131883946Y-61547589D01*
X131875783Y-61512531D01*
X131865113Y-61474802D01*
X131859227Y-61455685D01*
X131843391Y-61412378D01*
X131822472Y-61365489D01*
X131798561Y-61319103D01*
X131773746Y-61277304D01*
X131752478Y-61247118D01*
X131705900Y-61197959D01*
X131650110Y-61157064D01*
X131584807Y-61124249D01*
X131517345Y-61101385D01*
X131504340Y-61097968D01*
X131491556Y-61095137D01*
X131477647Y-61092823D01*
X131461265Y-61090956D01*
X131441061Y-61089469D01*
X131415688Y-61088292D01*
X131383799Y-61087356D01*
X131344045Y-61086592D01*
X131295079Y-61085933D01*
X131235554Y-61085308D01*
X131195082Y-61084930D01*
X130923620Y-61082451D01*
X130923620Y-62467710D01*
X130676311Y-62467710D01*
X130677535Y-61783497D01*
X130679145Y-60883385D01*
X131034745Y-60881519D01*
X131128756Y-60881160D01*
X131211130Y-60881158D01*
X131282926Y-60881554D01*
G36*
X135260670Y-61345879D02*
X135295467Y-61348171D01*
X135329655Y-61351673D01*
X135359045Y-61355885D01*
X135377703Y-61359808D01*
X135442937Y-61384007D01*
X135501036Y-61418456D01*
X135551267Y-61462435D01*
X135592894Y-61515224D01*
X135625184Y-61576104D01*
X135639967Y-61616858D01*
X135641908Y-61624192D01*
X135643613Y-61633246D01*
X135645101Y-61644876D01*
X135646392Y-61659937D01*
X135647506Y-61679284D01*
X135648463Y-61703773D01*
X135649281Y-61734258D01*
X135649982Y-61771595D01*
X135650584Y-61816640D01*
X135651108Y-61870247D01*
X135651572Y-61933273D01*
X135651998Y-62006572D01*
X135652404Y-62090999D01*
X135652743Y-62170847D01*
X135654859Y-62689960D01*
X135432120Y-62689960D01*
X135432120Y-62218219D01*
X135432113Y-62125815D01*
X135432053Y-62045189D01*
X135431882Y-61975416D01*
X135431543Y-61915572D01*
X135430977Y-61864736D01*
X135430126Y-61821983D01*
X135428932Y-61786390D01*
X135427336Y-61757034D01*
X135425282Y-61732991D01*
X135422709Y-61713339D01*
X135419562Y-61697153D01*
X135415781Y-61683511D01*
X135411308Y-61671489D01*
X135406086Y-61660163D01*
X135400056Y-61648612D01*
X135395791Y-61640757D01*
X135369888Y-61602970D01*
X135337810Y-61574422D01*
X135298475Y-61554572D01*
X135250799Y-61542882D01*
X135193698Y-61538813D01*
X135190820Y-61538800D01*
X135125120Y-61542354D01*
X135068259Y-61553668D01*
X135018589Y-61573338D01*
X134974460Y-61601964D01*
X134946147Y-61627485D01*
X134909248Y-61673190D01*
X134879663Y-61727359D01*
X134863100Y-61772385D01*
X134860877Y-61780719D01*
X134858951Y-61790339D01*
X134857292Y-61802199D01*
X134855876Y-61817254D01*
X134854675Y-61836457D01*
X134853661Y-61860763D01*
X134852807Y-61891127D01*
X134852088Y-61928503D01*
X134851475Y-61973845D01*
X134850941Y-62028108D01*
X134850460Y-62092247D01*
X134850005Y-62167215D01*
X134849567Y-62250222D01*
X134847352Y-62689960D01*
X134632020Y-62689960D01*
X134631967Y-62256572D01*
X134631866Y-62180103D01*
X134631592Y-62106602D01*
X134631159Y-62037233D01*
X134630583Y-61973163D01*
X134629878Y-61915555D01*
X134629060Y-61865574D01*
X134628144Y-61824386D01*
X134627144Y-61793156D01*
X134626076Y-61773047D01*
X134625684Y-61768810D01*
X134614913Y-61706513D01*
X134597760Y-61654911D01*
X134573636Y-61613398D01*
X134541954Y-61581367D01*
X134502127Y-61558212D01*
X134453567Y-61543327D01*
X134400402Y-61536397D01*
X134341708Y-61537419D01*
X134283099Y-61547500D01*
X134229342Y-61565750D01*
X134220093Y-61570057D01*
X134182188Y-61594163D01*
X134145516Y-61627658D01*
X134113114Y-61667361D01*
X134089698Y-61706611D01*
X134081897Y-61722650D01*
X134075136Y-61737514D01*
X134069340Y-61752203D01*
X134064436Y-61767719D01*
X134060348Y-61785061D01*
X134057002Y-61805231D01*
X134054322Y-61829230D01*
X134052235Y-61858058D01*
X134050665Y-61892716D01*
X134049537Y-61934206D01*
X134048778Y-61983527D01*
X134048312Y-62041681D01*
X134048065Y-62109669D01*
X134047961Y-62188491D01*
X134047930Y-62266097D01*
X134047820Y-62689960D01*
X133825570Y-62689960D01*
X133825570Y-61381860D01*
X134034780Y-61381860D01*
X134036537Y-61474166D01*
X134038295Y-61566472D01*
X134066870Y-61527048D01*
X134105115Y-61483120D01*
X134152935Y-61442193D01*
X134207238Y-61406332D01*
X134264933Y-61377603D01*
X134317695Y-61359422D01*
X134339877Y-61354992D01*
X134370366Y-61350868D01*
X134404769Y-61347569D01*
X134431995Y-61345881D01*
X134497466Y-61345776D01*
X134554170Y-61352270D01*
X134604610Y-61366111D01*
X134651289Y-61388043D01*
X134696709Y-61418815D01*
X134708697Y-61428419D01*
X134732280Y-61449668D01*
X134755454Y-61473521D01*
X134773550Y-61495138D01*
X134774886Y-61496970D01*
X134788189Y-61515369D01*
X134798891Y-61529858D01*
X134804334Y-61536880D01*
X134810715Y-61535217D01*
X134824032Y-61526045D01*
X134842280Y-61510872D01*
X134857700Y-61496742D01*
X134917992Y-61444770D01*
X134977919Y-61404517D01*
X135039494Y-61375229D01*
X135104734Y-61356152D01*
X135175654Y-61346532D01*
X135254271Y-61345612D01*
X135260670Y-61345879D01*
X135260670Y-61345879D01*
G37*
X135260670Y-61345879D02*
X135295467Y-61348171D01*
X135329655Y-61351673D01*
X135359045Y-61355885D01*
X135377703Y-61359808D01*
X135442937Y-61384007D01*
X135501036Y-61418456D01*
X135551267Y-61462435D01*
X135592894Y-61515224D01*
X135625184Y-61576104D01*
X135639967Y-61616858D01*
X135641908Y-61624192D01*
X135643613Y-61633246D01*
X135645101Y-61644876D01*
X135646392Y-61659937D01*
X135647506Y-61679284D01*
X135648463Y-61703773D01*
X135649281Y-61734258D01*
X135649982Y-61771595D01*
X135650584Y-61816640D01*
X135651108Y-61870247D01*
X135651572Y-61933273D01*
X135651998Y-62006572D01*
X135652404Y-62090999D01*
X135652743Y-62170847D01*
X135654859Y-62689960D01*
X135432120Y-62689960D01*
X135432120Y-62218219D01*
X135432113Y-62125815D01*
X135432053Y-62045189D01*
X135431882Y-61975416D01*
X135431543Y-61915572D01*
X135430977Y-61864736D01*
X135430126Y-61821983D01*
X135428932Y-61786390D01*
X135427336Y-61757034D01*
X135425282Y-61732991D01*
X135422709Y-61713339D01*
X135419562Y-61697153D01*
X135415781Y-61683511D01*
X135411308Y-61671489D01*
X135406086Y-61660163D01*
X135400056Y-61648612D01*
X135395791Y-61640757D01*
X135369888Y-61602970D01*
X135337810Y-61574422D01*
X135298475Y-61554572D01*
X135250799Y-61542882D01*
X135193698Y-61538813D01*
X135190820Y-61538800D01*
X135125120Y-61542354D01*
X135068259Y-61553668D01*
X135018589Y-61573338D01*
X134974460Y-61601964D01*
X134946147Y-61627485D01*
X134909248Y-61673190D01*
X134879663Y-61727359D01*
X134863100Y-61772385D01*
X134860877Y-61780719D01*
X134858951Y-61790339D01*
X134857292Y-61802199D01*
X134855876Y-61817254D01*
X134854675Y-61836457D01*
X134853661Y-61860763D01*
X134852807Y-61891127D01*
X134852088Y-61928503D01*
X134851475Y-61973845D01*
X134850941Y-62028108D01*
X134850460Y-62092247D01*
X134850005Y-62167215D01*
X134849567Y-62250222D01*
X134847352Y-62689960D01*
X134632020Y-62689960D01*
X134631967Y-62256572D01*
X134631866Y-62180103D01*
X134631592Y-62106602D01*
X134631159Y-62037233D01*
X134630583Y-61973163D01*
X134629878Y-61915555D01*
X134629060Y-61865574D01*
X134628144Y-61824386D01*
X134627144Y-61793156D01*
X134626076Y-61773047D01*
X134625684Y-61768810D01*
X134614913Y-61706513D01*
X134597760Y-61654911D01*
X134573636Y-61613398D01*
X134541954Y-61581367D01*
X134502127Y-61558212D01*
X134453567Y-61543327D01*
X134400402Y-61536397D01*
X134341708Y-61537419D01*
X134283099Y-61547500D01*
X134229342Y-61565750D01*
X134220093Y-61570057D01*
X134182188Y-61594163D01*
X134145516Y-61627658D01*
X134113114Y-61667361D01*
X134089698Y-61706611D01*
X134081897Y-61722650D01*
X134075136Y-61737514D01*
X134069340Y-61752203D01*
X134064436Y-61767719D01*
X134060348Y-61785061D01*
X134057002Y-61805231D01*
X134054322Y-61829230D01*
X134052235Y-61858058D01*
X134050665Y-61892716D01*
X134049537Y-61934206D01*
X134048778Y-61983527D01*
X134048312Y-62041681D01*
X134048065Y-62109669D01*
X134047961Y-62188491D01*
X134047930Y-62266097D01*
X134047820Y-62689960D01*
X133825570Y-62689960D01*
X133825570Y-61381860D01*
X134034780Y-61381860D01*
X134036537Y-61474166D01*
X134038295Y-61566472D01*
X134066870Y-61527048D01*
X134105115Y-61483120D01*
X134152935Y-61442193D01*
X134207238Y-61406332D01*
X134264933Y-61377603D01*
X134317695Y-61359422D01*
X134339877Y-61354992D01*
X134370366Y-61350868D01*
X134404769Y-61347569D01*
X134431995Y-61345881D01*
X134497466Y-61345776D01*
X134554170Y-61352270D01*
X134604610Y-61366111D01*
X134651289Y-61388043D01*
X134696709Y-61418815D01*
X134708697Y-61428419D01*
X134732280Y-61449668D01*
X134755454Y-61473521D01*
X134773550Y-61495138D01*
X134774886Y-61496970D01*
X134788189Y-61515369D01*
X134798891Y-61529858D01*
X134804334Y-61536880D01*
X134810715Y-61535217D01*
X134824032Y-61526045D01*
X134842280Y-61510872D01*
X134857700Y-61496742D01*
X134917992Y-61444770D01*
X134977919Y-61404517D01*
X135039494Y-61375229D01*
X135104734Y-61356152D01*
X135175654Y-61346532D01*
X135254271Y-61345612D01*
X135260670Y-61345879D01*
G36*
X130462793Y-60910372D02*
X130459799Y-60921283D01*
X130453856Y-60943305D01*
X130445186Y-60975603D01*
X130434011Y-61017342D01*
X130420553Y-61067688D01*
X130405035Y-61125805D01*
X130387677Y-61190859D01*
X130368704Y-61262014D01*
X130348335Y-61338436D01*
X130326795Y-61419290D01*
X130304304Y-61503740D01*
X130281085Y-61590952D01*
X130257360Y-61680091D01*
X130233351Y-61770322D01*
X130209280Y-61860810D01*
X130185370Y-61950721D01*
X130161842Y-62039218D01*
X130138918Y-62125468D01*
X130116821Y-62208636D01*
X130095772Y-62287885D01*
X130075994Y-62362382D01*
X130057709Y-62431292D01*
X130041139Y-62493780D01*
X130026506Y-62549010D01*
X130014032Y-62596148D01*
X130003939Y-62634359D01*
X129996450Y-62662808D01*
X129991786Y-62680660D01*
X129990170Y-62687080D01*
X129990170Y-62687082D01*
X129984145Y-62687975D01*
X129967365Y-62688591D01*
X129941774Y-62688908D01*
X129909315Y-62688904D01*
X129871929Y-62688554D01*
X129868670Y-62688509D01*
X129747170Y-62686785D01*
X129540197Y-61939274D01*
X129514006Y-61844856D01*
X129488713Y-61754011D01*
X129464527Y-61667470D01*
X129441654Y-61585966D01*
X129420305Y-61510230D01*
X129400687Y-61440993D01*
X129383009Y-61378987D01*
X129367480Y-61324944D01*
X129354308Y-61279595D01*
X129343701Y-61243673D01*
X129335868Y-61217908D01*
X129331018Y-61203032D01*
X129329394Y-61199499D01*
X129327286Y-61206506D01*
X129322092Y-61225021D01*
X129314015Y-61254288D01*
X129303262Y-61293549D01*
X129290038Y-61342046D01*
X129274548Y-61399024D01*
X129256999Y-61463724D01*
X129237594Y-61535389D01*
X129216541Y-61613262D01*
X129194044Y-61696586D01*
X129170308Y-61784603D01*
X129145539Y-61876557D01*
X129126154Y-61948597D01*
X128926744Y-62689960D01*
X128682424Y-62689960D01*
X128673023Y-62656622D01*
X128669373Y-62643219D01*
X128662882Y-62618857D01*
X128653768Y-62584375D01*
X128642250Y-62540614D01*
X128628546Y-62488412D01*
X128612875Y-62428611D01*
X128595456Y-62362049D01*
X128576506Y-62289566D01*
X128556245Y-62212001D01*
X128534892Y-62130196D01*
X128512664Y-62044989D01*
X128489781Y-61957220D01*
X128466461Y-61867729D01*
X128442924Y-61777355D01*
X128419386Y-61686939D01*
X128396068Y-61597319D01*
X128373187Y-61509336D01*
X128350962Y-61423830D01*
X128329613Y-61341640D01*
X128309356Y-61263606D01*
X128290412Y-61190568D01*
X128272999Y-61123364D01*
X128257335Y-61062836D01*
X128243639Y-61009823D01*
X128232130Y-60965164D01*
X128223026Y-60929700D01*
X128216546Y-60904269D01*
X128212908Y-60889713D01*
X128212170Y-60886451D01*
X128218470Y-60883932D01*
X128237226Y-60882248D01*
X128268221Y-60881408D01*
X128311238Y-60881420D01*
X128331182Y-60881657D01*
X128450194Y-60883385D01*
X128634100Y-61609680D01*
X128665937Y-61735166D01*
X128694791Y-61848369D01*
X128720678Y-61949350D01*
X128743612Y-62038166D01*
X128763610Y-62114878D01*
X128780687Y-62179543D01*
X128794859Y-62232221D01*
X128806142Y-62272971D01*
X128814550Y-62301852D01*
X128820100Y-62318923D01*
X128822807Y-62324243D01*
X128822959Y-62324055D01*
X128824987Y-62316981D01*
X128829999Y-62298563D01*
X128837748Y-62269742D01*
X128847984Y-62231455D01*
X128860461Y-62184642D01*
X128874929Y-62130242D01*
X128891141Y-62069194D01*
X128908849Y-62002436D01*
X128927805Y-61930908D01*
X128947760Y-61855548D01*
X128968466Y-61777296D01*
X128989676Y-61697090D01*
X129011141Y-61615869D01*
X129032613Y-61534572D01*
X129053844Y-61454138D01*
X129074586Y-61375505D01*
X129094591Y-61299614D01*
X129113610Y-61227402D01*
X129131397Y-61159809D01*
X129147702Y-61097773D01*
X129162277Y-61042234D01*
X129174875Y-60994130D01*
X129185247Y-60954400D01*
X129193145Y-60923984D01*
X129198322Y-60903819D01*
X129199862Y-60897672D01*
X129204146Y-60880210D01*
X129332059Y-60880210D01*
X129459972Y-60880209D01*
X129656808Y-61600447D01*
X129682189Y-61693137D01*
X129706681Y-61782238D01*
X129730075Y-61867001D01*
X129752161Y-61946682D01*
X129772729Y-62020534D01*
X129791568Y-62087809D01*
X129808468Y-62147762D01*
X129823220Y-62199647D01*
X129835613Y-62242717D01*
X129845438Y-62276225D01*
X129852483Y-62299426D01*
X129856539Y-62311572D01*
X129857456Y-62313234D01*
X129859555Y-62306243D01*
X129864710Y-62287752D01*
X129872711Y-62258533D01*
X129883351Y-62219359D01*
X129896423Y-62171004D01*
X129911717Y-62114240D01*
X129929027Y-62049841D01*
X129948144Y-61978580D01*
X129968860Y-61901229D01*
X129990969Y-61818563D01*
X130014260Y-61731353D01*
X130038528Y-61640373D01*
X130051131Y-61593080D01*
X130240995Y-60880375D01*
X130471379Y-60880209D01*
X130462793Y-60910372D01*
X130462793Y-60910372D01*
G37*
X130462793Y-60910372D02*
X130459799Y-60921283D01*
X130453856Y-60943305D01*
X130445186Y-60975603D01*
X130434011Y-61017342D01*
X130420553Y-61067688D01*
X130405035Y-61125805D01*
X130387677Y-61190859D01*
X130368704Y-61262014D01*
X130348335Y-61338436D01*
X130326795Y-61419290D01*
X130304304Y-61503740D01*
X130281085Y-61590952D01*
X130257360Y-61680091D01*
X130233351Y-61770322D01*
X130209280Y-61860810D01*
X130185370Y-61950721D01*
X130161842Y-62039218D01*
X130138918Y-62125468D01*
X130116821Y-62208636D01*
X130095772Y-62287885D01*
X130075994Y-62362382D01*
X130057709Y-62431292D01*
X130041139Y-62493780D01*
X130026506Y-62549010D01*
X130014032Y-62596148D01*
X130003939Y-62634359D01*
X129996450Y-62662808D01*
X129991786Y-62680660D01*
X129990170Y-62687080D01*
X129990170Y-62687082D01*
X129984145Y-62687975D01*
X129967365Y-62688591D01*
X129941774Y-62688908D01*
X129909315Y-62688904D01*
X129871929Y-62688554D01*
X129868670Y-62688509D01*
X129747170Y-62686785D01*
X129540197Y-61939274D01*
X129514006Y-61844856D01*
X129488713Y-61754011D01*
X129464527Y-61667470D01*
X129441654Y-61585966D01*
X129420305Y-61510230D01*
X129400687Y-61440993D01*
X129383009Y-61378987D01*
X129367480Y-61324944D01*
X129354308Y-61279595D01*
X129343701Y-61243673D01*
X129335868Y-61217908D01*
X129331018Y-61203032D01*
X129329394Y-61199499D01*
X129327286Y-61206506D01*
X129322092Y-61225021D01*
X129314015Y-61254288D01*
X129303262Y-61293549D01*
X129290038Y-61342046D01*
X129274548Y-61399024D01*
X129256999Y-61463724D01*
X129237594Y-61535389D01*
X129216541Y-61613262D01*
X129194044Y-61696586D01*
X129170308Y-61784603D01*
X129145539Y-61876557D01*
X129126154Y-61948597D01*
X128926744Y-62689960D01*
X128682424Y-62689960D01*
X128673023Y-62656622D01*
X128669373Y-62643219D01*
X128662882Y-62618857D01*
X128653768Y-62584375D01*
X128642250Y-62540614D01*
X128628546Y-62488412D01*
X128612875Y-62428611D01*
X128595456Y-62362049D01*
X128576506Y-62289566D01*
X128556245Y-62212001D01*
X128534892Y-62130196D01*
X128512664Y-62044989D01*
X128489781Y-61957220D01*
X128466461Y-61867729D01*
X128442924Y-61777355D01*
X128419386Y-61686939D01*
X128396068Y-61597319D01*
X128373187Y-61509336D01*
X128350962Y-61423830D01*
X128329613Y-61341640D01*
X128309356Y-61263606D01*
X128290412Y-61190568D01*
X128272999Y-61123364D01*
X128257335Y-61062836D01*
X128243639Y-61009823D01*
X128232130Y-60965164D01*
X128223026Y-60929700D01*
X128216546Y-60904269D01*
X128212908Y-60889713D01*
X128212170Y-60886451D01*
X128218470Y-60883932D01*
X128237226Y-60882248D01*
X128268221Y-60881408D01*
X128311238Y-60881420D01*
X128331182Y-60881657D01*
X128450194Y-60883385D01*
X128634100Y-61609680D01*
X128665937Y-61735166D01*
X128694791Y-61848369D01*
X128720678Y-61949350D01*
X128743612Y-62038166D01*
X128763610Y-62114878D01*
X128780687Y-62179543D01*
X128794859Y-62232221D01*
X128806142Y-62272971D01*
X128814550Y-62301852D01*
X128820100Y-62318923D01*
X128822807Y-62324243D01*
X128822959Y-62324055D01*
X128824987Y-62316981D01*
X128829999Y-62298563D01*
X128837748Y-62269742D01*
X128847984Y-62231455D01*
X128860461Y-62184642D01*
X128874929Y-62130242D01*
X128891141Y-62069194D01*
X128908849Y-62002436D01*
X128927805Y-61930908D01*
X128947760Y-61855548D01*
X128968466Y-61777296D01*
X128989676Y-61697090D01*
X129011141Y-61615869D01*
X129032613Y-61534572D01*
X129053844Y-61454138D01*
X129074586Y-61375505D01*
X129094591Y-61299614D01*
X129113610Y-61227402D01*
X129131397Y-61159809D01*
X129147702Y-61097773D01*
X129162277Y-61042234D01*
X129174875Y-60994130D01*
X129185247Y-60954400D01*
X129193145Y-60923984D01*
X129198322Y-60903819D01*
X129199862Y-60897672D01*
X129204146Y-60880210D01*
X129332059Y-60880210D01*
X129459972Y-60880209D01*
X129656808Y-61600447D01*
X129682189Y-61693137D01*
X129706681Y-61782238D01*
X129730075Y-61867001D01*
X129752161Y-61946682D01*
X129772729Y-62020534D01*
X129791568Y-62087809D01*
X129808468Y-62147762D01*
X129823220Y-62199647D01*
X129835613Y-62242717D01*
X129845438Y-62276225D01*
X129852483Y-62299426D01*
X129856539Y-62311572D01*
X129857456Y-62313234D01*
X129859555Y-62306243D01*
X129864710Y-62287752D01*
X129872711Y-62258533D01*
X129883351Y-62219359D01*
X129896423Y-62171004D01*
X129911717Y-62114240D01*
X129929027Y-62049841D01*
X129948144Y-61978580D01*
X129968860Y-61901229D01*
X129990969Y-61818563D01*
X130014260Y-61731353D01*
X130038528Y-61640373D01*
X130051131Y-61593080D01*
X130240995Y-60880375D01*
X130471379Y-60880209D01*
X130462793Y-60910372D01*
G36*
X126808820Y-61623160D02*
X127754970Y-61623160D01*
X127754970Y-60880210D01*
X128002620Y-60880210D01*
X128002620Y-62689960D01*
X127754970Y-62689960D01*
X127754970Y-61839060D01*
X126808820Y-61839060D01*
X126808820Y-62689960D01*
X126561170Y-62689960D01*
X126561170Y-60880210D01*
X126808820Y-60880210D01*
X126808820Y-61623160D01*
X126808820Y-61623160D01*
G37*
X126808820Y-61623160D02*
X127754970Y-61623160D01*
X127754970Y-60880210D01*
X128002620Y-60880210D01*
X128002620Y-62689960D01*
X127754970Y-62689960D01*
X127754970Y-61839060D01*
X126808820Y-61839060D01*
X126808820Y-62689960D01*
X126561170Y-62689960D01*
X126561170Y-60880210D01*
X126808820Y-60880210D01*
X126808820Y-61623160D01*
G36*
X133017944Y-61339317D02*
X133103218Y-61347034D01*
X133179588Y-61362554D01*
X133248513Y-61386343D01*
X133311450Y-61418861D01*
X133349320Y-61444511D01*
X133388479Y-61479305D01*
X133427234Y-61524243D01*
X133463982Y-61576830D01*
X133497120Y-61634566D01*
X133525044Y-61694953D01*
X133543772Y-61747451D01*
X133549413Y-61766715D01*
X133553729Y-61784075D01*
X133556942Y-61801754D01*
X133559272Y-61821973D01*
X133560939Y-61846955D01*
X133562163Y-61878923D01*
X133563165Y-61920099D01*
X133563722Y-61948597D01*
X133566426Y-62093060D01*
X132604468Y-62093060D01*
X132608429Y-62148622D01*
X132617125Y-62215400D01*
X132633003Y-62279196D01*
X132655231Y-62338381D01*
X132682978Y-62391324D01*
X132715412Y-62436395D01*
X132751702Y-62471964D01*
X132784105Y-62493076D01*
X132817758Y-62509036D01*
X132848478Y-62520384D01*
X132880020Y-62527990D01*
X132916141Y-62532725D01*
X132960596Y-62535459D01*
X132968320Y-62535754D01*
X133034068Y-62535589D01*
X133090174Y-62529606D01*
X133138556Y-62517252D01*
X133181126Y-62497977D01*
X133219802Y-62471228D01*
X133233456Y-62459375D01*
X133269783Y-62420475D01*
X133297031Y-62377641D01*
X133316790Y-62327964D01*
X133326857Y-62288322D01*
X133330511Y-62270860D01*
X133547918Y-62270860D01*
X133543906Y-62304995D01*
X133531909Y-62365631D01*
X133510116Y-62423232D01*
X133477728Y-62479351D01*
X133433943Y-62535543D01*
X133413956Y-62557444D01*
X133355826Y-62611468D01*
X133294093Y-62654025D01*
X133226746Y-62686249D01*
X133151776Y-62709271D01*
X133139770Y-62711996D01*
X133110283Y-62716738D01*
X133071612Y-62720560D01*
X133027216Y-62723352D01*
X132980556Y-62725007D01*
X132935092Y-62725413D01*
X132894286Y-62724461D01*
X132861597Y-62722043D01*
X132854020Y-62721035D01*
X132819258Y-62713911D01*
X132779389Y-62702911D01*
X132738750Y-62689476D01*
X132701676Y-62675048D01*
X132672506Y-62661069D01*
X132670873Y-62660145D01*
X132605899Y-62615621D01*
X132548550Y-62561025D01*
X132498928Y-62496515D01*
X132457132Y-62422249D01*
X132423264Y-62338386D01*
X132397424Y-62245082D01*
X132392653Y-62222434D01*
X132388209Y-62195998D01*
X132384987Y-62166358D01*
X132382840Y-62131129D01*
X132381622Y-62087925D01*
X132381188Y-62035910D01*
X132381269Y-61989194D01*
X132381840Y-61952490D01*
X132383102Y-61923114D01*
X132383785Y-61915260D01*
X132604729Y-61915260D01*
X133330270Y-61915260D01*
X133330270Y-61871825D01*
X133325868Y-61818841D01*
X133313501Y-61764158D01*
X133294423Y-61711129D01*
X133269888Y-61663104D01*
X133241151Y-61623436D01*
X133234698Y-61616480D01*
X133198597Y-61585462D01*
X133157372Y-61561989D01*
X133109488Y-61545552D01*
X133053410Y-61535647D01*
X132987602Y-61531764D01*
X132977845Y-61531674D01*
X132928559Y-61532652D01*
X132888106Y-61536531D01*
X132852804Y-61544062D01*
X132818969Y-61555992D01*
X132788630Y-61570142D01*
X132745958Y-61598373D01*
X132706879Y-61637065D01*
X132672604Y-61684201D01*
X132644340Y-61737769D01*
X132623295Y-61795753D01*
X132610679Y-61856140D01*
X132609186Y-61869222D01*
X132604729Y-61915260D01*
X132383785Y-61915260D01*
X132385254Y-61898380D01*
X132388493Y-61875605D01*
X132393021Y-61852103D01*
X132395755Y-61839575D01*
X132416032Y-61763941D01*
X132441972Y-61691275D01*
X132472616Y-61623425D01*
X132507007Y-61562240D01*
X132544187Y-61509568D01*
X132583197Y-61467259D01*
X132593378Y-61458304D01*
X132654142Y-61415027D01*
X132721598Y-61381518D01*
X132796206Y-61357645D01*
X132878429Y-61343281D01*
X132968728Y-61338294D01*
X133017944Y-61339317D01*
X133017944Y-61339317D01*
G37*
X133017944Y-61339317D02*
X133103218Y-61347034D01*
X133179588Y-61362554D01*
X133248513Y-61386343D01*
X133311450Y-61418861D01*
X133349320Y-61444511D01*
X133388479Y-61479305D01*
X133427234Y-61524243D01*
X133463982Y-61576830D01*
X133497120Y-61634566D01*
X133525044Y-61694953D01*
X133543772Y-61747451D01*
X133549413Y-61766715D01*
X133553729Y-61784075D01*
X133556942Y-61801754D01*
X133559272Y-61821973D01*
X133560939Y-61846955D01*
X133562163Y-61878923D01*
X133563165Y-61920099D01*
X133563722Y-61948597D01*
X133566426Y-62093060D01*
X132604468Y-62093060D01*
X132608429Y-62148622D01*
X132617125Y-62215400D01*
X132633003Y-62279196D01*
X132655231Y-62338381D01*
X132682978Y-62391324D01*
X132715412Y-62436395D01*
X132751702Y-62471964D01*
X132784105Y-62493076D01*
X132817758Y-62509036D01*
X132848478Y-62520384D01*
X132880020Y-62527990D01*
X132916141Y-62532725D01*
X132960596Y-62535459D01*
X132968320Y-62535754D01*
X133034068Y-62535589D01*
X133090174Y-62529606D01*
X133138556Y-62517252D01*
X133181126Y-62497977D01*
X133219802Y-62471228D01*
X133233456Y-62459375D01*
X133269783Y-62420475D01*
X133297031Y-62377641D01*
X133316790Y-62327964D01*
X133326857Y-62288322D01*
X133330511Y-62270860D01*
X133547918Y-62270860D01*
X133543906Y-62304995D01*
X133531909Y-62365631D01*
X133510116Y-62423232D01*
X133477728Y-62479351D01*
X133433943Y-62535543D01*
X133413956Y-62557444D01*
X133355826Y-62611468D01*
X133294093Y-62654025D01*
X133226746Y-62686249D01*
X133151776Y-62709271D01*
X133139770Y-62711996D01*
X133110283Y-62716738D01*
X133071612Y-62720560D01*
X133027216Y-62723352D01*
X132980556Y-62725007D01*
X132935092Y-62725413D01*
X132894286Y-62724461D01*
X132861597Y-62722043D01*
X132854020Y-62721035D01*
X132819258Y-62713911D01*
X132779389Y-62702911D01*
X132738750Y-62689476D01*
X132701676Y-62675048D01*
X132672506Y-62661069D01*
X132670873Y-62660145D01*
X132605899Y-62615621D01*
X132548550Y-62561025D01*
X132498928Y-62496515D01*
X132457132Y-62422249D01*
X132423264Y-62338386D01*
X132397424Y-62245082D01*
X132392653Y-62222434D01*
X132388209Y-62195998D01*
X132384987Y-62166358D01*
X132382840Y-62131129D01*
X132381622Y-62087925D01*
X132381188Y-62035910D01*
X132381269Y-61989194D01*
X132381840Y-61952490D01*
X132383102Y-61923114D01*
X132383785Y-61915260D01*
X132604729Y-61915260D01*
X133330270Y-61915260D01*
X133330270Y-61871825D01*
X133325868Y-61818841D01*
X133313501Y-61764158D01*
X133294423Y-61711129D01*
X133269888Y-61663104D01*
X133241151Y-61623436D01*
X133234698Y-61616480D01*
X133198597Y-61585462D01*
X133157372Y-61561989D01*
X133109488Y-61545552D01*
X133053410Y-61535647D01*
X132987602Y-61531764D01*
X132977845Y-61531674D01*
X132928559Y-61532652D01*
X132888106Y-61536531D01*
X132852804Y-61544062D01*
X132818969Y-61555992D01*
X132788630Y-61570142D01*
X132745958Y-61598373D01*
X132706879Y-61637065D01*
X132672604Y-61684201D01*
X132644340Y-61737769D01*
X132623295Y-61795753D01*
X132610679Y-61856140D01*
X132609186Y-61869222D01*
X132604729Y-61915260D01*
X132383785Y-61915260D01*
X132385254Y-61898380D01*
X132388493Y-61875605D01*
X132393021Y-61852103D01*
X132395755Y-61839575D01*
X132416032Y-61763941D01*
X132441972Y-61691275D01*
X132472616Y-61623425D01*
X132507007Y-61562240D01*
X132544187Y-61509568D01*
X132583197Y-61467259D01*
X132593378Y-61458304D01*
X132654142Y-61415027D01*
X132721598Y-61381518D01*
X132796206Y-61357645D01*
X132878429Y-61343281D01*
X132968728Y-61338294D01*
X133017944Y-61339317D01*
G36*
X125611771Y-60837948D02*
X125707092Y-60846866D01*
X125793620Y-60864619D01*
X125871662Y-60891358D01*
X125941524Y-60927234D01*
X126003512Y-60972398D01*
X126057933Y-61027000D01*
X126105093Y-61091191D01*
X126136776Y-61147498D01*
X126158324Y-61198416D01*
X126176005Y-61255619D01*
X126188364Y-61313604D01*
X126193777Y-61362810D01*
X126196045Y-61410435D01*
X125961095Y-61410435D01*
X125957036Y-61365985D01*
X125944941Y-61300488D01*
X125921150Y-61239866D01*
X125885827Y-61184451D01*
X125845767Y-61140661D01*
X125810233Y-61111079D01*
X125772618Y-61088106D01*
X125729133Y-61069736D01*
X125688045Y-61057133D01*
X125653173Y-61050233D01*
X125609442Y-61045412D01*
X125560426Y-61042708D01*
X125509702Y-61042164D01*
X125460843Y-61043819D01*
X125417425Y-61047714D01*
X125383882Y-61053674D01*
X125318272Y-61075285D01*
X125262463Y-61104849D01*
X125216546Y-61142273D01*
X125180610Y-61187467D01*
X125154746Y-61240338D01*
X125139044Y-61300794D01*
X125138743Y-61302653D01*
X125135953Y-61357180D01*
X125144810Y-61408840D01*
X125164572Y-61456156D01*
X125194496Y-61497653D01*
X125233838Y-61531856D01*
X125262595Y-61548731D01*
X125300961Y-61565302D01*
X125350575Y-61582696D01*
X125410041Y-61600526D01*
X125477964Y-61618404D01*
X125552950Y-61635942D01*
X125633602Y-61652751D01*
X125643595Y-61654700D01*
X125720784Y-61670544D01*
X125787605Y-61686380D01*
X125846367Y-61702985D01*
X125899377Y-61721134D01*
X125948943Y-61741604D01*
X125997373Y-61765170D01*
X126037295Y-61787027D01*
X126096308Y-61827665D01*
X126145802Y-61876486D01*
X126185574Y-61933042D01*
X126215418Y-61996881D01*
X126235131Y-62067556D01*
X126244509Y-62144616D01*
X126243348Y-62227612D01*
X126242422Y-62238709D01*
X126229132Y-62318639D01*
X126204599Y-62393112D01*
X126169272Y-62461623D01*
X126123601Y-62523669D01*
X126068036Y-62578747D01*
X126003026Y-62626354D01*
X125929022Y-62665987D01*
X125846474Y-62697142D01*
X125827643Y-62702688D01*
X125776965Y-62714186D01*
X125717100Y-62723282D01*
X125651376Y-62729742D01*
X125583121Y-62733332D01*
X125515661Y-62733817D01*
X125452324Y-62730964D01*
X125440395Y-62729967D01*
X125407794Y-62725863D01*
X125368089Y-62719181D01*
X125326366Y-62710906D01*
X125287709Y-62702029D01*
X125264740Y-62695850D01*
X125184586Y-62666530D01*
X125113033Y-62628098D01*
X125049396Y-62580107D01*
X124992991Y-62522110D01*
X124986127Y-62513778D01*
X124939696Y-62448360D01*
X124903262Y-62378755D01*
X124876238Y-62303413D01*
X124858041Y-62220782D01*
X124849725Y-62151797D01*
X124845348Y-62099410D01*
X125079737Y-62099410D01*
X125083557Y-62148943D01*
X125094950Y-62220581D01*
X125117340Y-62286209D01*
X125150275Y-62345309D01*
X125193301Y-62397365D01*
X125245965Y-62441857D01*
X125307812Y-62478268D01*
X125378390Y-62506081D01*
X125402295Y-62512961D01*
X125449103Y-62522227D01*
X125504024Y-62528099D01*
X125562908Y-62530488D01*
X125621605Y-62529310D01*
X125675967Y-62524477D01*
X125707095Y-62519318D01*
X125778377Y-62499589D01*
X125840628Y-62471860D01*
X125893457Y-62436553D01*
X125936474Y-62394091D01*
X125969287Y-62344897D01*
X125991506Y-62289394D01*
X126002740Y-62228005D01*
X126004112Y-62197835D01*
X125999401Y-62139906D01*
X125984512Y-62089403D01*
X125959219Y-62045859D01*
X125923292Y-62008804D01*
X125905445Y-61995386D01*
X125872565Y-61976624D01*
X125827609Y-61957163D01*
X125771170Y-61937185D01*
X125703841Y-61916872D01*
X125626216Y-61896406D01*
X125538887Y-61875970D01*
X125468970Y-61861098D01*
X125393493Y-61844426D01*
X125327477Y-61826961D01*
X125267683Y-61807644D01*
X125210875Y-61785412D01*
X125153816Y-61759204D01*
X125145120Y-61754906D01*
X125085158Y-61721521D01*
X125036414Y-61686306D01*
X124997414Y-61647910D01*
X124966684Y-61604985D01*
X124952572Y-61578534D01*
X124925587Y-61507779D01*
X124909828Y-61432941D01*
X124905383Y-61356039D01*
X124912338Y-61279092D01*
X124930782Y-61204120D01*
X124935685Y-61190009D01*
X124962220Y-61129418D01*
X124996211Y-61074454D01*
X125040030Y-61021353D01*
X125045987Y-61015005D01*
X125099653Y-60965285D01*
X125158315Y-60924342D01*
X125223059Y-60891757D01*
X125294972Y-60867113D01*
X125375141Y-60849993D01*
X125464652Y-60839979D01*
X125507351Y-60837714D01*
X125611771Y-60837948D01*
X125611771Y-60837948D01*
G37*
X125611771Y-60837948D02*
X125707092Y-60846866D01*
X125793620Y-60864619D01*
X125871662Y-60891358D01*
X125941524Y-60927234D01*
X126003512Y-60972398D01*
X126057933Y-61027000D01*
X126105093Y-61091191D01*
X126136776Y-61147498D01*
X126158324Y-61198416D01*
X126176005Y-61255619D01*
X126188364Y-61313604D01*
X126193777Y-61362810D01*
X126196045Y-61410435D01*
X125961095Y-61410435D01*
X125957036Y-61365985D01*
X125944941Y-61300488D01*
X125921150Y-61239866D01*
X125885827Y-61184451D01*
X125845767Y-61140661D01*
X125810233Y-61111079D01*
X125772618Y-61088106D01*
X125729133Y-61069736D01*
X125688045Y-61057133D01*
X125653173Y-61050233D01*
X125609442Y-61045412D01*
X125560426Y-61042708D01*
X125509702Y-61042164D01*
X125460843Y-61043819D01*
X125417425Y-61047714D01*
X125383882Y-61053674D01*
X125318272Y-61075285D01*
X125262463Y-61104849D01*
X125216546Y-61142273D01*
X125180610Y-61187467D01*
X125154746Y-61240338D01*
X125139044Y-61300794D01*
X125138743Y-61302653D01*
X125135953Y-61357180D01*
X125144810Y-61408840D01*
X125164572Y-61456156D01*
X125194496Y-61497653D01*
X125233838Y-61531856D01*
X125262595Y-61548731D01*
X125300961Y-61565302D01*
X125350575Y-61582696D01*
X125410041Y-61600526D01*
X125477964Y-61618404D01*
X125552950Y-61635942D01*
X125633602Y-61652751D01*
X125643595Y-61654700D01*
X125720784Y-61670544D01*
X125787605Y-61686380D01*
X125846367Y-61702985D01*
X125899377Y-61721134D01*
X125948943Y-61741604D01*
X125997373Y-61765170D01*
X126037295Y-61787027D01*
X126096308Y-61827665D01*
X126145802Y-61876486D01*
X126185574Y-61933042D01*
X126215418Y-61996881D01*
X126235131Y-62067556D01*
X126244509Y-62144616D01*
X126243348Y-62227612D01*
X126242422Y-62238709D01*
X126229132Y-62318639D01*
X126204599Y-62393112D01*
X126169272Y-62461623D01*
X126123601Y-62523669D01*
X126068036Y-62578747D01*
X126003026Y-62626354D01*
X125929022Y-62665987D01*
X125846474Y-62697142D01*
X125827643Y-62702688D01*
X125776965Y-62714186D01*
X125717100Y-62723282D01*
X125651376Y-62729742D01*
X125583121Y-62733332D01*
X125515661Y-62733817D01*
X125452324Y-62730964D01*
X125440395Y-62729967D01*
X125407794Y-62725863D01*
X125368089Y-62719181D01*
X125326366Y-62710906D01*
X125287709Y-62702029D01*
X125264740Y-62695850D01*
X125184586Y-62666530D01*
X125113033Y-62628098D01*
X125049396Y-62580107D01*
X124992991Y-62522110D01*
X124986127Y-62513778D01*
X124939696Y-62448360D01*
X124903262Y-62378755D01*
X124876238Y-62303413D01*
X124858041Y-62220782D01*
X124849725Y-62151797D01*
X124845348Y-62099410D01*
X125079737Y-62099410D01*
X125083557Y-62148943D01*
X125094950Y-62220581D01*
X125117340Y-62286209D01*
X125150275Y-62345309D01*
X125193301Y-62397365D01*
X125245965Y-62441857D01*
X125307812Y-62478268D01*
X125378390Y-62506081D01*
X125402295Y-62512961D01*
X125449103Y-62522227D01*
X125504024Y-62528099D01*
X125562908Y-62530488D01*
X125621605Y-62529310D01*
X125675967Y-62524477D01*
X125707095Y-62519318D01*
X125778377Y-62499589D01*
X125840628Y-62471860D01*
X125893457Y-62436553D01*
X125936474Y-62394091D01*
X125969287Y-62344897D01*
X125991506Y-62289394D01*
X126002740Y-62228005D01*
X126004112Y-62197835D01*
X125999401Y-62139906D01*
X125984512Y-62089403D01*
X125959219Y-62045859D01*
X125923292Y-62008804D01*
X125905445Y-61995386D01*
X125872565Y-61976624D01*
X125827609Y-61957163D01*
X125771170Y-61937185D01*
X125703841Y-61916872D01*
X125626216Y-61896406D01*
X125538887Y-61875970D01*
X125468970Y-61861098D01*
X125393493Y-61844426D01*
X125327477Y-61826961D01*
X125267683Y-61807644D01*
X125210875Y-61785412D01*
X125153816Y-61759204D01*
X125145120Y-61754906D01*
X125085158Y-61721521D01*
X125036414Y-61686306D01*
X124997414Y-61647910D01*
X124966684Y-61604985D01*
X124952572Y-61578534D01*
X124925587Y-61507779D01*
X124909828Y-61432941D01*
X124905383Y-61356039D01*
X124912338Y-61279092D01*
X124930782Y-61204120D01*
X124935685Y-61190009D01*
X124962220Y-61129418D01*
X124996211Y-61074454D01*
X125040030Y-61021353D01*
X125045987Y-61015005D01*
X125099653Y-60965285D01*
X125158315Y-60924342D01*
X125223059Y-60891757D01*
X125294972Y-60867113D01*
X125375141Y-60849993D01*
X125464652Y-60839979D01*
X125507351Y-60837714D01*
X125611771Y-60837948D01*
G36*
X123869418Y-60840763D02*
X123973453Y-60855805D01*
X124069847Y-60880929D01*
X124158701Y-60916180D01*
X124240113Y-60961603D01*
X124314183Y-61017243D01*
X124381009Y-61083145D01*
X124425399Y-61137927D01*
X124479539Y-61221675D01*
X124524307Y-61313610D01*
X124559741Y-61413852D01*
X124585878Y-61522522D01*
X124602756Y-61639742D01*
X124609399Y-61734285D01*
X124609563Y-61850987D01*
X124600479Y-61963885D01*
X124582418Y-62071837D01*
X124555648Y-62173704D01*
X124520439Y-62268343D01*
X124477062Y-62354614D01*
X124454024Y-62391803D01*
X124396185Y-62469274D01*
X124331920Y-62536315D01*
X124260775Y-62593198D01*
X124182298Y-62640192D01*
X124096037Y-62677567D01*
X124001538Y-62705593D01*
X123898348Y-62724540D01*
X123895432Y-62724929D01*
X123859477Y-62728522D01*
X123815323Y-62731179D01*
X123766923Y-62732824D01*
X123718228Y-62733379D01*
X123673190Y-62732767D01*
X123635761Y-62730909D01*
X123627470Y-62730183D01*
X123524764Y-62714633D01*
X123428859Y-62689027D01*
X123340182Y-62653561D01*
X123259159Y-62608429D01*
X123186216Y-62553824D01*
X123137330Y-62507049D01*
X123077250Y-62434217D01*
X123025222Y-62352284D01*
X122981470Y-62262151D01*
X122946221Y-62164716D01*
X122919698Y-62060882D01*
X122902126Y-61951548D01*
X122893732Y-61837615D01*
X122894099Y-61794610D01*
X123148350Y-61794610D01*
X123148578Y-61845743D01*
X123149136Y-61886420D01*
X123150168Y-61918885D01*
X123151821Y-61945378D01*
X123154238Y-61968144D01*
X123157565Y-61989425D01*
X123161948Y-62011464D01*
X123162568Y-62014345D01*
X123188108Y-62111254D01*
X123220500Y-62198387D01*
X123259578Y-62275481D01*
X123305173Y-62342273D01*
X123357118Y-62398500D01*
X123415246Y-62443899D01*
X123449305Y-62463902D01*
X123515771Y-62492505D01*
X123590132Y-62513168D01*
X123670085Y-62525518D01*
X123753327Y-62529185D01*
X123827495Y-62524932D01*
X123914413Y-62510549D01*
X123993061Y-62486587D01*
X124063743Y-62452836D01*
X124126760Y-62409087D01*
X124182416Y-62355132D01*
X124231013Y-62290759D01*
X124271824Y-62217899D01*
X124299980Y-62154052D01*
X124321809Y-62090964D01*
X124338129Y-62025353D01*
X124349758Y-61953941D01*
X124357442Y-61874460D01*
X124360432Y-61763033D01*
X124353408Y-61655844D01*
X124336590Y-61553778D01*
X124310201Y-61457723D01*
X124274462Y-61368566D01*
X124229595Y-61287192D01*
X124200047Y-61244665D01*
X124156530Y-61193829D01*
X124108870Y-61152376D01*
X124053562Y-61117430D01*
X124030695Y-61105689D01*
X123958607Y-61076767D01*
X123881811Y-61057300D01*
X123802149Y-61047124D01*
X123721467Y-61046075D01*
X123641608Y-61053988D01*
X123564418Y-61070698D01*
X123491740Y-61096041D01*
X123425418Y-61129852D01*
X123376717Y-61164069D01*
X123328745Y-61210245D01*
X123284465Y-61267180D01*
X123244722Y-61333256D01*
X123210360Y-61406853D01*
X123182225Y-61486356D01*
X123161160Y-61570144D01*
X123159031Y-61581023D01*
X123155224Y-61604237D01*
X123152367Y-61629681D01*
X123150357Y-61659454D01*
X123149088Y-61695658D01*
X123148454Y-61740394D01*
X123148350Y-61794610D01*
X122894099Y-61794610D01*
X122894738Y-61719982D01*
X122905371Y-61599551D01*
X122907179Y-61585878D01*
X122927183Y-61477822D01*
X122956624Y-61376091D01*
X122995130Y-61281382D01*
X123042327Y-61194395D01*
X123097844Y-61115828D01*
X123161307Y-61046380D01*
X123223073Y-60993635D01*
X123299072Y-60943988D01*
X123383441Y-60903416D01*
X123475452Y-60872134D01*
X123574377Y-60850357D01*
X123679487Y-60838301D01*
X123757645Y-60835759D01*
X123869418Y-60840763D01*
X123869418Y-60840763D01*
G37*
X123869418Y-60840763D02*
X123973453Y-60855805D01*
X124069847Y-60880929D01*
X124158701Y-60916180D01*
X124240113Y-60961603D01*
X124314183Y-61017243D01*
X124381009Y-61083145D01*
X124425399Y-61137927D01*
X124479539Y-61221675D01*
X124524307Y-61313610D01*
X124559741Y-61413852D01*
X124585878Y-61522522D01*
X124602756Y-61639742D01*
X124609399Y-61734285D01*
X124609563Y-61850987D01*
X124600479Y-61963885D01*
X124582418Y-62071837D01*
X124555648Y-62173704D01*
X124520439Y-62268343D01*
X124477062Y-62354614D01*
X124454024Y-62391803D01*
X124396185Y-62469274D01*
X124331920Y-62536315D01*
X124260775Y-62593198D01*
X124182298Y-62640192D01*
X124096037Y-62677567D01*
X124001538Y-62705593D01*
X123898348Y-62724540D01*
X123895432Y-62724929D01*
X123859477Y-62728522D01*
X123815323Y-62731179D01*
X123766923Y-62732824D01*
X123718228Y-62733379D01*
X123673190Y-62732767D01*
X123635761Y-62730909D01*
X123627470Y-62730183D01*
X123524764Y-62714633D01*
X123428859Y-62689027D01*
X123340182Y-62653561D01*
X123259159Y-62608429D01*
X123186216Y-62553824D01*
X123137330Y-62507049D01*
X123077250Y-62434217D01*
X123025222Y-62352284D01*
X122981470Y-62262151D01*
X122946221Y-62164716D01*
X122919698Y-62060882D01*
X122902126Y-61951548D01*
X122893732Y-61837615D01*
X122894099Y-61794610D01*
X123148350Y-61794610D01*
X123148578Y-61845743D01*
X123149136Y-61886420D01*
X123150168Y-61918885D01*
X123151821Y-61945378D01*
X123154238Y-61968144D01*
X123157565Y-61989425D01*
X123161948Y-62011464D01*
X123162568Y-62014345D01*
X123188108Y-62111254D01*
X123220500Y-62198387D01*
X123259578Y-62275481D01*
X123305173Y-62342273D01*
X123357118Y-62398500D01*
X123415246Y-62443899D01*
X123449305Y-62463902D01*
X123515771Y-62492505D01*
X123590132Y-62513168D01*
X123670085Y-62525518D01*
X123753327Y-62529185D01*
X123827495Y-62524932D01*
X123914413Y-62510549D01*
X123993061Y-62486587D01*
X124063743Y-62452836D01*
X124126760Y-62409087D01*
X124182416Y-62355132D01*
X124231013Y-62290759D01*
X124271824Y-62217899D01*
X124299980Y-62154052D01*
X124321809Y-62090964D01*
X124338129Y-62025353D01*
X124349758Y-61953941D01*
X124357442Y-61874460D01*
X124360432Y-61763033D01*
X124353408Y-61655844D01*
X124336590Y-61553778D01*
X124310201Y-61457723D01*
X124274462Y-61368566D01*
X124229595Y-61287192D01*
X124200047Y-61244665D01*
X124156530Y-61193829D01*
X124108870Y-61152376D01*
X124053562Y-61117430D01*
X124030695Y-61105689D01*
X123958607Y-61076767D01*
X123881811Y-61057300D01*
X123802149Y-61047124D01*
X123721467Y-61046075D01*
X123641608Y-61053988D01*
X123564418Y-61070698D01*
X123491740Y-61096041D01*
X123425418Y-61129852D01*
X123376717Y-61164069D01*
X123328745Y-61210245D01*
X123284465Y-61267180D01*
X123244722Y-61333256D01*
X123210360Y-61406853D01*
X123182225Y-61486356D01*
X123161160Y-61570144D01*
X123159031Y-61581023D01*
X123155224Y-61604237D01*
X123152367Y-61629681D01*
X123150357Y-61659454D01*
X123149088Y-61695658D01*
X123148454Y-61740394D01*
X123148350Y-61794610D01*
X122894099Y-61794610D01*
X122894738Y-61719982D01*
X122905371Y-61599551D01*
X122907179Y-61585878D01*
X122927183Y-61477822D01*
X122956624Y-61376091D01*
X122995130Y-61281382D01*
X123042327Y-61194395D01*
X123097844Y-61115828D01*
X123161307Y-61046380D01*
X123223073Y-60993635D01*
X123299072Y-60943988D01*
X123383441Y-60903416D01*
X123475452Y-60872134D01*
X123574377Y-60850357D01*
X123679487Y-60838301D01*
X123757645Y-60835759D01*
X123869418Y-60840763D01*
G36*
X134609160Y-74098956D02*
X136181146Y-74202453D01*
X137469786Y-74551774D01*
X138668255Y-75216700D01*
X139513504Y-75870596D01*
X140423483Y-76904722D01*
X141167768Y-78261393D01*
X141668570Y-79762816D01*
X141848160Y-81206559D01*
X141606286Y-83009263D01*
X140922194Y-84675992D01*
X139858180Y-86130194D01*
X138476538Y-87295313D01*
X136839565Y-88094794D01*
X136069660Y-88307744D01*
X135244160Y-88485923D01*
X135244160Y-86845557D01*
X135257476Y-85953922D01*
X135333777Y-85431261D01*
X135527587Y-85138619D01*
X135893432Y-84937039D01*
X136012750Y-84886830D01*
X136926816Y-84256743D01*
X137557329Y-83323288D01*
X137864702Y-82226038D01*
X137809343Y-81104566D01*
X137365601Y-80117335D01*
X136425098Y-79202495D01*
X135320002Y-78723239D01*
X134148619Y-78688071D01*
X133009253Y-79105497D01*
X132277727Y-79677192D01*
X131731571Y-80312179D01*
X131487380Y-80928111D01*
X131434160Y-81722679D01*
X131629792Y-83022490D01*
X132181739Y-84074223D01*
X133037572Y-84790261D01*
X133352752Y-84929059D01*
X133828722Y-85121751D01*
X134090529Y-85356160D01*
X134202190Y-85772438D01*
X134227723Y-86510737D01*
X134228160Y-86845585D01*
X134198571Y-87780752D01*
X134045903Y-88290534D01*
X133674305Y-88438724D01*
X132987925Y-88289117D01*
X132374639Y-88079209D01*
X130662548Y-87215798D01*
X129236298Y-85981381D01*
X128164653Y-84449119D01*
X127589658Y-82988465D01*
X127369606Y-81246319D01*
X127608825Y-79503666D01*
X128266836Y-77851196D01*
X129303162Y-76379596D01*
X130677326Y-75179556D01*
X131224978Y-74843595D01*
X132001053Y-74450840D01*
X132689665Y-74224751D01*
X133488111Y-74121917D01*
X134593688Y-74098925D01*
X134609160Y-74098956D01*
X134609160Y-74098956D01*
G37*
X134609160Y-74098956D02*
X136181146Y-74202453D01*
X137469786Y-74551774D01*
X138668255Y-75216700D01*
X139513504Y-75870596D01*
X140423483Y-76904722D01*
X141167768Y-78261393D01*
X141668570Y-79762816D01*
X141848160Y-81206559D01*
X141606286Y-83009263D01*
X140922194Y-84675992D01*
X139858180Y-86130194D01*
X138476538Y-87295313D01*
X136839565Y-88094794D01*
X136069660Y-88307744D01*
X135244160Y-88485923D01*
X135244160Y-86845557D01*
X135257476Y-85953922D01*
X135333777Y-85431261D01*
X135527587Y-85138619D01*
X135893432Y-84937039D01*
X136012750Y-84886830D01*
X136926816Y-84256743D01*
X137557329Y-83323288D01*
X137864702Y-82226038D01*
X137809343Y-81104566D01*
X137365601Y-80117335D01*
X136425098Y-79202495D01*
X135320002Y-78723239D01*
X134148619Y-78688071D01*
X133009253Y-79105497D01*
X132277727Y-79677192D01*
X131731571Y-80312179D01*
X131487380Y-80928111D01*
X131434160Y-81722679D01*
X131629792Y-83022490D01*
X132181739Y-84074223D01*
X133037572Y-84790261D01*
X133352752Y-84929059D01*
X133828722Y-85121751D01*
X134090529Y-85356160D01*
X134202190Y-85772438D01*
X134227723Y-86510737D01*
X134228160Y-86845585D01*
X134198571Y-87780752D01*
X134045903Y-88290534D01*
X133674305Y-88438724D01*
X132987925Y-88289117D01*
X132374639Y-88079209D01*
X130662548Y-87215798D01*
X129236298Y-85981381D01*
X128164653Y-84449119D01*
X127589658Y-82988465D01*
X127369606Y-81246319D01*
X127608825Y-79503666D01*
X128266836Y-77851196D01*
X129303162Y-76379596D01*
X130677326Y-75179556D01*
X131224978Y-74843595D01*
X132001053Y-74450840D01*
X132689665Y-74224751D01*
X133488111Y-74121917D01*
X134593688Y-74098925D01*
X134609160Y-74098956D01*
G36*
X127120194Y-75147815D02*
X127653286Y-75404927D01*
X128430473Y-75854700D01*
X128800812Y-76172465D01*
X128817752Y-76441132D01*
X128534744Y-76743611D01*
X128522751Y-76753599D01*
X128211538Y-77188053D01*
X127846912Y-77939718D01*
X127497289Y-78832631D01*
X127231084Y-79690826D01*
X127116712Y-80338341D01*
X127116160Y-80371363D01*
X127116160Y-80914111D01*
X126544660Y-80380664D01*
X125653595Y-79778820D01*
X124804468Y-79681393D01*
X123987444Y-80087446D01*
X123934572Y-80131796D01*
X123329508Y-80921958D01*
X123207645Y-81781201D01*
X123566535Y-82629579D01*
X124025826Y-83112068D01*
X124492015Y-83553480D01*
X124732577Y-83998106D01*
X124820417Y-84637519D01*
X124830160Y-85225557D01*
X124798854Y-86097168D01*
X124649781Y-86537422D01*
X124300206Y-86621751D01*
X123667394Y-86425589D01*
X123560160Y-86383479D01*
X122375434Y-85658814D01*
X121374043Y-84557201D01*
X120630614Y-83197923D01*
X120219772Y-81700265D01*
X120162485Y-80952560D01*
X120312748Y-79193914D01*
X120813008Y-77736653D01*
X121594499Y-76597810D01*
X122835639Y-75506180D01*
X124197528Y-74895277D01*
X125639327Y-74773142D01*
X127120194Y-75147815D01*
X127120194Y-75147815D01*
G37*
X127120194Y-75147815D02*
X127653286Y-75404927D01*
X128430473Y-75854700D01*
X128800812Y-76172465D01*
X128817752Y-76441132D01*
X128534744Y-76743611D01*
X128522751Y-76753599D01*
X128211538Y-77188053D01*
X127846912Y-77939718D01*
X127497289Y-78832631D01*
X127231084Y-79690826D01*
X127116712Y-80338341D01*
X127116160Y-80371363D01*
X127116160Y-80914111D01*
X126544660Y-80380664D01*
X125653595Y-79778820D01*
X124804468Y-79681393D01*
X123987444Y-80087446D01*
X123934572Y-80131796D01*
X123329508Y-80921958D01*
X123207645Y-81781201D01*
X123566535Y-82629579D01*
X124025826Y-83112068D01*
X124492015Y-83553480D01*
X124732577Y-83998106D01*
X124820417Y-84637519D01*
X124830160Y-85225557D01*
X124798854Y-86097168D01*
X124649781Y-86537422D01*
X124300206Y-86621751D01*
X123667394Y-86425589D01*
X123560160Y-86383479D01*
X122375434Y-85658814D01*
X121374043Y-84557201D01*
X120630614Y-83197923D01*
X120219772Y-81700265D01*
X120162485Y-80952560D01*
X120312748Y-79193914D01*
X120813008Y-77736653D01*
X121594499Y-76597810D01*
X122835639Y-75506180D01*
X124197528Y-74895277D01*
X125639327Y-74773142D01*
X127120194Y-75147815D01*
G36*
X127210109Y-82840857D02*
X127478378Y-83484273D01*
X127648113Y-83928892D01*
X127966043Y-84760090D01*
X128211977Y-85392030D01*
X128330689Y-85683253D01*
X128169863Y-85859116D01*
X127687617Y-86114061D01*
X127048595Y-86379498D01*
X126417438Y-86586835D01*
X125968019Y-86667560D01*
X125756500Y-86552891D01*
X125639031Y-86146979D01*
X125594473Y-85356964D01*
X125592160Y-85016560D01*
X125626410Y-84175816D01*
X125716024Y-83581174D01*
X125836265Y-83365560D01*
X126173790Y-83196684D01*
X126561253Y-82849392D01*
X126823460Y-82594844D01*
X127015774Y-82568190D01*
X127210109Y-82840857D01*
X127210109Y-82840857D01*
G37*
X127210109Y-82840857D02*
X127478378Y-83484273D01*
X127648113Y-83928892D01*
X127966043Y-84760090D01*
X128211977Y-85392030D01*
X128330689Y-85683253D01*
X128169863Y-85859116D01*
X127687617Y-86114061D01*
X127048595Y-86379498D01*
X126417438Y-86586835D01*
X125968019Y-86667560D01*
X125756500Y-86552891D01*
X125639031Y-86146979D01*
X125594473Y-85356964D01*
X125592160Y-85016560D01*
X125626410Y-84175816D01*
X125716024Y-83581174D01*
X125836265Y-83365560D01*
X126173790Y-83196684D01*
X126561253Y-82849392D01*
X126823460Y-82594844D01*
X127015774Y-82568190D01*
X127210109Y-82840857D01*
D10*
X140316738Y-89085600D02*
G75*
G03X140316738Y-89085600I-1457738J0D01*
G01*
X123214738Y-88613200D02*
G75*
G03X123214738Y-88613200I-1457738J0D01*
G01*
X142104738Y-91600200D02*
G75*
G03X142104738Y-91600200I-1457738J0D01*
G01*
X143927738Y-94084400D02*
G75*
G03X143927738Y-94084400I-1457738J0D01*
G01*
X147715738Y-98976200D02*
G75*
G03X147715738Y-98976200I-1457738J0D01*
G01*
X117270738Y-99438700D02*
G75*
G03X117270738Y-99438700I-1457738J0D01*
G01*
X118921738Y-96802200D02*
G75*
G03X118921738Y-96802200I-1457738J0D01*
G01*
X151815738Y-103566000D02*
G75*
G03X151815738Y-103566000I-1457738J0D01*
G01*
X121847738Y-91371600D02*
G75*
G03X121847738Y-91371600I-1457738J0D01*
G01*
X120430738Y-94119900D02*
G75*
G03X120430738Y-94119900I-1457738J0D01*
G01*
X145761738Y-96571000D02*
G75*
G03X145761738Y-96571000I-1457738J0D01*
G01*
X115380738Y-101902000D02*
G75*
G03X115380738Y-101902000I-1457738J0D01*
G01*
D11*
G36*
X132686555Y-51127845D02*
X132910139Y-52231506D01*
X133112805Y-53329963D01*
X133168493Y-53662517D01*
X133303352Y-54341299D01*
X133521765Y-54817651D01*
X133934817Y-55192562D01*
X134653591Y-55567019D01*
X135783195Y-56039594D01*
X137582070Y-56767705D01*
X139851234Y-55204595D01*
X142120397Y-53641486D01*
X143908470Y-55413664D01*
X144704385Y-56227272D01*
X145318052Y-56901721D01*
X145657624Y-57333890D01*
X145696543Y-57421279D01*
X145553005Y-57747979D01*
X145168132Y-58428062D01*
X144610530Y-59343177D01*
X144279283Y-59866098D01*
X142862024Y-62075480D01*
X143621325Y-63872148D01*
X144038686Y-64818115D01*
X144400745Y-65565808D01*
X144627547Y-65951038D01*
X145002111Y-66124158D01*
X145791325Y-66345161D01*
X146851942Y-66576222D01*
X147331616Y-66665018D01*
X149788765Y-67096776D01*
X149949783Y-72539110D01*
X148317052Y-72855201D01*
X146876181Y-73131475D01*
X145877194Y-73349095D01*
X145212213Y-73577307D01*
X144773358Y-73885355D01*
X144452752Y-74342486D01*
X144142516Y-75017945D01*
X143844739Y-75725907D01*
X142929007Y-77871830D01*
X144345860Y-80017195D01*
X145762712Y-82162561D01*
X144629070Y-83511244D01*
X143591421Y-84701411D01*
X142822853Y-85470596D01*
X142271509Y-85862142D01*
X141885533Y-85919392D01*
X141796166Y-85879060D01*
X141612093Y-85627846D01*
X141669985Y-85150606D01*
X141940442Y-84410384D01*
X142341802Y-82871200D01*
X142450898Y-81102212D01*
X142272036Y-79345471D01*
X141824221Y-77874927D01*
X141212726Y-76534371D01*
X141808456Y-75193816D01*
X142182112Y-73973096D01*
X142432872Y-72369887D01*
X142552232Y-70554431D01*
X142531691Y-68696968D01*
X142362747Y-66967742D01*
X142250426Y-66343969D01*
X142051722Y-65291884D01*
X142001270Y-64619438D01*
X142098981Y-64161668D01*
X142249084Y-63890222D01*
X142509428Y-63096902D01*
X142266082Y-62414897D01*
X141578934Y-61986740D01*
X141434638Y-61951879D01*
X140721376Y-61739851D01*
X140463227Y-61392033D01*
X140592626Y-60762824D01*
X140726645Y-60426110D01*
X140954829Y-59346147D01*
X140752350Y-58426521D01*
X140217164Y-57750204D01*
X139447229Y-57400169D01*
X138540503Y-57459387D01*
X137736022Y-57892986D01*
X137037520Y-58241211D01*
X136374030Y-58265507D01*
X135919611Y-57988022D01*
X135818765Y-57649011D01*
X135606096Y-56968816D01*
X135093872Y-56587285D01*
X134470763Y-56557986D01*
X133925440Y-56934491D01*
X133830645Y-57084515D01*
X133674368Y-57646756D01*
X133964934Y-58168051D01*
X133996054Y-58202893D01*
X134283648Y-58758286D01*
X134266290Y-59292441D01*
X133964777Y-59589114D01*
X133861589Y-59601038D01*
X133501011Y-59457000D01*
X132813446Y-59077451D01*
X131940709Y-58541234D01*
X131847775Y-58481426D01*
X129312687Y-57105891D01*
X126782512Y-56248445D01*
X125792760Y-56057441D01*
X124396713Y-55848091D01*
X125263723Y-55437482D01*
X125675178Y-55207630D01*
X125964518Y-54901779D01*
X126185929Y-54398495D01*
X126393595Y-53576343D01*
X126630189Y-52375067D01*
X127129646Y-49723260D01*
X132385326Y-49723260D01*
X132686555Y-51127845D01*
X132686555Y-51127845D01*
G37*
X132686555Y-51127845D02*
X132910139Y-52231506D01*
X133112805Y-53329963D01*
X133168493Y-53662517D01*
X133303352Y-54341299D01*
X133521765Y-54817651D01*
X133934817Y-55192562D01*
X134653591Y-55567019D01*
X135783195Y-56039594D01*
X137582070Y-56767705D01*
X139851234Y-55204595D01*
X142120397Y-53641486D01*
X143908470Y-55413664D01*
X144704385Y-56227272D01*
X145318052Y-56901721D01*
X145657624Y-57333890D01*
X145696543Y-57421279D01*
X145553005Y-57747979D01*
X145168132Y-58428062D01*
X144610530Y-59343177D01*
X144279283Y-59866098D01*
X142862024Y-62075480D01*
X143621325Y-63872148D01*
X144038686Y-64818115D01*
X144400745Y-65565808D01*
X144627547Y-65951038D01*
X145002111Y-66124158D01*
X145791325Y-66345161D01*
X146851942Y-66576222D01*
X147331616Y-66665018D01*
X149788765Y-67096776D01*
X149949783Y-72539110D01*
X148317052Y-72855201D01*
X146876181Y-73131475D01*
X145877194Y-73349095D01*
X145212213Y-73577307D01*
X144773358Y-73885355D01*
X144452752Y-74342486D01*
X144142516Y-75017945D01*
X143844739Y-75725907D01*
X142929007Y-77871830D01*
X144345860Y-80017195D01*
X145762712Y-82162561D01*
X144629070Y-83511244D01*
X143591421Y-84701411D01*
X142822853Y-85470596D01*
X142271509Y-85862142D01*
X141885533Y-85919392D01*
X141796166Y-85879060D01*
X141612093Y-85627846D01*
X141669985Y-85150606D01*
X141940442Y-84410384D01*
X142341802Y-82871200D01*
X142450898Y-81102212D01*
X142272036Y-79345471D01*
X141824221Y-77874927D01*
X141212726Y-76534371D01*
X141808456Y-75193816D01*
X142182112Y-73973096D01*
X142432872Y-72369887D01*
X142552232Y-70554431D01*
X142531691Y-68696968D01*
X142362747Y-66967742D01*
X142250426Y-66343969D01*
X142051722Y-65291884D01*
X142001270Y-64619438D01*
X142098981Y-64161668D01*
X142249084Y-63890222D01*
X142509428Y-63096902D01*
X142266082Y-62414897D01*
X141578934Y-61986740D01*
X141434638Y-61951879D01*
X140721376Y-61739851D01*
X140463227Y-61392033D01*
X140592626Y-60762824D01*
X140726645Y-60426110D01*
X140954829Y-59346147D01*
X140752350Y-58426521D01*
X140217164Y-57750204D01*
X139447229Y-57400169D01*
X138540503Y-57459387D01*
X137736022Y-57892986D01*
X137037520Y-58241211D01*
X136374030Y-58265507D01*
X135919611Y-57988022D01*
X135818765Y-57649011D01*
X135606096Y-56968816D01*
X135093872Y-56587285D01*
X134470763Y-56557986D01*
X133925440Y-56934491D01*
X133830645Y-57084515D01*
X133674368Y-57646756D01*
X133964934Y-58168051D01*
X133996054Y-58202893D01*
X134283648Y-58758286D01*
X134266290Y-59292441D01*
X133964777Y-59589114D01*
X133861589Y-59601038D01*
X133501011Y-59457000D01*
X132813446Y-59077451D01*
X131940709Y-58541234D01*
X131847775Y-58481426D01*
X129312687Y-57105891D01*
X126782512Y-56248445D01*
X125792760Y-56057441D01*
X124396713Y-55848091D01*
X125263723Y-55437482D01*
X125675178Y-55207630D01*
X125964518Y-54901779D01*
X126185929Y-54398495D01*
X126393595Y-53576343D01*
X126630189Y-52375067D01*
X127129646Y-49723260D01*
X132385326Y-49723260D01*
X132686555Y-51127845D01*
G36*
X137878390Y-61152157D02*
X138627740Y-61475892D01*
X139293034Y-61576594D01*
X139802145Y-61610887D01*
X139997865Y-61819487D01*
X139967102Y-62360973D01*
X139911158Y-62704470D01*
X139826951Y-63452622D01*
X139972844Y-63886807D01*
X140448120Y-64242131D01*
X140596436Y-64327248D01*
X141201461Y-64815077D01*
X141637106Y-65543525D01*
X141924616Y-66591240D01*
X142085235Y-68036868D01*
X142140209Y-69959055D01*
X142140501Y-70043260D01*
X142097175Y-71865218D01*
X141945227Y-73272936D01*
X141668674Y-74408966D01*
X141642099Y-74488260D01*
X141333838Y-75297344D01*
X141069810Y-75830544D01*
X140946639Y-75958179D01*
X140643688Y-75779347D01*
X140077591Y-75335361D01*
X139682366Y-74996392D01*
X139084623Y-74442322D01*
X138781206Y-73998336D01*
X138699378Y-73453089D01*
X138766406Y-72595235D01*
X138787978Y-72397584D01*
X138792156Y-70394899D01*
X138428672Y-68184625D01*
X137738595Y-65948450D01*
X136927224Y-64165479D01*
X136413303Y-63159905D01*
X136025932Y-62312675D01*
X135830316Y-61769465D01*
X135818765Y-61689049D01*
X136057931Y-61233970D01*
X136635025Y-60966863D01*
X137339444Y-60942627D01*
X137878390Y-61152157D01*
X137878390Y-61152157D01*
G37*
X137878390Y-61152157D02*
X138627740Y-61475892D01*
X139293034Y-61576594D01*
X139802145Y-61610887D01*
X139997865Y-61819487D01*
X139967102Y-62360973D01*
X139911158Y-62704470D01*
X139826951Y-63452622D01*
X139972844Y-63886807D01*
X140448120Y-64242131D01*
X140596436Y-64327248D01*
X141201461Y-64815077D01*
X141637106Y-65543525D01*
X141924616Y-66591240D01*
X142085235Y-68036868D01*
X142140209Y-69959055D01*
X142140501Y-70043260D01*
X142097175Y-71865218D01*
X141945227Y-73272936D01*
X141668674Y-74408966D01*
X141642099Y-74488260D01*
X141333838Y-75297344D01*
X141069810Y-75830544D01*
X140946639Y-75958179D01*
X140643688Y-75779347D01*
X140077591Y-75335361D01*
X139682366Y-74996392D01*
X139084623Y-74442322D01*
X138781206Y-73998336D01*
X138699378Y-73453089D01*
X138766406Y-72595235D01*
X138787978Y-72397584D01*
X138792156Y-70394899D01*
X138428672Y-68184625D01*
X137738595Y-65948450D01*
X136927224Y-64165479D01*
X136413303Y-63159905D01*
X136025932Y-62312675D01*
X135830316Y-61769465D01*
X135818765Y-61689049D01*
X136057931Y-61233970D01*
X136635025Y-60966863D01*
X137339444Y-60942627D01*
X137878390Y-61152157D01*
G36*
X136378569Y-58614454D02*
X136836712Y-59047491D01*
X136899697Y-59772772D01*
X136620431Y-60446002D01*
X136082339Y-60690885D01*
X135435564Y-60468100D01*
X135168193Y-60226239D01*
X134790788Y-59571799D01*
X134689876Y-59084927D01*
X134816657Y-58628000D01*
X135298411Y-58479574D01*
X135465987Y-58476471D01*
X136378569Y-58614454D01*
X136378569Y-58614454D01*
G37*
X136378569Y-58614454D02*
X136836712Y-59047491D01*
X136899697Y-59772772D01*
X136620431Y-60446002D01*
X136082339Y-60690885D01*
X135435564Y-60468100D01*
X135168193Y-60226239D01*
X134790788Y-59571799D01*
X134689876Y-59084927D01*
X134816657Y-58628000D01*
X135298411Y-58479574D01*
X135465987Y-58476471D01*
X136378569Y-58614454D01*
G36*
X128266600Y-91393484D02*
X128311589Y-91480860D01*
X128862539Y-92122464D01*
X129540757Y-92241613D01*
X130246929Y-91832819D01*
X130455019Y-91599272D01*
X130845973Y-91167900D01*
X131045454Y-91076178D01*
X131052031Y-91107361D01*
X130831841Y-91592564D01*
X130313257Y-92126719D01*
X129709260Y-92519835D01*
X129367862Y-92609748D01*
X128738616Y-92418496D01*
X128391078Y-92166256D01*
X128030491Y-91602478D01*
X127951747Y-91249034D01*
X128030542Y-91056402D01*
X128266600Y-91393484D01*
X128266600Y-91393484D01*
G37*
X128266600Y-91393484D02*
X128311589Y-91480860D01*
X128862539Y-92122464D01*
X129540757Y-92241613D01*
X130246929Y-91832819D01*
X130455019Y-91599272D01*
X130845973Y-91167900D01*
X131045454Y-91076178D01*
X131052031Y-91107361D01*
X130831841Y-91592564D01*
X130313257Y-92126719D01*
X129709260Y-92519835D01*
X129367862Y-92609748D01*
X128738616Y-92418496D01*
X128391078Y-92166256D01*
X128030491Y-91602478D01*
X127951747Y-91249034D01*
X128030542Y-91056402D01*
X128266600Y-91393484D01*
D10*
X143733000Y-70640200D02*
X143733000Y-68862200D01*
X148813000Y-72291200D02*
X143733000Y-72291200D01*
X143733000Y-67211200D02*
X148686000Y-67211200D01*
X148813000Y-70640200D02*
X148813000Y-68862200D01*
D12*
X142673000Y-68751200D02*
X142673000Y-67251200D01*
X138397309Y-59991978D02*
X137336649Y-58931317D01*
D10*
X144074669Y-56986067D02*
X142817433Y-55728831D01*
X138057898Y-58153500D02*
X141560197Y-54651200D01*
X145242102Y-58153500D02*
X141650000Y-61745602D01*
X140482567Y-60578169D02*
X139225331Y-59320933D01*
X130921000Y-56014800D02*
X129143000Y-56014800D01*
X132572000Y-50934800D02*
X132572000Y-56014800D01*
X127492000Y-56014800D02*
X127492000Y-51061800D01*
X130921000Y-50934800D02*
X129143000Y-50934800D01*
D12*
X129032000Y-57074800D02*
X127532000Y-57074800D01*
X120018478Y-61548491D02*
X118957817Y-62609151D01*
D10*
X117012567Y-55871131D02*
X115755331Y-57128367D01*
X118180000Y-61887902D02*
X114677700Y-58385603D01*
X118180000Y-54703698D02*
X121772102Y-58295800D01*
X120604669Y-59463233D02*
X119347433Y-60720469D01*
X115925000Y-68867200D02*
X115925000Y-70645200D01*
X110845000Y-67216200D02*
X115925000Y-67216200D01*
X115925000Y-72296200D02*
X110972000Y-72296200D01*
X110845000Y-68867200D02*
X110845000Y-70645200D01*
D12*
X116985000Y-70756200D02*
X116985000Y-72256200D01*
D10*
X119445738Y-83956200D02*
G75*
G03X119445738Y-83956200I-1457738J0D01*
G01*
X117255738Y-81836200D02*
G75*
G03X117255738Y-81836200I-1457738J0D01*
G01*
D13*
X127396000Y-101731000D02*
X127396000Y-101831000D01*
X122996000Y-103331000D02*
X127396000Y-103331000D01*
X127396000Y-100231000D02*
X122996000Y-100231000D01*
X122996000Y-101731000D02*
X122996000Y-101831000D01*
X139293960Y-101743980D02*
X139293960Y-101643980D01*
X134893960Y-103243980D02*
X139293960Y-103243980D01*
X139293960Y-100143980D02*
X134893960Y-100143980D01*
X134893960Y-101743980D02*
X134893960Y-101643980D01*
X128630040Y-100821120D02*
X128630040Y-102521120D01*
X128680040Y-102521120D02*
X132730040Y-102521120D01*
X128680040Y-100821120D02*
X132730040Y-100821120D01*
M02*
