G04 #@! TF.GenerationSoftware,KiCad,Pcbnew,no-vcs-found-077fb3c~59~ubuntu16.04.1*
G04 #@! TF.CreationDate,2017-08-19T10:31:39-06:00*
G04 #@! TF.ProjectId,001,3030312E6B696361645F706362000000,rev?*
G04 #@! TF.SameCoordinates,Original*
G04 #@! TF.FileFunction,Soldermask,Bot*
G04 #@! TF.FilePolarity,Negative*
%FSLAX46Y46*%
G04 Gerber Fmt 4.6, Leading zero omitted, Abs format (unit mm)*
G04 Created by KiCad (PCBNEW no-vcs-found-077fb3c~59~ubuntu16.04.1) date Sat Aug 19 10:31:39 2017*
%MOMM*%
%LPD*%
G01*
G04 APERTURE LIST*
%ADD10C,0.010000*%
%ADD11C,0.100000*%
G04 APERTURE END LIST*
D10*
G36*
X121393574Y-104379275D02*
X121352957Y-104385993D01*
X121316039Y-104397411D01*
X121282358Y-104413702D01*
X121251451Y-104435039D01*
X121228423Y-104455847D01*
X121214791Y-104470234D01*
X121204491Y-104483019D01*
X121195848Y-104496508D01*
X121187826Y-104511712D01*
X121182221Y-104523264D01*
X121177442Y-104533928D01*
X121173425Y-104544311D01*
X121170102Y-104555021D01*
X121167407Y-104566665D01*
X121165276Y-104579850D01*
X121163642Y-104595183D01*
X121162439Y-104613273D01*
X121161601Y-104634727D01*
X121161062Y-104660151D01*
X121160757Y-104690154D01*
X121160618Y-104725342D01*
X121160582Y-104762683D01*
X121160540Y-104923404D01*
X121140697Y-104925629D01*
X121115847Y-104930480D01*
X121096146Y-104938983D01*
X121081438Y-104951299D01*
X121071565Y-104967591D01*
X121066371Y-104988021D01*
X121065430Y-105003600D01*
X121067121Y-105025333D01*
X121072442Y-105042602D01*
X121081768Y-105056393D01*
X121087447Y-105061792D01*
X121093316Y-105066670D01*
X121098661Y-105070663D01*
X121104165Y-105073859D01*
X121110509Y-105076348D01*
X121118377Y-105078217D01*
X121128450Y-105079555D01*
X121141412Y-105080451D01*
X121157944Y-105080994D01*
X121178728Y-105081271D01*
X121204448Y-105081373D01*
X121235785Y-105081387D01*
X121355803Y-105081387D01*
X121374853Y-105071862D01*
X121391758Y-105061445D01*
X121403316Y-105049211D01*
X121410343Y-105033909D01*
X121413657Y-105014287D01*
X121413807Y-105012167D01*
X121413358Y-104987919D01*
X121408447Y-104968016D01*
X121398833Y-104952166D01*
X121384274Y-104940077D01*
X121364530Y-104931459D01*
X121342996Y-104926565D01*
X121319290Y-104922793D01*
X121319290Y-104778126D01*
X121319324Y-104740845D01*
X121319460Y-104709325D01*
X121319756Y-104682977D01*
X121320266Y-104661212D01*
X121321047Y-104643442D01*
X121322154Y-104629078D01*
X121323642Y-104617530D01*
X121325567Y-104608211D01*
X121327985Y-104600530D01*
X121330951Y-104593900D01*
X121334521Y-104587731D01*
X121337726Y-104582912D01*
X121350322Y-104569059D01*
X121367376Y-104556609D01*
X121386997Y-104546844D01*
X121395097Y-104543991D01*
X121405082Y-104541510D01*
X121417010Y-104539849D01*
X121432215Y-104538892D01*
X121452027Y-104538526D01*
X121458990Y-104538514D01*
X121477784Y-104538638D01*
X121491774Y-104539087D01*
X121502505Y-104540047D01*
X121511524Y-104541706D01*
X121520374Y-104544250D01*
X121527812Y-104546845D01*
X121552473Y-104557944D01*
X121577835Y-104573711D01*
X121604555Y-104594589D01*
X121623574Y-104611686D01*
X121652665Y-104639071D01*
X121652665Y-104924225D01*
X121640549Y-104924225D01*
X121625241Y-104925277D01*
X121608333Y-104928073D01*
X121592437Y-104932065D01*
X121580162Y-104936710D01*
X121579741Y-104936923D01*
X121562701Y-104948773D01*
X121550735Y-104964263D01*
X121543742Y-104983580D01*
X121541610Y-105005879D01*
X121543594Y-105027596D01*
X121549757Y-105044981D01*
X121560653Y-105058916D01*
X121576835Y-105070280D01*
X121584443Y-105074088D01*
X121588519Y-105075902D01*
X121592554Y-105077391D01*
X121597194Y-105078591D01*
X121603089Y-105079538D01*
X121610888Y-105080266D01*
X121621238Y-105080813D01*
X121634788Y-105081213D01*
X121652188Y-105081502D01*
X121674084Y-105081716D01*
X121701127Y-105081891D01*
X121728865Y-105082037D01*
X121763552Y-105082160D01*
X121792394Y-105082139D01*
X121815897Y-105081961D01*
X121834567Y-105081615D01*
X121848907Y-105081088D01*
X121859424Y-105080367D01*
X121866621Y-105079441D01*
X121870153Y-105078602D01*
X121891421Y-105069832D01*
X121907092Y-105058643D01*
X121917683Y-105044328D01*
X121923711Y-105026180D01*
X121925695Y-105003492D01*
X121925698Y-105002704D01*
X121923000Y-104980591D01*
X121914985Y-104961737D01*
X121901843Y-104946468D01*
X121887515Y-104936923D01*
X121875462Y-104932262D01*
X121859670Y-104928229D01*
X121842752Y-104925369D01*
X121827318Y-104924227D01*
X121826707Y-104924225D01*
X121814590Y-104924225D01*
X121814590Y-104557217D01*
X121836976Y-104553378D01*
X121850367Y-104550478D01*
X121863112Y-104546716D01*
X121871594Y-104543299D01*
X121887904Y-104531620D01*
X121899843Y-104515929D01*
X121907100Y-104497096D01*
X121909364Y-104475991D01*
X121906326Y-104453483D01*
X121905165Y-104449258D01*
X121896842Y-104431920D01*
X121882993Y-104417516D01*
X121863803Y-104406068D01*
X121859090Y-104404006D01*
X121854392Y-104402362D01*
X121848934Y-104401081D01*
X121841941Y-104400105D01*
X121832640Y-104399379D01*
X121820256Y-104398844D01*
X121804016Y-104398446D01*
X121783143Y-104398126D01*
X121756866Y-104397829D01*
X121750297Y-104397761D01*
X121652665Y-104396761D01*
X121652665Y-104467187D01*
X121632753Y-104450295D01*
X121612646Y-104433985D01*
X121594345Y-104420997D01*
X121575546Y-104409814D01*
X121556652Y-104400208D01*
X121535309Y-104391003D01*
X121514458Y-104384417D01*
X121492419Y-104380120D01*
X121467510Y-104377784D01*
X121438353Y-104377082D01*
X121393574Y-104379275D01*
X121393574Y-104379275D01*
G37*
X121393574Y-104379275D02*
X121352957Y-104385993D01*
X121316039Y-104397411D01*
X121282358Y-104413702D01*
X121251451Y-104435039D01*
X121228423Y-104455847D01*
X121214791Y-104470234D01*
X121204491Y-104483019D01*
X121195848Y-104496508D01*
X121187826Y-104511712D01*
X121182221Y-104523264D01*
X121177442Y-104533928D01*
X121173425Y-104544311D01*
X121170102Y-104555021D01*
X121167407Y-104566665D01*
X121165276Y-104579850D01*
X121163642Y-104595183D01*
X121162439Y-104613273D01*
X121161601Y-104634727D01*
X121161062Y-104660151D01*
X121160757Y-104690154D01*
X121160618Y-104725342D01*
X121160582Y-104762683D01*
X121160540Y-104923404D01*
X121140697Y-104925629D01*
X121115847Y-104930480D01*
X121096146Y-104938983D01*
X121081438Y-104951299D01*
X121071565Y-104967591D01*
X121066371Y-104988021D01*
X121065430Y-105003600D01*
X121067121Y-105025333D01*
X121072442Y-105042602D01*
X121081768Y-105056393D01*
X121087447Y-105061792D01*
X121093316Y-105066670D01*
X121098661Y-105070663D01*
X121104165Y-105073859D01*
X121110509Y-105076348D01*
X121118377Y-105078217D01*
X121128450Y-105079555D01*
X121141412Y-105080451D01*
X121157944Y-105080994D01*
X121178728Y-105081271D01*
X121204448Y-105081373D01*
X121235785Y-105081387D01*
X121355803Y-105081387D01*
X121374853Y-105071862D01*
X121391758Y-105061445D01*
X121403316Y-105049211D01*
X121410343Y-105033909D01*
X121413657Y-105014287D01*
X121413807Y-105012167D01*
X121413358Y-104987919D01*
X121408447Y-104968016D01*
X121398833Y-104952166D01*
X121384274Y-104940077D01*
X121364530Y-104931459D01*
X121342996Y-104926565D01*
X121319290Y-104922793D01*
X121319290Y-104778126D01*
X121319324Y-104740845D01*
X121319460Y-104709325D01*
X121319756Y-104682977D01*
X121320266Y-104661212D01*
X121321047Y-104643442D01*
X121322154Y-104629078D01*
X121323642Y-104617530D01*
X121325567Y-104608211D01*
X121327985Y-104600530D01*
X121330951Y-104593900D01*
X121334521Y-104587731D01*
X121337726Y-104582912D01*
X121350322Y-104569059D01*
X121367376Y-104556609D01*
X121386997Y-104546844D01*
X121395097Y-104543991D01*
X121405082Y-104541510D01*
X121417010Y-104539849D01*
X121432215Y-104538892D01*
X121452027Y-104538526D01*
X121458990Y-104538514D01*
X121477784Y-104538638D01*
X121491774Y-104539087D01*
X121502505Y-104540047D01*
X121511524Y-104541706D01*
X121520374Y-104544250D01*
X121527812Y-104546845D01*
X121552473Y-104557944D01*
X121577835Y-104573711D01*
X121604555Y-104594589D01*
X121623574Y-104611686D01*
X121652665Y-104639071D01*
X121652665Y-104924225D01*
X121640549Y-104924225D01*
X121625241Y-104925277D01*
X121608333Y-104928073D01*
X121592437Y-104932065D01*
X121580162Y-104936710D01*
X121579741Y-104936923D01*
X121562701Y-104948773D01*
X121550735Y-104964263D01*
X121543742Y-104983580D01*
X121541610Y-105005879D01*
X121543594Y-105027596D01*
X121549757Y-105044981D01*
X121560653Y-105058916D01*
X121576835Y-105070280D01*
X121584443Y-105074088D01*
X121588519Y-105075902D01*
X121592554Y-105077391D01*
X121597194Y-105078591D01*
X121603089Y-105079538D01*
X121610888Y-105080266D01*
X121621238Y-105080813D01*
X121634788Y-105081213D01*
X121652188Y-105081502D01*
X121674084Y-105081716D01*
X121701127Y-105081891D01*
X121728865Y-105082037D01*
X121763552Y-105082160D01*
X121792394Y-105082139D01*
X121815897Y-105081961D01*
X121834567Y-105081615D01*
X121848907Y-105081088D01*
X121859424Y-105080367D01*
X121866621Y-105079441D01*
X121870153Y-105078602D01*
X121891421Y-105069832D01*
X121907092Y-105058643D01*
X121917683Y-105044328D01*
X121923711Y-105026180D01*
X121925695Y-105003492D01*
X121925698Y-105002704D01*
X121923000Y-104980591D01*
X121914985Y-104961737D01*
X121901843Y-104946468D01*
X121887515Y-104936923D01*
X121875462Y-104932262D01*
X121859670Y-104928229D01*
X121842752Y-104925369D01*
X121827318Y-104924227D01*
X121826707Y-104924225D01*
X121814590Y-104924225D01*
X121814590Y-104557217D01*
X121836976Y-104553378D01*
X121850367Y-104550478D01*
X121863112Y-104546716D01*
X121871594Y-104543299D01*
X121887904Y-104531620D01*
X121899843Y-104515929D01*
X121907100Y-104497096D01*
X121909364Y-104475991D01*
X121906326Y-104453483D01*
X121905165Y-104449258D01*
X121896842Y-104431920D01*
X121882993Y-104417516D01*
X121863803Y-104406068D01*
X121859090Y-104404006D01*
X121854392Y-104402362D01*
X121848934Y-104401081D01*
X121841941Y-104400105D01*
X121832640Y-104399379D01*
X121820256Y-104398844D01*
X121804016Y-104398446D01*
X121783143Y-104398126D01*
X121756866Y-104397829D01*
X121750297Y-104397761D01*
X121652665Y-104396761D01*
X121652665Y-104467187D01*
X121632753Y-104450295D01*
X121612646Y-104433985D01*
X121594345Y-104420997D01*
X121575546Y-104409814D01*
X121556652Y-104400208D01*
X121535309Y-104391003D01*
X121514458Y-104384417D01*
X121492419Y-104380120D01*
X121467510Y-104377784D01*
X121438353Y-104377082D01*
X121393574Y-104379275D01*
G36*
X124351646Y-104168937D02*
X124325976Y-104169204D01*
X124304055Y-104169647D01*
X124285365Y-104170290D01*
X124269385Y-104171158D01*
X124255595Y-104172274D01*
X124243476Y-104173662D01*
X124232507Y-104175347D01*
X124222168Y-104177353D01*
X124211940Y-104179703D01*
X124201303Y-104182422D01*
X124198179Y-104183254D01*
X124158632Y-104196576D01*
X124121376Y-104214522D01*
X124087101Y-104236544D01*
X124056497Y-104262096D01*
X124030253Y-104290629D01*
X124009060Y-104321597D01*
X123999029Y-104341176D01*
X123987160Y-104374461D01*
X123979873Y-104410428D01*
X123977441Y-104447090D01*
X123979787Y-104480121D01*
X123987827Y-104515701D01*
X124001378Y-104549000D01*
X124020674Y-104580447D01*
X124045948Y-104610475D01*
X124056126Y-104620610D01*
X124066805Y-104630189D01*
X124079672Y-104640774D01*
X124093665Y-104651603D01*
X124107724Y-104661912D01*
X124120790Y-104670937D01*
X124131801Y-104677916D01*
X124139697Y-104682084D01*
X124142675Y-104682925D01*
X124141822Y-104684986D01*
X124137132Y-104690619D01*
X124129347Y-104698996D01*
X124119210Y-104709288D01*
X124117721Y-104710759D01*
X124073798Y-104757091D01*
X124031020Y-104808170D01*
X123990683Y-104862392D01*
X123968815Y-104894806D01*
X123949778Y-104924125D01*
X123930728Y-104924230D01*
X123909972Y-104925596D01*
X123889479Y-104929167D01*
X123871133Y-104934490D01*
X123856819Y-104941110D01*
X123854528Y-104942604D01*
X123840423Y-104955528D01*
X123831269Y-104971423D01*
X123826718Y-104991041D01*
X123826049Y-105003600D01*
X123828142Y-105026729D01*
X123834797Y-105045549D01*
X123846275Y-105060417D01*
X123862834Y-105071692D01*
X123880124Y-105078430D01*
X123887057Y-105079975D01*
X123896791Y-105081160D01*
X123910049Y-105082017D01*
X123927550Y-105082583D01*
X123950018Y-105082890D01*
X123975504Y-105082975D01*
X124055783Y-105082975D01*
X124073610Y-105051211D01*
X124092142Y-105019770D01*
X124112924Y-104987281D01*
X124135442Y-104954370D01*
X124159180Y-104921666D01*
X124183625Y-104889794D01*
X124208262Y-104859381D01*
X124232576Y-104831053D01*
X124256053Y-104805439D01*
X124278178Y-104783163D01*
X124298438Y-104764853D01*
X124316317Y-104751135D01*
X124323874Y-104746381D01*
X124340303Y-104736959D01*
X124415709Y-104736929D01*
X124491115Y-104736900D01*
X124491115Y-104924225D01*
X124455397Y-104924280D01*
X124424214Y-104925451D01*
X124398473Y-104928988D01*
X124377648Y-104935081D01*
X124361216Y-104943923D01*
X124348652Y-104955703D01*
X124341965Y-104965640D01*
X124337542Y-104974976D01*
X124335121Y-104984513D01*
X124334184Y-104996757D01*
X124334107Y-105003600D01*
X124336234Y-105026586D01*
X124342705Y-105045152D01*
X124353668Y-105059644D01*
X124360743Y-105065375D01*
X124366449Y-105069217D01*
X124371942Y-105072455D01*
X124377797Y-105075140D01*
X124384590Y-105077324D01*
X124392897Y-105079057D01*
X124403294Y-105080391D01*
X124416356Y-105081377D01*
X124432659Y-105082067D01*
X124452779Y-105082510D01*
X124477292Y-105082760D01*
X124506772Y-105082866D01*
X124541796Y-105082880D01*
X124557501Y-105082871D01*
X124593151Y-105082831D01*
X124623034Y-105082750D01*
X124647736Y-105082608D01*
X124667840Y-105082385D01*
X124683930Y-105082060D01*
X124696591Y-105081614D01*
X124706407Y-105081025D01*
X124713962Y-105080275D01*
X124719839Y-105079343D01*
X124724624Y-105078209D01*
X124728556Y-105076972D01*
X124748124Y-105067268D01*
X124762934Y-105053498D01*
X124772810Y-105035993D01*
X124777575Y-105015083D01*
X124777054Y-104991099D01*
X124776479Y-104987072D01*
X124770474Y-104967681D01*
X124759235Y-104951727D01*
X124742929Y-104939311D01*
X124721725Y-104930533D01*
X124695792Y-104925495D01*
X124671507Y-104924225D01*
X124653040Y-104924225D01*
X124653040Y-104578150D01*
X124491115Y-104578150D01*
X124441109Y-104578122D01*
X124419175Y-104577883D01*
X124394979Y-104577252D01*
X124371257Y-104576319D01*
X124350744Y-104575177D01*
X124348147Y-104574996D01*
X124314366Y-104571583D01*
X124285105Y-104566359D01*
X124258696Y-104558925D01*
X124233467Y-104548885D01*
X124228219Y-104546434D01*
X124206390Y-104534024D01*
X124186536Y-104518976D01*
X124169963Y-104502461D01*
X124157976Y-104485653D01*
X124155739Y-104481312D01*
X124150279Y-104464176D01*
X124148129Y-104444661D01*
X124149343Y-104425300D01*
X124153973Y-104408627D01*
X124154218Y-104408079D01*
X124166498Y-104388341D01*
X124184311Y-104370348D01*
X124206954Y-104354647D01*
X124233727Y-104341783D01*
X124244804Y-104337762D01*
X124251749Y-104335487D01*
X124258016Y-104333649D01*
X124264371Y-104332193D01*
X124271583Y-104331064D01*
X124280420Y-104330206D01*
X124291649Y-104329566D01*
X124306037Y-104329087D01*
X124324354Y-104328716D01*
X124347366Y-104328396D01*
X124375841Y-104328074D01*
X124380784Y-104328020D01*
X124491115Y-104326822D01*
X124491115Y-104578150D01*
X124653040Y-104578150D01*
X124653040Y-104328248D01*
X124683997Y-104326446D01*
X124712187Y-104323202D01*
X124734948Y-104316925D01*
X124752548Y-104307387D01*
X124765255Y-104294358D01*
X124773338Y-104277609D01*
X124777065Y-104256912D01*
X124777395Y-104246728D01*
X124775748Y-104224627D01*
X124770645Y-104207237D01*
X124761555Y-104193636D01*
X124747948Y-104182897D01*
X124737659Y-104177562D01*
X124721303Y-104170162D01*
X124502228Y-104169145D01*
X124456358Y-104168950D01*
X124416317Y-104168834D01*
X124381587Y-104168822D01*
X124351646Y-104168937D01*
X124351646Y-104168937D01*
G37*
X124351646Y-104168937D02*
X124325976Y-104169204D01*
X124304055Y-104169647D01*
X124285365Y-104170290D01*
X124269385Y-104171158D01*
X124255595Y-104172274D01*
X124243476Y-104173662D01*
X124232507Y-104175347D01*
X124222168Y-104177353D01*
X124211940Y-104179703D01*
X124201303Y-104182422D01*
X124198179Y-104183254D01*
X124158632Y-104196576D01*
X124121376Y-104214522D01*
X124087101Y-104236544D01*
X124056497Y-104262096D01*
X124030253Y-104290629D01*
X124009060Y-104321597D01*
X123999029Y-104341176D01*
X123987160Y-104374461D01*
X123979873Y-104410428D01*
X123977441Y-104447090D01*
X123979787Y-104480121D01*
X123987827Y-104515701D01*
X124001378Y-104549000D01*
X124020674Y-104580447D01*
X124045948Y-104610475D01*
X124056126Y-104620610D01*
X124066805Y-104630189D01*
X124079672Y-104640774D01*
X124093665Y-104651603D01*
X124107724Y-104661912D01*
X124120790Y-104670937D01*
X124131801Y-104677916D01*
X124139697Y-104682084D01*
X124142675Y-104682925D01*
X124141822Y-104684986D01*
X124137132Y-104690619D01*
X124129347Y-104698996D01*
X124119210Y-104709288D01*
X124117721Y-104710759D01*
X124073798Y-104757091D01*
X124031020Y-104808170D01*
X123990683Y-104862392D01*
X123968815Y-104894806D01*
X123949778Y-104924125D01*
X123930728Y-104924230D01*
X123909972Y-104925596D01*
X123889479Y-104929167D01*
X123871133Y-104934490D01*
X123856819Y-104941110D01*
X123854528Y-104942604D01*
X123840423Y-104955528D01*
X123831269Y-104971423D01*
X123826718Y-104991041D01*
X123826049Y-105003600D01*
X123828142Y-105026729D01*
X123834797Y-105045549D01*
X123846275Y-105060417D01*
X123862834Y-105071692D01*
X123880124Y-105078430D01*
X123887057Y-105079975D01*
X123896791Y-105081160D01*
X123910049Y-105082017D01*
X123927550Y-105082583D01*
X123950018Y-105082890D01*
X123975504Y-105082975D01*
X124055783Y-105082975D01*
X124073610Y-105051211D01*
X124092142Y-105019770D01*
X124112924Y-104987281D01*
X124135442Y-104954370D01*
X124159180Y-104921666D01*
X124183625Y-104889794D01*
X124208262Y-104859381D01*
X124232576Y-104831053D01*
X124256053Y-104805439D01*
X124278178Y-104783163D01*
X124298438Y-104764853D01*
X124316317Y-104751135D01*
X124323874Y-104746381D01*
X124340303Y-104736959D01*
X124415709Y-104736929D01*
X124491115Y-104736900D01*
X124491115Y-104924225D01*
X124455397Y-104924280D01*
X124424214Y-104925451D01*
X124398473Y-104928988D01*
X124377648Y-104935081D01*
X124361216Y-104943923D01*
X124348652Y-104955703D01*
X124341965Y-104965640D01*
X124337542Y-104974976D01*
X124335121Y-104984513D01*
X124334184Y-104996757D01*
X124334107Y-105003600D01*
X124336234Y-105026586D01*
X124342705Y-105045152D01*
X124353668Y-105059644D01*
X124360743Y-105065375D01*
X124366449Y-105069217D01*
X124371942Y-105072455D01*
X124377797Y-105075140D01*
X124384590Y-105077324D01*
X124392897Y-105079057D01*
X124403294Y-105080391D01*
X124416356Y-105081377D01*
X124432659Y-105082067D01*
X124452779Y-105082510D01*
X124477292Y-105082760D01*
X124506772Y-105082866D01*
X124541796Y-105082880D01*
X124557501Y-105082871D01*
X124593151Y-105082831D01*
X124623034Y-105082750D01*
X124647736Y-105082608D01*
X124667840Y-105082385D01*
X124683930Y-105082060D01*
X124696591Y-105081614D01*
X124706407Y-105081025D01*
X124713962Y-105080275D01*
X124719839Y-105079343D01*
X124724624Y-105078209D01*
X124728556Y-105076972D01*
X124748124Y-105067268D01*
X124762934Y-105053498D01*
X124772810Y-105035993D01*
X124777575Y-105015083D01*
X124777054Y-104991099D01*
X124776479Y-104987072D01*
X124770474Y-104967681D01*
X124759235Y-104951727D01*
X124742929Y-104939311D01*
X124721725Y-104930533D01*
X124695792Y-104925495D01*
X124671507Y-104924225D01*
X124653040Y-104924225D01*
X124653040Y-104578150D01*
X124491115Y-104578150D01*
X124441109Y-104578122D01*
X124419175Y-104577883D01*
X124394979Y-104577252D01*
X124371257Y-104576319D01*
X124350744Y-104575177D01*
X124348147Y-104574996D01*
X124314366Y-104571583D01*
X124285105Y-104566359D01*
X124258696Y-104558925D01*
X124233467Y-104548885D01*
X124228219Y-104546434D01*
X124206390Y-104534024D01*
X124186536Y-104518976D01*
X124169963Y-104502461D01*
X124157976Y-104485653D01*
X124155739Y-104481312D01*
X124150279Y-104464176D01*
X124148129Y-104444661D01*
X124149343Y-104425300D01*
X124153973Y-104408627D01*
X124154218Y-104408079D01*
X124166498Y-104388341D01*
X124184311Y-104370348D01*
X124206954Y-104354647D01*
X124233727Y-104341783D01*
X124244804Y-104337762D01*
X124251749Y-104335487D01*
X124258016Y-104333649D01*
X124264371Y-104332193D01*
X124271583Y-104331064D01*
X124280420Y-104330206D01*
X124291649Y-104329566D01*
X124306037Y-104329087D01*
X124324354Y-104328716D01*
X124347366Y-104328396D01*
X124375841Y-104328074D01*
X124380784Y-104328020D01*
X124491115Y-104326822D01*
X124491115Y-104578150D01*
X124653040Y-104578150D01*
X124653040Y-104328248D01*
X124683997Y-104326446D01*
X124712187Y-104323202D01*
X124734948Y-104316925D01*
X124752548Y-104307387D01*
X124765255Y-104294358D01*
X124773338Y-104277609D01*
X124777065Y-104256912D01*
X124777395Y-104246728D01*
X124775748Y-104224627D01*
X124770645Y-104207237D01*
X124761555Y-104193636D01*
X124747948Y-104182897D01*
X124737659Y-104177562D01*
X124721303Y-104170162D01*
X124502228Y-104169145D01*
X124456358Y-104168950D01*
X124416317Y-104168834D01*
X124381587Y-104168822D01*
X124351646Y-104168937D01*
G36*
X124910333Y-104148005D02*
X124894046Y-104153738D01*
X124884559Y-104159968D01*
X124877183Y-104168261D01*
X124870528Y-104179696D01*
X124861003Y-104198267D01*
X124860012Y-104302580D01*
X124859775Y-104332419D01*
X124859704Y-104356632D01*
X124859822Y-104375942D01*
X124860152Y-104391070D01*
X124860718Y-104402740D01*
X124861543Y-104411674D01*
X124862650Y-104418595D01*
X124863897Y-104423664D01*
X124871855Y-104444073D01*
X124882628Y-104459117D01*
X124896828Y-104469246D01*
X124915070Y-104474905D01*
X124936390Y-104476550D01*
X124950282Y-104475971D01*
X124962803Y-104474437D01*
X124971505Y-104472251D01*
X124971674Y-104472181D01*
X124982797Y-104465443D01*
X124992597Y-104454774D01*
X125001418Y-104439573D01*
X125009607Y-104419241D01*
X125017511Y-104393178D01*
X125017756Y-104392268D01*
X125025578Y-104374999D01*
X125038990Y-104359173D01*
X125057355Y-104344990D01*
X125080035Y-104332652D01*
X125106392Y-104322361D01*
X125135790Y-104314317D01*
X125167591Y-104308722D01*
X125201157Y-104305777D01*
X125235850Y-104305684D01*
X125271035Y-104308643D01*
X125279074Y-104309768D01*
X125320875Y-104318955D01*
X125359367Y-104333250D01*
X125394232Y-104352356D01*
X125425152Y-104375977D01*
X125451808Y-104403817D01*
X125473882Y-104435577D01*
X125491056Y-104470963D01*
X125503012Y-104509676D01*
X125505284Y-104520556D01*
X125507067Y-104533860D01*
X125508493Y-104552198D01*
X125509560Y-104574428D01*
X125510269Y-104599409D01*
X125510620Y-104626000D01*
X125510612Y-104653059D01*
X125510247Y-104679445D01*
X125509524Y-104704016D01*
X125508443Y-104725631D01*
X125507003Y-104743149D01*
X125505276Y-104755092D01*
X125494782Y-104792909D01*
X125479766Y-104826443D01*
X125460157Y-104855755D01*
X125435882Y-104880902D01*
X125406870Y-104901943D01*
X125373047Y-104918938D01*
X125334343Y-104931946D01*
X125290685Y-104941025D01*
X125275424Y-104943139D01*
X125231449Y-104946349D01*
X125185768Y-104945629D01*
X125140050Y-104941163D01*
X125095968Y-104933139D01*
X125055191Y-104921741D01*
X125042772Y-104917281D01*
X125018165Y-104907888D01*
X125018165Y-104804202D01*
X125112622Y-104802793D01*
X125142821Y-104802268D01*
X125167450Y-104801612D01*
X125187287Y-104800716D01*
X125203111Y-104799473D01*
X125215702Y-104797774D01*
X125225838Y-104795510D01*
X125234299Y-104792573D01*
X125241864Y-104788854D01*
X125249312Y-104784246D01*
X125250221Y-104783637D01*
X125262973Y-104771363D01*
X125271998Y-104754800D01*
X125276982Y-104735014D01*
X125277611Y-104713069D01*
X125275483Y-104697901D01*
X125269573Y-104680683D01*
X125259367Y-104667063D01*
X125244148Y-104656256D01*
X125232478Y-104650861D01*
X125213428Y-104643237D01*
X125038803Y-104643237D01*
X125000639Y-104643252D01*
X124968279Y-104643306D01*
X124941177Y-104643416D01*
X124918788Y-104643598D01*
X124900566Y-104643867D01*
X124885966Y-104644240D01*
X124874441Y-104644732D01*
X124865446Y-104645360D01*
X124858435Y-104646140D01*
X124852862Y-104647087D01*
X124848183Y-104648217D01*
X124845936Y-104648878D01*
X124825323Y-104658065D01*
X124809567Y-104671233D01*
X124798878Y-104688103D01*
X124793469Y-104708395D01*
X124792810Y-104719069D01*
X124795003Y-104742677D01*
X124801949Y-104762216D01*
X124813908Y-104778106D01*
X124831142Y-104790768D01*
X124840165Y-104795291D01*
X124859415Y-104803931D01*
X124859415Y-105010367D01*
X124904659Y-105032049D01*
X124944626Y-105050452D01*
X124981038Y-105065522D01*
X125015387Y-105077781D01*
X125049163Y-105087753D01*
X125083857Y-105095959D01*
X125091190Y-105097466D01*
X125104010Y-105099321D01*
X125121929Y-105100916D01*
X125143700Y-105102225D01*
X125168077Y-105103223D01*
X125193814Y-105103883D01*
X125219664Y-105104181D01*
X125244380Y-105104091D01*
X125266716Y-105103587D01*
X125285426Y-105102643D01*
X125295978Y-105101674D01*
X125336112Y-105095272D01*
X125376746Y-105085836D01*
X125416107Y-105073891D01*
X125452422Y-105059965D01*
X125478540Y-105047511D01*
X125516937Y-105023592D01*
X125551774Y-104994689D01*
X125582756Y-104961266D01*
X125609587Y-104923785D01*
X125631969Y-104882710D01*
X125649606Y-104838505D01*
X125662201Y-104791633D01*
X125668698Y-104750269D01*
X125669983Y-104733993D01*
X125670966Y-104712730D01*
X125671647Y-104687835D01*
X125672024Y-104660664D01*
X125672095Y-104632572D01*
X125671859Y-104604916D01*
X125671316Y-104579050D01*
X125670464Y-104556330D01*
X125669301Y-104538112D01*
X125668901Y-104533822D01*
X125661668Y-104487872D01*
X125649722Y-104442792D01*
X125633617Y-104400587D01*
X125629682Y-104392119D01*
X125614355Y-104362400D01*
X125598461Y-104336432D01*
X125580645Y-104312317D01*
X125559549Y-104288157D01*
X125543641Y-104271735D01*
X125508239Y-104239409D01*
X125471833Y-104212577D01*
X125433371Y-104190671D01*
X125391802Y-104173121D01*
X125346075Y-104159359D01*
X125328326Y-104155208D01*
X125316599Y-104152815D01*
X125305540Y-104151022D01*
X125293930Y-104149746D01*
X125280550Y-104148903D01*
X125264180Y-104148412D01*
X125243601Y-104148188D01*
X125224540Y-104148146D01*
X125197478Y-104148282D01*
X125175607Y-104148737D01*
X125157773Y-104149576D01*
X125142823Y-104150862D01*
X125129603Y-104152659D01*
X125123152Y-104153794D01*
X125097043Y-104159613D01*
X125069125Y-104167353D01*
X125042015Y-104176217D01*
X125018330Y-104185410D01*
X125016085Y-104186390D01*
X125004359Y-104190941D01*
X124997857Y-104191916D01*
X124996501Y-104190893D01*
X124992095Y-104182916D01*
X124984326Y-104173103D01*
X124974947Y-104163375D01*
X124965711Y-104155655D01*
X124962455Y-104153564D01*
X124946956Y-104147902D01*
X124928781Y-104146051D01*
X124910333Y-104148005D01*
X124910333Y-104148005D01*
G37*
X124910333Y-104148005D02*
X124894046Y-104153738D01*
X124884559Y-104159968D01*
X124877183Y-104168261D01*
X124870528Y-104179696D01*
X124861003Y-104198267D01*
X124860012Y-104302580D01*
X124859775Y-104332419D01*
X124859704Y-104356632D01*
X124859822Y-104375942D01*
X124860152Y-104391070D01*
X124860718Y-104402740D01*
X124861543Y-104411674D01*
X124862650Y-104418595D01*
X124863897Y-104423664D01*
X124871855Y-104444073D01*
X124882628Y-104459117D01*
X124896828Y-104469246D01*
X124915070Y-104474905D01*
X124936390Y-104476550D01*
X124950282Y-104475971D01*
X124962803Y-104474437D01*
X124971505Y-104472251D01*
X124971674Y-104472181D01*
X124982797Y-104465443D01*
X124992597Y-104454774D01*
X125001418Y-104439573D01*
X125009607Y-104419241D01*
X125017511Y-104393178D01*
X125017756Y-104392268D01*
X125025578Y-104374999D01*
X125038990Y-104359173D01*
X125057355Y-104344990D01*
X125080035Y-104332652D01*
X125106392Y-104322361D01*
X125135790Y-104314317D01*
X125167591Y-104308722D01*
X125201157Y-104305777D01*
X125235850Y-104305684D01*
X125271035Y-104308643D01*
X125279074Y-104309768D01*
X125320875Y-104318955D01*
X125359367Y-104333250D01*
X125394232Y-104352356D01*
X125425152Y-104375977D01*
X125451808Y-104403817D01*
X125473882Y-104435577D01*
X125491056Y-104470963D01*
X125503012Y-104509676D01*
X125505284Y-104520556D01*
X125507067Y-104533860D01*
X125508493Y-104552198D01*
X125509560Y-104574428D01*
X125510269Y-104599409D01*
X125510620Y-104626000D01*
X125510612Y-104653059D01*
X125510247Y-104679445D01*
X125509524Y-104704016D01*
X125508443Y-104725631D01*
X125507003Y-104743149D01*
X125505276Y-104755092D01*
X125494782Y-104792909D01*
X125479766Y-104826443D01*
X125460157Y-104855755D01*
X125435882Y-104880902D01*
X125406870Y-104901943D01*
X125373047Y-104918938D01*
X125334343Y-104931946D01*
X125290685Y-104941025D01*
X125275424Y-104943139D01*
X125231449Y-104946349D01*
X125185768Y-104945629D01*
X125140050Y-104941163D01*
X125095968Y-104933139D01*
X125055191Y-104921741D01*
X125042772Y-104917281D01*
X125018165Y-104907888D01*
X125018165Y-104804202D01*
X125112622Y-104802793D01*
X125142821Y-104802268D01*
X125167450Y-104801612D01*
X125187287Y-104800716D01*
X125203111Y-104799473D01*
X125215702Y-104797774D01*
X125225838Y-104795510D01*
X125234299Y-104792573D01*
X125241864Y-104788854D01*
X125249312Y-104784246D01*
X125250221Y-104783637D01*
X125262973Y-104771363D01*
X125271998Y-104754800D01*
X125276982Y-104735014D01*
X125277611Y-104713069D01*
X125275483Y-104697901D01*
X125269573Y-104680683D01*
X125259367Y-104667063D01*
X125244148Y-104656256D01*
X125232478Y-104650861D01*
X125213428Y-104643237D01*
X125038803Y-104643237D01*
X125000639Y-104643252D01*
X124968279Y-104643306D01*
X124941177Y-104643416D01*
X124918788Y-104643598D01*
X124900566Y-104643867D01*
X124885966Y-104644240D01*
X124874441Y-104644732D01*
X124865446Y-104645360D01*
X124858435Y-104646140D01*
X124852862Y-104647087D01*
X124848183Y-104648217D01*
X124845936Y-104648878D01*
X124825323Y-104658065D01*
X124809567Y-104671233D01*
X124798878Y-104688103D01*
X124793469Y-104708395D01*
X124792810Y-104719069D01*
X124795003Y-104742677D01*
X124801949Y-104762216D01*
X124813908Y-104778106D01*
X124831142Y-104790768D01*
X124840165Y-104795291D01*
X124859415Y-104803931D01*
X124859415Y-105010367D01*
X124904659Y-105032049D01*
X124944626Y-105050452D01*
X124981038Y-105065522D01*
X125015387Y-105077781D01*
X125049163Y-105087753D01*
X125083857Y-105095959D01*
X125091190Y-105097466D01*
X125104010Y-105099321D01*
X125121929Y-105100916D01*
X125143700Y-105102225D01*
X125168077Y-105103223D01*
X125193814Y-105103883D01*
X125219664Y-105104181D01*
X125244380Y-105104091D01*
X125266716Y-105103587D01*
X125285426Y-105102643D01*
X125295978Y-105101674D01*
X125336112Y-105095272D01*
X125376746Y-105085836D01*
X125416107Y-105073891D01*
X125452422Y-105059965D01*
X125478540Y-105047511D01*
X125516937Y-105023592D01*
X125551774Y-104994689D01*
X125582756Y-104961266D01*
X125609587Y-104923785D01*
X125631969Y-104882710D01*
X125649606Y-104838505D01*
X125662201Y-104791633D01*
X125668698Y-104750269D01*
X125669983Y-104733993D01*
X125670966Y-104712730D01*
X125671647Y-104687835D01*
X125672024Y-104660664D01*
X125672095Y-104632572D01*
X125671859Y-104604916D01*
X125671316Y-104579050D01*
X125670464Y-104556330D01*
X125669301Y-104538112D01*
X125668901Y-104533822D01*
X125661668Y-104487872D01*
X125649722Y-104442792D01*
X125633617Y-104400587D01*
X125629682Y-104392119D01*
X125614355Y-104362400D01*
X125598461Y-104336432D01*
X125580645Y-104312317D01*
X125559549Y-104288157D01*
X125543641Y-104271735D01*
X125508239Y-104239409D01*
X125471833Y-104212577D01*
X125433371Y-104190671D01*
X125391802Y-104173121D01*
X125346075Y-104159359D01*
X125328326Y-104155208D01*
X125316599Y-104152815D01*
X125305540Y-104151022D01*
X125293930Y-104149746D01*
X125280550Y-104148903D01*
X125264180Y-104148412D01*
X125243601Y-104148188D01*
X125224540Y-104148146D01*
X125197478Y-104148282D01*
X125175607Y-104148737D01*
X125157773Y-104149576D01*
X125142823Y-104150862D01*
X125129603Y-104152659D01*
X125123152Y-104153794D01*
X125097043Y-104159613D01*
X125069125Y-104167353D01*
X125042015Y-104176217D01*
X125018330Y-104185410D01*
X125016085Y-104186390D01*
X125004359Y-104190941D01*
X124997857Y-104191916D01*
X124996501Y-104190893D01*
X124992095Y-104182916D01*
X124984326Y-104173103D01*
X124974947Y-104163375D01*
X124965711Y-104155655D01*
X124962455Y-104153564D01*
X124946956Y-104147902D01*
X124928781Y-104146051D01*
X124910333Y-104148005D01*
G36*
X118640382Y-104377679D02*
X118593286Y-104383103D01*
X118550060Y-104392433D01*
X118533228Y-104397528D01*
X118499237Y-104411327D01*
X118468056Y-104428988D01*
X118440471Y-104449881D01*
X118417266Y-104473379D01*
X118399227Y-104498854D01*
X118393845Y-104509015D01*
X118389586Y-104518022D01*
X118385950Y-104526347D01*
X118382888Y-104534561D01*
X118380350Y-104543233D01*
X118378288Y-104552935D01*
X118376651Y-104564237D01*
X118375390Y-104577709D01*
X118374456Y-104593922D01*
X118373799Y-104613447D01*
X118373370Y-104636854D01*
X118373118Y-104664713D01*
X118372995Y-104697595D01*
X118372951Y-104736071D01*
X118372946Y-104749915D01*
X118372890Y-104923268D01*
X118340347Y-104925150D01*
X118313304Y-104927987D01*
X118291565Y-104933248D01*
X118274442Y-104941253D01*
X118261247Y-104952322D01*
X118251451Y-104966477D01*
X118247548Y-104975356D01*
X118245352Y-104985085D01*
X118244461Y-104997877D01*
X118244379Y-105005505D01*
X118244639Y-105019115D01*
X118245760Y-105028659D01*
X118248270Y-105036409D01*
X118252700Y-105044643D01*
X118253977Y-105046732D01*
X118262261Y-105057818D01*
X118272526Y-105066263D01*
X118282275Y-105071813D01*
X118300986Y-105081387D01*
X118417901Y-105082327D01*
X118534815Y-105083267D01*
X118534815Y-105051305D01*
X118553072Y-105059648D01*
X118579705Y-105070660D01*
X118610054Y-105081286D01*
X118641502Y-105090677D01*
X118671340Y-105097966D01*
X118691761Y-105101417D01*
X118716213Y-105104159D01*
X118743206Y-105106148D01*
X118771248Y-105107342D01*
X118798846Y-105107696D01*
X118824509Y-105107166D01*
X118846744Y-105105709D01*
X118862666Y-105103556D01*
X118902506Y-105093551D01*
X118939486Y-105079345D01*
X118973107Y-105061329D01*
X119002869Y-105039891D01*
X119028272Y-105015422D01*
X119048817Y-104988311D01*
X119064005Y-104958947D01*
X119069895Y-104941972D01*
X119073269Y-104923872D01*
X119074521Y-104901982D01*
X119074131Y-104889983D01*
X118906221Y-104889983D01*
X118903241Y-104902725D01*
X118894630Y-104914993D01*
X118881103Y-104926227D01*
X118863379Y-104935873D01*
X118842175Y-104943372D01*
X118835165Y-104945138D01*
X118818262Y-104947615D01*
X118796857Y-104948622D01*
X118772604Y-104948236D01*
X118747161Y-104946531D01*
X118722184Y-104943582D01*
X118699330Y-104939463D01*
X118696740Y-104938878D01*
X118663115Y-104929968D01*
X118631219Y-104919006D01*
X118598799Y-104905143D01*
X118571328Y-104891578D01*
X118533228Y-104871835D01*
X118532339Y-104833285D01*
X118531451Y-104794734D01*
X118551471Y-104791248D01*
X118589422Y-104785560D01*
X118627596Y-104781562D01*
X118664933Y-104779274D01*
X118700375Y-104778712D01*
X118732865Y-104779895D01*
X118761344Y-104782839D01*
X118784053Y-104787373D01*
X118813478Y-104797032D01*
X118839833Y-104809197D01*
X118862566Y-104823404D01*
X118881123Y-104839188D01*
X118894952Y-104856085D01*
X118903498Y-104873629D01*
X118906221Y-104889983D01*
X119074131Y-104889983D01*
X119073756Y-104878460D01*
X119071081Y-104855461D01*
X119066601Y-104835143D01*
X119064312Y-104828208D01*
X119053519Y-104803352D01*
X119040313Y-104781137D01*
X119023417Y-104759616D01*
X119009478Y-104744702D01*
X118976640Y-104715026D01*
X118941177Y-104690160D01*
X118902471Y-104669795D01*
X118859899Y-104653622D01*
X118812844Y-104641332D01*
X118795230Y-104637896D01*
X118769901Y-104634490D01*
X118739842Y-104632324D01*
X118706542Y-104631365D01*
X118671494Y-104631580D01*
X118636187Y-104632934D01*
X118602111Y-104635395D01*
X118570759Y-104638929D01*
X118543619Y-104643503D01*
X118543547Y-104643518D01*
X118534815Y-104645329D01*
X118534815Y-104619519D01*
X118535491Y-104602261D01*
X118537984Y-104589429D01*
X118542996Y-104579197D01*
X118551229Y-104569738D01*
X118555409Y-104565914D01*
X118570710Y-104555278D01*
X118589753Y-104547189D01*
X118613095Y-104541518D01*
X118641291Y-104538132D01*
X118674896Y-104536903D01*
X118678764Y-104536893D01*
X118698378Y-104537183D01*
X118717174Y-104538136D01*
X118736340Y-104539908D01*
X118757069Y-104542652D01*
X118780550Y-104546524D01*
X118807974Y-104551677D01*
X118835472Y-104557221D01*
X118865302Y-104563152D01*
X118889789Y-104567427D01*
X118909726Y-104570019D01*
X118925909Y-104570901D01*
X118939131Y-104570043D01*
X118950188Y-104567420D01*
X118959872Y-104563003D01*
X118968979Y-104556764D01*
X118974219Y-104552380D01*
X118987510Y-104536785D01*
X118996307Y-104518184D01*
X119000452Y-104497962D01*
X118999785Y-104477501D01*
X118994148Y-104458186D01*
X118986506Y-104445210D01*
X118979805Y-104438188D01*
X118970376Y-104431688D01*
X118957423Y-104425340D01*
X118940147Y-104418779D01*
X118917753Y-104411635D01*
X118906550Y-104408350D01*
X118851832Y-104394586D01*
X118797074Y-104384614D01*
X118743058Y-104378457D01*
X118690567Y-104376138D01*
X118640382Y-104377679D01*
X118640382Y-104377679D01*
G37*
X118640382Y-104377679D02*
X118593286Y-104383103D01*
X118550060Y-104392433D01*
X118533228Y-104397528D01*
X118499237Y-104411327D01*
X118468056Y-104428988D01*
X118440471Y-104449881D01*
X118417266Y-104473379D01*
X118399227Y-104498854D01*
X118393845Y-104509015D01*
X118389586Y-104518022D01*
X118385950Y-104526347D01*
X118382888Y-104534561D01*
X118380350Y-104543233D01*
X118378288Y-104552935D01*
X118376651Y-104564237D01*
X118375390Y-104577709D01*
X118374456Y-104593922D01*
X118373799Y-104613447D01*
X118373370Y-104636854D01*
X118373118Y-104664713D01*
X118372995Y-104697595D01*
X118372951Y-104736071D01*
X118372946Y-104749915D01*
X118372890Y-104923268D01*
X118340347Y-104925150D01*
X118313304Y-104927987D01*
X118291565Y-104933248D01*
X118274442Y-104941253D01*
X118261247Y-104952322D01*
X118251451Y-104966477D01*
X118247548Y-104975356D01*
X118245352Y-104985085D01*
X118244461Y-104997877D01*
X118244379Y-105005505D01*
X118244639Y-105019115D01*
X118245760Y-105028659D01*
X118248270Y-105036409D01*
X118252700Y-105044643D01*
X118253977Y-105046732D01*
X118262261Y-105057818D01*
X118272526Y-105066263D01*
X118282275Y-105071813D01*
X118300986Y-105081387D01*
X118417901Y-105082327D01*
X118534815Y-105083267D01*
X118534815Y-105051305D01*
X118553072Y-105059648D01*
X118579705Y-105070660D01*
X118610054Y-105081286D01*
X118641502Y-105090677D01*
X118671340Y-105097966D01*
X118691761Y-105101417D01*
X118716213Y-105104159D01*
X118743206Y-105106148D01*
X118771248Y-105107342D01*
X118798846Y-105107696D01*
X118824509Y-105107166D01*
X118846744Y-105105709D01*
X118862666Y-105103556D01*
X118902506Y-105093551D01*
X118939486Y-105079345D01*
X118973107Y-105061329D01*
X119002869Y-105039891D01*
X119028272Y-105015422D01*
X119048817Y-104988311D01*
X119064005Y-104958947D01*
X119069895Y-104941972D01*
X119073269Y-104923872D01*
X119074521Y-104901982D01*
X119074131Y-104889983D01*
X118906221Y-104889983D01*
X118903241Y-104902725D01*
X118894630Y-104914993D01*
X118881103Y-104926227D01*
X118863379Y-104935873D01*
X118842175Y-104943372D01*
X118835165Y-104945138D01*
X118818262Y-104947615D01*
X118796857Y-104948622D01*
X118772604Y-104948236D01*
X118747161Y-104946531D01*
X118722184Y-104943582D01*
X118699330Y-104939463D01*
X118696740Y-104938878D01*
X118663115Y-104929968D01*
X118631219Y-104919006D01*
X118598799Y-104905143D01*
X118571328Y-104891578D01*
X118533228Y-104871835D01*
X118532339Y-104833285D01*
X118531451Y-104794734D01*
X118551471Y-104791248D01*
X118589422Y-104785560D01*
X118627596Y-104781562D01*
X118664933Y-104779274D01*
X118700375Y-104778712D01*
X118732865Y-104779895D01*
X118761344Y-104782839D01*
X118784053Y-104787373D01*
X118813478Y-104797032D01*
X118839833Y-104809197D01*
X118862566Y-104823404D01*
X118881123Y-104839188D01*
X118894952Y-104856085D01*
X118903498Y-104873629D01*
X118906221Y-104889983D01*
X119074131Y-104889983D01*
X119073756Y-104878460D01*
X119071081Y-104855461D01*
X119066601Y-104835143D01*
X119064312Y-104828208D01*
X119053519Y-104803352D01*
X119040313Y-104781137D01*
X119023417Y-104759616D01*
X119009478Y-104744702D01*
X118976640Y-104715026D01*
X118941177Y-104690160D01*
X118902471Y-104669795D01*
X118859899Y-104653622D01*
X118812844Y-104641332D01*
X118795230Y-104637896D01*
X118769901Y-104634490D01*
X118739842Y-104632324D01*
X118706542Y-104631365D01*
X118671494Y-104631580D01*
X118636187Y-104632934D01*
X118602111Y-104635395D01*
X118570759Y-104638929D01*
X118543619Y-104643503D01*
X118543547Y-104643518D01*
X118534815Y-104645329D01*
X118534815Y-104619519D01*
X118535491Y-104602261D01*
X118537984Y-104589429D01*
X118542996Y-104579197D01*
X118551229Y-104569738D01*
X118555409Y-104565914D01*
X118570710Y-104555278D01*
X118589753Y-104547189D01*
X118613095Y-104541518D01*
X118641291Y-104538132D01*
X118674896Y-104536903D01*
X118678764Y-104536893D01*
X118698378Y-104537183D01*
X118717174Y-104538136D01*
X118736340Y-104539908D01*
X118757069Y-104542652D01*
X118780550Y-104546524D01*
X118807974Y-104551677D01*
X118835472Y-104557221D01*
X118865302Y-104563152D01*
X118889789Y-104567427D01*
X118909726Y-104570019D01*
X118925909Y-104570901D01*
X118939131Y-104570043D01*
X118950188Y-104567420D01*
X118959872Y-104563003D01*
X118968979Y-104556764D01*
X118974219Y-104552380D01*
X118987510Y-104536785D01*
X118996307Y-104518184D01*
X119000452Y-104497962D01*
X118999785Y-104477501D01*
X118994148Y-104458186D01*
X118986506Y-104445210D01*
X118979805Y-104438188D01*
X118970376Y-104431688D01*
X118957423Y-104425340D01*
X118940147Y-104418779D01*
X118917753Y-104411635D01*
X118906550Y-104408350D01*
X118851832Y-104394586D01*
X118797074Y-104384614D01*
X118743058Y-104378457D01*
X118690567Y-104376138D01*
X118640382Y-104377679D01*
G36*
X120506384Y-104378479D02*
X120458714Y-104385627D01*
X120415124Y-104397289D01*
X120375783Y-104413431D01*
X120345593Y-104430793D01*
X120317893Y-104452176D01*
X120295526Y-104476146D01*
X120277713Y-104503568D01*
X120274458Y-104509887D01*
X120269983Y-104519154D01*
X120266161Y-104527848D01*
X120262939Y-104536540D01*
X120260267Y-104545799D01*
X120258092Y-104556196D01*
X120256365Y-104568303D01*
X120255034Y-104582690D01*
X120254047Y-104599927D01*
X120253354Y-104620584D01*
X120252903Y-104645233D01*
X120252643Y-104674445D01*
X120252523Y-104708788D01*
X120252491Y-104748835D01*
X120252490Y-104754641D01*
X120252490Y-104924225D01*
X120232436Y-104924225D01*
X120201944Y-104926127D01*
X120176450Y-104931820D01*
X120155991Y-104941283D01*
X120140602Y-104954496D01*
X120130316Y-104971436D01*
X120125730Y-104988006D01*
X120124445Y-105011968D01*
X120128529Y-105033201D01*
X120137715Y-105051239D01*
X120151738Y-105065614D01*
X120170332Y-105075859D01*
X120177017Y-105078134D01*
X120182667Y-105079486D01*
X120190006Y-105080574D01*
X120199710Y-105081422D01*
X120212455Y-105082056D01*
X120228916Y-105082503D01*
X120249768Y-105082788D01*
X120275687Y-105082936D01*
X120303867Y-105082975D01*
X120414415Y-105082975D01*
X120414415Y-105067100D01*
X120414720Y-105058041D01*
X120415499Y-105052293D01*
X120416109Y-105051225D01*
X120419667Y-105052544D01*
X120426970Y-105055928D01*
X120432777Y-105058802D01*
X120456963Y-105069533D01*
X120485740Y-105079825D01*
X120517352Y-105089167D01*
X120550040Y-105097046D01*
X120582048Y-105102951D01*
X120586750Y-105103645D01*
X120602410Y-105105322D01*
X120621991Y-105106593D01*
X120643983Y-105107441D01*
X120666876Y-105107852D01*
X120689160Y-105107809D01*
X120709326Y-105107298D01*
X120725861Y-105106302D01*
X120735346Y-105105166D01*
X120778052Y-105095191D01*
X120817775Y-105080355D01*
X120853936Y-105060950D01*
X120885958Y-105037270D01*
X120904033Y-105019983D01*
X120924176Y-104996217D01*
X120938813Y-104972926D01*
X120948507Y-104948712D01*
X120953819Y-104922178D01*
X120955316Y-104892475D01*
X120955224Y-104888245D01*
X120785890Y-104888245D01*
X120782839Y-104903323D01*
X120773883Y-104916804D01*
X120759325Y-104928442D01*
X120739465Y-104937995D01*
X120716040Y-104944899D01*
X120701203Y-104947065D01*
X120681846Y-104948160D01*
X120659700Y-104948225D01*
X120636498Y-104947304D01*
X120613970Y-104945439D01*
X120593849Y-104942673D01*
X120589040Y-104941775D01*
X120543870Y-104930047D01*
X120496777Y-104912609D01*
X120457278Y-104894278D01*
X120412828Y-104871837D01*
X120411937Y-104832943D01*
X120411785Y-104818074D01*
X120412021Y-104805826D01*
X120412594Y-104797414D01*
X120413456Y-104794052D01*
X120413524Y-104794037D01*
X120417576Y-104793562D01*
X120426342Y-104792300D01*
X120438267Y-104790480D01*
X120444578Y-104789487D01*
X120489630Y-104783405D01*
X120532626Y-104779711D01*
X120572808Y-104778407D01*
X120609417Y-104779494D01*
X120641693Y-104782973D01*
X120668879Y-104788845D01*
X120669885Y-104789140D01*
X120700097Y-104799837D01*
X120726492Y-104812688D01*
X120748616Y-104827304D01*
X120766016Y-104843299D01*
X120778238Y-104860285D01*
X120784828Y-104877873D01*
X120785890Y-104888245D01*
X120955224Y-104888245D01*
X120954942Y-104875422D01*
X120953760Y-104862153D01*
X120951364Y-104850114D01*
X120947346Y-104836752D01*
X120945650Y-104831776D01*
X120932041Y-104800637D01*
X120913344Y-104771546D01*
X120889019Y-104743708D01*
X120879678Y-104734672D01*
X120844270Y-104705595D01*
X120805552Y-104681360D01*
X120763168Y-104661807D01*
X120716763Y-104646776D01*
X120665982Y-104636106D01*
X120658509Y-104634952D01*
X120636642Y-104632677D01*
X120609960Y-104631434D01*
X120579906Y-104631169D01*
X120547921Y-104631830D01*
X120515448Y-104633361D01*
X120483928Y-104635711D01*
X120454803Y-104638824D01*
X120429516Y-104642648D01*
X120424199Y-104643662D01*
X120413749Y-104645752D01*
X120414876Y-104617003D01*
X120415594Y-104602937D01*
X120416743Y-104593401D01*
X120418806Y-104586576D01*
X120422270Y-104580643D01*
X120425777Y-104576058D01*
X120440124Y-104562393D01*
X120458997Y-104551741D01*
X120482686Y-104544015D01*
X120511482Y-104539127D01*
X120545676Y-104536992D01*
X120556927Y-104536874D01*
X120575486Y-104537050D01*
X120592359Y-104537677D01*
X120608741Y-104538908D01*
X120625825Y-104540897D01*
X120644803Y-104543797D01*
X120666870Y-104547759D01*
X120693218Y-104552936D01*
X120711278Y-104556628D01*
X120745310Y-104563171D01*
X120773767Y-104567567D01*
X120797043Y-104569842D01*
X120815530Y-104570020D01*
X120829620Y-104568126D01*
X120838735Y-104564744D01*
X120856673Y-104551513D01*
X120869826Y-104534246D01*
X120877919Y-104513380D01*
X120880243Y-104499172D01*
X120880043Y-104477521D01*
X120874999Y-104459428D01*
X120864832Y-104444039D01*
X120860944Y-104440017D01*
X120854732Y-104434546D01*
X120848021Y-104430034D01*
X120839519Y-104425884D01*
X120827936Y-104421497D01*
X120811978Y-104416275D01*
X120804899Y-104414070D01*
X120767905Y-104403214D01*
X120734332Y-104394731D01*
X120702001Y-104388209D01*
X120668736Y-104383237D01*
X120632359Y-104379403D01*
X120613292Y-104377856D01*
X120557966Y-104375878D01*
X120506384Y-104378479D01*
X120506384Y-104378479D01*
G37*
X120506384Y-104378479D02*
X120458714Y-104385627D01*
X120415124Y-104397289D01*
X120375783Y-104413431D01*
X120345593Y-104430793D01*
X120317893Y-104452176D01*
X120295526Y-104476146D01*
X120277713Y-104503568D01*
X120274458Y-104509887D01*
X120269983Y-104519154D01*
X120266161Y-104527848D01*
X120262939Y-104536540D01*
X120260267Y-104545799D01*
X120258092Y-104556196D01*
X120256365Y-104568303D01*
X120255034Y-104582690D01*
X120254047Y-104599927D01*
X120253354Y-104620584D01*
X120252903Y-104645233D01*
X120252643Y-104674445D01*
X120252523Y-104708788D01*
X120252491Y-104748835D01*
X120252490Y-104754641D01*
X120252490Y-104924225D01*
X120232436Y-104924225D01*
X120201944Y-104926127D01*
X120176450Y-104931820D01*
X120155991Y-104941283D01*
X120140602Y-104954496D01*
X120130316Y-104971436D01*
X120125730Y-104988006D01*
X120124445Y-105011968D01*
X120128529Y-105033201D01*
X120137715Y-105051239D01*
X120151738Y-105065614D01*
X120170332Y-105075859D01*
X120177017Y-105078134D01*
X120182667Y-105079486D01*
X120190006Y-105080574D01*
X120199710Y-105081422D01*
X120212455Y-105082056D01*
X120228916Y-105082503D01*
X120249768Y-105082788D01*
X120275687Y-105082936D01*
X120303867Y-105082975D01*
X120414415Y-105082975D01*
X120414415Y-105067100D01*
X120414720Y-105058041D01*
X120415499Y-105052293D01*
X120416109Y-105051225D01*
X120419667Y-105052544D01*
X120426970Y-105055928D01*
X120432777Y-105058802D01*
X120456963Y-105069533D01*
X120485740Y-105079825D01*
X120517352Y-105089167D01*
X120550040Y-105097046D01*
X120582048Y-105102951D01*
X120586750Y-105103645D01*
X120602410Y-105105322D01*
X120621991Y-105106593D01*
X120643983Y-105107441D01*
X120666876Y-105107852D01*
X120689160Y-105107809D01*
X120709326Y-105107298D01*
X120725861Y-105106302D01*
X120735346Y-105105166D01*
X120778052Y-105095191D01*
X120817775Y-105080355D01*
X120853936Y-105060950D01*
X120885958Y-105037270D01*
X120904033Y-105019983D01*
X120924176Y-104996217D01*
X120938813Y-104972926D01*
X120948507Y-104948712D01*
X120953819Y-104922178D01*
X120955316Y-104892475D01*
X120955224Y-104888245D01*
X120785890Y-104888245D01*
X120782839Y-104903323D01*
X120773883Y-104916804D01*
X120759325Y-104928442D01*
X120739465Y-104937995D01*
X120716040Y-104944899D01*
X120701203Y-104947065D01*
X120681846Y-104948160D01*
X120659700Y-104948225D01*
X120636498Y-104947304D01*
X120613970Y-104945439D01*
X120593849Y-104942673D01*
X120589040Y-104941775D01*
X120543870Y-104930047D01*
X120496777Y-104912609D01*
X120457278Y-104894278D01*
X120412828Y-104871837D01*
X120411937Y-104832943D01*
X120411785Y-104818074D01*
X120412021Y-104805826D01*
X120412594Y-104797414D01*
X120413456Y-104794052D01*
X120413524Y-104794037D01*
X120417576Y-104793562D01*
X120426342Y-104792300D01*
X120438267Y-104790480D01*
X120444578Y-104789487D01*
X120489630Y-104783405D01*
X120532626Y-104779711D01*
X120572808Y-104778407D01*
X120609417Y-104779494D01*
X120641693Y-104782973D01*
X120668879Y-104788845D01*
X120669885Y-104789140D01*
X120700097Y-104799837D01*
X120726492Y-104812688D01*
X120748616Y-104827304D01*
X120766016Y-104843299D01*
X120778238Y-104860285D01*
X120784828Y-104877873D01*
X120785890Y-104888245D01*
X120955224Y-104888245D01*
X120954942Y-104875422D01*
X120953760Y-104862153D01*
X120951364Y-104850114D01*
X120947346Y-104836752D01*
X120945650Y-104831776D01*
X120932041Y-104800637D01*
X120913344Y-104771546D01*
X120889019Y-104743708D01*
X120879678Y-104734672D01*
X120844270Y-104705595D01*
X120805552Y-104681360D01*
X120763168Y-104661807D01*
X120716763Y-104646776D01*
X120665982Y-104636106D01*
X120658509Y-104634952D01*
X120636642Y-104632677D01*
X120609960Y-104631434D01*
X120579906Y-104631169D01*
X120547921Y-104631830D01*
X120515448Y-104633361D01*
X120483928Y-104635711D01*
X120454803Y-104638824D01*
X120429516Y-104642648D01*
X120424199Y-104643662D01*
X120413749Y-104645752D01*
X120414876Y-104617003D01*
X120415594Y-104602937D01*
X120416743Y-104593401D01*
X120418806Y-104586576D01*
X120422270Y-104580643D01*
X120425777Y-104576058D01*
X120440124Y-104562393D01*
X120458997Y-104551741D01*
X120482686Y-104544015D01*
X120511482Y-104539127D01*
X120545676Y-104536992D01*
X120556927Y-104536874D01*
X120575486Y-104537050D01*
X120592359Y-104537677D01*
X120608741Y-104538908D01*
X120625825Y-104540897D01*
X120644803Y-104543797D01*
X120666870Y-104547759D01*
X120693218Y-104552936D01*
X120711278Y-104556628D01*
X120745310Y-104563171D01*
X120773767Y-104567567D01*
X120797043Y-104569842D01*
X120815530Y-104570020D01*
X120829620Y-104568126D01*
X120838735Y-104564744D01*
X120856673Y-104551513D01*
X120869826Y-104534246D01*
X120877919Y-104513380D01*
X120880243Y-104499172D01*
X120880043Y-104477521D01*
X120874999Y-104459428D01*
X120864832Y-104444039D01*
X120860944Y-104440017D01*
X120854732Y-104434546D01*
X120848021Y-104430034D01*
X120839519Y-104425884D01*
X120827936Y-104421497D01*
X120811978Y-104416275D01*
X120804899Y-104414070D01*
X120767905Y-104403214D01*
X120734332Y-104394731D01*
X120702001Y-104388209D01*
X120668736Y-104383237D01*
X120632359Y-104379403D01*
X120613292Y-104377856D01*
X120557966Y-104375878D01*
X120506384Y-104378479D01*
G36*
X123344124Y-104377684D02*
X123297051Y-104383583D01*
X123251822Y-104393783D01*
X123209416Y-104408204D01*
X123170816Y-104426762D01*
X123166903Y-104429018D01*
X123128474Y-104454549D01*
X123093288Y-104483895D01*
X123062041Y-104516297D01*
X123035427Y-104550999D01*
X123014141Y-104587245D01*
X123006515Y-104603786D01*
X122994977Y-104635100D01*
X122986438Y-104667697D01*
X122980688Y-104702799D01*
X122977518Y-104741627D01*
X122976696Y-104777381D01*
X122976640Y-104816275D01*
X123296068Y-104816275D01*
X123348184Y-104816279D01*
X123394312Y-104816296D01*
X123434812Y-104816332D01*
X123470045Y-104816393D01*
X123500373Y-104816486D01*
X123526157Y-104816617D01*
X123547758Y-104816792D01*
X123565538Y-104817018D01*
X123579856Y-104817301D01*
X123591076Y-104817647D01*
X123599557Y-104818063D01*
X123605661Y-104818555D01*
X123609749Y-104819129D01*
X123612182Y-104819791D01*
X123613322Y-104820549D01*
X123613529Y-104821407D01*
X123613414Y-104821831D01*
X123606736Y-104835503D01*
X123596551Y-104851352D01*
X123584206Y-104867459D01*
X123571469Y-104881489D01*
X123546042Y-104902467D01*
X123515794Y-104919672D01*
X123481065Y-104933027D01*
X123442199Y-104942453D01*
X123399536Y-104947874D01*
X123353419Y-104949213D01*
X123304190Y-104946391D01*
X123290946Y-104944969D01*
X123270205Y-104942320D01*
X123250065Y-104939243D01*
X123229273Y-104935489D01*
X123206577Y-104930812D01*
X123180723Y-104924962D01*
X123150459Y-104917690D01*
X123138565Y-104914756D01*
X123108940Y-104907752D01*
X123084518Y-104902860D01*
X123064508Y-104900095D01*
X123048122Y-104899471D01*
X123034568Y-104901005D01*
X123023057Y-104904709D01*
X123012798Y-104910600D01*
X123004571Y-104917247D01*
X122990619Y-104932742D01*
X122982226Y-104949622D01*
X122978682Y-104969467D01*
X122978466Y-104975542D01*
X122978704Y-104987897D01*
X122980234Y-104996571D01*
X122983768Y-105004204D01*
X122987887Y-105010443D01*
X122998546Y-105022992D01*
X123012393Y-105034473D01*
X123030031Y-105045197D01*
X123052063Y-105055476D01*
X123079093Y-105065620D01*
X123111724Y-105075940D01*
X123119065Y-105078078D01*
X123158636Y-105087949D01*
X123202541Y-105096185D01*
X123248905Y-105102463D01*
X123276057Y-105105069D01*
X123291633Y-105106040D01*
X123311174Y-105106811D01*
X123333334Y-105107372D01*
X123356767Y-105107715D01*
X123380128Y-105107831D01*
X123402071Y-105107710D01*
X123421251Y-105107345D01*
X123436320Y-105106725D01*
X123443365Y-105106173D01*
X123451357Y-105105032D01*
X123463531Y-105102960D01*
X123477851Y-105100313D01*
X123485346Y-105098852D01*
X123534598Y-105086304D01*
X123579915Y-105068927D01*
X123621742Y-105046487D01*
X123660525Y-105018750D01*
X123691258Y-104991008D01*
X123721551Y-104957267D01*
X123745958Y-104921988D01*
X123764783Y-104884517D01*
X123778327Y-104844203D01*
X123786894Y-104800392D01*
X123789171Y-104779762D01*
X123790568Y-104730406D01*
X123786056Y-104683155D01*
X123783811Y-104673400D01*
X123611359Y-104673400D01*
X123156927Y-104673400D01*
X123159046Y-104664668D01*
X123163893Y-104652190D01*
X123172505Y-104637273D01*
X123183790Y-104621564D01*
X123196651Y-104606712D01*
X123199448Y-104603857D01*
X123217942Y-104588075D01*
X123240418Y-104573022D01*
X123264547Y-104560126D01*
X123283275Y-104552395D01*
X123319167Y-104542726D01*
X123357831Y-104537583D01*
X123397632Y-104536949D01*
X123436937Y-104540805D01*
X123474111Y-104549135D01*
X123490378Y-104554589D01*
X123519593Y-104568035D01*
X123546287Y-104585122D01*
X123569598Y-104605066D01*
X123588664Y-104627080D01*
X123602623Y-104650379D01*
X123606931Y-104660850D01*
X123611359Y-104673400D01*
X123783811Y-104673400D01*
X123775708Y-104638193D01*
X123759598Y-104595705D01*
X123737799Y-104555876D01*
X123710386Y-104518893D01*
X123677431Y-104484939D01*
X123668934Y-104477457D01*
X123635575Y-104451185D01*
X123602340Y-104429883D01*
X123567371Y-104412487D01*
X123531222Y-104398735D01*
X123486589Y-104386613D01*
X123439873Y-104379118D01*
X123392058Y-104376169D01*
X123344124Y-104377684D01*
X123344124Y-104377684D01*
G37*
X123344124Y-104377684D02*
X123297051Y-104383583D01*
X123251822Y-104393783D01*
X123209416Y-104408204D01*
X123170816Y-104426762D01*
X123166903Y-104429018D01*
X123128474Y-104454549D01*
X123093288Y-104483895D01*
X123062041Y-104516297D01*
X123035427Y-104550999D01*
X123014141Y-104587245D01*
X123006515Y-104603786D01*
X122994977Y-104635100D01*
X122986438Y-104667697D01*
X122980688Y-104702799D01*
X122977518Y-104741627D01*
X122976696Y-104777381D01*
X122976640Y-104816275D01*
X123296068Y-104816275D01*
X123348184Y-104816279D01*
X123394312Y-104816296D01*
X123434812Y-104816332D01*
X123470045Y-104816393D01*
X123500373Y-104816486D01*
X123526157Y-104816617D01*
X123547758Y-104816792D01*
X123565538Y-104817018D01*
X123579856Y-104817301D01*
X123591076Y-104817647D01*
X123599557Y-104818063D01*
X123605661Y-104818555D01*
X123609749Y-104819129D01*
X123612182Y-104819791D01*
X123613322Y-104820549D01*
X123613529Y-104821407D01*
X123613414Y-104821831D01*
X123606736Y-104835503D01*
X123596551Y-104851352D01*
X123584206Y-104867459D01*
X123571469Y-104881489D01*
X123546042Y-104902467D01*
X123515794Y-104919672D01*
X123481065Y-104933027D01*
X123442199Y-104942453D01*
X123399536Y-104947874D01*
X123353419Y-104949213D01*
X123304190Y-104946391D01*
X123290946Y-104944969D01*
X123270205Y-104942320D01*
X123250065Y-104939243D01*
X123229273Y-104935489D01*
X123206577Y-104930812D01*
X123180723Y-104924962D01*
X123150459Y-104917690D01*
X123138565Y-104914756D01*
X123108940Y-104907752D01*
X123084518Y-104902860D01*
X123064508Y-104900095D01*
X123048122Y-104899471D01*
X123034568Y-104901005D01*
X123023057Y-104904709D01*
X123012798Y-104910600D01*
X123004571Y-104917247D01*
X122990619Y-104932742D01*
X122982226Y-104949622D01*
X122978682Y-104969467D01*
X122978466Y-104975542D01*
X122978704Y-104987897D01*
X122980234Y-104996571D01*
X122983768Y-105004204D01*
X122987887Y-105010443D01*
X122998546Y-105022992D01*
X123012393Y-105034473D01*
X123030031Y-105045197D01*
X123052063Y-105055476D01*
X123079093Y-105065620D01*
X123111724Y-105075940D01*
X123119065Y-105078078D01*
X123158636Y-105087949D01*
X123202541Y-105096185D01*
X123248905Y-105102463D01*
X123276057Y-105105069D01*
X123291633Y-105106040D01*
X123311174Y-105106811D01*
X123333334Y-105107372D01*
X123356767Y-105107715D01*
X123380128Y-105107831D01*
X123402071Y-105107710D01*
X123421251Y-105107345D01*
X123436320Y-105106725D01*
X123443365Y-105106173D01*
X123451357Y-105105032D01*
X123463531Y-105102960D01*
X123477851Y-105100313D01*
X123485346Y-105098852D01*
X123534598Y-105086304D01*
X123579915Y-105068927D01*
X123621742Y-105046487D01*
X123660525Y-105018750D01*
X123691258Y-104991008D01*
X123721551Y-104957267D01*
X123745958Y-104921988D01*
X123764783Y-104884517D01*
X123778327Y-104844203D01*
X123786894Y-104800392D01*
X123789171Y-104779762D01*
X123790568Y-104730406D01*
X123786056Y-104683155D01*
X123783811Y-104673400D01*
X123611359Y-104673400D01*
X123156927Y-104673400D01*
X123159046Y-104664668D01*
X123163893Y-104652190D01*
X123172505Y-104637273D01*
X123183790Y-104621564D01*
X123196651Y-104606712D01*
X123199448Y-104603857D01*
X123217942Y-104588075D01*
X123240418Y-104573022D01*
X123264547Y-104560126D01*
X123283275Y-104552395D01*
X123319167Y-104542726D01*
X123357831Y-104537583D01*
X123397632Y-104536949D01*
X123436937Y-104540805D01*
X123474111Y-104549135D01*
X123490378Y-104554589D01*
X123519593Y-104568035D01*
X123546287Y-104585122D01*
X123569598Y-104605066D01*
X123588664Y-104627080D01*
X123602623Y-104650379D01*
X123606931Y-104660850D01*
X123611359Y-104673400D01*
X123783811Y-104673400D01*
X123775708Y-104638193D01*
X123759598Y-104595705D01*
X123737799Y-104555876D01*
X123710386Y-104518893D01*
X123677431Y-104484939D01*
X123668934Y-104477457D01*
X123635575Y-104451185D01*
X123602340Y-104429883D01*
X123567371Y-104412487D01*
X123531222Y-104398735D01*
X123486589Y-104386613D01*
X123439873Y-104379118D01*
X123392058Y-104376169D01*
X123344124Y-104377684D01*
G36*
X119636706Y-104376960D02*
X119619672Y-104377245D01*
X119606341Y-104377854D01*
X119595390Y-104378905D01*
X119585495Y-104380519D01*
X119575333Y-104382814D01*
X119566037Y-104385244D01*
X119531444Y-104396679D01*
X119497838Y-104411739D01*
X119467594Y-104429329D01*
X119461915Y-104433225D01*
X119441278Y-104447829D01*
X119439434Y-104397175D01*
X119333356Y-104397175D01*
X119303969Y-104397279D01*
X119277354Y-104397582D01*
X119254201Y-104398062D01*
X119235203Y-104398701D01*
X119221051Y-104399480D01*
X119212437Y-104400379D01*
X119211559Y-104400546D01*
X119190197Y-104407948D01*
X119173006Y-104419807D01*
X119160429Y-104435595D01*
X119152906Y-104454783D01*
X119150814Y-104473375D01*
X119152394Y-104494160D01*
X119157502Y-104510893D01*
X119166642Y-104525104D01*
X119168466Y-104527195D01*
X119181263Y-104538528D01*
X119196755Y-104546664D01*
X119215990Y-104551983D01*
X119240015Y-104554870D01*
X119245097Y-104555169D01*
X119277765Y-104556836D01*
X119277768Y-104833399D01*
X119277790Y-104886792D01*
X119277865Y-104934247D01*
X119278006Y-104976173D01*
X119278230Y-105012981D01*
X119278550Y-105045084D01*
X119278981Y-105072891D01*
X119279538Y-105096813D01*
X119280236Y-105117262D01*
X119281089Y-105134648D01*
X119282112Y-105149382D01*
X119283319Y-105161875D01*
X119284726Y-105172538D01*
X119286347Y-105181782D01*
X119288196Y-105190017D01*
X119290288Y-105197655D01*
X119290837Y-105199474D01*
X119305696Y-105237347D01*
X119325939Y-105272217D01*
X119351172Y-105303714D01*
X119381000Y-105331470D01*
X119415029Y-105355114D01*
X119452865Y-105374278D01*
X119492078Y-105388025D01*
X119498531Y-105389773D01*
X119504765Y-105391216D01*
X119511455Y-105392389D01*
X119519277Y-105393326D01*
X119528907Y-105394059D01*
X119541018Y-105394624D01*
X119556287Y-105395053D01*
X119575388Y-105395380D01*
X119598998Y-105395639D01*
X119627789Y-105395864D01*
X119652415Y-105396025D01*
X119681874Y-105396141D01*
X119709613Y-105396117D01*
X119734917Y-105395962D01*
X119757067Y-105395687D01*
X119775348Y-105395302D01*
X119789042Y-105394817D01*
X119797432Y-105394242D01*
X119799309Y-105393952D01*
X119821440Y-105385939D01*
X119838881Y-105373992D01*
X119851367Y-105358359D01*
X119858634Y-105339286D01*
X119858829Y-105338374D01*
X119861223Y-105315478D01*
X119858890Y-105294190D01*
X119852097Y-105275608D01*
X119841106Y-105260833D01*
X119839928Y-105259734D01*
X119833659Y-105254588D01*
X119826868Y-105250337D01*
X119818906Y-105246896D01*
X119809129Y-105244184D01*
X119796889Y-105242116D01*
X119781542Y-105240610D01*
X119762440Y-105239581D01*
X119738937Y-105238946D01*
X119710388Y-105238622D01*
X119676146Y-105238526D01*
X119675601Y-105238526D01*
X119641659Y-105238440D01*
X119613343Y-105238154D01*
X119589932Y-105237601D01*
X119570705Y-105236713D01*
X119554940Y-105235424D01*
X119541916Y-105233667D01*
X119530909Y-105231374D01*
X119521200Y-105228478D01*
X119512066Y-105224911D01*
X119507561Y-105222889D01*
X119484804Y-105209646D01*
X119466964Y-105193034D01*
X119453111Y-105172160D01*
X119451627Y-105169236D01*
X119441278Y-105148230D01*
X119439178Y-105031590D01*
X119458889Y-105044975D01*
X119482820Y-105059431D01*
X119510544Y-105073249D01*
X119539523Y-105085272D01*
X119566802Y-105094224D01*
X119598278Y-105100760D01*
X119633591Y-105104353D01*
X119670966Y-105105032D01*
X119708628Y-105102827D01*
X119744802Y-105097766D01*
X119774653Y-105090785D01*
X119817180Y-105075321D01*
X119857244Y-105054481D01*
X119894324Y-105028793D01*
X119927900Y-104998788D01*
X119957454Y-104964995D01*
X119982465Y-104927943D01*
X120002413Y-104888161D01*
X120016780Y-104846180D01*
X120017515Y-104843360D01*
X120026980Y-104794406D01*
X120030479Y-104745427D01*
X120030213Y-104740075D01*
X119869286Y-104740075D01*
X119866382Y-104775912D01*
X119857732Y-104809089D01*
X119843262Y-104839803D01*
X119822894Y-104868253D01*
X119818501Y-104873254D01*
X119791010Y-104899116D01*
X119760522Y-104919514D01*
X119727535Y-104934286D01*
X119692545Y-104943271D01*
X119656048Y-104946308D01*
X119618540Y-104943236D01*
X119608625Y-104941405D01*
X119574630Y-104931376D01*
X119543052Y-104916113D01*
X119514518Y-104896209D01*
X119489655Y-104872257D01*
X119469090Y-104844849D01*
X119453450Y-104814579D01*
X119444225Y-104785907D01*
X119440545Y-104760639D01*
X119440246Y-104732743D01*
X119443186Y-104704875D01*
X119449222Y-104679688D01*
X119450072Y-104677188D01*
X119464521Y-104645368D01*
X119484039Y-104616632D01*
X119507910Y-104591436D01*
X119535422Y-104570237D01*
X119565862Y-104553492D01*
X119598514Y-104541658D01*
X119632667Y-104535192D01*
X119667606Y-104534550D01*
X119672272Y-104534928D01*
X119692386Y-104537331D01*
X119709531Y-104540836D01*
X119726140Y-104546133D01*
X119744645Y-104553916D01*
X119753331Y-104557979D01*
X119768518Y-104565709D01*
X119780882Y-104573402D01*
X119792550Y-104582592D01*
X119805648Y-104594811D01*
X119808992Y-104598117D01*
X119832270Y-104624471D01*
X119849565Y-104651552D01*
X119861244Y-104680223D01*
X119867674Y-104711346D01*
X119869286Y-104740075D01*
X120030213Y-104740075D01*
X120028065Y-104697024D01*
X120019792Y-104649799D01*
X120005713Y-104604351D01*
X119993723Y-104576562D01*
X119980634Y-104551445D01*
X119966828Y-104529462D01*
X119951031Y-104508910D01*
X119931966Y-104488084D01*
X119915256Y-104471733D01*
X119880111Y-104442296D01*
X119842564Y-104418364D01*
X119801898Y-104399557D01*
X119757396Y-104385492D01*
X119749442Y-104383556D01*
X119737858Y-104381081D01*
X119726565Y-104379283D01*
X119714223Y-104378062D01*
X119699491Y-104377321D01*
X119681028Y-104376960D01*
X119658765Y-104376879D01*
X119636706Y-104376960D01*
X119636706Y-104376960D01*
G37*
X119636706Y-104376960D02*
X119619672Y-104377245D01*
X119606341Y-104377854D01*
X119595390Y-104378905D01*
X119585495Y-104380519D01*
X119575333Y-104382814D01*
X119566037Y-104385244D01*
X119531444Y-104396679D01*
X119497838Y-104411739D01*
X119467594Y-104429329D01*
X119461915Y-104433225D01*
X119441278Y-104447829D01*
X119439434Y-104397175D01*
X119333356Y-104397175D01*
X119303969Y-104397279D01*
X119277354Y-104397582D01*
X119254201Y-104398062D01*
X119235203Y-104398701D01*
X119221051Y-104399480D01*
X119212437Y-104400379D01*
X119211559Y-104400546D01*
X119190197Y-104407948D01*
X119173006Y-104419807D01*
X119160429Y-104435595D01*
X119152906Y-104454783D01*
X119150814Y-104473375D01*
X119152394Y-104494160D01*
X119157502Y-104510893D01*
X119166642Y-104525104D01*
X119168466Y-104527195D01*
X119181263Y-104538528D01*
X119196755Y-104546664D01*
X119215990Y-104551983D01*
X119240015Y-104554870D01*
X119245097Y-104555169D01*
X119277765Y-104556836D01*
X119277768Y-104833399D01*
X119277790Y-104886792D01*
X119277865Y-104934247D01*
X119278006Y-104976173D01*
X119278230Y-105012981D01*
X119278550Y-105045084D01*
X119278981Y-105072891D01*
X119279538Y-105096813D01*
X119280236Y-105117262D01*
X119281089Y-105134648D01*
X119282112Y-105149382D01*
X119283319Y-105161875D01*
X119284726Y-105172538D01*
X119286347Y-105181782D01*
X119288196Y-105190017D01*
X119290288Y-105197655D01*
X119290837Y-105199474D01*
X119305696Y-105237347D01*
X119325939Y-105272217D01*
X119351172Y-105303714D01*
X119381000Y-105331470D01*
X119415029Y-105355114D01*
X119452865Y-105374278D01*
X119492078Y-105388025D01*
X119498531Y-105389773D01*
X119504765Y-105391216D01*
X119511455Y-105392389D01*
X119519277Y-105393326D01*
X119528907Y-105394059D01*
X119541018Y-105394624D01*
X119556287Y-105395053D01*
X119575388Y-105395380D01*
X119598998Y-105395639D01*
X119627789Y-105395864D01*
X119652415Y-105396025D01*
X119681874Y-105396141D01*
X119709613Y-105396117D01*
X119734917Y-105395962D01*
X119757067Y-105395687D01*
X119775348Y-105395302D01*
X119789042Y-105394817D01*
X119797432Y-105394242D01*
X119799309Y-105393952D01*
X119821440Y-105385939D01*
X119838881Y-105373992D01*
X119851367Y-105358359D01*
X119858634Y-105339286D01*
X119858829Y-105338374D01*
X119861223Y-105315478D01*
X119858890Y-105294190D01*
X119852097Y-105275608D01*
X119841106Y-105260833D01*
X119839928Y-105259734D01*
X119833659Y-105254588D01*
X119826868Y-105250337D01*
X119818906Y-105246896D01*
X119809129Y-105244184D01*
X119796889Y-105242116D01*
X119781542Y-105240610D01*
X119762440Y-105239581D01*
X119738937Y-105238946D01*
X119710388Y-105238622D01*
X119676146Y-105238526D01*
X119675601Y-105238526D01*
X119641659Y-105238440D01*
X119613343Y-105238154D01*
X119589932Y-105237601D01*
X119570705Y-105236713D01*
X119554940Y-105235424D01*
X119541916Y-105233667D01*
X119530909Y-105231374D01*
X119521200Y-105228478D01*
X119512066Y-105224911D01*
X119507561Y-105222889D01*
X119484804Y-105209646D01*
X119466964Y-105193034D01*
X119453111Y-105172160D01*
X119451627Y-105169236D01*
X119441278Y-105148230D01*
X119439178Y-105031590D01*
X119458889Y-105044975D01*
X119482820Y-105059431D01*
X119510544Y-105073249D01*
X119539523Y-105085272D01*
X119566802Y-105094224D01*
X119598278Y-105100760D01*
X119633591Y-105104353D01*
X119670966Y-105105032D01*
X119708628Y-105102827D01*
X119744802Y-105097766D01*
X119774653Y-105090785D01*
X119817180Y-105075321D01*
X119857244Y-105054481D01*
X119894324Y-105028793D01*
X119927900Y-104998788D01*
X119957454Y-104964995D01*
X119982465Y-104927943D01*
X120002413Y-104888161D01*
X120016780Y-104846180D01*
X120017515Y-104843360D01*
X120026980Y-104794406D01*
X120030479Y-104745427D01*
X120030213Y-104740075D01*
X119869286Y-104740075D01*
X119866382Y-104775912D01*
X119857732Y-104809089D01*
X119843262Y-104839803D01*
X119822894Y-104868253D01*
X119818501Y-104873254D01*
X119791010Y-104899116D01*
X119760522Y-104919514D01*
X119727535Y-104934286D01*
X119692545Y-104943271D01*
X119656048Y-104946308D01*
X119618540Y-104943236D01*
X119608625Y-104941405D01*
X119574630Y-104931376D01*
X119543052Y-104916113D01*
X119514518Y-104896209D01*
X119489655Y-104872257D01*
X119469090Y-104844849D01*
X119453450Y-104814579D01*
X119444225Y-104785907D01*
X119440545Y-104760639D01*
X119440246Y-104732743D01*
X119443186Y-104704875D01*
X119449222Y-104679688D01*
X119450072Y-104677188D01*
X119464521Y-104645368D01*
X119484039Y-104616632D01*
X119507910Y-104591436D01*
X119535422Y-104570237D01*
X119565862Y-104553492D01*
X119598514Y-104541658D01*
X119632667Y-104535192D01*
X119667606Y-104534550D01*
X119672272Y-104534928D01*
X119692386Y-104537331D01*
X119709531Y-104540836D01*
X119726140Y-104546133D01*
X119744645Y-104553916D01*
X119753331Y-104557979D01*
X119768518Y-104565709D01*
X119780882Y-104573402D01*
X119792550Y-104582592D01*
X119805648Y-104594811D01*
X119808992Y-104598117D01*
X119832270Y-104624471D01*
X119849565Y-104651552D01*
X119861244Y-104680223D01*
X119867674Y-104711346D01*
X119869286Y-104740075D01*
X120030213Y-104740075D01*
X120028065Y-104697024D01*
X120019792Y-104649799D01*
X120005713Y-104604351D01*
X119993723Y-104576562D01*
X119980634Y-104551445D01*
X119966828Y-104529462D01*
X119951031Y-104508910D01*
X119931966Y-104488084D01*
X119915256Y-104471733D01*
X119880111Y-104442296D01*
X119842564Y-104418364D01*
X119801898Y-104399557D01*
X119757396Y-104385492D01*
X119749442Y-104383556D01*
X119737858Y-104381081D01*
X119726565Y-104379283D01*
X119714223Y-104378062D01*
X119699491Y-104377321D01*
X119681028Y-104376960D01*
X119658765Y-104376879D01*
X119636706Y-104376960D01*
G36*
X122628490Y-104397413D02*
X122613531Y-104397609D01*
X122601880Y-104398018D01*
X122592778Y-104398673D01*
X122585465Y-104399607D01*
X122579180Y-104400851D01*
X122573163Y-104402441D01*
X122569875Y-104403418D01*
X122550503Y-104411220D01*
X122536206Y-104421661D01*
X122526590Y-104435373D01*
X122521263Y-104452990D01*
X122519831Y-104475147D01*
X122520144Y-104483522D01*
X122521439Y-104497970D01*
X122523749Y-104508370D01*
X122527681Y-104517015D01*
X122529947Y-104520653D01*
X122543109Y-104534856D01*
X122561329Y-104545579D01*
X122584214Y-104552593D01*
X122586115Y-104552965D01*
X122596719Y-104555036D01*
X122604471Y-104556686D01*
X122607639Y-104557540D01*
X122606489Y-104560462D01*
X122602713Y-104568419D01*
X122596617Y-104580814D01*
X122588509Y-104597051D01*
X122578694Y-104616532D01*
X122567480Y-104638660D01*
X122555173Y-104662839D01*
X122542080Y-104688471D01*
X122528508Y-104714959D01*
X122514763Y-104741707D01*
X122501152Y-104768118D01*
X122487982Y-104793594D01*
X122475559Y-104817539D01*
X122464191Y-104839356D01*
X122454183Y-104858448D01*
X122445844Y-104874218D01*
X122439478Y-104886068D01*
X122435393Y-104893403D01*
X122433919Y-104895650D01*
X122432038Y-104892930D01*
X122427427Y-104885095D01*
X122420353Y-104872625D01*
X122411081Y-104856003D01*
X122399879Y-104835711D01*
X122387012Y-104812231D01*
X122372746Y-104786047D01*
X122357348Y-104757639D01*
X122341084Y-104727491D01*
X122340594Y-104726581D01*
X122249611Y-104557512D01*
X122267731Y-104555160D01*
X122293819Y-104549569D01*
X122314816Y-104540263D01*
X122330672Y-104527298D01*
X122341338Y-104510728D01*
X122346764Y-104490611D01*
X122346900Y-104467000D01*
X122346836Y-104466371D01*
X122343797Y-104449072D01*
X122338120Y-104435531D01*
X122328696Y-104423345D01*
X122325538Y-104420143D01*
X122319931Y-104414918D01*
X122314375Y-104410630D01*
X122308193Y-104407181D01*
X122300708Y-104404469D01*
X122291241Y-104402394D01*
X122279114Y-104400856D01*
X122263652Y-104399755D01*
X122244175Y-104398989D01*
X122220005Y-104398460D01*
X122190467Y-104398066D01*
X122175353Y-104397908D01*
X122145690Y-104397628D01*
X122121624Y-104397466D01*
X122102404Y-104397454D01*
X122087275Y-104397623D01*
X122075487Y-104398003D01*
X122066288Y-104398628D01*
X122058924Y-104399526D01*
X122052643Y-104400731D01*
X122046694Y-104402273D01*
X122042817Y-104403420D01*
X122022833Y-104411721D01*
X122008238Y-104423004D01*
X121998642Y-104437619D01*
X121995730Y-104445799D01*
X121993089Y-104461690D01*
X121992863Y-104479784D01*
X121994879Y-104497579D01*
X121998964Y-104512570D01*
X122000613Y-104516237D01*
X122010414Y-104529278D01*
X122024852Y-104540635D01*
X122042236Y-104549178D01*
X122055363Y-104552899D01*
X122073546Y-104556476D01*
X122252043Y-104895592D01*
X122274766Y-104938772D01*
X122296649Y-104980383D01*
X122317515Y-105020079D01*
X122337181Y-105057517D01*
X122355468Y-105092353D01*
X122372195Y-105124241D01*
X122387182Y-105152839D01*
X122400248Y-105177802D01*
X122411213Y-105198786D01*
X122419897Y-105215445D01*
X122426119Y-105227437D01*
X122429698Y-105234417D01*
X122430540Y-105236158D01*
X122427626Y-105237067D01*
X122419896Y-105238176D01*
X122408874Y-105239278D01*
X122405934Y-105239516D01*
X122380620Y-105242888D01*
X122360641Y-105248822D01*
X122345410Y-105257594D01*
X122334337Y-105269482D01*
X122331162Y-105274753D01*
X122327579Y-105282773D01*
X122325443Y-105291576D01*
X122324428Y-105303118D01*
X122324201Y-105316337D01*
X122324402Y-105330751D01*
X122325304Y-105340840D01*
X122327309Y-105348620D01*
X122330822Y-105356109D01*
X122332881Y-105359717D01*
X122342248Y-105372382D01*
X122354186Y-105381865D01*
X122370218Y-105389227D01*
X122379523Y-105392234D01*
X122383677Y-105393268D01*
X122388891Y-105394153D01*
X122395649Y-105394899D01*
X122404437Y-105395517D01*
X122415739Y-105396019D01*
X122430041Y-105396414D01*
X122447829Y-105396714D01*
X122469586Y-105396929D01*
X122495798Y-105397070D01*
X122526950Y-105397148D01*
X122563528Y-105397173D01*
X122601773Y-105397160D01*
X122644398Y-105397110D01*
X122681119Y-105397014D01*
X122712379Y-105396863D01*
X122738624Y-105396649D01*
X122760299Y-105396361D01*
X122777848Y-105395990D01*
X122791717Y-105395527D01*
X122802351Y-105394962D01*
X122810194Y-105394287D01*
X122815692Y-105393490D01*
X122819289Y-105392564D01*
X122819294Y-105392562D01*
X122834627Y-105385438D01*
X122846623Y-105375520D01*
X122857365Y-105361076D01*
X122857578Y-105360735D01*
X122862644Y-105351679D01*
X122865697Y-105343117D01*
X122867346Y-105332691D01*
X122868130Y-105319766D01*
X122868400Y-105305883D01*
X122867631Y-105296077D01*
X122865454Y-105288113D01*
X122861536Y-105279825D01*
X122854196Y-105269194D01*
X122844852Y-105259533D01*
X122841459Y-105256885D01*
X122833667Y-105251944D01*
X122825479Y-105247961D01*
X122816132Y-105244837D01*
X122804860Y-105242472D01*
X122790899Y-105240766D01*
X122773484Y-105239621D01*
X122751851Y-105238937D01*
X122725234Y-105238614D01*
X122700387Y-105238550D01*
X122609618Y-105238550D01*
X122566910Y-105158565D01*
X122555961Y-105137959D01*
X122546094Y-105119198D01*
X122537680Y-105103003D01*
X122531090Y-105090093D01*
X122526694Y-105081189D01*
X122524863Y-105077013D01*
X122524838Y-105076809D01*
X122526352Y-105073790D01*
X122530571Y-105065524D01*
X122537289Y-105052411D01*
X122546302Y-105034848D01*
X122557405Y-105013233D01*
X122570393Y-104987965D01*
X122585062Y-104959441D01*
X122601207Y-104928060D01*
X122618623Y-104894221D01*
X122637105Y-104858321D01*
X122656450Y-104820759D01*
X122658760Y-104816275D01*
X122792047Y-104557512D01*
X122805763Y-104553880D01*
X122828553Y-104546045D01*
X122845736Y-104535793D01*
X122857781Y-104522544D01*
X122865159Y-104505720D01*
X122868341Y-104484741D01*
X122868551Y-104476550D01*
X122866897Y-104454593D01*
X122861534Y-104437185D01*
X122851863Y-104423339D01*
X122837286Y-104412067D01*
X122825788Y-104406061D01*
X122821347Y-104404103D01*
X122816923Y-104402523D01*
X122811797Y-104401272D01*
X122805249Y-104400303D01*
X122796560Y-104399568D01*
X122785009Y-104399019D01*
X122769877Y-104398609D01*
X122750444Y-104398289D01*
X122725990Y-104398012D01*
X122700823Y-104397776D01*
X122671376Y-104397530D01*
X122647518Y-104397397D01*
X122628490Y-104397413D01*
X122628490Y-104397413D01*
G37*
X122628490Y-104397413D02*
X122613531Y-104397609D01*
X122601880Y-104398018D01*
X122592778Y-104398673D01*
X122585465Y-104399607D01*
X122579180Y-104400851D01*
X122573163Y-104402441D01*
X122569875Y-104403418D01*
X122550503Y-104411220D01*
X122536206Y-104421661D01*
X122526590Y-104435373D01*
X122521263Y-104452990D01*
X122519831Y-104475147D01*
X122520144Y-104483522D01*
X122521439Y-104497970D01*
X122523749Y-104508370D01*
X122527681Y-104517015D01*
X122529947Y-104520653D01*
X122543109Y-104534856D01*
X122561329Y-104545579D01*
X122584214Y-104552593D01*
X122586115Y-104552965D01*
X122596719Y-104555036D01*
X122604471Y-104556686D01*
X122607639Y-104557540D01*
X122606489Y-104560462D01*
X122602713Y-104568419D01*
X122596617Y-104580814D01*
X122588509Y-104597051D01*
X122578694Y-104616532D01*
X122567480Y-104638660D01*
X122555173Y-104662839D01*
X122542080Y-104688471D01*
X122528508Y-104714959D01*
X122514763Y-104741707D01*
X122501152Y-104768118D01*
X122487982Y-104793594D01*
X122475559Y-104817539D01*
X122464191Y-104839356D01*
X122454183Y-104858448D01*
X122445844Y-104874218D01*
X122439478Y-104886068D01*
X122435393Y-104893403D01*
X122433919Y-104895650D01*
X122432038Y-104892930D01*
X122427427Y-104885095D01*
X122420353Y-104872625D01*
X122411081Y-104856003D01*
X122399879Y-104835711D01*
X122387012Y-104812231D01*
X122372746Y-104786047D01*
X122357348Y-104757639D01*
X122341084Y-104727491D01*
X122340594Y-104726581D01*
X122249611Y-104557512D01*
X122267731Y-104555160D01*
X122293819Y-104549569D01*
X122314816Y-104540263D01*
X122330672Y-104527298D01*
X122341338Y-104510728D01*
X122346764Y-104490611D01*
X122346900Y-104467000D01*
X122346836Y-104466371D01*
X122343797Y-104449072D01*
X122338120Y-104435531D01*
X122328696Y-104423345D01*
X122325538Y-104420143D01*
X122319931Y-104414918D01*
X122314375Y-104410630D01*
X122308193Y-104407181D01*
X122300708Y-104404469D01*
X122291241Y-104402394D01*
X122279114Y-104400856D01*
X122263652Y-104399755D01*
X122244175Y-104398989D01*
X122220005Y-104398460D01*
X122190467Y-104398066D01*
X122175353Y-104397908D01*
X122145690Y-104397628D01*
X122121624Y-104397466D01*
X122102404Y-104397454D01*
X122087275Y-104397623D01*
X122075487Y-104398003D01*
X122066288Y-104398628D01*
X122058924Y-104399526D01*
X122052643Y-104400731D01*
X122046694Y-104402273D01*
X122042817Y-104403420D01*
X122022833Y-104411721D01*
X122008238Y-104423004D01*
X121998642Y-104437619D01*
X121995730Y-104445799D01*
X121993089Y-104461690D01*
X121992863Y-104479784D01*
X121994879Y-104497579D01*
X121998964Y-104512570D01*
X122000613Y-104516237D01*
X122010414Y-104529278D01*
X122024852Y-104540635D01*
X122042236Y-104549178D01*
X122055363Y-104552899D01*
X122073546Y-104556476D01*
X122252043Y-104895592D01*
X122274766Y-104938772D01*
X122296649Y-104980383D01*
X122317515Y-105020079D01*
X122337181Y-105057517D01*
X122355468Y-105092353D01*
X122372195Y-105124241D01*
X122387182Y-105152839D01*
X122400248Y-105177802D01*
X122411213Y-105198786D01*
X122419897Y-105215445D01*
X122426119Y-105227437D01*
X122429698Y-105234417D01*
X122430540Y-105236158D01*
X122427626Y-105237067D01*
X122419896Y-105238176D01*
X122408874Y-105239278D01*
X122405934Y-105239516D01*
X122380620Y-105242888D01*
X122360641Y-105248822D01*
X122345410Y-105257594D01*
X122334337Y-105269482D01*
X122331162Y-105274753D01*
X122327579Y-105282773D01*
X122325443Y-105291576D01*
X122324428Y-105303118D01*
X122324201Y-105316337D01*
X122324402Y-105330751D01*
X122325304Y-105340840D01*
X122327309Y-105348620D01*
X122330822Y-105356109D01*
X122332881Y-105359717D01*
X122342248Y-105372382D01*
X122354186Y-105381865D01*
X122370218Y-105389227D01*
X122379523Y-105392234D01*
X122383677Y-105393268D01*
X122388891Y-105394153D01*
X122395649Y-105394899D01*
X122404437Y-105395517D01*
X122415739Y-105396019D01*
X122430041Y-105396414D01*
X122447829Y-105396714D01*
X122469586Y-105396929D01*
X122495798Y-105397070D01*
X122526950Y-105397148D01*
X122563528Y-105397173D01*
X122601773Y-105397160D01*
X122644398Y-105397110D01*
X122681119Y-105397014D01*
X122712379Y-105396863D01*
X122738624Y-105396649D01*
X122760299Y-105396361D01*
X122777848Y-105395990D01*
X122791717Y-105395527D01*
X122802351Y-105394962D01*
X122810194Y-105394287D01*
X122815692Y-105393490D01*
X122819289Y-105392564D01*
X122819294Y-105392562D01*
X122834627Y-105385438D01*
X122846623Y-105375520D01*
X122857365Y-105361076D01*
X122857578Y-105360735D01*
X122862644Y-105351679D01*
X122865697Y-105343117D01*
X122867346Y-105332691D01*
X122868130Y-105319766D01*
X122868400Y-105305883D01*
X122867631Y-105296077D01*
X122865454Y-105288113D01*
X122861536Y-105279825D01*
X122854196Y-105269194D01*
X122844852Y-105259533D01*
X122841459Y-105256885D01*
X122833667Y-105251944D01*
X122825479Y-105247961D01*
X122816132Y-105244837D01*
X122804860Y-105242472D01*
X122790899Y-105240766D01*
X122773484Y-105239621D01*
X122751851Y-105238937D01*
X122725234Y-105238614D01*
X122700387Y-105238550D01*
X122609618Y-105238550D01*
X122566910Y-105158565D01*
X122555961Y-105137959D01*
X122546094Y-105119198D01*
X122537680Y-105103003D01*
X122531090Y-105090093D01*
X122526694Y-105081189D01*
X122524863Y-105077013D01*
X122524838Y-105076809D01*
X122526352Y-105073790D01*
X122530571Y-105065524D01*
X122537289Y-105052411D01*
X122546302Y-105034848D01*
X122557405Y-105013233D01*
X122570393Y-104987965D01*
X122585062Y-104959441D01*
X122601207Y-104928060D01*
X122618623Y-104894221D01*
X122637105Y-104858321D01*
X122656450Y-104820759D01*
X122658760Y-104816275D01*
X122792047Y-104557512D01*
X122805763Y-104553880D01*
X122828553Y-104546045D01*
X122845736Y-104535793D01*
X122857781Y-104522544D01*
X122865159Y-104505720D01*
X122868341Y-104484741D01*
X122868551Y-104476550D01*
X122866897Y-104454593D01*
X122861534Y-104437185D01*
X122851863Y-104423339D01*
X122837286Y-104412067D01*
X122825788Y-104406061D01*
X122821347Y-104404103D01*
X122816923Y-104402523D01*
X122811797Y-104401272D01*
X122805249Y-104400303D01*
X122796560Y-104399568D01*
X122785009Y-104399019D01*
X122769877Y-104398609D01*
X122750444Y-104398289D01*
X122725990Y-104398012D01*
X122700823Y-104397776D01*
X122671376Y-104397530D01*
X122647518Y-104397397D01*
X122628490Y-104397413D01*
D11*
G36*
X131832300Y-135222681D02*
X132087062Y-135274977D01*
X132326829Y-135375765D01*
X132542445Y-135521200D01*
X132725707Y-135705745D01*
X132869632Y-135922372D01*
X132968742Y-136162828D01*
X133019189Y-136417610D01*
X133019189Y-136417615D01*
X133019257Y-136417959D01*
X133015109Y-136715021D01*
X133015032Y-136715359D01*
X133015032Y-136715368D01*
X132957490Y-136968643D01*
X132851707Y-137206235D01*
X132701786Y-137418760D01*
X132513442Y-137598118D01*
X132293847Y-137737478D01*
X132051367Y-137831529D01*
X131795239Y-137876692D01*
X131535213Y-137871245D01*
X131281197Y-137815396D01*
X131042867Y-137711272D01*
X130829304Y-137562842D01*
X130648636Y-137375755D01*
X130507747Y-137157138D01*
X130412003Y-136915315D01*
X130365055Y-136659513D01*
X130368685Y-136399456D01*
X130422760Y-136145055D01*
X130525216Y-135906006D01*
X130672155Y-135691409D01*
X130857974Y-135509440D01*
X131075603Y-135367028D01*
X131316748Y-135269599D01*
X131572219Y-135220866D01*
X131832300Y-135222681D01*
X131832300Y-135222681D01*
G37*
G36*
X111192300Y-132540681D02*
X111447062Y-132592977D01*
X111686829Y-132693765D01*
X111902445Y-132839200D01*
X112085707Y-133023745D01*
X112229632Y-133240372D01*
X112328742Y-133480828D01*
X112379189Y-133735610D01*
X112379189Y-133735615D01*
X112379257Y-133735959D01*
X112375109Y-134033021D01*
X112375032Y-134033359D01*
X112375032Y-134033368D01*
X112317490Y-134286643D01*
X112211707Y-134524235D01*
X112061786Y-134736760D01*
X111873442Y-134916118D01*
X111653847Y-135055478D01*
X111411367Y-135149529D01*
X111155239Y-135194692D01*
X110895213Y-135189245D01*
X110641197Y-135133396D01*
X110402867Y-135029272D01*
X110189304Y-134880842D01*
X110008636Y-134693755D01*
X109867747Y-134475138D01*
X109772003Y-134233315D01*
X109725055Y-133977513D01*
X109728685Y-133717456D01*
X109782760Y-133463055D01*
X109885216Y-133224006D01*
X110032155Y-133009409D01*
X110217974Y-132827440D01*
X110435603Y-132685028D01*
X110676748Y-132587599D01*
X110932219Y-132538866D01*
X111192300Y-132540681D01*
X111192300Y-132540681D01*
G37*
G36*
X130979300Y-123868681D02*
X131234062Y-123920977D01*
X131473829Y-124021765D01*
X131689445Y-124167200D01*
X131872707Y-124351745D01*
X132016632Y-124568372D01*
X132115742Y-124808828D01*
X132166189Y-125063610D01*
X132166189Y-125063615D01*
X132166257Y-125063959D01*
X132162109Y-125361021D01*
X132162032Y-125361359D01*
X132162032Y-125361368D01*
X132104490Y-125614643D01*
X131998707Y-125852235D01*
X131848786Y-126064760D01*
X131660442Y-126244118D01*
X131440847Y-126383478D01*
X131198367Y-126477529D01*
X130942239Y-126522692D01*
X130682213Y-126517245D01*
X130428197Y-126461396D01*
X130189867Y-126357272D01*
X129976304Y-126208842D01*
X129795636Y-126021755D01*
X129654747Y-125803138D01*
X129559003Y-125561315D01*
X129512055Y-125305513D01*
X129515685Y-125045456D01*
X129569760Y-124791055D01*
X129672216Y-124552006D01*
X129819155Y-124337409D01*
X130004974Y-124155440D01*
X130222603Y-124013028D01*
X130463748Y-123915599D01*
X130719219Y-123866866D01*
X130979300Y-123868681D01*
X130979300Y-123868681D01*
G37*
G36*
X104233300Y-121283681D02*
X104488062Y-121335977D01*
X104727829Y-121436765D01*
X104943445Y-121582200D01*
X105126707Y-121766745D01*
X105270632Y-121983372D01*
X105369742Y-122223828D01*
X105420189Y-122478610D01*
X105420189Y-122478615D01*
X105420257Y-122478959D01*
X105416109Y-122776021D01*
X105416032Y-122776359D01*
X105416032Y-122776368D01*
X105358490Y-123029643D01*
X105252707Y-123267235D01*
X105102786Y-123479760D01*
X104914442Y-123659118D01*
X104694847Y-123798478D01*
X104452367Y-123892529D01*
X104196239Y-123937692D01*
X103936213Y-123932245D01*
X103682197Y-123876396D01*
X103443867Y-123772272D01*
X103230304Y-123623842D01*
X103049636Y-123436755D01*
X102908747Y-123218138D01*
X102813003Y-122976315D01*
X102766055Y-122720513D01*
X102769685Y-122460456D01*
X102823760Y-122206055D01*
X102926216Y-121967006D01*
X103073155Y-121752409D01*
X103258974Y-121570440D01*
X103476603Y-121428028D01*
X103717748Y-121330599D01*
X103973219Y-121281866D01*
X104233300Y-121283681D01*
X104233300Y-121283681D01*
G37*
G36*
X156922300Y-116213681D02*
X157177062Y-116265977D01*
X157416829Y-116366765D01*
X157632445Y-116512200D01*
X157815707Y-116696745D01*
X157959632Y-116913372D01*
X158058742Y-117153828D01*
X158109189Y-117408610D01*
X158109189Y-117408615D01*
X158109257Y-117408959D01*
X158105109Y-117706021D01*
X158105032Y-117706359D01*
X158105032Y-117706368D01*
X158047490Y-117959643D01*
X157941707Y-118197235D01*
X157791786Y-118409760D01*
X157603442Y-118589118D01*
X157383847Y-118728478D01*
X157141367Y-118822529D01*
X156885239Y-118867692D01*
X156625213Y-118862245D01*
X156371197Y-118806396D01*
X156132867Y-118702272D01*
X155919304Y-118553842D01*
X155738636Y-118366755D01*
X155597747Y-118148138D01*
X155502003Y-117906315D01*
X155455055Y-117650513D01*
X155458685Y-117390456D01*
X155512760Y-117136055D01*
X155615216Y-116897006D01*
X155762155Y-116682409D01*
X155947974Y-116500440D01*
X156165603Y-116358028D01*
X156406748Y-116260599D01*
X156662219Y-116211866D01*
X156922300Y-116213681D01*
X156922300Y-116213681D01*
G37*
G36*
X148921300Y-115024681D02*
X149176062Y-115076977D01*
X149415829Y-115177765D01*
X149631445Y-115323200D01*
X149814707Y-115507745D01*
X149958632Y-115724372D01*
X150057742Y-115964828D01*
X150108189Y-116219610D01*
X150108189Y-116219615D01*
X150108257Y-116219959D01*
X150104109Y-116517021D01*
X150104032Y-116517359D01*
X150104032Y-116517368D01*
X150046490Y-116770643D01*
X149940707Y-117008235D01*
X149790786Y-117220760D01*
X149602442Y-117400118D01*
X149382847Y-117539478D01*
X149140367Y-117633529D01*
X148884239Y-117678692D01*
X148624213Y-117673245D01*
X148370197Y-117617396D01*
X148131867Y-117513272D01*
X147918304Y-117364842D01*
X147737636Y-117177755D01*
X147596747Y-116959138D01*
X147501003Y-116717315D01*
X147454055Y-116461513D01*
X147457685Y-116201456D01*
X147511760Y-115947055D01*
X147614216Y-115708006D01*
X147761155Y-115493409D01*
X147946974Y-115311440D01*
X148164603Y-115169028D01*
X148405748Y-115071599D01*
X148661219Y-115022866D01*
X148921300Y-115024681D01*
X148921300Y-115024681D01*
G37*
G36*
X105111300Y-113398681D02*
X105366062Y-113450977D01*
X105605829Y-113551765D01*
X105821445Y-113697200D01*
X106004707Y-113881745D01*
X106148632Y-114098372D01*
X106247742Y-114338828D01*
X106298189Y-114593610D01*
X106298189Y-114593615D01*
X106298257Y-114593959D01*
X106294109Y-114891021D01*
X106294032Y-114891359D01*
X106294032Y-114891368D01*
X106236490Y-115144643D01*
X106130707Y-115382235D01*
X105980786Y-115594760D01*
X105792442Y-115774118D01*
X105572847Y-115913478D01*
X105330367Y-116007529D01*
X105074239Y-116052692D01*
X104814213Y-116047245D01*
X104560197Y-115991396D01*
X104321867Y-115887272D01*
X104108304Y-115738842D01*
X103927636Y-115551755D01*
X103786747Y-115333138D01*
X103691003Y-115091315D01*
X103644055Y-114835513D01*
X103647685Y-114575456D01*
X103701760Y-114321055D01*
X103804216Y-114082006D01*
X103951155Y-113867409D01*
X104136974Y-113685440D01*
X104354603Y-113543028D01*
X104595748Y-113445599D01*
X104851219Y-113396866D01*
X105111300Y-113398681D01*
X105111300Y-113398681D01*
G37*
G36*
X170034300Y-103000681D02*
X170289062Y-103052977D01*
X170528829Y-103153765D01*
X170744445Y-103299200D01*
X170927707Y-103483745D01*
X171071632Y-103700372D01*
X171170742Y-103940828D01*
X171221189Y-104195610D01*
X171221189Y-104195615D01*
X171221257Y-104195959D01*
X171217109Y-104493021D01*
X171217032Y-104493359D01*
X171217032Y-104493368D01*
X171159490Y-104746643D01*
X171053707Y-104984235D01*
X170903786Y-105196760D01*
X170715442Y-105376118D01*
X170495847Y-105515478D01*
X170253367Y-105609529D01*
X169997239Y-105654692D01*
X169737213Y-105649245D01*
X169483197Y-105593396D01*
X169244867Y-105489272D01*
X169031304Y-105340842D01*
X168850636Y-105153755D01*
X168709747Y-104935138D01*
X168614003Y-104693315D01*
X168567055Y-104437513D01*
X168570685Y-104177456D01*
X168624760Y-103923055D01*
X168727216Y-103684006D01*
X168874155Y-103469409D01*
X169059974Y-103287440D01*
X169277603Y-103145028D01*
X169518748Y-103047599D01*
X169774219Y-102998866D01*
X170034300Y-103000681D01*
X170034300Y-103000681D01*
G37*
G36*
X150483394Y-102372993D02*
X150712721Y-102420068D01*
X150928551Y-102510794D01*
X151122638Y-102641708D01*
X151287610Y-102807834D01*
X151417164Y-103002831D01*
X151506379Y-103219281D01*
X151551783Y-103448593D01*
X151551783Y-103448598D01*
X151551851Y-103448942D01*
X151548117Y-103716347D01*
X151548040Y-103716685D01*
X151548040Y-103716693D01*
X151496250Y-103944649D01*
X151401028Y-104158521D01*
X151266075Y-104349829D01*
X151096534Y-104511281D01*
X150898863Y-104636726D01*
X150680588Y-104721389D01*
X150450033Y-104762043D01*
X150215965Y-104757140D01*
X149987309Y-104706866D01*
X149772772Y-104613138D01*
X149580534Y-104479529D01*
X149417898Y-104311114D01*
X149291076Y-104114325D01*
X149204890Y-103896644D01*
X149162629Y-103666380D01*
X149165897Y-103432286D01*
X149214574Y-103203283D01*
X149306801Y-102988099D01*
X149439070Y-102794926D01*
X149606338Y-102631124D01*
X149802241Y-102502929D01*
X150019311Y-102415227D01*
X150249277Y-102371359D01*
X150483394Y-102372993D01*
X150483394Y-102372993D01*
G37*
G36*
X134737280Y-103439420D02*
X133084880Y-103439420D01*
X133084880Y-99887020D01*
X134737280Y-99887020D01*
X134737280Y-103439420D01*
X134737280Y-103439420D01*
G37*
G36*
X128037280Y-103439420D02*
X126384880Y-103439420D01*
X126384880Y-99887020D01*
X128037280Y-99887020D01*
X128037280Y-103439420D01*
X128037280Y-103439420D01*
G37*
G36*
X114048394Y-100708993D02*
X114277721Y-100756068D01*
X114493551Y-100846794D01*
X114687638Y-100977708D01*
X114852610Y-101143834D01*
X114982164Y-101338831D01*
X115071379Y-101555281D01*
X115116783Y-101784593D01*
X115116783Y-101784598D01*
X115116851Y-101784942D01*
X115113117Y-102052347D01*
X115113040Y-102052685D01*
X115113040Y-102052693D01*
X115061250Y-102280649D01*
X114966028Y-102494521D01*
X114831075Y-102685829D01*
X114661534Y-102847281D01*
X114463863Y-102972726D01*
X114245588Y-103057389D01*
X114015033Y-103098043D01*
X113780965Y-103093140D01*
X113552309Y-103042866D01*
X113337772Y-102949138D01*
X113145534Y-102815529D01*
X112982898Y-102647114D01*
X112856076Y-102450325D01*
X112769890Y-102232644D01*
X112727629Y-102002380D01*
X112730897Y-101768286D01*
X112779574Y-101539283D01*
X112871801Y-101324099D01*
X113004070Y-101130926D01*
X113171338Y-100967124D01*
X113367241Y-100838929D01*
X113584311Y-100751227D01*
X113814277Y-100707359D01*
X114048394Y-100708993D01*
X114048394Y-100708993D01*
G37*
G36*
X148353394Y-100132993D02*
X148582721Y-100180068D01*
X148798551Y-100270794D01*
X148992638Y-100401708D01*
X149157610Y-100567834D01*
X149287164Y-100762831D01*
X149376379Y-100979281D01*
X149421783Y-101208593D01*
X149421783Y-101208598D01*
X149421851Y-101208942D01*
X149418117Y-101476347D01*
X149418040Y-101476685D01*
X149418040Y-101476693D01*
X149366250Y-101704649D01*
X149271028Y-101918521D01*
X149136075Y-102109829D01*
X148966534Y-102271281D01*
X148768863Y-102396726D01*
X148550588Y-102481389D01*
X148320033Y-102522043D01*
X148085965Y-102517140D01*
X147857309Y-102466866D01*
X147642772Y-102373138D01*
X147450534Y-102239529D01*
X147287898Y-102071114D01*
X147161076Y-101874325D01*
X147074890Y-101656644D01*
X147032629Y-101426380D01*
X147035897Y-101192286D01*
X147084574Y-100963283D01*
X147176801Y-100748099D01*
X147309070Y-100554926D01*
X147476338Y-100391124D01*
X147672241Y-100262929D01*
X147889311Y-100175227D01*
X148119277Y-100131359D01*
X148353394Y-100132993D01*
X148353394Y-100132993D01*
G37*
G36*
X115938394Y-98245693D02*
X116167721Y-98292768D01*
X116383551Y-98383494D01*
X116577638Y-98514408D01*
X116742610Y-98680534D01*
X116872164Y-98875531D01*
X116961379Y-99091981D01*
X117006783Y-99321293D01*
X117006783Y-99321298D01*
X117006851Y-99321642D01*
X117003117Y-99589047D01*
X117003040Y-99589385D01*
X117003040Y-99589393D01*
X116951250Y-99817349D01*
X116856028Y-100031221D01*
X116721075Y-100222529D01*
X116551534Y-100383981D01*
X116353863Y-100509426D01*
X116135588Y-100594089D01*
X115905033Y-100634743D01*
X115670965Y-100629840D01*
X115442309Y-100579566D01*
X115227772Y-100485838D01*
X115035534Y-100352229D01*
X114872898Y-100183814D01*
X114746076Y-99987025D01*
X114659890Y-99769344D01*
X114617629Y-99539080D01*
X114620897Y-99304986D01*
X114669574Y-99075983D01*
X114761801Y-98860799D01*
X114894070Y-98667626D01*
X115061338Y-98503824D01*
X115257241Y-98375629D01*
X115474311Y-98287927D01*
X115704277Y-98244059D01*
X115938394Y-98245693D01*
X115938394Y-98245693D01*
G37*
G36*
X146383394Y-97783193D02*
X146612721Y-97830268D01*
X146828551Y-97920994D01*
X147022638Y-98051908D01*
X147187610Y-98218034D01*
X147317164Y-98413031D01*
X147406379Y-98629481D01*
X147451783Y-98858793D01*
X147451783Y-98858798D01*
X147451851Y-98859142D01*
X147448117Y-99126547D01*
X147448040Y-99126885D01*
X147448040Y-99126893D01*
X147396250Y-99354849D01*
X147301028Y-99568721D01*
X147166075Y-99760029D01*
X146996534Y-99921481D01*
X146798863Y-100046926D01*
X146580588Y-100131589D01*
X146350033Y-100172243D01*
X146115965Y-100167340D01*
X145887309Y-100117066D01*
X145672772Y-100023338D01*
X145480534Y-99889729D01*
X145317898Y-99721314D01*
X145191076Y-99524525D01*
X145104890Y-99306844D01*
X145062629Y-99076580D01*
X145065897Y-98842486D01*
X145114574Y-98613483D01*
X145206801Y-98398299D01*
X145339070Y-98205126D01*
X145506338Y-98041324D01*
X145702241Y-97913129D01*
X145919311Y-97825427D01*
X146149277Y-97781559D01*
X146383394Y-97783193D01*
X146383394Y-97783193D01*
G37*
G36*
X136712360Y-99039440D02*
X135059960Y-99039440D01*
X135059960Y-97587040D01*
X136712360Y-97587040D01*
X136712360Y-99039440D01*
X136712360Y-99039440D01*
G37*
G36*
X139412360Y-99039440D02*
X137759960Y-99039440D01*
X137759960Y-97587040D01*
X139412360Y-97587040D01*
X139412360Y-99039440D01*
X139412360Y-99039440D01*
G37*
G36*
X117589394Y-95609193D02*
X117818721Y-95656268D01*
X118034551Y-95746994D01*
X118228638Y-95877908D01*
X118393610Y-96044034D01*
X118523164Y-96239031D01*
X118612379Y-96455481D01*
X118657783Y-96684793D01*
X118657783Y-96684798D01*
X118657851Y-96685142D01*
X118654117Y-96952547D01*
X118654040Y-96952885D01*
X118654040Y-96952893D01*
X118602250Y-97180849D01*
X118507028Y-97394721D01*
X118372075Y-97586029D01*
X118202534Y-97747481D01*
X118004863Y-97872926D01*
X117786588Y-97957589D01*
X117556033Y-97998243D01*
X117321965Y-97993340D01*
X117093309Y-97943066D01*
X116878772Y-97849338D01*
X116686534Y-97715729D01*
X116523898Y-97547314D01*
X116397076Y-97350525D01*
X116310890Y-97132844D01*
X116268629Y-96902580D01*
X116271897Y-96668486D01*
X116320574Y-96439483D01*
X116412801Y-96224299D01*
X116545070Y-96031126D01*
X116712338Y-95867324D01*
X116908241Y-95739129D01*
X117125311Y-95651427D01*
X117355277Y-95607559D01*
X117589394Y-95609193D01*
X117589394Y-95609193D01*
G37*
G36*
X144429394Y-95377993D02*
X144658721Y-95425068D01*
X144874551Y-95515794D01*
X145068638Y-95646708D01*
X145233610Y-95812834D01*
X145363164Y-96007831D01*
X145452379Y-96224281D01*
X145497783Y-96453593D01*
X145497783Y-96453598D01*
X145497851Y-96453942D01*
X145494117Y-96721347D01*
X145494040Y-96721685D01*
X145494040Y-96721693D01*
X145442250Y-96949649D01*
X145347028Y-97163521D01*
X145212075Y-97354829D01*
X145042534Y-97516281D01*
X144844863Y-97641726D01*
X144626588Y-97726389D01*
X144396033Y-97767043D01*
X144161965Y-97762140D01*
X143933309Y-97711866D01*
X143718772Y-97618138D01*
X143526534Y-97484529D01*
X143363898Y-97316114D01*
X143237076Y-97119325D01*
X143150890Y-96901644D01*
X143108629Y-96671380D01*
X143111897Y-96437286D01*
X143160574Y-96208283D01*
X143252801Y-95993099D01*
X143385070Y-95799926D01*
X143552338Y-95636124D01*
X143748241Y-95507929D01*
X143965311Y-95420227D01*
X144195277Y-95376359D01*
X144429394Y-95377993D01*
X144429394Y-95377993D01*
G37*
G36*
X132137280Y-97739420D02*
X130984880Y-97739420D01*
X130984880Y-94087020D01*
X132137280Y-94087020D01*
X132137280Y-97739420D01*
X132137280Y-97739420D01*
G37*
G36*
X130137280Y-97739420D02*
X128984880Y-97739420D01*
X128984880Y-94087020D01*
X130137280Y-94087020D01*
X130137280Y-97739420D01*
X130137280Y-97739420D01*
G37*
G36*
X119098394Y-92926893D02*
X119327721Y-92973968D01*
X119543551Y-93064694D01*
X119737638Y-93195608D01*
X119902610Y-93361734D01*
X120032164Y-93556731D01*
X120121379Y-93773181D01*
X120166783Y-94002493D01*
X120166783Y-94002498D01*
X120166851Y-94002842D01*
X120163117Y-94270247D01*
X120163040Y-94270585D01*
X120163040Y-94270593D01*
X120111250Y-94498549D01*
X120016028Y-94712421D01*
X119881075Y-94903729D01*
X119711534Y-95065181D01*
X119513863Y-95190626D01*
X119295588Y-95275289D01*
X119065033Y-95315943D01*
X118830965Y-95311040D01*
X118602309Y-95260766D01*
X118387772Y-95167038D01*
X118195534Y-95033429D01*
X118032898Y-94865014D01*
X117906076Y-94668225D01*
X117819890Y-94450544D01*
X117777629Y-94220280D01*
X117780897Y-93986186D01*
X117829574Y-93757183D01*
X117921801Y-93541999D01*
X118054070Y-93348826D01*
X118221338Y-93185024D01*
X118417241Y-93056829D01*
X118634311Y-92969127D01*
X118864277Y-92925259D01*
X119098394Y-92926893D01*
X119098394Y-92926893D01*
G37*
G36*
X142595394Y-92891393D02*
X142824721Y-92938468D01*
X143040551Y-93029194D01*
X143234638Y-93160108D01*
X143399610Y-93326234D01*
X143529164Y-93521231D01*
X143618379Y-93737681D01*
X143663783Y-93966993D01*
X143663783Y-93966998D01*
X143663851Y-93967342D01*
X143660117Y-94234747D01*
X143660040Y-94235085D01*
X143660040Y-94235093D01*
X143608250Y-94463049D01*
X143513028Y-94676921D01*
X143378075Y-94868229D01*
X143208534Y-95029681D01*
X143010863Y-95155126D01*
X142792588Y-95239789D01*
X142562033Y-95280443D01*
X142327965Y-95275540D01*
X142099309Y-95225266D01*
X141884772Y-95131538D01*
X141692534Y-94997929D01*
X141529898Y-94829514D01*
X141403076Y-94632725D01*
X141316890Y-94415044D01*
X141274629Y-94184780D01*
X141277897Y-93950686D01*
X141326574Y-93721683D01*
X141418801Y-93506499D01*
X141551070Y-93313326D01*
X141718338Y-93149524D01*
X141914241Y-93021329D01*
X142131311Y-92933627D01*
X142361277Y-92889759D01*
X142595394Y-92891393D01*
X142595394Y-92891393D01*
G37*
G36*
X140772394Y-90407193D02*
X141001721Y-90454268D01*
X141217551Y-90544994D01*
X141411638Y-90675908D01*
X141576610Y-90842034D01*
X141706164Y-91037031D01*
X141795379Y-91253481D01*
X141840783Y-91482793D01*
X141840783Y-91482798D01*
X141840851Y-91483142D01*
X141837117Y-91750547D01*
X141837040Y-91750885D01*
X141837040Y-91750893D01*
X141785250Y-91978849D01*
X141690028Y-92192721D01*
X141555075Y-92384029D01*
X141385534Y-92545481D01*
X141187863Y-92670926D01*
X140969588Y-92755589D01*
X140739033Y-92796243D01*
X140504965Y-92791340D01*
X140276309Y-92741066D01*
X140061772Y-92647338D01*
X139869534Y-92513729D01*
X139706898Y-92345314D01*
X139580076Y-92148525D01*
X139493890Y-91930844D01*
X139451629Y-91700580D01*
X139454897Y-91466486D01*
X139503574Y-91237483D01*
X139595801Y-91022299D01*
X139728070Y-90829126D01*
X139895338Y-90665324D01*
X140091241Y-90537129D01*
X140308311Y-90449427D01*
X140538277Y-90405559D01*
X140772394Y-90407193D01*
X140772394Y-90407193D01*
G37*
G36*
X120515394Y-90178593D02*
X120744721Y-90225668D01*
X120960551Y-90316394D01*
X121154638Y-90447308D01*
X121319610Y-90613434D01*
X121449164Y-90808431D01*
X121538379Y-91024881D01*
X121583783Y-91254193D01*
X121583783Y-91254198D01*
X121583851Y-91254542D01*
X121580117Y-91521947D01*
X121580040Y-91522285D01*
X121580040Y-91522293D01*
X121528250Y-91750249D01*
X121433028Y-91964121D01*
X121298075Y-92155429D01*
X121128534Y-92316881D01*
X120930863Y-92442326D01*
X120712588Y-92526989D01*
X120482033Y-92567643D01*
X120247965Y-92562740D01*
X120019309Y-92512466D01*
X119804772Y-92418738D01*
X119612534Y-92285129D01*
X119449898Y-92116714D01*
X119323076Y-91919925D01*
X119236890Y-91702244D01*
X119194629Y-91471980D01*
X119197897Y-91237886D01*
X119246574Y-91008883D01*
X119338801Y-90793699D01*
X119471070Y-90600526D01*
X119638338Y-90436724D01*
X119834241Y-90308529D01*
X120051311Y-90220827D01*
X120281277Y-90176959D01*
X120515394Y-90178593D01*
X120515394Y-90178593D01*
G37*
G36*
X133178200Y-92342500D02*
X132125800Y-92342500D01*
X132125800Y-90990100D01*
X133178200Y-90990100D01*
X133178200Y-92342500D01*
X133178200Y-92342500D01*
G37*
G36*
X129878200Y-92342500D02*
X128825800Y-92342500D01*
X128825800Y-90990100D01*
X129878200Y-90990100D01*
X129878200Y-92342500D01*
X129878200Y-92342500D01*
G37*
G36*
X128147200Y-90672600D02*
X126694800Y-90672600D01*
X126694800Y-89020200D01*
X128147200Y-89020200D01*
X128147200Y-90672600D01*
X128147200Y-90672600D01*
G37*
G36*
X134650200Y-90669100D02*
X133247800Y-90669100D01*
X133247800Y-89016700D01*
X134650200Y-89016700D01*
X134650200Y-90669100D01*
X134650200Y-90669100D01*
G37*
G36*
X138984394Y-87892593D02*
X139213721Y-87939668D01*
X139429551Y-88030394D01*
X139623638Y-88161308D01*
X139788610Y-88327434D01*
X139918164Y-88522431D01*
X140007379Y-88738881D01*
X140052783Y-88968193D01*
X140052783Y-88968198D01*
X140052851Y-88968542D01*
X140049117Y-89235947D01*
X140049040Y-89236285D01*
X140049040Y-89236293D01*
X139997250Y-89464249D01*
X139902028Y-89678121D01*
X139767075Y-89869429D01*
X139597534Y-90030881D01*
X139399863Y-90156326D01*
X139181588Y-90240989D01*
X138951033Y-90281643D01*
X138716965Y-90276740D01*
X138488309Y-90226466D01*
X138273772Y-90132738D01*
X138081534Y-89999129D01*
X137918898Y-89830714D01*
X137792076Y-89633925D01*
X137705890Y-89416244D01*
X137663629Y-89185980D01*
X137666897Y-88951886D01*
X137715574Y-88722883D01*
X137807801Y-88507699D01*
X137940070Y-88314526D01*
X138107338Y-88150724D01*
X138303241Y-88022529D01*
X138520311Y-87934827D01*
X138750277Y-87890959D01*
X138984394Y-87892593D01*
X138984394Y-87892593D01*
G37*
G36*
X121882394Y-87420193D02*
X122111721Y-87467268D01*
X122327551Y-87557994D01*
X122521638Y-87688908D01*
X122686610Y-87855034D01*
X122816164Y-88050031D01*
X122905379Y-88266481D01*
X122950783Y-88495793D01*
X122950783Y-88495798D01*
X122950851Y-88496142D01*
X122947117Y-88763547D01*
X122947040Y-88763885D01*
X122947040Y-88763893D01*
X122895250Y-88991849D01*
X122800028Y-89205721D01*
X122665075Y-89397029D01*
X122495534Y-89558481D01*
X122297863Y-89683926D01*
X122079588Y-89768589D01*
X121849033Y-89809243D01*
X121614965Y-89804340D01*
X121386309Y-89754066D01*
X121171772Y-89660338D01*
X120979534Y-89526729D01*
X120816898Y-89358314D01*
X120690076Y-89161525D01*
X120603890Y-88943844D01*
X120561629Y-88713580D01*
X120564897Y-88479486D01*
X120613574Y-88250483D01*
X120705801Y-88035299D01*
X120838070Y-87842126D01*
X121005338Y-87678324D01*
X121201241Y-87550129D01*
X121418311Y-87462427D01*
X121648277Y-87418559D01*
X121882394Y-87420193D01*
X121882394Y-87420193D01*
G37*
G36*
X132049200Y-88868700D02*
X131246800Y-88868700D01*
X131246800Y-87156300D01*
X132049200Y-87156300D01*
X132049200Y-88868700D01*
X132049200Y-88868700D01*
G37*
G36*
X130149200Y-88868700D02*
X129346800Y-88868700D01*
X129346800Y-87156300D01*
X130149200Y-87156300D01*
X130149200Y-88868700D01*
X130149200Y-88868700D01*
G37*
G36*
X131099200Y-88868700D02*
X130296800Y-88868700D01*
X130296800Y-87156300D01*
X131099200Y-87156300D01*
X131099200Y-88868700D01*
X131099200Y-88868700D01*
G37*
G36*
X134650200Y-88169100D02*
X133247800Y-88169100D01*
X133247800Y-86516700D01*
X134650200Y-86516700D01*
X134650200Y-88169100D01*
X134650200Y-88169100D01*
G37*
G36*
X128147200Y-87972600D02*
X126694800Y-87972600D01*
X126694800Y-86320200D01*
X128147200Y-86320200D01*
X128147200Y-87972600D01*
X128147200Y-87972600D01*
G37*
G36*
X132049200Y-86168700D02*
X131246800Y-86168700D01*
X131246800Y-84456300D01*
X132049200Y-84456300D01*
X132049200Y-86168700D01*
X132049200Y-86168700D01*
G37*
G36*
X130149200Y-86168700D02*
X129346800Y-86168700D01*
X129346800Y-84456300D01*
X130149200Y-84456300D01*
X130149200Y-86168700D01*
X130149200Y-86168700D01*
G37*
G36*
X126169200Y-85169100D02*
X124516800Y-85169100D01*
X124516800Y-83766700D01*
X126169200Y-83766700D01*
X126169200Y-85169100D01*
X126169200Y-85169100D01*
G37*
G36*
X128669200Y-85169100D02*
X127016800Y-85169100D01*
X127016800Y-83766700D01*
X128669200Y-83766700D01*
X128669200Y-85169100D01*
X128669200Y-85169100D01*
G37*
G36*
X118113394Y-82763193D02*
X118342721Y-82810268D01*
X118558551Y-82900994D01*
X118752638Y-83031908D01*
X118917610Y-83198034D01*
X119047164Y-83393031D01*
X119136379Y-83609481D01*
X119181783Y-83838793D01*
X119181783Y-83838798D01*
X119181851Y-83839142D01*
X119178117Y-84106547D01*
X119178040Y-84106885D01*
X119178040Y-84106893D01*
X119126250Y-84334849D01*
X119031028Y-84548721D01*
X118896075Y-84740029D01*
X118726534Y-84901481D01*
X118528863Y-85026926D01*
X118310588Y-85111589D01*
X118080033Y-85152243D01*
X117845965Y-85147340D01*
X117617309Y-85097066D01*
X117402772Y-85003338D01*
X117210534Y-84869729D01*
X117047898Y-84701314D01*
X116921076Y-84504525D01*
X116834890Y-84286844D01*
X116792629Y-84056580D01*
X116795897Y-83822486D01*
X116844574Y-83593483D01*
X116936801Y-83378299D01*
X117069070Y-83185126D01*
X117236338Y-83021324D01*
X117432241Y-82893129D01*
X117649311Y-82805427D01*
X117879277Y-82761559D01*
X118113394Y-82763193D01*
X118113394Y-82763193D01*
G37*
G36*
X137552180Y-84980940D02*
X135899780Y-84980940D01*
X135899780Y-83578540D01*
X137552180Y-83578540D01*
X137552180Y-84980940D01*
X137552180Y-84980940D01*
G37*
G36*
X135052180Y-84980940D02*
X133399780Y-84980940D01*
X133399780Y-83578540D01*
X135052180Y-83578540D01*
X135052180Y-84980940D01*
X135052180Y-84980940D01*
G37*
G36*
X143920200Y-84027900D02*
X142467800Y-84027900D01*
X142467800Y-82375500D01*
X143920200Y-82375500D01*
X143920200Y-84027900D01*
X143920200Y-84027900D01*
G37*
G36*
X115923394Y-80643193D02*
X116152721Y-80690268D01*
X116368551Y-80780994D01*
X116562638Y-80911908D01*
X116727610Y-81078034D01*
X116857164Y-81273031D01*
X116946379Y-81489481D01*
X116991783Y-81718793D01*
X116991783Y-81718798D01*
X116991851Y-81719142D01*
X116988117Y-81986547D01*
X116988040Y-81986885D01*
X116988040Y-81986893D01*
X116936250Y-82214849D01*
X116841028Y-82428721D01*
X116706075Y-82620029D01*
X116536534Y-82781481D01*
X116338863Y-82906926D01*
X116120588Y-82991589D01*
X115890033Y-83032243D01*
X115655965Y-83027340D01*
X115427309Y-82977066D01*
X115212772Y-82883338D01*
X115020534Y-82749729D01*
X114857898Y-82581314D01*
X114731076Y-82384525D01*
X114644890Y-82166844D01*
X114602629Y-81936580D01*
X114605897Y-81702486D01*
X114654574Y-81473483D01*
X114746801Y-81258299D01*
X114879070Y-81065126D01*
X115046338Y-80901324D01*
X115242241Y-80773129D01*
X115459311Y-80685427D01*
X115689277Y-80641559D01*
X115923394Y-80643193D01*
X115923394Y-80643193D01*
G37*
G36*
X138963104Y-80209046D02*
X138963110Y-80209047D01*
X138965160Y-80209061D01*
X139086611Y-80222684D01*
X139203103Y-80259637D01*
X139310199Y-80318514D01*
X139403820Y-80397071D01*
X139480399Y-80492316D01*
X139537020Y-80600621D01*
X139571525Y-80717862D01*
X139571528Y-80717896D01*
X139571531Y-80717906D01*
X139582604Y-80839569D01*
X139569833Y-80961068D01*
X139569831Y-80961073D01*
X139569827Y-80961115D01*
X139533688Y-81077862D01*
X139475560Y-81185367D01*
X139397659Y-81279533D01*
X139302951Y-81356775D01*
X139195043Y-81414151D01*
X139078047Y-81449474D01*
X138956417Y-81461400D01*
X137543549Y-81461400D01*
X137536896Y-81461354D01*
X137536890Y-81461353D01*
X137534840Y-81461339D01*
X137413389Y-81447716D01*
X137296897Y-81410763D01*
X137189801Y-81351886D01*
X137096180Y-81273329D01*
X137019601Y-81178084D01*
X136962980Y-81069779D01*
X136928475Y-80952538D01*
X136928472Y-80952504D01*
X136928469Y-80952494D01*
X136917396Y-80830831D01*
X136930167Y-80709332D01*
X136930169Y-80709327D01*
X136930173Y-80709285D01*
X136966312Y-80592538D01*
X137024440Y-80485033D01*
X137102341Y-80390867D01*
X137197049Y-80313625D01*
X137304957Y-80256249D01*
X137421953Y-80220926D01*
X137543583Y-80209000D01*
X138956451Y-80209000D01*
X138963104Y-80209046D01*
X138963104Y-80209046D01*
G37*
G36*
X123563104Y-80209046D02*
X123563110Y-80209047D01*
X123565160Y-80209061D01*
X123686611Y-80222684D01*
X123803103Y-80259637D01*
X123910199Y-80318514D01*
X124003820Y-80397071D01*
X124080399Y-80492316D01*
X124137020Y-80600621D01*
X124171525Y-80717862D01*
X124171528Y-80717896D01*
X124171531Y-80717906D01*
X124182604Y-80839569D01*
X124169833Y-80961068D01*
X124169831Y-80961073D01*
X124169827Y-80961115D01*
X124133688Y-81077862D01*
X124075560Y-81185367D01*
X123997659Y-81279533D01*
X123902951Y-81356775D01*
X123795043Y-81414151D01*
X123678047Y-81449474D01*
X123556417Y-81461400D01*
X122143549Y-81461400D01*
X122136896Y-81461354D01*
X122136890Y-81461353D01*
X122134840Y-81461339D01*
X122013389Y-81447716D01*
X121896897Y-81410763D01*
X121789801Y-81351886D01*
X121696180Y-81273329D01*
X121619601Y-81178084D01*
X121562980Y-81069779D01*
X121528475Y-80952538D01*
X121528472Y-80952504D01*
X121528469Y-80952494D01*
X121517396Y-80830831D01*
X121530167Y-80709332D01*
X121530169Y-80709327D01*
X121530173Y-80709285D01*
X121566312Y-80592538D01*
X121624440Y-80485033D01*
X121702341Y-80390867D01*
X121797049Y-80313625D01*
X121904957Y-80256249D01*
X122021953Y-80220926D01*
X122143583Y-80209000D01*
X123556451Y-80209000D01*
X123563104Y-80209046D01*
X123563104Y-80209046D01*
G37*
G36*
X143920200Y-81327900D02*
X142467800Y-81327900D01*
X142467800Y-79675500D01*
X143920200Y-79675500D01*
X143920200Y-81327900D01*
X143920200Y-81327900D01*
G37*
G36*
X138963104Y-78209046D02*
X138963110Y-78209047D01*
X138965160Y-78209061D01*
X139086611Y-78222684D01*
X139203103Y-78259637D01*
X139310199Y-78318514D01*
X139403820Y-78397071D01*
X139480399Y-78492316D01*
X139537020Y-78600621D01*
X139571525Y-78717862D01*
X139571528Y-78717896D01*
X139571531Y-78717906D01*
X139582604Y-78839569D01*
X139569833Y-78961068D01*
X139569831Y-78961073D01*
X139569827Y-78961115D01*
X139533688Y-79077862D01*
X139475560Y-79185367D01*
X139397659Y-79279533D01*
X139302951Y-79356775D01*
X139195043Y-79414151D01*
X139078047Y-79449474D01*
X138956417Y-79461400D01*
X137543549Y-79461400D01*
X137536896Y-79461354D01*
X137536890Y-79461353D01*
X137534840Y-79461339D01*
X137413389Y-79447716D01*
X137296897Y-79410763D01*
X137189801Y-79351886D01*
X137096180Y-79273329D01*
X137019601Y-79178084D01*
X136962980Y-79069779D01*
X136928475Y-78952538D01*
X136928472Y-78952504D01*
X136928469Y-78952494D01*
X136917396Y-78830831D01*
X136930167Y-78709332D01*
X136930169Y-78709327D01*
X136930173Y-78709285D01*
X136966312Y-78592538D01*
X137024440Y-78485033D01*
X137102341Y-78390867D01*
X137197049Y-78313625D01*
X137304957Y-78256249D01*
X137421953Y-78220926D01*
X137543583Y-78209000D01*
X138956451Y-78209000D01*
X138963104Y-78209046D01*
X138963104Y-78209046D01*
G37*
G36*
X123663104Y-78209046D02*
X123663110Y-78209047D01*
X123665160Y-78209061D01*
X123786611Y-78222684D01*
X123903103Y-78259637D01*
X124010199Y-78318514D01*
X124103820Y-78397071D01*
X124180399Y-78492316D01*
X124237020Y-78600621D01*
X124271525Y-78717862D01*
X124271528Y-78717896D01*
X124271531Y-78717906D01*
X124282604Y-78839569D01*
X124269833Y-78961068D01*
X124269831Y-78961073D01*
X124269827Y-78961115D01*
X124233688Y-79077862D01*
X124175560Y-79185367D01*
X124097659Y-79279533D01*
X124002951Y-79356775D01*
X123895043Y-79414151D01*
X123778047Y-79449474D01*
X123656417Y-79461400D01*
X122243549Y-79461400D01*
X122236896Y-79461354D01*
X122236890Y-79461353D01*
X122234840Y-79461339D01*
X122113389Y-79447716D01*
X121996897Y-79410763D01*
X121889801Y-79351886D01*
X121796180Y-79273329D01*
X121719601Y-79178084D01*
X121662980Y-79069779D01*
X121628475Y-78952538D01*
X121628472Y-78952504D01*
X121628469Y-78952494D01*
X121617396Y-78830831D01*
X121630167Y-78709332D01*
X121630169Y-78709327D01*
X121630173Y-78709285D01*
X121666312Y-78592538D01*
X121724440Y-78485033D01*
X121802341Y-78390867D01*
X121897049Y-78313625D01*
X122004957Y-78256249D01*
X122121953Y-78220926D01*
X122243583Y-78209000D01*
X123656451Y-78209000D01*
X123663104Y-78209046D01*
X123663104Y-78209046D01*
G37*
G36*
X119077500Y-78570520D02*
X117625100Y-78570520D01*
X117625100Y-76918120D01*
X119077500Y-76918120D01*
X119077500Y-78570520D01*
X119077500Y-78570520D01*
G37*
G36*
X123563104Y-76209046D02*
X123563110Y-76209047D01*
X123565160Y-76209061D01*
X123686611Y-76222684D01*
X123803103Y-76259637D01*
X123910199Y-76318514D01*
X124003820Y-76397071D01*
X124080399Y-76492316D01*
X124137020Y-76600621D01*
X124171525Y-76717862D01*
X124171528Y-76717896D01*
X124171531Y-76717906D01*
X124182604Y-76839569D01*
X124169833Y-76961068D01*
X124169831Y-76961073D01*
X124169827Y-76961115D01*
X124133688Y-77077862D01*
X124075560Y-77185367D01*
X123997659Y-77279533D01*
X123902951Y-77356775D01*
X123795043Y-77414151D01*
X123678047Y-77449474D01*
X123556417Y-77461400D01*
X122143549Y-77461400D01*
X122136896Y-77461354D01*
X122136890Y-77461353D01*
X122134840Y-77461339D01*
X122013389Y-77447716D01*
X121896897Y-77410763D01*
X121789801Y-77351886D01*
X121696180Y-77273329D01*
X121619601Y-77178084D01*
X121562980Y-77069779D01*
X121528475Y-76952538D01*
X121528472Y-76952504D01*
X121528469Y-76952494D01*
X121517396Y-76830831D01*
X121530167Y-76709332D01*
X121530169Y-76709327D01*
X121530173Y-76709285D01*
X121566312Y-76592538D01*
X121624440Y-76485033D01*
X121702341Y-76390867D01*
X121797049Y-76313625D01*
X121904957Y-76256249D01*
X122021953Y-76220926D01*
X122143583Y-76209000D01*
X123556451Y-76209000D01*
X123563104Y-76209046D01*
X123563104Y-76209046D01*
G37*
G36*
X138963104Y-76209046D02*
X138963110Y-76209047D01*
X138965160Y-76209061D01*
X139086611Y-76222684D01*
X139203103Y-76259637D01*
X139310199Y-76318514D01*
X139403820Y-76397071D01*
X139480399Y-76492316D01*
X139537020Y-76600621D01*
X139571525Y-76717862D01*
X139571528Y-76717896D01*
X139571531Y-76717906D01*
X139582604Y-76839569D01*
X139569833Y-76961068D01*
X139569831Y-76961073D01*
X139569827Y-76961115D01*
X139533688Y-77077862D01*
X139475560Y-77185367D01*
X139397659Y-77279533D01*
X139302951Y-77356775D01*
X139195043Y-77414151D01*
X139078047Y-77449474D01*
X138956417Y-77461400D01*
X137543549Y-77461400D01*
X137536896Y-77461354D01*
X137536890Y-77461353D01*
X137534840Y-77461339D01*
X137413389Y-77447716D01*
X137296897Y-77410763D01*
X137189801Y-77351886D01*
X137096180Y-77273329D01*
X137019601Y-77178084D01*
X136962980Y-77069779D01*
X136928475Y-76952538D01*
X136928472Y-76952504D01*
X136928469Y-76952494D01*
X136917396Y-76830831D01*
X136930167Y-76709332D01*
X136930169Y-76709327D01*
X136930173Y-76709285D01*
X136966312Y-76592538D01*
X137024440Y-76485033D01*
X137102341Y-76390867D01*
X137197049Y-76313625D01*
X137304957Y-76256249D01*
X137421953Y-76220926D01*
X137543583Y-76209000D01*
X138956451Y-76209000D01*
X138963104Y-76209046D01*
X138963104Y-76209046D01*
G37*
G36*
X119077500Y-75870520D02*
X117625100Y-75870520D01*
X117625100Y-74218120D01*
X119077500Y-74218120D01*
X119077500Y-75870520D01*
X119077500Y-75870520D01*
G37*
G36*
X123563104Y-74209046D02*
X123563110Y-74209047D01*
X123565160Y-74209061D01*
X123686611Y-74222684D01*
X123803103Y-74259637D01*
X123910199Y-74318514D01*
X124003820Y-74397071D01*
X124080399Y-74492316D01*
X124137020Y-74600621D01*
X124171525Y-74717862D01*
X124171528Y-74717896D01*
X124171531Y-74717906D01*
X124182604Y-74839569D01*
X124169833Y-74961068D01*
X124169831Y-74961073D01*
X124169827Y-74961115D01*
X124133688Y-75077862D01*
X124075560Y-75185367D01*
X123997659Y-75279533D01*
X123902951Y-75356775D01*
X123795043Y-75414151D01*
X123678047Y-75449474D01*
X123556417Y-75461400D01*
X122143549Y-75461400D01*
X122136896Y-75461354D01*
X122136890Y-75461353D01*
X122134840Y-75461339D01*
X122013389Y-75447716D01*
X121896897Y-75410763D01*
X121789801Y-75351886D01*
X121696180Y-75273329D01*
X121619601Y-75178084D01*
X121562980Y-75069779D01*
X121528475Y-74952538D01*
X121528472Y-74952504D01*
X121528469Y-74952494D01*
X121517396Y-74830831D01*
X121530167Y-74709332D01*
X121530169Y-74709327D01*
X121530173Y-74709285D01*
X121566312Y-74592538D01*
X121624440Y-74485033D01*
X121702341Y-74390867D01*
X121797049Y-74313625D01*
X121904957Y-74256249D01*
X122021953Y-74220926D01*
X122143583Y-74209000D01*
X123556451Y-74209000D01*
X123563104Y-74209046D01*
X123563104Y-74209046D01*
G37*
G36*
X138963104Y-74209046D02*
X138963110Y-74209047D01*
X138965160Y-74209061D01*
X139086611Y-74222684D01*
X139203103Y-74259637D01*
X139310199Y-74318514D01*
X139403820Y-74397071D01*
X139480399Y-74492316D01*
X139537020Y-74600621D01*
X139571525Y-74717862D01*
X139571528Y-74717896D01*
X139571531Y-74717906D01*
X139582604Y-74839569D01*
X139569833Y-74961068D01*
X139569831Y-74961073D01*
X139569827Y-74961115D01*
X139533688Y-75077862D01*
X139475560Y-75185367D01*
X139397659Y-75279533D01*
X139302951Y-75356775D01*
X139195043Y-75414151D01*
X139078047Y-75449474D01*
X138956417Y-75461400D01*
X137543549Y-75461400D01*
X137536896Y-75461354D01*
X137536890Y-75461353D01*
X137534840Y-75461339D01*
X137413389Y-75447716D01*
X137296897Y-75410763D01*
X137189801Y-75351886D01*
X137096180Y-75273329D01*
X137019601Y-75178084D01*
X136962980Y-75069779D01*
X136928475Y-74952538D01*
X136928472Y-74952504D01*
X136928469Y-74952494D01*
X136917396Y-74830831D01*
X136930167Y-74709332D01*
X136930169Y-74709327D01*
X136930173Y-74709285D01*
X136966312Y-74592538D01*
X137024440Y-74485033D01*
X137102341Y-74390867D01*
X137197049Y-74313625D01*
X137304957Y-74256249D01*
X137421953Y-74220926D01*
X137543583Y-74209000D01*
X138956451Y-74209000D01*
X138963104Y-74209046D01*
X138963104Y-74209046D01*
G37*
G36*
X116565200Y-73603800D02*
X115112800Y-73603800D01*
X115112800Y-71951400D01*
X116565200Y-71951400D01*
X116565200Y-73603800D01*
X116565200Y-73603800D01*
G37*
G36*
X144393200Y-73532600D02*
X142940800Y-73532600D01*
X142940800Y-71880200D01*
X144393200Y-71880200D01*
X144393200Y-73532600D01*
X144393200Y-73532600D01*
G37*
G36*
X123563104Y-72209046D02*
X123563110Y-72209047D01*
X123565160Y-72209061D01*
X123686611Y-72222684D01*
X123803103Y-72259637D01*
X123910199Y-72318514D01*
X124003820Y-72397071D01*
X124080399Y-72492316D01*
X124137020Y-72600621D01*
X124171525Y-72717862D01*
X124171528Y-72717896D01*
X124171531Y-72717906D01*
X124182604Y-72839569D01*
X124169833Y-72961068D01*
X124169831Y-72961073D01*
X124169827Y-72961115D01*
X124133688Y-73077862D01*
X124075560Y-73185367D01*
X123997659Y-73279533D01*
X123902951Y-73356775D01*
X123795043Y-73414151D01*
X123678047Y-73449474D01*
X123556417Y-73461400D01*
X122143549Y-73461400D01*
X122136896Y-73461354D01*
X122136890Y-73461353D01*
X122134840Y-73461339D01*
X122013389Y-73447716D01*
X121896897Y-73410763D01*
X121789801Y-73351886D01*
X121696180Y-73273329D01*
X121619601Y-73178084D01*
X121562980Y-73069779D01*
X121528475Y-72952538D01*
X121528472Y-72952504D01*
X121528469Y-72952494D01*
X121517396Y-72830831D01*
X121530167Y-72709332D01*
X121530169Y-72709327D01*
X121530173Y-72709285D01*
X121566312Y-72592538D01*
X121624440Y-72485033D01*
X121702341Y-72390867D01*
X121797049Y-72313625D01*
X121904957Y-72256249D01*
X122021953Y-72220926D01*
X122143583Y-72209000D01*
X123556451Y-72209000D01*
X123563104Y-72209046D01*
X123563104Y-72209046D01*
G37*
G36*
X138963104Y-72209046D02*
X138963110Y-72209047D01*
X138965160Y-72209061D01*
X139086611Y-72222684D01*
X139203103Y-72259637D01*
X139310199Y-72318514D01*
X139403820Y-72397071D01*
X139480399Y-72492316D01*
X139537020Y-72600621D01*
X139571525Y-72717862D01*
X139571528Y-72717896D01*
X139571531Y-72717906D01*
X139582604Y-72839569D01*
X139569833Y-72961068D01*
X139569831Y-72961073D01*
X139569827Y-72961115D01*
X139533688Y-73077862D01*
X139475560Y-73185367D01*
X139397659Y-73279533D01*
X139302951Y-73356775D01*
X139195043Y-73414151D01*
X139078047Y-73449474D01*
X138956417Y-73461400D01*
X137543549Y-73461400D01*
X137536896Y-73461354D01*
X137536890Y-73461353D01*
X137534840Y-73461339D01*
X137413389Y-73447716D01*
X137296897Y-73410763D01*
X137189801Y-73351886D01*
X137096180Y-73273329D01*
X137019601Y-73178084D01*
X136962980Y-73069779D01*
X136928475Y-72952538D01*
X136928472Y-72952504D01*
X136928469Y-72952494D01*
X136917396Y-72830831D01*
X136930167Y-72709332D01*
X136930169Y-72709327D01*
X136930173Y-72709285D01*
X136966312Y-72592538D01*
X137024440Y-72485033D01*
X137102341Y-72390867D01*
X137197049Y-72313625D01*
X137304957Y-72256249D01*
X137421953Y-72220926D01*
X137543583Y-72209000D01*
X138956451Y-72209000D01*
X138963104Y-72209046D01*
X138963104Y-72209046D01*
G37*
G36*
X113684200Y-72034000D02*
X112231800Y-72034000D01*
X112231800Y-70381600D01*
X113684200Y-70381600D01*
X113684200Y-72034000D01*
X113684200Y-72034000D01*
G37*
G36*
X147538200Y-71781600D02*
X146135800Y-71781600D01*
X146135800Y-70129200D01*
X147538200Y-70129200D01*
X147538200Y-71781600D01*
X147538200Y-71781600D01*
G37*
G36*
X138963104Y-70209046D02*
X138963110Y-70209047D01*
X138965160Y-70209061D01*
X139086611Y-70222684D01*
X139203103Y-70259637D01*
X139310199Y-70318514D01*
X139403820Y-70397071D01*
X139480399Y-70492316D01*
X139537020Y-70600621D01*
X139571525Y-70717862D01*
X139571528Y-70717896D01*
X139571531Y-70717906D01*
X139582604Y-70839569D01*
X139569833Y-70961068D01*
X139569831Y-70961073D01*
X139569827Y-70961115D01*
X139533688Y-71077862D01*
X139475560Y-71185367D01*
X139397659Y-71279533D01*
X139302951Y-71356775D01*
X139195043Y-71414151D01*
X139078047Y-71449474D01*
X138956417Y-71461400D01*
X137543549Y-71461400D01*
X137536896Y-71461354D01*
X137536890Y-71461353D01*
X137534840Y-71461339D01*
X137413389Y-71447716D01*
X137296897Y-71410763D01*
X137189801Y-71351886D01*
X137096180Y-71273329D01*
X137019601Y-71178084D01*
X136962980Y-71069779D01*
X136928475Y-70952538D01*
X136928472Y-70952504D01*
X136928469Y-70952494D01*
X136917396Y-70830831D01*
X136930167Y-70709332D01*
X136930169Y-70709327D01*
X136930173Y-70709285D01*
X136966312Y-70592538D01*
X137024440Y-70485033D01*
X137102341Y-70390867D01*
X137197049Y-70313625D01*
X137304957Y-70256249D01*
X137421953Y-70220926D01*
X137543583Y-70209000D01*
X138956451Y-70209000D01*
X138963104Y-70209046D01*
X138963104Y-70209046D01*
G37*
G36*
X123563104Y-70209046D02*
X123563110Y-70209047D01*
X123565160Y-70209061D01*
X123686611Y-70222684D01*
X123803103Y-70259637D01*
X123910199Y-70318514D01*
X124003820Y-70397071D01*
X124080399Y-70492316D01*
X124137020Y-70600621D01*
X124171525Y-70717862D01*
X124171528Y-70717896D01*
X124171531Y-70717906D01*
X124182604Y-70839569D01*
X124169833Y-70961068D01*
X124169831Y-70961073D01*
X124169827Y-70961115D01*
X124133688Y-71077862D01*
X124075560Y-71185367D01*
X123997659Y-71279533D01*
X123902951Y-71356775D01*
X123795043Y-71414151D01*
X123678047Y-71449474D01*
X123556417Y-71461400D01*
X122143549Y-71461400D01*
X122136896Y-71461354D01*
X122136890Y-71461353D01*
X122134840Y-71461339D01*
X122013389Y-71447716D01*
X121896897Y-71410763D01*
X121789801Y-71351886D01*
X121696180Y-71273329D01*
X121619601Y-71178084D01*
X121562980Y-71069779D01*
X121528475Y-70952538D01*
X121528472Y-70952504D01*
X121528469Y-70952494D01*
X121517396Y-70830831D01*
X121530167Y-70709332D01*
X121530169Y-70709327D01*
X121530173Y-70709285D01*
X121566312Y-70592538D01*
X121624440Y-70485033D01*
X121702341Y-70390867D01*
X121797049Y-70313625D01*
X121904957Y-70256249D01*
X122021953Y-70220926D01*
X122143583Y-70209000D01*
X123556451Y-70209000D01*
X123563104Y-70209046D01*
X123563104Y-70209046D01*
G37*
G36*
X116565200Y-70903800D02*
X115112800Y-70903800D01*
X115112800Y-69251400D01*
X116565200Y-69251400D01*
X116565200Y-70903800D01*
X116565200Y-70903800D01*
G37*
G36*
X144393200Y-70832600D02*
X142940800Y-70832600D01*
X142940800Y-69180200D01*
X144393200Y-69180200D01*
X144393200Y-70832600D01*
X144393200Y-70832600D01*
G37*
G36*
X138963104Y-68209046D02*
X138963110Y-68209047D01*
X138965160Y-68209061D01*
X139086611Y-68222684D01*
X139203103Y-68259637D01*
X139310199Y-68318514D01*
X139403820Y-68397071D01*
X139480399Y-68492316D01*
X139537020Y-68600621D01*
X139571525Y-68717862D01*
X139571528Y-68717896D01*
X139571531Y-68717906D01*
X139582604Y-68839569D01*
X139569833Y-68961068D01*
X139569831Y-68961073D01*
X139569827Y-68961115D01*
X139533688Y-69077862D01*
X139475560Y-69185367D01*
X139397659Y-69279533D01*
X139302951Y-69356775D01*
X139195043Y-69414151D01*
X139078047Y-69449474D01*
X138956417Y-69461400D01*
X137543549Y-69461400D01*
X137536896Y-69461354D01*
X137536890Y-69461353D01*
X137534840Y-69461339D01*
X137413389Y-69447716D01*
X137296897Y-69410763D01*
X137189801Y-69351886D01*
X137096180Y-69273329D01*
X137019601Y-69178084D01*
X136962980Y-69069779D01*
X136928475Y-68952538D01*
X136928472Y-68952504D01*
X136928469Y-68952494D01*
X136917396Y-68830831D01*
X136930167Y-68709332D01*
X136930169Y-68709327D01*
X136930173Y-68709285D01*
X136966312Y-68592538D01*
X137024440Y-68485033D01*
X137102341Y-68390867D01*
X137197049Y-68313625D01*
X137304957Y-68256249D01*
X137421953Y-68220926D01*
X137543583Y-68209000D01*
X138956451Y-68209000D01*
X138963104Y-68209046D01*
X138963104Y-68209046D01*
G37*
G36*
X123563104Y-68209046D02*
X123563110Y-68209047D01*
X123565160Y-68209061D01*
X123686611Y-68222684D01*
X123803103Y-68259637D01*
X123910199Y-68318514D01*
X124003820Y-68397071D01*
X124080399Y-68492316D01*
X124137020Y-68600621D01*
X124171525Y-68717862D01*
X124171528Y-68717896D01*
X124171531Y-68717906D01*
X124182604Y-68839569D01*
X124169833Y-68961068D01*
X124169831Y-68961073D01*
X124169827Y-68961115D01*
X124133688Y-69077862D01*
X124075560Y-69185367D01*
X123997659Y-69279533D01*
X123902951Y-69356775D01*
X123795043Y-69414151D01*
X123678047Y-69449474D01*
X123556417Y-69461400D01*
X122143549Y-69461400D01*
X122136896Y-69461354D01*
X122136890Y-69461353D01*
X122134840Y-69461339D01*
X122013389Y-69447716D01*
X121896897Y-69410763D01*
X121789801Y-69351886D01*
X121696180Y-69273329D01*
X121619601Y-69178084D01*
X121562980Y-69069779D01*
X121528475Y-68952538D01*
X121528472Y-68952504D01*
X121528469Y-68952494D01*
X121517396Y-68830831D01*
X121530167Y-68709332D01*
X121530169Y-68709327D01*
X121530173Y-68709285D01*
X121566312Y-68592538D01*
X121624440Y-68485033D01*
X121702341Y-68390867D01*
X121797049Y-68313625D01*
X121904957Y-68256249D01*
X122021953Y-68220926D01*
X122143583Y-68209000D01*
X123556451Y-68209000D01*
X123563104Y-68209046D01*
X123563104Y-68209046D01*
G37*
G36*
X113684200Y-69334000D02*
X112231800Y-69334000D01*
X112231800Y-67681600D01*
X113684200Y-67681600D01*
X113684200Y-69334000D01*
X113684200Y-69334000D01*
G37*
G36*
X147538200Y-69281600D02*
X146135800Y-69281600D01*
X146135800Y-67629200D01*
X147538200Y-67629200D01*
X147538200Y-69281600D01*
X147538200Y-69281600D01*
G37*
G36*
X139576200Y-67461400D02*
X136923800Y-67461400D01*
X136923800Y-66209000D01*
X139576200Y-66209000D01*
X139576200Y-67461400D01*
X139576200Y-67461400D01*
G37*
G36*
X123563104Y-66209046D02*
X123563110Y-66209047D01*
X123565160Y-66209061D01*
X123686611Y-66222684D01*
X123803103Y-66259637D01*
X123910199Y-66318514D01*
X124003820Y-66397071D01*
X124080399Y-66492316D01*
X124137020Y-66600621D01*
X124171525Y-66717862D01*
X124171528Y-66717896D01*
X124171531Y-66717906D01*
X124182604Y-66839569D01*
X124169833Y-66961068D01*
X124169831Y-66961073D01*
X124169827Y-66961115D01*
X124133688Y-67077862D01*
X124075560Y-67185367D01*
X123997659Y-67279533D01*
X123902951Y-67356775D01*
X123795043Y-67414151D01*
X123678047Y-67449474D01*
X123556417Y-67461400D01*
X122143549Y-67461400D01*
X122136896Y-67461354D01*
X122136890Y-67461353D01*
X122134840Y-67461339D01*
X122013389Y-67447716D01*
X121896897Y-67410763D01*
X121789801Y-67351886D01*
X121696180Y-67273329D01*
X121619601Y-67178084D01*
X121562980Y-67069779D01*
X121528475Y-66952538D01*
X121528472Y-66952504D01*
X121528469Y-66952494D01*
X121517396Y-66830831D01*
X121530167Y-66709332D01*
X121530169Y-66709327D01*
X121530173Y-66709285D01*
X121566312Y-66592538D01*
X121624440Y-66485033D01*
X121702341Y-66390867D01*
X121797049Y-66313625D01*
X121904957Y-66256249D01*
X122021953Y-66220926D01*
X122143583Y-66209000D01*
X123556451Y-66209000D01*
X123563104Y-66209046D01*
X123563104Y-66209046D01*
G37*
G36*
X130817463Y-43407053D02*
X131369988Y-43520471D01*
X131889973Y-43739052D01*
X132357593Y-44054466D01*
X132755043Y-44454700D01*
X133067183Y-44924510D01*
X133282127Y-45446001D01*
X133391616Y-45998965D01*
X133391616Y-45998970D01*
X133391684Y-45999314D01*
X133382688Y-46643568D01*
X133382611Y-46643906D01*
X133382611Y-46643914D01*
X133257724Y-47193606D01*
X133028305Y-47708890D01*
X132703166Y-48169803D01*
X132294695Y-48558785D01*
X131818450Y-48861019D01*
X131292568Y-49064995D01*
X130737089Y-49162942D01*
X130173159Y-49151128D01*
X129622263Y-49030006D01*
X129105385Y-48804188D01*
X128642218Y-48482278D01*
X128250394Y-48076533D01*
X127944841Y-47602408D01*
X127737198Y-47077960D01*
X127635377Y-46523181D01*
X127643252Y-45959183D01*
X127760526Y-45407454D01*
X127982728Y-44889015D01*
X128301400Y-44423607D01*
X128704399Y-44028961D01*
X129176380Y-43720106D01*
X129699361Y-43508807D01*
X130253419Y-43403116D01*
X130817463Y-43407053D01*
X130817463Y-43407053D01*
G37*
M02*
