M48
;DRILL file {KiCad no-vcs-found-077fb3c~59~ubuntu16.04.1} date Sat Aug 19 10:31:47 2017
;FORMAT={-:-/ absolute / inch / decimal}
FMAT,2
INCH,TZ
T1C0.013
T2C0.016
T3C0.040
T4C0.126
%
G90
G05
M72
T1
X4.5897Y-2.6165
X4.6839Y-2.6478
X4.8278Y-3.9107
X4.8908Y-3.8753
X4.9113Y-2.2762
X4.9207Y-2.7747
X4.9265Y-3.066
X4.9272Y-3.4612
X4.9344Y-2.818
X4.9634Y-3.023
X4.9886Y-2.7939
X5.0055Y-3.2365
X5.0515Y-2.1424
X5.1439Y-2.8006
X5.1456Y-3.4637
X5.2009Y-2.1424
X5.2207Y-3.5382
X5.2563Y-3.8951
X5.2867Y-3.2233
X5.3405Y-2.2212
X5.3694Y-3.7255
X5.3701Y-3.4584
X5.3704Y-3.57
X5.3747Y-3.3852
X5.4573Y-3.2827
X5.4582Y-3.6245
X5.4895Y-3.3425
X5.5073Y-2.9809
X5.5073Y-3.1384
X5.5131Y-3.0412
X5.5232Y-2.2115
X5.5277Y-2.7143
X5.55Y-3.2888
X5.5563Y-3.1935
X5.5599Y-2.5168
X5.6181Y-3.9877
X5.6376Y-3.1851
X5.6384Y-3.9074
X5.639Y-2.9159
X5.6504Y-2.2151
X5.7219Y-2.7589
X5.7711Y-4.0266
X5.8046Y-2.8515
X5.868Y-2.7495
T2
X4.6644Y-2.5271
X4.748Y-2.7485
X4.7932Y-2.5359
X4.9284Y-3.5436
X5.2987Y-3.3772
X5.3823Y-3.9944
X5.5118Y-2.9069
X5.5524Y-2.7804
X5.7163Y-3.982
T3
X4.6246Y-3.8111
X5.6091Y-3.7041
X5.7582Y-3.8967
X4.4852Y-4.0119
X4.6452Y-3.3054
X5.6813Y-3.802
X4.7936Y-3.4887
X4.559Y-3.2219
X5.9196Y-4.0774
X5.4669Y-3.5073
X4.5596Y-3.9149
X4.684Y-3.7055
X5.5373Y-3.6063
X5.8357Y-3.9892
X4.7398Y-3.5973
T4
X5.1384Y-1.8221
T0
M30
