M48
;DRILL file {KiCad no-vcs-found-08a9dc0~61~ubuntu16.04.1} date Wed Nov 29 13:43:15 2017
;FORMAT={-:-/ absolute / inch / decimal}
FMAT,2
INCH,TZ
T1C0.013
T2C0.016
T3C0.040
T4C0.126
%
G90
G05
M72
T1
X4.56Y-2.6813
X4.5703Y-4.0293
X4.6216Y-2.3074
X4.6802Y-2.5726
X4.6839Y-2.6478
X4.7525Y-2.6537
X4.8372Y-3.8534
X4.8484Y-2.2389
X4.8733Y-3.5992
X4.9101Y-3.5718
X4.9118Y-3.0512
X4.9134Y-2.9715
X4.9207Y-2.7747
X4.9281Y-2.9055
X4.9344Y-2.818
X4.9852Y-3.
X4.9886Y-2.7939
X4.9922Y-3.2052
X5.0515Y-2.1424
X5.1063Y-3.2707
X5.1191Y-2.0878
X5.1439Y-2.8006
X5.1457Y-3.4449
X5.2323Y-2.1575
X5.248Y-3.2657
X5.2522Y-3.9837
X5.3927Y-3.8189
X5.4127Y-3.2458
X5.4596Y-3.2884
X5.4596Y-3.8937
X5.4606Y-3.7372
X5.4739Y-3.6556
X5.5093Y-2.9828
X5.5118Y-3.1299
X5.5148Y-3.0344
X5.5212Y-2.6905
X5.5349Y-3.2743
X5.5404Y-4.0055
X5.5817Y-3.1713
X5.5959Y-3.7824
X5.5974Y-3.1142
X5.5982Y-3.8535
X5.6052Y-2.9375
X5.6266Y-2.3621
X5.7219Y-2.7589
X5.7392Y-4.1014
X5.7923Y-2.8498
X5.8617Y-2.7436
T2
X5.2203Y-3.4174
X5.3078Y-3.3777
X5.373Y-3.9154
X5.5118Y-2.9069
X5.5524Y-2.7613
X5.7146Y-3.9931
T3
X4.5596Y-3.9149
X5.6813Y-3.802
X5.6091Y-3.7041
X5.5373Y-3.6063
X4.559Y-3.2219
X4.7936Y-3.4887
X5.7582Y-3.8967
X4.684Y-3.7055
X4.4852Y-4.0119
X4.6246Y-3.8111
X4.7398Y-3.5973
X4.6452Y-3.3054
X5.8357Y-3.9892
X5.9196Y-4.0774
X5.4669Y-3.5073
T4
X5.1384Y-1.8239
T0
M30
