G04 #@! TF.GenerationSoftware,KiCad,Pcbnew,no-vcs-found-b8c621a~59~ubuntu16.04.1*
G04 #@! TF.CreationDate,2017-08-07T13:11:29-06:00*
G04 #@! TF.ProjectId,001,3030312E6B696361645F706362000000,rev?*
G04 #@! TF.SameCoordinates,Original*
G04 #@! TF.FileFunction,Soldermask,Bot*
G04 #@! TF.FilePolarity,Negative*
%FSLAX46Y46*%
G04 Gerber Fmt 4.6, Leading zero omitted, Abs format (unit mm)*
G04 Created by KiCad (PCBNEW no-vcs-found-b8c621a~59~ubuntu16.04.1) date Mon Aug  7 13:11:29 2017*
%MOMM*%
%LPD*%
G01*
G04 APERTURE LIST*
%ADD10C,0.010000*%
%ADD11C,0.100000*%
G04 APERTURE END LIST*
D10*
G36*
X121883114Y-104143275D02*
X121842497Y-104149993D01*
X121805579Y-104161411D01*
X121771898Y-104177702D01*
X121740991Y-104199039D01*
X121717963Y-104219847D01*
X121704331Y-104234234D01*
X121694031Y-104247019D01*
X121685388Y-104260508D01*
X121677366Y-104275712D01*
X121671761Y-104287264D01*
X121666982Y-104297928D01*
X121662965Y-104308311D01*
X121659642Y-104319021D01*
X121656947Y-104330665D01*
X121654816Y-104343850D01*
X121653182Y-104359183D01*
X121651979Y-104377273D01*
X121651141Y-104398727D01*
X121650602Y-104424151D01*
X121650297Y-104454154D01*
X121650158Y-104489342D01*
X121650122Y-104526683D01*
X121650080Y-104687404D01*
X121630237Y-104689629D01*
X121605387Y-104694480D01*
X121585686Y-104702983D01*
X121570978Y-104715299D01*
X121561105Y-104731591D01*
X121555911Y-104752021D01*
X121554970Y-104767600D01*
X121556661Y-104789333D01*
X121561982Y-104806602D01*
X121571308Y-104820393D01*
X121576987Y-104825792D01*
X121582856Y-104830670D01*
X121588201Y-104834663D01*
X121593705Y-104837859D01*
X121600049Y-104840348D01*
X121607917Y-104842217D01*
X121617990Y-104843555D01*
X121630952Y-104844451D01*
X121647484Y-104844994D01*
X121668268Y-104845271D01*
X121693988Y-104845373D01*
X121725325Y-104845387D01*
X121845343Y-104845387D01*
X121864393Y-104835862D01*
X121881298Y-104825445D01*
X121892856Y-104813211D01*
X121899883Y-104797909D01*
X121903197Y-104778287D01*
X121903347Y-104776167D01*
X121902898Y-104751919D01*
X121897987Y-104732016D01*
X121888373Y-104716166D01*
X121873814Y-104704077D01*
X121854070Y-104695459D01*
X121832536Y-104690565D01*
X121808830Y-104686793D01*
X121808830Y-104542126D01*
X121808864Y-104504845D01*
X121809000Y-104473325D01*
X121809296Y-104446977D01*
X121809806Y-104425212D01*
X121810587Y-104407442D01*
X121811694Y-104393078D01*
X121813182Y-104381530D01*
X121815107Y-104372211D01*
X121817525Y-104364530D01*
X121820491Y-104357900D01*
X121824061Y-104351731D01*
X121827266Y-104346912D01*
X121839862Y-104333059D01*
X121856916Y-104320609D01*
X121876537Y-104310844D01*
X121884637Y-104307991D01*
X121894622Y-104305510D01*
X121906550Y-104303849D01*
X121921755Y-104302892D01*
X121941567Y-104302526D01*
X121948530Y-104302514D01*
X121967324Y-104302638D01*
X121981314Y-104303087D01*
X121992045Y-104304047D01*
X122001064Y-104305706D01*
X122009914Y-104308250D01*
X122017352Y-104310845D01*
X122042013Y-104321944D01*
X122067375Y-104337711D01*
X122094095Y-104358589D01*
X122113114Y-104375686D01*
X122142205Y-104403071D01*
X122142205Y-104688225D01*
X122130089Y-104688225D01*
X122114781Y-104689277D01*
X122097873Y-104692073D01*
X122081977Y-104696065D01*
X122069702Y-104700710D01*
X122069281Y-104700923D01*
X122052241Y-104712773D01*
X122040275Y-104728263D01*
X122033282Y-104747580D01*
X122031150Y-104769879D01*
X122033134Y-104791596D01*
X122039297Y-104808981D01*
X122050193Y-104822916D01*
X122066375Y-104834280D01*
X122073983Y-104838088D01*
X122078059Y-104839902D01*
X122082094Y-104841391D01*
X122086734Y-104842591D01*
X122092629Y-104843538D01*
X122100428Y-104844266D01*
X122110778Y-104844813D01*
X122124328Y-104845213D01*
X122141728Y-104845502D01*
X122163624Y-104845716D01*
X122190667Y-104845891D01*
X122218405Y-104846037D01*
X122253092Y-104846160D01*
X122281934Y-104846139D01*
X122305437Y-104845961D01*
X122324107Y-104845615D01*
X122338447Y-104845088D01*
X122348964Y-104844367D01*
X122356161Y-104843441D01*
X122359693Y-104842602D01*
X122380961Y-104833832D01*
X122396632Y-104822643D01*
X122407223Y-104808328D01*
X122413251Y-104790180D01*
X122415235Y-104767492D01*
X122415238Y-104766704D01*
X122412540Y-104744591D01*
X122404525Y-104725737D01*
X122391383Y-104710468D01*
X122377055Y-104700923D01*
X122365002Y-104696262D01*
X122349210Y-104692229D01*
X122332292Y-104689369D01*
X122316858Y-104688227D01*
X122316247Y-104688225D01*
X122304130Y-104688225D01*
X122304130Y-104321217D01*
X122326516Y-104317378D01*
X122339907Y-104314478D01*
X122352652Y-104310716D01*
X122361134Y-104307299D01*
X122377444Y-104295620D01*
X122389383Y-104279929D01*
X122396640Y-104261096D01*
X122398904Y-104239991D01*
X122395866Y-104217483D01*
X122394705Y-104213258D01*
X122386382Y-104195920D01*
X122372533Y-104181516D01*
X122353343Y-104170068D01*
X122348630Y-104168006D01*
X122343932Y-104166362D01*
X122338474Y-104165081D01*
X122331481Y-104164105D01*
X122322180Y-104163379D01*
X122309796Y-104162844D01*
X122293556Y-104162446D01*
X122272683Y-104162126D01*
X122246406Y-104161829D01*
X122239837Y-104161761D01*
X122142205Y-104160761D01*
X122142205Y-104231187D01*
X122122293Y-104214295D01*
X122102186Y-104197985D01*
X122083885Y-104184997D01*
X122065086Y-104173814D01*
X122046192Y-104164208D01*
X122024849Y-104155003D01*
X122003998Y-104148417D01*
X121981959Y-104144120D01*
X121957050Y-104141784D01*
X121927893Y-104141082D01*
X121883114Y-104143275D01*
X121883114Y-104143275D01*
G37*
X121883114Y-104143275D02*
X121842497Y-104149993D01*
X121805579Y-104161411D01*
X121771898Y-104177702D01*
X121740991Y-104199039D01*
X121717963Y-104219847D01*
X121704331Y-104234234D01*
X121694031Y-104247019D01*
X121685388Y-104260508D01*
X121677366Y-104275712D01*
X121671761Y-104287264D01*
X121666982Y-104297928D01*
X121662965Y-104308311D01*
X121659642Y-104319021D01*
X121656947Y-104330665D01*
X121654816Y-104343850D01*
X121653182Y-104359183D01*
X121651979Y-104377273D01*
X121651141Y-104398727D01*
X121650602Y-104424151D01*
X121650297Y-104454154D01*
X121650158Y-104489342D01*
X121650122Y-104526683D01*
X121650080Y-104687404D01*
X121630237Y-104689629D01*
X121605387Y-104694480D01*
X121585686Y-104702983D01*
X121570978Y-104715299D01*
X121561105Y-104731591D01*
X121555911Y-104752021D01*
X121554970Y-104767600D01*
X121556661Y-104789333D01*
X121561982Y-104806602D01*
X121571308Y-104820393D01*
X121576987Y-104825792D01*
X121582856Y-104830670D01*
X121588201Y-104834663D01*
X121593705Y-104837859D01*
X121600049Y-104840348D01*
X121607917Y-104842217D01*
X121617990Y-104843555D01*
X121630952Y-104844451D01*
X121647484Y-104844994D01*
X121668268Y-104845271D01*
X121693988Y-104845373D01*
X121725325Y-104845387D01*
X121845343Y-104845387D01*
X121864393Y-104835862D01*
X121881298Y-104825445D01*
X121892856Y-104813211D01*
X121899883Y-104797909D01*
X121903197Y-104778287D01*
X121903347Y-104776167D01*
X121902898Y-104751919D01*
X121897987Y-104732016D01*
X121888373Y-104716166D01*
X121873814Y-104704077D01*
X121854070Y-104695459D01*
X121832536Y-104690565D01*
X121808830Y-104686793D01*
X121808830Y-104542126D01*
X121808864Y-104504845D01*
X121809000Y-104473325D01*
X121809296Y-104446977D01*
X121809806Y-104425212D01*
X121810587Y-104407442D01*
X121811694Y-104393078D01*
X121813182Y-104381530D01*
X121815107Y-104372211D01*
X121817525Y-104364530D01*
X121820491Y-104357900D01*
X121824061Y-104351731D01*
X121827266Y-104346912D01*
X121839862Y-104333059D01*
X121856916Y-104320609D01*
X121876537Y-104310844D01*
X121884637Y-104307991D01*
X121894622Y-104305510D01*
X121906550Y-104303849D01*
X121921755Y-104302892D01*
X121941567Y-104302526D01*
X121948530Y-104302514D01*
X121967324Y-104302638D01*
X121981314Y-104303087D01*
X121992045Y-104304047D01*
X122001064Y-104305706D01*
X122009914Y-104308250D01*
X122017352Y-104310845D01*
X122042013Y-104321944D01*
X122067375Y-104337711D01*
X122094095Y-104358589D01*
X122113114Y-104375686D01*
X122142205Y-104403071D01*
X122142205Y-104688225D01*
X122130089Y-104688225D01*
X122114781Y-104689277D01*
X122097873Y-104692073D01*
X122081977Y-104696065D01*
X122069702Y-104700710D01*
X122069281Y-104700923D01*
X122052241Y-104712773D01*
X122040275Y-104728263D01*
X122033282Y-104747580D01*
X122031150Y-104769879D01*
X122033134Y-104791596D01*
X122039297Y-104808981D01*
X122050193Y-104822916D01*
X122066375Y-104834280D01*
X122073983Y-104838088D01*
X122078059Y-104839902D01*
X122082094Y-104841391D01*
X122086734Y-104842591D01*
X122092629Y-104843538D01*
X122100428Y-104844266D01*
X122110778Y-104844813D01*
X122124328Y-104845213D01*
X122141728Y-104845502D01*
X122163624Y-104845716D01*
X122190667Y-104845891D01*
X122218405Y-104846037D01*
X122253092Y-104846160D01*
X122281934Y-104846139D01*
X122305437Y-104845961D01*
X122324107Y-104845615D01*
X122338447Y-104845088D01*
X122348964Y-104844367D01*
X122356161Y-104843441D01*
X122359693Y-104842602D01*
X122380961Y-104833832D01*
X122396632Y-104822643D01*
X122407223Y-104808328D01*
X122413251Y-104790180D01*
X122415235Y-104767492D01*
X122415238Y-104766704D01*
X122412540Y-104744591D01*
X122404525Y-104725737D01*
X122391383Y-104710468D01*
X122377055Y-104700923D01*
X122365002Y-104696262D01*
X122349210Y-104692229D01*
X122332292Y-104689369D01*
X122316858Y-104688227D01*
X122316247Y-104688225D01*
X122304130Y-104688225D01*
X122304130Y-104321217D01*
X122326516Y-104317378D01*
X122339907Y-104314478D01*
X122352652Y-104310716D01*
X122361134Y-104307299D01*
X122377444Y-104295620D01*
X122389383Y-104279929D01*
X122396640Y-104261096D01*
X122398904Y-104239991D01*
X122395866Y-104217483D01*
X122394705Y-104213258D01*
X122386382Y-104195920D01*
X122372533Y-104181516D01*
X122353343Y-104170068D01*
X122348630Y-104168006D01*
X122343932Y-104166362D01*
X122338474Y-104165081D01*
X122331481Y-104164105D01*
X122322180Y-104163379D01*
X122309796Y-104162844D01*
X122293556Y-104162446D01*
X122272683Y-104162126D01*
X122246406Y-104161829D01*
X122239837Y-104161761D01*
X122142205Y-104160761D01*
X122142205Y-104231187D01*
X122122293Y-104214295D01*
X122102186Y-104197985D01*
X122083885Y-104184997D01*
X122065086Y-104173814D01*
X122046192Y-104164208D01*
X122024849Y-104155003D01*
X122003998Y-104148417D01*
X121981959Y-104144120D01*
X121957050Y-104141784D01*
X121927893Y-104141082D01*
X121883114Y-104143275D01*
G36*
X124841186Y-103932937D02*
X124815516Y-103933204D01*
X124793595Y-103933647D01*
X124774905Y-103934290D01*
X124758925Y-103935158D01*
X124745135Y-103936274D01*
X124733016Y-103937662D01*
X124722047Y-103939347D01*
X124711708Y-103941353D01*
X124701480Y-103943703D01*
X124690843Y-103946422D01*
X124687719Y-103947254D01*
X124648172Y-103960576D01*
X124610916Y-103978522D01*
X124576641Y-104000544D01*
X124546037Y-104026096D01*
X124519793Y-104054629D01*
X124498600Y-104085597D01*
X124488569Y-104105176D01*
X124476700Y-104138461D01*
X124469413Y-104174428D01*
X124466981Y-104211090D01*
X124469327Y-104244121D01*
X124477367Y-104279701D01*
X124490918Y-104313000D01*
X124510214Y-104344447D01*
X124535488Y-104374475D01*
X124545666Y-104384610D01*
X124556345Y-104394189D01*
X124569212Y-104404774D01*
X124583205Y-104415603D01*
X124597264Y-104425912D01*
X124610330Y-104434937D01*
X124621341Y-104441916D01*
X124629237Y-104446084D01*
X124632215Y-104446925D01*
X124631362Y-104448986D01*
X124626672Y-104454619D01*
X124618887Y-104462996D01*
X124608750Y-104473288D01*
X124607261Y-104474759D01*
X124563338Y-104521091D01*
X124520560Y-104572170D01*
X124480223Y-104626392D01*
X124458355Y-104658806D01*
X124439318Y-104688125D01*
X124420268Y-104688230D01*
X124399512Y-104689596D01*
X124379019Y-104693167D01*
X124360673Y-104698490D01*
X124346359Y-104705110D01*
X124344068Y-104706604D01*
X124329963Y-104719528D01*
X124320809Y-104735423D01*
X124316258Y-104755041D01*
X124315589Y-104767600D01*
X124317682Y-104790729D01*
X124324337Y-104809549D01*
X124335815Y-104824417D01*
X124352374Y-104835692D01*
X124369664Y-104842430D01*
X124376597Y-104843975D01*
X124386331Y-104845160D01*
X124399589Y-104846017D01*
X124417090Y-104846583D01*
X124439558Y-104846890D01*
X124465044Y-104846975D01*
X124545323Y-104846975D01*
X124563150Y-104815211D01*
X124581682Y-104783770D01*
X124602464Y-104751281D01*
X124624982Y-104718370D01*
X124648720Y-104685666D01*
X124673165Y-104653794D01*
X124697802Y-104623381D01*
X124722116Y-104595053D01*
X124745593Y-104569439D01*
X124767718Y-104547163D01*
X124787978Y-104528853D01*
X124805857Y-104515135D01*
X124813414Y-104510381D01*
X124829843Y-104500959D01*
X124905249Y-104500929D01*
X124980655Y-104500900D01*
X124980655Y-104688225D01*
X124944937Y-104688280D01*
X124913754Y-104689451D01*
X124888013Y-104692988D01*
X124867188Y-104699081D01*
X124850756Y-104707923D01*
X124838192Y-104719703D01*
X124831505Y-104729640D01*
X124827082Y-104738976D01*
X124824661Y-104748513D01*
X124823724Y-104760757D01*
X124823647Y-104767600D01*
X124825774Y-104790586D01*
X124832245Y-104809152D01*
X124843208Y-104823644D01*
X124850283Y-104829375D01*
X124855989Y-104833217D01*
X124861482Y-104836455D01*
X124867337Y-104839140D01*
X124874130Y-104841324D01*
X124882437Y-104843057D01*
X124892834Y-104844391D01*
X124905896Y-104845377D01*
X124922199Y-104846067D01*
X124942319Y-104846510D01*
X124966832Y-104846760D01*
X124996312Y-104846866D01*
X125031336Y-104846880D01*
X125047041Y-104846871D01*
X125082691Y-104846831D01*
X125112574Y-104846750D01*
X125137276Y-104846608D01*
X125157380Y-104846385D01*
X125173470Y-104846060D01*
X125186131Y-104845614D01*
X125195947Y-104845025D01*
X125203502Y-104844275D01*
X125209379Y-104843343D01*
X125214164Y-104842209D01*
X125218096Y-104840972D01*
X125237664Y-104831268D01*
X125252474Y-104817498D01*
X125262350Y-104799993D01*
X125267115Y-104779083D01*
X125266594Y-104755099D01*
X125266019Y-104751072D01*
X125260014Y-104731681D01*
X125248775Y-104715727D01*
X125232469Y-104703311D01*
X125211265Y-104694533D01*
X125185332Y-104689495D01*
X125161047Y-104688225D01*
X125142580Y-104688225D01*
X125142580Y-104342150D01*
X124980655Y-104342150D01*
X124930649Y-104342122D01*
X124908715Y-104341883D01*
X124884519Y-104341252D01*
X124860797Y-104340319D01*
X124840284Y-104339177D01*
X124837687Y-104338996D01*
X124803906Y-104335583D01*
X124774645Y-104330359D01*
X124748236Y-104322925D01*
X124723007Y-104312885D01*
X124717759Y-104310434D01*
X124695930Y-104298024D01*
X124676076Y-104282976D01*
X124659503Y-104266461D01*
X124647516Y-104249653D01*
X124645279Y-104245312D01*
X124639819Y-104228176D01*
X124637669Y-104208661D01*
X124638883Y-104189300D01*
X124643513Y-104172627D01*
X124643758Y-104172079D01*
X124656038Y-104152341D01*
X124673851Y-104134348D01*
X124696494Y-104118647D01*
X124723267Y-104105783D01*
X124734344Y-104101762D01*
X124741289Y-104099487D01*
X124747556Y-104097649D01*
X124753911Y-104096193D01*
X124761123Y-104095064D01*
X124769960Y-104094206D01*
X124781189Y-104093566D01*
X124795577Y-104093087D01*
X124813894Y-104092716D01*
X124836906Y-104092396D01*
X124865381Y-104092074D01*
X124870324Y-104092020D01*
X124980655Y-104090822D01*
X124980655Y-104342150D01*
X125142580Y-104342150D01*
X125142580Y-104092248D01*
X125173537Y-104090446D01*
X125201727Y-104087202D01*
X125224488Y-104080925D01*
X125242088Y-104071387D01*
X125254795Y-104058358D01*
X125262878Y-104041609D01*
X125266605Y-104020912D01*
X125266935Y-104010728D01*
X125265288Y-103988627D01*
X125260185Y-103971237D01*
X125251095Y-103957636D01*
X125237488Y-103946897D01*
X125227199Y-103941562D01*
X125210843Y-103934162D01*
X124991768Y-103933145D01*
X124945898Y-103932950D01*
X124905857Y-103932834D01*
X124871127Y-103932822D01*
X124841186Y-103932937D01*
X124841186Y-103932937D01*
G37*
X124841186Y-103932937D02*
X124815516Y-103933204D01*
X124793595Y-103933647D01*
X124774905Y-103934290D01*
X124758925Y-103935158D01*
X124745135Y-103936274D01*
X124733016Y-103937662D01*
X124722047Y-103939347D01*
X124711708Y-103941353D01*
X124701480Y-103943703D01*
X124690843Y-103946422D01*
X124687719Y-103947254D01*
X124648172Y-103960576D01*
X124610916Y-103978522D01*
X124576641Y-104000544D01*
X124546037Y-104026096D01*
X124519793Y-104054629D01*
X124498600Y-104085597D01*
X124488569Y-104105176D01*
X124476700Y-104138461D01*
X124469413Y-104174428D01*
X124466981Y-104211090D01*
X124469327Y-104244121D01*
X124477367Y-104279701D01*
X124490918Y-104313000D01*
X124510214Y-104344447D01*
X124535488Y-104374475D01*
X124545666Y-104384610D01*
X124556345Y-104394189D01*
X124569212Y-104404774D01*
X124583205Y-104415603D01*
X124597264Y-104425912D01*
X124610330Y-104434937D01*
X124621341Y-104441916D01*
X124629237Y-104446084D01*
X124632215Y-104446925D01*
X124631362Y-104448986D01*
X124626672Y-104454619D01*
X124618887Y-104462996D01*
X124608750Y-104473288D01*
X124607261Y-104474759D01*
X124563338Y-104521091D01*
X124520560Y-104572170D01*
X124480223Y-104626392D01*
X124458355Y-104658806D01*
X124439318Y-104688125D01*
X124420268Y-104688230D01*
X124399512Y-104689596D01*
X124379019Y-104693167D01*
X124360673Y-104698490D01*
X124346359Y-104705110D01*
X124344068Y-104706604D01*
X124329963Y-104719528D01*
X124320809Y-104735423D01*
X124316258Y-104755041D01*
X124315589Y-104767600D01*
X124317682Y-104790729D01*
X124324337Y-104809549D01*
X124335815Y-104824417D01*
X124352374Y-104835692D01*
X124369664Y-104842430D01*
X124376597Y-104843975D01*
X124386331Y-104845160D01*
X124399589Y-104846017D01*
X124417090Y-104846583D01*
X124439558Y-104846890D01*
X124465044Y-104846975D01*
X124545323Y-104846975D01*
X124563150Y-104815211D01*
X124581682Y-104783770D01*
X124602464Y-104751281D01*
X124624982Y-104718370D01*
X124648720Y-104685666D01*
X124673165Y-104653794D01*
X124697802Y-104623381D01*
X124722116Y-104595053D01*
X124745593Y-104569439D01*
X124767718Y-104547163D01*
X124787978Y-104528853D01*
X124805857Y-104515135D01*
X124813414Y-104510381D01*
X124829843Y-104500959D01*
X124905249Y-104500929D01*
X124980655Y-104500900D01*
X124980655Y-104688225D01*
X124944937Y-104688280D01*
X124913754Y-104689451D01*
X124888013Y-104692988D01*
X124867188Y-104699081D01*
X124850756Y-104707923D01*
X124838192Y-104719703D01*
X124831505Y-104729640D01*
X124827082Y-104738976D01*
X124824661Y-104748513D01*
X124823724Y-104760757D01*
X124823647Y-104767600D01*
X124825774Y-104790586D01*
X124832245Y-104809152D01*
X124843208Y-104823644D01*
X124850283Y-104829375D01*
X124855989Y-104833217D01*
X124861482Y-104836455D01*
X124867337Y-104839140D01*
X124874130Y-104841324D01*
X124882437Y-104843057D01*
X124892834Y-104844391D01*
X124905896Y-104845377D01*
X124922199Y-104846067D01*
X124942319Y-104846510D01*
X124966832Y-104846760D01*
X124996312Y-104846866D01*
X125031336Y-104846880D01*
X125047041Y-104846871D01*
X125082691Y-104846831D01*
X125112574Y-104846750D01*
X125137276Y-104846608D01*
X125157380Y-104846385D01*
X125173470Y-104846060D01*
X125186131Y-104845614D01*
X125195947Y-104845025D01*
X125203502Y-104844275D01*
X125209379Y-104843343D01*
X125214164Y-104842209D01*
X125218096Y-104840972D01*
X125237664Y-104831268D01*
X125252474Y-104817498D01*
X125262350Y-104799993D01*
X125267115Y-104779083D01*
X125266594Y-104755099D01*
X125266019Y-104751072D01*
X125260014Y-104731681D01*
X125248775Y-104715727D01*
X125232469Y-104703311D01*
X125211265Y-104694533D01*
X125185332Y-104689495D01*
X125161047Y-104688225D01*
X125142580Y-104688225D01*
X125142580Y-104342150D01*
X124980655Y-104342150D01*
X124930649Y-104342122D01*
X124908715Y-104341883D01*
X124884519Y-104341252D01*
X124860797Y-104340319D01*
X124840284Y-104339177D01*
X124837687Y-104338996D01*
X124803906Y-104335583D01*
X124774645Y-104330359D01*
X124748236Y-104322925D01*
X124723007Y-104312885D01*
X124717759Y-104310434D01*
X124695930Y-104298024D01*
X124676076Y-104282976D01*
X124659503Y-104266461D01*
X124647516Y-104249653D01*
X124645279Y-104245312D01*
X124639819Y-104228176D01*
X124637669Y-104208661D01*
X124638883Y-104189300D01*
X124643513Y-104172627D01*
X124643758Y-104172079D01*
X124656038Y-104152341D01*
X124673851Y-104134348D01*
X124696494Y-104118647D01*
X124723267Y-104105783D01*
X124734344Y-104101762D01*
X124741289Y-104099487D01*
X124747556Y-104097649D01*
X124753911Y-104096193D01*
X124761123Y-104095064D01*
X124769960Y-104094206D01*
X124781189Y-104093566D01*
X124795577Y-104093087D01*
X124813894Y-104092716D01*
X124836906Y-104092396D01*
X124865381Y-104092074D01*
X124870324Y-104092020D01*
X124980655Y-104090822D01*
X124980655Y-104342150D01*
X125142580Y-104342150D01*
X125142580Y-104092248D01*
X125173537Y-104090446D01*
X125201727Y-104087202D01*
X125224488Y-104080925D01*
X125242088Y-104071387D01*
X125254795Y-104058358D01*
X125262878Y-104041609D01*
X125266605Y-104020912D01*
X125266935Y-104010728D01*
X125265288Y-103988627D01*
X125260185Y-103971237D01*
X125251095Y-103957636D01*
X125237488Y-103946897D01*
X125227199Y-103941562D01*
X125210843Y-103934162D01*
X124991768Y-103933145D01*
X124945898Y-103932950D01*
X124905857Y-103932834D01*
X124871127Y-103932822D01*
X124841186Y-103932937D01*
G36*
X125399873Y-103912005D02*
X125383586Y-103917738D01*
X125374099Y-103923968D01*
X125366723Y-103932261D01*
X125360068Y-103943696D01*
X125350543Y-103962267D01*
X125349552Y-104066580D01*
X125349315Y-104096419D01*
X125349244Y-104120632D01*
X125349362Y-104139942D01*
X125349692Y-104155070D01*
X125350258Y-104166740D01*
X125351083Y-104175674D01*
X125352190Y-104182595D01*
X125353437Y-104187664D01*
X125361395Y-104208073D01*
X125372168Y-104223117D01*
X125386368Y-104233246D01*
X125404610Y-104238905D01*
X125425930Y-104240550D01*
X125439822Y-104239971D01*
X125452343Y-104238437D01*
X125461045Y-104236251D01*
X125461214Y-104236181D01*
X125472337Y-104229443D01*
X125482137Y-104218774D01*
X125490958Y-104203573D01*
X125499147Y-104183241D01*
X125507051Y-104157178D01*
X125507296Y-104156268D01*
X125515118Y-104138999D01*
X125528530Y-104123173D01*
X125546895Y-104108990D01*
X125569575Y-104096652D01*
X125595932Y-104086361D01*
X125625330Y-104078317D01*
X125657131Y-104072722D01*
X125690697Y-104069777D01*
X125725390Y-104069684D01*
X125760575Y-104072643D01*
X125768614Y-104073768D01*
X125810415Y-104082955D01*
X125848907Y-104097250D01*
X125883772Y-104116356D01*
X125914692Y-104139977D01*
X125941348Y-104167817D01*
X125963422Y-104199577D01*
X125980596Y-104234963D01*
X125992552Y-104273676D01*
X125994824Y-104284556D01*
X125996607Y-104297860D01*
X125998033Y-104316198D01*
X125999100Y-104338428D01*
X125999809Y-104363409D01*
X126000160Y-104390000D01*
X126000152Y-104417059D01*
X125999787Y-104443445D01*
X125999064Y-104468016D01*
X125997983Y-104489631D01*
X125996543Y-104507149D01*
X125994816Y-104519092D01*
X125984322Y-104556909D01*
X125969306Y-104590443D01*
X125949697Y-104619755D01*
X125925422Y-104644902D01*
X125896410Y-104665943D01*
X125862587Y-104682938D01*
X125823883Y-104695946D01*
X125780225Y-104705025D01*
X125764964Y-104707139D01*
X125720989Y-104710349D01*
X125675308Y-104709629D01*
X125629590Y-104705163D01*
X125585508Y-104697139D01*
X125544731Y-104685741D01*
X125532312Y-104681281D01*
X125507705Y-104671888D01*
X125507705Y-104568202D01*
X125602162Y-104566793D01*
X125632361Y-104566268D01*
X125656990Y-104565612D01*
X125676827Y-104564716D01*
X125692651Y-104563473D01*
X125705242Y-104561774D01*
X125715378Y-104559510D01*
X125723839Y-104556573D01*
X125731404Y-104552854D01*
X125738852Y-104548246D01*
X125739761Y-104547637D01*
X125752513Y-104535363D01*
X125761538Y-104518800D01*
X125766522Y-104499014D01*
X125767151Y-104477069D01*
X125765023Y-104461901D01*
X125759113Y-104444683D01*
X125748907Y-104431063D01*
X125733688Y-104420256D01*
X125722018Y-104414861D01*
X125702968Y-104407237D01*
X125528343Y-104407237D01*
X125490179Y-104407252D01*
X125457819Y-104407306D01*
X125430717Y-104407416D01*
X125408328Y-104407598D01*
X125390106Y-104407867D01*
X125375506Y-104408240D01*
X125363981Y-104408732D01*
X125354986Y-104409360D01*
X125347975Y-104410140D01*
X125342402Y-104411087D01*
X125337723Y-104412217D01*
X125335476Y-104412878D01*
X125314863Y-104422065D01*
X125299107Y-104435233D01*
X125288418Y-104452103D01*
X125283009Y-104472395D01*
X125282350Y-104483069D01*
X125284543Y-104506677D01*
X125291489Y-104526216D01*
X125303448Y-104542106D01*
X125320682Y-104554768D01*
X125329705Y-104559291D01*
X125348955Y-104567931D01*
X125348955Y-104774367D01*
X125394199Y-104796049D01*
X125434166Y-104814452D01*
X125470578Y-104829522D01*
X125504927Y-104841781D01*
X125538703Y-104851753D01*
X125573397Y-104859959D01*
X125580730Y-104861466D01*
X125593550Y-104863321D01*
X125611469Y-104864916D01*
X125633240Y-104866225D01*
X125657617Y-104867223D01*
X125683354Y-104867883D01*
X125709204Y-104868181D01*
X125733920Y-104868091D01*
X125756256Y-104867587D01*
X125774966Y-104866643D01*
X125785518Y-104865674D01*
X125825652Y-104859272D01*
X125866286Y-104849836D01*
X125905647Y-104837891D01*
X125941962Y-104823965D01*
X125968080Y-104811511D01*
X126006477Y-104787592D01*
X126041314Y-104758689D01*
X126072296Y-104725266D01*
X126099127Y-104687785D01*
X126121509Y-104646710D01*
X126139146Y-104602505D01*
X126151741Y-104555633D01*
X126158238Y-104514269D01*
X126159523Y-104497993D01*
X126160506Y-104476730D01*
X126161187Y-104451835D01*
X126161564Y-104424664D01*
X126161635Y-104396572D01*
X126161399Y-104368916D01*
X126160856Y-104343050D01*
X126160004Y-104320330D01*
X126158841Y-104302112D01*
X126158441Y-104297822D01*
X126151208Y-104251872D01*
X126139262Y-104206792D01*
X126123157Y-104164587D01*
X126119222Y-104156119D01*
X126103895Y-104126400D01*
X126088001Y-104100432D01*
X126070185Y-104076317D01*
X126049089Y-104052157D01*
X126033181Y-104035735D01*
X125997779Y-104003409D01*
X125961373Y-103976577D01*
X125922911Y-103954671D01*
X125881342Y-103937121D01*
X125835615Y-103923359D01*
X125817866Y-103919208D01*
X125806139Y-103916815D01*
X125795080Y-103915022D01*
X125783470Y-103913746D01*
X125770090Y-103912903D01*
X125753720Y-103912412D01*
X125733141Y-103912188D01*
X125714080Y-103912146D01*
X125687018Y-103912282D01*
X125665147Y-103912737D01*
X125647313Y-103913576D01*
X125632363Y-103914862D01*
X125619143Y-103916659D01*
X125612692Y-103917794D01*
X125586583Y-103923613D01*
X125558665Y-103931353D01*
X125531555Y-103940217D01*
X125507870Y-103949410D01*
X125505625Y-103950390D01*
X125493899Y-103954941D01*
X125487397Y-103955916D01*
X125486041Y-103954893D01*
X125481635Y-103946916D01*
X125473866Y-103937103D01*
X125464487Y-103927375D01*
X125455251Y-103919655D01*
X125451995Y-103917564D01*
X125436496Y-103911902D01*
X125418321Y-103910051D01*
X125399873Y-103912005D01*
X125399873Y-103912005D01*
G37*
X125399873Y-103912005D02*
X125383586Y-103917738D01*
X125374099Y-103923968D01*
X125366723Y-103932261D01*
X125360068Y-103943696D01*
X125350543Y-103962267D01*
X125349552Y-104066580D01*
X125349315Y-104096419D01*
X125349244Y-104120632D01*
X125349362Y-104139942D01*
X125349692Y-104155070D01*
X125350258Y-104166740D01*
X125351083Y-104175674D01*
X125352190Y-104182595D01*
X125353437Y-104187664D01*
X125361395Y-104208073D01*
X125372168Y-104223117D01*
X125386368Y-104233246D01*
X125404610Y-104238905D01*
X125425930Y-104240550D01*
X125439822Y-104239971D01*
X125452343Y-104238437D01*
X125461045Y-104236251D01*
X125461214Y-104236181D01*
X125472337Y-104229443D01*
X125482137Y-104218774D01*
X125490958Y-104203573D01*
X125499147Y-104183241D01*
X125507051Y-104157178D01*
X125507296Y-104156268D01*
X125515118Y-104138999D01*
X125528530Y-104123173D01*
X125546895Y-104108990D01*
X125569575Y-104096652D01*
X125595932Y-104086361D01*
X125625330Y-104078317D01*
X125657131Y-104072722D01*
X125690697Y-104069777D01*
X125725390Y-104069684D01*
X125760575Y-104072643D01*
X125768614Y-104073768D01*
X125810415Y-104082955D01*
X125848907Y-104097250D01*
X125883772Y-104116356D01*
X125914692Y-104139977D01*
X125941348Y-104167817D01*
X125963422Y-104199577D01*
X125980596Y-104234963D01*
X125992552Y-104273676D01*
X125994824Y-104284556D01*
X125996607Y-104297860D01*
X125998033Y-104316198D01*
X125999100Y-104338428D01*
X125999809Y-104363409D01*
X126000160Y-104390000D01*
X126000152Y-104417059D01*
X125999787Y-104443445D01*
X125999064Y-104468016D01*
X125997983Y-104489631D01*
X125996543Y-104507149D01*
X125994816Y-104519092D01*
X125984322Y-104556909D01*
X125969306Y-104590443D01*
X125949697Y-104619755D01*
X125925422Y-104644902D01*
X125896410Y-104665943D01*
X125862587Y-104682938D01*
X125823883Y-104695946D01*
X125780225Y-104705025D01*
X125764964Y-104707139D01*
X125720989Y-104710349D01*
X125675308Y-104709629D01*
X125629590Y-104705163D01*
X125585508Y-104697139D01*
X125544731Y-104685741D01*
X125532312Y-104681281D01*
X125507705Y-104671888D01*
X125507705Y-104568202D01*
X125602162Y-104566793D01*
X125632361Y-104566268D01*
X125656990Y-104565612D01*
X125676827Y-104564716D01*
X125692651Y-104563473D01*
X125705242Y-104561774D01*
X125715378Y-104559510D01*
X125723839Y-104556573D01*
X125731404Y-104552854D01*
X125738852Y-104548246D01*
X125739761Y-104547637D01*
X125752513Y-104535363D01*
X125761538Y-104518800D01*
X125766522Y-104499014D01*
X125767151Y-104477069D01*
X125765023Y-104461901D01*
X125759113Y-104444683D01*
X125748907Y-104431063D01*
X125733688Y-104420256D01*
X125722018Y-104414861D01*
X125702968Y-104407237D01*
X125528343Y-104407237D01*
X125490179Y-104407252D01*
X125457819Y-104407306D01*
X125430717Y-104407416D01*
X125408328Y-104407598D01*
X125390106Y-104407867D01*
X125375506Y-104408240D01*
X125363981Y-104408732D01*
X125354986Y-104409360D01*
X125347975Y-104410140D01*
X125342402Y-104411087D01*
X125337723Y-104412217D01*
X125335476Y-104412878D01*
X125314863Y-104422065D01*
X125299107Y-104435233D01*
X125288418Y-104452103D01*
X125283009Y-104472395D01*
X125282350Y-104483069D01*
X125284543Y-104506677D01*
X125291489Y-104526216D01*
X125303448Y-104542106D01*
X125320682Y-104554768D01*
X125329705Y-104559291D01*
X125348955Y-104567931D01*
X125348955Y-104774367D01*
X125394199Y-104796049D01*
X125434166Y-104814452D01*
X125470578Y-104829522D01*
X125504927Y-104841781D01*
X125538703Y-104851753D01*
X125573397Y-104859959D01*
X125580730Y-104861466D01*
X125593550Y-104863321D01*
X125611469Y-104864916D01*
X125633240Y-104866225D01*
X125657617Y-104867223D01*
X125683354Y-104867883D01*
X125709204Y-104868181D01*
X125733920Y-104868091D01*
X125756256Y-104867587D01*
X125774966Y-104866643D01*
X125785518Y-104865674D01*
X125825652Y-104859272D01*
X125866286Y-104849836D01*
X125905647Y-104837891D01*
X125941962Y-104823965D01*
X125968080Y-104811511D01*
X126006477Y-104787592D01*
X126041314Y-104758689D01*
X126072296Y-104725266D01*
X126099127Y-104687785D01*
X126121509Y-104646710D01*
X126139146Y-104602505D01*
X126151741Y-104555633D01*
X126158238Y-104514269D01*
X126159523Y-104497993D01*
X126160506Y-104476730D01*
X126161187Y-104451835D01*
X126161564Y-104424664D01*
X126161635Y-104396572D01*
X126161399Y-104368916D01*
X126160856Y-104343050D01*
X126160004Y-104320330D01*
X126158841Y-104302112D01*
X126158441Y-104297822D01*
X126151208Y-104251872D01*
X126139262Y-104206792D01*
X126123157Y-104164587D01*
X126119222Y-104156119D01*
X126103895Y-104126400D01*
X126088001Y-104100432D01*
X126070185Y-104076317D01*
X126049089Y-104052157D01*
X126033181Y-104035735D01*
X125997779Y-104003409D01*
X125961373Y-103976577D01*
X125922911Y-103954671D01*
X125881342Y-103937121D01*
X125835615Y-103923359D01*
X125817866Y-103919208D01*
X125806139Y-103916815D01*
X125795080Y-103915022D01*
X125783470Y-103913746D01*
X125770090Y-103912903D01*
X125753720Y-103912412D01*
X125733141Y-103912188D01*
X125714080Y-103912146D01*
X125687018Y-103912282D01*
X125665147Y-103912737D01*
X125647313Y-103913576D01*
X125632363Y-103914862D01*
X125619143Y-103916659D01*
X125612692Y-103917794D01*
X125586583Y-103923613D01*
X125558665Y-103931353D01*
X125531555Y-103940217D01*
X125507870Y-103949410D01*
X125505625Y-103950390D01*
X125493899Y-103954941D01*
X125487397Y-103955916D01*
X125486041Y-103954893D01*
X125481635Y-103946916D01*
X125473866Y-103937103D01*
X125464487Y-103927375D01*
X125455251Y-103919655D01*
X125451995Y-103917564D01*
X125436496Y-103911902D01*
X125418321Y-103910051D01*
X125399873Y-103912005D01*
G36*
X119129922Y-104141679D02*
X119082826Y-104147103D01*
X119039600Y-104156433D01*
X119022768Y-104161528D01*
X118988777Y-104175327D01*
X118957596Y-104192988D01*
X118930011Y-104213881D01*
X118906806Y-104237379D01*
X118888767Y-104262854D01*
X118883385Y-104273015D01*
X118879126Y-104282022D01*
X118875490Y-104290347D01*
X118872428Y-104298561D01*
X118869890Y-104307233D01*
X118867828Y-104316935D01*
X118866191Y-104328237D01*
X118864930Y-104341709D01*
X118863996Y-104357922D01*
X118863339Y-104377447D01*
X118862910Y-104400854D01*
X118862658Y-104428713D01*
X118862535Y-104461595D01*
X118862491Y-104500071D01*
X118862486Y-104513915D01*
X118862430Y-104687268D01*
X118829887Y-104689150D01*
X118802844Y-104691987D01*
X118781105Y-104697248D01*
X118763982Y-104705253D01*
X118750787Y-104716322D01*
X118740991Y-104730477D01*
X118737088Y-104739356D01*
X118734892Y-104749085D01*
X118734001Y-104761877D01*
X118733919Y-104769505D01*
X118734179Y-104783115D01*
X118735300Y-104792659D01*
X118737810Y-104800409D01*
X118742240Y-104808643D01*
X118743517Y-104810732D01*
X118751801Y-104821818D01*
X118762066Y-104830263D01*
X118771815Y-104835813D01*
X118790526Y-104845387D01*
X118907441Y-104846327D01*
X119024355Y-104847267D01*
X119024355Y-104815305D01*
X119042612Y-104823648D01*
X119069245Y-104834660D01*
X119099594Y-104845286D01*
X119131042Y-104854677D01*
X119160880Y-104861966D01*
X119181301Y-104865417D01*
X119205753Y-104868159D01*
X119232746Y-104870148D01*
X119260788Y-104871342D01*
X119288386Y-104871696D01*
X119314049Y-104871166D01*
X119336284Y-104869709D01*
X119352206Y-104867556D01*
X119392046Y-104857551D01*
X119429026Y-104843345D01*
X119462647Y-104825329D01*
X119492409Y-104803891D01*
X119517812Y-104779422D01*
X119538357Y-104752311D01*
X119553545Y-104722947D01*
X119559435Y-104705972D01*
X119562809Y-104687872D01*
X119564061Y-104665982D01*
X119563671Y-104653983D01*
X119395761Y-104653983D01*
X119392781Y-104666725D01*
X119384170Y-104678993D01*
X119370643Y-104690227D01*
X119352919Y-104699873D01*
X119331715Y-104707372D01*
X119324705Y-104709138D01*
X119307802Y-104711615D01*
X119286397Y-104712622D01*
X119262144Y-104712236D01*
X119236701Y-104710531D01*
X119211724Y-104707582D01*
X119188870Y-104703463D01*
X119186280Y-104702878D01*
X119152655Y-104693968D01*
X119120759Y-104683006D01*
X119088339Y-104669143D01*
X119060868Y-104655578D01*
X119022768Y-104635835D01*
X119021879Y-104597285D01*
X119020991Y-104558734D01*
X119041011Y-104555248D01*
X119078962Y-104549560D01*
X119117136Y-104545562D01*
X119154473Y-104543274D01*
X119189915Y-104542712D01*
X119222405Y-104543895D01*
X119250884Y-104546839D01*
X119273593Y-104551373D01*
X119303018Y-104561032D01*
X119329373Y-104573197D01*
X119352106Y-104587404D01*
X119370663Y-104603188D01*
X119384492Y-104620085D01*
X119393038Y-104637629D01*
X119395761Y-104653983D01*
X119563671Y-104653983D01*
X119563296Y-104642460D01*
X119560621Y-104619461D01*
X119556141Y-104599143D01*
X119553852Y-104592208D01*
X119543059Y-104567352D01*
X119529853Y-104545137D01*
X119512957Y-104523616D01*
X119499018Y-104508702D01*
X119466180Y-104479026D01*
X119430717Y-104454160D01*
X119392011Y-104433795D01*
X119349439Y-104417622D01*
X119302384Y-104405332D01*
X119284770Y-104401896D01*
X119259441Y-104398490D01*
X119229382Y-104396324D01*
X119196082Y-104395365D01*
X119161034Y-104395580D01*
X119125727Y-104396934D01*
X119091651Y-104399395D01*
X119060299Y-104402929D01*
X119033159Y-104407503D01*
X119033087Y-104407518D01*
X119024355Y-104409329D01*
X119024355Y-104383519D01*
X119025031Y-104366261D01*
X119027524Y-104353429D01*
X119032536Y-104343197D01*
X119040769Y-104333738D01*
X119044949Y-104329914D01*
X119060250Y-104319278D01*
X119079293Y-104311189D01*
X119102635Y-104305518D01*
X119130831Y-104302132D01*
X119164436Y-104300903D01*
X119168304Y-104300893D01*
X119187918Y-104301183D01*
X119206714Y-104302136D01*
X119225880Y-104303908D01*
X119246609Y-104306652D01*
X119270090Y-104310524D01*
X119297514Y-104315677D01*
X119325012Y-104321221D01*
X119354842Y-104327152D01*
X119379329Y-104331427D01*
X119399266Y-104334019D01*
X119415449Y-104334901D01*
X119428671Y-104334043D01*
X119439728Y-104331420D01*
X119449412Y-104327003D01*
X119458519Y-104320764D01*
X119463759Y-104316380D01*
X119477050Y-104300785D01*
X119485847Y-104282184D01*
X119489992Y-104261962D01*
X119489325Y-104241501D01*
X119483688Y-104222186D01*
X119476046Y-104209210D01*
X119469345Y-104202188D01*
X119459916Y-104195688D01*
X119446963Y-104189340D01*
X119429687Y-104182779D01*
X119407293Y-104175635D01*
X119396090Y-104172350D01*
X119341372Y-104158586D01*
X119286614Y-104148614D01*
X119232598Y-104142457D01*
X119180107Y-104140138D01*
X119129922Y-104141679D01*
X119129922Y-104141679D01*
G37*
X119129922Y-104141679D02*
X119082826Y-104147103D01*
X119039600Y-104156433D01*
X119022768Y-104161528D01*
X118988777Y-104175327D01*
X118957596Y-104192988D01*
X118930011Y-104213881D01*
X118906806Y-104237379D01*
X118888767Y-104262854D01*
X118883385Y-104273015D01*
X118879126Y-104282022D01*
X118875490Y-104290347D01*
X118872428Y-104298561D01*
X118869890Y-104307233D01*
X118867828Y-104316935D01*
X118866191Y-104328237D01*
X118864930Y-104341709D01*
X118863996Y-104357922D01*
X118863339Y-104377447D01*
X118862910Y-104400854D01*
X118862658Y-104428713D01*
X118862535Y-104461595D01*
X118862491Y-104500071D01*
X118862486Y-104513915D01*
X118862430Y-104687268D01*
X118829887Y-104689150D01*
X118802844Y-104691987D01*
X118781105Y-104697248D01*
X118763982Y-104705253D01*
X118750787Y-104716322D01*
X118740991Y-104730477D01*
X118737088Y-104739356D01*
X118734892Y-104749085D01*
X118734001Y-104761877D01*
X118733919Y-104769505D01*
X118734179Y-104783115D01*
X118735300Y-104792659D01*
X118737810Y-104800409D01*
X118742240Y-104808643D01*
X118743517Y-104810732D01*
X118751801Y-104821818D01*
X118762066Y-104830263D01*
X118771815Y-104835813D01*
X118790526Y-104845387D01*
X118907441Y-104846327D01*
X119024355Y-104847267D01*
X119024355Y-104815305D01*
X119042612Y-104823648D01*
X119069245Y-104834660D01*
X119099594Y-104845286D01*
X119131042Y-104854677D01*
X119160880Y-104861966D01*
X119181301Y-104865417D01*
X119205753Y-104868159D01*
X119232746Y-104870148D01*
X119260788Y-104871342D01*
X119288386Y-104871696D01*
X119314049Y-104871166D01*
X119336284Y-104869709D01*
X119352206Y-104867556D01*
X119392046Y-104857551D01*
X119429026Y-104843345D01*
X119462647Y-104825329D01*
X119492409Y-104803891D01*
X119517812Y-104779422D01*
X119538357Y-104752311D01*
X119553545Y-104722947D01*
X119559435Y-104705972D01*
X119562809Y-104687872D01*
X119564061Y-104665982D01*
X119563671Y-104653983D01*
X119395761Y-104653983D01*
X119392781Y-104666725D01*
X119384170Y-104678993D01*
X119370643Y-104690227D01*
X119352919Y-104699873D01*
X119331715Y-104707372D01*
X119324705Y-104709138D01*
X119307802Y-104711615D01*
X119286397Y-104712622D01*
X119262144Y-104712236D01*
X119236701Y-104710531D01*
X119211724Y-104707582D01*
X119188870Y-104703463D01*
X119186280Y-104702878D01*
X119152655Y-104693968D01*
X119120759Y-104683006D01*
X119088339Y-104669143D01*
X119060868Y-104655578D01*
X119022768Y-104635835D01*
X119021879Y-104597285D01*
X119020991Y-104558734D01*
X119041011Y-104555248D01*
X119078962Y-104549560D01*
X119117136Y-104545562D01*
X119154473Y-104543274D01*
X119189915Y-104542712D01*
X119222405Y-104543895D01*
X119250884Y-104546839D01*
X119273593Y-104551373D01*
X119303018Y-104561032D01*
X119329373Y-104573197D01*
X119352106Y-104587404D01*
X119370663Y-104603188D01*
X119384492Y-104620085D01*
X119393038Y-104637629D01*
X119395761Y-104653983D01*
X119563671Y-104653983D01*
X119563296Y-104642460D01*
X119560621Y-104619461D01*
X119556141Y-104599143D01*
X119553852Y-104592208D01*
X119543059Y-104567352D01*
X119529853Y-104545137D01*
X119512957Y-104523616D01*
X119499018Y-104508702D01*
X119466180Y-104479026D01*
X119430717Y-104454160D01*
X119392011Y-104433795D01*
X119349439Y-104417622D01*
X119302384Y-104405332D01*
X119284770Y-104401896D01*
X119259441Y-104398490D01*
X119229382Y-104396324D01*
X119196082Y-104395365D01*
X119161034Y-104395580D01*
X119125727Y-104396934D01*
X119091651Y-104399395D01*
X119060299Y-104402929D01*
X119033159Y-104407503D01*
X119033087Y-104407518D01*
X119024355Y-104409329D01*
X119024355Y-104383519D01*
X119025031Y-104366261D01*
X119027524Y-104353429D01*
X119032536Y-104343197D01*
X119040769Y-104333738D01*
X119044949Y-104329914D01*
X119060250Y-104319278D01*
X119079293Y-104311189D01*
X119102635Y-104305518D01*
X119130831Y-104302132D01*
X119164436Y-104300903D01*
X119168304Y-104300893D01*
X119187918Y-104301183D01*
X119206714Y-104302136D01*
X119225880Y-104303908D01*
X119246609Y-104306652D01*
X119270090Y-104310524D01*
X119297514Y-104315677D01*
X119325012Y-104321221D01*
X119354842Y-104327152D01*
X119379329Y-104331427D01*
X119399266Y-104334019D01*
X119415449Y-104334901D01*
X119428671Y-104334043D01*
X119439728Y-104331420D01*
X119449412Y-104327003D01*
X119458519Y-104320764D01*
X119463759Y-104316380D01*
X119477050Y-104300785D01*
X119485847Y-104282184D01*
X119489992Y-104261962D01*
X119489325Y-104241501D01*
X119483688Y-104222186D01*
X119476046Y-104209210D01*
X119469345Y-104202188D01*
X119459916Y-104195688D01*
X119446963Y-104189340D01*
X119429687Y-104182779D01*
X119407293Y-104175635D01*
X119396090Y-104172350D01*
X119341372Y-104158586D01*
X119286614Y-104148614D01*
X119232598Y-104142457D01*
X119180107Y-104140138D01*
X119129922Y-104141679D01*
G36*
X120995924Y-104142479D02*
X120948254Y-104149627D01*
X120904664Y-104161289D01*
X120865323Y-104177431D01*
X120835133Y-104194793D01*
X120807433Y-104216176D01*
X120785066Y-104240146D01*
X120767253Y-104267568D01*
X120763998Y-104273887D01*
X120759523Y-104283154D01*
X120755701Y-104291848D01*
X120752479Y-104300540D01*
X120749807Y-104309799D01*
X120747632Y-104320196D01*
X120745905Y-104332303D01*
X120744574Y-104346690D01*
X120743587Y-104363927D01*
X120742894Y-104384584D01*
X120742443Y-104409233D01*
X120742183Y-104438445D01*
X120742063Y-104472788D01*
X120742031Y-104512835D01*
X120742030Y-104518641D01*
X120742030Y-104688225D01*
X120721976Y-104688225D01*
X120691484Y-104690127D01*
X120665990Y-104695820D01*
X120645531Y-104705283D01*
X120630142Y-104718496D01*
X120619856Y-104735436D01*
X120615270Y-104752006D01*
X120613985Y-104775968D01*
X120618069Y-104797201D01*
X120627255Y-104815239D01*
X120641278Y-104829614D01*
X120659872Y-104839859D01*
X120666557Y-104842134D01*
X120672207Y-104843486D01*
X120679546Y-104844574D01*
X120689250Y-104845422D01*
X120701995Y-104846056D01*
X120718456Y-104846503D01*
X120739308Y-104846788D01*
X120765227Y-104846936D01*
X120793407Y-104846975D01*
X120903955Y-104846975D01*
X120903955Y-104831100D01*
X120904260Y-104822041D01*
X120905039Y-104816293D01*
X120905649Y-104815225D01*
X120909207Y-104816544D01*
X120916510Y-104819928D01*
X120922317Y-104822802D01*
X120946503Y-104833533D01*
X120975280Y-104843825D01*
X121006892Y-104853167D01*
X121039580Y-104861046D01*
X121071588Y-104866951D01*
X121076290Y-104867645D01*
X121091950Y-104869322D01*
X121111531Y-104870593D01*
X121133523Y-104871441D01*
X121156416Y-104871852D01*
X121178700Y-104871809D01*
X121198866Y-104871298D01*
X121215401Y-104870302D01*
X121224886Y-104869166D01*
X121267592Y-104859191D01*
X121307315Y-104844355D01*
X121343476Y-104824950D01*
X121375498Y-104801270D01*
X121393573Y-104783983D01*
X121413716Y-104760217D01*
X121428353Y-104736926D01*
X121438047Y-104712712D01*
X121443359Y-104686178D01*
X121444856Y-104656475D01*
X121444764Y-104652245D01*
X121275430Y-104652245D01*
X121272379Y-104667323D01*
X121263423Y-104680804D01*
X121248865Y-104692442D01*
X121229005Y-104701995D01*
X121205580Y-104708899D01*
X121190743Y-104711065D01*
X121171386Y-104712160D01*
X121149240Y-104712225D01*
X121126038Y-104711304D01*
X121103510Y-104709439D01*
X121083389Y-104706673D01*
X121078580Y-104705775D01*
X121033410Y-104694047D01*
X120986317Y-104676609D01*
X120946818Y-104658278D01*
X120902368Y-104635837D01*
X120901477Y-104596943D01*
X120901325Y-104582074D01*
X120901561Y-104569826D01*
X120902134Y-104561414D01*
X120902996Y-104558052D01*
X120903064Y-104558037D01*
X120907116Y-104557562D01*
X120915882Y-104556300D01*
X120927807Y-104554480D01*
X120934118Y-104553487D01*
X120979170Y-104547405D01*
X121022166Y-104543711D01*
X121062348Y-104542407D01*
X121098957Y-104543494D01*
X121131233Y-104546973D01*
X121158419Y-104552845D01*
X121159425Y-104553140D01*
X121189637Y-104563837D01*
X121216032Y-104576688D01*
X121238156Y-104591304D01*
X121255556Y-104607299D01*
X121267778Y-104624285D01*
X121274368Y-104641873D01*
X121275430Y-104652245D01*
X121444764Y-104652245D01*
X121444482Y-104639422D01*
X121443300Y-104626153D01*
X121440904Y-104614114D01*
X121436886Y-104600752D01*
X121435190Y-104595776D01*
X121421581Y-104564637D01*
X121402884Y-104535546D01*
X121378559Y-104507708D01*
X121369218Y-104498672D01*
X121333810Y-104469595D01*
X121295092Y-104445360D01*
X121252708Y-104425807D01*
X121206303Y-104410776D01*
X121155522Y-104400106D01*
X121148049Y-104398952D01*
X121126182Y-104396677D01*
X121099500Y-104395434D01*
X121069446Y-104395169D01*
X121037461Y-104395830D01*
X121004988Y-104397361D01*
X120973468Y-104399711D01*
X120944343Y-104402824D01*
X120919056Y-104406648D01*
X120913739Y-104407662D01*
X120903289Y-104409752D01*
X120904416Y-104381003D01*
X120905134Y-104366937D01*
X120906283Y-104357401D01*
X120908346Y-104350576D01*
X120911810Y-104344643D01*
X120915317Y-104340058D01*
X120929664Y-104326393D01*
X120948537Y-104315741D01*
X120972226Y-104308015D01*
X121001022Y-104303127D01*
X121035216Y-104300992D01*
X121046467Y-104300874D01*
X121065026Y-104301050D01*
X121081899Y-104301677D01*
X121098281Y-104302908D01*
X121115365Y-104304897D01*
X121134343Y-104307797D01*
X121156410Y-104311759D01*
X121182758Y-104316936D01*
X121200818Y-104320628D01*
X121234850Y-104327171D01*
X121263307Y-104331567D01*
X121286583Y-104333842D01*
X121305070Y-104334020D01*
X121319160Y-104332126D01*
X121328275Y-104328744D01*
X121346213Y-104315513D01*
X121359366Y-104298246D01*
X121367459Y-104277380D01*
X121369783Y-104263172D01*
X121369583Y-104241521D01*
X121364539Y-104223428D01*
X121354372Y-104208039D01*
X121350484Y-104204017D01*
X121344272Y-104198546D01*
X121337561Y-104194034D01*
X121329059Y-104189884D01*
X121317476Y-104185497D01*
X121301518Y-104180275D01*
X121294439Y-104178070D01*
X121257445Y-104167214D01*
X121223872Y-104158731D01*
X121191541Y-104152209D01*
X121158276Y-104147237D01*
X121121899Y-104143403D01*
X121102832Y-104141856D01*
X121047506Y-104139878D01*
X120995924Y-104142479D01*
X120995924Y-104142479D01*
G37*
X120995924Y-104142479D02*
X120948254Y-104149627D01*
X120904664Y-104161289D01*
X120865323Y-104177431D01*
X120835133Y-104194793D01*
X120807433Y-104216176D01*
X120785066Y-104240146D01*
X120767253Y-104267568D01*
X120763998Y-104273887D01*
X120759523Y-104283154D01*
X120755701Y-104291848D01*
X120752479Y-104300540D01*
X120749807Y-104309799D01*
X120747632Y-104320196D01*
X120745905Y-104332303D01*
X120744574Y-104346690D01*
X120743587Y-104363927D01*
X120742894Y-104384584D01*
X120742443Y-104409233D01*
X120742183Y-104438445D01*
X120742063Y-104472788D01*
X120742031Y-104512835D01*
X120742030Y-104518641D01*
X120742030Y-104688225D01*
X120721976Y-104688225D01*
X120691484Y-104690127D01*
X120665990Y-104695820D01*
X120645531Y-104705283D01*
X120630142Y-104718496D01*
X120619856Y-104735436D01*
X120615270Y-104752006D01*
X120613985Y-104775968D01*
X120618069Y-104797201D01*
X120627255Y-104815239D01*
X120641278Y-104829614D01*
X120659872Y-104839859D01*
X120666557Y-104842134D01*
X120672207Y-104843486D01*
X120679546Y-104844574D01*
X120689250Y-104845422D01*
X120701995Y-104846056D01*
X120718456Y-104846503D01*
X120739308Y-104846788D01*
X120765227Y-104846936D01*
X120793407Y-104846975D01*
X120903955Y-104846975D01*
X120903955Y-104831100D01*
X120904260Y-104822041D01*
X120905039Y-104816293D01*
X120905649Y-104815225D01*
X120909207Y-104816544D01*
X120916510Y-104819928D01*
X120922317Y-104822802D01*
X120946503Y-104833533D01*
X120975280Y-104843825D01*
X121006892Y-104853167D01*
X121039580Y-104861046D01*
X121071588Y-104866951D01*
X121076290Y-104867645D01*
X121091950Y-104869322D01*
X121111531Y-104870593D01*
X121133523Y-104871441D01*
X121156416Y-104871852D01*
X121178700Y-104871809D01*
X121198866Y-104871298D01*
X121215401Y-104870302D01*
X121224886Y-104869166D01*
X121267592Y-104859191D01*
X121307315Y-104844355D01*
X121343476Y-104824950D01*
X121375498Y-104801270D01*
X121393573Y-104783983D01*
X121413716Y-104760217D01*
X121428353Y-104736926D01*
X121438047Y-104712712D01*
X121443359Y-104686178D01*
X121444856Y-104656475D01*
X121444764Y-104652245D01*
X121275430Y-104652245D01*
X121272379Y-104667323D01*
X121263423Y-104680804D01*
X121248865Y-104692442D01*
X121229005Y-104701995D01*
X121205580Y-104708899D01*
X121190743Y-104711065D01*
X121171386Y-104712160D01*
X121149240Y-104712225D01*
X121126038Y-104711304D01*
X121103510Y-104709439D01*
X121083389Y-104706673D01*
X121078580Y-104705775D01*
X121033410Y-104694047D01*
X120986317Y-104676609D01*
X120946818Y-104658278D01*
X120902368Y-104635837D01*
X120901477Y-104596943D01*
X120901325Y-104582074D01*
X120901561Y-104569826D01*
X120902134Y-104561414D01*
X120902996Y-104558052D01*
X120903064Y-104558037D01*
X120907116Y-104557562D01*
X120915882Y-104556300D01*
X120927807Y-104554480D01*
X120934118Y-104553487D01*
X120979170Y-104547405D01*
X121022166Y-104543711D01*
X121062348Y-104542407D01*
X121098957Y-104543494D01*
X121131233Y-104546973D01*
X121158419Y-104552845D01*
X121159425Y-104553140D01*
X121189637Y-104563837D01*
X121216032Y-104576688D01*
X121238156Y-104591304D01*
X121255556Y-104607299D01*
X121267778Y-104624285D01*
X121274368Y-104641873D01*
X121275430Y-104652245D01*
X121444764Y-104652245D01*
X121444482Y-104639422D01*
X121443300Y-104626153D01*
X121440904Y-104614114D01*
X121436886Y-104600752D01*
X121435190Y-104595776D01*
X121421581Y-104564637D01*
X121402884Y-104535546D01*
X121378559Y-104507708D01*
X121369218Y-104498672D01*
X121333810Y-104469595D01*
X121295092Y-104445360D01*
X121252708Y-104425807D01*
X121206303Y-104410776D01*
X121155522Y-104400106D01*
X121148049Y-104398952D01*
X121126182Y-104396677D01*
X121099500Y-104395434D01*
X121069446Y-104395169D01*
X121037461Y-104395830D01*
X121004988Y-104397361D01*
X120973468Y-104399711D01*
X120944343Y-104402824D01*
X120919056Y-104406648D01*
X120913739Y-104407662D01*
X120903289Y-104409752D01*
X120904416Y-104381003D01*
X120905134Y-104366937D01*
X120906283Y-104357401D01*
X120908346Y-104350576D01*
X120911810Y-104344643D01*
X120915317Y-104340058D01*
X120929664Y-104326393D01*
X120948537Y-104315741D01*
X120972226Y-104308015D01*
X121001022Y-104303127D01*
X121035216Y-104300992D01*
X121046467Y-104300874D01*
X121065026Y-104301050D01*
X121081899Y-104301677D01*
X121098281Y-104302908D01*
X121115365Y-104304897D01*
X121134343Y-104307797D01*
X121156410Y-104311759D01*
X121182758Y-104316936D01*
X121200818Y-104320628D01*
X121234850Y-104327171D01*
X121263307Y-104331567D01*
X121286583Y-104333842D01*
X121305070Y-104334020D01*
X121319160Y-104332126D01*
X121328275Y-104328744D01*
X121346213Y-104315513D01*
X121359366Y-104298246D01*
X121367459Y-104277380D01*
X121369783Y-104263172D01*
X121369583Y-104241521D01*
X121364539Y-104223428D01*
X121354372Y-104208039D01*
X121350484Y-104204017D01*
X121344272Y-104198546D01*
X121337561Y-104194034D01*
X121329059Y-104189884D01*
X121317476Y-104185497D01*
X121301518Y-104180275D01*
X121294439Y-104178070D01*
X121257445Y-104167214D01*
X121223872Y-104158731D01*
X121191541Y-104152209D01*
X121158276Y-104147237D01*
X121121899Y-104143403D01*
X121102832Y-104141856D01*
X121047506Y-104139878D01*
X120995924Y-104142479D01*
G36*
X123833664Y-104141684D02*
X123786591Y-104147583D01*
X123741362Y-104157783D01*
X123698956Y-104172204D01*
X123660356Y-104190762D01*
X123656443Y-104193018D01*
X123618014Y-104218549D01*
X123582828Y-104247895D01*
X123551581Y-104280297D01*
X123524967Y-104314999D01*
X123503681Y-104351245D01*
X123496055Y-104367786D01*
X123484517Y-104399100D01*
X123475978Y-104431697D01*
X123470228Y-104466799D01*
X123467058Y-104505627D01*
X123466236Y-104541381D01*
X123466180Y-104580275D01*
X123785608Y-104580275D01*
X123837724Y-104580279D01*
X123883852Y-104580296D01*
X123924352Y-104580332D01*
X123959585Y-104580393D01*
X123989913Y-104580486D01*
X124015697Y-104580617D01*
X124037298Y-104580792D01*
X124055078Y-104581018D01*
X124069396Y-104581301D01*
X124080616Y-104581647D01*
X124089097Y-104582063D01*
X124095201Y-104582555D01*
X124099289Y-104583129D01*
X124101722Y-104583791D01*
X124102862Y-104584549D01*
X124103069Y-104585407D01*
X124102954Y-104585831D01*
X124096276Y-104599503D01*
X124086091Y-104615352D01*
X124073746Y-104631459D01*
X124061009Y-104645489D01*
X124035582Y-104666467D01*
X124005334Y-104683672D01*
X123970605Y-104697027D01*
X123931739Y-104706453D01*
X123889076Y-104711874D01*
X123842959Y-104713213D01*
X123793730Y-104710391D01*
X123780486Y-104708969D01*
X123759745Y-104706320D01*
X123739605Y-104703243D01*
X123718813Y-104699489D01*
X123696117Y-104694812D01*
X123670263Y-104688962D01*
X123639999Y-104681690D01*
X123628105Y-104678756D01*
X123598480Y-104671752D01*
X123574058Y-104666860D01*
X123554048Y-104664095D01*
X123537662Y-104663471D01*
X123524108Y-104665005D01*
X123512597Y-104668709D01*
X123502338Y-104674600D01*
X123494111Y-104681247D01*
X123480159Y-104696742D01*
X123471766Y-104713622D01*
X123468222Y-104733467D01*
X123468006Y-104739542D01*
X123468244Y-104751897D01*
X123469774Y-104760571D01*
X123473308Y-104768204D01*
X123477427Y-104774443D01*
X123488086Y-104786992D01*
X123501933Y-104798473D01*
X123519571Y-104809197D01*
X123541603Y-104819476D01*
X123568633Y-104829620D01*
X123601264Y-104839940D01*
X123608605Y-104842078D01*
X123648176Y-104851949D01*
X123692081Y-104860185D01*
X123738445Y-104866463D01*
X123765597Y-104869069D01*
X123781173Y-104870040D01*
X123800714Y-104870811D01*
X123822874Y-104871372D01*
X123846307Y-104871715D01*
X123869668Y-104871831D01*
X123891611Y-104871710D01*
X123910791Y-104871345D01*
X123925860Y-104870725D01*
X123932905Y-104870173D01*
X123940897Y-104869032D01*
X123953071Y-104866960D01*
X123967391Y-104864313D01*
X123974886Y-104862852D01*
X124024138Y-104850304D01*
X124069455Y-104832927D01*
X124111282Y-104810487D01*
X124150065Y-104782750D01*
X124180798Y-104755008D01*
X124211091Y-104721267D01*
X124235498Y-104685988D01*
X124254323Y-104648517D01*
X124267867Y-104608203D01*
X124276434Y-104564392D01*
X124278711Y-104543762D01*
X124280108Y-104494406D01*
X124275596Y-104447155D01*
X124273351Y-104437400D01*
X124100899Y-104437400D01*
X123646467Y-104437400D01*
X123648586Y-104428668D01*
X123653433Y-104416190D01*
X123662045Y-104401273D01*
X123673330Y-104385564D01*
X123686191Y-104370712D01*
X123688988Y-104367857D01*
X123707482Y-104352075D01*
X123729958Y-104337022D01*
X123754087Y-104324126D01*
X123772815Y-104316395D01*
X123808707Y-104306726D01*
X123847371Y-104301583D01*
X123887172Y-104300949D01*
X123926477Y-104304805D01*
X123963651Y-104313135D01*
X123979918Y-104318589D01*
X124009133Y-104332035D01*
X124035827Y-104349122D01*
X124059138Y-104369066D01*
X124078204Y-104391080D01*
X124092163Y-104414379D01*
X124096471Y-104424850D01*
X124100899Y-104437400D01*
X124273351Y-104437400D01*
X124265248Y-104402193D01*
X124249138Y-104359705D01*
X124227339Y-104319876D01*
X124199926Y-104282893D01*
X124166971Y-104248939D01*
X124158474Y-104241457D01*
X124125115Y-104215185D01*
X124091880Y-104193883D01*
X124056911Y-104176487D01*
X124020762Y-104162735D01*
X123976129Y-104150613D01*
X123929413Y-104143118D01*
X123881598Y-104140169D01*
X123833664Y-104141684D01*
X123833664Y-104141684D01*
G37*
X123833664Y-104141684D02*
X123786591Y-104147583D01*
X123741362Y-104157783D01*
X123698956Y-104172204D01*
X123660356Y-104190762D01*
X123656443Y-104193018D01*
X123618014Y-104218549D01*
X123582828Y-104247895D01*
X123551581Y-104280297D01*
X123524967Y-104314999D01*
X123503681Y-104351245D01*
X123496055Y-104367786D01*
X123484517Y-104399100D01*
X123475978Y-104431697D01*
X123470228Y-104466799D01*
X123467058Y-104505627D01*
X123466236Y-104541381D01*
X123466180Y-104580275D01*
X123785608Y-104580275D01*
X123837724Y-104580279D01*
X123883852Y-104580296D01*
X123924352Y-104580332D01*
X123959585Y-104580393D01*
X123989913Y-104580486D01*
X124015697Y-104580617D01*
X124037298Y-104580792D01*
X124055078Y-104581018D01*
X124069396Y-104581301D01*
X124080616Y-104581647D01*
X124089097Y-104582063D01*
X124095201Y-104582555D01*
X124099289Y-104583129D01*
X124101722Y-104583791D01*
X124102862Y-104584549D01*
X124103069Y-104585407D01*
X124102954Y-104585831D01*
X124096276Y-104599503D01*
X124086091Y-104615352D01*
X124073746Y-104631459D01*
X124061009Y-104645489D01*
X124035582Y-104666467D01*
X124005334Y-104683672D01*
X123970605Y-104697027D01*
X123931739Y-104706453D01*
X123889076Y-104711874D01*
X123842959Y-104713213D01*
X123793730Y-104710391D01*
X123780486Y-104708969D01*
X123759745Y-104706320D01*
X123739605Y-104703243D01*
X123718813Y-104699489D01*
X123696117Y-104694812D01*
X123670263Y-104688962D01*
X123639999Y-104681690D01*
X123628105Y-104678756D01*
X123598480Y-104671752D01*
X123574058Y-104666860D01*
X123554048Y-104664095D01*
X123537662Y-104663471D01*
X123524108Y-104665005D01*
X123512597Y-104668709D01*
X123502338Y-104674600D01*
X123494111Y-104681247D01*
X123480159Y-104696742D01*
X123471766Y-104713622D01*
X123468222Y-104733467D01*
X123468006Y-104739542D01*
X123468244Y-104751897D01*
X123469774Y-104760571D01*
X123473308Y-104768204D01*
X123477427Y-104774443D01*
X123488086Y-104786992D01*
X123501933Y-104798473D01*
X123519571Y-104809197D01*
X123541603Y-104819476D01*
X123568633Y-104829620D01*
X123601264Y-104839940D01*
X123608605Y-104842078D01*
X123648176Y-104851949D01*
X123692081Y-104860185D01*
X123738445Y-104866463D01*
X123765597Y-104869069D01*
X123781173Y-104870040D01*
X123800714Y-104870811D01*
X123822874Y-104871372D01*
X123846307Y-104871715D01*
X123869668Y-104871831D01*
X123891611Y-104871710D01*
X123910791Y-104871345D01*
X123925860Y-104870725D01*
X123932905Y-104870173D01*
X123940897Y-104869032D01*
X123953071Y-104866960D01*
X123967391Y-104864313D01*
X123974886Y-104862852D01*
X124024138Y-104850304D01*
X124069455Y-104832927D01*
X124111282Y-104810487D01*
X124150065Y-104782750D01*
X124180798Y-104755008D01*
X124211091Y-104721267D01*
X124235498Y-104685988D01*
X124254323Y-104648517D01*
X124267867Y-104608203D01*
X124276434Y-104564392D01*
X124278711Y-104543762D01*
X124280108Y-104494406D01*
X124275596Y-104447155D01*
X124273351Y-104437400D01*
X124100899Y-104437400D01*
X123646467Y-104437400D01*
X123648586Y-104428668D01*
X123653433Y-104416190D01*
X123662045Y-104401273D01*
X123673330Y-104385564D01*
X123686191Y-104370712D01*
X123688988Y-104367857D01*
X123707482Y-104352075D01*
X123729958Y-104337022D01*
X123754087Y-104324126D01*
X123772815Y-104316395D01*
X123808707Y-104306726D01*
X123847371Y-104301583D01*
X123887172Y-104300949D01*
X123926477Y-104304805D01*
X123963651Y-104313135D01*
X123979918Y-104318589D01*
X124009133Y-104332035D01*
X124035827Y-104349122D01*
X124059138Y-104369066D01*
X124078204Y-104391080D01*
X124092163Y-104414379D01*
X124096471Y-104424850D01*
X124100899Y-104437400D01*
X124273351Y-104437400D01*
X124265248Y-104402193D01*
X124249138Y-104359705D01*
X124227339Y-104319876D01*
X124199926Y-104282893D01*
X124166971Y-104248939D01*
X124158474Y-104241457D01*
X124125115Y-104215185D01*
X124091880Y-104193883D01*
X124056911Y-104176487D01*
X124020762Y-104162735D01*
X123976129Y-104150613D01*
X123929413Y-104143118D01*
X123881598Y-104140169D01*
X123833664Y-104141684D01*
G36*
X120126246Y-104140960D02*
X120109212Y-104141245D01*
X120095881Y-104141854D01*
X120084930Y-104142905D01*
X120075035Y-104144519D01*
X120064873Y-104146814D01*
X120055577Y-104149244D01*
X120020984Y-104160679D01*
X119987378Y-104175739D01*
X119957134Y-104193329D01*
X119951455Y-104197225D01*
X119930818Y-104211829D01*
X119928974Y-104161175D01*
X119822896Y-104161175D01*
X119793509Y-104161279D01*
X119766894Y-104161582D01*
X119743741Y-104162062D01*
X119724743Y-104162701D01*
X119710591Y-104163480D01*
X119701977Y-104164379D01*
X119701099Y-104164546D01*
X119679737Y-104171948D01*
X119662546Y-104183807D01*
X119649969Y-104199595D01*
X119642446Y-104218783D01*
X119640354Y-104237375D01*
X119641934Y-104258160D01*
X119647042Y-104274893D01*
X119656182Y-104289104D01*
X119658006Y-104291195D01*
X119670803Y-104302528D01*
X119686295Y-104310664D01*
X119705530Y-104315983D01*
X119729555Y-104318870D01*
X119734637Y-104319169D01*
X119767305Y-104320836D01*
X119767308Y-104597399D01*
X119767330Y-104650792D01*
X119767405Y-104698247D01*
X119767546Y-104740173D01*
X119767770Y-104776981D01*
X119768090Y-104809084D01*
X119768521Y-104836891D01*
X119769078Y-104860813D01*
X119769776Y-104881262D01*
X119770629Y-104898648D01*
X119771652Y-104913382D01*
X119772859Y-104925875D01*
X119774266Y-104936538D01*
X119775887Y-104945782D01*
X119777736Y-104954017D01*
X119779828Y-104961655D01*
X119780377Y-104963474D01*
X119795236Y-105001347D01*
X119815479Y-105036217D01*
X119840712Y-105067714D01*
X119870540Y-105095470D01*
X119904569Y-105119114D01*
X119942405Y-105138278D01*
X119981618Y-105152025D01*
X119988071Y-105153773D01*
X119994305Y-105155216D01*
X120000995Y-105156389D01*
X120008817Y-105157326D01*
X120018447Y-105158059D01*
X120030558Y-105158624D01*
X120045827Y-105159053D01*
X120064928Y-105159380D01*
X120088538Y-105159639D01*
X120117329Y-105159864D01*
X120141955Y-105160025D01*
X120171414Y-105160141D01*
X120199153Y-105160117D01*
X120224457Y-105159962D01*
X120246607Y-105159687D01*
X120264888Y-105159302D01*
X120278582Y-105158817D01*
X120286972Y-105158242D01*
X120288849Y-105157952D01*
X120310980Y-105149939D01*
X120328421Y-105137992D01*
X120340907Y-105122359D01*
X120348174Y-105103286D01*
X120348369Y-105102374D01*
X120350763Y-105079478D01*
X120348430Y-105058190D01*
X120341637Y-105039608D01*
X120330646Y-105024833D01*
X120329468Y-105023734D01*
X120323199Y-105018588D01*
X120316408Y-105014337D01*
X120308446Y-105010896D01*
X120298669Y-105008184D01*
X120286429Y-105006116D01*
X120271082Y-105004610D01*
X120251980Y-105003581D01*
X120228477Y-105002946D01*
X120199928Y-105002622D01*
X120165686Y-105002526D01*
X120165141Y-105002526D01*
X120131199Y-105002440D01*
X120102883Y-105002154D01*
X120079472Y-105001601D01*
X120060245Y-105000713D01*
X120044480Y-104999424D01*
X120031456Y-104997667D01*
X120020449Y-104995374D01*
X120010740Y-104992478D01*
X120001606Y-104988911D01*
X119997101Y-104986889D01*
X119974344Y-104973646D01*
X119956504Y-104957034D01*
X119942651Y-104936160D01*
X119941167Y-104933236D01*
X119930818Y-104912230D01*
X119928718Y-104795590D01*
X119948429Y-104808975D01*
X119972360Y-104823431D01*
X120000084Y-104837249D01*
X120029063Y-104849272D01*
X120056342Y-104858224D01*
X120087818Y-104864760D01*
X120123131Y-104868353D01*
X120160506Y-104869032D01*
X120198168Y-104866827D01*
X120234342Y-104861766D01*
X120264193Y-104854785D01*
X120306720Y-104839321D01*
X120346784Y-104818481D01*
X120383864Y-104792793D01*
X120417440Y-104762788D01*
X120446994Y-104728995D01*
X120472005Y-104691943D01*
X120491953Y-104652161D01*
X120506320Y-104610180D01*
X120507055Y-104607360D01*
X120516520Y-104558406D01*
X120520019Y-104509427D01*
X120519753Y-104504075D01*
X120358826Y-104504075D01*
X120355922Y-104539912D01*
X120347272Y-104573089D01*
X120332802Y-104603803D01*
X120312434Y-104632253D01*
X120308041Y-104637254D01*
X120280550Y-104663116D01*
X120250062Y-104683514D01*
X120217075Y-104698286D01*
X120182085Y-104707271D01*
X120145588Y-104710308D01*
X120108080Y-104707236D01*
X120098165Y-104705405D01*
X120064170Y-104695376D01*
X120032592Y-104680113D01*
X120004058Y-104660209D01*
X119979195Y-104636257D01*
X119958630Y-104608849D01*
X119942990Y-104578579D01*
X119933765Y-104549907D01*
X119930085Y-104524639D01*
X119929786Y-104496743D01*
X119932726Y-104468875D01*
X119938762Y-104443688D01*
X119939612Y-104441188D01*
X119954061Y-104409368D01*
X119973579Y-104380632D01*
X119997450Y-104355436D01*
X120024962Y-104334237D01*
X120055402Y-104317492D01*
X120088054Y-104305658D01*
X120122207Y-104299192D01*
X120157146Y-104298550D01*
X120161812Y-104298928D01*
X120181926Y-104301331D01*
X120199071Y-104304836D01*
X120215680Y-104310133D01*
X120234185Y-104317916D01*
X120242871Y-104321979D01*
X120258058Y-104329709D01*
X120270422Y-104337402D01*
X120282090Y-104346592D01*
X120295188Y-104358811D01*
X120298532Y-104362117D01*
X120321810Y-104388471D01*
X120339105Y-104415552D01*
X120350784Y-104444223D01*
X120357214Y-104475346D01*
X120358826Y-104504075D01*
X120519753Y-104504075D01*
X120517605Y-104461024D01*
X120509332Y-104413799D01*
X120495253Y-104368351D01*
X120483263Y-104340562D01*
X120470174Y-104315445D01*
X120456368Y-104293462D01*
X120440571Y-104272910D01*
X120421506Y-104252084D01*
X120404796Y-104235733D01*
X120369651Y-104206296D01*
X120332104Y-104182364D01*
X120291438Y-104163557D01*
X120246936Y-104149492D01*
X120238982Y-104147556D01*
X120227398Y-104145081D01*
X120216105Y-104143283D01*
X120203763Y-104142062D01*
X120189031Y-104141321D01*
X120170568Y-104140960D01*
X120148305Y-104140879D01*
X120126246Y-104140960D01*
X120126246Y-104140960D01*
G37*
X120126246Y-104140960D02*
X120109212Y-104141245D01*
X120095881Y-104141854D01*
X120084930Y-104142905D01*
X120075035Y-104144519D01*
X120064873Y-104146814D01*
X120055577Y-104149244D01*
X120020984Y-104160679D01*
X119987378Y-104175739D01*
X119957134Y-104193329D01*
X119951455Y-104197225D01*
X119930818Y-104211829D01*
X119928974Y-104161175D01*
X119822896Y-104161175D01*
X119793509Y-104161279D01*
X119766894Y-104161582D01*
X119743741Y-104162062D01*
X119724743Y-104162701D01*
X119710591Y-104163480D01*
X119701977Y-104164379D01*
X119701099Y-104164546D01*
X119679737Y-104171948D01*
X119662546Y-104183807D01*
X119649969Y-104199595D01*
X119642446Y-104218783D01*
X119640354Y-104237375D01*
X119641934Y-104258160D01*
X119647042Y-104274893D01*
X119656182Y-104289104D01*
X119658006Y-104291195D01*
X119670803Y-104302528D01*
X119686295Y-104310664D01*
X119705530Y-104315983D01*
X119729555Y-104318870D01*
X119734637Y-104319169D01*
X119767305Y-104320836D01*
X119767308Y-104597399D01*
X119767330Y-104650792D01*
X119767405Y-104698247D01*
X119767546Y-104740173D01*
X119767770Y-104776981D01*
X119768090Y-104809084D01*
X119768521Y-104836891D01*
X119769078Y-104860813D01*
X119769776Y-104881262D01*
X119770629Y-104898648D01*
X119771652Y-104913382D01*
X119772859Y-104925875D01*
X119774266Y-104936538D01*
X119775887Y-104945782D01*
X119777736Y-104954017D01*
X119779828Y-104961655D01*
X119780377Y-104963474D01*
X119795236Y-105001347D01*
X119815479Y-105036217D01*
X119840712Y-105067714D01*
X119870540Y-105095470D01*
X119904569Y-105119114D01*
X119942405Y-105138278D01*
X119981618Y-105152025D01*
X119988071Y-105153773D01*
X119994305Y-105155216D01*
X120000995Y-105156389D01*
X120008817Y-105157326D01*
X120018447Y-105158059D01*
X120030558Y-105158624D01*
X120045827Y-105159053D01*
X120064928Y-105159380D01*
X120088538Y-105159639D01*
X120117329Y-105159864D01*
X120141955Y-105160025D01*
X120171414Y-105160141D01*
X120199153Y-105160117D01*
X120224457Y-105159962D01*
X120246607Y-105159687D01*
X120264888Y-105159302D01*
X120278582Y-105158817D01*
X120286972Y-105158242D01*
X120288849Y-105157952D01*
X120310980Y-105149939D01*
X120328421Y-105137992D01*
X120340907Y-105122359D01*
X120348174Y-105103286D01*
X120348369Y-105102374D01*
X120350763Y-105079478D01*
X120348430Y-105058190D01*
X120341637Y-105039608D01*
X120330646Y-105024833D01*
X120329468Y-105023734D01*
X120323199Y-105018588D01*
X120316408Y-105014337D01*
X120308446Y-105010896D01*
X120298669Y-105008184D01*
X120286429Y-105006116D01*
X120271082Y-105004610D01*
X120251980Y-105003581D01*
X120228477Y-105002946D01*
X120199928Y-105002622D01*
X120165686Y-105002526D01*
X120165141Y-105002526D01*
X120131199Y-105002440D01*
X120102883Y-105002154D01*
X120079472Y-105001601D01*
X120060245Y-105000713D01*
X120044480Y-104999424D01*
X120031456Y-104997667D01*
X120020449Y-104995374D01*
X120010740Y-104992478D01*
X120001606Y-104988911D01*
X119997101Y-104986889D01*
X119974344Y-104973646D01*
X119956504Y-104957034D01*
X119942651Y-104936160D01*
X119941167Y-104933236D01*
X119930818Y-104912230D01*
X119928718Y-104795590D01*
X119948429Y-104808975D01*
X119972360Y-104823431D01*
X120000084Y-104837249D01*
X120029063Y-104849272D01*
X120056342Y-104858224D01*
X120087818Y-104864760D01*
X120123131Y-104868353D01*
X120160506Y-104869032D01*
X120198168Y-104866827D01*
X120234342Y-104861766D01*
X120264193Y-104854785D01*
X120306720Y-104839321D01*
X120346784Y-104818481D01*
X120383864Y-104792793D01*
X120417440Y-104762788D01*
X120446994Y-104728995D01*
X120472005Y-104691943D01*
X120491953Y-104652161D01*
X120506320Y-104610180D01*
X120507055Y-104607360D01*
X120516520Y-104558406D01*
X120520019Y-104509427D01*
X120519753Y-104504075D01*
X120358826Y-104504075D01*
X120355922Y-104539912D01*
X120347272Y-104573089D01*
X120332802Y-104603803D01*
X120312434Y-104632253D01*
X120308041Y-104637254D01*
X120280550Y-104663116D01*
X120250062Y-104683514D01*
X120217075Y-104698286D01*
X120182085Y-104707271D01*
X120145588Y-104710308D01*
X120108080Y-104707236D01*
X120098165Y-104705405D01*
X120064170Y-104695376D01*
X120032592Y-104680113D01*
X120004058Y-104660209D01*
X119979195Y-104636257D01*
X119958630Y-104608849D01*
X119942990Y-104578579D01*
X119933765Y-104549907D01*
X119930085Y-104524639D01*
X119929786Y-104496743D01*
X119932726Y-104468875D01*
X119938762Y-104443688D01*
X119939612Y-104441188D01*
X119954061Y-104409368D01*
X119973579Y-104380632D01*
X119997450Y-104355436D01*
X120024962Y-104334237D01*
X120055402Y-104317492D01*
X120088054Y-104305658D01*
X120122207Y-104299192D01*
X120157146Y-104298550D01*
X120161812Y-104298928D01*
X120181926Y-104301331D01*
X120199071Y-104304836D01*
X120215680Y-104310133D01*
X120234185Y-104317916D01*
X120242871Y-104321979D01*
X120258058Y-104329709D01*
X120270422Y-104337402D01*
X120282090Y-104346592D01*
X120295188Y-104358811D01*
X120298532Y-104362117D01*
X120321810Y-104388471D01*
X120339105Y-104415552D01*
X120350784Y-104444223D01*
X120357214Y-104475346D01*
X120358826Y-104504075D01*
X120519753Y-104504075D01*
X120517605Y-104461024D01*
X120509332Y-104413799D01*
X120495253Y-104368351D01*
X120483263Y-104340562D01*
X120470174Y-104315445D01*
X120456368Y-104293462D01*
X120440571Y-104272910D01*
X120421506Y-104252084D01*
X120404796Y-104235733D01*
X120369651Y-104206296D01*
X120332104Y-104182364D01*
X120291438Y-104163557D01*
X120246936Y-104149492D01*
X120238982Y-104147556D01*
X120227398Y-104145081D01*
X120216105Y-104143283D01*
X120203763Y-104142062D01*
X120189031Y-104141321D01*
X120170568Y-104140960D01*
X120148305Y-104140879D01*
X120126246Y-104140960D01*
G36*
X123118030Y-104161413D02*
X123103071Y-104161609D01*
X123091420Y-104162018D01*
X123082318Y-104162673D01*
X123075005Y-104163607D01*
X123068720Y-104164851D01*
X123062703Y-104166441D01*
X123059415Y-104167418D01*
X123040043Y-104175220D01*
X123025746Y-104185661D01*
X123016130Y-104199373D01*
X123010803Y-104216990D01*
X123009371Y-104239147D01*
X123009684Y-104247522D01*
X123010979Y-104261970D01*
X123013289Y-104272370D01*
X123017221Y-104281015D01*
X123019487Y-104284653D01*
X123032649Y-104298856D01*
X123050869Y-104309579D01*
X123073754Y-104316593D01*
X123075655Y-104316965D01*
X123086259Y-104319036D01*
X123094011Y-104320686D01*
X123097179Y-104321540D01*
X123096029Y-104324462D01*
X123092253Y-104332419D01*
X123086157Y-104344814D01*
X123078049Y-104361051D01*
X123068234Y-104380532D01*
X123057020Y-104402660D01*
X123044713Y-104426839D01*
X123031620Y-104452471D01*
X123018048Y-104478959D01*
X123004303Y-104505707D01*
X122990692Y-104532118D01*
X122977522Y-104557594D01*
X122965099Y-104581539D01*
X122953731Y-104603356D01*
X122943723Y-104622448D01*
X122935384Y-104638218D01*
X122929018Y-104650068D01*
X122924933Y-104657403D01*
X122923459Y-104659650D01*
X122921578Y-104656930D01*
X122916967Y-104649095D01*
X122909893Y-104636625D01*
X122900621Y-104620003D01*
X122889419Y-104599711D01*
X122876552Y-104576231D01*
X122862286Y-104550047D01*
X122846888Y-104521639D01*
X122830624Y-104491491D01*
X122830134Y-104490581D01*
X122739151Y-104321512D01*
X122757271Y-104319160D01*
X122783359Y-104313569D01*
X122804356Y-104304263D01*
X122820212Y-104291298D01*
X122830878Y-104274728D01*
X122836304Y-104254611D01*
X122836440Y-104231000D01*
X122836376Y-104230371D01*
X122833337Y-104213072D01*
X122827660Y-104199531D01*
X122818236Y-104187345D01*
X122815078Y-104184143D01*
X122809471Y-104178918D01*
X122803915Y-104174630D01*
X122797733Y-104171181D01*
X122790248Y-104168469D01*
X122780781Y-104166394D01*
X122768654Y-104164856D01*
X122753192Y-104163755D01*
X122733715Y-104162989D01*
X122709545Y-104162460D01*
X122680007Y-104162066D01*
X122664893Y-104161908D01*
X122635230Y-104161628D01*
X122611164Y-104161466D01*
X122591944Y-104161454D01*
X122576815Y-104161623D01*
X122565027Y-104162003D01*
X122555828Y-104162628D01*
X122548464Y-104163526D01*
X122542183Y-104164731D01*
X122536234Y-104166273D01*
X122532357Y-104167420D01*
X122512373Y-104175721D01*
X122497778Y-104187004D01*
X122488182Y-104201619D01*
X122485270Y-104209799D01*
X122482629Y-104225690D01*
X122482403Y-104243784D01*
X122484419Y-104261579D01*
X122488504Y-104276570D01*
X122490153Y-104280237D01*
X122499954Y-104293278D01*
X122514392Y-104304635D01*
X122531776Y-104313178D01*
X122544903Y-104316899D01*
X122563086Y-104320476D01*
X122741583Y-104659592D01*
X122764306Y-104702772D01*
X122786189Y-104744383D01*
X122807055Y-104784079D01*
X122826721Y-104821517D01*
X122845008Y-104856353D01*
X122861735Y-104888241D01*
X122876722Y-104916839D01*
X122889788Y-104941802D01*
X122900753Y-104962786D01*
X122909437Y-104979445D01*
X122915659Y-104991437D01*
X122919238Y-104998417D01*
X122920080Y-105000158D01*
X122917166Y-105001067D01*
X122909436Y-105002176D01*
X122898414Y-105003278D01*
X122895474Y-105003516D01*
X122870160Y-105006888D01*
X122850181Y-105012822D01*
X122834950Y-105021594D01*
X122823877Y-105033482D01*
X122820702Y-105038753D01*
X122817119Y-105046773D01*
X122814983Y-105055576D01*
X122813968Y-105067118D01*
X122813741Y-105080337D01*
X122813942Y-105094751D01*
X122814844Y-105104840D01*
X122816849Y-105112620D01*
X122820362Y-105120109D01*
X122822421Y-105123717D01*
X122831788Y-105136382D01*
X122843726Y-105145865D01*
X122859758Y-105153227D01*
X122869063Y-105156234D01*
X122873217Y-105157268D01*
X122878431Y-105158153D01*
X122885189Y-105158899D01*
X122893977Y-105159517D01*
X122905279Y-105160019D01*
X122919581Y-105160414D01*
X122937369Y-105160714D01*
X122959126Y-105160929D01*
X122985338Y-105161070D01*
X123016490Y-105161148D01*
X123053068Y-105161173D01*
X123091313Y-105161160D01*
X123133938Y-105161110D01*
X123170659Y-105161014D01*
X123201919Y-105160863D01*
X123228164Y-105160649D01*
X123249839Y-105160361D01*
X123267388Y-105159990D01*
X123281257Y-105159527D01*
X123291891Y-105158962D01*
X123299734Y-105158287D01*
X123305232Y-105157490D01*
X123308829Y-105156564D01*
X123308834Y-105156562D01*
X123324167Y-105149438D01*
X123336163Y-105139520D01*
X123346905Y-105125076D01*
X123347118Y-105124735D01*
X123352184Y-105115679D01*
X123355237Y-105107117D01*
X123356886Y-105096691D01*
X123357670Y-105083766D01*
X123357940Y-105069883D01*
X123357171Y-105060077D01*
X123354994Y-105052113D01*
X123351076Y-105043825D01*
X123343736Y-105033194D01*
X123334392Y-105023533D01*
X123330999Y-105020885D01*
X123323207Y-105015944D01*
X123315019Y-105011961D01*
X123305672Y-105008837D01*
X123294400Y-105006472D01*
X123280439Y-105004766D01*
X123263024Y-105003621D01*
X123241391Y-105002937D01*
X123214774Y-105002614D01*
X123189927Y-105002550D01*
X123099158Y-105002550D01*
X123056450Y-104922565D01*
X123045501Y-104901959D01*
X123035634Y-104883198D01*
X123027220Y-104867003D01*
X123020630Y-104854093D01*
X123016234Y-104845189D01*
X123014403Y-104841013D01*
X123014378Y-104840809D01*
X123015892Y-104837790D01*
X123020111Y-104829524D01*
X123026829Y-104816411D01*
X123035842Y-104798848D01*
X123046945Y-104777233D01*
X123059933Y-104751965D01*
X123074602Y-104723441D01*
X123090747Y-104692060D01*
X123108163Y-104658221D01*
X123126645Y-104622321D01*
X123145990Y-104584759D01*
X123148300Y-104580275D01*
X123281587Y-104321512D01*
X123295303Y-104317880D01*
X123318093Y-104310045D01*
X123335276Y-104299793D01*
X123347321Y-104286544D01*
X123354699Y-104269720D01*
X123357881Y-104248741D01*
X123358091Y-104240550D01*
X123356437Y-104218593D01*
X123351074Y-104201185D01*
X123341403Y-104187339D01*
X123326826Y-104176067D01*
X123315328Y-104170061D01*
X123310887Y-104168103D01*
X123306463Y-104166523D01*
X123301337Y-104165272D01*
X123294789Y-104164303D01*
X123286100Y-104163568D01*
X123274549Y-104163019D01*
X123259417Y-104162609D01*
X123239984Y-104162289D01*
X123215530Y-104162012D01*
X123190363Y-104161776D01*
X123160916Y-104161530D01*
X123137058Y-104161397D01*
X123118030Y-104161413D01*
X123118030Y-104161413D01*
G37*
X123118030Y-104161413D02*
X123103071Y-104161609D01*
X123091420Y-104162018D01*
X123082318Y-104162673D01*
X123075005Y-104163607D01*
X123068720Y-104164851D01*
X123062703Y-104166441D01*
X123059415Y-104167418D01*
X123040043Y-104175220D01*
X123025746Y-104185661D01*
X123016130Y-104199373D01*
X123010803Y-104216990D01*
X123009371Y-104239147D01*
X123009684Y-104247522D01*
X123010979Y-104261970D01*
X123013289Y-104272370D01*
X123017221Y-104281015D01*
X123019487Y-104284653D01*
X123032649Y-104298856D01*
X123050869Y-104309579D01*
X123073754Y-104316593D01*
X123075655Y-104316965D01*
X123086259Y-104319036D01*
X123094011Y-104320686D01*
X123097179Y-104321540D01*
X123096029Y-104324462D01*
X123092253Y-104332419D01*
X123086157Y-104344814D01*
X123078049Y-104361051D01*
X123068234Y-104380532D01*
X123057020Y-104402660D01*
X123044713Y-104426839D01*
X123031620Y-104452471D01*
X123018048Y-104478959D01*
X123004303Y-104505707D01*
X122990692Y-104532118D01*
X122977522Y-104557594D01*
X122965099Y-104581539D01*
X122953731Y-104603356D01*
X122943723Y-104622448D01*
X122935384Y-104638218D01*
X122929018Y-104650068D01*
X122924933Y-104657403D01*
X122923459Y-104659650D01*
X122921578Y-104656930D01*
X122916967Y-104649095D01*
X122909893Y-104636625D01*
X122900621Y-104620003D01*
X122889419Y-104599711D01*
X122876552Y-104576231D01*
X122862286Y-104550047D01*
X122846888Y-104521639D01*
X122830624Y-104491491D01*
X122830134Y-104490581D01*
X122739151Y-104321512D01*
X122757271Y-104319160D01*
X122783359Y-104313569D01*
X122804356Y-104304263D01*
X122820212Y-104291298D01*
X122830878Y-104274728D01*
X122836304Y-104254611D01*
X122836440Y-104231000D01*
X122836376Y-104230371D01*
X122833337Y-104213072D01*
X122827660Y-104199531D01*
X122818236Y-104187345D01*
X122815078Y-104184143D01*
X122809471Y-104178918D01*
X122803915Y-104174630D01*
X122797733Y-104171181D01*
X122790248Y-104168469D01*
X122780781Y-104166394D01*
X122768654Y-104164856D01*
X122753192Y-104163755D01*
X122733715Y-104162989D01*
X122709545Y-104162460D01*
X122680007Y-104162066D01*
X122664893Y-104161908D01*
X122635230Y-104161628D01*
X122611164Y-104161466D01*
X122591944Y-104161454D01*
X122576815Y-104161623D01*
X122565027Y-104162003D01*
X122555828Y-104162628D01*
X122548464Y-104163526D01*
X122542183Y-104164731D01*
X122536234Y-104166273D01*
X122532357Y-104167420D01*
X122512373Y-104175721D01*
X122497778Y-104187004D01*
X122488182Y-104201619D01*
X122485270Y-104209799D01*
X122482629Y-104225690D01*
X122482403Y-104243784D01*
X122484419Y-104261579D01*
X122488504Y-104276570D01*
X122490153Y-104280237D01*
X122499954Y-104293278D01*
X122514392Y-104304635D01*
X122531776Y-104313178D01*
X122544903Y-104316899D01*
X122563086Y-104320476D01*
X122741583Y-104659592D01*
X122764306Y-104702772D01*
X122786189Y-104744383D01*
X122807055Y-104784079D01*
X122826721Y-104821517D01*
X122845008Y-104856353D01*
X122861735Y-104888241D01*
X122876722Y-104916839D01*
X122889788Y-104941802D01*
X122900753Y-104962786D01*
X122909437Y-104979445D01*
X122915659Y-104991437D01*
X122919238Y-104998417D01*
X122920080Y-105000158D01*
X122917166Y-105001067D01*
X122909436Y-105002176D01*
X122898414Y-105003278D01*
X122895474Y-105003516D01*
X122870160Y-105006888D01*
X122850181Y-105012822D01*
X122834950Y-105021594D01*
X122823877Y-105033482D01*
X122820702Y-105038753D01*
X122817119Y-105046773D01*
X122814983Y-105055576D01*
X122813968Y-105067118D01*
X122813741Y-105080337D01*
X122813942Y-105094751D01*
X122814844Y-105104840D01*
X122816849Y-105112620D01*
X122820362Y-105120109D01*
X122822421Y-105123717D01*
X122831788Y-105136382D01*
X122843726Y-105145865D01*
X122859758Y-105153227D01*
X122869063Y-105156234D01*
X122873217Y-105157268D01*
X122878431Y-105158153D01*
X122885189Y-105158899D01*
X122893977Y-105159517D01*
X122905279Y-105160019D01*
X122919581Y-105160414D01*
X122937369Y-105160714D01*
X122959126Y-105160929D01*
X122985338Y-105161070D01*
X123016490Y-105161148D01*
X123053068Y-105161173D01*
X123091313Y-105161160D01*
X123133938Y-105161110D01*
X123170659Y-105161014D01*
X123201919Y-105160863D01*
X123228164Y-105160649D01*
X123249839Y-105160361D01*
X123267388Y-105159990D01*
X123281257Y-105159527D01*
X123291891Y-105158962D01*
X123299734Y-105158287D01*
X123305232Y-105157490D01*
X123308829Y-105156564D01*
X123308834Y-105156562D01*
X123324167Y-105149438D01*
X123336163Y-105139520D01*
X123346905Y-105125076D01*
X123347118Y-105124735D01*
X123352184Y-105115679D01*
X123355237Y-105107117D01*
X123356886Y-105096691D01*
X123357670Y-105083766D01*
X123357940Y-105069883D01*
X123357171Y-105060077D01*
X123354994Y-105052113D01*
X123351076Y-105043825D01*
X123343736Y-105033194D01*
X123334392Y-105023533D01*
X123330999Y-105020885D01*
X123323207Y-105015944D01*
X123315019Y-105011961D01*
X123305672Y-105008837D01*
X123294400Y-105006472D01*
X123280439Y-105004766D01*
X123263024Y-105003621D01*
X123241391Y-105002937D01*
X123214774Y-105002614D01*
X123189927Y-105002550D01*
X123099158Y-105002550D01*
X123056450Y-104922565D01*
X123045501Y-104901959D01*
X123035634Y-104883198D01*
X123027220Y-104867003D01*
X123020630Y-104854093D01*
X123016234Y-104845189D01*
X123014403Y-104841013D01*
X123014378Y-104840809D01*
X123015892Y-104837790D01*
X123020111Y-104829524D01*
X123026829Y-104816411D01*
X123035842Y-104798848D01*
X123046945Y-104777233D01*
X123059933Y-104751965D01*
X123074602Y-104723441D01*
X123090747Y-104692060D01*
X123108163Y-104658221D01*
X123126645Y-104622321D01*
X123145990Y-104584759D01*
X123148300Y-104580275D01*
X123281587Y-104321512D01*
X123295303Y-104317880D01*
X123318093Y-104310045D01*
X123335276Y-104299793D01*
X123347321Y-104286544D01*
X123354699Y-104269720D01*
X123357881Y-104248741D01*
X123358091Y-104240550D01*
X123356437Y-104218593D01*
X123351074Y-104201185D01*
X123341403Y-104187339D01*
X123326826Y-104176067D01*
X123315328Y-104170061D01*
X123310887Y-104168103D01*
X123306463Y-104166523D01*
X123301337Y-104165272D01*
X123294789Y-104164303D01*
X123286100Y-104163568D01*
X123274549Y-104163019D01*
X123259417Y-104162609D01*
X123239984Y-104162289D01*
X123215530Y-104162012D01*
X123190363Y-104161776D01*
X123160916Y-104161530D01*
X123137058Y-104161397D01*
X123118030Y-104161413D01*
D11*
G36*
X131832300Y-135222681D02*
X132087062Y-135274977D01*
X132326829Y-135375765D01*
X132542445Y-135521200D01*
X132725707Y-135705745D01*
X132869632Y-135922372D01*
X132968742Y-136162828D01*
X133019189Y-136417610D01*
X133019189Y-136417615D01*
X133019257Y-136417959D01*
X133015109Y-136715021D01*
X133015032Y-136715359D01*
X133015032Y-136715368D01*
X132957490Y-136968643D01*
X132851707Y-137206235D01*
X132701786Y-137418760D01*
X132513442Y-137598118D01*
X132293847Y-137737478D01*
X132051367Y-137831529D01*
X131795239Y-137876692D01*
X131535213Y-137871245D01*
X131281197Y-137815396D01*
X131042867Y-137711272D01*
X130829304Y-137562842D01*
X130648636Y-137375755D01*
X130507747Y-137157138D01*
X130412003Y-136915315D01*
X130365055Y-136659513D01*
X130368685Y-136399456D01*
X130422760Y-136145055D01*
X130525216Y-135906006D01*
X130672155Y-135691409D01*
X130857974Y-135509440D01*
X131075603Y-135367028D01*
X131316748Y-135269599D01*
X131572219Y-135220866D01*
X131832300Y-135222681D01*
X131832300Y-135222681D01*
G37*
G36*
X111192300Y-132540681D02*
X111447062Y-132592977D01*
X111686829Y-132693765D01*
X111902445Y-132839200D01*
X112085707Y-133023745D01*
X112229632Y-133240372D01*
X112328742Y-133480828D01*
X112379189Y-133735610D01*
X112379189Y-133735615D01*
X112379257Y-133735959D01*
X112375109Y-134033021D01*
X112375032Y-134033359D01*
X112375032Y-134033368D01*
X112317490Y-134286643D01*
X112211707Y-134524235D01*
X112061786Y-134736760D01*
X111873442Y-134916118D01*
X111653847Y-135055478D01*
X111411367Y-135149529D01*
X111155239Y-135194692D01*
X110895213Y-135189245D01*
X110641197Y-135133396D01*
X110402867Y-135029272D01*
X110189304Y-134880842D01*
X110008636Y-134693755D01*
X109867747Y-134475138D01*
X109772003Y-134233315D01*
X109725055Y-133977513D01*
X109728685Y-133717456D01*
X109782760Y-133463055D01*
X109885216Y-133224006D01*
X110032155Y-133009409D01*
X110217974Y-132827440D01*
X110435603Y-132685028D01*
X110676748Y-132587599D01*
X110932219Y-132538866D01*
X111192300Y-132540681D01*
X111192300Y-132540681D01*
G37*
G36*
X130979300Y-123868681D02*
X131234062Y-123920977D01*
X131473829Y-124021765D01*
X131689445Y-124167200D01*
X131872707Y-124351745D01*
X132016632Y-124568372D01*
X132115742Y-124808828D01*
X132166189Y-125063610D01*
X132166189Y-125063615D01*
X132166257Y-125063959D01*
X132162109Y-125361021D01*
X132162032Y-125361359D01*
X132162032Y-125361368D01*
X132104490Y-125614643D01*
X131998707Y-125852235D01*
X131848786Y-126064760D01*
X131660442Y-126244118D01*
X131440847Y-126383478D01*
X131198367Y-126477529D01*
X130942239Y-126522692D01*
X130682213Y-126517245D01*
X130428197Y-126461396D01*
X130189867Y-126357272D01*
X129976304Y-126208842D01*
X129795636Y-126021755D01*
X129654747Y-125803138D01*
X129559003Y-125561315D01*
X129512055Y-125305513D01*
X129515685Y-125045456D01*
X129569760Y-124791055D01*
X129672216Y-124552006D01*
X129819155Y-124337409D01*
X130004974Y-124155440D01*
X130222603Y-124013028D01*
X130463748Y-123915599D01*
X130719219Y-123866866D01*
X130979300Y-123868681D01*
X130979300Y-123868681D01*
G37*
G36*
X104233300Y-121283681D02*
X104488062Y-121335977D01*
X104727829Y-121436765D01*
X104943445Y-121582200D01*
X105126707Y-121766745D01*
X105270632Y-121983372D01*
X105369742Y-122223828D01*
X105420189Y-122478610D01*
X105420189Y-122478615D01*
X105420257Y-122478959D01*
X105416109Y-122776021D01*
X105416032Y-122776359D01*
X105416032Y-122776368D01*
X105358490Y-123029643D01*
X105252707Y-123267235D01*
X105102786Y-123479760D01*
X104914442Y-123659118D01*
X104694847Y-123798478D01*
X104452367Y-123892529D01*
X104196239Y-123937692D01*
X103936213Y-123932245D01*
X103682197Y-123876396D01*
X103443867Y-123772272D01*
X103230304Y-123623842D01*
X103049636Y-123436755D01*
X102908747Y-123218138D01*
X102813003Y-122976315D01*
X102766055Y-122720513D01*
X102769685Y-122460456D01*
X102823760Y-122206055D01*
X102926216Y-121967006D01*
X103073155Y-121752409D01*
X103258974Y-121570440D01*
X103476603Y-121428028D01*
X103717748Y-121330599D01*
X103973219Y-121281866D01*
X104233300Y-121283681D01*
X104233300Y-121283681D01*
G37*
G36*
X156922300Y-116213681D02*
X157177062Y-116265977D01*
X157416829Y-116366765D01*
X157632445Y-116512200D01*
X157815707Y-116696745D01*
X157959632Y-116913372D01*
X158058742Y-117153828D01*
X158109189Y-117408610D01*
X158109189Y-117408615D01*
X158109257Y-117408959D01*
X158105109Y-117706021D01*
X158105032Y-117706359D01*
X158105032Y-117706368D01*
X158047490Y-117959643D01*
X157941707Y-118197235D01*
X157791786Y-118409760D01*
X157603442Y-118589118D01*
X157383847Y-118728478D01*
X157141367Y-118822529D01*
X156885239Y-118867692D01*
X156625213Y-118862245D01*
X156371197Y-118806396D01*
X156132867Y-118702272D01*
X155919304Y-118553842D01*
X155738636Y-118366755D01*
X155597747Y-118148138D01*
X155502003Y-117906315D01*
X155455055Y-117650513D01*
X155458685Y-117390456D01*
X155512760Y-117136055D01*
X155615216Y-116897006D01*
X155762155Y-116682409D01*
X155947974Y-116500440D01*
X156165603Y-116358028D01*
X156406748Y-116260599D01*
X156662219Y-116211866D01*
X156922300Y-116213681D01*
X156922300Y-116213681D01*
G37*
G36*
X148921300Y-115024681D02*
X149176062Y-115076977D01*
X149415829Y-115177765D01*
X149631445Y-115323200D01*
X149814707Y-115507745D01*
X149958632Y-115724372D01*
X150057742Y-115964828D01*
X150108189Y-116219610D01*
X150108189Y-116219615D01*
X150108257Y-116219959D01*
X150104109Y-116517021D01*
X150104032Y-116517359D01*
X150104032Y-116517368D01*
X150046490Y-116770643D01*
X149940707Y-117008235D01*
X149790786Y-117220760D01*
X149602442Y-117400118D01*
X149382847Y-117539478D01*
X149140367Y-117633529D01*
X148884239Y-117678692D01*
X148624213Y-117673245D01*
X148370197Y-117617396D01*
X148131867Y-117513272D01*
X147918304Y-117364842D01*
X147737636Y-117177755D01*
X147596747Y-116959138D01*
X147501003Y-116717315D01*
X147454055Y-116461513D01*
X147457685Y-116201456D01*
X147511760Y-115947055D01*
X147614216Y-115708006D01*
X147761155Y-115493409D01*
X147946974Y-115311440D01*
X148164603Y-115169028D01*
X148405748Y-115071599D01*
X148661219Y-115022866D01*
X148921300Y-115024681D01*
X148921300Y-115024681D01*
G37*
G36*
X105111300Y-113398681D02*
X105366062Y-113450977D01*
X105605829Y-113551765D01*
X105821445Y-113697200D01*
X106004707Y-113881745D01*
X106148632Y-114098372D01*
X106247742Y-114338828D01*
X106298189Y-114593610D01*
X106298189Y-114593615D01*
X106298257Y-114593959D01*
X106294109Y-114891021D01*
X106294032Y-114891359D01*
X106294032Y-114891368D01*
X106236490Y-115144643D01*
X106130707Y-115382235D01*
X105980786Y-115594760D01*
X105792442Y-115774118D01*
X105572847Y-115913478D01*
X105330367Y-116007529D01*
X105074239Y-116052692D01*
X104814213Y-116047245D01*
X104560197Y-115991396D01*
X104321867Y-115887272D01*
X104108304Y-115738842D01*
X103927636Y-115551755D01*
X103786747Y-115333138D01*
X103691003Y-115091315D01*
X103644055Y-114835513D01*
X103647685Y-114575456D01*
X103701760Y-114321055D01*
X103804216Y-114082006D01*
X103951155Y-113867409D01*
X104136974Y-113685440D01*
X104354603Y-113543028D01*
X104595748Y-113445599D01*
X104851219Y-113396866D01*
X105111300Y-113398681D01*
X105111300Y-113398681D01*
G37*
G36*
X170034300Y-103000681D02*
X170289062Y-103052977D01*
X170528829Y-103153765D01*
X170744445Y-103299200D01*
X170927707Y-103483745D01*
X171071632Y-103700372D01*
X171170742Y-103940828D01*
X171221189Y-104195610D01*
X171221189Y-104195615D01*
X171221257Y-104195959D01*
X171217109Y-104493021D01*
X171217032Y-104493359D01*
X171217032Y-104493368D01*
X171159490Y-104746643D01*
X171053707Y-104984235D01*
X170903786Y-105196760D01*
X170715442Y-105376118D01*
X170495847Y-105515478D01*
X170253367Y-105609529D01*
X169997239Y-105654692D01*
X169737213Y-105649245D01*
X169483197Y-105593396D01*
X169244867Y-105489272D01*
X169031304Y-105340842D01*
X168850636Y-105153755D01*
X168709747Y-104935138D01*
X168614003Y-104693315D01*
X168567055Y-104437513D01*
X168570685Y-104177456D01*
X168624760Y-103923055D01*
X168727216Y-103684006D01*
X168874155Y-103469409D01*
X169059974Y-103287440D01*
X169277603Y-103145028D01*
X169518748Y-103047599D01*
X169774219Y-102998866D01*
X170034300Y-103000681D01*
X170034300Y-103000681D01*
G37*
G36*
X150483394Y-102372993D02*
X150712721Y-102420068D01*
X150928551Y-102510794D01*
X151122638Y-102641708D01*
X151287610Y-102807834D01*
X151417164Y-103002831D01*
X151506379Y-103219281D01*
X151551783Y-103448593D01*
X151551783Y-103448598D01*
X151551851Y-103448942D01*
X151548117Y-103716347D01*
X151548040Y-103716685D01*
X151548040Y-103716693D01*
X151496250Y-103944649D01*
X151401028Y-104158521D01*
X151266075Y-104349829D01*
X151096534Y-104511281D01*
X150898863Y-104636726D01*
X150680588Y-104721389D01*
X150450033Y-104762043D01*
X150215965Y-104757140D01*
X149987309Y-104706866D01*
X149772772Y-104613138D01*
X149580534Y-104479529D01*
X149417898Y-104311114D01*
X149291076Y-104114325D01*
X149204890Y-103896644D01*
X149162629Y-103666380D01*
X149165897Y-103432286D01*
X149214574Y-103203283D01*
X149306801Y-102988099D01*
X149439070Y-102794926D01*
X149606338Y-102631124D01*
X149802241Y-102502929D01*
X150019311Y-102415227D01*
X150249277Y-102371359D01*
X150483394Y-102372993D01*
X150483394Y-102372993D01*
G37*
G36*
X114048394Y-100708993D02*
X114277721Y-100756068D01*
X114493551Y-100846794D01*
X114687638Y-100977708D01*
X114852610Y-101143834D01*
X114982164Y-101338831D01*
X115071379Y-101555281D01*
X115116783Y-101784593D01*
X115116783Y-101784598D01*
X115116851Y-101784942D01*
X115113117Y-102052347D01*
X115113040Y-102052685D01*
X115113040Y-102052693D01*
X115061250Y-102280649D01*
X114966028Y-102494521D01*
X114831075Y-102685829D01*
X114661534Y-102847281D01*
X114463863Y-102972726D01*
X114245588Y-103057389D01*
X114015033Y-103098043D01*
X113780965Y-103093140D01*
X113552309Y-103042866D01*
X113337772Y-102949138D01*
X113145534Y-102815529D01*
X112982898Y-102647114D01*
X112856076Y-102450325D01*
X112769890Y-102232644D01*
X112727629Y-102002380D01*
X112730897Y-101768286D01*
X112779574Y-101539283D01*
X112871801Y-101324099D01*
X113004070Y-101130926D01*
X113171338Y-100967124D01*
X113367241Y-100838929D01*
X113584311Y-100751227D01*
X113814277Y-100707359D01*
X114048394Y-100708993D01*
X114048394Y-100708993D01*
G37*
G36*
X134930580Y-102756440D02*
X133278180Y-102756440D01*
X133278180Y-99204040D01*
X134930580Y-99204040D01*
X134930580Y-102756440D01*
X134930580Y-102756440D01*
G37*
G36*
X128230580Y-102756440D02*
X126578180Y-102756440D01*
X126578180Y-99204040D01*
X128230580Y-99204040D01*
X128230580Y-102756440D01*
X128230580Y-102756440D01*
G37*
G36*
X148353394Y-100132993D02*
X148582721Y-100180068D01*
X148798551Y-100270794D01*
X148992638Y-100401708D01*
X149157610Y-100567834D01*
X149287164Y-100762831D01*
X149376379Y-100979281D01*
X149421783Y-101208593D01*
X149421783Y-101208598D01*
X149421851Y-101208942D01*
X149418117Y-101476347D01*
X149418040Y-101476685D01*
X149418040Y-101476693D01*
X149366250Y-101704649D01*
X149271028Y-101918521D01*
X149136075Y-102109829D01*
X148966534Y-102271281D01*
X148768863Y-102396726D01*
X148550588Y-102481389D01*
X148320033Y-102522043D01*
X148085965Y-102517140D01*
X147857309Y-102466866D01*
X147642772Y-102373138D01*
X147450534Y-102239529D01*
X147287898Y-102071114D01*
X147161076Y-101874325D01*
X147074890Y-101656644D01*
X147032629Y-101426380D01*
X147035897Y-101192286D01*
X147084574Y-100963283D01*
X147176801Y-100748099D01*
X147309070Y-100554926D01*
X147476338Y-100391124D01*
X147672241Y-100262929D01*
X147889311Y-100175227D01*
X148119277Y-100131359D01*
X148353394Y-100132993D01*
X148353394Y-100132993D01*
G37*
G36*
X115938394Y-98245693D02*
X116167721Y-98292768D01*
X116383551Y-98383494D01*
X116577638Y-98514408D01*
X116742610Y-98680534D01*
X116872164Y-98875531D01*
X116961379Y-99091981D01*
X117006783Y-99321293D01*
X117006783Y-99321298D01*
X117006851Y-99321642D01*
X117003117Y-99589047D01*
X117003040Y-99589385D01*
X117003040Y-99589393D01*
X116951250Y-99817349D01*
X116856028Y-100031221D01*
X116721075Y-100222529D01*
X116551534Y-100383981D01*
X116353863Y-100509426D01*
X116135588Y-100594089D01*
X115905033Y-100634743D01*
X115670965Y-100629840D01*
X115442309Y-100579566D01*
X115227772Y-100485838D01*
X115035534Y-100352229D01*
X114872898Y-100183814D01*
X114746076Y-99987025D01*
X114659890Y-99769344D01*
X114617629Y-99539080D01*
X114620897Y-99304986D01*
X114669574Y-99075983D01*
X114761801Y-98860799D01*
X114894070Y-98667626D01*
X115061338Y-98503824D01*
X115257241Y-98375629D01*
X115474311Y-98287927D01*
X115704277Y-98244059D01*
X115938394Y-98245693D01*
X115938394Y-98245693D01*
G37*
G36*
X137479480Y-100230700D02*
X136627080Y-100230700D01*
X136627080Y-98778300D01*
X137479480Y-98778300D01*
X137479480Y-100230700D01*
X137479480Y-100230700D01*
G37*
G36*
X139379480Y-100230700D02*
X138527080Y-100230700D01*
X138527080Y-98778300D01*
X139379480Y-98778300D01*
X139379480Y-100230700D01*
X139379480Y-100230700D01*
G37*
G36*
X146383394Y-97783193D02*
X146612721Y-97830268D01*
X146828551Y-97920994D01*
X147022638Y-98051908D01*
X147187610Y-98218034D01*
X147317164Y-98413031D01*
X147406379Y-98629481D01*
X147451783Y-98858793D01*
X147451783Y-98858798D01*
X147451851Y-98859142D01*
X147448117Y-99126547D01*
X147448040Y-99126885D01*
X147448040Y-99126893D01*
X147396250Y-99354849D01*
X147301028Y-99568721D01*
X147166075Y-99760029D01*
X146996534Y-99921481D01*
X146798863Y-100046926D01*
X146580588Y-100131589D01*
X146350033Y-100172243D01*
X146115965Y-100167340D01*
X145887309Y-100117066D01*
X145672772Y-100023338D01*
X145480534Y-99889729D01*
X145317898Y-99721314D01*
X145191076Y-99524525D01*
X145104890Y-99306844D01*
X145062629Y-99076580D01*
X145065897Y-98842486D01*
X145114574Y-98613483D01*
X145206801Y-98398299D01*
X145339070Y-98205126D01*
X145506338Y-98041324D01*
X145702241Y-97913129D01*
X145919311Y-97825427D01*
X146149277Y-97781559D01*
X146383394Y-97783193D01*
X146383394Y-97783193D01*
G37*
G36*
X117589394Y-95609193D02*
X117818721Y-95656268D01*
X118034551Y-95746994D01*
X118228638Y-95877908D01*
X118393610Y-96044034D01*
X118523164Y-96239031D01*
X118612379Y-96455481D01*
X118657783Y-96684793D01*
X118657783Y-96684798D01*
X118657851Y-96685142D01*
X118654117Y-96952547D01*
X118654040Y-96952885D01*
X118654040Y-96952893D01*
X118602250Y-97180849D01*
X118507028Y-97394721D01*
X118372075Y-97586029D01*
X118202534Y-97747481D01*
X118004863Y-97872926D01*
X117786588Y-97957589D01*
X117556033Y-97998243D01*
X117321965Y-97993340D01*
X117093309Y-97943066D01*
X116878772Y-97849338D01*
X116686534Y-97715729D01*
X116523898Y-97547314D01*
X116397076Y-97350525D01*
X116310890Y-97132844D01*
X116268629Y-96902580D01*
X116271897Y-96668486D01*
X116320574Y-96439483D01*
X116412801Y-96224299D01*
X116545070Y-96031126D01*
X116712338Y-95867324D01*
X116908241Y-95739129D01*
X117125311Y-95651427D01*
X117355277Y-95607559D01*
X117589394Y-95609193D01*
X117589394Y-95609193D01*
G37*
G36*
X144429394Y-95377993D02*
X144658721Y-95425068D01*
X144874551Y-95515794D01*
X145068638Y-95646708D01*
X145233610Y-95812834D01*
X145363164Y-96007831D01*
X145452379Y-96224281D01*
X145497783Y-96453593D01*
X145497783Y-96453598D01*
X145497851Y-96453942D01*
X145494117Y-96721347D01*
X145494040Y-96721685D01*
X145494040Y-96721693D01*
X145442250Y-96949649D01*
X145347028Y-97163521D01*
X145212075Y-97354829D01*
X145042534Y-97516281D01*
X144844863Y-97641726D01*
X144626588Y-97726389D01*
X144396033Y-97767043D01*
X144161965Y-97762140D01*
X143933309Y-97711866D01*
X143718772Y-97618138D01*
X143526534Y-97484529D01*
X143363898Y-97316114D01*
X143237076Y-97119325D01*
X143150890Y-96901644D01*
X143108629Y-96671380D01*
X143111897Y-96437286D01*
X143160574Y-96208283D01*
X143252801Y-95993099D01*
X143385070Y-95799926D01*
X143552338Y-95636124D01*
X143748241Y-95507929D01*
X143965311Y-95420227D01*
X144195277Y-95376359D01*
X144429394Y-95377993D01*
X144429394Y-95377993D01*
G37*
G36*
X132330580Y-97056440D02*
X131178180Y-97056440D01*
X131178180Y-93404040D01*
X132330580Y-93404040D01*
X132330580Y-97056440D01*
X132330580Y-97056440D01*
G37*
G36*
X130330580Y-97056440D02*
X129178180Y-97056440D01*
X129178180Y-93404040D01*
X130330580Y-93404040D01*
X130330580Y-97056440D01*
X130330580Y-97056440D01*
G37*
G36*
X119098394Y-92926893D02*
X119327721Y-92973968D01*
X119543551Y-93064694D01*
X119737638Y-93195608D01*
X119902610Y-93361734D01*
X120032164Y-93556731D01*
X120121379Y-93773181D01*
X120166783Y-94002493D01*
X120166783Y-94002498D01*
X120166851Y-94002842D01*
X120163117Y-94270247D01*
X120163040Y-94270585D01*
X120163040Y-94270593D01*
X120111250Y-94498549D01*
X120016028Y-94712421D01*
X119881075Y-94903729D01*
X119711534Y-95065181D01*
X119513863Y-95190626D01*
X119295588Y-95275289D01*
X119065033Y-95315943D01*
X118830965Y-95311040D01*
X118602309Y-95260766D01*
X118387772Y-95167038D01*
X118195534Y-95033429D01*
X118032898Y-94865014D01*
X117906076Y-94668225D01*
X117819890Y-94450544D01*
X117777629Y-94220280D01*
X117780897Y-93986186D01*
X117829574Y-93757183D01*
X117921801Y-93541999D01*
X118054070Y-93348826D01*
X118221338Y-93185024D01*
X118417241Y-93056829D01*
X118634311Y-92969127D01*
X118864277Y-92925259D01*
X119098394Y-92926893D01*
X119098394Y-92926893D01*
G37*
G36*
X142595394Y-92891393D02*
X142824721Y-92938468D01*
X143040551Y-93029194D01*
X143234638Y-93160108D01*
X143399610Y-93326234D01*
X143529164Y-93521231D01*
X143618379Y-93737681D01*
X143663783Y-93966993D01*
X143663783Y-93966998D01*
X143663851Y-93967342D01*
X143660117Y-94234747D01*
X143660040Y-94235085D01*
X143660040Y-94235093D01*
X143608250Y-94463049D01*
X143513028Y-94676921D01*
X143378075Y-94868229D01*
X143208534Y-95029681D01*
X143010863Y-95155126D01*
X142792588Y-95239789D01*
X142562033Y-95280443D01*
X142327965Y-95275540D01*
X142099309Y-95225266D01*
X141884772Y-95131538D01*
X141692534Y-94997929D01*
X141529898Y-94829514D01*
X141403076Y-94632725D01*
X141316890Y-94415044D01*
X141274629Y-94184780D01*
X141277897Y-93950686D01*
X141326574Y-93721683D01*
X141418801Y-93506499D01*
X141551070Y-93313326D01*
X141718338Y-93149524D01*
X141914241Y-93021329D01*
X142131311Y-92933627D01*
X142361277Y-92889759D01*
X142595394Y-92891393D01*
X142595394Y-92891393D01*
G37*
G36*
X140772394Y-90407193D02*
X141001721Y-90454268D01*
X141217551Y-90544994D01*
X141411638Y-90675908D01*
X141576610Y-90842034D01*
X141706164Y-91037031D01*
X141795379Y-91253481D01*
X141840783Y-91482793D01*
X141840783Y-91482798D01*
X141840851Y-91483142D01*
X141837117Y-91750547D01*
X141837040Y-91750885D01*
X141837040Y-91750893D01*
X141785250Y-91978849D01*
X141690028Y-92192721D01*
X141555075Y-92384029D01*
X141385534Y-92545481D01*
X141187863Y-92670926D01*
X140969588Y-92755589D01*
X140739033Y-92796243D01*
X140504965Y-92791340D01*
X140276309Y-92741066D01*
X140061772Y-92647338D01*
X139869534Y-92513729D01*
X139706898Y-92345314D01*
X139580076Y-92148525D01*
X139493890Y-91930844D01*
X139451629Y-91700580D01*
X139454897Y-91466486D01*
X139503574Y-91237483D01*
X139595801Y-91022299D01*
X139728070Y-90829126D01*
X139895338Y-90665324D01*
X140091241Y-90537129D01*
X140308311Y-90449427D01*
X140538277Y-90405559D01*
X140772394Y-90407193D01*
X140772394Y-90407193D01*
G37*
G36*
X120515394Y-90178593D02*
X120744721Y-90225668D01*
X120960551Y-90316394D01*
X121154638Y-90447308D01*
X121319610Y-90613434D01*
X121449164Y-90808431D01*
X121538379Y-91024881D01*
X121583783Y-91254193D01*
X121583783Y-91254198D01*
X121583851Y-91254542D01*
X121580117Y-91521947D01*
X121580040Y-91522285D01*
X121580040Y-91522293D01*
X121528250Y-91750249D01*
X121433028Y-91964121D01*
X121298075Y-92155429D01*
X121128534Y-92316881D01*
X120930863Y-92442326D01*
X120712588Y-92526989D01*
X120482033Y-92567643D01*
X120247965Y-92562740D01*
X120019309Y-92512466D01*
X119804772Y-92418738D01*
X119612534Y-92285129D01*
X119449898Y-92116714D01*
X119323076Y-91919925D01*
X119236890Y-91702244D01*
X119194629Y-91471980D01*
X119197897Y-91237886D01*
X119246574Y-91008883D01*
X119338801Y-90793699D01*
X119471070Y-90600526D01*
X119638338Y-90436724D01*
X119834241Y-90308529D01*
X120051311Y-90220827D01*
X120281277Y-90176959D01*
X120515394Y-90178593D01*
X120515394Y-90178593D01*
G37*
G36*
X133178200Y-92342500D02*
X132125800Y-92342500D01*
X132125800Y-90990100D01*
X133178200Y-90990100D01*
X133178200Y-92342500D01*
X133178200Y-92342500D01*
G37*
G36*
X129878200Y-92342500D02*
X128825800Y-92342500D01*
X128825800Y-90990100D01*
X129878200Y-90990100D01*
X129878200Y-92342500D01*
X129878200Y-92342500D01*
G37*
G36*
X138984394Y-87892593D02*
X139213721Y-87939668D01*
X139429551Y-88030394D01*
X139623638Y-88161308D01*
X139788610Y-88327434D01*
X139918164Y-88522431D01*
X140007379Y-88738881D01*
X140052783Y-88968193D01*
X140052783Y-88968198D01*
X140052851Y-88968542D01*
X140049117Y-89235947D01*
X140049040Y-89236285D01*
X140049040Y-89236293D01*
X139997250Y-89464249D01*
X139902028Y-89678121D01*
X139767075Y-89869429D01*
X139597534Y-90030881D01*
X139399863Y-90156326D01*
X139181588Y-90240989D01*
X138951033Y-90281643D01*
X138716965Y-90276740D01*
X138488309Y-90226466D01*
X138273772Y-90132738D01*
X138081534Y-89999129D01*
X137918898Y-89830714D01*
X137792076Y-89633925D01*
X137705890Y-89416244D01*
X137663629Y-89185980D01*
X137666897Y-88951886D01*
X137715574Y-88722883D01*
X137807801Y-88507699D01*
X137940070Y-88314526D01*
X138107338Y-88150724D01*
X138303241Y-88022529D01*
X138520311Y-87934827D01*
X138750277Y-87890959D01*
X138984394Y-87892593D01*
X138984394Y-87892593D01*
G37*
G36*
X134650200Y-90169100D02*
X133247800Y-90169100D01*
X133247800Y-89016700D01*
X134650200Y-89016700D01*
X134650200Y-90169100D01*
X134650200Y-90169100D01*
G37*
G36*
X128147200Y-89872600D02*
X126694800Y-89872600D01*
X126694800Y-89020200D01*
X128147200Y-89020200D01*
X128147200Y-89872600D01*
X128147200Y-89872600D01*
G37*
G36*
X121882394Y-87420193D02*
X122111721Y-87467268D01*
X122327551Y-87557994D01*
X122521638Y-87688908D01*
X122686610Y-87855034D01*
X122816164Y-88050031D01*
X122905379Y-88266481D01*
X122950783Y-88495793D01*
X122950783Y-88495798D01*
X122950851Y-88496142D01*
X122947117Y-88763547D01*
X122947040Y-88763885D01*
X122947040Y-88763893D01*
X122895250Y-88991849D01*
X122800028Y-89205721D01*
X122665075Y-89397029D01*
X122495534Y-89558481D01*
X122297863Y-89683926D01*
X122079588Y-89768589D01*
X121849033Y-89809243D01*
X121614965Y-89804340D01*
X121386309Y-89754066D01*
X121171772Y-89660338D01*
X120979534Y-89526729D01*
X120816898Y-89358314D01*
X120690076Y-89161525D01*
X120603890Y-88943844D01*
X120561629Y-88713580D01*
X120564897Y-88479486D01*
X120613574Y-88250483D01*
X120705801Y-88035299D01*
X120838070Y-87842126D01*
X121005338Y-87678324D01*
X121201241Y-87550129D01*
X121418311Y-87462427D01*
X121648277Y-87418559D01*
X121882394Y-87420193D01*
X121882394Y-87420193D01*
G37*
G36*
X132049200Y-88868700D02*
X131246800Y-88868700D01*
X131246800Y-87156300D01*
X132049200Y-87156300D01*
X132049200Y-88868700D01*
X132049200Y-88868700D01*
G37*
G36*
X131099200Y-88868700D02*
X130296800Y-88868700D01*
X130296800Y-87156300D01*
X131099200Y-87156300D01*
X131099200Y-88868700D01*
X131099200Y-88868700D01*
G37*
G36*
X130149200Y-88868700D02*
X129346800Y-88868700D01*
X129346800Y-87156300D01*
X130149200Y-87156300D01*
X130149200Y-88868700D01*
X130149200Y-88868700D01*
G37*
G36*
X134650200Y-88169100D02*
X133247800Y-88169100D01*
X133247800Y-87016700D01*
X134650200Y-87016700D01*
X134650200Y-88169100D01*
X134650200Y-88169100D01*
G37*
G36*
X128147200Y-87972600D02*
X126694800Y-87972600D01*
X126694800Y-87120200D01*
X128147200Y-87120200D01*
X128147200Y-87972600D01*
X128147200Y-87972600D01*
G37*
G36*
X132049200Y-86168700D02*
X131246800Y-86168700D01*
X131246800Y-84456300D01*
X132049200Y-84456300D01*
X132049200Y-86168700D01*
X132049200Y-86168700D01*
G37*
G36*
X130149200Y-86168700D02*
X129346800Y-86168700D01*
X129346800Y-84456300D01*
X130149200Y-84456300D01*
X130149200Y-86168700D01*
X130149200Y-86168700D01*
G37*
G36*
X118018814Y-82871053D02*
X118248141Y-82918128D01*
X118463971Y-83008854D01*
X118658058Y-83139768D01*
X118823030Y-83305894D01*
X118952584Y-83500891D01*
X119041799Y-83717341D01*
X119087203Y-83946653D01*
X119087203Y-83946658D01*
X119087271Y-83947002D01*
X119083537Y-84214407D01*
X119083460Y-84214745D01*
X119083460Y-84214753D01*
X119031670Y-84442709D01*
X118936448Y-84656581D01*
X118801495Y-84847889D01*
X118631954Y-85009341D01*
X118434283Y-85134786D01*
X118216008Y-85219449D01*
X117985453Y-85260103D01*
X117751385Y-85255200D01*
X117522729Y-85204926D01*
X117308192Y-85111198D01*
X117115954Y-84977589D01*
X116953318Y-84809174D01*
X116826496Y-84612385D01*
X116740310Y-84394704D01*
X116698049Y-84164440D01*
X116701317Y-83930346D01*
X116749994Y-83701343D01*
X116842221Y-83486159D01*
X116974490Y-83292986D01*
X117141758Y-83129184D01*
X117337661Y-83000989D01*
X117554731Y-82913287D01*
X117784697Y-82869419D01*
X118018814Y-82871053D01*
X118018814Y-82871053D01*
G37*
G36*
X126169200Y-85169100D02*
X125016800Y-85169100D01*
X125016800Y-83766700D01*
X126169200Y-83766700D01*
X126169200Y-85169100D01*
X126169200Y-85169100D01*
G37*
G36*
X128169200Y-85169100D02*
X127016800Y-85169100D01*
X127016800Y-83766700D01*
X128169200Y-83766700D01*
X128169200Y-85169100D01*
X128169200Y-85169100D01*
G37*
G36*
X136373200Y-85037000D02*
X135220800Y-85037000D01*
X135220800Y-83634600D01*
X136373200Y-83634600D01*
X136373200Y-85037000D01*
X136373200Y-85037000D01*
G37*
G36*
X134373200Y-85037000D02*
X133220800Y-85037000D01*
X133220800Y-83634600D01*
X134373200Y-83634600D01*
X134373200Y-85037000D01*
X134373200Y-85037000D01*
G37*
G36*
X143920200Y-83227900D02*
X142467800Y-83227900D01*
X142467800Y-82375500D01*
X143920200Y-82375500D01*
X143920200Y-83227900D01*
X143920200Y-83227900D01*
G37*
G36*
X116964714Y-79137253D02*
X117194041Y-79184328D01*
X117409871Y-79275054D01*
X117603958Y-79405968D01*
X117768930Y-79572094D01*
X117898484Y-79767091D01*
X117987699Y-79983541D01*
X118033103Y-80212853D01*
X118033103Y-80212858D01*
X118033171Y-80213202D01*
X118029437Y-80480607D01*
X118029360Y-80480945D01*
X118029360Y-80480953D01*
X117977570Y-80708909D01*
X117882348Y-80922781D01*
X117747395Y-81114089D01*
X117577854Y-81275541D01*
X117380183Y-81400986D01*
X117161908Y-81485649D01*
X116931353Y-81526303D01*
X116697285Y-81521400D01*
X116468629Y-81471126D01*
X116254092Y-81377398D01*
X116061854Y-81243789D01*
X115899218Y-81075374D01*
X115772396Y-80878585D01*
X115686210Y-80660904D01*
X115643949Y-80430640D01*
X115647217Y-80196546D01*
X115695894Y-79967543D01*
X115788121Y-79752359D01*
X115920390Y-79559186D01*
X116087658Y-79395384D01*
X116283561Y-79267189D01*
X116500631Y-79179487D01*
X116730597Y-79135619D01*
X116964714Y-79137253D01*
X116964714Y-79137253D01*
G37*
G36*
X138963104Y-80209046D02*
X138963110Y-80209047D01*
X138965160Y-80209061D01*
X139086611Y-80222684D01*
X139203103Y-80259637D01*
X139310199Y-80318514D01*
X139403820Y-80397071D01*
X139480399Y-80492316D01*
X139537020Y-80600621D01*
X139571525Y-80717862D01*
X139571528Y-80717896D01*
X139571531Y-80717906D01*
X139582604Y-80839569D01*
X139569833Y-80961068D01*
X139569831Y-80961073D01*
X139569827Y-80961115D01*
X139533688Y-81077862D01*
X139475560Y-81185367D01*
X139397659Y-81279533D01*
X139302951Y-81356775D01*
X139195043Y-81414151D01*
X139078047Y-81449474D01*
X138956417Y-81461400D01*
X137543549Y-81461400D01*
X137536896Y-81461354D01*
X137536890Y-81461353D01*
X137534840Y-81461339D01*
X137413389Y-81447716D01*
X137296897Y-81410763D01*
X137189801Y-81351886D01*
X137096180Y-81273329D01*
X137019601Y-81178084D01*
X136962980Y-81069779D01*
X136928475Y-80952538D01*
X136928472Y-80952504D01*
X136928469Y-80952494D01*
X136917396Y-80830831D01*
X136930167Y-80709332D01*
X136930169Y-80709327D01*
X136930173Y-80709285D01*
X136966312Y-80592538D01*
X137024440Y-80485033D01*
X137102341Y-80390867D01*
X137197049Y-80313625D01*
X137304957Y-80256249D01*
X137421953Y-80220926D01*
X137543583Y-80209000D01*
X138956451Y-80209000D01*
X138963104Y-80209046D01*
X138963104Y-80209046D01*
G37*
G36*
X123563104Y-80209046D02*
X123563110Y-80209047D01*
X123565160Y-80209061D01*
X123686611Y-80222684D01*
X123803103Y-80259637D01*
X123910199Y-80318514D01*
X124003820Y-80397071D01*
X124080399Y-80492316D01*
X124137020Y-80600621D01*
X124171525Y-80717862D01*
X124171528Y-80717896D01*
X124171531Y-80717906D01*
X124182604Y-80839569D01*
X124169833Y-80961068D01*
X124169831Y-80961073D01*
X124169827Y-80961115D01*
X124133688Y-81077862D01*
X124075560Y-81185367D01*
X123997659Y-81279533D01*
X123902951Y-81356775D01*
X123795043Y-81414151D01*
X123678047Y-81449474D01*
X123556417Y-81461400D01*
X122143549Y-81461400D01*
X122136896Y-81461354D01*
X122136890Y-81461353D01*
X122134840Y-81461339D01*
X122013389Y-81447716D01*
X121896897Y-81410763D01*
X121789801Y-81351886D01*
X121696180Y-81273329D01*
X121619601Y-81178084D01*
X121562980Y-81069779D01*
X121528475Y-80952538D01*
X121528472Y-80952504D01*
X121528469Y-80952494D01*
X121517396Y-80830831D01*
X121530167Y-80709332D01*
X121530169Y-80709327D01*
X121530173Y-80709285D01*
X121566312Y-80592538D01*
X121624440Y-80485033D01*
X121702341Y-80390867D01*
X121797049Y-80313625D01*
X121904957Y-80256249D01*
X122021953Y-80220926D01*
X122143583Y-80209000D01*
X123556451Y-80209000D01*
X123563104Y-80209046D01*
X123563104Y-80209046D01*
G37*
G36*
X143920200Y-81327900D02*
X142467800Y-81327900D01*
X142467800Y-80475500D01*
X143920200Y-80475500D01*
X143920200Y-81327900D01*
X143920200Y-81327900D01*
G37*
G36*
X138963104Y-78209046D02*
X138963110Y-78209047D01*
X138965160Y-78209061D01*
X139086611Y-78222684D01*
X139203103Y-78259637D01*
X139310199Y-78318514D01*
X139403820Y-78397071D01*
X139480399Y-78492316D01*
X139537020Y-78600621D01*
X139571525Y-78717862D01*
X139571528Y-78717896D01*
X139571531Y-78717906D01*
X139582604Y-78839569D01*
X139569833Y-78961068D01*
X139569831Y-78961073D01*
X139569827Y-78961115D01*
X139533688Y-79077862D01*
X139475560Y-79185367D01*
X139397659Y-79279533D01*
X139302951Y-79356775D01*
X139195043Y-79414151D01*
X139078047Y-79449474D01*
X138956417Y-79461400D01*
X137543549Y-79461400D01*
X137536896Y-79461354D01*
X137536890Y-79461353D01*
X137534840Y-79461339D01*
X137413389Y-79447716D01*
X137296897Y-79410763D01*
X137189801Y-79351886D01*
X137096180Y-79273329D01*
X137019601Y-79178084D01*
X136962980Y-79069779D01*
X136928475Y-78952538D01*
X136928472Y-78952504D01*
X136928469Y-78952494D01*
X136917396Y-78830831D01*
X136930167Y-78709332D01*
X136930169Y-78709327D01*
X136930173Y-78709285D01*
X136966312Y-78592538D01*
X137024440Y-78485033D01*
X137102341Y-78390867D01*
X137197049Y-78313625D01*
X137304957Y-78256249D01*
X137421953Y-78220926D01*
X137543583Y-78209000D01*
X138956451Y-78209000D01*
X138963104Y-78209046D01*
X138963104Y-78209046D01*
G37*
G36*
X123663104Y-78209046D02*
X123663110Y-78209047D01*
X123665160Y-78209061D01*
X123786611Y-78222684D01*
X123903103Y-78259637D01*
X124010199Y-78318514D01*
X124103820Y-78397071D01*
X124180399Y-78492316D01*
X124237020Y-78600621D01*
X124271525Y-78717862D01*
X124271528Y-78717896D01*
X124271531Y-78717906D01*
X124282604Y-78839569D01*
X124269833Y-78961068D01*
X124269831Y-78961073D01*
X124269827Y-78961115D01*
X124233688Y-79077862D01*
X124175560Y-79185367D01*
X124097659Y-79279533D01*
X124002951Y-79356775D01*
X123895043Y-79414151D01*
X123778047Y-79449474D01*
X123656417Y-79461400D01*
X122243549Y-79461400D01*
X122236896Y-79461354D01*
X122236890Y-79461353D01*
X122234840Y-79461339D01*
X122113389Y-79447716D01*
X121996897Y-79410763D01*
X121889801Y-79351886D01*
X121796180Y-79273329D01*
X121719601Y-79178084D01*
X121662980Y-79069779D01*
X121628475Y-78952538D01*
X121628472Y-78952504D01*
X121628469Y-78952494D01*
X121617396Y-78830831D01*
X121630167Y-78709332D01*
X121630169Y-78709327D01*
X121630173Y-78709285D01*
X121666312Y-78592538D01*
X121724440Y-78485033D01*
X121802341Y-78390867D01*
X121897049Y-78313625D01*
X122004957Y-78256249D01*
X122121953Y-78220926D01*
X122243583Y-78209000D01*
X123656451Y-78209000D01*
X123663104Y-78209046D01*
X123663104Y-78209046D01*
G37*
G36*
X123563104Y-76209046D02*
X123563110Y-76209047D01*
X123565160Y-76209061D01*
X123686611Y-76222684D01*
X123803103Y-76259637D01*
X123910199Y-76318514D01*
X124003820Y-76397071D01*
X124080399Y-76492316D01*
X124137020Y-76600621D01*
X124171525Y-76717862D01*
X124171528Y-76717896D01*
X124171531Y-76717906D01*
X124182604Y-76839569D01*
X124169833Y-76961068D01*
X124169831Y-76961073D01*
X124169827Y-76961115D01*
X124133688Y-77077862D01*
X124075560Y-77185367D01*
X123997659Y-77279533D01*
X123902951Y-77356775D01*
X123795043Y-77414151D01*
X123678047Y-77449474D01*
X123556417Y-77461400D01*
X122143549Y-77461400D01*
X122136896Y-77461354D01*
X122136890Y-77461353D01*
X122134840Y-77461339D01*
X122013389Y-77447716D01*
X121896897Y-77410763D01*
X121789801Y-77351886D01*
X121696180Y-77273329D01*
X121619601Y-77178084D01*
X121562980Y-77069779D01*
X121528475Y-76952538D01*
X121528472Y-76952504D01*
X121528469Y-76952494D01*
X121517396Y-76830831D01*
X121530167Y-76709332D01*
X121530169Y-76709327D01*
X121530173Y-76709285D01*
X121566312Y-76592538D01*
X121624440Y-76485033D01*
X121702341Y-76390867D01*
X121797049Y-76313625D01*
X121904957Y-76256249D01*
X122021953Y-76220926D01*
X122143583Y-76209000D01*
X123556451Y-76209000D01*
X123563104Y-76209046D01*
X123563104Y-76209046D01*
G37*
G36*
X138963104Y-76209046D02*
X138963110Y-76209047D01*
X138965160Y-76209061D01*
X139086611Y-76222684D01*
X139203103Y-76259637D01*
X139310199Y-76318514D01*
X139403820Y-76397071D01*
X139480399Y-76492316D01*
X139537020Y-76600621D01*
X139571525Y-76717862D01*
X139571528Y-76717896D01*
X139571531Y-76717906D01*
X139582604Y-76839569D01*
X139569833Y-76961068D01*
X139569831Y-76961073D01*
X139569827Y-76961115D01*
X139533688Y-77077862D01*
X139475560Y-77185367D01*
X139397659Y-77279533D01*
X139302951Y-77356775D01*
X139195043Y-77414151D01*
X139078047Y-77449474D01*
X138956417Y-77461400D01*
X137543549Y-77461400D01*
X137536896Y-77461354D01*
X137536890Y-77461353D01*
X137534840Y-77461339D01*
X137413389Y-77447716D01*
X137296897Y-77410763D01*
X137189801Y-77351886D01*
X137096180Y-77273329D01*
X137019601Y-77178084D01*
X136962980Y-77069779D01*
X136928475Y-76952538D01*
X136928472Y-76952504D01*
X136928469Y-76952494D01*
X136917396Y-76830831D01*
X136930167Y-76709332D01*
X136930169Y-76709327D01*
X136930173Y-76709285D01*
X136966312Y-76592538D01*
X137024440Y-76485033D01*
X137102341Y-76390867D01*
X137197049Y-76313625D01*
X137304957Y-76256249D01*
X137421953Y-76220926D01*
X137543583Y-76209000D01*
X138956451Y-76209000D01*
X138963104Y-76209046D01*
X138963104Y-76209046D01*
G37*
G36*
X118048200Y-76674700D02*
X116595800Y-76674700D01*
X116595800Y-75822300D01*
X118048200Y-75822300D01*
X118048200Y-76674700D01*
X118048200Y-76674700D01*
G37*
G36*
X123563104Y-74209046D02*
X123563110Y-74209047D01*
X123565160Y-74209061D01*
X123686611Y-74222684D01*
X123803103Y-74259637D01*
X123910199Y-74318514D01*
X124003820Y-74397071D01*
X124080399Y-74492316D01*
X124137020Y-74600621D01*
X124171525Y-74717862D01*
X124171528Y-74717896D01*
X124171531Y-74717906D01*
X124182604Y-74839569D01*
X124169833Y-74961068D01*
X124169831Y-74961073D01*
X124169827Y-74961115D01*
X124133688Y-75077862D01*
X124075560Y-75185367D01*
X123997659Y-75279533D01*
X123902951Y-75356775D01*
X123795043Y-75414151D01*
X123678047Y-75449474D01*
X123556417Y-75461400D01*
X122143549Y-75461400D01*
X122136896Y-75461354D01*
X122136890Y-75461353D01*
X122134840Y-75461339D01*
X122013389Y-75447716D01*
X121896897Y-75410763D01*
X121789801Y-75351886D01*
X121696180Y-75273329D01*
X121619601Y-75178084D01*
X121562980Y-75069779D01*
X121528475Y-74952538D01*
X121528472Y-74952504D01*
X121528469Y-74952494D01*
X121517396Y-74830831D01*
X121530167Y-74709332D01*
X121530169Y-74709327D01*
X121530173Y-74709285D01*
X121566312Y-74592538D01*
X121624440Y-74485033D01*
X121702341Y-74390867D01*
X121797049Y-74313625D01*
X121904957Y-74256249D01*
X122021953Y-74220926D01*
X122143583Y-74209000D01*
X123556451Y-74209000D01*
X123563104Y-74209046D01*
X123563104Y-74209046D01*
G37*
G36*
X138963104Y-74209046D02*
X138963110Y-74209047D01*
X138965160Y-74209061D01*
X139086611Y-74222684D01*
X139203103Y-74259637D01*
X139310199Y-74318514D01*
X139403820Y-74397071D01*
X139480399Y-74492316D01*
X139537020Y-74600621D01*
X139571525Y-74717862D01*
X139571528Y-74717896D01*
X139571531Y-74717906D01*
X139582604Y-74839569D01*
X139569833Y-74961068D01*
X139569831Y-74961073D01*
X139569827Y-74961115D01*
X139533688Y-75077862D01*
X139475560Y-75185367D01*
X139397659Y-75279533D01*
X139302951Y-75356775D01*
X139195043Y-75414151D01*
X139078047Y-75449474D01*
X138956417Y-75461400D01*
X137543549Y-75461400D01*
X137536896Y-75461354D01*
X137536890Y-75461353D01*
X137534840Y-75461339D01*
X137413389Y-75447716D01*
X137296897Y-75410763D01*
X137189801Y-75351886D01*
X137096180Y-75273329D01*
X137019601Y-75178084D01*
X136962980Y-75069779D01*
X136928475Y-74952538D01*
X136928472Y-74952504D01*
X136928469Y-74952494D01*
X136917396Y-74830831D01*
X136930167Y-74709332D01*
X136930169Y-74709327D01*
X136930173Y-74709285D01*
X136966312Y-74592538D01*
X137024440Y-74485033D01*
X137102341Y-74390867D01*
X137197049Y-74313625D01*
X137304957Y-74256249D01*
X137421953Y-74220926D01*
X137543583Y-74209000D01*
X138956451Y-74209000D01*
X138963104Y-74209046D01*
X138963104Y-74209046D01*
G37*
G36*
X118048200Y-74774700D02*
X116595800Y-74774700D01*
X116595800Y-73922300D01*
X118048200Y-73922300D01*
X118048200Y-74774700D01*
X118048200Y-74774700D01*
G37*
G36*
X123563104Y-72209046D02*
X123563110Y-72209047D01*
X123565160Y-72209061D01*
X123686611Y-72222684D01*
X123803103Y-72259637D01*
X123910199Y-72318514D01*
X124003820Y-72397071D01*
X124080399Y-72492316D01*
X124137020Y-72600621D01*
X124171525Y-72717862D01*
X124171528Y-72717896D01*
X124171531Y-72717906D01*
X124182604Y-72839569D01*
X124169833Y-72961068D01*
X124169831Y-72961073D01*
X124169827Y-72961115D01*
X124133688Y-73077862D01*
X124075560Y-73185367D01*
X123997659Y-73279533D01*
X123902951Y-73356775D01*
X123795043Y-73414151D01*
X123678047Y-73449474D01*
X123556417Y-73461400D01*
X122143549Y-73461400D01*
X122136896Y-73461354D01*
X122136890Y-73461353D01*
X122134840Y-73461339D01*
X122013389Y-73447716D01*
X121896897Y-73410763D01*
X121789801Y-73351886D01*
X121696180Y-73273329D01*
X121619601Y-73178084D01*
X121562980Y-73069779D01*
X121528475Y-72952538D01*
X121528472Y-72952504D01*
X121528469Y-72952494D01*
X121517396Y-72830831D01*
X121530167Y-72709332D01*
X121530169Y-72709327D01*
X121530173Y-72709285D01*
X121566312Y-72592538D01*
X121624440Y-72485033D01*
X121702341Y-72390867D01*
X121797049Y-72313625D01*
X121904957Y-72256249D01*
X122021953Y-72220926D01*
X122143583Y-72209000D01*
X123556451Y-72209000D01*
X123563104Y-72209046D01*
X123563104Y-72209046D01*
G37*
G36*
X138963104Y-72209046D02*
X138963110Y-72209047D01*
X138965160Y-72209061D01*
X139086611Y-72222684D01*
X139203103Y-72259637D01*
X139310199Y-72318514D01*
X139403820Y-72397071D01*
X139480399Y-72492316D01*
X139537020Y-72600621D01*
X139571525Y-72717862D01*
X139571528Y-72717896D01*
X139571531Y-72717906D01*
X139582604Y-72839569D01*
X139569833Y-72961068D01*
X139569831Y-72961073D01*
X139569827Y-72961115D01*
X139533688Y-73077862D01*
X139475560Y-73185367D01*
X139397659Y-73279533D01*
X139302951Y-73356775D01*
X139195043Y-73414151D01*
X139078047Y-73449474D01*
X138956417Y-73461400D01*
X137543549Y-73461400D01*
X137536896Y-73461354D01*
X137536890Y-73461353D01*
X137534840Y-73461339D01*
X137413389Y-73447716D01*
X137296897Y-73410763D01*
X137189801Y-73351886D01*
X137096180Y-73273329D01*
X137019601Y-73178084D01*
X136962980Y-73069779D01*
X136928475Y-72952538D01*
X136928472Y-72952504D01*
X136928469Y-72952494D01*
X136917396Y-72830831D01*
X136930167Y-72709332D01*
X136930169Y-72709327D01*
X136930173Y-72709285D01*
X136966312Y-72592538D01*
X137024440Y-72485033D01*
X137102341Y-72390867D01*
X137197049Y-72313625D01*
X137304957Y-72256249D01*
X137421953Y-72220926D01*
X137543583Y-72209000D01*
X138956451Y-72209000D01*
X138963104Y-72209046D01*
X138963104Y-72209046D01*
G37*
G36*
X116565200Y-72803800D02*
X115112800Y-72803800D01*
X115112800Y-71951400D01*
X116565200Y-71951400D01*
X116565200Y-72803800D01*
X116565200Y-72803800D01*
G37*
G36*
X144540320Y-72752960D02*
X143087920Y-72752960D01*
X143087920Y-71900560D01*
X144540320Y-71900560D01*
X144540320Y-72752960D01*
X144540320Y-72752960D01*
G37*
G36*
X123563104Y-70209046D02*
X123563110Y-70209047D01*
X123565160Y-70209061D01*
X123686611Y-70222684D01*
X123803103Y-70259637D01*
X123910199Y-70318514D01*
X124003820Y-70397071D01*
X124080399Y-70492316D01*
X124137020Y-70600621D01*
X124171525Y-70717862D01*
X124171528Y-70717896D01*
X124171531Y-70717906D01*
X124182604Y-70839569D01*
X124169833Y-70961068D01*
X124169831Y-70961073D01*
X124169827Y-70961115D01*
X124133688Y-71077862D01*
X124075560Y-71185367D01*
X123997659Y-71279533D01*
X123902951Y-71356775D01*
X123795043Y-71414151D01*
X123678047Y-71449474D01*
X123556417Y-71461400D01*
X122143549Y-71461400D01*
X122136896Y-71461354D01*
X122136890Y-71461353D01*
X122134840Y-71461339D01*
X122013389Y-71447716D01*
X121896897Y-71410763D01*
X121789801Y-71351886D01*
X121696180Y-71273329D01*
X121619601Y-71178084D01*
X121562980Y-71069779D01*
X121528475Y-70952538D01*
X121528472Y-70952504D01*
X121528469Y-70952494D01*
X121517396Y-70830831D01*
X121530167Y-70709332D01*
X121530169Y-70709327D01*
X121530173Y-70709285D01*
X121566312Y-70592538D01*
X121624440Y-70485033D01*
X121702341Y-70390867D01*
X121797049Y-70313625D01*
X121904957Y-70256249D01*
X122021953Y-70220926D01*
X122143583Y-70209000D01*
X123556451Y-70209000D01*
X123563104Y-70209046D01*
X123563104Y-70209046D01*
G37*
G36*
X138963104Y-70209046D02*
X138963110Y-70209047D01*
X138965160Y-70209061D01*
X139086611Y-70222684D01*
X139203103Y-70259637D01*
X139310199Y-70318514D01*
X139403820Y-70397071D01*
X139480399Y-70492316D01*
X139537020Y-70600621D01*
X139571525Y-70717862D01*
X139571528Y-70717896D01*
X139571531Y-70717906D01*
X139582604Y-70839569D01*
X139569833Y-70961068D01*
X139569831Y-70961073D01*
X139569827Y-70961115D01*
X139533688Y-71077862D01*
X139475560Y-71185367D01*
X139397659Y-71279533D01*
X139302951Y-71356775D01*
X139195043Y-71414151D01*
X139078047Y-71449474D01*
X138956417Y-71461400D01*
X137543549Y-71461400D01*
X137536896Y-71461354D01*
X137536890Y-71461353D01*
X137534840Y-71461339D01*
X137413389Y-71447716D01*
X137296897Y-71410763D01*
X137189801Y-71351886D01*
X137096180Y-71273329D01*
X137019601Y-71178084D01*
X136962980Y-71069779D01*
X136928475Y-70952538D01*
X136928472Y-70952504D01*
X136928469Y-70952494D01*
X136917396Y-70830831D01*
X136930167Y-70709332D01*
X136930169Y-70709327D01*
X136930173Y-70709285D01*
X136966312Y-70592538D01*
X137024440Y-70485033D01*
X137102341Y-70390867D01*
X137197049Y-70313625D01*
X137304957Y-70256249D01*
X137421953Y-70220926D01*
X137543583Y-70209000D01*
X138956451Y-70209000D01*
X138963104Y-70209046D01*
X138963104Y-70209046D01*
G37*
G36*
X147538200Y-71281600D02*
X146135800Y-71281600D01*
X146135800Y-70129200D01*
X147538200Y-70129200D01*
X147538200Y-71281600D01*
X147538200Y-71281600D01*
G37*
G36*
X113684200Y-71234000D02*
X112231800Y-71234000D01*
X112231800Y-70381600D01*
X113684200Y-70381600D01*
X113684200Y-71234000D01*
X113684200Y-71234000D01*
G37*
G36*
X116565200Y-70903800D02*
X115112800Y-70903800D01*
X115112800Y-70051400D01*
X116565200Y-70051400D01*
X116565200Y-70903800D01*
X116565200Y-70903800D01*
G37*
G36*
X144540320Y-70852960D02*
X143087920Y-70852960D01*
X143087920Y-70000560D01*
X144540320Y-70000560D01*
X144540320Y-70852960D01*
X144540320Y-70852960D01*
G37*
G36*
X138963104Y-68209046D02*
X138963110Y-68209047D01*
X138965160Y-68209061D01*
X139086611Y-68222684D01*
X139203103Y-68259637D01*
X139310199Y-68318514D01*
X139403820Y-68397071D01*
X139480399Y-68492316D01*
X139537020Y-68600621D01*
X139571525Y-68717862D01*
X139571528Y-68717896D01*
X139571531Y-68717906D01*
X139582604Y-68839569D01*
X139569833Y-68961068D01*
X139569831Y-68961073D01*
X139569827Y-68961115D01*
X139533688Y-69077862D01*
X139475560Y-69185367D01*
X139397659Y-69279533D01*
X139302951Y-69356775D01*
X139195043Y-69414151D01*
X139078047Y-69449474D01*
X138956417Y-69461400D01*
X137543549Y-69461400D01*
X137536896Y-69461354D01*
X137536890Y-69461353D01*
X137534840Y-69461339D01*
X137413389Y-69447716D01*
X137296897Y-69410763D01*
X137189801Y-69351886D01*
X137096180Y-69273329D01*
X137019601Y-69178084D01*
X136962980Y-69069779D01*
X136928475Y-68952538D01*
X136928472Y-68952504D01*
X136928469Y-68952494D01*
X136917396Y-68830831D01*
X136930167Y-68709332D01*
X136930169Y-68709327D01*
X136930173Y-68709285D01*
X136966312Y-68592538D01*
X137024440Y-68485033D01*
X137102341Y-68390867D01*
X137197049Y-68313625D01*
X137304957Y-68256249D01*
X137421953Y-68220926D01*
X137543583Y-68209000D01*
X138956451Y-68209000D01*
X138963104Y-68209046D01*
X138963104Y-68209046D01*
G37*
G36*
X123563104Y-68209046D02*
X123563110Y-68209047D01*
X123565160Y-68209061D01*
X123686611Y-68222684D01*
X123803103Y-68259637D01*
X123910199Y-68318514D01*
X124003820Y-68397071D01*
X124080399Y-68492316D01*
X124137020Y-68600621D01*
X124171525Y-68717862D01*
X124171528Y-68717896D01*
X124171531Y-68717906D01*
X124182604Y-68839569D01*
X124169833Y-68961068D01*
X124169831Y-68961073D01*
X124169827Y-68961115D01*
X124133688Y-69077862D01*
X124075560Y-69185367D01*
X123997659Y-69279533D01*
X123902951Y-69356775D01*
X123795043Y-69414151D01*
X123678047Y-69449474D01*
X123556417Y-69461400D01*
X122143549Y-69461400D01*
X122136896Y-69461354D01*
X122136890Y-69461353D01*
X122134840Y-69461339D01*
X122013389Y-69447716D01*
X121896897Y-69410763D01*
X121789801Y-69351886D01*
X121696180Y-69273329D01*
X121619601Y-69178084D01*
X121562980Y-69069779D01*
X121528475Y-68952538D01*
X121528472Y-68952504D01*
X121528469Y-68952494D01*
X121517396Y-68830831D01*
X121530167Y-68709332D01*
X121530169Y-68709327D01*
X121530173Y-68709285D01*
X121566312Y-68592538D01*
X121624440Y-68485033D01*
X121702341Y-68390867D01*
X121797049Y-68313625D01*
X121904957Y-68256249D01*
X122021953Y-68220926D01*
X122143583Y-68209000D01*
X123556451Y-68209000D01*
X123563104Y-68209046D01*
X123563104Y-68209046D01*
G37*
G36*
X113684200Y-69334000D02*
X112231800Y-69334000D01*
X112231800Y-68481600D01*
X113684200Y-68481600D01*
X113684200Y-69334000D01*
X113684200Y-69334000D01*
G37*
G36*
X147538200Y-69281600D02*
X146135800Y-69281600D01*
X146135800Y-68129200D01*
X147538200Y-68129200D01*
X147538200Y-69281600D01*
X147538200Y-69281600D01*
G37*
G36*
X139576200Y-67461400D02*
X136923800Y-67461400D01*
X136923800Y-66209000D01*
X139576200Y-66209000D01*
X139576200Y-67461400D01*
X139576200Y-67461400D01*
G37*
G36*
X123563104Y-66209046D02*
X123563110Y-66209047D01*
X123565160Y-66209061D01*
X123686611Y-66222684D01*
X123803103Y-66259637D01*
X123910199Y-66318514D01*
X124003820Y-66397071D01*
X124080399Y-66492316D01*
X124137020Y-66600621D01*
X124171525Y-66717862D01*
X124171528Y-66717896D01*
X124171531Y-66717906D01*
X124182604Y-66839569D01*
X124169833Y-66961068D01*
X124169831Y-66961073D01*
X124169827Y-66961115D01*
X124133688Y-67077862D01*
X124075560Y-67185367D01*
X123997659Y-67279533D01*
X123902951Y-67356775D01*
X123795043Y-67414151D01*
X123678047Y-67449474D01*
X123556417Y-67461400D01*
X122143549Y-67461400D01*
X122136896Y-67461354D01*
X122136890Y-67461353D01*
X122134840Y-67461339D01*
X122013389Y-67447716D01*
X121896897Y-67410763D01*
X121789801Y-67351886D01*
X121696180Y-67273329D01*
X121619601Y-67178084D01*
X121562980Y-67069779D01*
X121528475Y-66952538D01*
X121528472Y-66952504D01*
X121528469Y-66952494D01*
X121517396Y-66830831D01*
X121530167Y-66709332D01*
X121530169Y-66709327D01*
X121530173Y-66709285D01*
X121566312Y-66592538D01*
X121624440Y-66485033D01*
X121702341Y-66390867D01*
X121797049Y-66313625D01*
X121904957Y-66256249D01*
X122021953Y-66220926D01*
X122143583Y-66209000D01*
X123556451Y-66209000D01*
X123563104Y-66209046D01*
X123563104Y-66209046D01*
G37*
G36*
X130817103Y-43453013D02*
X131369628Y-43566431D01*
X131889613Y-43785012D01*
X132357233Y-44100426D01*
X132754683Y-44500660D01*
X133066823Y-44970470D01*
X133281767Y-45491961D01*
X133391256Y-46044925D01*
X133391256Y-46044930D01*
X133391324Y-46045274D01*
X133382328Y-46689528D01*
X133382251Y-46689866D01*
X133382251Y-46689874D01*
X133257364Y-47239566D01*
X133027945Y-47754850D01*
X132702806Y-48215763D01*
X132294335Y-48604745D01*
X131818090Y-48906979D01*
X131292208Y-49110955D01*
X130736729Y-49208902D01*
X130172799Y-49197088D01*
X129621903Y-49075966D01*
X129105025Y-48850148D01*
X128641858Y-48528238D01*
X128250034Y-48122493D01*
X127944481Y-47648368D01*
X127736838Y-47123920D01*
X127635017Y-46569141D01*
X127642892Y-46005143D01*
X127760166Y-45453414D01*
X127982368Y-44934975D01*
X128301040Y-44469567D01*
X128704039Y-44074921D01*
X129176020Y-43766066D01*
X129699001Y-43554767D01*
X130253059Y-43449076D01*
X130817103Y-43453013D01*
X130817103Y-43453013D01*
G37*
M02*
