M48
;DRILL file {KiCad no-vcs-found-b8c621a~59~ubuntu16.04.1} date Mon Aug  7 13:11:39 2017
;FORMAT={-:-/ absolute / inch / decimal}
FMAT,2
INCH,TZ
T1C0.013
T2C0.016
T3C0.040
T4C0.126
%
G90
G05
M72
T1
X4.356Y-2.7461
X4.6035Y-2.5446
X4.641Y-2.7726
X4.6847Y-2.6486
X4.689Y-2.5571
X4.7256Y-3.8321
X4.8195Y-3.851
X4.824Y-3.9041
X4.8841Y-3.8732
X4.8895Y-3.2945
X4.9125Y-2.8305
X4.9205Y-2.7746
X4.9547Y-3.0538
X4.9547Y-3.488
X4.965Y-2.2601
X4.9886Y-3.1062
X4.9937Y-2.7939
X5.0357Y-3.2418
X5.0515Y-2.1424
X5.053Y-3.1806
X5.0659Y-3.4839
X5.122Y-1.9866
X5.132Y-3.5421
X5.1439Y-2.8006
X5.2009Y-2.1424
X5.2221Y-3.4187
X5.2346Y-3.8732
X5.274Y-3.5255
X5.3345Y-3.6012
X5.3375Y-3.4822
X5.347Y-3.5706
X5.3635Y-3.6695
X5.3755Y-3.3831
X5.3795Y-4.0072
X5.4245Y-3.277
X5.4255Y-3.3341
X5.428Y-3.3786
X5.443Y-3.2415
X5.4483Y-3.7696
X5.4595Y-3.6405
X5.4976Y-3.7857
X5.5001Y-3.8318
X5.5005Y-3.241
X5.5036Y-3.0574
X5.5073Y-3.1339
X5.5073Y-2.9809
X5.5259Y-2.2057
X5.5285Y-3.8531
X5.5445Y-3.9571
X5.5459Y-2.7376
X5.56Y-2.5331
X5.5725Y-3.1196
X5.577Y-3.2046
X5.5835Y-2.8465
X5.6565Y-2.2121
X5.6755Y-3.8825
X5.7224Y-2.7705
X5.811Y-2.8535
T2
X5.3078Y-3.3777
X5.5118Y-2.9069
X5.5524Y-2.7829
T3
X5.5373Y-3.6063
X4.684Y-3.7055
X4.4852Y-4.0119
X4.6415Y-3.3096
X5.4669Y-3.5073
X5.7582Y-3.8967
X5.6091Y-3.7041
X4.6246Y-3.8111
X5.6813Y-3.802
X5.9196Y-4.0774
X4.7398Y-3.5973
X4.5596Y-3.9149
X4.7936Y-3.4887
X5.8357Y-3.9892
X4.6Y-3.1626
T4
X5.1384Y-1.8239
T0
M30
