<?xml version="1.0" standalone="no"?>
 <!DOCTYPE svg PUBLIC "-//W3C//DTD SVG 1.1//EN" 
 "http://www.w3.org/Graphics/SVG/1.1/DTD/svg11.dtd"> 
<svg xmlns="http://www.w3.org/2000/svg" version="1.1" 
    width="27.94cm" height="21.59cm" viewBox="0 0 110000 85000 ">
<title>SVG Picture created as 001-F.Mask.svg date 2018/03/02 20:01:40 </title>
  <desc>Picture generated by PCBNEW </desc>
<g style="fill:#000000; fill-opacity:1;stroke:#000000; stroke-opacity:1;
stroke-linecap:round; stroke-linejoin:round; "
 transform="translate(0 0) scale(1 1)">
</g>
<g style="fill:#000000; fill-opacity:0.0; 
stroke:#000000; stroke-width:-0.000393701; stroke-opacity:1; 
stroke-linecap:round; stroke-linejoin:round;">
</g>
<g style="fill:#000000; fill-opacity:1.0; 
stroke:#000000; stroke-width:0; stroke-opacity:1; 
stroke-linecap:round; stroke-linejoin:round;">
<polyline style="fill-rule:evenodd;"
points="52001,53255
52096,53294
52182,53351
52255,53424
52312,53509
52351,53604
52371,53705
52371,53808
52351,53909
52312,54004
52255,54089
52182,54162
52096,54219
52001,54259
51901,54279
51798,54279
51697,54259
51602,54219
51516,54162
51444,54089
51386,54004
51347,53909
51327,53808
51327,53705
51347,53604
51386,53509
51444,53424
51516,53351
51602,53294
51697,53255
51798,53234
51901,53234
52001,53255
" /> 
<polyline style="fill-rule:evenodd;"
points="43886,52206
43981,52246
44066,52303
44139,52376
44196,52461
44235,52556
44255,52657
44255,52760
44235,52861
44196,52956
44139,53041
44066,53114
43981,53171
43886,53211
43785,53231
43682,53231
43581,53211
43486,53171
43401,53114
43328,53041
43271,52956
43231,52861
43211,52760
43211,52657
43231,52556
43271,52461
43328,52376
43401,52303
43486,52246
43581,52206
43682,52186
43785,52186
43886,52206
" /> 
<polyline style="fill-rule:evenodd;"
points="51660,48790
51755,48830
51840,48887
51913,48960
51970,49045
52009,49140
52030,49241
52030,49344
52009,49445
51970,49540
51913,49625
51840,49698
51755,49755
51660,49794
51559,49815
51456,49815
51355,49794
51260,49755
51175,49698
51102,49625
51045,49540
51005,49445
50985,49344
50985,49241
51005,49140
51045,49045
51102,48960
51175,48887
51260,48830
51355,48790
51456,48770
51559,48770
51660,48790
" /> 
<polyline style="fill-rule:evenodd;"
points="41129,47773
41224,47812
41310,47869
41383,47942
41440,48027
41479,48122
41499,48223
41499,48326
41479,48427
41440,48522
41383,48608
41310,48680
41224,48737
41129,48777
41028,48797
40926,48797
40825,48777
40730,48737
40644,48680
40571,48608
40514,48522
40475,48427
40455,48326
40455,48223
40475,48122
40514,48027
40571,47942
40644,47869
40730,47812
40825,47773
40926,47753
41028,47753
41129,47773
" /> 
<polyline style="fill-rule:evenodd;"
points="61877,45786
61972,45826
62058,45883
62131,45956
62188,46041
62227,46136
62247,46237
62247,46340
62227,46441
62188,46536
62131,46621
62058,46694
61972,46751
61877,46791
61777,46811
61674,46811
61573,46791
61478,46751
61392,46694
61320,46621
61262,46536
61223,46441
61203,46340
61203,46237
61223,46136
61262,46041
61320,45956
61392,45883
61478,45826
61573,45786
61674,45766
61777,45766
61877,45786
" /> 
<polyline style="fill-rule:evenodd;"
points="58736,45297
58831,45336
58916,45393
58989,45466
59046,45551
59085,45646
59105,45747
59105,45850
59085,45951
59046,46046
58989,46132
58916,46204
58831,46261
58736,46301
58635,46321
58532,46321
58431,46301
58336,46261
58251,46204
58178,46132
58121,46046
58081,45951
58061,45850
58061,45747
58081,45646
58121,45551
58178,45466
58251,45393
58336,45336
58431,45297
58532,45277
58635,45277
58736,45297
" /> 
<polyline style="fill-rule:evenodd;"
points="41486,44671
41581,44710
41666,44767
41739,44840
41796,44925
41835,45020
41855,45121
41855,45224
41835,45325
41796,45420
41739,45506
41666,45578
41581,45635
41486,45675
41385,45695
41282,45695
41181,45675
41086,45635
41001,45578
40928,45506
40871,45420
40831,45325
40811,45224
40811,45121
40831,45020
40871,44925
40928,44840
41001,44767
41086,44710
41181,44671
41282,44651
41385,44651
41486,44671
" /> 
<polyline style="fill-rule:evenodd;"
points="67036,40573
67131,40613
67217,40670
67290,40743
67347,40828
67386,40923
67406,41024
67406,41127
67386,41228
67347,41323
67290,41408
67217,41481
67131,41538
67036,41578
66936,41598
66833,41598
66732,41578
66637,41538
66551,41481
66479,41408
66421,41323
66382,41228
66362,41127
66362,41024
66382,40923
66421,40828
66479,40743
66551,40670
66637,40613
66732,40573
66833,40553
66936,40553
67036,40573
" /> 
<polyline style="fill-rule:evenodd;"
points="59287,40313
59333,40322
59418,40357
59418,40357
59495,40408
59561,40474
59612,40551
59648,40636
59666,40727
59666,40820
59648,40911
59612,40996
59561,41073
59495,41139
59418,41190
59418,41190
59418,41190
59333,41225
59287,41234
59242,41244
59149,41244
59104,41234
59058,41225
58973,41190
58973,41190
58973,41190
58896,41139
58830,41073
58779,40996
58744,40911
58726,40820
58726,40727
58744,40636
58779,40551
58830,40474
58896,40408
58973,40357
58973,40357
59058,40322
59104,40313
59149,40304
59242,40304
59287,40313
" /> 
<polyline style="fill-rule:evenodd;"
points="44943,39657
44988,39666
45074,39702
45074,39702
45151,39753
45216,39819
45268,39896
45285,39938
45303,39981
45321,40072
45321,40165
45316,40191
45303,40255
45303,40257
45268,40341
45216,40418
45151,40483
45074,40535
45074,40535
45074,40535
44988,40570
44943,40579
44897,40588
44805,40588
44759,40579
44714,40570
44628,40535
44628,40535
44628,40535
44551,40483
44486,40418
44435,40341
44400,40257
44399,40255
44386,40191
44381,40165
44381,40072
44399,39981
44417,39938
44435,39896
44486,39819
44551,39753
44628,39702
44628,39702
44714,39666
44759,39657
44805,39648
44897,39648
44943,39657
" /> 
<polyline style="fill-rule:evenodd;"
points="48827,40435
48413,40435
48413,39706
48827,39706
48827,40435
" /> 
<polyline style="fill-rule:evenodd;"
points="50166,40435
49751,40435
49751,39706
50166,39706
50166,40435
" /> 
<polyline style="fill-rule:evenodd;"
points="53371,40433
52957,40433
52957,39704
53371,39704
53371,40433
" /> 
<polyline style="fill-rule:evenodd;"
points="54710,40433
54295,40433
54295,39704
54710,39704
54710,40433
" /> 
<polyline style="fill-rule:evenodd;"
points="58449,39431
58494,39440
58580,39475
58580,39475
58637,39514
58657,39527
58722,39592
58773,39669
58808,39753
58809,39755
58822,39819
58827,39845
58827,39938
58809,40029
58773,40114
58773,40114
58722,40191
58657,40257
58580,40308
58580,40308
58580,40308
58494,40344
58449,40353
58403,40362
58311,40362
58265,40353
58220,40344
58134,40308
58134,40308
58134,40308
58057,40257
57992,40191
57940,40114
57940,40114
57905,40029
57887,39938
57887,39845
57892,39819
57905,39755
57906,39753
57940,39669
57992,39592
58057,39527
58077,39514
58134,39475
58134,39475
58220,39440
58265,39431
58311,39422
58403,39422
58449,39431
" /> 
<polyline style="fill-rule:evenodd;"
points="52304,40346
51653,40346
51653,39775
52304,39775
52304,40346
" /> 
<polyline style="fill-rule:evenodd;"
points="51437,40346
50787,40346
50787,39775
51437,39775
51437,40346
" /> 
<polyline style="fill-rule:evenodd;"
points="45687,38688
45732,38697
45818,38732
45818,38732
45895,38784
45960,38849
46012,38926
46047,39012
46065,39102
46065,39195
46047,39286
46012,39371
45960,39448
45895,39514
45818,39565
45818,39565
45818,39565
45732,39601
45687,39610
45641,39619
45549,39619
45503,39610
45458,39601
45373,39565
45373,39565
45373,39565
45296,39514
45230,39448
45179,39371
45143,39286
45125,39195
45125,39102
45143,39012
45179,38926
45230,38849
45296,38784
45373,38732
45373,38732
45458,38697
45503,38688
45549,38679
45641,38679
45687,38688
" /> 
<polyline style="fill-rule:evenodd;"
points="57673,38506
57718,38515
57804,38550
57804,38550
57881,38601
57946,38667
57998,38744
58033,38829
58051,38920
58051,39013
58033,39104
57998,39189
57946,39266
57881,39332
57804,39383
57804,39383
57804,39383
57718,39418
57673,39427
57628,39437
57535,39437
57490,39427
57444,39418
57359,39383
57359,39383
57359,39383
57282,39332
57216,39266
57165,39189
57129,39104
57111,39013
57111,38920
57129,38829
57165,38744
57216,38667
57282,38601
57359,38550
57359,38550
57444,38515
57490,38506
57535,38497
57628,38497
57673,38506
" /> 
<polyline style="fill-rule:evenodd;"
points="46337,37650
46382,37659
46468,37694
46468,37694
46545,37746
46610,37811
46658,37882
46662,37888
46697,37974
46715,38064
46715,38157
46698,38242
46697,38248
46662,38333
46610,38410
46545,38476
46468,38527
46468,38527
46468,38527
46382,38563
46337,38572
46291,38581
46199,38581
46153,38572
46108,38563
46023,38527
46023,38527
46023,38527
45946,38476
45880,38410
45829,38333
45793,38248
45792,38242
45775,38157
45775,38064
45793,37974
45829,37888
45832,37882
45880,37811
45946,37746
46023,37694
46023,37694
46108,37659
46153,37650
46199,37641
46291,37641
46337,37650
" /> 
<polyline style="fill-rule:evenodd;"
points="56904,37559
56949,37568
57035,37603
57035,37603
57112,37655
57177,37720
57194,37746
57229,37797
57264,37882
57282,37973
57282,38066
57264,38157
57264,38157
57229,38242
57177,38319
57112,38385
57035,38436
57035,38436
57035,38436
56949,38472
56904,38481
56858,38490
56766,38490
56720,38481
56675,38472
56589,38436
56589,38436
56589,38436
56512,38385
56447,38319
56396,38242
56360,38157
56360,38157
56342,38066
56342,37973
56360,37882
56396,37797
56430,37746
56447,37720
56512,37655
56589,37603
56589,37603
56675,37568
56720,37559
56766,37550
56858,37550
56904,37559
" /> 
<polyline style="fill-rule:evenodd;"
points="46931,36594
46976,36603
47028,36624
47062,36638
47139,36690
47204,36755
47246,36818
47256,36832
47285,36904
47291,36917
47306,36994
47309,37008
47309,37101
47291,37192
47262,37263
47256,37277
47204,37354
47139,37420
47062,37471
47062,37471
47062,37471
46976,37507
46931,37516
46886,37525
46793,37525
46748,37516
46702,37507
46617,37471
46617,37471
46617,37471
46540,37420
46474,37354
46423,37277
46417,37263
46387,37192
46369,37101
46369,37008
46372,36994
46387,36917
46393,36904
46423,36832
46432,36818
46474,36755
46540,36690
46617,36638
46650,36624
46702,36603
46748,36594
46793,36585
46886,36585
46931,36594
" /> 
<polyline style="fill-rule:evenodd;"
points="56182,36580
56227,36589
56313,36624
56313,36624
56390,36676
56455,36741
56464,36755
56507,36818
56542,36904
56551,36949
56560,36994
56560,37087
56551,37132
56542,37178
56536,37192
56507,37263
56455,37340
56390,37406
56313,37457
56313,37457
56313,37457
56227,37493
56182,37502
56136,37511
56044,37511
55998,37502
55953,37493
55867,37457
55867,37457
55867,37457
55790,37406
55725,37340
55674,37263
55644,37192
55638,37178
55629,37132
55620,37087
55620,36994
55629,36949
55638,36904
55674,36818
55716,36755
55725,36741
55790,36676
55867,36624
55867,36624
55953,36589
55998,36580
56044,36571
56136,36571
56182,36580
" /> 
<polyline style="fill-rule:evenodd;"
points="55464,35602
55509,35611
55595,35646
55595,35646
55672,35697
55737,35763
55789,35840
55824,35925
55842,36016
55842,36109
55824,36200
55794,36272
55789,36285
55737,36362
55672,36428
55595,36479
55595,36479
55595,36479
55509,36515
55464,36524
55419,36533
55326,36533
55281,36524
55235,36515
55150,36479
55150,36479
55150,36479
55073,36428
55007,36362
54956,36285
54950,36272
54920,36200
54902,36109
54902,36016
54920,35925
54956,35840
55007,35763
55073,35697
55150,35646
55150,35646
55235,35611
55281,35602
55326,35593
55419,35593
55464,35602
" /> 
<polyline style="fill-rule:evenodd;"
points="47489,35512
47534,35521
47620,35556
47620,35556
47697,35607
47762,35673
47779,35697
47814,35750
47819,35763
47849,35835
47867,35926
47867,36019
47849,36110
47814,36195
47762,36272
47697,36338
47620,36389
47620,36389
47620,36389
47534,36425
47489,36434
47443,36443
47351,36443
47305,36434
47260,36425
47175,36389
47175,36389
47175,36389
47098,36338
47032,36272
46981,36195
46945,36110
46927,36019
46927,35926
46945,35835
46975,35763
46981,35750
47016,35697
47032,35673
47098,35607
47175,35556
47175,35556
47260,35521
47305,35512
47351,35503
47443,35503
47489,35512
" /> 
<polyline style="fill-rule:evenodd;"
points="54760,34612
54805,34621
54891,34656
54891,34656
54968,34707
55033,34773
55078,34840
55085,34850
55120,34935
55138,35026
55138,35119
55120,35210
55085,35295
55085,35295
55033,35372
54968,35438
54891,35489
54891,35489
54891,35489
54805,35525
54760,35534
54715,35543
54622,35543
54577,35534
54531,35525
54446,35489
54446,35489
54446,35489
54369,35438
54303,35372
54252,35295
54252,35295
54216,35210
54198,35119
54198,35026
54216,34935
54252,34850
54258,34840
54303,34773
54369,34707
54446,34656
54446,34656
54531,34621
54577,34612
54622,34603
54715,34603
54760,34612
" /> 
<polyline style="fill-rule:evenodd;"
points="48027,34426
48072,34435
48158,34470
48158,34470
48235,34522
48300,34587
48352,34664
48387,34749
48405,34840
48405,34933
48387,35024
48386,35026
48352,35109
48300,35186
48235,35252
48158,35303
48158,35303
48158,35303
48072,35339
48027,35348
47982,35357
47889,35357
47844,35348
47798,35339
47713,35303
47713,35303
47713,35303
47636,35252
47570,35186
47519,35109
47484,35026
47483,35024
47465,34933
47465,34840
47483,34749
47519,34664
47570,34587
47636,34522
47713,34470
47713,34470
47798,34435
47844,34426
47889,34417
47982,34417
48027,34426
" /> 
<polyline style="fill-rule:evenodd;"
points="46543,32592
46589,32601
46674,32637
46674,32637
46751,32688
46817,32754
46868,32830
46903,32916
46921,33007
46921,33099
46903,33190
46868,33276
46817,33353
46751,33418
46674,33470
46674,33470
46674,33470
46589,33505
46543,33514
46498,33523
46405,33523
46360,33514
46314,33505
46229,33470
46229,33470
46229,33470
46152,33418
46086,33353
46035,33276
46000,33190
45981,33099
45981,33007
46000,32916
46035,32830
46086,32754
46152,32688
46229,32637
46229,32637
46314,32601
46360,32592
46405,32583
46498,32583
46543,32592
" /> 
<polyline style="fill-rule:evenodd;"
points="45681,31758
45726,31767
45812,31802
45812,31802
45889,31853
45954,31919
46006,31996
46041,32081
46059,32172
46059,32265
46041,32356
46006,32441
45954,32518
45889,32584
45812,32635
45812,32635
45812,32635
45726,32670
45681,32679
45636,32688
45543,32688
45498,32679
45452,32670
45367,32635
45367,32635
45367,32635
45290,32584
45224,32518
45173,32441
45137,32356
45119,32265
45119,32172
45137,32081
45173,31996
45224,31919
45290,31853
45367,31802
45367,31802
45452,31767
45498,31758
45543,31748
45636,31748
45681,31758
" /> 
<polyline style="fill-rule:evenodd;"
points="45984,28379
45215,28379
45215,27846
45984,27846
45984,28379
" /> 
<polyline style="fill-rule:evenodd;"
points="44064,28379
43295,28379
43295,27846
44064,27846
44064,28379
" /> 
<polyline style="fill-rule:evenodd;"
points="57012,28377
56243,28377
56243,27844
57012,27844
57012,28377
" /> 
<polyline style="fill-rule:evenodd;"
points="58932,28377
58163,28377
58163,27844
58932,27844
58932,28377
" /> 
<polyline style="fill-rule:evenodd;"
points="44064,27079
43295,27079
43295,26546
44064,26546
44064,27079
" /> 
<polyline style="fill-rule:evenodd;"
points="45984,27079
45215,27079
45215,26546
45984,26546
45984,27079
" /> 
<polyline style="fill-rule:evenodd;"
points="58932,27077
58163,27077
58163,26544
58932,26544
58932,27077
" /> 
<polyline style="fill-rule:evenodd;"
points="57012,27077
56243,27077
56243,26544
57012,26544
57012,27077
" /> 
<polyline style="fill-rule:evenodd;"
points="47206,24173
46830,24549
46286,24006
46663,23629
47206,24173
" /> 
<polyline style="fill-rule:evenodd;"
points="56008,23950
55464,24493
55088,24117
55632,23573
56008,23950
" /> 
<polyline style="fill-rule:evenodd;"
points="48126,23253
47749,23630
47205,23086
47582,22710
48126,23253
" /> 
<polyline style="fill-rule:evenodd;"
points="55089,23030
54545,23574
54169,23197
54712,22654
55089,23030
" /> 
<polyline style="fill-rule:evenodd;"
points="45849,22815
45472,23191
44929,22648
45305,22271
45849,22815
" /> 
<polyline style="fill-rule:evenodd;"
points="57366,22592
56822,23135
56446,22759
56989,22215
57366,22592
" /> 
<polyline style="fill-rule:evenodd;"
points="50809,22397
50277,22397
50277,21628
50809,21628
50809,22397
" /> 
<polyline style="fill-rule:evenodd;"
points="52109,22397
51577,22397
51577,21628
52109,21628
52109,22397
" /> 
<polyline style="fill-rule:evenodd;"
points="46768,21896
46391,22272
45848,21729
46224,21352
46768,21896
" /> 
<polyline style="fill-rule:evenodd;"
points="56446,21673
55903,22216
55526,21840
56070,21296
56446,21673
" /> 
<polyline style="fill-rule:evenodd;"
points="50809,20477
50277,20477
50277,19708
50809,19708
50809,20477
" /> 
<polyline style="fill-rule:evenodd;"
points="52109,20477
51577,20477
51577,19708
52109,19708
52109,20477
" /> 
<polyline style="fill-rule:evenodd;"
points="51714,17150
51920,17235
51920,17235
52105,17359
52263,17517
52387,17702
52472,17908
52516,18127
52516,18350
52472,18569
52387,18775
52263,18960
52105,19118
51920,19242
51920,19242
51920,19242
51714,19327
51495,19371
51272,19371
51053,19327
50847,19242
50847,19242
50847,19242
50662,19118
50504,18960
50380,18775
50295,18569
50251,18350
50251,18127
50295,17908
50380,17702
50504,17517
50662,17359
50847,17235
50847,17235
51053,17150
51272,17106
51495,17106
51714,17150
" /> 
</g> 
</svg>
