<?xml version="1.0" standalone="no"?>
 <!DOCTYPE svg PUBLIC "-//W3C//DTD SVG 1.1//EN" 
 "http://www.w3.org/Graphics/SVG/1.1/DTD/svg11.dtd"> 
<svg xmlns="http://www.w3.org/2000/svg" version="1.1" 
    width="27.94cm" height="21.59cm" viewBox="0 0 110000 85000 ">
<title>SVG Picture created as 001-F.SilkS.svg date 2018/03/02 20:01:40 </title>
  <desc>Picture generated by PCBNEW </desc>
<g style="fill:#000000; fill-opacity:1;stroke:#000000; stroke-opacity:1;
stroke-linecap:round; stroke-linejoin:round; "
 transform="translate(0 0) scale(1 1)">
</g>
<g style="fill:#000000; fill-opacity:0.0; 
stroke:#000000; stroke-width:-0.000393701; stroke-opacity:1; 
stroke-linecap:round; stroke-linejoin:round;">
</g>
<g style="fill:#000000; fill-opacity:0.0; 
stroke:#000000; stroke-width:60; stroke-opacity:1; 
stroke-linecap:round; stroke-linejoin:round;">
<path d="M53296 39311
L53165 39124
" />
<path d="M53071 39311
L53071 38918
L53221 38918
L53258 38937
L53277 38955
L53296 38993
L53296 39049
L53277 39086
L53258 39105
L53221 39124
L53071 39124
" />
<path d="M53465 39105
L53596 39105
" />
<path d="M53652 39311
L53465 39311
L53465 38918
L53652 38918
" />
<path d="M53802 39293
L53858 39311
L53952 39311
L53989 39293
L54008 39274
L54027 39236
L54027 39199
L54008 39161
L53989 39143
L53952 39124
L53877 39105
L53839 39086
L53821 39068
L53802 39030
L53802 38993
L53821 38955
L53839 38937
L53877 38918
L53971 38918
L54027 38937
" />
<path d="M54196 39105
L54327 39105
" />
<path d="M54383 39311
L54196 39311
L54196 38918
L54383 38918
" />
<path d="M54496 38918
L54721 38918
" />
<path d="M54608 39311
L54608 38918
" />
<path d="M47568 38869
L47568 39187
L47587 39225
L47606 39244
L47643 39262
L47718 39262
L47756 39244
L47775 39225
L47793 39187
L47793 38869
" />
<path d="M47962 39244
L48018 39262
L48112 39262
L48150 39244
L48168 39225
L48187 39187
L48187 39150
L48168 39112
L48150 39094
L48112 39075
L48037 39056
L48000 39037
L47981 39019
L47962 38981
L47962 38944
L47981 38906
L48000 38887
L48037 38869
L48131 38869
L48187 38887
" />
<path d="M48356 39056
L48487 39056
" />
<path d="M48543 39262
L48356 39262
L48356 38869
L48543 38869
" />
<path d="M48937 39262
L48806 39075
" />
<path d="M48712 39262
L48712 38869
L48862 38869
L48899 38887
L48918 38906
L48937 38944
L48937 39000
L48918 39037
L48899 39056
L48862 39075
L48712 39075
" />
<path d="M49387 38850
L49049 39356
" />
<path d="M49649 39056
L49518 39056
" />
<path d="M49518 39262
L49518 38869
L49706 38869
" />
<path d="M50043 39262
L49856 39262
L49856 38869
" />
<path d="M50156 39150
L50343 39150
" />
<path d="M50118 39262
L50249 38869
L50381 39262
" />
<path d="M50493 39244
L50549 39262
L50643 39262
L50681 39244
L50699 39225
L50718 39187
L50718 39150
L50699 39112
L50681 39094
L50643 39075
L50568 39056
L50531 39037
L50512 39019
L50493 38981
L50493 38944
L50512 38906
L50531 38887
L50568 38869
L50662 38869
L50718 38887
" />
<path d="M50887 39262
L50887 38869
" />
<path d="M50887 39056
L51112 39056
" />
<path d="M51112 39262
L51112 38869
" />
<path d="M51335 40445
L51403 40445
L51437 40462
L51470 40496
L51487 40563
L51487 40681
L51470 40749
L51437 40783
L51403 40800
L51335 40800
L51302 40783
L51268 40749
L51251 40681
L51251 40563
L51268 40496
L51302 40462
L51335 40445
" />
<path d="M51639 40800
L51639 40445
L51841 40800
L51841 40445
" />
<path d="M56587 27811
L56587 27111
" />
<path d="M58587 28461
L56587 28461
" />
<path d="M56587 26461
L58537 26461
" />
<path d="M58587 27811
L58587 27111
" />
</g>
<g style="fill:#000000; fill-opacity:0.0; 
stroke:#000000; stroke-width:19.685; stroke-opacity:1; 
stroke-linecap:round; stroke-linejoin:round;">
<path d="M56170 27067
L56170 26476
" />
</g>
<g style="fill:#000000; fill-opacity:0.0; 
stroke:#000000; stroke-width:60; stroke-opacity:1; 
stroke-linecap:round; stroke-linejoin:round;">
<path d="M55308 23849
L54813 23354
" />
<path d="M57181 22895
L55767 24309
" />
<path d="M54353 22895
L55732 21516
" />
<path d="M56722 22435
L56227 21940
" />
</g>
<g style="fill:#000000; fill-opacity:0.0; 
stroke:#000000; stroke-width:19.685; stroke-opacity:1; 
stroke-linecap:round; stroke-linejoin:round;">
<path d="M54487 23618
L54069 23201
" />
</g>
<g style="fill:#000000; fill-opacity:0.0; 
stroke:#000000; stroke-width:60; stroke-opacity:1; 
stroke-linecap:round; stroke-linejoin:round;">
<path d="M51543 22053
L50843 22053
" />
<path d="M52193 20053
L52193 22053
" />
<path d="M50193 22053
L50193 20103
" />
<path d="M51543 20053
L50843 20053
" />
</g>
<g style="fill:#000000; fill-opacity:0.0; 
stroke:#000000; stroke-width:19.685; stroke-opacity:1; 
stroke-linecap:round; stroke-linejoin:round;">
<path d="M50800 22470
L50209 22470
" />
</g>
<g style="fill:#000000; fill-opacity:0.0; 
stroke:#000000; stroke-width:60; stroke-opacity:1; 
stroke-linecap:round; stroke-linejoin:round;">
<path d="M47482 23410
L46987 23905
" />
<path d="M46527 21536
L47941 22951
" />
<path d="M46527 24365
L45148 22986
" />
<path d="M46067 21996
L45572 22491
" />
</g>
<g style="fill:#000000; fill-opacity:0.0; 
stroke:#000000; stroke-width:19.685; stroke-opacity:1; 
stroke-linecap:round; stroke-linejoin:round;">
<path d="M47251 24231
L46833 24649
" />
</g>
<g style="fill:#000000; fill-opacity:0.0; 
stroke:#000000; stroke-width:60; stroke-opacity:1; 
stroke-linecap:round; stroke-linejoin:round;">
<path d="M45639 27113
L45639 27813
" />
<path d="M43639 26463
L45639 26463
" />
<path d="M45639 28463
L43689 28463
" />
<path d="M43639 27113
L43639 27813
" />
</g>
<g style="fill:#000000; fill-opacity:0.0; 
stroke:#000000; stroke-width:19.685; stroke-opacity:1; 
stroke-linecap:round; stroke-linejoin:round;">
<path d="M46057 27856
L46057 28447
" />
</g>
<g style="fill:#000000; fill-opacity:0.0; 
stroke:#000000; stroke-width:47.2441; stroke-opacity:1; 
stroke-linecap:round; stroke-linejoin:round;">
<path d="M50787 39785
L50787 40336
" />
<path d="M50787 40346
L51889 40346
" />
<path d="M50787 39775
L51889 39775
" />
</g>
<g style="fill:#000000; fill-opacity:0.0; 
stroke:#000000; stroke-width:39.3701; stroke-opacity:1; 
stroke-linecap:round; stroke-linejoin:round;">
<path d="M51624 39903
L51624 40218
" />
<path d="M51624 40218
L51388 40061
" />
<path d="M51388 40061
L51624 39903
" />
<path d="M51388 39903
L51388 40218
" />
</g>
<g style="fill:#000000; fill-opacity:0.0; 
stroke:#000000; stroke-width:60; stroke-opacity:1; 
stroke-linecap:round; stroke-linejoin:round;">
<circle cx="58357.5" cy="39892.1" r="573.913" /> 
</g>
<g style="fill:#000000; fill-opacity:1.0; 
stroke:#000000; stroke-width:3.93701; stroke-opacity:1; 
stroke-linecap:round; stroke-linejoin:round;">
<polyline style="fill-rule:evenodd;"
points="51686,23969
51710,23969
51731,23969
51750,23970
51765,23971
51779,23972
51791,23974
51802,23975
51809,23977
51845,23986
51876,23998
51904,24014
51929,24033
51951,24056
51970,24084
51982,24105
51995,24132
52006,24158
52014,24184
52019,24211
52023,24241
52026,24274
52026,24291
52026,24335
52024,24375
52019,24411
52012,24445
52002,24477
51990,24508
51981,24527
51962,24560
51939,24589
51914,24614
51886,24635
51856,24652
51822,24665
51786,24673
51769,24675
51762,24676
51751,24677
51735,24677
51716,24677
51693,24678
51667,24678
51639,24678
51608,24678
51597,24678
51447,24678
51447,24593
51544,24593
51646,24593
51672,24593
51693,24593
51711,24593
51725,24593
51737,24592
51746,24592
51754,24591
51761,24590
51767,24589
51771,24588
51800,24580
51825,24569
51847,24553
51867,24534
51884,24510
51899,24483
51910,24453
51916,24436
51920,24421
51923,24406
51925,24391
51927,24374
51928,24355
51928,24332
51928,24319
51928,24296
51927,24276
51926,24259
51925,24245
51922,24231
51919,24217
51915,24202
51913,24195
51906,24178
51898,24159
51889,24141
51879,24124
51871,24113
51852,24093
51830,24077
51805,24064
51778,24055
51773,24054
51768,24053
51762,24052
51756,24051
51748,24050
51738,24050
51725,24050
51710,24049
51690,24049
51667,24049
51651,24049
51544,24048
51544,24593
51447,24593
51447,24324
51448,23969
51588,23969
51625,23968
51657,23968
51686,23969
" /> 
<polyline style="fill-rule:evenodd;"
points="53252,24151
53265,24152
53279,24154
53290,24155
53298,24157
53323,24166
53346,24180
53366,24197
53383,24218
53395,24242
53401,24258
53402,24261
53402,24265
53403,24269
53404,24275
53404,24283
53404,24292
53405,24304
53405,24319
53405,24337
53405,24358
53406,24383
53406,24412
53406,24445
53406,24476
53407,24681
53319,24681
53319,24495
53319,24458
53319,24427
53319,24399
53319,24376
53319,24356
53318,24339
53318,24325
53317,24313
53317,24304
53316,24296
53314,24290
53313,24284
53311,24280
53309,24275
53307,24271
53305,24268
53295,24253
53282,24241
53267,24234
53248,24229
53225,24227
53224,24227
53198,24229
53176,24233
53156,24241
53139,24252
53128,24262
53113,24280
53102,24302
53095,24319
53094,24323
53094,24326
53093,24331
53092,24337
53092,24345
53091,24354
53091,24366
53091,24381
53091,24399
53090,24420
53090,24445
53090,24475
53090,24507
53089,24681
53004,24681
53004,24510
53004,24480
53004,24451
53004,24424
53004,24398
53003,24376
53003,24356
53003,24340
53002,24328
53002,24320
53002,24318
52997,24293
52991,24273
52981,24257
52969,24244
52953,24235
52934,24229
52913,24226
52890,24227
52867,24231
52846,24238
52842,24240
52827,24249
52813,24262
52800,24278
52791,24293
52788,24300
52785,24306
52783,24311
52781,24317
52779,24324
52778,24332
52777,24342
52776,24353
52775,24367
52775,24383
52775,24402
52774,24425
52774,24452
52774,24483
52774,24514
52774,24681
52687,24681
52687,24166
52769,24166
52770,24202
52770,24238
52782,24223
52797,24205
52816,24189
52837,24175
52860,24164
52880,24157
52889,24155
52901,24153
52915,24152
52925,24151
52951,24151
52974,24154
52993,24159
53012,24168
53030,24180
53034,24184
53044,24192
53053,24202
53060,24210
53060,24211
53066,24218
53070,24224
53072,24227
53075,24226
53080,24222
53087,24216
53093,24211
53117,24190
53140,24175
53165,24163
53190,24155
53218,24152
53249,24151
53252,24151
" /> 
<polyline style="fill-rule:evenodd;"
points="51363,23980
51362,23984
51359,23993
51356,24006
51351,24022
51346,24042
51340,24065
51333,24090
51326,24118
51318,24148
51309,24180
51300,24214
51291,24248
51282,24283
51272,24319
51263,24354
51254,24390
51244,24424
51235,24458
51227,24491
51218,24522
51211,24552
51203,24579
51197,24603
51191,24625
51186,24644
51182,24659
51179,24670
51177,24677
51177,24679
51177,24679
51174,24680
51168,24680
51158,24680
51145,24680
51130,24680
51129,24680
51081,24679
51000,24385
50989,24348
50979,24312
50970,24278
50961,24246
50952,24216
50945,24189
50938,24164
50932,24143
50926,24125
50922,24111
50919,24101
50917,24095
50917,24094
50916,24097
50914,24104
50911,24115
50906,24131
50901,24150
50895,24172
50888,24198
50880,24226
50872,24257
50863,24289
50854,24324
50844,24360
50837,24389
50758,24681
50662,24681
50658,24667
50657,24662
50654,24653
50651,24639
50646,24622
50641,24601
50634,24578
50628,24551
50620,24523
50612,24492
50604,24460
50595,24427
50586,24392
50577,24357
50568,24321
50558,24286
50549,24250
50540,24216
50531,24182
50523,24150
50515,24119
50508,24090
50501,24064
50495,24040
50489,24019
50485,24002
50481,23988
50478,23978
50477,23972
50477,23971
50479,23970
50487,23969
50499,23969
50516,23969
50524,23969
50570,23969
50643,24255
50655,24305
50667,24349
50677,24389
50686,24424
50694,24454
50701,24480
50706,24500
50711,24516
50714,24528
50716,24535
50717,24537
50717,24537
50718,24534
50720,24526
50723,24515
50727,24500
50732,24482
50738,24460
50744,24436
50751,24410
50758,24382
50766,24352
50774,24321
50783,24290
50791,24258
50800,24226
50808,24194
50816,24163
50824,24133
50832,24105
50839,24078
50845,24054
50851,24032
50856,24013
50860,23997
50863,23985
50865,23977
50866,23975
50867,23968
50918,23968
50968,23968
51045,24252
51055,24288
51065,24323
51074,24357
51083,24388
51091,24417
51099,24444
51105,24467
51111,24488
51116,24505
51120,24518
51123,24527
51124,24532
51124,24532
51125,24530
51127,24522
51130,24511
51135,24495
51140,24476
51146,24454
51153,24429
51160,24401
51168,24370
51177,24338
51186,24303
51196,24267
51201,24249
51275,23968
51366,23968
51363,23980
" /> 
<polyline style="fill-rule:evenodd;"
points="49924,24261
50297,24261
50297,23968
50394,23968
50394,24681
50297,24681
50297,24346
49924,24346
49924,24681
49827,24681
49827,23968
49924,23968
49924,24261
" /> 
<polyline style="fill-rule:evenodd;"
points="52369,24149
52402,24152
52432,24158
52460,24167
52484,24180
52499,24190
52515,24204
52530,24222
52544,24242
52557,24265
52568,24289
52576,24310
52578,24317
52580,24324
52581,24331
52582,24339
52583,24349
52583,24361
52583,24377
52584,24389
52585,24446
52206,24446
52208,24467
52211,24494
52217,24519
52226,24542
52237,24563
52250,24581
52264,24595
52277,24603
52290,24609
52302,24614
52314,24617
52329,24619
52346,24620
52349,24620
52375,24620
52397,24617
52416,24613
52433,24605
52448,24594
52454,24590
52468,24574
52479,24558
52486,24538
52490,24522
52492,24516
52577,24516
52576,24529
52571,24553
52563,24576
52550,24598
52533,24620
52525,24628
52502,24650
52477,24666
52451,24679
52421,24688
52417,24689
52405,24691
52390,24693
52372,24694
52354,24694
52336,24695
52320,24694
52307,24693
52304,24693
52291,24690
52275,24686
52259,24680
52244,24675
52233,24669
52232,24669
52207,24651
52184,24630
52164,24604
52148,24575
52135,24542
52124,24505
52123,24497
52121,24486
52120,24474
52119,24461
52118,24444
52118,24423
52118,24405
52118,24390
52119,24379
52119,24376
52206,24376
52492,24376
52492,24358
52490,24338
52485,24316
52478,24295
52468,24276
52457,24261
52454,24258
52440,24246
52424,24237
52405,24230
52383,24226
52357,24225
52353,24225
52334,24225
52318,24226
52304,24229
52290,24234
52278,24240
52262,24251
52246,24266
52233,24285
52222,24306
52213,24329
52208,24352
52208,24357
52206,24376
52119,24376
52120,24369
52121,24360
52123,24351
52124,24346
52132,24316
52142,24287
52154,24261
52168,24237
52182,24216
52198,24199
52202,24196
52226,24179
52252,24165
52281,24156
52314,24150
52349,24148
52369,24149
" /> 
<polyline style="fill-rule:evenodd;"
points="49453,23951
49490,23955
49525,23962
49555,23972
49583,23987
49607,24004
49629,24026
49647,24051
49660,24073
49668,24093
49675,24116
49680,24139
49682,24158
49683,24177
49590,24177
49589,24159
49584,24134
49575,24110
49561,24088
49545,24071
49531,24059
49516,24050
49499,24043
49483,24038
49469,24035
49452,24033
49433,24032
49413,24032
49394,24032
49376,24034
49363,24036
49337,24045
49315,24057
49297,24071
49283,24089
49273,24110
49267,24134
49267,24134
49266,24156
49269,24176
49277,24195
49289,24211
49304,24225
49315,24231
49331,24238
49350,24245
49374,24252
49400,24259
49430,24266
49462,24272
49465,24273
49496,24279
49522,24285
49545,24292
49566,24299
49586,24307
49605,24316
49620,24325
49644,24341
49663,24360
49679,24383
49691,24408
49698,24436
49702,24466
49702,24499
49701,24503
49696,24534
49686,24564
49672,24591
49654,24615
49633,24637
49607,24656
49578,24671
49545,24683
49538,24686
49518,24690
49494,24694
49469,24696
49442,24698
49415,24698
49390,24697
49385,24696
49373,24695
49357,24692
49341,24689
49325,24685
49316,24683
49285,24671
49257,24656
49232,24637
49209,24615
49207,24611
49188,24585
49174,24558
49163,24528
49156,24496
49153,24469
49151,24448
49243,24448
49245,24468
49249,24496
49258,24522
49271,24545
49288,24565
49309,24583
49333,24597
49361,24608
49370,24611
49389,24615
49411,24617
49434,24618
49457,24617
49478,24615
49490,24613
49519,24606
49543,24595
49564,24581
49581,24564
49594,24545
49602,24523
49607,24499
49607,24487
49606,24464
49600,24444
49590,24427
49576,24412
49569,24407
49556,24400
49538,24392
49516,24384
49489,24376
49459,24368
49424,24360
49397,24354
49367,24348
49341,24341
49317,24333
49295,24324
49273,24314
49269,24312
49246,24299
49226,24285
49211,24270
49199,24253
49193,24243
49183,24215
49177,24186
49175,24155
49178,24125
49185,24096
49187,24090
49197,24066
49211,24045
49228,24024
49230,24021
49251,24002
49274,23985
49300,23973
49328,23963
49360,23956
49395,23952
49412,23951
49453,23951
" /> 
<polyline style="fill-rule:evenodd;"
points="48767,23953
48808,23958
48846,23968
48881,23982
48913,24000
48942,24022
48968,24048
48986,24070
49007,24103
49025,24139
49039,24178
49049,24221
49056,24267
49058,24304
49058,24350
49055,24395
49048,24437
49037,24477
49023,24515
49006,24549
48997,24563
48974,24594
48949,24620
48921,24642
48890,24661
48856,24676
48819,24687
48778,24694
48777,24694
48763,24696
48746,24697
48727,24697
48707,24698
48690,24697
48675,24697
48672,24696
48631,24690
48594,24680
48559,24666
48527,24648
48498,24627
48479,24609
48455,24580
48435,24548
48417,24512
48404,24474
48393,24433
48386,24390
48383,24345
48383,24328
48483,24328
48483,24348
48483,24364
48484,24377
48484,24387
48485,24396
48487,24405
48488,24413
48489,24415
48499,24453
48512,24487
48527,24517
48545,24544
48565,24566
48588,24584
48602,24592
48628,24603
48657,24611
48689,24616
48721,24617
48750,24616
48785,24610
48816,24601
48843,24587
48868,24570
48890,24549
48909,24523
48925,24495
48937,24470
48945,24445
48952,24419
48956,24391
48959,24360
48960,24316
48958,24273
48951,24233
48941,24195
48926,24160
48909,24128
48897,24112
48880,24092
48861,24075
48839,24061
48830,24057
48802,24045
48772,24038
48741,24034
48709,24033
48677,24037
48647,24043
48618,24053
48592,24066
48573,24080
48554,24098
48537,24120
48521,24146
48508,24175
48496,24207
48488,24240
48487,24244
48486,24253
48485,24263
48484,24275
48483,24289
48483,24307
48483,24328
48383,24328
48383,24299
48387,24251
48388,24246
48396,24203
48408,24163
48423,24126
48441,24092
48463,24061
48488,24034
48513,24013
48542,23993
48576,23977
48612,23965
48651,23956
48692,23952
48723,23951
48767,23953
" /> 
<polyline style="fill-rule:evenodd;"
points="52985,29161
53604,29201
54111,29339
54583,29601
54916,29858
55274,30265
55567,30799
55764,31391
55835,31959
55740,32669
55470,33325
55051,33897
54508,34356
53863,34671
53560,34755
53235,34825
53235,34179
53240,33828
53270,33622
53347,33507
53491,33428
53538,33408
53897,33160
54146,32792
54267,32360
54245,31919
54070,31530
53700,31170
53265,30981
52804,30967
52355,31132
52067,31357
51852,31607
51756,31849
51735,32162
51812,32674
52029,33088
52366,33370
52490,33424
52678,33500
52781,33593
52825,33757
52835,34047
52835,34179
52823,34547
52763,34748
52617,34806
52347,34747
52105,34665
51431,34325
50870,33839
50448,33236
50221,32660
50135,31975
50229,31289
50488,30638
50896,30059
51437,29586
51653,29454
51958,29299
52229,29210
52544,29170
52979,29161
52985,29161
" /> 
<polyline style="fill-rule:evenodd;"
points="50037,29574
50246,29675
50552,29852
50698,29977
50705,30083
50593,30202
50589,30206
50466,30377
50323,30673
50185,31024
50080,31362
50035,31617
50035,31630
50035,31844
49810,31634
49459,31397
49125,31358
48803,31518
48782,31536
48544,31847
48496,32185
48637,32519
48818,32709
49002,32883
49097,33058
49131,33310
49135,33541
49123,33884
49064,34058
48926,34091
48677,34014
48635,33997
48169,33712
47774,33278
47482,32743
47320,32153
47297,31859
47356,31167
47553,30593
47861,30144
48350,29715
48886,29474
49454,29426
50037,29574
" /> 
<polyline style="fill-rule:evenodd;"
points="50072,32602
50178,32856
50244,33031
50370,33358
50466,33607
50513,33721
50450,33791
50260,33891
50008,33996
49760,34077
49583,34109
49500,34064
49453,33904
49436,33593
49435,33459
49448,33128
49484,32894
49531,32809
49664,32742
49816,32606
49920,32506
49995,32495
50072,32602
" /> 
</g>
<g style="fill:#000000; fill-opacity:0.0; 
stroke:#000000; stroke-width:60; stroke-opacity:1; 
stroke-linecap:round; stroke-linejoin:round;">
<circle cx="54668.9" cy="35073.1" r="573.913" /> 
<circle cx="47935.8" cy="34887.1" r="573.913" /> 
<circle cx="55372.8" cy="36063.1" r="573.913" /> 
<circle cx="56090.6" cy="37041.1" r="573.913" /> 
<circle cx="57581.9" cy="38967" r="573.913" /> 
<circle cx="45595.7" cy="39149.1" r="573.913" /> 
<circle cx="46245.7" cy="38111.1" r="573.913" /> 
<circle cx="59196.1" cy="40774" r="573.913" /> 
<circle cx="47397.6" cy="35973.1" r="573.913" /> 
<circle cx="46839.8" cy="37055.1" r="573.913" /> 
<circle cx="56812.6" cy="38020.1" r="573.913" /> 
<circle cx="44851.6" cy="40118.9" r="573.913" /> 
</g>
<g style="fill:#000000; fill-opacity:1.0; 
stroke:#000000; stroke-width:3.93701; stroke-opacity:1; 
stroke-linecap:round; stroke-linejoin:round;">
<polyline style="fill-rule:evenodd;"
points="52238,20129
52326,20563
52406,20996
52428,21126
52481,21394
52567,21581
52730,21729
53013,21876
53457,22062
54166,22349
55059,21734
55952,21118
56656,21816
56970,22136
57211,22402
57345,22572
57360,22606
57304,22735
57152,23003
56933,23363
56802,23569
56244,24439
56543,25146
56708,25518
56850,25813
56939,25964
57087,26033
57398,26120
57815,26211
58004,26246
58971,26416
59035,28558
58392,28683
57825,28791
57431,28877
57170,28967
56997,29088
56871,29268
56749,29534
56631,29813
56271,30658
56829,31502
57386,32347
56940,32878
56532,33347
56229,33649
56012,33803
55860,33826
55825,33810
55752,33711
55775,33523
55882,33232
56040,32626
56083,31930
56012,31238
55836,30659
55595,30131
55830,29603
55977,29123
56075,28492
56122,27777
56114,27046
56048,26365
56004,26119
55925,25705
55906,25440
55944,25260
56003,25153
56106,24841
56010,24572
55739,24404
55682,24390
55402,24307
55300,24170
55351,23922
55404,23789
55494,23364
55414,23002
55203,22736
54900,22598
54543,22621
54226,22792
53951,22929
53690,22939
53511,22829
53471,22696
53388,22428
53186,22278
52941,22266
52726,22415
52689,22474
52627,22695
52742,22900
52754,22914
52867,23133
52860,23343
52742,23460
52701,23464
52559,23408
52288,23258
51945,23047
51908,23024
50910,22482
49914,22145
49524,22069
48975,21987
49316,21825
49478,21735
49592,21614
49679,21416
49761,21093
49854,20620
50051,19576
52120,19576
52238,20129
" /> 
<polyline style="fill-rule:evenodd;"
points="54282,24075
54577,24203
54839,24242
55040,24256
55117,24338
55105,24551
55083,24686
55049,24981
55107,25152
55294,25292
55352,25325
55591,25517
55762,25804
55875,26217
55939,26786
55960,27542
55960,27576
55943,28293
55883,28847
55775,29294
55764,29326
55643,29644
55539,29854
55490,29904
55371,29834
55148,29659
54993,29526
54757,29308
54638,29133
54606,28918
54632,28580
54640,28502
54642,27714
54499,26844
54227,25963
53908,25261
53706,24866
53553,24532
53476,24318
53471,24287
53566,24107
53793,24002
54070,23993
54282,24075
" /> 
<polyline style="fill-rule:evenodd;"
points="53692,23076
53872,23247
53897,23532
53787,23797
53575,23894
53321,23806
53215,23711
53067,23453
53027,23261
53077,23081
53267,23023
53333,23022
53692,23076
" /> 
<polyline style="fill-rule:evenodd;"
points="50498,35981
50516,36016
50733,36268
51000,36315
51278,36154
51360,36062
51514,35892
51592,35856
51595,35869
51508,36060
51304,36270
51066,36425
50932,36460
50684,36385
50547,36285
50405,36063
50374,35924
50405,35848
50498,35981
" /> 
</g>
<g style="fill:#000000; fill-opacity:0.0; 
stroke:#000000; stroke-width:60; stroke-opacity:1; 
stroke-linecap:round; stroke-linejoin:round;">
<circle cx="46452" cy="33053.6" r="573.913" /> 
<circle cx="45589.8" cy="32219" r="573.913" /> 
</g>
<g style="fill:#000000; fill-opacity:0.0; 
stroke:#000000; stroke-width:47.2441; stroke-opacity:1; 
stroke-linecap:round; stroke-linejoin:round;">
<path d="M48640 40622
L48640 40504
" />
<path d="M49939 40622
L48640 40622
" />
<path d="M49939 40504
L49939 40622
" />
<path d="M48640 39520
L48640 39638
" />
<path d="M49939 39520
L48640 39520
" />
<path d="M49939 39638
L49939 39520
" />
<path d="M53184 40501
L53184 40620
" />
<path d="M53184 40620
L54483 40620
" />
<path d="M54483 40620
L54483 40501
" />
<path d="M53184 39635
L53184 39517
" />
<path d="M53184 39517
L54483 39517
" />
<path d="M54483 39517
L54483 39635
" />
</g> 
</svg>
