%TF.GenerationSoftware,KiCad,Pcbnew,no-vcs-found-d190aa4~59~ubuntu16.04.1*%
%TF.CreationDate,2017-09-30T08:26:55-06:00*%
%TF.ProjectId,001,3030312E6B696361645F706362000000,rev?*%
%TF.SameCoordinates,Original*%
%TF.FileFunction,Soldermask,Bot*%
%TF.FilePolarity,Negative*%
%FSLAX46Y46*%
G04 Gerber Fmt 4.6, Leading zero omitted, Abs format (unit mm)*
G04 Created by KiCad (PCBNEW no-vcs-found-d190aa4~59~ubuntu16.04.1) date Sat Sep 30 08:26:55 2017*
%MOMM*%
%LPD*%
G01*
G04 APERTURE LIST*
%ADD10C,0.010000*%
%ADD11C,0.100000*%
G04 APERTURE END LIST*
D10*
%TO.C,GBSilk\002A\002A\002A*%
G36*
X122968250Y-101962113D02*
X122953291Y-101962309D01*
X122941640Y-101962718D01*
X122932538Y-101963373D01*
X122925225Y-101964307D01*
X122918940Y-101965551D01*
X122912923Y-101967141D01*
X122909635Y-101968118D01*
X122890263Y-101975920D01*
X122875966Y-101986361D01*
X122866350Y-102000073D01*
X122861023Y-102017690D01*
X122859591Y-102039847D01*
X122859904Y-102048222D01*
X122861199Y-102062670D01*
X122863509Y-102073070D01*
X122867441Y-102081715D01*
X122869707Y-102085353D01*
X122882869Y-102099556D01*
X122901089Y-102110279D01*
X122923974Y-102117293D01*
X122925875Y-102117665D01*
X122936479Y-102119736D01*
X122944231Y-102121386D01*
X122947399Y-102122240D01*
X122946249Y-102125162D01*
X122942473Y-102133119D01*
X122936377Y-102145514D01*
X122928269Y-102161751D01*
X122918454Y-102181232D01*
X122907240Y-102203360D01*
X122894933Y-102227539D01*
X122881840Y-102253171D01*
X122868268Y-102279659D01*
X122854523Y-102306407D01*
X122840912Y-102332818D01*
X122827742Y-102358294D01*
X122815319Y-102382239D01*
X122803951Y-102404056D01*
X122793943Y-102423148D01*
X122785604Y-102438918D01*
X122779238Y-102450768D01*
X122775153Y-102458103D01*
X122773679Y-102460350D01*
X122771798Y-102457630D01*
X122767187Y-102449795D01*
X122760113Y-102437325D01*
X122750841Y-102420703D01*
X122739639Y-102400411D01*
X122726772Y-102376931D01*
X122712506Y-102350747D01*
X122697108Y-102322339D01*
X122680844Y-102292191D01*
X122680354Y-102291281D01*
X122589371Y-102122212D01*
X122607491Y-102119860D01*
X122633579Y-102114269D01*
X122654576Y-102104963D01*
X122670432Y-102091998D01*
X122681098Y-102075428D01*
X122686524Y-102055311D01*
X122686660Y-102031700D01*
X122686596Y-102031071D01*
X122683557Y-102013772D01*
X122677880Y-102000231D01*
X122668456Y-101988045D01*
X122665298Y-101984843D01*
X122659691Y-101979618D01*
X122654135Y-101975330D01*
X122647953Y-101971881D01*
X122640468Y-101969169D01*
X122631001Y-101967094D01*
X122618874Y-101965556D01*
X122603412Y-101964455D01*
X122583935Y-101963689D01*
X122559765Y-101963160D01*
X122530227Y-101962766D01*
X122515113Y-101962608D01*
X122485450Y-101962328D01*
X122461384Y-101962166D01*
X122442164Y-101962154D01*
X122427035Y-101962323D01*
X122415247Y-101962703D01*
X122406048Y-101963328D01*
X122398684Y-101964226D01*
X122392403Y-101965431D01*
X122386454Y-101966973D01*
X122382577Y-101968120D01*
X122362593Y-101976421D01*
X122347998Y-101987704D01*
X122338402Y-102002319D01*
X122335490Y-102010499D01*
X122332849Y-102026390D01*
X122332623Y-102044484D01*
X122334639Y-102062279D01*
X122338724Y-102077270D01*
X122340373Y-102080937D01*
X122350174Y-102093978D01*
X122364612Y-102105335D01*
X122381996Y-102113878D01*
X122395123Y-102117599D01*
X122413306Y-102121176D01*
X122591803Y-102460292D01*
X122614526Y-102503472D01*
X122636409Y-102545083D01*
X122657275Y-102584779D01*
X122676941Y-102622217D01*
X122695228Y-102657053D01*
X122711955Y-102688941D01*
X122726942Y-102717539D01*
X122740008Y-102742502D01*
X122750973Y-102763486D01*
X122759657Y-102780145D01*
X122765879Y-102792137D01*
X122769458Y-102799117D01*
X122770300Y-102800858D01*
X122767386Y-102801767D01*
X122759656Y-102802876D01*
X122748634Y-102803978D01*
X122745694Y-102804216D01*
X122720380Y-102807588D01*
X122700401Y-102813522D01*
X122685170Y-102822294D01*
X122674097Y-102834182D01*
X122670922Y-102839453D01*
X122667339Y-102847473D01*
X122665203Y-102856276D01*
X122664188Y-102867818D01*
X122663961Y-102881037D01*
X122664162Y-102895451D01*
X122665064Y-102905540D01*
X122667069Y-102913320D01*
X122670582Y-102920809D01*
X122672641Y-102924417D01*
X122682008Y-102937082D01*
X122693946Y-102946565D01*
X122709978Y-102953927D01*
X122719283Y-102956934D01*
X122723437Y-102957968D01*
X122728651Y-102958853D01*
X122735409Y-102959599D01*
X122744197Y-102960217D01*
X122755499Y-102960719D01*
X122769801Y-102961114D01*
X122787589Y-102961414D01*
X122809346Y-102961629D01*
X122835558Y-102961770D01*
X122866710Y-102961848D01*
X122903288Y-102961873D01*
X122941533Y-102961860D01*
X122984158Y-102961810D01*
X123020879Y-102961714D01*
X123052139Y-102961563D01*
X123078384Y-102961349D01*
X123100059Y-102961061D01*
X123117608Y-102960690D01*
X123131477Y-102960227D01*
X123142111Y-102959662D01*
X123149954Y-102958987D01*
X123155452Y-102958190D01*
X123159049Y-102957264D01*
X123159054Y-102957262D01*
X123174387Y-102950138D01*
X123186383Y-102940220D01*
X123197125Y-102925776D01*
X123197338Y-102925435D01*
X123202404Y-102916379D01*
X123205457Y-102907817D01*
X123207106Y-102897391D01*
X123207890Y-102884466D01*
X123208160Y-102870583D01*
X123207391Y-102860777D01*
X123205214Y-102852813D01*
X123201296Y-102844525D01*
X123193956Y-102833894D01*
X123184612Y-102824233D01*
X123181219Y-102821585D01*
X123173427Y-102816644D01*
X123165239Y-102812661D01*
X123155892Y-102809537D01*
X123144620Y-102807172D01*
X123130659Y-102805466D01*
X123113244Y-102804321D01*
X123091611Y-102803637D01*
X123064994Y-102803314D01*
X123040147Y-102803250D01*
X122949378Y-102803250D01*
X122906670Y-102723265D01*
X122895721Y-102702659D01*
X122885854Y-102683898D01*
X122877440Y-102667703D01*
X122870850Y-102654793D01*
X122866454Y-102645889D01*
X122864623Y-102641713D01*
X122864598Y-102641509D01*
X122866112Y-102638490D01*
X122870331Y-102630224D01*
X122877049Y-102617111D01*
X122886062Y-102599548D01*
X122897165Y-102577933D01*
X122910153Y-102552665D01*
X122924822Y-102524141D01*
X122940967Y-102492760D01*
X122958383Y-102458921D01*
X122976865Y-102423021D01*
X122996210Y-102385459D01*
X122998520Y-102380975D01*
X123131807Y-102122212D01*
X123145523Y-102118580D01*
X123168313Y-102110745D01*
X123185496Y-102100493D01*
X123197541Y-102087244D01*
X123204919Y-102070420D01*
X123208101Y-102049441D01*
X123208311Y-102041250D01*
X123206657Y-102019293D01*
X123201294Y-102001885D01*
X123191623Y-101988039D01*
X123177046Y-101976767D01*
X123165548Y-101970761D01*
X123161107Y-101968803D01*
X123156683Y-101967223D01*
X123151557Y-101965972D01*
X123145009Y-101965003D01*
X123136320Y-101964268D01*
X123124769Y-101963719D01*
X123109637Y-101963309D01*
X123090204Y-101962989D01*
X123065750Y-101962712D01*
X123040583Y-101962476D01*
X123011136Y-101962230D01*
X122987278Y-101962097D01*
X122968250Y-101962113D01*
X122968250Y-101962113D01*
G37*
X122968250Y-101962113D02*
X122953291Y-101962309D01*
X122941640Y-101962718D01*
X122932538Y-101963373D01*
X122925225Y-101964307D01*
X122918940Y-101965551D01*
X122912923Y-101967141D01*
X122909635Y-101968118D01*
X122890263Y-101975920D01*
X122875966Y-101986361D01*
X122866350Y-102000073D01*
X122861023Y-102017690D01*
X122859591Y-102039847D01*
X122859904Y-102048222D01*
X122861199Y-102062670D01*
X122863509Y-102073070D01*
X122867441Y-102081715D01*
X122869707Y-102085353D01*
X122882869Y-102099556D01*
X122901089Y-102110279D01*
X122923974Y-102117293D01*
X122925875Y-102117665D01*
X122936479Y-102119736D01*
X122944231Y-102121386D01*
X122947399Y-102122240D01*
X122946249Y-102125162D01*
X122942473Y-102133119D01*
X122936377Y-102145514D01*
X122928269Y-102161751D01*
X122918454Y-102181232D01*
X122907240Y-102203360D01*
X122894933Y-102227539D01*
X122881840Y-102253171D01*
X122868268Y-102279659D01*
X122854523Y-102306407D01*
X122840912Y-102332818D01*
X122827742Y-102358294D01*
X122815319Y-102382239D01*
X122803951Y-102404056D01*
X122793943Y-102423148D01*
X122785604Y-102438918D01*
X122779238Y-102450768D01*
X122775153Y-102458103D01*
X122773679Y-102460350D01*
X122771798Y-102457630D01*
X122767187Y-102449795D01*
X122760113Y-102437325D01*
X122750841Y-102420703D01*
X122739639Y-102400411D01*
X122726772Y-102376931D01*
X122712506Y-102350747D01*
X122697108Y-102322339D01*
X122680844Y-102292191D01*
X122680354Y-102291281D01*
X122589371Y-102122212D01*
X122607491Y-102119860D01*
X122633579Y-102114269D01*
X122654576Y-102104963D01*
X122670432Y-102091998D01*
X122681098Y-102075428D01*
X122686524Y-102055311D01*
X122686660Y-102031700D01*
X122686596Y-102031071D01*
X122683557Y-102013772D01*
X122677880Y-102000231D01*
X122668456Y-101988045D01*
X122665298Y-101984843D01*
X122659691Y-101979618D01*
X122654135Y-101975330D01*
X122647953Y-101971881D01*
X122640468Y-101969169D01*
X122631001Y-101967094D01*
X122618874Y-101965556D01*
X122603412Y-101964455D01*
X122583935Y-101963689D01*
X122559765Y-101963160D01*
X122530227Y-101962766D01*
X122515113Y-101962608D01*
X122485450Y-101962328D01*
X122461384Y-101962166D01*
X122442164Y-101962154D01*
X122427035Y-101962323D01*
X122415247Y-101962703D01*
X122406048Y-101963328D01*
X122398684Y-101964226D01*
X122392403Y-101965431D01*
X122386454Y-101966973D01*
X122382577Y-101968120D01*
X122362593Y-101976421D01*
X122347998Y-101987704D01*
X122338402Y-102002319D01*
X122335490Y-102010499D01*
X122332849Y-102026390D01*
X122332623Y-102044484D01*
X122334639Y-102062279D01*
X122338724Y-102077270D01*
X122340373Y-102080937D01*
X122350174Y-102093978D01*
X122364612Y-102105335D01*
X122381996Y-102113878D01*
X122395123Y-102117599D01*
X122413306Y-102121176D01*
X122591803Y-102460292D01*
X122614526Y-102503472D01*
X122636409Y-102545083D01*
X122657275Y-102584779D01*
X122676941Y-102622217D01*
X122695228Y-102657053D01*
X122711955Y-102688941D01*
X122726942Y-102717539D01*
X122740008Y-102742502D01*
X122750973Y-102763486D01*
X122759657Y-102780145D01*
X122765879Y-102792137D01*
X122769458Y-102799117D01*
X122770300Y-102800858D01*
X122767386Y-102801767D01*
X122759656Y-102802876D01*
X122748634Y-102803978D01*
X122745694Y-102804216D01*
X122720380Y-102807588D01*
X122700401Y-102813522D01*
X122685170Y-102822294D01*
X122674097Y-102834182D01*
X122670922Y-102839453D01*
X122667339Y-102847473D01*
X122665203Y-102856276D01*
X122664188Y-102867818D01*
X122663961Y-102881037D01*
X122664162Y-102895451D01*
X122665064Y-102905540D01*
X122667069Y-102913320D01*
X122670582Y-102920809D01*
X122672641Y-102924417D01*
X122682008Y-102937082D01*
X122693946Y-102946565D01*
X122709978Y-102953927D01*
X122719283Y-102956934D01*
X122723437Y-102957968D01*
X122728651Y-102958853D01*
X122735409Y-102959599D01*
X122744197Y-102960217D01*
X122755499Y-102960719D01*
X122769801Y-102961114D01*
X122787589Y-102961414D01*
X122809346Y-102961629D01*
X122835558Y-102961770D01*
X122866710Y-102961848D01*
X122903288Y-102961873D01*
X122941533Y-102961860D01*
X122984158Y-102961810D01*
X123020879Y-102961714D01*
X123052139Y-102961563D01*
X123078384Y-102961349D01*
X123100059Y-102961061D01*
X123117608Y-102960690D01*
X123131477Y-102960227D01*
X123142111Y-102959662D01*
X123149954Y-102958987D01*
X123155452Y-102958190D01*
X123159049Y-102957264D01*
X123159054Y-102957262D01*
X123174387Y-102950138D01*
X123186383Y-102940220D01*
X123197125Y-102925776D01*
X123197338Y-102925435D01*
X123202404Y-102916379D01*
X123205457Y-102907817D01*
X123207106Y-102897391D01*
X123207890Y-102884466D01*
X123208160Y-102870583D01*
X123207391Y-102860777D01*
X123205214Y-102852813D01*
X123201296Y-102844525D01*
X123193956Y-102833894D01*
X123184612Y-102824233D01*
X123181219Y-102821585D01*
X123173427Y-102816644D01*
X123165239Y-102812661D01*
X123155892Y-102809537D01*
X123144620Y-102807172D01*
X123130659Y-102805466D01*
X123113244Y-102804321D01*
X123091611Y-102803637D01*
X123064994Y-102803314D01*
X123040147Y-102803250D01*
X122949378Y-102803250D01*
X122906670Y-102723265D01*
X122895721Y-102702659D01*
X122885854Y-102683898D01*
X122877440Y-102667703D01*
X122870850Y-102654793D01*
X122866454Y-102645889D01*
X122864623Y-102641713D01*
X122864598Y-102641509D01*
X122866112Y-102638490D01*
X122870331Y-102630224D01*
X122877049Y-102617111D01*
X122886062Y-102599548D01*
X122897165Y-102577933D01*
X122910153Y-102552665D01*
X122924822Y-102524141D01*
X122940967Y-102492760D01*
X122958383Y-102458921D01*
X122976865Y-102423021D01*
X122996210Y-102385459D01*
X122998520Y-102380975D01*
X123131807Y-102122212D01*
X123145523Y-102118580D01*
X123168313Y-102110745D01*
X123185496Y-102100493D01*
X123197541Y-102087244D01*
X123204919Y-102070420D01*
X123208101Y-102049441D01*
X123208311Y-102041250D01*
X123206657Y-102019293D01*
X123201294Y-102001885D01*
X123191623Y-101988039D01*
X123177046Y-101976767D01*
X123165548Y-101970761D01*
X123161107Y-101968803D01*
X123156683Y-101967223D01*
X123151557Y-101965972D01*
X123145009Y-101965003D01*
X123136320Y-101964268D01*
X123124769Y-101963719D01*
X123109637Y-101963309D01*
X123090204Y-101962989D01*
X123065750Y-101962712D01*
X123040583Y-101962476D01*
X123011136Y-101962230D01*
X122987278Y-101962097D01*
X122968250Y-101962113D01*
G36*
X119976466Y-101941660D02*
X119959432Y-101941945D01*
X119946101Y-101942554D01*
X119935150Y-101943605D01*
X119925255Y-101945219D01*
X119915093Y-101947514D01*
X119905797Y-101949944D01*
X119871204Y-101961379D01*
X119837598Y-101976439D01*
X119807354Y-101994029D01*
X119801675Y-101997925D01*
X119781038Y-102012529D01*
X119779194Y-101961875D01*
X119673116Y-101961875D01*
X119643729Y-101961979D01*
X119617114Y-101962282D01*
X119593961Y-101962762D01*
X119574963Y-101963401D01*
X119560811Y-101964180D01*
X119552197Y-101965079D01*
X119551319Y-101965246D01*
X119529957Y-101972648D01*
X119512766Y-101984507D01*
X119500189Y-102000295D01*
X119492666Y-102019483D01*
X119490574Y-102038075D01*
X119492154Y-102058860D01*
X119497262Y-102075593D01*
X119506402Y-102089804D01*
X119508226Y-102091895D01*
X119521023Y-102103228D01*
X119536515Y-102111364D01*
X119555750Y-102116683D01*
X119579775Y-102119570D01*
X119584857Y-102119869D01*
X119617525Y-102121536D01*
X119617528Y-102398099D01*
X119617550Y-102451492D01*
X119617625Y-102498947D01*
X119617766Y-102540873D01*
X119617990Y-102577681D01*
X119618310Y-102609784D01*
X119618741Y-102637591D01*
X119619298Y-102661513D01*
X119619996Y-102681962D01*
X119620849Y-102699348D01*
X119621872Y-102714082D01*
X119623079Y-102726575D01*
X119624486Y-102737238D01*
X119626107Y-102746482D01*
X119627956Y-102754717D01*
X119630048Y-102762355D01*
X119630597Y-102764174D01*
X119645456Y-102802047D01*
X119665699Y-102836917D01*
X119690932Y-102868414D01*
X119720760Y-102896170D01*
X119754789Y-102919814D01*
X119792625Y-102938978D01*
X119831838Y-102952725D01*
X119838291Y-102954473D01*
X119844525Y-102955916D01*
X119851215Y-102957089D01*
X119859037Y-102958026D01*
X119868667Y-102958759D01*
X119880778Y-102959324D01*
X119896047Y-102959753D01*
X119915148Y-102960080D01*
X119938758Y-102960339D01*
X119967549Y-102960564D01*
X119992175Y-102960725D01*
X120021634Y-102960841D01*
X120049373Y-102960817D01*
X120074677Y-102960662D01*
X120096827Y-102960387D01*
X120115108Y-102960002D01*
X120128802Y-102959517D01*
X120137192Y-102958942D01*
X120139069Y-102958652D01*
X120161200Y-102950639D01*
X120178641Y-102938692D01*
X120191127Y-102923059D01*
X120198394Y-102903986D01*
X120198589Y-102903074D01*
X120200983Y-102880178D01*
X120198650Y-102858890D01*
X120191857Y-102840308D01*
X120180866Y-102825533D01*
X120179688Y-102824434D01*
X120173419Y-102819288D01*
X120166628Y-102815037D01*
X120158666Y-102811596D01*
X120148889Y-102808884D01*
X120136649Y-102806816D01*
X120121302Y-102805310D01*
X120102200Y-102804281D01*
X120078697Y-102803646D01*
X120050148Y-102803322D01*
X120015906Y-102803226D01*
X120015361Y-102803226D01*
X119981419Y-102803140D01*
X119953103Y-102802854D01*
X119929692Y-102802301D01*
X119910465Y-102801413D01*
X119894700Y-102800124D01*
X119881676Y-102798367D01*
X119870669Y-102796074D01*
X119860960Y-102793178D01*
X119851826Y-102789611D01*
X119847321Y-102787589D01*
X119824564Y-102774346D01*
X119806724Y-102757734D01*
X119792871Y-102736860D01*
X119791387Y-102733936D01*
X119781038Y-102712930D01*
X119778938Y-102596290D01*
X119798649Y-102609675D01*
X119822580Y-102624131D01*
X119850304Y-102637949D01*
X119879283Y-102649972D01*
X119906562Y-102658924D01*
X119938038Y-102665460D01*
X119973351Y-102669053D01*
X120010726Y-102669732D01*
X120048388Y-102667527D01*
X120084562Y-102662466D01*
X120114413Y-102655485D01*
X120156940Y-102640021D01*
X120197004Y-102619181D01*
X120234084Y-102593493D01*
X120267660Y-102563488D01*
X120297214Y-102529695D01*
X120322225Y-102492643D01*
X120342173Y-102452861D01*
X120356540Y-102410880D01*
X120357275Y-102408060D01*
X120366740Y-102359106D01*
X120370239Y-102310127D01*
X120369973Y-102304775D01*
X120209046Y-102304775D01*
X120206142Y-102340612D01*
X120197492Y-102373789D01*
X120183022Y-102404503D01*
X120162654Y-102432953D01*
X120158261Y-102437954D01*
X120130770Y-102463816D01*
X120100282Y-102484214D01*
X120067295Y-102498986D01*
X120032305Y-102507971D01*
X119995808Y-102511008D01*
X119958300Y-102507936D01*
X119948385Y-102506105D01*
X119914390Y-102496076D01*
X119882812Y-102480813D01*
X119854278Y-102460909D01*
X119829415Y-102436957D01*
X119808850Y-102409549D01*
X119793210Y-102379279D01*
X119783985Y-102350607D01*
X119780305Y-102325339D01*
X119780006Y-102297443D01*
X119782946Y-102269575D01*
X119788982Y-102244388D01*
X119789832Y-102241888D01*
X119804281Y-102210068D01*
X119823799Y-102181332D01*
X119847670Y-102156136D01*
X119875182Y-102134937D01*
X119905622Y-102118192D01*
X119938274Y-102106358D01*
X119972427Y-102099892D01*
X120007366Y-102099250D01*
X120012032Y-102099628D01*
X120032146Y-102102031D01*
X120049291Y-102105536D01*
X120065900Y-102110833D01*
X120084405Y-102118616D01*
X120093091Y-102122679D01*
X120108278Y-102130409D01*
X120120642Y-102138102D01*
X120132310Y-102147292D01*
X120145408Y-102159511D01*
X120148752Y-102162817D01*
X120172030Y-102189171D01*
X120189325Y-102216252D01*
X120201004Y-102244923D01*
X120207434Y-102276046D01*
X120209046Y-102304775D01*
X120369973Y-102304775D01*
X120367825Y-102261724D01*
X120359552Y-102214499D01*
X120345473Y-102169051D01*
X120333483Y-102141262D01*
X120320394Y-102116145D01*
X120306588Y-102094162D01*
X120290791Y-102073610D01*
X120271726Y-102052784D01*
X120255016Y-102036433D01*
X120219871Y-102006996D01*
X120182324Y-101983064D01*
X120141658Y-101964257D01*
X120097156Y-101950192D01*
X120089202Y-101948256D01*
X120077618Y-101945781D01*
X120066325Y-101943983D01*
X120053983Y-101942762D01*
X120039251Y-101942021D01*
X120020788Y-101941660D01*
X119998525Y-101941579D01*
X119976466Y-101941660D01*
X119976466Y-101941660D01*
G37*
X119976466Y-101941660D02*
X119959432Y-101941945D01*
X119946101Y-101942554D01*
X119935150Y-101943605D01*
X119925255Y-101945219D01*
X119915093Y-101947514D01*
X119905797Y-101949944D01*
X119871204Y-101961379D01*
X119837598Y-101976439D01*
X119807354Y-101994029D01*
X119801675Y-101997925D01*
X119781038Y-102012529D01*
X119779194Y-101961875D01*
X119673116Y-101961875D01*
X119643729Y-101961979D01*
X119617114Y-101962282D01*
X119593961Y-101962762D01*
X119574963Y-101963401D01*
X119560811Y-101964180D01*
X119552197Y-101965079D01*
X119551319Y-101965246D01*
X119529957Y-101972648D01*
X119512766Y-101984507D01*
X119500189Y-102000295D01*
X119492666Y-102019483D01*
X119490574Y-102038075D01*
X119492154Y-102058860D01*
X119497262Y-102075593D01*
X119506402Y-102089804D01*
X119508226Y-102091895D01*
X119521023Y-102103228D01*
X119536515Y-102111364D01*
X119555750Y-102116683D01*
X119579775Y-102119570D01*
X119584857Y-102119869D01*
X119617525Y-102121536D01*
X119617528Y-102398099D01*
X119617550Y-102451492D01*
X119617625Y-102498947D01*
X119617766Y-102540873D01*
X119617990Y-102577681D01*
X119618310Y-102609784D01*
X119618741Y-102637591D01*
X119619298Y-102661513D01*
X119619996Y-102681962D01*
X119620849Y-102699348D01*
X119621872Y-102714082D01*
X119623079Y-102726575D01*
X119624486Y-102737238D01*
X119626107Y-102746482D01*
X119627956Y-102754717D01*
X119630048Y-102762355D01*
X119630597Y-102764174D01*
X119645456Y-102802047D01*
X119665699Y-102836917D01*
X119690932Y-102868414D01*
X119720760Y-102896170D01*
X119754789Y-102919814D01*
X119792625Y-102938978D01*
X119831838Y-102952725D01*
X119838291Y-102954473D01*
X119844525Y-102955916D01*
X119851215Y-102957089D01*
X119859037Y-102958026D01*
X119868667Y-102958759D01*
X119880778Y-102959324D01*
X119896047Y-102959753D01*
X119915148Y-102960080D01*
X119938758Y-102960339D01*
X119967549Y-102960564D01*
X119992175Y-102960725D01*
X120021634Y-102960841D01*
X120049373Y-102960817D01*
X120074677Y-102960662D01*
X120096827Y-102960387D01*
X120115108Y-102960002D01*
X120128802Y-102959517D01*
X120137192Y-102958942D01*
X120139069Y-102958652D01*
X120161200Y-102950639D01*
X120178641Y-102938692D01*
X120191127Y-102923059D01*
X120198394Y-102903986D01*
X120198589Y-102903074D01*
X120200983Y-102880178D01*
X120198650Y-102858890D01*
X120191857Y-102840308D01*
X120180866Y-102825533D01*
X120179688Y-102824434D01*
X120173419Y-102819288D01*
X120166628Y-102815037D01*
X120158666Y-102811596D01*
X120148889Y-102808884D01*
X120136649Y-102806816D01*
X120121302Y-102805310D01*
X120102200Y-102804281D01*
X120078697Y-102803646D01*
X120050148Y-102803322D01*
X120015906Y-102803226D01*
X120015361Y-102803226D01*
X119981419Y-102803140D01*
X119953103Y-102802854D01*
X119929692Y-102802301D01*
X119910465Y-102801413D01*
X119894700Y-102800124D01*
X119881676Y-102798367D01*
X119870669Y-102796074D01*
X119860960Y-102793178D01*
X119851826Y-102789611D01*
X119847321Y-102787589D01*
X119824564Y-102774346D01*
X119806724Y-102757734D01*
X119792871Y-102736860D01*
X119791387Y-102733936D01*
X119781038Y-102712930D01*
X119778938Y-102596290D01*
X119798649Y-102609675D01*
X119822580Y-102624131D01*
X119850304Y-102637949D01*
X119879283Y-102649972D01*
X119906562Y-102658924D01*
X119938038Y-102665460D01*
X119973351Y-102669053D01*
X120010726Y-102669732D01*
X120048388Y-102667527D01*
X120084562Y-102662466D01*
X120114413Y-102655485D01*
X120156940Y-102640021D01*
X120197004Y-102619181D01*
X120234084Y-102593493D01*
X120267660Y-102563488D01*
X120297214Y-102529695D01*
X120322225Y-102492643D01*
X120342173Y-102452861D01*
X120356540Y-102410880D01*
X120357275Y-102408060D01*
X120366740Y-102359106D01*
X120370239Y-102310127D01*
X120369973Y-102304775D01*
X120209046Y-102304775D01*
X120206142Y-102340612D01*
X120197492Y-102373789D01*
X120183022Y-102404503D01*
X120162654Y-102432953D01*
X120158261Y-102437954D01*
X120130770Y-102463816D01*
X120100282Y-102484214D01*
X120067295Y-102498986D01*
X120032305Y-102507971D01*
X119995808Y-102511008D01*
X119958300Y-102507936D01*
X119948385Y-102506105D01*
X119914390Y-102496076D01*
X119882812Y-102480813D01*
X119854278Y-102460909D01*
X119829415Y-102436957D01*
X119808850Y-102409549D01*
X119793210Y-102379279D01*
X119783985Y-102350607D01*
X119780305Y-102325339D01*
X119780006Y-102297443D01*
X119782946Y-102269575D01*
X119788982Y-102244388D01*
X119789832Y-102241888D01*
X119804281Y-102210068D01*
X119823799Y-102181332D01*
X119847670Y-102156136D01*
X119875182Y-102134937D01*
X119905622Y-102118192D01*
X119938274Y-102106358D01*
X119972427Y-102099892D01*
X120007366Y-102099250D01*
X120012032Y-102099628D01*
X120032146Y-102102031D01*
X120049291Y-102105536D01*
X120065900Y-102110833D01*
X120084405Y-102118616D01*
X120093091Y-102122679D01*
X120108278Y-102130409D01*
X120120642Y-102138102D01*
X120132310Y-102147292D01*
X120145408Y-102159511D01*
X120148752Y-102162817D01*
X120172030Y-102189171D01*
X120189325Y-102216252D01*
X120201004Y-102244923D01*
X120207434Y-102276046D01*
X120209046Y-102304775D01*
X120369973Y-102304775D01*
X120367825Y-102261724D01*
X120359552Y-102214499D01*
X120345473Y-102169051D01*
X120333483Y-102141262D01*
X120320394Y-102116145D01*
X120306588Y-102094162D01*
X120290791Y-102073610D01*
X120271726Y-102052784D01*
X120255016Y-102036433D01*
X120219871Y-102006996D01*
X120182324Y-101983064D01*
X120141658Y-101964257D01*
X120097156Y-101950192D01*
X120089202Y-101948256D01*
X120077618Y-101945781D01*
X120066325Y-101943983D01*
X120053983Y-101942762D01*
X120039251Y-101942021D01*
X120020788Y-101941660D01*
X119998525Y-101941579D01*
X119976466Y-101941660D01*
G36*
X123683884Y-101942384D02*
X123636811Y-101948283D01*
X123591582Y-101958483D01*
X123549176Y-101972904D01*
X123510576Y-101991462D01*
X123506663Y-101993718D01*
X123468234Y-102019249D01*
X123433048Y-102048595D01*
X123401801Y-102080997D01*
X123375187Y-102115699D01*
X123353901Y-102151945D01*
X123346275Y-102168486D01*
X123334737Y-102199800D01*
X123326198Y-102232397D01*
X123320448Y-102267499D01*
X123317278Y-102306327D01*
X123316456Y-102342081D01*
X123316400Y-102380975D01*
X123635828Y-102380975D01*
X123687944Y-102380979D01*
X123734072Y-102380996D01*
X123774572Y-102381032D01*
X123809805Y-102381093D01*
X123840133Y-102381186D01*
X123865917Y-102381317D01*
X123887518Y-102381492D01*
X123905298Y-102381718D01*
X123919616Y-102382001D01*
X123930836Y-102382347D01*
X123939317Y-102382763D01*
X123945421Y-102383255D01*
X123949509Y-102383829D01*
X123951942Y-102384491D01*
X123953082Y-102385249D01*
X123953289Y-102386107D01*
X123953174Y-102386531D01*
X123946496Y-102400203D01*
X123936311Y-102416052D01*
X123923966Y-102432159D01*
X123911229Y-102446189D01*
X123885802Y-102467167D01*
X123855554Y-102484372D01*
X123820825Y-102497727D01*
X123781959Y-102507153D01*
X123739296Y-102512574D01*
X123693179Y-102513913D01*
X123643950Y-102511091D01*
X123630706Y-102509669D01*
X123609965Y-102507020D01*
X123589825Y-102503943D01*
X123569033Y-102500189D01*
X123546337Y-102495512D01*
X123520483Y-102489662D01*
X123490219Y-102482390D01*
X123478325Y-102479456D01*
X123448700Y-102472452D01*
X123424278Y-102467560D01*
X123404268Y-102464795D01*
X123387882Y-102464171D01*
X123374328Y-102465705D01*
X123362817Y-102469409D01*
X123352558Y-102475300D01*
X123344331Y-102481947D01*
X123330379Y-102497442D01*
X123321986Y-102514322D01*
X123318442Y-102534167D01*
X123318226Y-102540242D01*
X123318464Y-102552597D01*
X123319994Y-102561271D01*
X123323528Y-102568904D01*
X123327647Y-102575143D01*
X123338306Y-102587692D01*
X123352153Y-102599173D01*
X123369791Y-102609897D01*
X123391823Y-102620176D01*
X123418853Y-102630320D01*
X123451484Y-102640640D01*
X123458825Y-102642778D01*
X123498396Y-102652649D01*
X123542301Y-102660885D01*
X123588665Y-102667163D01*
X123615817Y-102669769D01*
X123631393Y-102670740D01*
X123650934Y-102671511D01*
X123673094Y-102672072D01*
X123696527Y-102672415D01*
X123719888Y-102672531D01*
X123741831Y-102672410D01*
X123761011Y-102672045D01*
X123776080Y-102671425D01*
X123783125Y-102670873D01*
X123791117Y-102669732D01*
X123803291Y-102667660D01*
X123817611Y-102665013D01*
X123825106Y-102663552D01*
X123874358Y-102651004D01*
X123919675Y-102633627D01*
X123961502Y-102611187D01*
X124000285Y-102583450D01*
X124031018Y-102555708D01*
X124061311Y-102521967D01*
X124085718Y-102486688D01*
X124104543Y-102449217D01*
X124118087Y-102408903D01*
X124126654Y-102365092D01*
X124128931Y-102344462D01*
X124130328Y-102295106D01*
X124125816Y-102247855D01*
X124123571Y-102238100D01*
X123951119Y-102238100D01*
X123496687Y-102238100D01*
X123498806Y-102229368D01*
X123503653Y-102216890D01*
X123512265Y-102201973D01*
X123523550Y-102186264D01*
X123536411Y-102171412D01*
X123539208Y-102168557D01*
X123557702Y-102152775D01*
X123580178Y-102137722D01*
X123604307Y-102124826D01*
X123623035Y-102117095D01*
X123658927Y-102107426D01*
X123697591Y-102102283D01*
X123737392Y-102101649D01*
X123776697Y-102105505D01*
X123813871Y-102113835D01*
X123830138Y-102119289D01*
X123859353Y-102132735D01*
X123886047Y-102149822D01*
X123909358Y-102169766D01*
X123928424Y-102191780D01*
X123942383Y-102215079D01*
X123946691Y-102225550D01*
X123951119Y-102238100D01*
X124123571Y-102238100D01*
X124115468Y-102202893D01*
X124099358Y-102160405D01*
X124077559Y-102120576D01*
X124050146Y-102083593D01*
X124017191Y-102049639D01*
X124008694Y-102042157D01*
X123975335Y-102015885D01*
X123942100Y-101994583D01*
X123907131Y-101977187D01*
X123870982Y-101963435D01*
X123826349Y-101951313D01*
X123779633Y-101943818D01*
X123731818Y-101940869D01*
X123683884Y-101942384D01*
X123683884Y-101942384D01*
G37*
X123683884Y-101942384D02*
X123636811Y-101948283D01*
X123591582Y-101958483D01*
X123549176Y-101972904D01*
X123510576Y-101991462D01*
X123506663Y-101993718D01*
X123468234Y-102019249D01*
X123433048Y-102048595D01*
X123401801Y-102080997D01*
X123375187Y-102115699D01*
X123353901Y-102151945D01*
X123346275Y-102168486D01*
X123334737Y-102199800D01*
X123326198Y-102232397D01*
X123320448Y-102267499D01*
X123317278Y-102306327D01*
X123316456Y-102342081D01*
X123316400Y-102380975D01*
X123635828Y-102380975D01*
X123687944Y-102380979D01*
X123734072Y-102380996D01*
X123774572Y-102381032D01*
X123809805Y-102381093D01*
X123840133Y-102381186D01*
X123865917Y-102381317D01*
X123887518Y-102381492D01*
X123905298Y-102381718D01*
X123919616Y-102382001D01*
X123930836Y-102382347D01*
X123939317Y-102382763D01*
X123945421Y-102383255D01*
X123949509Y-102383829D01*
X123951942Y-102384491D01*
X123953082Y-102385249D01*
X123953289Y-102386107D01*
X123953174Y-102386531D01*
X123946496Y-102400203D01*
X123936311Y-102416052D01*
X123923966Y-102432159D01*
X123911229Y-102446189D01*
X123885802Y-102467167D01*
X123855554Y-102484372D01*
X123820825Y-102497727D01*
X123781959Y-102507153D01*
X123739296Y-102512574D01*
X123693179Y-102513913D01*
X123643950Y-102511091D01*
X123630706Y-102509669D01*
X123609965Y-102507020D01*
X123589825Y-102503943D01*
X123569033Y-102500189D01*
X123546337Y-102495512D01*
X123520483Y-102489662D01*
X123490219Y-102482390D01*
X123478325Y-102479456D01*
X123448700Y-102472452D01*
X123424278Y-102467560D01*
X123404268Y-102464795D01*
X123387882Y-102464171D01*
X123374328Y-102465705D01*
X123362817Y-102469409D01*
X123352558Y-102475300D01*
X123344331Y-102481947D01*
X123330379Y-102497442D01*
X123321986Y-102514322D01*
X123318442Y-102534167D01*
X123318226Y-102540242D01*
X123318464Y-102552597D01*
X123319994Y-102561271D01*
X123323528Y-102568904D01*
X123327647Y-102575143D01*
X123338306Y-102587692D01*
X123352153Y-102599173D01*
X123369791Y-102609897D01*
X123391823Y-102620176D01*
X123418853Y-102630320D01*
X123451484Y-102640640D01*
X123458825Y-102642778D01*
X123498396Y-102652649D01*
X123542301Y-102660885D01*
X123588665Y-102667163D01*
X123615817Y-102669769D01*
X123631393Y-102670740D01*
X123650934Y-102671511D01*
X123673094Y-102672072D01*
X123696527Y-102672415D01*
X123719888Y-102672531D01*
X123741831Y-102672410D01*
X123761011Y-102672045D01*
X123776080Y-102671425D01*
X123783125Y-102670873D01*
X123791117Y-102669732D01*
X123803291Y-102667660D01*
X123817611Y-102665013D01*
X123825106Y-102663552D01*
X123874358Y-102651004D01*
X123919675Y-102633627D01*
X123961502Y-102611187D01*
X124000285Y-102583450D01*
X124031018Y-102555708D01*
X124061311Y-102521967D01*
X124085718Y-102486688D01*
X124104543Y-102449217D01*
X124118087Y-102408903D01*
X124126654Y-102365092D01*
X124128931Y-102344462D01*
X124130328Y-102295106D01*
X124125816Y-102247855D01*
X124123571Y-102238100D01*
X123951119Y-102238100D01*
X123496687Y-102238100D01*
X123498806Y-102229368D01*
X123503653Y-102216890D01*
X123512265Y-102201973D01*
X123523550Y-102186264D01*
X123536411Y-102171412D01*
X123539208Y-102168557D01*
X123557702Y-102152775D01*
X123580178Y-102137722D01*
X123604307Y-102124826D01*
X123623035Y-102117095D01*
X123658927Y-102107426D01*
X123697591Y-102102283D01*
X123737392Y-102101649D01*
X123776697Y-102105505D01*
X123813871Y-102113835D01*
X123830138Y-102119289D01*
X123859353Y-102132735D01*
X123886047Y-102149822D01*
X123909358Y-102169766D01*
X123928424Y-102191780D01*
X123942383Y-102215079D01*
X123946691Y-102225550D01*
X123951119Y-102238100D01*
X124123571Y-102238100D01*
X124115468Y-102202893D01*
X124099358Y-102160405D01*
X124077559Y-102120576D01*
X124050146Y-102083593D01*
X124017191Y-102049639D01*
X124008694Y-102042157D01*
X123975335Y-102015885D01*
X123942100Y-101994583D01*
X123907131Y-101977187D01*
X123870982Y-101963435D01*
X123826349Y-101951313D01*
X123779633Y-101943818D01*
X123731818Y-101940869D01*
X123683884Y-101942384D01*
G36*
X120846144Y-101943179D02*
X120798474Y-101950327D01*
X120754884Y-101961989D01*
X120715543Y-101978131D01*
X120685353Y-101995493D01*
X120657653Y-102016876D01*
X120635286Y-102040846D01*
X120617473Y-102068268D01*
X120614218Y-102074587D01*
X120609743Y-102083854D01*
X120605921Y-102092548D01*
X120602699Y-102101240D01*
X120600027Y-102110499D01*
X120597852Y-102120896D01*
X120596125Y-102133003D01*
X120594794Y-102147390D01*
X120593807Y-102164627D01*
X120593114Y-102185284D01*
X120592663Y-102209933D01*
X120592403Y-102239145D01*
X120592283Y-102273488D01*
X120592251Y-102313535D01*
X120592250Y-102319341D01*
X120592250Y-102488925D01*
X120572196Y-102488925D01*
X120541704Y-102490827D01*
X120516210Y-102496520D01*
X120495751Y-102505983D01*
X120480362Y-102519196D01*
X120470076Y-102536136D01*
X120465490Y-102552706D01*
X120464205Y-102576668D01*
X120468289Y-102597901D01*
X120477475Y-102615939D01*
X120491498Y-102630314D01*
X120510092Y-102640559D01*
X120516777Y-102642834D01*
X120522427Y-102644186D01*
X120529766Y-102645274D01*
X120539470Y-102646122D01*
X120552215Y-102646756D01*
X120568676Y-102647203D01*
X120589528Y-102647488D01*
X120615447Y-102647636D01*
X120643627Y-102647675D01*
X120754175Y-102647675D01*
X120754175Y-102631800D01*
X120754480Y-102622741D01*
X120755259Y-102616993D01*
X120755869Y-102615925D01*
X120759427Y-102617244D01*
X120766730Y-102620628D01*
X120772537Y-102623502D01*
X120796723Y-102634233D01*
X120825500Y-102644525D01*
X120857112Y-102653867D01*
X120889800Y-102661746D01*
X120921808Y-102667651D01*
X120926510Y-102668345D01*
X120942170Y-102670022D01*
X120961751Y-102671293D01*
X120983743Y-102672141D01*
X121006636Y-102672552D01*
X121028920Y-102672509D01*
X121049086Y-102671998D01*
X121065621Y-102671002D01*
X121075106Y-102669866D01*
X121117812Y-102659891D01*
X121157535Y-102645055D01*
X121193696Y-102625650D01*
X121225718Y-102601970D01*
X121243793Y-102584683D01*
X121263936Y-102560917D01*
X121278573Y-102537626D01*
X121288267Y-102513412D01*
X121293579Y-102486878D01*
X121295076Y-102457175D01*
X121294984Y-102452945D01*
X121125650Y-102452945D01*
X121122599Y-102468023D01*
X121113643Y-102481504D01*
X121099085Y-102493142D01*
X121079225Y-102502695D01*
X121055800Y-102509599D01*
X121040963Y-102511765D01*
X121021606Y-102512860D01*
X120999460Y-102512925D01*
X120976258Y-102512004D01*
X120953730Y-102510139D01*
X120933609Y-102507373D01*
X120928800Y-102506475D01*
X120883630Y-102494747D01*
X120836537Y-102477309D01*
X120797038Y-102458978D01*
X120752588Y-102436537D01*
X120751697Y-102397643D01*
X120751545Y-102382774D01*
X120751781Y-102370526D01*
X120752354Y-102362114D01*
X120753216Y-102358752D01*
X120753284Y-102358737D01*
X120757336Y-102358262D01*
X120766102Y-102357000D01*
X120778027Y-102355180D01*
X120784338Y-102354187D01*
X120829390Y-102348105D01*
X120872386Y-102344411D01*
X120912568Y-102343107D01*
X120949177Y-102344194D01*
X120981453Y-102347673D01*
X121008639Y-102353545D01*
X121009645Y-102353840D01*
X121039857Y-102364537D01*
X121066252Y-102377388D01*
X121088376Y-102392004D01*
X121105776Y-102407999D01*
X121117998Y-102424985D01*
X121124588Y-102442573D01*
X121125650Y-102452945D01*
X121294984Y-102452945D01*
X121294702Y-102440122D01*
X121293520Y-102426853D01*
X121291124Y-102414814D01*
X121287106Y-102401452D01*
X121285410Y-102396476D01*
X121271801Y-102365337D01*
X121253104Y-102336246D01*
X121228779Y-102308408D01*
X121219438Y-102299372D01*
X121184030Y-102270295D01*
X121145312Y-102246060D01*
X121102928Y-102226507D01*
X121056523Y-102211476D01*
X121005742Y-102200806D01*
X120998269Y-102199652D01*
X120976402Y-102197377D01*
X120949720Y-102196134D01*
X120919666Y-102195869D01*
X120887681Y-102196530D01*
X120855208Y-102198061D01*
X120823688Y-102200411D01*
X120794563Y-102203524D01*
X120769276Y-102207348D01*
X120763959Y-102208362D01*
X120753509Y-102210452D01*
X120754636Y-102181703D01*
X120755354Y-102167637D01*
X120756503Y-102158101D01*
X120758566Y-102151276D01*
X120762030Y-102145343D01*
X120765537Y-102140758D01*
X120779884Y-102127093D01*
X120798757Y-102116441D01*
X120822446Y-102108715D01*
X120851242Y-102103827D01*
X120885436Y-102101692D01*
X120896687Y-102101574D01*
X120915246Y-102101750D01*
X120932119Y-102102377D01*
X120948501Y-102103608D01*
X120965585Y-102105597D01*
X120984563Y-102108497D01*
X121006630Y-102112459D01*
X121032978Y-102117636D01*
X121051038Y-102121328D01*
X121085070Y-102127871D01*
X121113527Y-102132267D01*
X121136803Y-102134542D01*
X121155290Y-102134720D01*
X121169380Y-102132826D01*
X121178495Y-102129444D01*
X121196433Y-102116213D01*
X121209586Y-102098946D01*
X121217679Y-102078080D01*
X121220003Y-102063872D01*
X121219803Y-102042221D01*
X121214759Y-102024128D01*
X121204592Y-102008739D01*
X121200704Y-102004717D01*
X121194492Y-101999246D01*
X121187781Y-101994734D01*
X121179279Y-101990584D01*
X121167696Y-101986197D01*
X121151738Y-101980975D01*
X121144659Y-101978770D01*
X121107665Y-101967914D01*
X121074092Y-101959431D01*
X121041761Y-101952909D01*
X121008496Y-101947937D01*
X120972119Y-101944103D01*
X120953052Y-101942556D01*
X120897726Y-101940578D01*
X120846144Y-101943179D01*
X120846144Y-101943179D01*
G37*
X120846144Y-101943179D02*
X120798474Y-101950327D01*
X120754884Y-101961989D01*
X120715543Y-101978131D01*
X120685353Y-101995493D01*
X120657653Y-102016876D01*
X120635286Y-102040846D01*
X120617473Y-102068268D01*
X120614218Y-102074587D01*
X120609743Y-102083854D01*
X120605921Y-102092548D01*
X120602699Y-102101240D01*
X120600027Y-102110499D01*
X120597852Y-102120896D01*
X120596125Y-102133003D01*
X120594794Y-102147390D01*
X120593807Y-102164627D01*
X120593114Y-102185284D01*
X120592663Y-102209933D01*
X120592403Y-102239145D01*
X120592283Y-102273488D01*
X120592251Y-102313535D01*
X120592250Y-102319341D01*
X120592250Y-102488925D01*
X120572196Y-102488925D01*
X120541704Y-102490827D01*
X120516210Y-102496520D01*
X120495751Y-102505983D01*
X120480362Y-102519196D01*
X120470076Y-102536136D01*
X120465490Y-102552706D01*
X120464205Y-102576668D01*
X120468289Y-102597901D01*
X120477475Y-102615939D01*
X120491498Y-102630314D01*
X120510092Y-102640559D01*
X120516777Y-102642834D01*
X120522427Y-102644186D01*
X120529766Y-102645274D01*
X120539470Y-102646122D01*
X120552215Y-102646756D01*
X120568676Y-102647203D01*
X120589528Y-102647488D01*
X120615447Y-102647636D01*
X120643627Y-102647675D01*
X120754175Y-102647675D01*
X120754175Y-102631800D01*
X120754480Y-102622741D01*
X120755259Y-102616993D01*
X120755869Y-102615925D01*
X120759427Y-102617244D01*
X120766730Y-102620628D01*
X120772537Y-102623502D01*
X120796723Y-102634233D01*
X120825500Y-102644525D01*
X120857112Y-102653867D01*
X120889800Y-102661746D01*
X120921808Y-102667651D01*
X120926510Y-102668345D01*
X120942170Y-102670022D01*
X120961751Y-102671293D01*
X120983743Y-102672141D01*
X121006636Y-102672552D01*
X121028920Y-102672509D01*
X121049086Y-102671998D01*
X121065621Y-102671002D01*
X121075106Y-102669866D01*
X121117812Y-102659891D01*
X121157535Y-102645055D01*
X121193696Y-102625650D01*
X121225718Y-102601970D01*
X121243793Y-102584683D01*
X121263936Y-102560917D01*
X121278573Y-102537626D01*
X121288267Y-102513412D01*
X121293579Y-102486878D01*
X121295076Y-102457175D01*
X121294984Y-102452945D01*
X121125650Y-102452945D01*
X121122599Y-102468023D01*
X121113643Y-102481504D01*
X121099085Y-102493142D01*
X121079225Y-102502695D01*
X121055800Y-102509599D01*
X121040963Y-102511765D01*
X121021606Y-102512860D01*
X120999460Y-102512925D01*
X120976258Y-102512004D01*
X120953730Y-102510139D01*
X120933609Y-102507373D01*
X120928800Y-102506475D01*
X120883630Y-102494747D01*
X120836537Y-102477309D01*
X120797038Y-102458978D01*
X120752588Y-102436537D01*
X120751697Y-102397643D01*
X120751545Y-102382774D01*
X120751781Y-102370526D01*
X120752354Y-102362114D01*
X120753216Y-102358752D01*
X120753284Y-102358737D01*
X120757336Y-102358262D01*
X120766102Y-102357000D01*
X120778027Y-102355180D01*
X120784338Y-102354187D01*
X120829390Y-102348105D01*
X120872386Y-102344411D01*
X120912568Y-102343107D01*
X120949177Y-102344194D01*
X120981453Y-102347673D01*
X121008639Y-102353545D01*
X121009645Y-102353840D01*
X121039857Y-102364537D01*
X121066252Y-102377388D01*
X121088376Y-102392004D01*
X121105776Y-102407999D01*
X121117998Y-102424985D01*
X121124588Y-102442573D01*
X121125650Y-102452945D01*
X121294984Y-102452945D01*
X121294702Y-102440122D01*
X121293520Y-102426853D01*
X121291124Y-102414814D01*
X121287106Y-102401452D01*
X121285410Y-102396476D01*
X121271801Y-102365337D01*
X121253104Y-102336246D01*
X121228779Y-102308408D01*
X121219438Y-102299372D01*
X121184030Y-102270295D01*
X121145312Y-102246060D01*
X121102928Y-102226507D01*
X121056523Y-102211476D01*
X121005742Y-102200806D01*
X120998269Y-102199652D01*
X120976402Y-102197377D01*
X120949720Y-102196134D01*
X120919666Y-102195869D01*
X120887681Y-102196530D01*
X120855208Y-102198061D01*
X120823688Y-102200411D01*
X120794563Y-102203524D01*
X120769276Y-102207348D01*
X120763959Y-102208362D01*
X120753509Y-102210452D01*
X120754636Y-102181703D01*
X120755354Y-102167637D01*
X120756503Y-102158101D01*
X120758566Y-102151276D01*
X120762030Y-102145343D01*
X120765537Y-102140758D01*
X120779884Y-102127093D01*
X120798757Y-102116441D01*
X120822446Y-102108715D01*
X120851242Y-102103827D01*
X120885436Y-102101692D01*
X120896687Y-102101574D01*
X120915246Y-102101750D01*
X120932119Y-102102377D01*
X120948501Y-102103608D01*
X120965585Y-102105597D01*
X120984563Y-102108497D01*
X121006630Y-102112459D01*
X121032978Y-102117636D01*
X121051038Y-102121328D01*
X121085070Y-102127871D01*
X121113527Y-102132267D01*
X121136803Y-102134542D01*
X121155290Y-102134720D01*
X121169380Y-102132826D01*
X121178495Y-102129444D01*
X121196433Y-102116213D01*
X121209586Y-102098946D01*
X121217679Y-102078080D01*
X121220003Y-102063872D01*
X121219803Y-102042221D01*
X121214759Y-102024128D01*
X121204592Y-102008739D01*
X121200704Y-102004717D01*
X121194492Y-101999246D01*
X121187781Y-101994734D01*
X121179279Y-101990584D01*
X121167696Y-101986197D01*
X121151738Y-101980975D01*
X121144659Y-101978770D01*
X121107665Y-101967914D01*
X121074092Y-101959431D01*
X121041761Y-101952909D01*
X121008496Y-101947937D01*
X120972119Y-101944103D01*
X120953052Y-101942556D01*
X120897726Y-101940578D01*
X120846144Y-101943179D01*
G36*
X118980142Y-101942379D02*
X118933046Y-101947803D01*
X118889820Y-101957133D01*
X118872988Y-101962228D01*
X118838997Y-101976027D01*
X118807816Y-101993688D01*
X118780231Y-102014581D01*
X118757026Y-102038079D01*
X118738987Y-102063554D01*
X118733605Y-102073715D01*
X118729346Y-102082722D01*
X118725710Y-102091047D01*
X118722648Y-102099261D01*
X118720110Y-102107933D01*
X118718048Y-102117635D01*
X118716411Y-102128937D01*
X118715150Y-102142409D01*
X118714216Y-102158622D01*
X118713559Y-102178147D01*
X118713130Y-102201554D01*
X118712878Y-102229413D01*
X118712755Y-102262295D01*
X118712711Y-102300771D01*
X118712706Y-102314615D01*
X118712650Y-102487968D01*
X118680107Y-102489850D01*
X118653064Y-102492687D01*
X118631325Y-102497948D01*
X118614202Y-102505953D01*
X118601007Y-102517022D01*
X118591211Y-102531177D01*
X118587308Y-102540056D01*
X118585112Y-102549785D01*
X118584221Y-102562577D01*
X118584139Y-102570205D01*
X118584399Y-102583815D01*
X118585520Y-102593359D01*
X118588030Y-102601109D01*
X118592460Y-102609343D01*
X118593737Y-102611432D01*
X118602021Y-102622518D01*
X118612286Y-102630963D01*
X118622035Y-102636513D01*
X118640746Y-102646087D01*
X118757661Y-102647027D01*
X118874575Y-102647967D01*
X118874575Y-102616005D01*
X118892832Y-102624348D01*
X118919465Y-102635360D01*
X118949814Y-102645986D01*
X118981262Y-102655377D01*
X119011100Y-102662666D01*
X119031521Y-102666117D01*
X119055973Y-102668859D01*
X119082966Y-102670848D01*
X119111008Y-102672042D01*
X119138606Y-102672396D01*
X119164269Y-102671866D01*
X119186504Y-102670409D01*
X119202426Y-102668256D01*
X119242266Y-102658251D01*
X119279246Y-102644045D01*
X119312867Y-102626029D01*
X119342629Y-102604591D01*
X119368032Y-102580122D01*
X119388577Y-102553011D01*
X119403765Y-102523647D01*
X119409655Y-102506672D01*
X119413029Y-102488572D01*
X119414281Y-102466682D01*
X119413891Y-102454683D01*
X119245981Y-102454683D01*
X119243001Y-102467425D01*
X119234390Y-102479693D01*
X119220863Y-102490927D01*
X119203139Y-102500573D01*
X119181935Y-102508072D01*
X119174925Y-102509838D01*
X119158022Y-102512315D01*
X119136617Y-102513322D01*
X119112364Y-102512936D01*
X119086921Y-102511231D01*
X119061944Y-102508282D01*
X119039090Y-102504163D01*
X119036500Y-102503578D01*
X119002875Y-102494668D01*
X118970979Y-102483706D01*
X118938559Y-102469843D01*
X118911088Y-102456278D01*
X118872988Y-102436535D01*
X118872099Y-102397985D01*
X118871211Y-102359434D01*
X118891231Y-102355948D01*
X118929182Y-102350260D01*
X118967356Y-102346262D01*
X119004693Y-102343974D01*
X119040135Y-102343412D01*
X119072625Y-102344595D01*
X119101104Y-102347539D01*
X119123813Y-102352073D01*
X119153238Y-102361732D01*
X119179593Y-102373897D01*
X119202326Y-102388104D01*
X119220883Y-102403888D01*
X119234712Y-102420785D01*
X119243258Y-102438329D01*
X119245981Y-102454683D01*
X119413891Y-102454683D01*
X119413516Y-102443160D01*
X119410841Y-102420161D01*
X119406361Y-102399843D01*
X119404072Y-102392908D01*
X119393279Y-102368052D01*
X119380073Y-102345837D01*
X119363177Y-102324316D01*
X119349238Y-102309402D01*
X119316400Y-102279726D01*
X119280937Y-102254860D01*
X119242231Y-102234495D01*
X119199659Y-102218322D01*
X119152604Y-102206032D01*
X119134990Y-102202596D01*
X119109661Y-102199190D01*
X119079602Y-102197024D01*
X119046302Y-102196065D01*
X119011254Y-102196280D01*
X118975947Y-102197634D01*
X118941871Y-102200095D01*
X118910519Y-102203629D01*
X118883379Y-102208203D01*
X118883307Y-102208218D01*
X118874575Y-102210029D01*
X118874575Y-102184219D01*
X118875251Y-102166961D01*
X118877744Y-102154129D01*
X118882756Y-102143897D01*
X118890989Y-102134438D01*
X118895169Y-102130614D01*
X118910470Y-102119978D01*
X118929513Y-102111889D01*
X118952855Y-102106218D01*
X118981051Y-102102832D01*
X119014656Y-102101603D01*
X119018524Y-102101593D01*
X119038138Y-102101883D01*
X119056934Y-102102836D01*
X119076100Y-102104608D01*
X119096829Y-102107352D01*
X119120310Y-102111224D01*
X119147734Y-102116377D01*
X119175232Y-102121921D01*
X119205062Y-102127852D01*
X119229549Y-102132127D01*
X119249486Y-102134719D01*
X119265669Y-102135601D01*
X119278891Y-102134743D01*
X119289948Y-102132120D01*
X119299632Y-102127703D01*
X119308739Y-102121464D01*
X119313979Y-102117080D01*
X119327270Y-102101485D01*
X119336067Y-102082884D01*
X119340212Y-102062662D01*
X119339545Y-102042201D01*
X119333908Y-102022886D01*
X119326266Y-102009910D01*
X119319565Y-102002888D01*
X119310136Y-101996388D01*
X119297183Y-101990040D01*
X119279907Y-101983479D01*
X119257513Y-101976335D01*
X119246310Y-101973050D01*
X119191592Y-101959286D01*
X119136834Y-101949314D01*
X119082818Y-101943157D01*
X119030327Y-101940838D01*
X118980142Y-101942379D01*
X118980142Y-101942379D01*
G37*
X118980142Y-101942379D02*
X118933046Y-101947803D01*
X118889820Y-101957133D01*
X118872988Y-101962228D01*
X118838997Y-101976027D01*
X118807816Y-101993688D01*
X118780231Y-102014581D01*
X118757026Y-102038079D01*
X118738987Y-102063554D01*
X118733605Y-102073715D01*
X118729346Y-102082722D01*
X118725710Y-102091047D01*
X118722648Y-102099261D01*
X118720110Y-102107933D01*
X118718048Y-102117635D01*
X118716411Y-102128937D01*
X118715150Y-102142409D01*
X118714216Y-102158622D01*
X118713559Y-102178147D01*
X118713130Y-102201554D01*
X118712878Y-102229413D01*
X118712755Y-102262295D01*
X118712711Y-102300771D01*
X118712706Y-102314615D01*
X118712650Y-102487968D01*
X118680107Y-102489850D01*
X118653064Y-102492687D01*
X118631325Y-102497948D01*
X118614202Y-102505953D01*
X118601007Y-102517022D01*
X118591211Y-102531177D01*
X118587308Y-102540056D01*
X118585112Y-102549785D01*
X118584221Y-102562577D01*
X118584139Y-102570205D01*
X118584399Y-102583815D01*
X118585520Y-102593359D01*
X118588030Y-102601109D01*
X118592460Y-102609343D01*
X118593737Y-102611432D01*
X118602021Y-102622518D01*
X118612286Y-102630963D01*
X118622035Y-102636513D01*
X118640746Y-102646087D01*
X118757661Y-102647027D01*
X118874575Y-102647967D01*
X118874575Y-102616005D01*
X118892832Y-102624348D01*
X118919465Y-102635360D01*
X118949814Y-102645986D01*
X118981262Y-102655377D01*
X119011100Y-102662666D01*
X119031521Y-102666117D01*
X119055973Y-102668859D01*
X119082966Y-102670848D01*
X119111008Y-102672042D01*
X119138606Y-102672396D01*
X119164269Y-102671866D01*
X119186504Y-102670409D01*
X119202426Y-102668256D01*
X119242266Y-102658251D01*
X119279246Y-102644045D01*
X119312867Y-102626029D01*
X119342629Y-102604591D01*
X119368032Y-102580122D01*
X119388577Y-102553011D01*
X119403765Y-102523647D01*
X119409655Y-102506672D01*
X119413029Y-102488572D01*
X119414281Y-102466682D01*
X119413891Y-102454683D01*
X119245981Y-102454683D01*
X119243001Y-102467425D01*
X119234390Y-102479693D01*
X119220863Y-102490927D01*
X119203139Y-102500573D01*
X119181935Y-102508072D01*
X119174925Y-102509838D01*
X119158022Y-102512315D01*
X119136617Y-102513322D01*
X119112364Y-102512936D01*
X119086921Y-102511231D01*
X119061944Y-102508282D01*
X119039090Y-102504163D01*
X119036500Y-102503578D01*
X119002875Y-102494668D01*
X118970979Y-102483706D01*
X118938559Y-102469843D01*
X118911088Y-102456278D01*
X118872988Y-102436535D01*
X118872099Y-102397985D01*
X118871211Y-102359434D01*
X118891231Y-102355948D01*
X118929182Y-102350260D01*
X118967356Y-102346262D01*
X119004693Y-102343974D01*
X119040135Y-102343412D01*
X119072625Y-102344595D01*
X119101104Y-102347539D01*
X119123813Y-102352073D01*
X119153238Y-102361732D01*
X119179593Y-102373897D01*
X119202326Y-102388104D01*
X119220883Y-102403888D01*
X119234712Y-102420785D01*
X119243258Y-102438329D01*
X119245981Y-102454683D01*
X119413891Y-102454683D01*
X119413516Y-102443160D01*
X119410841Y-102420161D01*
X119406361Y-102399843D01*
X119404072Y-102392908D01*
X119393279Y-102368052D01*
X119380073Y-102345837D01*
X119363177Y-102324316D01*
X119349238Y-102309402D01*
X119316400Y-102279726D01*
X119280937Y-102254860D01*
X119242231Y-102234495D01*
X119199659Y-102218322D01*
X119152604Y-102206032D01*
X119134990Y-102202596D01*
X119109661Y-102199190D01*
X119079602Y-102197024D01*
X119046302Y-102196065D01*
X119011254Y-102196280D01*
X118975947Y-102197634D01*
X118941871Y-102200095D01*
X118910519Y-102203629D01*
X118883379Y-102208203D01*
X118883307Y-102208218D01*
X118874575Y-102210029D01*
X118874575Y-102184219D01*
X118875251Y-102166961D01*
X118877744Y-102154129D01*
X118882756Y-102143897D01*
X118890989Y-102134438D01*
X118895169Y-102130614D01*
X118910470Y-102119978D01*
X118929513Y-102111889D01*
X118952855Y-102106218D01*
X118981051Y-102102832D01*
X119014656Y-102101603D01*
X119018524Y-102101593D01*
X119038138Y-102101883D01*
X119056934Y-102102836D01*
X119076100Y-102104608D01*
X119096829Y-102107352D01*
X119120310Y-102111224D01*
X119147734Y-102116377D01*
X119175232Y-102121921D01*
X119205062Y-102127852D01*
X119229549Y-102132127D01*
X119249486Y-102134719D01*
X119265669Y-102135601D01*
X119278891Y-102134743D01*
X119289948Y-102132120D01*
X119299632Y-102127703D01*
X119308739Y-102121464D01*
X119313979Y-102117080D01*
X119327270Y-102101485D01*
X119336067Y-102082884D01*
X119340212Y-102062662D01*
X119339545Y-102042201D01*
X119333908Y-102022886D01*
X119326266Y-102009910D01*
X119319565Y-102002888D01*
X119310136Y-101996388D01*
X119297183Y-101990040D01*
X119279907Y-101983479D01*
X119257513Y-101976335D01*
X119246310Y-101973050D01*
X119191592Y-101959286D01*
X119136834Y-101949314D01*
X119082818Y-101943157D01*
X119030327Y-101940838D01*
X118980142Y-101942379D01*
G36*
X125250093Y-101712705D02*
X125233806Y-101718438D01*
X125224319Y-101724668D01*
X125216943Y-101732961D01*
X125210288Y-101744396D01*
X125200763Y-101762967D01*
X125199772Y-101867280D01*
X125199535Y-101897119D01*
X125199464Y-101921332D01*
X125199582Y-101940642D01*
X125199912Y-101955770D01*
X125200478Y-101967440D01*
X125201303Y-101976374D01*
X125202410Y-101983295D01*
X125203657Y-101988364D01*
X125211615Y-102008773D01*
X125222388Y-102023817D01*
X125236588Y-102033946D01*
X125254830Y-102039605D01*
X125276150Y-102041250D01*
X125290042Y-102040671D01*
X125302563Y-102039137D01*
X125311265Y-102036951D01*
X125311434Y-102036881D01*
X125322557Y-102030143D01*
X125332357Y-102019474D01*
X125341178Y-102004273D01*
X125349367Y-101983941D01*
X125357271Y-101957878D01*
X125357516Y-101956968D01*
X125365338Y-101939699D01*
X125378750Y-101923873D01*
X125397115Y-101909690D01*
X125419795Y-101897352D01*
X125446152Y-101887061D01*
X125475550Y-101879017D01*
X125507351Y-101873422D01*
X125540917Y-101870477D01*
X125575610Y-101870384D01*
X125610795Y-101873343D01*
X125618834Y-101874468D01*
X125660635Y-101883655D01*
X125699127Y-101897950D01*
X125733992Y-101917056D01*
X125764912Y-101940677D01*
X125791568Y-101968517D01*
X125813642Y-102000277D01*
X125830816Y-102035663D01*
X125842772Y-102074376D01*
X125845044Y-102085256D01*
X125846827Y-102098560D01*
X125848253Y-102116898D01*
X125849320Y-102139128D01*
X125850029Y-102164109D01*
X125850380Y-102190700D01*
X125850372Y-102217759D01*
X125850007Y-102244145D01*
X125849284Y-102268716D01*
X125848203Y-102290331D01*
X125846763Y-102307849D01*
X125845036Y-102319792D01*
X125834542Y-102357609D01*
X125819526Y-102391143D01*
X125799917Y-102420455D01*
X125775642Y-102445602D01*
X125746630Y-102466643D01*
X125712807Y-102483638D01*
X125674103Y-102496646D01*
X125630445Y-102505725D01*
X125615184Y-102507839D01*
X125571209Y-102511049D01*
X125525528Y-102510329D01*
X125479810Y-102505863D01*
X125435728Y-102497839D01*
X125394951Y-102486441D01*
X125382532Y-102481981D01*
X125357925Y-102472588D01*
X125357925Y-102368902D01*
X125452382Y-102367493D01*
X125482581Y-102366968D01*
X125507210Y-102366312D01*
X125527047Y-102365416D01*
X125542871Y-102364173D01*
X125555462Y-102362474D01*
X125565598Y-102360210D01*
X125574059Y-102357273D01*
X125581624Y-102353554D01*
X125589072Y-102348946D01*
X125589981Y-102348337D01*
X125602733Y-102336063D01*
X125611758Y-102319500D01*
X125616742Y-102299714D01*
X125617371Y-102277769D01*
X125615243Y-102262601D01*
X125609333Y-102245383D01*
X125599127Y-102231763D01*
X125583908Y-102220956D01*
X125572238Y-102215561D01*
X125553188Y-102207937D01*
X125378563Y-102207937D01*
X125340399Y-102207952D01*
X125308039Y-102208006D01*
X125280937Y-102208116D01*
X125258548Y-102208298D01*
X125240326Y-102208567D01*
X125225726Y-102208940D01*
X125214201Y-102209432D01*
X125205206Y-102210060D01*
X125198195Y-102210840D01*
X125192622Y-102211787D01*
X125187943Y-102212917D01*
X125185696Y-102213578D01*
X125165083Y-102222765D01*
X125149327Y-102235933D01*
X125138638Y-102252803D01*
X125133229Y-102273095D01*
X125132570Y-102283769D01*
X125134763Y-102307377D01*
X125141709Y-102326916D01*
X125153668Y-102342806D01*
X125170902Y-102355468D01*
X125179925Y-102359991D01*
X125199175Y-102368631D01*
X125199175Y-102575067D01*
X125244419Y-102596749D01*
X125284386Y-102615152D01*
X125320798Y-102630222D01*
X125355147Y-102642481D01*
X125388923Y-102652453D01*
X125423617Y-102660659D01*
X125430950Y-102662166D01*
X125443770Y-102664021D01*
X125461689Y-102665616D01*
X125483460Y-102666925D01*
X125507837Y-102667923D01*
X125533574Y-102668583D01*
X125559424Y-102668881D01*
X125584140Y-102668791D01*
X125606476Y-102668287D01*
X125625186Y-102667343D01*
X125635738Y-102666374D01*
X125675872Y-102659972D01*
X125716506Y-102650536D01*
X125755867Y-102638591D01*
X125792182Y-102624665D01*
X125818300Y-102612211D01*
X125856697Y-102588292D01*
X125891534Y-102559389D01*
X125922516Y-102525966D01*
X125949347Y-102488485D01*
X125971729Y-102447410D01*
X125989366Y-102403205D01*
X126001961Y-102356333D01*
X126008458Y-102314969D01*
X126009743Y-102298693D01*
X126010726Y-102277430D01*
X126011407Y-102252535D01*
X126011784Y-102225364D01*
X126011855Y-102197272D01*
X126011619Y-102169616D01*
X126011076Y-102143750D01*
X126010224Y-102121030D01*
X126009061Y-102102812D01*
X126008661Y-102098522D01*
X126001428Y-102052572D01*
X125989482Y-102007492D01*
X125973377Y-101965287D01*
X125969442Y-101956819D01*
X125954115Y-101927100D01*
X125938221Y-101901132D01*
X125920405Y-101877017D01*
X125899309Y-101852857D01*
X125883401Y-101836435D01*
X125847999Y-101804109D01*
X125811593Y-101777277D01*
X125773131Y-101755371D01*
X125731562Y-101737821D01*
X125685835Y-101724059D01*
X125668086Y-101719908D01*
X125656359Y-101717515D01*
X125645300Y-101715722D01*
X125633690Y-101714446D01*
X125620310Y-101713603D01*
X125603940Y-101713112D01*
X125583361Y-101712888D01*
X125564300Y-101712846D01*
X125537238Y-101712982D01*
X125515367Y-101713437D01*
X125497533Y-101714276D01*
X125482583Y-101715562D01*
X125469363Y-101717359D01*
X125462912Y-101718494D01*
X125436803Y-101724313D01*
X125408885Y-101732053D01*
X125381775Y-101740917D01*
X125358090Y-101750110D01*
X125355845Y-101751090D01*
X125344119Y-101755641D01*
X125337617Y-101756616D01*
X125336261Y-101755593D01*
X125331855Y-101747616D01*
X125324086Y-101737803D01*
X125314707Y-101728075D01*
X125305471Y-101720355D01*
X125302215Y-101718264D01*
X125286716Y-101712602D01*
X125268541Y-101710751D01*
X125250093Y-101712705D01*
X125250093Y-101712705D01*
G37*
X125250093Y-101712705D02*
X125233806Y-101718438D01*
X125224319Y-101724668D01*
X125216943Y-101732961D01*
X125210288Y-101744396D01*
X125200763Y-101762967D01*
X125199772Y-101867280D01*
X125199535Y-101897119D01*
X125199464Y-101921332D01*
X125199582Y-101940642D01*
X125199912Y-101955770D01*
X125200478Y-101967440D01*
X125201303Y-101976374D01*
X125202410Y-101983295D01*
X125203657Y-101988364D01*
X125211615Y-102008773D01*
X125222388Y-102023817D01*
X125236588Y-102033946D01*
X125254830Y-102039605D01*
X125276150Y-102041250D01*
X125290042Y-102040671D01*
X125302563Y-102039137D01*
X125311265Y-102036951D01*
X125311434Y-102036881D01*
X125322557Y-102030143D01*
X125332357Y-102019474D01*
X125341178Y-102004273D01*
X125349367Y-101983941D01*
X125357271Y-101957878D01*
X125357516Y-101956968D01*
X125365338Y-101939699D01*
X125378750Y-101923873D01*
X125397115Y-101909690D01*
X125419795Y-101897352D01*
X125446152Y-101887061D01*
X125475550Y-101879017D01*
X125507351Y-101873422D01*
X125540917Y-101870477D01*
X125575610Y-101870384D01*
X125610795Y-101873343D01*
X125618834Y-101874468D01*
X125660635Y-101883655D01*
X125699127Y-101897950D01*
X125733992Y-101917056D01*
X125764912Y-101940677D01*
X125791568Y-101968517D01*
X125813642Y-102000277D01*
X125830816Y-102035663D01*
X125842772Y-102074376D01*
X125845044Y-102085256D01*
X125846827Y-102098560D01*
X125848253Y-102116898D01*
X125849320Y-102139128D01*
X125850029Y-102164109D01*
X125850380Y-102190700D01*
X125850372Y-102217759D01*
X125850007Y-102244145D01*
X125849284Y-102268716D01*
X125848203Y-102290331D01*
X125846763Y-102307849D01*
X125845036Y-102319792D01*
X125834542Y-102357609D01*
X125819526Y-102391143D01*
X125799917Y-102420455D01*
X125775642Y-102445602D01*
X125746630Y-102466643D01*
X125712807Y-102483638D01*
X125674103Y-102496646D01*
X125630445Y-102505725D01*
X125615184Y-102507839D01*
X125571209Y-102511049D01*
X125525528Y-102510329D01*
X125479810Y-102505863D01*
X125435728Y-102497839D01*
X125394951Y-102486441D01*
X125382532Y-102481981D01*
X125357925Y-102472588D01*
X125357925Y-102368902D01*
X125452382Y-102367493D01*
X125482581Y-102366968D01*
X125507210Y-102366312D01*
X125527047Y-102365416D01*
X125542871Y-102364173D01*
X125555462Y-102362474D01*
X125565598Y-102360210D01*
X125574059Y-102357273D01*
X125581624Y-102353554D01*
X125589072Y-102348946D01*
X125589981Y-102348337D01*
X125602733Y-102336063D01*
X125611758Y-102319500D01*
X125616742Y-102299714D01*
X125617371Y-102277769D01*
X125615243Y-102262601D01*
X125609333Y-102245383D01*
X125599127Y-102231763D01*
X125583908Y-102220956D01*
X125572238Y-102215561D01*
X125553188Y-102207937D01*
X125378563Y-102207937D01*
X125340399Y-102207952D01*
X125308039Y-102208006D01*
X125280937Y-102208116D01*
X125258548Y-102208298D01*
X125240326Y-102208567D01*
X125225726Y-102208940D01*
X125214201Y-102209432D01*
X125205206Y-102210060D01*
X125198195Y-102210840D01*
X125192622Y-102211787D01*
X125187943Y-102212917D01*
X125185696Y-102213578D01*
X125165083Y-102222765D01*
X125149327Y-102235933D01*
X125138638Y-102252803D01*
X125133229Y-102273095D01*
X125132570Y-102283769D01*
X125134763Y-102307377D01*
X125141709Y-102326916D01*
X125153668Y-102342806D01*
X125170902Y-102355468D01*
X125179925Y-102359991D01*
X125199175Y-102368631D01*
X125199175Y-102575067D01*
X125244419Y-102596749D01*
X125284386Y-102615152D01*
X125320798Y-102630222D01*
X125355147Y-102642481D01*
X125388923Y-102652453D01*
X125423617Y-102660659D01*
X125430950Y-102662166D01*
X125443770Y-102664021D01*
X125461689Y-102665616D01*
X125483460Y-102666925D01*
X125507837Y-102667923D01*
X125533574Y-102668583D01*
X125559424Y-102668881D01*
X125584140Y-102668791D01*
X125606476Y-102668287D01*
X125625186Y-102667343D01*
X125635738Y-102666374D01*
X125675872Y-102659972D01*
X125716506Y-102650536D01*
X125755867Y-102638591D01*
X125792182Y-102624665D01*
X125818300Y-102612211D01*
X125856697Y-102588292D01*
X125891534Y-102559389D01*
X125922516Y-102525966D01*
X125949347Y-102488485D01*
X125971729Y-102447410D01*
X125989366Y-102403205D01*
X126001961Y-102356333D01*
X126008458Y-102314969D01*
X126009743Y-102298693D01*
X126010726Y-102277430D01*
X126011407Y-102252535D01*
X126011784Y-102225364D01*
X126011855Y-102197272D01*
X126011619Y-102169616D01*
X126011076Y-102143750D01*
X126010224Y-102121030D01*
X126009061Y-102102812D01*
X126008661Y-102098522D01*
X126001428Y-102052572D01*
X125989482Y-102007492D01*
X125973377Y-101965287D01*
X125969442Y-101956819D01*
X125954115Y-101927100D01*
X125938221Y-101901132D01*
X125920405Y-101877017D01*
X125899309Y-101852857D01*
X125883401Y-101836435D01*
X125847999Y-101804109D01*
X125811593Y-101777277D01*
X125773131Y-101755371D01*
X125731562Y-101737821D01*
X125685835Y-101724059D01*
X125668086Y-101719908D01*
X125656359Y-101717515D01*
X125645300Y-101715722D01*
X125633690Y-101714446D01*
X125620310Y-101713603D01*
X125603940Y-101713112D01*
X125583361Y-101712888D01*
X125564300Y-101712846D01*
X125537238Y-101712982D01*
X125515367Y-101713437D01*
X125497533Y-101714276D01*
X125482583Y-101715562D01*
X125469363Y-101717359D01*
X125462912Y-101718494D01*
X125436803Y-101724313D01*
X125408885Y-101732053D01*
X125381775Y-101740917D01*
X125358090Y-101750110D01*
X125355845Y-101751090D01*
X125344119Y-101755641D01*
X125337617Y-101756616D01*
X125336261Y-101755593D01*
X125331855Y-101747616D01*
X125324086Y-101737803D01*
X125314707Y-101728075D01*
X125305471Y-101720355D01*
X125302215Y-101718264D01*
X125286716Y-101712602D01*
X125268541Y-101710751D01*
X125250093Y-101712705D01*
G36*
X124691406Y-101733637D02*
X124665736Y-101733904D01*
X124643815Y-101734347D01*
X124625125Y-101734990D01*
X124609145Y-101735858D01*
X124595355Y-101736974D01*
X124583236Y-101738362D01*
X124572267Y-101740047D01*
X124561928Y-101742053D01*
X124551700Y-101744403D01*
X124541063Y-101747122D01*
X124537939Y-101747954D01*
X124498392Y-101761276D01*
X124461136Y-101779222D01*
X124426861Y-101801244D01*
X124396257Y-101826796D01*
X124370013Y-101855329D01*
X124348820Y-101886297D01*
X124338789Y-101905876D01*
X124326920Y-101939161D01*
X124319633Y-101975128D01*
X124317201Y-102011790D01*
X124319547Y-102044821D01*
X124327587Y-102080401D01*
X124341138Y-102113700D01*
X124360434Y-102145147D01*
X124385708Y-102175175D01*
X124395886Y-102185310D01*
X124406565Y-102194889D01*
X124419432Y-102205474D01*
X124433425Y-102216303D01*
X124447484Y-102226612D01*
X124460550Y-102235637D01*
X124471561Y-102242616D01*
X124479457Y-102246784D01*
X124482435Y-102247625D01*
X124481582Y-102249686D01*
X124476892Y-102255319D01*
X124469107Y-102263696D01*
X124458970Y-102273988D01*
X124457481Y-102275459D01*
X124413558Y-102321791D01*
X124370780Y-102372870D01*
X124330443Y-102427092D01*
X124308575Y-102459506D01*
X124289538Y-102488825D01*
X124270488Y-102488930D01*
X124249732Y-102490296D01*
X124229239Y-102493867D01*
X124210893Y-102499190D01*
X124196579Y-102505810D01*
X124194288Y-102507304D01*
X124180183Y-102520228D01*
X124171029Y-102536123D01*
X124166478Y-102555741D01*
X124165809Y-102568300D01*
X124167902Y-102591429D01*
X124174557Y-102610249D01*
X124186035Y-102625117D01*
X124202594Y-102636392D01*
X124219884Y-102643130D01*
X124226817Y-102644675D01*
X124236551Y-102645860D01*
X124249809Y-102646717D01*
X124267310Y-102647283D01*
X124289778Y-102647590D01*
X124315264Y-102647675D01*
X124395543Y-102647675D01*
X124413370Y-102615911D01*
X124431902Y-102584470D01*
X124452684Y-102551981D01*
X124475202Y-102519070D01*
X124498940Y-102486366D01*
X124523385Y-102454494D01*
X124548022Y-102424081D01*
X124572336Y-102395753D01*
X124595813Y-102370139D01*
X124617938Y-102347863D01*
X124638198Y-102329553D01*
X124656077Y-102315835D01*
X124663634Y-102311081D01*
X124680063Y-102301659D01*
X124755469Y-102301629D01*
X124830875Y-102301600D01*
X124830875Y-102488925D01*
X124795157Y-102488980D01*
X124763974Y-102490151D01*
X124738233Y-102493688D01*
X124717408Y-102499781D01*
X124700976Y-102508623D01*
X124688412Y-102520403D01*
X124681725Y-102530340D01*
X124677302Y-102539676D01*
X124674881Y-102549213D01*
X124673944Y-102561457D01*
X124673867Y-102568300D01*
X124675994Y-102591286D01*
X124682465Y-102609852D01*
X124693428Y-102624344D01*
X124700503Y-102630075D01*
X124706209Y-102633917D01*
X124711702Y-102637155D01*
X124717557Y-102639840D01*
X124724350Y-102642024D01*
X124732657Y-102643757D01*
X124743054Y-102645091D01*
X124756116Y-102646077D01*
X124772419Y-102646767D01*
X124792539Y-102647210D01*
X124817052Y-102647460D01*
X124846532Y-102647566D01*
X124881556Y-102647580D01*
X124897261Y-102647571D01*
X124932911Y-102647531D01*
X124962794Y-102647450D01*
X124987496Y-102647308D01*
X125007600Y-102647085D01*
X125023690Y-102646760D01*
X125036351Y-102646314D01*
X125046167Y-102645725D01*
X125053722Y-102644975D01*
X125059599Y-102644043D01*
X125064384Y-102642909D01*
X125068316Y-102641672D01*
X125087884Y-102631968D01*
X125102694Y-102618198D01*
X125112570Y-102600693D01*
X125117335Y-102579783D01*
X125116814Y-102555799D01*
X125116239Y-102551772D01*
X125110234Y-102532381D01*
X125098995Y-102516427D01*
X125082689Y-102504011D01*
X125061485Y-102495233D01*
X125035552Y-102490195D01*
X125011267Y-102488925D01*
X124992800Y-102488925D01*
X124992800Y-102142850D01*
X124830875Y-102142850D01*
X124780869Y-102142822D01*
X124758935Y-102142583D01*
X124734739Y-102141952D01*
X124711017Y-102141019D01*
X124690504Y-102139877D01*
X124687907Y-102139696D01*
X124654126Y-102136283D01*
X124624865Y-102131059D01*
X124598456Y-102123625D01*
X124573227Y-102113585D01*
X124567979Y-102111134D01*
X124546150Y-102098724D01*
X124526296Y-102083676D01*
X124509723Y-102067161D01*
X124497736Y-102050353D01*
X124495499Y-102046012D01*
X124490039Y-102028876D01*
X124487889Y-102009361D01*
X124489103Y-101990000D01*
X124493733Y-101973327D01*
X124493978Y-101972779D01*
X124506258Y-101953041D01*
X124524071Y-101935048D01*
X124546714Y-101919347D01*
X124573487Y-101906483D01*
X124584564Y-101902462D01*
X124591509Y-101900187D01*
X124597776Y-101898349D01*
X124604131Y-101896893D01*
X124611343Y-101895764D01*
X124620180Y-101894906D01*
X124631409Y-101894266D01*
X124645797Y-101893787D01*
X124664114Y-101893416D01*
X124687126Y-101893096D01*
X124715601Y-101892774D01*
X124720544Y-101892720D01*
X124830875Y-101891522D01*
X124830875Y-102142850D01*
X124992800Y-102142850D01*
X124992800Y-101892948D01*
X125023757Y-101891146D01*
X125051947Y-101887902D01*
X125074708Y-101881625D01*
X125092308Y-101872087D01*
X125105015Y-101859058D01*
X125113098Y-101842309D01*
X125116825Y-101821612D01*
X125117155Y-101811428D01*
X125115508Y-101789327D01*
X125110405Y-101771937D01*
X125101315Y-101758336D01*
X125087708Y-101747597D01*
X125077419Y-101742262D01*
X125061063Y-101734862D01*
X124841988Y-101733845D01*
X124796118Y-101733650D01*
X124756077Y-101733534D01*
X124721347Y-101733522D01*
X124691406Y-101733637D01*
X124691406Y-101733637D01*
G37*
X124691406Y-101733637D02*
X124665736Y-101733904D01*
X124643815Y-101734347D01*
X124625125Y-101734990D01*
X124609145Y-101735858D01*
X124595355Y-101736974D01*
X124583236Y-101738362D01*
X124572267Y-101740047D01*
X124561928Y-101742053D01*
X124551700Y-101744403D01*
X124541063Y-101747122D01*
X124537939Y-101747954D01*
X124498392Y-101761276D01*
X124461136Y-101779222D01*
X124426861Y-101801244D01*
X124396257Y-101826796D01*
X124370013Y-101855329D01*
X124348820Y-101886297D01*
X124338789Y-101905876D01*
X124326920Y-101939161D01*
X124319633Y-101975128D01*
X124317201Y-102011790D01*
X124319547Y-102044821D01*
X124327587Y-102080401D01*
X124341138Y-102113700D01*
X124360434Y-102145147D01*
X124385708Y-102175175D01*
X124395886Y-102185310D01*
X124406565Y-102194889D01*
X124419432Y-102205474D01*
X124433425Y-102216303D01*
X124447484Y-102226612D01*
X124460550Y-102235637D01*
X124471561Y-102242616D01*
X124479457Y-102246784D01*
X124482435Y-102247625D01*
X124481582Y-102249686D01*
X124476892Y-102255319D01*
X124469107Y-102263696D01*
X124458970Y-102273988D01*
X124457481Y-102275459D01*
X124413558Y-102321791D01*
X124370780Y-102372870D01*
X124330443Y-102427092D01*
X124308575Y-102459506D01*
X124289538Y-102488825D01*
X124270488Y-102488930D01*
X124249732Y-102490296D01*
X124229239Y-102493867D01*
X124210893Y-102499190D01*
X124196579Y-102505810D01*
X124194288Y-102507304D01*
X124180183Y-102520228D01*
X124171029Y-102536123D01*
X124166478Y-102555741D01*
X124165809Y-102568300D01*
X124167902Y-102591429D01*
X124174557Y-102610249D01*
X124186035Y-102625117D01*
X124202594Y-102636392D01*
X124219884Y-102643130D01*
X124226817Y-102644675D01*
X124236551Y-102645860D01*
X124249809Y-102646717D01*
X124267310Y-102647283D01*
X124289778Y-102647590D01*
X124315264Y-102647675D01*
X124395543Y-102647675D01*
X124413370Y-102615911D01*
X124431902Y-102584470D01*
X124452684Y-102551981D01*
X124475202Y-102519070D01*
X124498940Y-102486366D01*
X124523385Y-102454494D01*
X124548022Y-102424081D01*
X124572336Y-102395753D01*
X124595813Y-102370139D01*
X124617938Y-102347863D01*
X124638198Y-102329553D01*
X124656077Y-102315835D01*
X124663634Y-102311081D01*
X124680063Y-102301659D01*
X124755469Y-102301629D01*
X124830875Y-102301600D01*
X124830875Y-102488925D01*
X124795157Y-102488980D01*
X124763974Y-102490151D01*
X124738233Y-102493688D01*
X124717408Y-102499781D01*
X124700976Y-102508623D01*
X124688412Y-102520403D01*
X124681725Y-102530340D01*
X124677302Y-102539676D01*
X124674881Y-102549213D01*
X124673944Y-102561457D01*
X124673867Y-102568300D01*
X124675994Y-102591286D01*
X124682465Y-102609852D01*
X124693428Y-102624344D01*
X124700503Y-102630075D01*
X124706209Y-102633917D01*
X124711702Y-102637155D01*
X124717557Y-102639840D01*
X124724350Y-102642024D01*
X124732657Y-102643757D01*
X124743054Y-102645091D01*
X124756116Y-102646077D01*
X124772419Y-102646767D01*
X124792539Y-102647210D01*
X124817052Y-102647460D01*
X124846532Y-102647566D01*
X124881556Y-102647580D01*
X124897261Y-102647571D01*
X124932911Y-102647531D01*
X124962794Y-102647450D01*
X124987496Y-102647308D01*
X125007600Y-102647085D01*
X125023690Y-102646760D01*
X125036351Y-102646314D01*
X125046167Y-102645725D01*
X125053722Y-102644975D01*
X125059599Y-102644043D01*
X125064384Y-102642909D01*
X125068316Y-102641672D01*
X125087884Y-102631968D01*
X125102694Y-102618198D01*
X125112570Y-102600693D01*
X125117335Y-102579783D01*
X125116814Y-102555799D01*
X125116239Y-102551772D01*
X125110234Y-102532381D01*
X125098995Y-102516427D01*
X125082689Y-102504011D01*
X125061485Y-102495233D01*
X125035552Y-102490195D01*
X125011267Y-102488925D01*
X124992800Y-102488925D01*
X124992800Y-102142850D01*
X124830875Y-102142850D01*
X124780869Y-102142822D01*
X124758935Y-102142583D01*
X124734739Y-102141952D01*
X124711017Y-102141019D01*
X124690504Y-102139877D01*
X124687907Y-102139696D01*
X124654126Y-102136283D01*
X124624865Y-102131059D01*
X124598456Y-102123625D01*
X124573227Y-102113585D01*
X124567979Y-102111134D01*
X124546150Y-102098724D01*
X124526296Y-102083676D01*
X124509723Y-102067161D01*
X124497736Y-102050353D01*
X124495499Y-102046012D01*
X124490039Y-102028876D01*
X124487889Y-102009361D01*
X124489103Y-101990000D01*
X124493733Y-101973327D01*
X124493978Y-101972779D01*
X124506258Y-101953041D01*
X124524071Y-101935048D01*
X124546714Y-101919347D01*
X124573487Y-101906483D01*
X124584564Y-101902462D01*
X124591509Y-101900187D01*
X124597776Y-101898349D01*
X124604131Y-101896893D01*
X124611343Y-101895764D01*
X124620180Y-101894906D01*
X124631409Y-101894266D01*
X124645797Y-101893787D01*
X124664114Y-101893416D01*
X124687126Y-101893096D01*
X124715601Y-101892774D01*
X124720544Y-101892720D01*
X124830875Y-101891522D01*
X124830875Y-102142850D01*
X124992800Y-102142850D01*
X124992800Y-101892948D01*
X125023757Y-101891146D01*
X125051947Y-101887902D01*
X125074708Y-101881625D01*
X125092308Y-101872087D01*
X125105015Y-101859058D01*
X125113098Y-101842309D01*
X125116825Y-101821612D01*
X125117155Y-101811428D01*
X125115508Y-101789327D01*
X125110405Y-101771937D01*
X125101315Y-101758336D01*
X125087708Y-101747597D01*
X125077419Y-101742262D01*
X125061063Y-101734862D01*
X124841988Y-101733845D01*
X124796118Y-101733650D01*
X124756077Y-101733534D01*
X124721347Y-101733522D01*
X124691406Y-101733637D01*
G36*
X121733334Y-101943975D02*
X121692717Y-101950693D01*
X121655799Y-101962111D01*
X121622118Y-101978402D01*
X121591211Y-101999739D01*
X121568183Y-102020547D01*
X121554551Y-102034934D01*
X121544251Y-102047719D01*
X121535608Y-102061208D01*
X121527586Y-102076412D01*
X121521981Y-102087964D01*
X121517202Y-102098628D01*
X121513185Y-102109011D01*
X121509862Y-102119721D01*
X121507167Y-102131365D01*
X121505036Y-102144550D01*
X121503402Y-102159883D01*
X121502199Y-102177973D01*
X121501361Y-102199427D01*
X121500822Y-102224851D01*
X121500517Y-102254854D01*
X121500378Y-102290042D01*
X121500342Y-102327383D01*
X121500300Y-102488104D01*
X121480457Y-102490329D01*
X121455607Y-102495180D01*
X121435906Y-102503683D01*
X121421198Y-102515999D01*
X121411325Y-102532291D01*
X121406131Y-102552721D01*
X121405190Y-102568300D01*
X121406881Y-102590033D01*
X121412202Y-102607302D01*
X121421528Y-102621093D01*
X121427207Y-102626492D01*
X121433076Y-102631370D01*
X121438421Y-102635363D01*
X121443925Y-102638559D01*
X121450269Y-102641048D01*
X121458137Y-102642917D01*
X121468210Y-102644255D01*
X121481172Y-102645151D01*
X121497704Y-102645694D01*
X121518488Y-102645971D01*
X121544208Y-102646073D01*
X121575545Y-102646087D01*
X121695563Y-102646087D01*
X121714613Y-102636562D01*
X121731518Y-102626145D01*
X121743076Y-102613911D01*
X121750103Y-102598609D01*
X121753417Y-102578987D01*
X121753567Y-102576867D01*
X121753118Y-102552619D01*
X121748207Y-102532716D01*
X121738593Y-102516866D01*
X121724034Y-102504777D01*
X121704290Y-102496159D01*
X121682756Y-102491265D01*
X121659050Y-102487493D01*
X121659050Y-102342826D01*
X121659084Y-102305545D01*
X121659220Y-102274025D01*
X121659516Y-102247677D01*
X121660026Y-102225912D01*
X121660807Y-102208142D01*
X121661914Y-102193778D01*
X121663402Y-102182230D01*
X121665327Y-102172911D01*
X121667745Y-102165230D01*
X121670711Y-102158600D01*
X121674281Y-102152431D01*
X121677486Y-102147612D01*
X121690082Y-102133759D01*
X121707136Y-102121309D01*
X121726757Y-102111544D01*
X121734857Y-102108691D01*
X121744842Y-102106210D01*
X121756770Y-102104549D01*
X121771975Y-102103592D01*
X121791787Y-102103226D01*
X121798750Y-102103214D01*
X121817544Y-102103338D01*
X121831534Y-102103787D01*
X121842265Y-102104747D01*
X121851284Y-102106406D01*
X121860134Y-102108950D01*
X121867572Y-102111545D01*
X121892233Y-102122644D01*
X121917595Y-102138411D01*
X121944315Y-102159289D01*
X121963334Y-102176386D01*
X121992425Y-102203771D01*
X121992425Y-102488925D01*
X121980309Y-102488925D01*
X121965001Y-102489977D01*
X121948093Y-102492773D01*
X121932197Y-102496765D01*
X121919922Y-102501410D01*
X121919501Y-102501623D01*
X121902461Y-102513473D01*
X121890495Y-102528963D01*
X121883502Y-102548280D01*
X121881370Y-102570579D01*
X121883354Y-102592296D01*
X121889517Y-102609681D01*
X121900413Y-102623616D01*
X121916595Y-102634980D01*
X121924203Y-102638788D01*
X121928279Y-102640602D01*
X121932314Y-102642091D01*
X121936954Y-102643291D01*
X121942849Y-102644238D01*
X121950648Y-102644966D01*
X121960998Y-102645513D01*
X121974548Y-102645913D01*
X121991948Y-102646202D01*
X122013844Y-102646416D01*
X122040887Y-102646591D01*
X122068625Y-102646737D01*
X122103312Y-102646860D01*
X122132154Y-102646839D01*
X122155657Y-102646661D01*
X122174327Y-102646315D01*
X122188667Y-102645788D01*
X122199184Y-102645067D01*
X122206381Y-102644141D01*
X122209913Y-102643302D01*
X122231181Y-102634532D01*
X122246852Y-102623343D01*
X122257443Y-102609028D01*
X122263471Y-102590880D01*
X122265455Y-102568192D01*
X122265458Y-102567404D01*
X122262760Y-102545291D01*
X122254745Y-102526437D01*
X122241603Y-102511168D01*
X122227275Y-102501623D01*
X122215222Y-102496962D01*
X122199430Y-102492929D01*
X122182512Y-102490069D01*
X122167078Y-102488927D01*
X122166467Y-102488925D01*
X122154350Y-102488925D01*
X122154350Y-102121917D01*
X122176736Y-102118078D01*
X122190127Y-102115178D01*
X122202872Y-102111416D01*
X122211354Y-102107999D01*
X122227664Y-102096320D01*
X122239603Y-102080629D01*
X122246860Y-102061796D01*
X122249124Y-102040691D01*
X122246086Y-102018183D01*
X122244925Y-102013958D01*
X122236602Y-101996620D01*
X122222753Y-101982216D01*
X122203563Y-101970768D01*
X122198850Y-101968706D01*
X122194152Y-101967062D01*
X122188694Y-101965781D01*
X122181701Y-101964805D01*
X122172400Y-101964079D01*
X122160016Y-101963544D01*
X122143776Y-101963146D01*
X122122903Y-101962826D01*
X122096626Y-101962529D01*
X122090057Y-101962461D01*
X121992425Y-101961461D01*
X121992425Y-102031887D01*
X121972513Y-102014995D01*
X121952406Y-101998685D01*
X121934105Y-101985697D01*
X121915306Y-101974514D01*
X121896412Y-101964908D01*
X121875069Y-101955703D01*
X121854218Y-101949117D01*
X121832179Y-101944820D01*
X121807270Y-101942484D01*
X121778113Y-101941782D01*
X121733334Y-101943975D01*
X121733334Y-101943975D01*
G37*
X121733334Y-101943975D02*
X121692717Y-101950693D01*
X121655799Y-101962111D01*
X121622118Y-101978402D01*
X121591211Y-101999739D01*
X121568183Y-102020547D01*
X121554551Y-102034934D01*
X121544251Y-102047719D01*
X121535608Y-102061208D01*
X121527586Y-102076412D01*
X121521981Y-102087964D01*
X121517202Y-102098628D01*
X121513185Y-102109011D01*
X121509862Y-102119721D01*
X121507167Y-102131365D01*
X121505036Y-102144550D01*
X121503402Y-102159883D01*
X121502199Y-102177973D01*
X121501361Y-102199427D01*
X121500822Y-102224851D01*
X121500517Y-102254854D01*
X121500378Y-102290042D01*
X121500342Y-102327383D01*
X121500300Y-102488104D01*
X121480457Y-102490329D01*
X121455607Y-102495180D01*
X121435906Y-102503683D01*
X121421198Y-102515999D01*
X121411325Y-102532291D01*
X121406131Y-102552721D01*
X121405190Y-102568300D01*
X121406881Y-102590033D01*
X121412202Y-102607302D01*
X121421528Y-102621093D01*
X121427207Y-102626492D01*
X121433076Y-102631370D01*
X121438421Y-102635363D01*
X121443925Y-102638559D01*
X121450269Y-102641048D01*
X121458137Y-102642917D01*
X121468210Y-102644255D01*
X121481172Y-102645151D01*
X121497704Y-102645694D01*
X121518488Y-102645971D01*
X121544208Y-102646073D01*
X121575545Y-102646087D01*
X121695563Y-102646087D01*
X121714613Y-102636562D01*
X121731518Y-102626145D01*
X121743076Y-102613911D01*
X121750103Y-102598609D01*
X121753417Y-102578987D01*
X121753567Y-102576867D01*
X121753118Y-102552619D01*
X121748207Y-102532716D01*
X121738593Y-102516866D01*
X121724034Y-102504777D01*
X121704290Y-102496159D01*
X121682756Y-102491265D01*
X121659050Y-102487493D01*
X121659050Y-102342826D01*
X121659084Y-102305545D01*
X121659220Y-102274025D01*
X121659516Y-102247677D01*
X121660026Y-102225912D01*
X121660807Y-102208142D01*
X121661914Y-102193778D01*
X121663402Y-102182230D01*
X121665327Y-102172911D01*
X121667745Y-102165230D01*
X121670711Y-102158600D01*
X121674281Y-102152431D01*
X121677486Y-102147612D01*
X121690082Y-102133759D01*
X121707136Y-102121309D01*
X121726757Y-102111544D01*
X121734857Y-102108691D01*
X121744842Y-102106210D01*
X121756770Y-102104549D01*
X121771975Y-102103592D01*
X121791787Y-102103226D01*
X121798750Y-102103214D01*
X121817544Y-102103338D01*
X121831534Y-102103787D01*
X121842265Y-102104747D01*
X121851284Y-102106406D01*
X121860134Y-102108950D01*
X121867572Y-102111545D01*
X121892233Y-102122644D01*
X121917595Y-102138411D01*
X121944315Y-102159289D01*
X121963334Y-102176386D01*
X121992425Y-102203771D01*
X121992425Y-102488925D01*
X121980309Y-102488925D01*
X121965001Y-102489977D01*
X121948093Y-102492773D01*
X121932197Y-102496765D01*
X121919922Y-102501410D01*
X121919501Y-102501623D01*
X121902461Y-102513473D01*
X121890495Y-102528963D01*
X121883502Y-102548280D01*
X121881370Y-102570579D01*
X121883354Y-102592296D01*
X121889517Y-102609681D01*
X121900413Y-102623616D01*
X121916595Y-102634980D01*
X121924203Y-102638788D01*
X121928279Y-102640602D01*
X121932314Y-102642091D01*
X121936954Y-102643291D01*
X121942849Y-102644238D01*
X121950648Y-102644966D01*
X121960998Y-102645513D01*
X121974548Y-102645913D01*
X121991948Y-102646202D01*
X122013844Y-102646416D01*
X122040887Y-102646591D01*
X122068625Y-102646737D01*
X122103312Y-102646860D01*
X122132154Y-102646839D01*
X122155657Y-102646661D01*
X122174327Y-102646315D01*
X122188667Y-102645788D01*
X122199184Y-102645067D01*
X122206381Y-102644141D01*
X122209913Y-102643302D01*
X122231181Y-102634532D01*
X122246852Y-102623343D01*
X122257443Y-102609028D01*
X122263471Y-102590880D01*
X122265455Y-102568192D01*
X122265458Y-102567404D01*
X122262760Y-102545291D01*
X122254745Y-102526437D01*
X122241603Y-102511168D01*
X122227275Y-102501623D01*
X122215222Y-102496962D01*
X122199430Y-102492929D01*
X122182512Y-102490069D01*
X122167078Y-102488927D01*
X122166467Y-102488925D01*
X122154350Y-102488925D01*
X122154350Y-102121917D01*
X122176736Y-102118078D01*
X122190127Y-102115178D01*
X122202872Y-102111416D01*
X122211354Y-102107999D01*
X122227664Y-102096320D01*
X122239603Y-102080629D01*
X122246860Y-102061796D01*
X122249124Y-102040691D01*
X122246086Y-102018183D01*
X122244925Y-102013958D01*
X122236602Y-101996620D01*
X122222753Y-101982216D01*
X122203563Y-101970768D01*
X122198850Y-101968706D01*
X122194152Y-101967062D01*
X122188694Y-101965781D01*
X122181701Y-101964805D01*
X122172400Y-101964079D01*
X122160016Y-101963544D01*
X122143776Y-101963146D01*
X122122903Y-101962826D01*
X122096626Y-101962529D01*
X122090057Y-101962461D01*
X121992425Y-101961461D01*
X121992425Y-102031887D01*
X121972513Y-102014995D01*
X121952406Y-101998685D01*
X121934105Y-101985697D01*
X121915306Y-101974514D01*
X121896412Y-101964908D01*
X121875069Y-101955703D01*
X121854218Y-101949117D01*
X121832179Y-101944820D01*
X121807270Y-101942484D01*
X121778113Y-101941782D01*
X121733334Y-101943975D01*
D11*
G36*
X131832300Y-135222681D02*
X132087062Y-135274977D01*
X132326829Y-135375765D01*
X132542445Y-135521200D01*
X132725707Y-135705745D01*
X132869632Y-135922372D01*
X132968742Y-136162828D01*
X133019189Y-136417610D01*
X133019189Y-136417615D01*
X133019257Y-136417959D01*
X133015109Y-136715021D01*
X133015032Y-136715359D01*
X133015032Y-136715368D01*
X132957490Y-136968643D01*
X132851707Y-137206235D01*
X132701786Y-137418760D01*
X132513442Y-137598118D01*
X132293847Y-137737478D01*
X132051367Y-137831529D01*
X131795239Y-137876692D01*
X131535213Y-137871245D01*
X131281197Y-137815396D01*
X131042867Y-137711272D01*
X130829304Y-137562842D01*
X130648636Y-137375755D01*
X130507747Y-137157138D01*
X130412003Y-136915315D01*
X130365055Y-136659513D01*
X130368685Y-136399456D01*
X130422760Y-136145055D01*
X130525216Y-135906006D01*
X130672155Y-135691409D01*
X130857974Y-135509440D01*
X131075603Y-135367028D01*
X131316748Y-135269599D01*
X131572219Y-135220866D01*
X131832300Y-135222681D01*
X131832300Y-135222681D01*
G37*
G36*
X111192300Y-132540681D02*
X111447062Y-132592977D01*
X111686829Y-132693765D01*
X111902445Y-132839200D01*
X112085707Y-133023745D01*
X112229632Y-133240372D01*
X112328742Y-133480828D01*
X112379189Y-133735610D01*
X112379189Y-133735615D01*
X112379257Y-133735959D01*
X112375109Y-134033021D01*
X112375032Y-134033359D01*
X112375032Y-134033368D01*
X112317490Y-134286643D01*
X112211707Y-134524235D01*
X112061786Y-134736760D01*
X111873442Y-134916118D01*
X111653847Y-135055478D01*
X111411367Y-135149529D01*
X111155239Y-135194692D01*
X110895213Y-135189245D01*
X110641197Y-135133396D01*
X110402867Y-135029272D01*
X110189304Y-134880842D01*
X110008636Y-134693755D01*
X109867747Y-134475138D01*
X109772003Y-134233315D01*
X109725055Y-133977513D01*
X109728685Y-133717456D01*
X109782760Y-133463055D01*
X109885216Y-133224006D01*
X110032155Y-133009409D01*
X110217974Y-132827440D01*
X110435603Y-132685028D01*
X110676748Y-132587599D01*
X110932219Y-132538866D01*
X111192300Y-132540681D01*
X111192300Y-132540681D01*
G37*
G36*
X130979300Y-123868681D02*
X131234062Y-123920977D01*
X131473829Y-124021765D01*
X131689445Y-124167200D01*
X131872707Y-124351745D01*
X132016632Y-124568372D01*
X132115742Y-124808828D01*
X132166189Y-125063610D01*
X132166189Y-125063615D01*
X132166257Y-125063959D01*
X132162109Y-125361021D01*
X132162032Y-125361359D01*
X132162032Y-125361368D01*
X132104490Y-125614643D01*
X131998707Y-125852235D01*
X131848786Y-126064760D01*
X131660442Y-126244118D01*
X131440847Y-126383478D01*
X131198367Y-126477529D01*
X130942239Y-126522692D01*
X130682213Y-126517245D01*
X130428197Y-126461396D01*
X130189867Y-126357272D01*
X129976304Y-126208842D01*
X129795636Y-126021755D01*
X129654747Y-125803138D01*
X129559003Y-125561315D01*
X129512055Y-125305513D01*
X129515685Y-125045456D01*
X129569760Y-124791055D01*
X129672216Y-124552006D01*
X129819155Y-124337409D01*
X130004974Y-124155440D01*
X130222603Y-124013028D01*
X130463748Y-123915599D01*
X130719219Y-123866866D01*
X130979300Y-123868681D01*
X130979300Y-123868681D01*
G37*
G36*
X104233300Y-121283681D02*
X104488062Y-121335977D01*
X104727829Y-121436765D01*
X104943445Y-121582200D01*
X105126707Y-121766745D01*
X105270632Y-121983372D01*
X105369742Y-122223828D01*
X105420189Y-122478610D01*
X105420189Y-122478615D01*
X105420257Y-122478959D01*
X105416109Y-122776021D01*
X105416032Y-122776359D01*
X105416032Y-122776368D01*
X105358490Y-123029643D01*
X105252707Y-123267235D01*
X105102786Y-123479760D01*
X104914442Y-123659118D01*
X104694847Y-123798478D01*
X104452367Y-123892529D01*
X104196239Y-123937692D01*
X103936213Y-123932245D01*
X103682197Y-123876396D01*
X103443867Y-123772272D01*
X103230304Y-123623842D01*
X103049636Y-123436755D01*
X102908747Y-123218138D01*
X102813003Y-122976315D01*
X102766055Y-122720513D01*
X102769685Y-122460456D01*
X102823760Y-122206055D01*
X102926216Y-121967006D01*
X103073155Y-121752409D01*
X103258974Y-121570440D01*
X103476603Y-121428028D01*
X103717748Y-121330599D01*
X103973219Y-121281866D01*
X104233300Y-121283681D01*
X104233300Y-121283681D01*
G37*
G36*
X156922300Y-116213681D02*
X157177062Y-116265977D01*
X157416829Y-116366765D01*
X157632445Y-116512200D01*
X157815707Y-116696745D01*
X157959632Y-116913372D01*
X158058742Y-117153828D01*
X158109189Y-117408610D01*
X158109189Y-117408615D01*
X158109257Y-117408959D01*
X158105109Y-117706021D01*
X158105032Y-117706359D01*
X158105032Y-117706368D01*
X158047490Y-117959643D01*
X157941707Y-118197235D01*
X157791786Y-118409760D01*
X157603442Y-118589118D01*
X157383847Y-118728478D01*
X157141367Y-118822529D01*
X156885239Y-118867692D01*
X156625213Y-118862245D01*
X156371197Y-118806396D01*
X156132867Y-118702272D01*
X155919304Y-118553842D01*
X155738636Y-118366755D01*
X155597747Y-118148138D01*
X155502003Y-117906315D01*
X155455055Y-117650513D01*
X155458685Y-117390456D01*
X155512760Y-117136055D01*
X155615216Y-116897006D01*
X155762155Y-116682409D01*
X155947974Y-116500440D01*
X156165603Y-116358028D01*
X156406748Y-116260599D01*
X156662219Y-116211866D01*
X156922300Y-116213681D01*
X156922300Y-116213681D01*
G37*
G36*
X148921300Y-115024681D02*
X149176062Y-115076977D01*
X149415829Y-115177765D01*
X149631445Y-115323200D01*
X149814707Y-115507745D01*
X149958632Y-115724372D01*
X150057742Y-115964828D01*
X150108189Y-116219610D01*
X150108189Y-116219615D01*
X150108257Y-116219959D01*
X150104109Y-116517021D01*
X150104032Y-116517359D01*
X150104032Y-116517368D01*
X150046490Y-116770643D01*
X149940707Y-117008235D01*
X149790786Y-117220760D01*
X149602442Y-117400118D01*
X149382847Y-117539478D01*
X149140367Y-117633529D01*
X148884239Y-117678692D01*
X148624213Y-117673245D01*
X148370197Y-117617396D01*
X148131867Y-117513272D01*
X147918304Y-117364842D01*
X147737636Y-117177755D01*
X147596747Y-116959138D01*
X147501003Y-116717315D01*
X147454055Y-116461513D01*
X147457685Y-116201456D01*
X147511760Y-115947055D01*
X147614216Y-115708006D01*
X147761155Y-115493409D01*
X147946974Y-115311440D01*
X148164603Y-115169028D01*
X148405748Y-115071599D01*
X148661219Y-115022866D01*
X148921300Y-115024681D01*
X148921300Y-115024681D01*
G37*
G36*
X105111300Y-113398681D02*
X105366062Y-113450977D01*
X105605829Y-113551765D01*
X105821445Y-113697200D01*
X106004707Y-113881745D01*
X106148632Y-114098372D01*
X106247742Y-114338828D01*
X106298189Y-114593610D01*
X106298189Y-114593615D01*
X106298257Y-114593959D01*
X106294109Y-114891021D01*
X106294032Y-114891359D01*
X106294032Y-114891368D01*
X106236490Y-115144643D01*
X106130707Y-115382235D01*
X105980786Y-115594760D01*
X105792442Y-115774118D01*
X105572847Y-115913478D01*
X105330367Y-116007529D01*
X105074239Y-116052692D01*
X104814213Y-116047245D01*
X104560197Y-115991396D01*
X104321867Y-115887272D01*
X104108304Y-115738842D01*
X103927636Y-115551755D01*
X103786747Y-115333138D01*
X103691003Y-115091315D01*
X103644055Y-114835513D01*
X103647685Y-114575456D01*
X103701760Y-114321055D01*
X103804216Y-114082006D01*
X103951155Y-113867409D01*
X104136974Y-113685440D01*
X104354603Y-113543028D01*
X104595748Y-113445599D01*
X104851219Y-113396866D01*
X105111300Y-113398681D01*
X105111300Y-113398681D01*
G37*
G36*
X170034300Y-103000681D02*
X170289062Y-103052977D01*
X170528829Y-103153765D01*
X170744445Y-103299200D01*
X170927707Y-103483745D01*
X171071632Y-103700372D01*
X171170742Y-103940828D01*
X171221189Y-104195610D01*
X171221189Y-104195615D01*
X171221257Y-104195959D01*
X171217109Y-104493021D01*
X171217032Y-104493359D01*
X171217032Y-104493368D01*
X171159490Y-104746643D01*
X171053707Y-104984235D01*
X170903786Y-105196760D01*
X170715442Y-105376118D01*
X170495847Y-105515478D01*
X170253367Y-105609529D01*
X169997239Y-105654692D01*
X169737213Y-105649245D01*
X169483197Y-105593396D01*
X169244867Y-105489272D01*
X169031304Y-105340842D01*
X168850636Y-105153755D01*
X168709747Y-104935138D01*
X168614003Y-104693315D01*
X168567055Y-104437513D01*
X168570685Y-104177456D01*
X168624760Y-103923055D01*
X168727216Y-103684006D01*
X168874155Y-103469409D01*
X169059974Y-103287440D01*
X169277603Y-103145028D01*
X169518748Y-103047599D01*
X169774219Y-102998866D01*
X170034300Y-103000681D01*
X170034300Y-103000681D01*
G37*
G36*
X150483394Y-102372993D02*
X150712721Y-102420068D01*
X150928551Y-102510794D01*
X151122638Y-102641708D01*
X151287610Y-102807834D01*
X151417164Y-103002831D01*
X151506379Y-103219281D01*
X151551783Y-103448593D01*
X151551783Y-103448598D01*
X151551851Y-103448942D01*
X151548117Y-103716347D01*
X151548040Y-103716685D01*
X151548040Y-103716693D01*
X151496250Y-103944649D01*
X151401028Y-104158521D01*
X151266075Y-104349829D01*
X151096534Y-104511281D01*
X150898863Y-104636726D01*
X150680588Y-104721389D01*
X150450033Y-104762043D01*
X150215965Y-104757140D01*
X149987309Y-104706866D01*
X149772772Y-104613138D01*
X149580534Y-104479529D01*
X149417898Y-104311114D01*
X149291076Y-104114325D01*
X149204890Y-103896644D01*
X149162629Y-103666380D01*
X149165897Y-103432286D01*
X149214574Y-103203283D01*
X149306801Y-102988099D01*
X149439070Y-102794926D01*
X149606338Y-102631124D01*
X149802241Y-102502929D01*
X150019311Y-102415227D01*
X150249277Y-102371359D01*
X150483394Y-102372993D01*
X150483394Y-102372993D01*
G37*
G36*
X114048394Y-100708993D02*
X114277721Y-100756068D01*
X114493551Y-100846794D01*
X114687638Y-100977708D01*
X114852610Y-101143834D01*
X114982164Y-101338831D01*
X115071379Y-101555281D01*
X115116783Y-101784593D01*
X115116783Y-101784598D01*
X115116851Y-101784942D01*
X115113117Y-102052347D01*
X115113040Y-102052685D01*
X115113040Y-102052693D01*
X115061250Y-102280649D01*
X114966028Y-102494521D01*
X114831075Y-102685829D01*
X114661534Y-102847281D01*
X114463863Y-102972726D01*
X114245588Y-103057389D01*
X114015033Y-103098043D01*
X113780965Y-103093140D01*
X113552309Y-103042866D01*
X113337772Y-102949138D01*
X113145534Y-102815529D01*
X112982898Y-102647114D01*
X112856076Y-102450325D01*
X112769890Y-102232644D01*
X112727629Y-102002380D01*
X112730897Y-101768286D01*
X112779574Y-101539283D01*
X112871801Y-101324099D01*
X113004070Y-101130926D01*
X113171338Y-100967124D01*
X113367241Y-100838929D01*
X113584311Y-100751227D01*
X113814277Y-100707359D01*
X114048394Y-100708993D01*
X114048394Y-100708993D01*
G37*
G36*
X148353394Y-100132993D02*
X148582721Y-100180068D01*
X148798551Y-100270794D01*
X148992638Y-100401708D01*
X149157610Y-100567834D01*
X149287164Y-100762831D01*
X149376379Y-100979281D01*
X149421783Y-101208593D01*
X149421783Y-101208598D01*
X149421851Y-101208942D01*
X149418117Y-101476347D01*
X149418040Y-101476685D01*
X149418040Y-101476693D01*
X149366250Y-101704649D01*
X149271028Y-101918521D01*
X149136075Y-102109829D01*
X148966534Y-102271281D01*
X148768863Y-102396726D01*
X148550588Y-102481389D01*
X148320033Y-102522043D01*
X148085965Y-102517140D01*
X147857309Y-102466866D01*
X147642772Y-102373138D01*
X147450534Y-102239529D01*
X147287898Y-102071114D01*
X147161076Y-101874325D01*
X147074890Y-101656644D01*
X147032629Y-101426380D01*
X147035897Y-101192286D01*
X147084574Y-100963283D01*
X147176801Y-100748099D01*
X147309070Y-100554926D01*
X147476338Y-100391124D01*
X147672241Y-100262929D01*
X147889311Y-100175227D01*
X148119277Y-100131359D01*
X148353394Y-100132993D01*
X148353394Y-100132993D01*
G37*
G36*
X136056200Y-102451200D02*
X134403800Y-102451200D01*
X134403800Y-100998800D01*
X136056200Y-100998800D01*
X136056200Y-102451200D01*
X136056200Y-102451200D01*
G37*
G36*
X138756200Y-102451200D02*
X137103800Y-102451200D01*
X137103800Y-100998800D01*
X138756200Y-100998800D01*
X138756200Y-102451200D01*
X138756200Y-102451200D01*
G37*
G36*
X115938394Y-98245693D02*
X116167721Y-98292768D01*
X116383551Y-98383494D01*
X116577638Y-98514408D01*
X116742610Y-98680534D01*
X116872164Y-98875531D01*
X116961379Y-99091981D01*
X117006783Y-99321293D01*
X117006783Y-99321298D01*
X117006851Y-99321642D01*
X117003117Y-99589047D01*
X117003040Y-99589385D01*
X117003040Y-99589393D01*
X116951250Y-99817349D01*
X116856028Y-100031221D01*
X116721075Y-100222529D01*
X116551534Y-100383981D01*
X116353863Y-100509426D01*
X116135588Y-100594089D01*
X115905033Y-100634743D01*
X115670965Y-100629840D01*
X115442309Y-100579566D01*
X115227772Y-100485838D01*
X115035534Y-100352229D01*
X114872898Y-100183814D01*
X114746076Y-99987025D01*
X114659890Y-99769344D01*
X114617629Y-99539080D01*
X114620897Y-99304986D01*
X114669574Y-99075983D01*
X114761801Y-98860799D01*
X114894070Y-98667626D01*
X115061338Y-98503824D01*
X115257241Y-98375629D01*
X115474311Y-98287927D01*
X115704277Y-98244059D01*
X115938394Y-98245693D01*
X115938394Y-98245693D01*
G37*
G36*
X146383394Y-97783193D02*
X146612721Y-97830268D01*
X146828551Y-97920994D01*
X147022638Y-98051908D01*
X147187610Y-98218034D01*
X147317164Y-98413031D01*
X147406379Y-98629481D01*
X147451783Y-98858793D01*
X147451783Y-98858798D01*
X147451851Y-98859142D01*
X147448117Y-99126547D01*
X147448040Y-99126885D01*
X147448040Y-99126893D01*
X147396250Y-99354849D01*
X147301028Y-99568721D01*
X147166075Y-99760029D01*
X146996534Y-99921481D01*
X146798863Y-100046926D01*
X146580588Y-100131589D01*
X146350033Y-100172243D01*
X146115965Y-100167340D01*
X145887309Y-100117066D01*
X145672772Y-100023338D01*
X145480534Y-99889729D01*
X145317898Y-99721314D01*
X145191076Y-99524525D01*
X145104890Y-99306844D01*
X145062629Y-99076580D01*
X145065897Y-98842486D01*
X145114574Y-98613483D01*
X145206801Y-98398299D01*
X145339070Y-98205126D01*
X145506338Y-98041324D01*
X145702241Y-97913129D01*
X145919311Y-97825427D01*
X146149277Y-97781559D01*
X146383394Y-97783193D01*
X146383394Y-97783193D01*
G37*
G36*
X128962200Y-99238300D02*
X126609800Y-99238300D01*
X126609800Y-95985900D01*
X128962200Y-95985900D01*
X128962200Y-99238300D01*
X128962200Y-99238300D01*
G37*
G36*
X135212200Y-99238300D02*
X132859800Y-99238300D01*
X132859800Y-95985900D01*
X135212200Y-95985900D01*
X135212200Y-99238300D01*
X135212200Y-99238300D01*
G37*
G36*
X117589394Y-95609193D02*
X117818721Y-95656268D01*
X118034551Y-95746994D01*
X118228638Y-95877908D01*
X118393610Y-96044034D01*
X118523164Y-96239031D01*
X118612379Y-96455481D01*
X118657783Y-96684793D01*
X118657783Y-96684798D01*
X118657851Y-96685142D01*
X118654117Y-96952547D01*
X118654040Y-96952885D01*
X118654040Y-96952893D01*
X118602250Y-97180849D01*
X118507028Y-97394721D01*
X118372075Y-97586029D01*
X118202534Y-97747481D01*
X118004863Y-97872926D01*
X117786588Y-97957589D01*
X117556033Y-97998243D01*
X117321965Y-97993340D01*
X117093309Y-97943066D01*
X116878772Y-97849338D01*
X116686534Y-97715729D01*
X116523898Y-97547314D01*
X116397076Y-97350525D01*
X116310890Y-97132844D01*
X116268629Y-96902580D01*
X116271897Y-96668486D01*
X116320574Y-96439483D01*
X116412801Y-96224299D01*
X116545070Y-96031126D01*
X116712338Y-95867324D01*
X116908241Y-95739129D01*
X117125311Y-95651427D01*
X117355277Y-95607559D01*
X117589394Y-95609193D01*
X117589394Y-95609193D01*
G37*
G36*
X144429394Y-95377993D02*
X144658721Y-95425068D01*
X144874551Y-95515794D01*
X145068638Y-95646708D01*
X145233610Y-95812834D01*
X145363164Y-96007831D01*
X145452379Y-96224281D01*
X145497783Y-96453593D01*
X145497783Y-96453598D01*
X145497851Y-96453942D01*
X145494117Y-96721347D01*
X145494040Y-96721685D01*
X145494040Y-96721693D01*
X145442250Y-96949649D01*
X145347028Y-97163521D01*
X145212075Y-97354829D01*
X145042534Y-97516281D01*
X144844863Y-97641726D01*
X144626588Y-97726389D01*
X144396033Y-97767043D01*
X144161965Y-97762140D01*
X143933309Y-97711866D01*
X143718772Y-97618138D01*
X143526534Y-97484529D01*
X143363898Y-97316114D01*
X143237076Y-97119325D01*
X143150890Y-96901644D01*
X143108629Y-96671380D01*
X143111897Y-96437286D01*
X143160574Y-96208283D01*
X143252801Y-95993099D01*
X143385070Y-95799926D01*
X143552338Y-95636124D01*
X143748241Y-95507929D01*
X143965311Y-95420227D01*
X144195277Y-95376359D01*
X144429394Y-95377993D01*
X144429394Y-95377993D01*
G37*
G36*
X140776200Y-97536200D02*
X139653800Y-97536200D01*
X139653800Y-96113800D01*
X140776200Y-96113800D01*
X140776200Y-97536200D01*
X140776200Y-97536200D01*
G37*
G36*
X139496200Y-97536200D02*
X138373800Y-97536200D01*
X138373800Y-96113800D01*
X139496200Y-96113800D01*
X139496200Y-97536200D01*
X139496200Y-97536200D01*
G37*
G36*
X132012200Y-95638300D02*
X131059800Y-95638300D01*
X131059800Y-93785900D01*
X132012200Y-93785900D01*
X132012200Y-95638300D01*
X132012200Y-95638300D01*
G37*
G36*
X130762200Y-95638300D02*
X129809800Y-95638300D01*
X129809800Y-93785900D01*
X130762200Y-93785900D01*
X130762200Y-95638300D01*
X130762200Y-95638300D01*
G37*
G36*
X119098394Y-92926893D02*
X119327721Y-92973968D01*
X119543551Y-93064694D01*
X119737638Y-93195608D01*
X119902610Y-93361734D01*
X120032164Y-93556731D01*
X120121379Y-93773181D01*
X120166783Y-94002493D01*
X120166783Y-94002498D01*
X120166851Y-94002842D01*
X120163117Y-94270247D01*
X120163040Y-94270585D01*
X120163040Y-94270593D01*
X120111250Y-94498549D01*
X120016028Y-94712421D01*
X119881075Y-94903729D01*
X119711534Y-95065181D01*
X119513863Y-95190626D01*
X119295588Y-95275289D01*
X119065033Y-95315943D01*
X118830965Y-95311040D01*
X118602309Y-95260766D01*
X118387772Y-95167038D01*
X118195534Y-95033429D01*
X118032898Y-94865014D01*
X117906076Y-94668225D01*
X117819890Y-94450544D01*
X117777629Y-94220280D01*
X117780897Y-93986186D01*
X117829574Y-93757183D01*
X117921801Y-93541999D01*
X118054070Y-93348826D01*
X118221338Y-93185024D01*
X118417241Y-93056829D01*
X118634311Y-92969127D01*
X118864277Y-92925259D01*
X119098394Y-92926893D01*
X119098394Y-92926893D01*
G37*
G36*
X142595394Y-92891393D02*
X142824721Y-92938468D01*
X143040551Y-93029194D01*
X143234638Y-93160108D01*
X143399610Y-93326234D01*
X143529164Y-93521231D01*
X143618379Y-93737681D01*
X143663783Y-93966993D01*
X143663783Y-93966998D01*
X143663851Y-93967342D01*
X143660117Y-94234747D01*
X143660040Y-94235085D01*
X143660040Y-94235093D01*
X143608250Y-94463049D01*
X143513028Y-94676921D01*
X143378075Y-94868229D01*
X143208534Y-95029681D01*
X143010863Y-95155126D01*
X142792588Y-95239789D01*
X142562033Y-95280443D01*
X142327965Y-95275540D01*
X142099309Y-95225266D01*
X141884772Y-95131538D01*
X141692534Y-94997929D01*
X141529898Y-94829514D01*
X141403076Y-94632725D01*
X141316890Y-94415044D01*
X141274629Y-94184780D01*
X141277897Y-93950686D01*
X141326574Y-93721683D01*
X141418801Y-93506499D01*
X141551070Y-93313326D01*
X141718338Y-93149524D01*
X141914241Y-93021329D01*
X142131311Y-92933627D01*
X142361277Y-92889759D01*
X142595394Y-92891393D01*
X142595394Y-92891393D01*
G37*
G36*
X140772394Y-90407193D02*
X141001721Y-90454268D01*
X141217551Y-90544994D01*
X141411638Y-90675908D01*
X141576610Y-90842034D01*
X141706164Y-91037031D01*
X141795379Y-91253481D01*
X141840783Y-91482793D01*
X141840783Y-91482798D01*
X141840851Y-91483142D01*
X141837117Y-91750547D01*
X141837040Y-91750885D01*
X141837040Y-91750893D01*
X141785250Y-91978849D01*
X141690028Y-92192721D01*
X141555075Y-92384029D01*
X141385534Y-92545481D01*
X141187863Y-92670926D01*
X140969588Y-92755589D01*
X140739033Y-92796243D01*
X140504965Y-92791340D01*
X140276309Y-92741066D01*
X140061772Y-92647338D01*
X139869534Y-92513729D01*
X139706898Y-92345314D01*
X139580076Y-92148525D01*
X139493890Y-91930844D01*
X139451629Y-91700580D01*
X139454897Y-91466486D01*
X139503574Y-91237483D01*
X139595801Y-91022299D01*
X139728070Y-90829126D01*
X139895338Y-90665324D01*
X140091241Y-90537129D01*
X140308311Y-90449427D01*
X140538277Y-90405559D01*
X140772394Y-90407193D01*
X140772394Y-90407193D01*
G37*
G36*
X120515394Y-90178593D02*
X120744721Y-90225668D01*
X120960551Y-90316394D01*
X121154638Y-90447308D01*
X121319610Y-90613434D01*
X121449164Y-90808431D01*
X121538379Y-91024881D01*
X121583783Y-91254193D01*
X121583783Y-91254198D01*
X121583851Y-91254542D01*
X121580117Y-91521947D01*
X121580040Y-91522285D01*
X121580040Y-91522293D01*
X121528250Y-91750249D01*
X121433028Y-91964121D01*
X121298075Y-92155429D01*
X121128534Y-92316881D01*
X120930863Y-92442326D01*
X120712588Y-92526989D01*
X120482033Y-92567643D01*
X120247965Y-92562740D01*
X120019309Y-92512466D01*
X119804772Y-92418738D01*
X119612534Y-92285129D01*
X119449898Y-92116714D01*
X119323076Y-91919925D01*
X119236890Y-91702244D01*
X119194629Y-91471980D01*
X119197897Y-91237886D01*
X119246574Y-91008883D01*
X119338801Y-90793699D01*
X119471070Y-90600526D01*
X119638338Y-90436724D01*
X119834241Y-90308529D01*
X120051311Y-90220827D01*
X120281277Y-90176959D01*
X120515394Y-90178593D01*
X120515394Y-90178593D01*
G37*
G36*
X129878200Y-92342500D02*
X128825800Y-92342500D01*
X128825800Y-90990100D01*
X129878200Y-90990100D01*
X129878200Y-92342500D01*
X129878200Y-92342500D01*
G37*
G36*
X133178200Y-92342500D02*
X132125800Y-92342500D01*
X132125800Y-90990100D01*
X133178200Y-90990100D01*
X133178200Y-92342500D01*
X133178200Y-92342500D01*
G37*
G36*
X128147200Y-90672600D02*
X126694800Y-90672600D01*
X126694800Y-89020200D01*
X128147200Y-89020200D01*
X128147200Y-90672600D01*
X128147200Y-90672600D01*
G37*
G36*
X134650200Y-90669100D02*
X133247800Y-90669100D01*
X133247800Y-89016700D01*
X134650200Y-89016700D01*
X134650200Y-90669100D01*
X134650200Y-90669100D01*
G37*
G36*
X138984394Y-87892593D02*
X139213721Y-87939668D01*
X139429551Y-88030394D01*
X139623638Y-88161308D01*
X139788610Y-88327434D01*
X139918164Y-88522431D01*
X140007379Y-88738881D01*
X140052783Y-88968193D01*
X140052783Y-88968198D01*
X140052851Y-88968542D01*
X140049117Y-89235947D01*
X140049040Y-89236285D01*
X140049040Y-89236293D01*
X139997250Y-89464249D01*
X139902028Y-89678121D01*
X139767075Y-89869429D01*
X139597534Y-90030881D01*
X139399863Y-90156326D01*
X139181588Y-90240989D01*
X138951033Y-90281643D01*
X138716965Y-90276740D01*
X138488309Y-90226466D01*
X138273772Y-90132738D01*
X138081534Y-89999129D01*
X137918898Y-89830714D01*
X137792076Y-89633925D01*
X137705890Y-89416244D01*
X137663629Y-89185980D01*
X137666897Y-88951886D01*
X137715574Y-88722883D01*
X137807801Y-88507699D01*
X137940070Y-88314526D01*
X138107338Y-88150724D01*
X138303241Y-88022529D01*
X138520311Y-87934827D01*
X138750277Y-87890959D01*
X138984394Y-87892593D01*
X138984394Y-87892593D01*
G37*
G36*
X121882394Y-87420193D02*
X122111721Y-87467268D01*
X122327551Y-87557994D01*
X122521638Y-87688908D01*
X122686610Y-87855034D01*
X122816164Y-88050031D01*
X122905379Y-88266481D01*
X122950783Y-88495793D01*
X122950783Y-88495798D01*
X122950851Y-88496142D01*
X122947117Y-88763547D01*
X122947040Y-88763885D01*
X122947040Y-88763893D01*
X122895250Y-88991849D01*
X122800028Y-89205721D01*
X122665075Y-89397029D01*
X122495534Y-89558481D01*
X122297863Y-89683926D01*
X122079588Y-89768589D01*
X121849033Y-89809243D01*
X121614965Y-89804340D01*
X121386309Y-89754066D01*
X121171772Y-89660338D01*
X120979534Y-89526729D01*
X120816898Y-89358314D01*
X120690076Y-89161525D01*
X120603890Y-88943844D01*
X120561629Y-88713580D01*
X120564897Y-88479486D01*
X120613574Y-88250483D01*
X120705801Y-88035299D01*
X120838070Y-87842126D01*
X121005338Y-87678324D01*
X121201241Y-87550129D01*
X121418311Y-87462427D01*
X121648277Y-87418559D01*
X121882394Y-87420193D01*
X121882394Y-87420193D01*
G37*
G36*
X132049200Y-88868700D02*
X131246800Y-88868700D01*
X131246800Y-87156300D01*
X132049200Y-87156300D01*
X132049200Y-88868700D01*
X132049200Y-88868700D01*
G37*
G36*
X131099200Y-88868700D02*
X130296800Y-88868700D01*
X130296800Y-87156300D01*
X131099200Y-87156300D01*
X131099200Y-88868700D01*
X131099200Y-88868700D01*
G37*
G36*
X130149200Y-88868700D02*
X129346800Y-88868700D01*
X129346800Y-87156300D01*
X130149200Y-87156300D01*
X130149200Y-88868700D01*
X130149200Y-88868700D01*
G37*
G36*
X134650200Y-88169100D02*
X133247800Y-88169100D01*
X133247800Y-86516700D01*
X134650200Y-86516700D01*
X134650200Y-88169100D01*
X134650200Y-88169100D01*
G37*
G36*
X128147200Y-87972600D02*
X126694800Y-87972600D01*
X126694800Y-86320200D01*
X128147200Y-86320200D01*
X128147200Y-87972600D01*
X128147200Y-87972600D01*
G37*
G36*
X132049200Y-86168700D02*
X131246800Y-86168700D01*
X131246800Y-84456300D01*
X132049200Y-84456300D01*
X132049200Y-86168700D01*
X132049200Y-86168700D01*
G37*
G36*
X130149200Y-86168700D02*
X129346800Y-86168700D01*
X129346800Y-84456300D01*
X130149200Y-84456300D01*
X130149200Y-86168700D01*
X130149200Y-86168700D01*
G37*
G36*
X126169200Y-85169100D02*
X124516800Y-85169100D01*
X124516800Y-83766700D01*
X126169200Y-83766700D01*
X126169200Y-85169100D01*
X126169200Y-85169100D01*
G37*
G36*
X128669200Y-85169100D02*
X127016800Y-85169100D01*
X127016800Y-83766700D01*
X128669200Y-83766700D01*
X128669200Y-85169100D01*
X128669200Y-85169100D01*
G37*
G36*
X118113394Y-82763193D02*
X118342721Y-82810268D01*
X118558551Y-82900994D01*
X118752638Y-83031908D01*
X118917610Y-83198034D01*
X119047164Y-83393031D01*
X119136379Y-83609481D01*
X119181783Y-83838793D01*
X119181783Y-83838798D01*
X119181851Y-83839142D01*
X119178117Y-84106547D01*
X119178040Y-84106885D01*
X119178040Y-84106893D01*
X119126250Y-84334849D01*
X119031028Y-84548721D01*
X118896075Y-84740029D01*
X118726534Y-84901481D01*
X118528863Y-85026926D01*
X118310588Y-85111589D01*
X118080033Y-85152243D01*
X117845965Y-85147340D01*
X117617309Y-85097066D01*
X117402772Y-85003338D01*
X117210534Y-84869729D01*
X117047898Y-84701314D01*
X116921076Y-84504525D01*
X116834890Y-84286844D01*
X116792629Y-84056580D01*
X116795897Y-83822486D01*
X116844574Y-83593483D01*
X116936801Y-83378299D01*
X117069070Y-83185126D01*
X117236338Y-83021324D01*
X117432241Y-82893129D01*
X117649311Y-82805427D01*
X117879277Y-82761559D01*
X118113394Y-82763193D01*
X118113394Y-82763193D01*
G37*
G36*
X134373200Y-85037000D02*
X132720800Y-85037000D01*
X132720800Y-83634600D01*
X134373200Y-83634600D01*
X134373200Y-85037000D01*
X134373200Y-85037000D01*
G37*
G36*
X136873200Y-85037000D02*
X135220800Y-85037000D01*
X135220800Y-83634600D01*
X136873200Y-83634600D01*
X136873200Y-85037000D01*
X136873200Y-85037000D01*
G37*
G36*
X143920200Y-84027900D02*
X142467800Y-84027900D01*
X142467800Y-82375500D01*
X143920200Y-82375500D01*
X143920200Y-84027900D01*
X143920200Y-84027900D01*
G37*
G36*
X115923394Y-80643193D02*
X116152721Y-80690268D01*
X116368551Y-80780994D01*
X116562638Y-80911908D01*
X116727610Y-81078034D01*
X116857164Y-81273031D01*
X116946379Y-81489481D01*
X116991783Y-81718793D01*
X116991783Y-81718798D01*
X116991851Y-81719142D01*
X116988117Y-81986547D01*
X116988040Y-81986885D01*
X116988040Y-81986893D01*
X116936250Y-82214849D01*
X116841028Y-82428721D01*
X116706075Y-82620029D01*
X116536534Y-82781481D01*
X116338863Y-82906926D01*
X116120588Y-82991589D01*
X115890033Y-83032243D01*
X115655965Y-83027340D01*
X115427309Y-82977066D01*
X115212772Y-82883338D01*
X115020534Y-82749729D01*
X114857898Y-82581314D01*
X114731076Y-82384525D01*
X114644890Y-82166844D01*
X114602629Y-81936580D01*
X114605897Y-81702486D01*
X114654574Y-81473483D01*
X114746801Y-81258299D01*
X114879070Y-81065126D01*
X115046338Y-80901324D01*
X115242241Y-80773129D01*
X115459311Y-80685427D01*
X115689277Y-80641559D01*
X115923394Y-80643193D01*
X115923394Y-80643193D01*
G37*
G36*
X123563104Y-80209046D02*
X123563110Y-80209047D01*
X123565160Y-80209061D01*
X123686611Y-80222684D01*
X123803103Y-80259637D01*
X123910199Y-80318514D01*
X124003820Y-80397071D01*
X124080399Y-80492316D01*
X124137020Y-80600621D01*
X124171525Y-80717862D01*
X124171528Y-80717896D01*
X124171531Y-80717906D01*
X124182604Y-80839569D01*
X124169833Y-80961068D01*
X124169831Y-80961073D01*
X124169827Y-80961115D01*
X124133688Y-81077862D01*
X124075560Y-81185367D01*
X123997659Y-81279533D01*
X123902951Y-81356775D01*
X123795043Y-81414151D01*
X123678047Y-81449474D01*
X123556417Y-81461400D01*
X122143549Y-81461400D01*
X122136896Y-81461354D01*
X122136890Y-81461353D01*
X122134840Y-81461339D01*
X122013389Y-81447716D01*
X121896897Y-81410763D01*
X121789801Y-81351886D01*
X121696180Y-81273329D01*
X121619601Y-81178084D01*
X121562980Y-81069779D01*
X121528475Y-80952538D01*
X121528472Y-80952504D01*
X121528469Y-80952494D01*
X121517396Y-80830831D01*
X121530167Y-80709332D01*
X121530169Y-80709327D01*
X121530173Y-80709285D01*
X121566312Y-80592538D01*
X121624440Y-80485033D01*
X121702341Y-80390867D01*
X121797049Y-80313625D01*
X121904957Y-80256249D01*
X122021953Y-80220926D01*
X122143583Y-80209000D01*
X123556451Y-80209000D01*
X123563104Y-80209046D01*
X123563104Y-80209046D01*
G37*
G36*
X138963104Y-80209046D02*
X138963110Y-80209047D01*
X138965160Y-80209061D01*
X139086611Y-80222684D01*
X139203103Y-80259637D01*
X139310199Y-80318514D01*
X139403820Y-80397071D01*
X139480399Y-80492316D01*
X139537020Y-80600621D01*
X139571525Y-80717862D01*
X139571528Y-80717896D01*
X139571531Y-80717906D01*
X139582604Y-80839569D01*
X139569833Y-80961068D01*
X139569831Y-80961073D01*
X139569827Y-80961115D01*
X139533688Y-81077862D01*
X139475560Y-81185367D01*
X139397659Y-81279533D01*
X139302951Y-81356775D01*
X139195043Y-81414151D01*
X139078047Y-81449474D01*
X138956417Y-81461400D01*
X137543549Y-81461400D01*
X137536896Y-81461354D01*
X137536890Y-81461353D01*
X137534840Y-81461339D01*
X137413389Y-81447716D01*
X137296897Y-81410763D01*
X137189801Y-81351886D01*
X137096180Y-81273329D01*
X137019601Y-81178084D01*
X136962980Y-81069779D01*
X136928475Y-80952538D01*
X136928472Y-80952504D01*
X136928469Y-80952494D01*
X136917396Y-80830831D01*
X136930167Y-80709332D01*
X136930169Y-80709327D01*
X136930173Y-80709285D01*
X136966312Y-80592538D01*
X137024440Y-80485033D01*
X137102341Y-80390867D01*
X137197049Y-80313625D01*
X137304957Y-80256249D01*
X137421953Y-80220926D01*
X137543583Y-80209000D01*
X138956451Y-80209000D01*
X138963104Y-80209046D01*
X138963104Y-80209046D01*
G37*
G36*
X143920200Y-81327900D02*
X142467800Y-81327900D01*
X142467800Y-79675500D01*
X143920200Y-79675500D01*
X143920200Y-81327900D01*
X143920200Y-81327900D01*
G37*
G36*
X138963104Y-78209046D02*
X138963110Y-78209047D01*
X138965160Y-78209061D01*
X139086611Y-78222684D01*
X139203103Y-78259637D01*
X139310199Y-78318514D01*
X139403820Y-78397071D01*
X139480399Y-78492316D01*
X139537020Y-78600621D01*
X139571525Y-78717862D01*
X139571528Y-78717896D01*
X139571531Y-78717906D01*
X139582604Y-78839569D01*
X139569833Y-78961068D01*
X139569831Y-78961073D01*
X139569827Y-78961115D01*
X139533688Y-79077862D01*
X139475560Y-79185367D01*
X139397659Y-79279533D01*
X139302951Y-79356775D01*
X139195043Y-79414151D01*
X139078047Y-79449474D01*
X138956417Y-79461400D01*
X137543549Y-79461400D01*
X137536896Y-79461354D01*
X137536890Y-79461353D01*
X137534840Y-79461339D01*
X137413389Y-79447716D01*
X137296897Y-79410763D01*
X137189801Y-79351886D01*
X137096180Y-79273329D01*
X137019601Y-79178084D01*
X136962980Y-79069779D01*
X136928475Y-78952538D01*
X136928472Y-78952504D01*
X136928469Y-78952494D01*
X136917396Y-78830831D01*
X136930167Y-78709332D01*
X136930169Y-78709327D01*
X136930173Y-78709285D01*
X136966312Y-78592538D01*
X137024440Y-78485033D01*
X137102341Y-78390867D01*
X137197049Y-78313625D01*
X137304957Y-78256249D01*
X137421953Y-78220926D01*
X137543583Y-78209000D01*
X138956451Y-78209000D01*
X138963104Y-78209046D01*
X138963104Y-78209046D01*
G37*
G36*
X123663104Y-78209046D02*
X123663110Y-78209047D01*
X123665160Y-78209061D01*
X123786611Y-78222684D01*
X123903103Y-78259637D01*
X124010199Y-78318514D01*
X124103820Y-78397071D01*
X124180399Y-78492316D01*
X124237020Y-78600621D01*
X124271525Y-78717862D01*
X124271528Y-78717896D01*
X124271531Y-78717906D01*
X124282604Y-78839569D01*
X124269833Y-78961068D01*
X124269831Y-78961073D01*
X124269827Y-78961115D01*
X124233688Y-79077862D01*
X124175560Y-79185367D01*
X124097659Y-79279533D01*
X124002951Y-79356775D01*
X123895043Y-79414151D01*
X123778047Y-79449474D01*
X123656417Y-79461400D01*
X122243549Y-79461400D01*
X122236896Y-79461354D01*
X122236890Y-79461353D01*
X122234840Y-79461339D01*
X122113389Y-79447716D01*
X121996897Y-79410763D01*
X121889801Y-79351886D01*
X121796180Y-79273329D01*
X121719601Y-79178084D01*
X121662980Y-79069779D01*
X121628475Y-78952538D01*
X121628472Y-78952504D01*
X121628469Y-78952494D01*
X121617396Y-78830831D01*
X121630167Y-78709332D01*
X121630169Y-78709327D01*
X121630173Y-78709285D01*
X121666312Y-78592538D01*
X121724440Y-78485033D01*
X121802341Y-78390867D01*
X121897049Y-78313625D01*
X122004957Y-78256249D01*
X122121953Y-78220926D01*
X122243583Y-78209000D01*
X123656451Y-78209000D01*
X123663104Y-78209046D01*
X123663104Y-78209046D01*
G37*
G36*
X119576200Y-78901200D02*
X118123800Y-78901200D01*
X118123800Y-77248800D01*
X119576200Y-77248800D01*
X119576200Y-78901200D01*
X119576200Y-78901200D01*
G37*
G36*
X138963104Y-76209046D02*
X138963110Y-76209047D01*
X138965160Y-76209061D01*
X139086611Y-76222684D01*
X139203103Y-76259637D01*
X139310199Y-76318514D01*
X139403820Y-76397071D01*
X139480399Y-76492316D01*
X139537020Y-76600621D01*
X139571525Y-76717862D01*
X139571528Y-76717896D01*
X139571531Y-76717906D01*
X139582604Y-76839569D01*
X139569833Y-76961068D01*
X139569831Y-76961073D01*
X139569827Y-76961115D01*
X139533688Y-77077862D01*
X139475560Y-77185367D01*
X139397659Y-77279533D01*
X139302951Y-77356775D01*
X139195043Y-77414151D01*
X139078047Y-77449474D01*
X138956417Y-77461400D01*
X137543549Y-77461400D01*
X137536896Y-77461354D01*
X137536890Y-77461353D01*
X137534840Y-77461339D01*
X137413389Y-77447716D01*
X137296897Y-77410763D01*
X137189801Y-77351886D01*
X137096180Y-77273329D01*
X137019601Y-77178084D01*
X136962980Y-77069779D01*
X136928475Y-76952538D01*
X136928472Y-76952504D01*
X136928469Y-76952494D01*
X136917396Y-76830831D01*
X136930167Y-76709332D01*
X136930169Y-76709327D01*
X136930173Y-76709285D01*
X136966312Y-76592538D01*
X137024440Y-76485033D01*
X137102341Y-76390867D01*
X137197049Y-76313625D01*
X137304957Y-76256249D01*
X137421953Y-76220926D01*
X137543583Y-76209000D01*
X138956451Y-76209000D01*
X138963104Y-76209046D01*
X138963104Y-76209046D01*
G37*
G36*
X123563104Y-76209046D02*
X123563110Y-76209047D01*
X123565160Y-76209061D01*
X123686611Y-76222684D01*
X123803103Y-76259637D01*
X123910199Y-76318514D01*
X124003820Y-76397071D01*
X124080399Y-76492316D01*
X124137020Y-76600621D01*
X124171525Y-76717862D01*
X124171528Y-76717896D01*
X124171531Y-76717906D01*
X124182604Y-76839569D01*
X124169833Y-76961068D01*
X124169831Y-76961073D01*
X124169827Y-76961115D01*
X124133688Y-77077862D01*
X124075560Y-77185367D01*
X123997659Y-77279533D01*
X123902951Y-77356775D01*
X123795043Y-77414151D01*
X123678047Y-77449474D01*
X123556417Y-77461400D01*
X122143549Y-77461400D01*
X122136896Y-77461354D01*
X122136890Y-77461353D01*
X122134840Y-77461339D01*
X122013389Y-77447716D01*
X121896897Y-77410763D01*
X121789801Y-77351886D01*
X121696180Y-77273329D01*
X121619601Y-77178084D01*
X121562980Y-77069779D01*
X121528475Y-76952538D01*
X121528472Y-76952504D01*
X121528469Y-76952494D01*
X121517396Y-76830831D01*
X121530167Y-76709332D01*
X121530169Y-76709327D01*
X121530173Y-76709285D01*
X121566312Y-76592538D01*
X121624440Y-76485033D01*
X121702341Y-76390867D01*
X121797049Y-76313625D01*
X121904957Y-76256249D01*
X122021953Y-76220926D01*
X122143583Y-76209000D01*
X123556451Y-76209000D01*
X123563104Y-76209046D01*
X123563104Y-76209046D01*
G37*
G36*
X119576200Y-76201200D02*
X118123800Y-76201200D01*
X118123800Y-74548800D01*
X119576200Y-74548800D01*
X119576200Y-76201200D01*
X119576200Y-76201200D01*
G37*
G36*
X138963104Y-74209046D02*
X138963110Y-74209047D01*
X138965160Y-74209061D01*
X139086611Y-74222684D01*
X139203103Y-74259637D01*
X139310199Y-74318514D01*
X139403820Y-74397071D01*
X139480399Y-74492316D01*
X139537020Y-74600621D01*
X139571525Y-74717862D01*
X139571528Y-74717896D01*
X139571531Y-74717906D01*
X139582604Y-74839569D01*
X139569833Y-74961068D01*
X139569831Y-74961073D01*
X139569827Y-74961115D01*
X139533688Y-75077862D01*
X139475560Y-75185367D01*
X139397659Y-75279533D01*
X139302951Y-75356775D01*
X139195043Y-75414151D01*
X139078047Y-75449474D01*
X138956417Y-75461400D01*
X137543549Y-75461400D01*
X137536896Y-75461354D01*
X137536890Y-75461353D01*
X137534840Y-75461339D01*
X137413389Y-75447716D01*
X137296897Y-75410763D01*
X137189801Y-75351886D01*
X137096180Y-75273329D01*
X137019601Y-75178084D01*
X136962980Y-75069779D01*
X136928475Y-74952538D01*
X136928472Y-74952504D01*
X136928469Y-74952494D01*
X136917396Y-74830831D01*
X136930167Y-74709332D01*
X136930169Y-74709327D01*
X136930173Y-74709285D01*
X136966312Y-74592538D01*
X137024440Y-74485033D01*
X137102341Y-74390867D01*
X137197049Y-74313625D01*
X137304957Y-74256249D01*
X137421953Y-74220926D01*
X137543583Y-74209000D01*
X138956451Y-74209000D01*
X138963104Y-74209046D01*
X138963104Y-74209046D01*
G37*
G36*
X123563104Y-74209046D02*
X123563110Y-74209047D01*
X123565160Y-74209061D01*
X123686611Y-74222684D01*
X123803103Y-74259637D01*
X123910199Y-74318514D01*
X124003820Y-74397071D01*
X124080399Y-74492316D01*
X124137020Y-74600621D01*
X124171525Y-74717862D01*
X124171528Y-74717896D01*
X124171531Y-74717906D01*
X124182604Y-74839569D01*
X124169833Y-74961068D01*
X124169831Y-74961073D01*
X124169827Y-74961115D01*
X124133688Y-75077862D01*
X124075560Y-75185367D01*
X123997659Y-75279533D01*
X123902951Y-75356775D01*
X123795043Y-75414151D01*
X123678047Y-75449474D01*
X123556417Y-75461400D01*
X122143549Y-75461400D01*
X122136896Y-75461354D01*
X122136890Y-75461353D01*
X122134840Y-75461339D01*
X122013389Y-75447716D01*
X121896897Y-75410763D01*
X121789801Y-75351886D01*
X121696180Y-75273329D01*
X121619601Y-75178084D01*
X121562980Y-75069779D01*
X121528475Y-74952538D01*
X121528472Y-74952504D01*
X121528469Y-74952494D01*
X121517396Y-74830831D01*
X121530167Y-74709332D01*
X121530169Y-74709327D01*
X121530173Y-74709285D01*
X121566312Y-74592538D01*
X121624440Y-74485033D01*
X121702341Y-74390867D01*
X121797049Y-74313625D01*
X121904957Y-74256249D01*
X122021953Y-74220926D01*
X122143583Y-74209000D01*
X123556451Y-74209000D01*
X123563104Y-74209046D01*
X123563104Y-74209046D01*
G37*
G36*
X116565200Y-73603800D02*
X115112800Y-73603800D01*
X115112800Y-71951400D01*
X116565200Y-71951400D01*
X116565200Y-73603800D01*
X116565200Y-73603800D01*
G37*
G36*
X144393200Y-73532600D02*
X142940800Y-73532600D01*
X142940800Y-71880200D01*
X144393200Y-71880200D01*
X144393200Y-73532600D01*
X144393200Y-73532600D01*
G37*
G36*
X138963104Y-72209046D02*
X138963110Y-72209047D01*
X138965160Y-72209061D01*
X139086611Y-72222684D01*
X139203103Y-72259637D01*
X139310199Y-72318514D01*
X139403820Y-72397071D01*
X139480399Y-72492316D01*
X139537020Y-72600621D01*
X139571525Y-72717862D01*
X139571528Y-72717896D01*
X139571531Y-72717906D01*
X139582604Y-72839569D01*
X139569833Y-72961068D01*
X139569831Y-72961073D01*
X139569827Y-72961115D01*
X139533688Y-73077862D01*
X139475560Y-73185367D01*
X139397659Y-73279533D01*
X139302951Y-73356775D01*
X139195043Y-73414151D01*
X139078047Y-73449474D01*
X138956417Y-73461400D01*
X137543549Y-73461400D01*
X137536896Y-73461354D01*
X137536890Y-73461353D01*
X137534840Y-73461339D01*
X137413389Y-73447716D01*
X137296897Y-73410763D01*
X137189801Y-73351886D01*
X137096180Y-73273329D01*
X137019601Y-73178084D01*
X136962980Y-73069779D01*
X136928475Y-72952538D01*
X136928472Y-72952504D01*
X136928469Y-72952494D01*
X136917396Y-72830831D01*
X136930167Y-72709332D01*
X136930169Y-72709327D01*
X136930173Y-72709285D01*
X136966312Y-72592538D01*
X137024440Y-72485033D01*
X137102341Y-72390867D01*
X137197049Y-72313625D01*
X137304957Y-72256249D01*
X137421953Y-72220926D01*
X137543583Y-72209000D01*
X138956451Y-72209000D01*
X138963104Y-72209046D01*
X138963104Y-72209046D01*
G37*
G36*
X123563104Y-72209046D02*
X123563110Y-72209047D01*
X123565160Y-72209061D01*
X123686611Y-72222684D01*
X123803103Y-72259637D01*
X123910199Y-72318514D01*
X124003820Y-72397071D01*
X124080399Y-72492316D01*
X124137020Y-72600621D01*
X124171525Y-72717862D01*
X124171528Y-72717896D01*
X124171531Y-72717906D01*
X124182604Y-72839569D01*
X124169833Y-72961068D01*
X124169831Y-72961073D01*
X124169827Y-72961115D01*
X124133688Y-73077862D01*
X124075560Y-73185367D01*
X123997659Y-73279533D01*
X123902951Y-73356775D01*
X123795043Y-73414151D01*
X123678047Y-73449474D01*
X123556417Y-73461400D01*
X122143549Y-73461400D01*
X122136896Y-73461354D01*
X122136890Y-73461353D01*
X122134840Y-73461339D01*
X122013389Y-73447716D01*
X121896897Y-73410763D01*
X121789801Y-73351886D01*
X121696180Y-73273329D01*
X121619601Y-73178084D01*
X121562980Y-73069779D01*
X121528475Y-72952538D01*
X121528472Y-72952504D01*
X121528469Y-72952494D01*
X121517396Y-72830831D01*
X121530167Y-72709332D01*
X121530169Y-72709327D01*
X121530173Y-72709285D01*
X121566312Y-72592538D01*
X121624440Y-72485033D01*
X121702341Y-72390867D01*
X121797049Y-72313625D01*
X121904957Y-72256249D01*
X122021953Y-72220926D01*
X122143583Y-72209000D01*
X123556451Y-72209000D01*
X123563104Y-72209046D01*
X123563104Y-72209046D01*
G37*
G36*
X113684200Y-72034000D02*
X112231800Y-72034000D01*
X112231800Y-70381600D01*
X113684200Y-70381600D01*
X113684200Y-72034000D01*
X113684200Y-72034000D01*
G37*
G36*
X147538200Y-71781600D02*
X146135800Y-71781600D01*
X146135800Y-70129200D01*
X147538200Y-70129200D01*
X147538200Y-71781600D01*
X147538200Y-71781600D01*
G37*
G36*
X138963104Y-70209046D02*
X138963110Y-70209047D01*
X138965160Y-70209061D01*
X139086611Y-70222684D01*
X139203103Y-70259637D01*
X139310199Y-70318514D01*
X139403820Y-70397071D01*
X139480399Y-70492316D01*
X139537020Y-70600621D01*
X139571525Y-70717862D01*
X139571528Y-70717896D01*
X139571531Y-70717906D01*
X139582604Y-70839569D01*
X139569833Y-70961068D01*
X139569831Y-70961073D01*
X139569827Y-70961115D01*
X139533688Y-71077862D01*
X139475560Y-71185367D01*
X139397659Y-71279533D01*
X139302951Y-71356775D01*
X139195043Y-71414151D01*
X139078047Y-71449474D01*
X138956417Y-71461400D01*
X137543549Y-71461400D01*
X137536896Y-71461354D01*
X137536890Y-71461353D01*
X137534840Y-71461339D01*
X137413389Y-71447716D01*
X137296897Y-71410763D01*
X137189801Y-71351886D01*
X137096180Y-71273329D01*
X137019601Y-71178084D01*
X136962980Y-71069779D01*
X136928475Y-70952538D01*
X136928472Y-70952504D01*
X136928469Y-70952494D01*
X136917396Y-70830831D01*
X136930167Y-70709332D01*
X136930169Y-70709327D01*
X136930173Y-70709285D01*
X136966312Y-70592538D01*
X137024440Y-70485033D01*
X137102341Y-70390867D01*
X137197049Y-70313625D01*
X137304957Y-70256249D01*
X137421953Y-70220926D01*
X137543583Y-70209000D01*
X138956451Y-70209000D01*
X138963104Y-70209046D01*
X138963104Y-70209046D01*
G37*
G36*
X123563104Y-70209046D02*
X123563110Y-70209047D01*
X123565160Y-70209061D01*
X123686611Y-70222684D01*
X123803103Y-70259637D01*
X123910199Y-70318514D01*
X124003820Y-70397071D01*
X124080399Y-70492316D01*
X124137020Y-70600621D01*
X124171525Y-70717862D01*
X124171528Y-70717896D01*
X124171531Y-70717906D01*
X124182604Y-70839569D01*
X124169833Y-70961068D01*
X124169831Y-70961073D01*
X124169827Y-70961115D01*
X124133688Y-71077862D01*
X124075560Y-71185367D01*
X123997659Y-71279533D01*
X123902951Y-71356775D01*
X123795043Y-71414151D01*
X123678047Y-71449474D01*
X123556417Y-71461400D01*
X122143549Y-71461400D01*
X122136896Y-71461354D01*
X122136890Y-71461353D01*
X122134840Y-71461339D01*
X122013389Y-71447716D01*
X121896897Y-71410763D01*
X121789801Y-71351886D01*
X121696180Y-71273329D01*
X121619601Y-71178084D01*
X121562980Y-71069779D01*
X121528475Y-70952538D01*
X121528472Y-70952504D01*
X121528469Y-70952494D01*
X121517396Y-70830831D01*
X121530167Y-70709332D01*
X121530169Y-70709327D01*
X121530173Y-70709285D01*
X121566312Y-70592538D01*
X121624440Y-70485033D01*
X121702341Y-70390867D01*
X121797049Y-70313625D01*
X121904957Y-70256249D01*
X122021953Y-70220926D01*
X122143583Y-70209000D01*
X123556451Y-70209000D01*
X123563104Y-70209046D01*
X123563104Y-70209046D01*
G37*
G36*
X116565200Y-70903800D02*
X115112800Y-70903800D01*
X115112800Y-69251400D01*
X116565200Y-69251400D01*
X116565200Y-70903800D01*
X116565200Y-70903800D01*
G37*
G36*
X144393200Y-70832600D02*
X142940800Y-70832600D01*
X142940800Y-69180200D01*
X144393200Y-69180200D01*
X144393200Y-70832600D01*
X144393200Y-70832600D01*
G37*
G36*
X138963104Y-68209046D02*
X138963110Y-68209047D01*
X138965160Y-68209061D01*
X139086611Y-68222684D01*
X139203103Y-68259637D01*
X139310199Y-68318514D01*
X139403820Y-68397071D01*
X139480399Y-68492316D01*
X139537020Y-68600621D01*
X139571525Y-68717862D01*
X139571528Y-68717896D01*
X139571531Y-68717906D01*
X139582604Y-68839569D01*
X139569833Y-68961068D01*
X139569831Y-68961073D01*
X139569827Y-68961115D01*
X139533688Y-69077862D01*
X139475560Y-69185367D01*
X139397659Y-69279533D01*
X139302951Y-69356775D01*
X139195043Y-69414151D01*
X139078047Y-69449474D01*
X138956417Y-69461400D01*
X137543549Y-69461400D01*
X137536896Y-69461354D01*
X137536890Y-69461353D01*
X137534840Y-69461339D01*
X137413389Y-69447716D01*
X137296897Y-69410763D01*
X137189801Y-69351886D01*
X137096180Y-69273329D01*
X137019601Y-69178084D01*
X136962980Y-69069779D01*
X136928475Y-68952538D01*
X136928472Y-68952504D01*
X136928469Y-68952494D01*
X136917396Y-68830831D01*
X136930167Y-68709332D01*
X136930169Y-68709327D01*
X136930173Y-68709285D01*
X136966312Y-68592538D01*
X137024440Y-68485033D01*
X137102341Y-68390867D01*
X137197049Y-68313625D01*
X137304957Y-68256249D01*
X137421953Y-68220926D01*
X137543583Y-68209000D01*
X138956451Y-68209000D01*
X138963104Y-68209046D01*
X138963104Y-68209046D01*
G37*
G36*
X123563104Y-68209046D02*
X123563110Y-68209047D01*
X123565160Y-68209061D01*
X123686611Y-68222684D01*
X123803103Y-68259637D01*
X123910199Y-68318514D01*
X124003820Y-68397071D01*
X124080399Y-68492316D01*
X124137020Y-68600621D01*
X124171525Y-68717862D01*
X124171528Y-68717896D01*
X124171531Y-68717906D01*
X124182604Y-68839569D01*
X124169833Y-68961068D01*
X124169831Y-68961073D01*
X124169827Y-68961115D01*
X124133688Y-69077862D01*
X124075560Y-69185367D01*
X123997659Y-69279533D01*
X123902951Y-69356775D01*
X123795043Y-69414151D01*
X123678047Y-69449474D01*
X123556417Y-69461400D01*
X122143549Y-69461400D01*
X122136896Y-69461354D01*
X122136890Y-69461353D01*
X122134840Y-69461339D01*
X122013389Y-69447716D01*
X121896897Y-69410763D01*
X121789801Y-69351886D01*
X121696180Y-69273329D01*
X121619601Y-69178084D01*
X121562980Y-69069779D01*
X121528475Y-68952538D01*
X121528472Y-68952504D01*
X121528469Y-68952494D01*
X121517396Y-68830831D01*
X121530167Y-68709332D01*
X121530169Y-68709327D01*
X121530173Y-68709285D01*
X121566312Y-68592538D01*
X121624440Y-68485033D01*
X121702341Y-68390867D01*
X121797049Y-68313625D01*
X121904957Y-68256249D01*
X122021953Y-68220926D01*
X122143583Y-68209000D01*
X123556451Y-68209000D01*
X123563104Y-68209046D01*
X123563104Y-68209046D01*
G37*
G36*
X113684200Y-69334000D02*
X112231800Y-69334000D01*
X112231800Y-67681600D01*
X113684200Y-67681600D01*
X113684200Y-69334000D01*
X113684200Y-69334000D01*
G37*
G36*
X147538200Y-69281600D02*
X146135800Y-69281600D01*
X146135800Y-67629200D01*
X147538200Y-67629200D01*
X147538200Y-69281600D01*
X147538200Y-69281600D01*
G37*
G36*
X139576200Y-67461400D02*
X136923800Y-67461400D01*
X136923800Y-66209000D01*
X139576200Y-66209000D01*
X139576200Y-67461400D01*
X139576200Y-67461400D01*
G37*
G36*
X123563104Y-66209046D02*
X123563110Y-66209047D01*
X123565160Y-66209061D01*
X123686611Y-66222684D01*
X123803103Y-66259637D01*
X123910199Y-66318514D01*
X124003820Y-66397071D01*
X124080399Y-66492316D01*
X124137020Y-66600621D01*
X124171525Y-66717862D01*
X124171528Y-66717896D01*
X124171531Y-66717906D01*
X124182604Y-66839569D01*
X124169833Y-66961068D01*
X124169831Y-66961073D01*
X124169827Y-66961115D01*
X124133688Y-67077862D01*
X124075560Y-67185367D01*
X123997659Y-67279533D01*
X123902951Y-67356775D01*
X123795043Y-67414151D01*
X123678047Y-67449474D01*
X123556417Y-67461400D01*
X122143549Y-67461400D01*
X122136896Y-67461354D01*
X122136890Y-67461353D01*
X122134840Y-67461339D01*
X122013389Y-67447716D01*
X121896897Y-67410763D01*
X121789801Y-67351886D01*
X121696180Y-67273329D01*
X121619601Y-67178084D01*
X121562980Y-67069779D01*
X121528475Y-66952538D01*
X121528472Y-66952504D01*
X121528469Y-66952494D01*
X121517396Y-66830831D01*
X121530167Y-66709332D01*
X121530169Y-66709327D01*
X121530173Y-66709285D01*
X121566312Y-66592538D01*
X121624440Y-66485033D01*
X121702341Y-66390867D01*
X121797049Y-66313625D01*
X121904957Y-66256249D01*
X122021953Y-66220926D01*
X122143583Y-66209000D01*
X123556451Y-66209000D01*
X123563104Y-66209046D01*
X123563104Y-66209046D01*
G37*
G36*
X130817103Y-43453013D02*
X131369628Y-43566431D01*
X131889613Y-43785012D01*
X132357233Y-44100426D01*
X132754683Y-44500660D01*
X133066823Y-44970470D01*
X133281767Y-45491961D01*
X133391256Y-46044925D01*
X133391256Y-46044930D01*
X133391324Y-46045274D01*
X133382328Y-46689528D01*
X133382251Y-46689866D01*
X133382251Y-46689874D01*
X133257364Y-47239566D01*
X133027945Y-47754850D01*
X132702806Y-48215763D01*
X132294335Y-48604745D01*
X131818090Y-48906979D01*
X131292208Y-49110955D01*
X130736729Y-49208902D01*
X130172799Y-49197088D01*
X129621903Y-49075966D01*
X129105025Y-48850148D01*
X128641858Y-48528238D01*
X128250034Y-48122493D01*
X127944481Y-47648368D01*
X127736838Y-47123920D01*
X127635017Y-46569141D01*
X127642892Y-46005143D01*
X127760166Y-45453414D01*
X127982368Y-44934975D01*
X128301040Y-44469567D01*
X128704039Y-44074921D01*
X129176020Y-43766066D01*
X129699001Y-43554767D01*
X130253059Y-43449076D01*
X130817103Y-43453013D01*
X130817103Y-43453013D01*
G37*
M02*
