G04 #@! TF.GenerationSoftware,KiCad,Pcbnew,no-vcs-found-84f1c8e~59~ubuntu16.04.1*
G04 #@! TF.CreationDate,2017-08-12T11:45:17-06:00*
G04 #@! TF.ProjectId,001,3030312E6B696361645F706362000000,rev?*
G04 #@! TF.SameCoordinates,Original*
G04 #@! TF.FileFunction,Soldermask,Bot*
G04 #@! TF.FilePolarity,Negative*
%FSLAX46Y46*%
G04 Gerber Fmt 4.6, Leading zero omitted, Abs format (unit mm)*
G04 Created by KiCad (PCBNEW no-vcs-found-84f1c8e~59~ubuntu16.04.1) date Sat Aug 12 11:45:17 2017*
%MOMM*%
%LPD*%
G01*
G04 APERTURE LIST*
%ADD10C,0.010000*%
%ADD11C,0.100000*%
G04 APERTURE END LIST*
D10*
G36*
X120768334Y-104313975D02*
X120727717Y-104320693D01*
X120690799Y-104332111D01*
X120657118Y-104348402D01*
X120626211Y-104369739D01*
X120603183Y-104390547D01*
X120589551Y-104404934D01*
X120579251Y-104417719D01*
X120570608Y-104431208D01*
X120562586Y-104446412D01*
X120556981Y-104457964D01*
X120552202Y-104468628D01*
X120548185Y-104479011D01*
X120544862Y-104489721D01*
X120542167Y-104501365D01*
X120540036Y-104514550D01*
X120538402Y-104529883D01*
X120537199Y-104547973D01*
X120536361Y-104569427D01*
X120535822Y-104594851D01*
X120535517Y-104624854D01*
X120535378Y-104660042D01*
X120535342Y-104697383D01*
X120535300Y-104858104D01*
X120515457Y-104860329D01*
X120490607Y-104865180D01*
X120470906Y-104873683D01*
X120456198Y-104885999D01*
X120446325Y-104902291D01*
X120441131Y-104922721D01*
X120440190Y-104938300D01*
X120441881Y-104960033D01*
X120447202Y-104977302D01*
X120456528Y-104991093D01*
X120462207Y-104996492D01*
X120468076Y-105001370D01*
X120473421Y-105005363D01*
X120478925Y-105008559D01*
X120485269Y-105011048D01*
X120493137Y-105012917D01*
X120503210Y-105014255D01*
X120516172Y-105015151D01*
X120532704Y-105015694D01*
X120553488Y-105015971D01*
X120579208Y-105016073D01*
X120610545Y-105016087D01*
X120730563Y-105016087D01*
X120749613Y-105006562D01*
X120766518Y-104996145D01*
X120778076Y-104983911D01*
X120785103Y-104968609D01*
X120788417Y-104948987D01*
X120788567Y-104946867D01*
X120788118Y-104922619D01*
X120783207Y-104902716D01*
X120773593Y-104886866D01*
X120759034Y-104874777D01*
X120739290Y-104866159D01*
X120717756Y-104861265D01*
X120694050Y-104857493D01*
X120694050Y-104712826D01*
X120694084Y-104675545D01*
X120694220Y-104644025D01*
X120694516Y-104617677D01*
X120695026Y-104595912D01*
X120695807Y-104578142D01*
X120696914Y-104563778D01*
X120698402Y-104552230D01*
X120700327Y-104542911D01*
X120702745Y-104535230D01*
X120705711Y-104528600D01*
X120709281Y-104522431D01*
X120712486Y-104517612D01*
X120725082Y-104503759D01*
X120742136Y-104491309D01*
X120761757Y-104481544D01*
X120769857Y-104478691D01*
X120779842Y-104476210D01*
X120791770Y-104474549D01*
X120806975Y-104473592D01*
X120826787Y-104473226D01*
X120833750Y-104473214D01*
X120852544Y-104473338D01*
X120866534Y-104473787D01*
X120877265Y-104474747D01*
X120886284Y-104476406D01*
X120895134Y-104478950D01*
X120902572Y-104481545D01*
X120927233Y-104492644D01*
X120952595Y-104508411D01*
X120979315Y-104529289D01*
X120998334Y-104546386D01*
X121027425Y-104573771D01*
X121027425Y-104858925D01*
X121015309Y-104858925D01*
X121000001Y-104859977D01*
X120983093Y-104862773D01*
X120967197Y-104866765D01*
X120954922Y-104871410D01*
X120954501Y-104871623D01*
X120937461Y-104883473D01*
X120925495Y-104898963D01*
X120918502Y-104918280D01*
X120916370Y-104940579D01*
X120918354Y-104962296D01*
X120924517Y-104979681D01*
X120935413Y-104993616D01*
X120951595Y-105004980D01*
X120959203Y-105008788D01*
X120963279Y-105010602D01*
X120967314Y-105012091D01*
X120971954Y-105013291D01*
X120977849Y-105014238D01*
X120985648Y-105014966D01*
X120995998Y-105015513D01*
X121009548Y-105015913D01*
X121026948Y-105016202D01*
X121048844Y-105016416D01*
X121075887Y-105016591D01*
X121103625Y-105016737D01*
X121138312Y-105016860D01*
X121167154Y-105016839D01*
X121190657Y-105016661D01*
X121209327Y-105016315D01*
X121223667Y-105015788D01*
X121234184Y-105015067D01*
X121241381Y-105014141D01*
X121244913Y-105013302D01*
X121266181Y-105004532D01*
X121281852Y-104993343D01*
X121292443Y-104979028D01*
X121298471Y-104960880D01*
X121300455Y-104938192D01*
X121300458Y-104937404D01*
X121297760Y-104915291D01*
X121289745Y-104896437D01*
X121276603Y-104881168D01*
X121262275Y-104871623D01*
X121250222Y-104866962D01*
X121234430Y-104862929D01*
X121217512Y-104860069D01*
X121202078Y-104858927D01*
X121201467Y-104858925D01*
X121189350Y-104858925D01*
X121189350Y-104491917D01*
X121211736Y-104488078D01*
X121225127Y-104485178D01*
X121237872Y-104481416D01*
X121246354Y-104477999D01*
X121262664Y-104466320D01*
X121274603Y-104450629D01*
X121281860Y-104431796D01*
X121284124Y-104410691D01*
X121281086Y-104388183D01*
X121279925Y-104383958D01*
X121271602Y-104366620D01*
X121257753Y-104352216D01*
X121238563Y-104340768D01*
X121233850Y-104338706D01*
X121229152Y-104337062D01*
X121223694Y-104335781D01*
X121216701Y-104334805D01*
X121207400Y-104334079D01*
X121195016Y-104333544D01*
X121178776Y-104333146D01*
X121157903Y-104332826D01*
X121131626Y-104332529D01*
X121125057Y-104332461D01*
X121027425Y-104331461D01*
X121027425Y-104401887D01*
X121007513Y-104384995D01*
X120987406Y-104368685D01*
X120969105Y-104355697D01*
X120950306Y-104344514D01*
X120931412Y-104334908D01*
X120910069Y-104325703D01*
X120889218Y-104319117D01*
X120867179Y-104314820D01*
X120842270Y-104312484D01*
X120813113Y-104311782D01*
X120768334Y-104313975D01*
X120768334Y-104313975D01*
G37*
X120768334Y-104313975D02*
X120727717Y-104320693D01*
X120690799Y-104332111D01*
X120657118Y-104348402D01*
X120626211Y-104369739D01*
X120603183Y-104390547D01*
X120589551Y-104404934D01*
X120579251Y-104417719D01*
X120570608Y-104431208D01*
X120562586Y-104446412D01*
X120556981Y-104457964D01*
X120552202Y-104468628D01*
X120548185Y-104479011D01*
X120544862Y-104489721D01*
X120542167Y-104501365D01*
X120540036Y-104514550D01*
X120538402Y-104529883D01*
X120537199Y-104547973D01*
X120536361Y-104569427D01*
X120535822Y-104594851D01*
X120535517Y-104624854D01*
X120535378Y-104660042D01*
X120535342Y-104697383D01*
X120535300Y-104858104D01*
X120515457Y-104860329D01*
X120490607Y-104865180D01*
X120470906Y-104873683D01*
X120456198Y-104885999D01*
X120446325Y-104902291D01*
X120441131Y-104922721D01*
X120440190Y-104938300D01*
X120441881Y-104960033D01*
X120447202Y-104977302D01*
X120456528Y-104991093D01*
X120462207Y-104996492D01*
X120468076Y-105001370D01*
X120473421Y-105005363D01*
X120478925Y-105008559D01*
X120485269Y-105011048D01*
X120493137Y-105012917D01*
X120503210Y-105014255D01*
X120516172Y-105015151D01*
X120532704Y-105015694D01*
X120553488Y-105015971D01*
X120579208Y-105016073D01*
X120610545Y-105016087D01*
X120730563Y-105016087D01*
X120749613Y-105006562D01*
X120766518Y-104996145D01*
X120778076Y-104983911D01*
X120785103Y-104968609D01*
X120788417Y-104948987D01*
X120788567Y-104946867D01*
X120788118Y-104922619D01*
X120783207Y-104902716D01*
X120773593Y-104886866D01*
X120759034Y-104874777D01*
X120739290Y-104866159D01*
X120717756Y-104861265D01*
X120694050Y-104857493D01*
X120694050Y-104712826D01*
X120694084Y-104675545D01*
X120694220Y-104644025D01*
X120694516Y-104617677D01*
X120695026Y-104595912D01*
X120695807Y-104578142D01*
X120696914Y-104563778D01*
X120698402Y-104552230D01*
X120700327Y-104542911D01*
X120702745Y-104535230D01*
X120705711Y-104528600D01*
X120709281Y-104522431D01*
X120712486Y-104517612D01*
X120725082Y-104503759D01*
X120742136Y-104491309D01*
X120761757Y-104481544D01*
X120769857Y-104478691D01*
X120779842Y-104476210D01*
X120791770Y-104474549D01*
X120806975Y-104473592D01*
X120826787Y-104473226D01*
X120833750Y-104473214D01*
X120852544Y-104473338D01*
X120866534Y-104473787D01*
X120877265Y-104474747D01*
X120886284Y-104476406D01*
X120895134Y-104478950D01*
X120902572Y-104481545D01*
X120927233Y-104492644D01*
X120952595Y-104508411D01*
X120979315Y-104529289D01*
X120998334Y-104546386D01*
X121027425Y-104573771D01*
X121027425Y-104858925D01*
X121015309Y-104858925D01*
X121000001Y-104859977D01*
X120983093Y-104862773D01*
X120967197Y-104866765D01*
X120954922Y-104871410D01*
X120954501Y-104871623D01*
X120937461Y-104883473D01*
X120925495Y-104898963D01*
X120918502Y-104918280D01*
X120916370Y-104940579D01*
X120918354Y-104962296D01*
X120924517Y-104979681D01*
X120935413Y-104993616D01*
X120951595Y-105004980D01*
X120959203Y-105008788D01*
X120963279Y-105010602D01*
X120967314Y-105012091D01*
X120971954Y-105013291D01*
X120977849Y-105014238D01*
X120985648Y-105014966D01*
X120995998Y-105015513D01*
X121009548Y-105015913D01*
X121026948Y-105016202D01*
X121048844Y-105016416D01*
X121075887Y-105016591D01*
X121103625Y-105016737D01*
X121138312Y-105016860D01*
X121167154Y-105016839D01*
X121190657Y-105016661D01*
X121209327Y-105016315D01*
X121223667Y-105015788D01*
X121234184Y-105015067D01*
X121241381Y-105014141D01*
X121244913Y-105013302D01*
X121266181Y-105004532D01*
X121281852Y-104993343D01*
X121292443Y-104979028D01*
X121298471Y-104960880D01*
X121300455Y-104938192D01*
X121300458Y-104937404D01*
X121297760Y-104915291D01*
X121289745Y-104896437D01*
X121276603Y-104881168D01*
X121262275Y-104871623D01*
X121250222Y-104866962D01*
X121234430Y-104862929D01*
X121217512Y-104860069D01*
X121202078Y-104858927D01*
X121201467Y-104858925D01*
X121189350Y-104858925D01*
X121189350Y-104491917D01*
X121211736Y-104488078D01*
X121225127Y-104485178D01*
X121237872Y-104481416D01*
X121246354Y-104477999D01*
X121262664Y-104466320D01*
X121274603Y-104450629D01*
X121281860Y-104431796D01*
X121284124Y-104410691D01*
X121281086Y-104388183D01*
X121279925Y-104383958D01*
X121271602Y-104366620D01*
X121257753Y-104352216D01*
X121238563Y-104340768D01*
X121233850Y-104338706D01*
X121229152Y-104337062D01*
X121223694Y-104335781D01*
X121216701Y-104334805D01*
X121207400Y-104334079D01*
X121195016Y-104333544D01*
X121178776Y-104333146D01*
X121157903Y-104332826D01*
X121131626Y-104332529D01*
X121125057Y-104332461D01*
X121027425Y-104331461D01*
X121027425Y-104401887D01*
X121007513Y-104384995D01*
X120987406Y-104368685D01*
X120969105Y-104355697D01*
X120950306Y-104344514D01*
X120931412Y-104334908D01*
X120910069Y-104325703D01*
X120889218Y-104319117D01*
X120867179Y-104314820D01*
X120842270Y-104312484D01*
X120813113Y-104311782D01*
X120768334Y-104313975D01*
G36*
X123726406Y-104103637D02*
X123700736Y-104103904D01*
X123678815Y-104104347D01*
X123660125Y-104104990D01*
X123644145Y-104105858D01*
X123630355Y-104106974D01*
X123618236Y-104108362D01*
X123607267Y-104110047D01*
X123596928Y-104112053D01*
X123586700Y-104114403D01*
X123576063Y-104117122D01*
X123572939Y-104117954D01*
X123533392Y-104131276D01*
X123496136Y-104149222D01*
X123461861Y-104171244D01*
X123431257Y-104196796D01*
X123405013Y-104225329D01*
X123383820Y-104256297D01*
X123373789Y-104275876D01*
X123361920Y-104309161D01*
X123354633Y-104345128D01*
X123352201Y-104381790D01*
X123354547Y-104414821D01*
X123362587Y-104450401D01*
X123376138Y-104483700D01*
X123395434Y-104515147D01*
X123420708Y-104545175D01*
X123430886Y-104555310D01*
X123441565Y-104564889D01*
X123454432Y-104575474D01*
X123468425Y-104586303D01*
X123482484Y-104596612D01*
X123495550Y-104605637D01*
X123506561Y-104612616D01*
X123514457Y-104616784D01*
X123517435Y-104617625D01*
X123516582Y-104619686D01*
X123511892Y-104625319D01*
X123504107Y-104633696D01*
X123493970Y-104643988D01*
X123492481Y-104645459D01*
X123448558Y-104691791D01*
X123405780Y-104742870D01*
X123365443Y-104797092D01*
X123343575Y-104829506D01*
X123324538Y-104858825D01*
X123305488Y-104858930D01*
X123284732Y-104860296D01*
X123264239Y-104863867D01*
X123245893Y-104869190D01*
X123231579Y-104875810D01*
X123229288Y-104877304D01*
X123215183Y-104890228D01*
X123206029Y-104906123D01*
X123201478Y-104925741D01*
X123200809Y-104938300D01*
X123202902Y-104961429D01*
X123209557Y-104980249D01*
X123221035Y-104995117D01*
X123237594Y-105006392D01*
X123254884Y-105013130D01*
X123261817Y-105014675D01*
X123271551Y-105015860D01*
X123284809Y-105016717D01*
X123302310Y-105017283D01*
X123324778Y-105017590D01*
X123350264Y-105017675D01*
X123430543Y-105017675D01*
X123448370Y-104985911D01*
X123466902Y-104954470D01*
X123487684Y-104921981D01*
X123510202Y-104889070D01*
X123533940Y-104856366D01*
X123558385Y-104824494D01*
X123583022Y-104794081D01*
X123607336Y-104765753D01*
X123630813Y-104740139D01*
X123652938Y-104717863D01*
X123673198Y-104699553D01*
X123691077Y-104685835D01*
X123698634Y-104681081D01*
X123715063Y-104671659D01*
X123790469Y-104671629D01*
X123865875Y-104671600D01*
X123865875Y-104858925D01*
X123830157Y-104858980D01*
X123798974Y-104860151D01*
X123773233Y-104863688D01*
X123752408Y-104869781D01*
X123735976Y-104878623D01*
X123723412Y-104890403D01*
X123716725Y-104900340D01*
X123712302Y-104909676D01*
X123709881Y-104919213D01*
X123708944Y-104931457D01*
X123708867Y-104938300D01*
X123710994Y-104961286D01*
X123717465Y-104979852D01*
X123728428Y-104994344D01*
X123735503Y-105000075D01*
X123741209Y-105003917D01*
X123746702Y-105007155D01*
X123752557Y-105009840D01*
X123759350Y-105012024D01*
X123767657Y-105013757D01*
X123778054Y-105015091D01*
X123791116Y-105016077D01*
X123807419Y-105016767D01*
X123827539Y-105017210D01*
X123852052Y-105017460D01*
X123881532Y-105017566D01*
X123916556Y-105017580D01*
X123932261Y-105017571D01*
X123967911Y-105017531D01*
X123997794Y-105017450D01*
X124022496Y-105017308D01*
X124042600Y-105017085D01*
X124058690Y-105016760D01*
X124071351Y-105016314D01*
X124081167Y-105015725D01*
X124088722Y-105014975D01*
X124094599Y-105014043D01*
X124099384Y-105012909D01*
X124103316Y-105011672D01*
X124122884Y-105001968D01*
X124137694Y-104988198D01*
X124147570Y-104970693D01*
X124152335Y-104949783D01*
X124151814Y-104925799D01*
X124151239Y-104921772D01*
X124145234Y-104902381D01*
X124133995Y-104886427D01*
X124117689Y-104874011D01*
X124096485Y-104865233D01*
X124070552Y-104860195D01*
X124046267Y-104858925D01*
X124027800Y-104858925D01*
X124027800Y-104512850D01*
X123865875Y-104512850D01*
X123815869Y-104512822D01*
X123793935Y-104512583D01*
X123769739Y-104511952D01*
X123746017Y-104511019D01*
X123725504Y-104509877D01*
X123722907Y-104509696D01*
X123689126Y-104506283D01*
X123659865Y-104501059D01*
X123633456Y-104493625D01*
X123608227Y-104483585D01*
X123602979Y-104481134D01*
X123581150Y-104468724D01*
X123561296Y-104453676D01*
X123544723Y-104437161D01*
X123532736Y-104420353D01*
X123530499Y-104416012D01*
X123525039Y-104398876D01*
X123522889Y-104379361D01*
X123524103Y-104360000D01*
X123528733Y-104343327D01*
X123528978Y-104342779D01*
X123541258Y-104323041D01*
X123559071Y-104305048D01*
X123581714Y-104289347D01*
X123608487Y-104276483D01*
X123619564Y-104272462D01*
X123626509Y-104270187D01*
X123632776Y-104268349D01*
X123639131Y-104266893D01*
X123646343Y-104265764D01*
X123655180Y-104264906D01*
X123666409Y-104264266D01*
X123680797Y-104263787D01*
X123699114Y-104263416D01*
X123722126Y-104263096D01*
X123750601Y-104262774D01*
X123755544Y-104262720D01*
X123865875Y-104261522D01*
X123865875Y-104512850D01*
X124027800Y-104512850D01*
X124027800Y-104262948D01*
X124058757Y-104261146D01*
X124086947Y-104257902D01*
X124109708Y-104251625D01*
X124127308Y-104242087D01*
X124140015Y-104229058D01*
X124148098Y-104212309D01*
X124151825Y-104191612D01*
X124152155Y-104181428D01*
X124150508Y-104159327D01*
X124145405Y-104141937D01*
X124136315Y-104128336D01*
X124122708Y-104117597D01*
X124112419Y-104112262D01*
X124096063Y-104104862D01*
X123876988Y-104103845D01*
X123831118Y-104103650D01*
X123791077Y-104103534D01*
X123756347Y-104103522D01*
X123726406Y-104103637D01*
X123726406Y-104103637D01*
G37*
X123726406Y-104103637D02*
X123700736Y-104103904D01*
X123678815Y-104104347D01*
X123660125Y-104104990D01*
X123644145Y-104105858D01*
X123630355Y-104106974D01*
X123618236Y-104108362D01*
X123607267Y-104110047D01*
X123596928Y-104112053D01*
X123586700Y-104114403D01*
X123576063Y-104117122D01*
X123572939Y-104117954D01*
X123533392Y-104131276D01*
X123496136Y-104149222D01*
X123461861Y-104171244D01*
X123431257Y-104196796D01*
X123405013Y-104225329D01*
X123383820Y-104256297D01*
X123373789Y-104275876D01*
X123361920Y-104309161D01*
X123354633Y-104345128D01*
X123352201Y-104381790D01*
X123354547Y-104414821D01*
X123362587Y-104450401D01*
X123376138Y-104483700D01*
X123395434Y-104515147D01*
X123420708Y-104545175D01*
X123430886Y-104555310D01*
X123441565Y-104564889D01*
X123454432Y-104575474D01*
X123468425Y-104586303D01*
X123482484Y-104596612D01*
X123495550Y-104605637D01*
X123506561Y-104612616D01*
X123514457Y-104616784D01*
X123517435Y-104617625D01*
X123516582Y-104619686D01*
X123511892Y-104625319D01*
X123504107Y-104633696D01*
X123493970Y-104643988D01*
X123492481Y-104645459D01*
X123448558Y-104691791D01*
X123405780Y-104742870D01*
X123365443Y-104797092D01*
X123343575Y-104829506D01*
X123324538Y-104858825D01*
X123305488Y-104858930D01*
X123284732Y-104860296D01*
X123264239Y-104863867D01*
X123245893Y-104869190D01*
X123231579Y-104875810D01*
X123229288Y-104877304D01*
X123215183Y-104890228D01*
X123206029Y-104906123D01*
X123201478Y-104925741D01*
X123200809Y-104938300D01*
X123202902Y-104961429D01*
X123209557Y-104980249D01*
X123221035Y-104995117D01*
X123237594Y-105006392D01*
X123254884Y-105013130D01*
X123261817Y-105014675D01*
X123271551Y-105015860D01*
X123284809Y-105016717D01*
X123302310Y-105017283D01*
X123324778Y-105017590D01*
X123350264Y-105017675D01*
X123430543Y-105017675D01*
X123448370Y-104985911D01*
X123466902Y-104954470D01*
X123487684Y-104921981D01*
X123510202Y-104889070D01*
X123533940Y-104856366D01*
X123558385Y-104824494D01*
X123583022Y-104794081D01*
X123607336Y-104765753D01*
X123630813Y-104740139D01*
X123652938Y-104717863D01*
X123673198Y-104699553D01*
X123691077Y-104685835D01*
X123698634Y-104681081D01*
X123715063Y-104671659D01*
X123790469Y-104671629D01*
X123865875Y-104671600D01*
X123865875Y-104858925D01*
X123830157Y-104858980D01*
X123798974Y-104860151D01*
X123773233Y-104863688D01*
X123752408Y-104869781D01*
X123735976Y-104878623D01*
X123723412Y-104890403D01*
X123716725Y-104900340D01*
X123712302Y-104909676D01*
X123709881Y-104919213D01*
X123708944Y-104931457D01*
X123708867Y-104938300D01*
X123710994Y-104961286D01*
X123717465Y-104979852D01*
X123728428Y-104994344D01*
X123735503Y-105000075D01*
X123741209Y-105003917D01*
X123746702Y-105007155D01*
X123752557Y-105009840D01*
X123759350Y-105012024D01*
X123767657Y-105013757D01*
X123778054Y-105015091D01*
X123791116Y-105016077D01*
X123807419Y-105016767D01*
X123827539Y-105017210D01*
X123852052Y-105017460D01*
X123881532Y-105017566D01*
X123916556Y-105017580D01*
X123932261Y-105017571D01*
X123967911Y-105017531D01*
X123997794Y-105017450D01*
X124022496Y-105017308D01*
X124042600Y-105017085D01*
X124058690Y-105016760D01*
X124071351Y-105016314D01*
X124081167Y-105015725D01*
X124088722Y-105014975D01*
X124094599Y-105014043D01*
X124099384Y-105012909D01*
X124103316Y-105011672D01*
X124122884Y-105001968D01*
X124137694Y-104988198D01*
X124147570Y-104970693D01*
X124152335Y-104949783D01*
X124151814Y-104925799D01*
X124151239Y-104921772D01*
X124145234Y-104902381D01*
X124133995Y-104886427D01*
X124117689Y-104874011D01*
X124096485Y-104865233D01*
X124070552Y-104860195D01*
X124046267Y-104858925D01*
X124027800Y-104858925D01*
X124027800Y-104512850D01*
X123865875Y-104512850D01*
X123815869Y-104512822D01*
X123793935Y-104512583D01*
X123769739Y-104511952D01*
X123746017Y-104511019D01*
X123725504Y-104509877D01*
X123722907Y-104509696D01*
X123689126Y-104506283D01*
X123659865Y-104501059D01*
X123633456Y-104493625D01*
X123608227Y-104483585D01*
X123602979Y-104481134D01*
X123581150Y-104468724D01*
X123561296Y-104453676D01*
X123544723Y-104437161D01*
X123532736Y-104420353D01*
X123530499Y-104416012D01*
X123525039Y-104398876D01*
X123522889Y-104379361D01*
X123524103Y-104360000D01*
X123528733Y-104343327D01*
X123528978Y-104342779D01*
X123541258Y-104323041D01*
X123559071Y-104305048D01*
X123581714Y-104289347D01*
X123608487Y-104276483D01*
X123619564Y-104272462D01*
X123626509Y-104270187D01*
X123632776Y-104268349D01*
X123639131Y-104266893D01*
X123646343Y-104265764D01*
X123655180Y-104264906D01*
X123666409Y-104264266D01*
X123680797Y-104263787D01*
X123699114Y-104263416D01*
X123722126Y-104263096D01*
X123750601Y-104262774D01*
X123755544Y-104262720D01*
X123865875Y-104261522D01*
X123865875Y-104512850D01*
X124027800Y-104512850D01*
X124027800Y-104262948D01*
X124058757Y-104261146D01*
X124086947Y-104257902D01*
X124109708Y-104251625D01*
X124127308Y-104242087D01*
X124140015Y-104229058D01*
X124148098Y-104212309D01*
X124151825Y-104191612D01*
X124152155Y-104181428D01*
X124150508Y-104159327D01*
X124145405Y-104141937D01*
X124136315Y-104128336D01*
X124122708Y-104117597D01*
X124112419Y-104112262D01*
X124096063Y-104104862D01*
X123876988Y-104103845D01*
X123831118Y-104103650D01*
X123791077Y-104103534D01*
X123756347Y-104103522D01*
X123726406Y-104103637D01*
G36*
X124285093Y-104082705D02*
X124268806Y-104088438D01*
X124259319Y-104094668D01*
X124251943Y-104102961D01*
X124245288Y-104114396D01*
X124235763Y-104132967D01*
X124234772Y-104237280D01*
X124234535Y-104267119D01*
X124234464Y-104291332D01*
X124234582Y-104310642D01*
X124234912Y-104325770D01*
X124235478Y-104337440D01*
X124236303Y-104346374D01*
X124237410Y-104353295D01*
X124238657Y-104358364D01*
X124246615Y-104378773D01*
X124257388Y-104393817D01*
X124271588Y-104403946D01*
X124289830Y-104409605D01*
X124311150Y-104411250D01*
X124325042Y-104410671D01*
X124337563Y-104409137D01*
X124346265Y-104406951D01*
X124346434Y-104406881D01*
X124357557Y-104400143D01*
X124367357Y-104389474D01*
X124376178Y-104374273D01*
X124384367Y-104353941D01*
X124392271Y-104327878D01*
X124392516Y-104326968D01*
X124400338Y-104309699D01*
X124413750Y-104293873D01*
X124432115Y-104279690D01*
X124454795Y-104267352D01*
X124481152Y-104257061D01*
X124510550Y-104249017D01*
X124542351Y-104243422D01*
X124575917Y-104240477D01*
X124610610Y-104240384D01*
X124645795Y-104243343D01*
X124653834Y-104244468D01*
X124695635Y-104253655D01*
X124734127Y-104267950D01*
X124768992Y-104287056D01*
X124799912Y-104310677D01*
X124826568Y-104338517D01*
X124848642Y-104370277D01*
X124865816Y-104405663D01*
X124877772Y-104444376D01*
X124880044Y-104455256D01*
X124881827Y-104468560D01*
X124883253Y-104486898D01*
X124884320Y-104509128D01*
X124885029Y-104534109D01*
X124885380Y-104560700D01*
X124885372Y-104587759D01*
X124885007Y-104614145D01*
X124884284Y-104638716D01*
X124883203Y-104660331D01*
X124881763Y-104677849D01*
X124880036Y-104689792D01*
X124869542Y-104727609D01*
X124854526Y-104761143D01*
X124834917Y-104790455D01*
X124810642Y-104815602D01*
X124781630Y-104836643D01*
X124747807Y-104853638D01*
X124709103Y-104866646D01*
X124665445Y-104875725D01*
X124650184Y-104877839D01*
X124606209Y-104881049D01*
X124560528Y-104880329D01*
X124514810Y-104875863D01*
X124470728Y-104867839D01*
X124429951Y-104856441D01*
X124417532Y-104851981D01*
X124392925Y-104842588D01*
X124392925Y-104738902D01*
X124487382Y-104737493D01*
X124517581Y-104736968D01*
X124542210Y-104736312D01*
X124562047Y-104735416D01*
X124577871Y-104734173D01*
X124590462Y-104732474D01*
X124600598Y-104730210D01*
X124609059Y-104727273D01*
X124616624Y-104723554D01*
X124624072Y-104718946D01*
X124624981Y-104718337D01*
X124637733Y-104706063D01*
X124646758Y-104689500D01*
X124651742Y-104669714D01*
X124652371Y-104647769D01*
X124650243Y-104632601D01*
X124644333Y-104615383D01*
X124634127Y-104601763D01*
X124618908Y-104590956D01*
X124607238Y-104585561D01*
X124588188Y-104577937D01*
X124413563Y-104577937D01*
X124375399Y-104577952D01*
X124343039Y-104578006D01*
X124315937Y-104578116D01*
X124293548Y-104578298D01*
X124275326Y-104578567D01*
X124260726Y-104578940D01*
X124249201Y-104579432D01*
X124240206Y-104580060D01*
X124233195Y-104580840D01*
X124227622Y-104581787D01*
X124222943Y-104582917D01*
X124220696Y-104583578D01*
X124200083Y-104592765D01*
X124184327Y-104605933D01*
X124173638Y-104622803D01*
X124168229Y-104643095D01*
X124167570Y-104653769D01*
X124169763Y-104677377D01*
X124176709Y-104696916D01*
X124188668Y-104712806D01*
X124205902Y-104725468D01*
X124214925Y-104729991D01*
X124234175Y-104738631D01*
X124234175Y-104945067D01*
X124279419Y-104966749D01*
X124319386Y-104985152D01*
X124355798Y-105000222D01*
X124390147Y-105012481D01*
X124423923Y-105022453D01*
X124458617Y-105030659D01*
X124465950Y-105032166D01*
X124478770Y-105034021D01*
X124496689Y-105035616D01*
X124518460Y-105036925D01*
X124542837Y-105037923D01*
X124568574Y-105038583D01*
X124594424Y-105038881D01*
X124619140Y-105038791D01*
X124641476Y-105038287D01*
X124660186Y-105037343D01*
X124670738Y-105036374D01*
X124710872Y-105029972D01*
X124751506Y-105020536D01*
X124790867Y-105008591D01*
X124827182Y-104994665D01*
X124853300Y-104982211D01*
X124891697Y-104958292D01*
X124926534Y-104929389D01*
X124957516Y-104895966D01*
X124984347Y-104858485D01*
X125006729Y-104817410D01*
X125024366Y-104773205D01*
X125036961Y-104726333D01*
X125043458Y-104684969D01*
X125044743Y-104668693D01*
X125045726Y-104647430D01*
X125046407Y-104622535D01*
X125046784Y-104595364D01*
X125046855Y-104567272D01*
X125046619Y-104539616D01*
X125046076Y-104513750D01*
X125045224Y-104491030D01*
X125044061Y-104472812D01*
X125043661Y-104468522D01*
X125036428Y-104422572D01*
X125024482Y-104377492D01*
X125008377Y-104335287D01*
X125004442Y-104326819D01*
X124989115Y-104297100D01*
X124973221Y-104271132D01*
X124955405Y-104247017D01*
X124934309Y-104222857D01*
X124918401Y-104206435D01*
X124882999Y-104174109D01*
X124846593Y-104147277D01*
X124808131Y-104125371D01*
X124766562Y-104107821D01*
X124720835Y-104094059D01*
X124703086Y-104089908D01*
X124691359Y-104087515D01*
X124680300Y-104085722D01*
X124668690Y-104084446D01*
X124655310Y-104083603D01*
X124638940Y-104083112D01*
X124618361Y-104082888D01*
X124599300Y-104082846D01*
X124572238Y-104082982D01*
X124550367Y-104083437D01*
X124532533Y-104084276D01*
X124517583Y-104085562D01*
X124504363Y-104087359D01*
X124497912Y-104088494D01*
X124471803Y-104094313D01*
X124443885Y-104102053D01*
X124416775Y-104110917D01*
X124393090Y-104120110D01*
X124390845Y-104121090D01*
X124379119Y-104125641D01*
X124372617Y-104126616D01*
X124371261Y-104125593D01*
X124366855Y-104117616D01*
X124359086Y-104107803D01*
X124349707Y-104098075D01*
X124340471Y-104090355D01*
X124337215Y-104088264D01*
X124321716Y-104082602D01*
X124303541Y-104080751D01*
X124285093Y-104082705D01*
X124285093Y-104082705D01*
G37*
X124285093Y-104082705D02*
X124268806Y-104088438D01*
X124259319Y-104094668D01*
X124251943Y-104102961D01*
X124245288Y-104114396D01*
X124235763Y-104132967D01*
X124234772Y-104237280D01*
X124234535Y-104267119D01*
X124234464Y-104291332D01*
X124234582Y-104310642D01*
X124234912Y-104325770D01*
X124235478Y-104337440D01*
X124236303Y-104346374D01*
X124237410Y-104353295D01*
X124238657Y-104358364D01*
X124246615Y-104378773D01*
X124257388Y-104393817D01*
X124271588Y-104403946D01*
X124289830Y-104409605D01*
X124311150Y-104411250D01*
X124325042Y-104410671D01*
X124337563Y-104409137D01*
X124346265Y-104406951D01*
X124346434Y-104406881D01*
X124357557Y-104400143D01*
X124367357Y-104389474D01*
X124376178Y-104374273D01*
X124384367Y-104353941D01*
X124392271Y-104327878D01*
X124392516Y-104326968D01*
X124400338Y-104309699D01*
X124413750Y-104293873D01*
X124432115Y-104279690D01*
X124454795Y-104267352D01*
X124481152Y-104257061D01*
X124510550Y-104249017D01*
X124542351Y-104243422D01*
X124575917Y-104240477D01*
X124610610Y-104240384D01*
X124645795Y-104243343D01*
X124653834Y-104244468D01*
X124695635Y-104253655D01*
X124734127Y-104267950D01*
X124768992Y-104287056D01*
X124799912Y-104310677D01*
X124826568Y-104338517D01*
X124848642Y-104370277D01*
X124865816Y-104405663D01*
X124877772Y-104444376D01*
X124880044Y-104455256D01*
X124881827Y-104468560D01*
X124883253Y-104486898D01*
X124884320Y-104509128D01*
X124885029Y-104534109D01*
X124885380Y-104560700D01*
X124885372Y-104587759D01*
X124885007Y-104614145D01*
X124884284Y-104638716D01*
X124883203Y-104660331D01*
X124881763Y-104677849D01*
X124880036Y-104689792D01*
X124869542Y-104727609D01*
X124854526Y-104761143D01*
X124834917Y-104790455D01*
X124810642Y-104815602D01*
X124781630Y-104836643D01*
X124747807Y-104853638D01*
X124709103Y-104866646D01*
X124665445Y-104875725D01*
X124650184Y-104877839D01*
X124606209Y-104881049D01*
X124560528Y-104880329D01*
X124514810Y-104875863D01*
X124470728Y-104867839D01*
X124429951Y-104856441D01*
X124417532Y-104851981D01*
X124392925Y-104842588D01*
X124392925Y-104738902D01*
X124487382Y-104737493D01*
X124517581Y-104736968D01*
X124542210Y-104736312D01*
X124562047Y-104735416D01*
X124577871Y-104734173D01*
X124590462Y-104732474D01*
X124600598Y-104730210D01*
X124609059Y-104727273D01*
X124616624Y-104723554D01*
X124624072Y-104718946D01*
X124624981Y-104718337D01*
X124637733Y-104706063D01*
X124646758Y-104689500D01*
X124651742Y-104669714D01*
X124652371Y-104647769D01*
X124650243Y-104632601D01*
X124644333Y-104615383D01*
X124634127Y-104601763D01*
X124618908Y-104590956D01*
X124607238Y-104585561D01*
X124588188Y-104577937D01*
X124413563Y-104577937D01*
X124375399Y-104577952D01*
X124343039Y-104578006D01*
X124315937Y-104578116D01*
X124293548Y-104578298D01*
X124275326Y-104578567D01*
X124260726Y-104578940D01*
X124249201Y-104579432D01*
X124240206Y-104580060D01*
X124233195Y-104580840D01*
X124227622Y-104581787D01*
X124222943Y-104582917D01*
X124220696Y-104583578D01*
X124200083Y-104592765D01*
X124184327Y-104605933D01*
X124173638Y-104622803D01*
X124168229Y-104643095D01*
X124167570Y-104653769D01*
X124169763Y-104677377D01*
X124176709Y-104696916D01*
X124188668Y-104712806D01*
X124205902Y-104725468D01*
X124214925Y-104729991D01*
X124234175Y-104738631D01*
X124234175Y-104945067D01*
X124279419Y-104966749D01*
X124319386Y-104985152D01*
X124355798Y-105000222D01*
X124390147Y-105012481D01*
X124423923Y-105022453D01*
X124458617Y-105030659D01*
X124465950Y-105032166D01*
X124478770Y-105034021D01*
X124496689Y-105035616D01*
X124518460Y-105036925D01*
X124542837Y-105037923D01*
X124568574Y-105038583D01*
X124594424Y-105038881D01*
X124619140Y-105038791D01*
X124641476Y-105038287D01*
X124660186Y-105037343D01*
X124670738Y-105036374D01*
X124710872Y-105029972D01*
X124751506Y-105020536D01*
X124790867Y-105008591D01*
X124827182Y-104994665D01*
X124853300Y-104982211D01*
X124891697Y-104958292D01*
X124926534Y-104929389D01*
X124957516Y-104895966D01*
X124984347Y-104858485D01*
X125006729Y-104817410D01*
X125024366Y-104773205D01*
X125036961Y-104726333D01*
X125043458Y-104684969D01*
X125044743Y-104668693D01*
X125045726Y-104647430D01*
X125046407Y-104622535D01*
X125046784Y-104595364D01*
X125046855Y-104567272D01*
X125046619Y-104539616D01*
X125046076Y-104513750D01*
X125045224Y-104491030D01*
X125044061Y-104472812D01*
X125043661Y-104468522D01*
X125036428Y-104422572D01*
X125024482Y-104377492D01*
X125008377Y-104335287D01*
X125004442Y-104326819D01*
X124989115Y-104297100D01*
X124973221Y-104271132D01*
X124955405Y-104247017D01*
X124934309Y-104222857D01*
X124918401Y-104206435D01*
X124882999Y-104174109D01*
X124846593Y-104147277D01*
X124808131Y-104125371D01*
X124766562Y-104107821D01*
X124720835Y-104094059D01*
X124703086Y-104089908D01*
X124691359Y-104087515D01*
X124680300Y-104085722D01*
X124668690Y-104084446D01*
X124655310Y-104083603D01*
X124638940Y-104083112D01*
X124618361Y-104082888D01*
X124599300Y-104082846D01*
X124572238Y-104082982D01*
X124550367Y-104083437D01*
X124532533Y-104084276D01*
X124517583Y-104085562D01*
X124504363Y-104087359D01*
X124497912Y-104088494D01*
X124471803Y-104094313D01*
X124443885Y-104102053D01*
X124416775Y-104110917D01*
X124393090Y-104120110D01*
X124390845Y-104121090D01*
X124379119Y-104125641D01*
X124372617Y-104126616D01*
X124371261Y-104125593D01*
X124366855Y-104117616D01*
X124359086Y-104107803D01*
X124349707Y-104098075D01*
X124340471Y-104090355D01*
X124337215Y-104088264D01*
X124321716Y-104082602D01*
X124303541Y-104080751D01*
X124285093Y-104082705D01*
G36*
X118015142Y-104312379D02*
X117968046Y-104317803D01*
X117924820Y-104327133D01*
X117907988Y-104332228D01*
X117873997Y-104346027D01*
X117842816Y-104363688D01*
X117815231Y-104384581D01*
X117792026Y-104408079D01*
X117773987Y-104433554D01*
X117768605Y-104443715D01*
X117764346Y-104452722D01*
X117760710Y-104461047D01*
X117757648Y-104469261D01*
X117755110Y-104477933D01*
X117753048Y-104487635D01*
X117751411Y-104498937D01*
X117750150Y-104512409D01*
X117749216Y-104528622D01*
X117748559Y-104548147D01*
X117748130Y-104571554D01*
X117747878Y-104599413D01*
X117747755Y-104632295D01*
X117747711Y-104670771D01*
X117747706Y-104684615D01*
X117747650Y-104857968D01*
X117715107Y-104859850D01*
X117688064Y-104862687D01*
X117666325Y-104867948D01*
X117649202Y-104875953D01*
X117636007Y-104887022D01*
X117626211Y-104901177D01*
X117622308Y-104910056D01*
X117620112Y-104919785D01*
X117619221Y-104932577D01*
X117619139Y-104940205D01*
X117619399Y-104953815D01*
X117620520Y-104963359D01*
X117623030Y-104971109D01*
X117627460Y-104979343D01*
X117628737Y-104981432D01*
X117637021Y-104992518D01*
X117647286Y-105000963D01*
X117657035Y-105006513D01*
X117675746Y-105016087D01*
X117792661Y-105017027D01*
X117909575Y-105017967D01*
X117909575Y-104986005D01*
X117927832Y-104994348D01*
X117954465Y-105005360D01*
X117984814Y-105015986D01*
X118016262Y-105025377D01*
X118046100Y-105032666D01*
X118066521Y-105036117D01*
X118090973Y-105038859D01*
X118117966Y-105040848D01*
X118146008Y-105042042D01*
X118173606Y-105042396D01*
X118199269Y-105041866D01*
X118221504Y-105040409D01*
X118237426Y-105038256D01*
X118277266Y-105028251D01*
X118314246Y-105014045D01*
X118347867Y-104996029D01*
X118377629Y-104974591D01*
X118403032Y-104950122D01*
X118423577Y-104923011D01*
X118438765Y-104893647D01*
X118444655Y-104876672D01*
X118448029Y-104858572D01*
X118449281Y-104836682D01*
X118448891Y-104824683D01*
X118280981Y-104824683D01*
X118278001Y-104837425D01*
X118269390Y-104849693D01*
X118255863Y-104860927D01*
X118238139Y-104870573D01*
X118216935Y-104878072D01*
X118209925Y-104879838D01*
X118193022Y-104882315D01*
X118171617Y-104883322D01*
X118147364Y-104882936D01*
X118121921Y-104881231D01*
X118096944Y-104878282D01*
X118074090Y-104874163D01*
X118071500Y-104873578D01*
X118037875Y-104864668D01*
X118005979Y-104853706D01*
X117973559Y-104839843D01*
X117946088Y-104826278D01*
X117907988Y-104806535D01*
X117907099Y-104767985D01*
X117906211Y-104729434D01*
X117926231Y-104725948D01*
X117964182Y-104720260D01*
X118002356Y-104716262D01*
X118039693Y-104713974D01*
X118075135Y-104713412D01*
X118107625Y-104714595D01*
X118136104Y-104717539D01*
X118158813Y-104722073D01*
X118188238Y-104731732D01*
X118214593Y-104743897D01*
X118237326Y-104758104D01*
X118255883Y-104773888D01*
X118269712Y-104790785D01*
X118278258Y-104808329D01*
X118280981Y-104824683D01*
X118448891Y-104824683D01*
X118448516Y-104813160D01*
X118445841Y-104790161D01*
X118441361Y-104769843D01*
X118439072Y-104762908D01*
X118428279Y-104738052D01*
X118415073Y-104715837D01*
X118398177Y-104694316D01*
X118384238Y-104679402D01*
X118351400Y-104649726D01*
X118315937Y-104624860D01*
X118277231Y-104604495D01*
X118234659Y-104588322D01*
X118187604Y-104576032D01*
X118169990Y-104572596D01*
X118144661Y-104569190D01*
X118114602Y-104567024D01*
X118081302Y-104566065D01*
X118046254Y-104566280D01*
X118010947Y-104567634D01*
X117976871Y-104570095D01*
X117945519Y-104573629D01*
X117918379Y-104578203D01*
X117918307Y-104578218D01*
X117909575Y-104580029D01*
X117909575Y-104554219D01*
X117910251Y-104536961D01*
X117912744Y-104524129D01*
X117917756Y-104513897D01*
X117925989Y-104504438D01*
X117930169Y-104500614D01*
X117945470Y-104489978D01*
X117964513Y-104481889D01*
X117987855Y-104476218D01*
X118016051Y-104472832D01*
X118049656Y-104471603D01*
X118053524Y-104471593D01*
X118073138Y-104471883D01*
X118091934Y-104472836D01*
X118111100Y-104474608D01*
X118131829Y-104477352D01*
X118155310Y-104481224D01*
X118182734Y-104486377D01*
X118210232Y-104491921D01*
X118240062Y-104497852D01*
X118264549Y-104502127D01*
X118284486Y-104504719D01*
X118300669Y-104505601D01*
X118313891Y-104504743D01*
X118324948Y-104502120D01*
X118334632Y-104497703D01*
X118343739Y-104491464D01*
X118348979Y-104487080D01*
X118362270Y-104471485D01*
X118371067Y-104452884D01*
X118375212Y-104432662D01*
X118374545Y-104412201D01*
X118368908Y-104392886D01*
X118361266Y-104379910D01*
X118354565Y-104372888D01*
X118345136Y-104366388D01*
X118332183Y-104360040D01*
X118314907Y-104353479D01*
X118292513Y-104346335D01*
X118281310Y-104343050D01*
X118226592Y-104329286D01*
X118171834Y-104319314D01*
X118117818Y-104313157D01*
X118065327Y-104310838D01*
X118015142Y-104312379D01*
X118015142Y-104312379D01*
G37*
X118015142Y-104312379D02*
X117968046Y-104317803D01*
X117924820Y-104327133D01*
X117907988Y-104332228D01*
X117873997Y-104346027D01*
X117842816Y-104363688D01*
X117815231Y-104384581D01*
X117792026Y-104408079D01*
X117773987Y-104433554D01*
X117768605Y-104443715D01*
X117764346Y-104452722D01*
X117760710Y-104461047D01*
X117757648Y-104469261D01*
X117755110Y-104477933D01*
X117753048Y-104487635D01*
X117751411Y-104498937D01*
X117750150Y-104512409D01*
X117749216Y-104528622D01*
X117748559Y-104548147D01*
X117748130Y-104571554D01*
X117747878Y-104599413D01*
X117747755Y-104632295D01*
X117747711Y-104670771D01*
X117747706Y-104684615D01*
X117747650Y-104857968D01*
X117715107Y-104859850D01*
X117688064Y-104862687D01*
X117666325Y-104867948D01*
X117649202Y-104875953D01*
X117636007Y-104887022D01*
X117626211Y-104901177D01*
X117622308Y-104910056D01*
X117620112Y-104919785D01*
X117619221Y-104932577D01*
X117619139Y-104940205D01*
X117619399Y-104953815D01*
X117620520Y-104963359D01*
X117623030Y-104971109D01*
X117627460Y-104979343D01*
X117628737Y-104981432D01*
X117637021Y-104992518D01*
X117647286Y-105000963D01*
X117657035Y-105006513D01*
X117675746Y-105016087D01*
X117792661Y-105017027D01*
X117909575Y-105017967D01*
X117909575Y-104986005D01*
X117927832Y-104994348D01*
X117954465Y-105005360D01*
X117984814Y-105015986D01*
X118016262Y-105025377D01*
X118046100Y-105032666D01*
X118066521Y-105036117D01*
X118090973Y-105038859D01*
X118117966Y-105040848D01*
X118146008Y-105042042D01*
X118173606Y-105042396D01*
X118199269Y-105041866D01*
X118221504Y-105040409D01*
X118237426Y-105038256D01*
X118277266Y-105028251D01*
X118314246Y-105014045D01*
X118347867Y-104996029D01*
X118377629Y-104974591D01*
X118403032Y-104950122D01*
X118423577Y-104923011D01*
X118438765Y-104893647D01*
X118444655Y-104876672D01*
X118448029Y-104858572D01*
X118449281Y-104836682D01*
X118448891Y-104824683D01*
X118280981Y-104824683D01*
X118278001Y-104837425D01*
X118269390Y-104849693D01*
X118255863Y-104860927D01*
X118238139Y-104870573D01*
X118216935Y-104878072D01*
X118209925Y-104879838D01*
X118193022Y-104882315D01*
X118171617Y-104883322D01*
X118147364Y-104882936D01*
X118121921Y-104881231D01*
X118096944Y-104878282D01*
X118074090Y-104874163D01*
X118071500Y-104873578D01*
X118037875Y-104864668D01*
X118005979Y-104853706D01*
X117973559Y-104839843D01*
X117946088Y-104826278D01*
X117907988Y-104806535D01*
X117907099Y-104767985D01*
X117906211Y-104729434D01*
X117926231Y-104725948D01*
X117964182Y-104720260D01*
X118002356Y-104716262D01*
X118039693Y-104713974D01*
X118075135Y-104713412D01*
X118107625Y-104714595D01*
X118136104Y-104717539D01*
X118158813Y-104722073D01*
X118188238Y-104731732D01*
X118214593Y-104743897D01*
X118237326Y-104758104D01*
X118255883Y-104773888D01*
X118269712Y-104790785D01*
X118278258Y-104808329D01*
X118280981Y-104824683D01*
X118448891Y-104824683D01*
X118448516Y-104813160D01*
X118445841Y-104790161D01*
X118441361Y-104769843D01*
X118439072Y-104762908D01*
X118428279Y-104738052D01*
X118415073Y-104715837D01*
X118398177Y-104694316D01*
X118384238Y-104679402D01*
X118351400Y-104649726D01*
X118315937Y-104624860D01*
X118277231Y-104604495D01*
X118234659Y-104588322D01*
X118187604Y-104576032D01*
X118169990Y-104572596D01*
X118144661Y-104569190D01*
X118114602Y-104567024D01*
X118081302Y-104566065D01*
X118046254Y-104566280D01*
X118010947Y-104567634D01*
X117976871Y-104570095D01*
X117945519Y-104573629D01*
X117918379Y-104578203D01*
X117918307Y-104578218D01*
X117909575Y-104580029D01*
X117909575Y-104554219D01*
X117910251Y-104536961D01*
X117912744Y-104524129D01*
X117917756Y-104513897D01*
X117925989Y-104504438D01*
X117930169Y-104500614D01*
X117945470Y-104489978D01*
X117964513Y-104481889D01*
X117987855Y-104476218D01*
X118016051Y-104472832D01*
X118049656Y-104471603D01*
X118053524Y-104471593D01*
X118073138Y-104471883D01*
X118091934Y-104472836D01*
X118111100Y-104474608D01*
X118131829Y-104477352D01*
X118155310Y-104481224D01*
X118182734Y-104486377D01*
X118210232Y-104491921D01*
X118240062Y-104497852D01*
X118264549Y-104502127D01*
X118284486Y-104504719D01*
X118300669Y-104505601D01*
X118313891Y-104504743D01*
X118324948Y-104502120D01*
X118334632Y-104497703D01*
X118343739Y-104491464D01*
X118348979Y-104487080D01*
X118362270Y-104471485D01*
X118371067Y-104452884D01*
X118375212Y-104432662D01*
X118374545Y-104412201D01*
X118368908Y-104392886D01*
X118361266Y-104379910D01*
X118354565Y-104372888D01*
X118345136Y-104366388D01*
X118332183Y-104360040D01*
X118314907Y-104353479D01*
X118292513Y-104346335D01*
X118281310Y-104343050D01*
X118226592Y-104329286D01*
X118171834Y-104319314D01*
X118117818Y-104313157D01*
X118065327Y-104310838D01*
X118015142Y-104312379D01*
G36*
X119881144Y-104313179D02*
X119833474Y-104320327D01*
X119789884Y-104331989D01*
X119750543Y-104348131D01*
X119720353Y-104365493D01*
X119692653Y-104386876D01*
X119670286Y-104410846D01*
X119652473Y-104438268D01*
X119649218Y-104444587D01*
X119644743Y-104453854D01*
X119640921Y-104462548D01*
X119637699Y-104471240D01*
X119635027Y-104480499D01*
X119632852Y-104490896D01*
X119631125Y-104503003D01*
X119629794Y-104517390D01*
X119628807Y-104534627D01*
X119628114Y-104555284D01*
X119627663Y-104579933D01*
X119627403Y-104609145D01*
X119627283Y-104643488D01*
X119627251Y-104683535D01*
X119627250Y-104689341D01*
X119627250Y-104858925D01*
X119607196Y-104858925D01*
X119576704Y-104860827D01*
X119551210Y-104866520D01*
X119530751Y-104875983D01*
X119515362Y-104889196D01*
X119505076Y-104906136D01*
X119500490Y-104922706D01*
X119499205Y-104946668D01*
X119503289Y-104967901D01*
X119512475Y-104985939D01*
X119526498Y-105000314D01*
X119545092Y-105010559D01*
X119551777Y-105012834D01*
X119557427Y-105014186D01*
X119564766Y-105015274D01*
X119574470Y-105016122D01*
X119587215Y-105016756D01*
X119603676Y-105017203D01*
X119624528Y-105017488D01*
X119650447Y-105017636D01*
X119678627Y-105017675D01*
X119789175Y-105017675D01*
X119789175Y-105001800D01*
X119789480Y-104992741D01*
X119790259Y-104986993D01*
X119790869Y-104985925D01*
X119794427Y-104987244D01*
X119801730Y-104990628D01*
X119807537Y-104993502D01*
X119831723Y-105004233D01*
X119860500Y-105014525D01*
X119892112Y-105023867D01*
X119924800Y-105031746D01*
X119956808Y-105037651D01*
X119961510Y-105038345D01*
X119977170Y-105040022D01*
X119996751Y-105041293D01*
X120018743Y-105042141D01*
X120041636Y-105042552D01*
X120063920Y-105042509D01*
X120084086Y-105041998D01*
X120100621Y-105041002D01*
X120110106Y-105039866D01*
X120152812Y-105029891D01*
X120192535Y-105015055D01*
X120228696Y-104995650D01*
X120260718Y-104971970D01*
X120278793Y-104954683D01*
X120298936Y-104930917D01*
X120313573Y-104907626D01*
X120323267Y-104883412D01*
X120328579Y-104856878D01*
X120330076Y-104827175D01*
X120329984Y-104822945D01*
X120160650Y-104822945D01*
X120157599Y-104838023D01*
X120148643Y-104851504D01*
X120134085Y-104863142D01*
X120114225Y-104872695D01*
X120090800Y-104879599D01*
X120075963Y-104881765D01*
X120056606Y-104882860D01*
X120034460Y-104882925D01*
X120011258Y-104882004D01*
X119988730Y-104880139D01*
X119968609Y-104877373D01*
X119963800Y-104876475D01*
X119918630Y-104864747D01*
X119871537Y-104847309D01*
X119832038Y-104828978D01*
X119787588Y-104806537D01*
X119786697Y-104767643D01*
X119786545Y-104752774D01*
X119786781Y-104740526D01*
X119787354Y-104732114D01*
X119788216Y-104728752D01*
X119788284Y-104728737D01*
X119792336Y-104728262D01*
X119801102Y-104727000D01*
X119813027Y-104725180D01*
X119819338Y-104724187D01*
X119864390Y-104718105D01*
X119907386Y-104714411D01*
X119947568Y-104713107D01*
X119984177Y-104714194D01*
X120016453Y-104717673D01*
X120043639Y-104723545D01*
X120044645Y-104723840D01*
X120074857Y-104734537D01*
X120101252Y-104747388D01*
X120123376Y-104762004D01*
X120140776Y-104777999D01*
X120152998Y-104794985D01*
X120159588Y-104812573D01*
X120160650Y-104822945D01*
X120329984Y-104822945D01*
X120329702Y-104810122D01*
X120328520Y-104796853D01*
X120326124Y-104784814D01*
X120322106Y-104771452D01*
X120320410Y-104766476D01*
X120306801Y-104735337D01*
X120288104Y-104706246D01*
X120263779Y-104678408D01*
X120254438Y-104669372D01*
X120219030Y-104640295D01*
X120180312Y-104616060D01*
X120137928Y-104596507D01*
X120091523Y-104581476D01*
X120040742Y-104570806D01*
X120033269Y-104569652D01*
X120011402Y-104567377D01*
X119984720Y-104566134D01*
X119954666Y-104565869D01*
X119922681Y-104566530D01*
X119890208Y-104568061D01*
X119858688Y-104570411D01*
X119829563Y-104573524D01*
X119804276Y-104577348D01*
X119798959Y-104578362D01*
X119788509Y-104580452D01*
X119789636Y-104551703D01*
X119790354Y-104537637D01*
X119791503Y-104528101D01*
X119793566Y-104521276D01*
X119797030Y-104515343D01*
X119800537Y-104510758D01*
X119814884Y-104497093D01*
X119833757Y-104486441D01*
X119857446Y-104478715D01*
X119886242Y-104473827D01*
X119920436Y-104471692D01*
X119931687Y-104471574D01*
X119950246Y-104471750D01*
X119967119Y-104472377D01*
X119983501Y-104473608D01*
X120000585Y-104475597D01*
X120019563Y-104478497D01*
X120041630Y-104482459D01*
X120067978Y-104487636D01*
X120086038Y-104491328D01*
X120120070Y-104497871D01*
X120148527Y-104502267D01*
X120171803Y-104504542D01*
X120190290Y-104504720D01*
X120204380Y-104502826D01*
X120213495Y-104499444D01*
X120231433Y-104486213D01*
X120244586Y-104468946D01*
X120252679Y-104448080D01*
X120255003Y-104433872D01*
X120254803Y-104412221D01*
X120249759Y-104394128D01*
X120239592Y-104378739D01*
X120235704Y-104374717D01*
X120229492Y-104369246D01*
X120222781Y-104364734D01*
X120214279Y-104360584D01*
X120202696Y-104356197D01*
X120186738Y-104350975D01*
X120179659Y-104348770D01*
X120142665Y-104337914D01*
X120109092Y-104329431D01*
X120076761Y-104322909D01*
X120043496Y-104317937D01*
X120007119Y-104314103D01*
X119988052Y-104312556D01*
X119932726Y-104310578D01*
X119881144Y-104313179D01*
X119881144Y-104313179D01*
G37*
X119881144Y-104313179D02*
X119833474Y-104320327D01*
X119789884Y-104331989D01*
X119750543Y-104348131D01*
X119720353Y-104365493D01*
X119692653Y-104386876D01*
X119670286Y-104410846D01*
X119652473Y-104438268D01*
X119649218Y-104444587D01*
X119644743Y-104453854D01*
X119640921Y-104462548D01*
X119637699Y-104471240D01*
X119635027Y-104480499D01*
X119632852Y-104490896D01*
X119631125Y-104503003D01*
X119629794Y-104517390D01*
X119628807Y-104534627D01*
X119628114Y-104555284D01*
X119627663Y-104579933D01*
X119627403Y-104609145D01*
X119627283Y-104643488D01*
X119627251Y-104683535D01*
X119627250Y-104689341D01*
X119627250Y-104858925D01*
X119607196Y-104858925D01*
X119576704Y-104860827D01*
X119551210Y-104866520D01*
X119530751Y-104875983D01*
X119515362Y-104889196D01*
X119505076Y-104906136D01*
X119500490Y-104922706D01*
X119499205Y-104946668D01*
X119503289Y-104967901D01*
X119512475Y-104985939D01*
X119526498Y-105000314D01*
X119545092Y-105010559D01*
X119551777Y-105012834D01*
X119557427Y-105014186D01*
X119564766Y-105015274D01*
X119574470Y-105016122D01*
X119587215Y-105016756D01*
X119603676Y-105017203D01*
X119624528Y-105017488D01*
X119650447Y-105017636D01*
X119678627Y-105017675D01*
X119789175Y-105017675D01*
X119789175Y-105001800D01*
X119789480Y-104992741D01*
X119790259Y-104986993D01*
X119790869Y-104985925D01*
X119794427Y-104987244D01*
X119801730Y-104990628D01*
X119807537Y-104993502D01*
X119831723Y-105004233D01*
X119860500Y-105014525D01*
X119892112Y-105023867D01*
X119924800Y-105031746D01*
X119956808Y-105037651D01*
X119961510Y-105038345D01*
X119977170Y-105040022D01*
X119996751Y-105041293D01*
X120018743Y-105042141D01*
X120041636Y-105042552D01*
X120063920Y-105042509D01*
X120084086Y-105041998D01*
X120100621Y-105041002D01*
X120110106Y-105039866D01*
X120152812Y-105029891D01*
X120192535Y-105015055D01*
X120228696Y-104995650D01*
X120260718Y-104971970D01*
X120278793Y-104954683D01*
X120298936Y-104930917D01*
X120313573Y-104907626D01*
X120323267Y-104883412D01*
X120328579Y-104856878D01*
X120330076Y-104827175D01*
X120329984Y-104822945D01*
X120160650Y-104822945D01*
X120157599Y-104838023D01*
X120148643Y-104851504D01*
X120134085Y-104863142D01*
X120114225Y-104872695D01*
X120090800Y-104879599D01*
X120075963Y-104881765D01*
X120056606Y-104882860D01*
X120034460Y-104882925D01*
X120011258Y-104882004D01*
X119988730Y-104880139D01*
X119968609Y-104877373D01*
X119963800Y-104876475D01*
X119918630Y-104864747D01*
X119871537Y-104847309D01*
X119832038Y-104828978D01*
X119787588Y-104806537D01*
X119786697Y-104767643D01*
X119786545Y-104752774D01*
X119786781Y-104740526D01*
X119787354Y-104732114D01*
X119788216Y-104728752D01*
X119788284Y-104728737D01*
X119792336Y-104728262D01*
X119801102Y-104727000D01*
X119813027Y-104725180D01*
X119819338Y-104724187D01*
X119864390Y-104718105D01*
X119907386Y-104714411D01*
X119947568Y-104713107D01*
X119984177Y-104714194D01*
X120016453Y-104717673D01*
X120043639Y-104723545D01*
X120044645Y-104723840D01*
X120074857Y-104734537D01*
X120101252Y-104747388D01*
X120123376Y-104762004D01*
X120140776Y-104777999D01*
X120152998Y-104794985D01*
X120159588Y-104812573D01*
X120160650Y-104822945D01*
X120329984Y-104822945D01*
X120329702Y-104810122D01*
X120328520Y-104796853D01*
X120326124Y-104784814D01*
X120322106Y-104771452D01*
X120320410Y-104766476D01*
X120306801Y-104735337D01*
X120288104Y-104706246D01*
X120263779Y-104678408D01*
X120254438Y-104669372D01*
X120219030Y-104640295D01*
X120180312Y-104616060D01*
X120137928Y-104596507D01*
X120091523Y-104581476D01*
X120040742Y-104570806D01*
X120033269Y-104569652D01*
X120011402Y-104567377D01*
X119984720Y-104566134D01*
X119954666Y-104565869D01*
X119922681Y-104566530D01*
X119890208Y-104568061D01*
X119858688Y-104570411D01*
X119829563Y-104573524D01*
X119804276Y-104577348D01*
X119798959Y-104578362D01*
X119788509Y-104580452D01*
X119789636Y-104551703D01*
X119790354Y-104537637D01*
X119791503Y-104528101D01*
X119793566Y-104521276D01*
X119797030Y-104515343D01*
X119800537Y-104510758D01*
X119814884Y-104497093D01*
X119833757Y-104486441D01*
X119857446Y-104478715D01*
X119886242Y-104473827D01*
X119920436Y-104471692D01*
X119931687Y-104471574D01*
X119950246Y-104471750D01*
X119967119Y-104472377D01*
X119983501Y-104473608D01*
X120000585Y-104475597D01*
X120019563Y-104478497D01*
X120041630Y-104482459D01*
X120067978Y-104487636D01*
X120086038Y-104491328D01*
X120120070Y-104497871D01*
X120148527Y-104502267D01*
X120171803Y-104504542D01*
X120190290Y-104504720D01*
X120204380Y-104502826D01*
X120213495Y-104499444D01*
X120231433Y-104486213D01*
X120244586Y-104468946D01*
X120252679Y-104448080D01*
X120255003Y-104433872D01*
X120254803Y-104412221D01*
X120249759Y-104394128D01*
X120239592Y-104378739D01*
X120235704Y-104374717D01*
X120229492Y-104369246D01*
X120222781Y-104364734D01*
X120214279Y-104360584D01*
X120202696Y-104356197D01*
X120186738Y-104350975D01*
X120179659Y-104348770D01*
X120142665Y-104337914D01*
X120109092Y-104329431D01*
X120076761Y-104322909D01*
X120043496Y-104317937D01*
X120007119Y-104314103D01*
X119988052Y-104312556D01*
X119932726Y-104310578D01*
X119881144Y-104313179D01*
G36*
X122718884Y-104312384D02*
X122671811Y-104318283D01*
X122626582Y-104328483D01*
X122584176Y-104342904D01*
X122545576Y-104361462D01*
X122541663Y-104363718D01*
X122503234Y-104389249D01*
X122468048Y-104418595D01*
X122436801Y-104450997D01*
X122410187Y-104485699D01*
X122388901Y-104521945D01*
X122381275Y-104538486D01*
X122369737Y-104569800D01*
X122361198Y-104602397D01*
X122355448Y-104637499D01*
X122352278Y-104676327D01*
X122351456Y-104712081D01*
X122351400Y-104750975D01*
X122670828Y-104750975D01*
X122722944Y-104750979D01*
X122769072Y-104750996D01*
X122809572Y-104751032D01*
X122844805Y-104751093D01*
X122875133Y-104751186D01*
X122900917Y-104751317D01*
X122922518Y-104751492D01*
X122940298Y-104751718D01*
X122954616Y-104752001D01*
X122965836Y-104752347D01*
X122974317Y-104752763D01*
X122980421Y-104753255D01*
X122984509Y-104753829D01*
X122986942Y-104754491D01*
X122988082Y-104755249D01*
X122988289Y-104756107D01*
X122988174Y-104756531D01*
X122981496Y-104770203D01*
X122971311Y-104786052D01*
X122958966Y-104802159D01*
X122946229Y-104816189D01*
X122920802Y-104837167D01*
X122890554Y-104854372D01*
X122855825Y-104867727D01*
X122816959Y-104877153D01*
X122774296Y-104882574D01*
X122728179Y-104883913D01*
X122678950Y-104881091D01*
X122665706Y-104879669D01*
X122644965Y-104877020D01*
X122624825Y-104873943D01*
X122604033Y-104870189D01*
X122581337Y-104865512D01*
X122555483Y-104859662D01*
X122525219Y-104852390D01*
X122513325Y-104849456D01*
X122483700Y-104842452D01*
X122459278Y-104837560D01*
X122439268Y-104834795D01*
X122422882Y-104834171D01*
X122409328Y-104835705D01*
X122397817Y-104839409D01*
X122387558Y-104845300D01*
X122379331Y-104851947D01*
X122365379Y-104867442D01*
X122356986Y-104884322D01*
X122353442Y-104904167D01*
X122353226Y-104910242D01*
X122353464Y-104922597D01*
X122354994Y-104931271D01*
X122358528Y-104938904D01*
X122362647Y-104945143D01*
X122373306Y-104957692D01*
X122387153Y-104969173D01*
X122404791Y-104979897D01*
X122426823Y-104990176D01*
X122453853Y-105000320D01*
X122486484Y-105010640D01*
X122493825Y-105012778D01*
X122533396Y-105022649D01*
X122577301Y-105030885D01*
X122623665Y-105037163D01*
X122650817Y-105039769D01*
X122666393Y-105040740D01*
X122685934Y-105041511D01*
X122708094Y-105042072D01*
X122731527Y-105042415D01*
X122754888Y-105042531D01*
X122776831Y-105042410D01*
X122796011Y-105042045D01*
X122811080Y-105041425D01*
X122818125Y-105040873D01*
X122826117Y-105039732D01*
X122838291Y-105037660D01*
X122852611Y-105035013D01*
X122860106Y-105033552D01*
X122909358Y-105021004D01*
X122954675Y-105003627D01*
X122996502Y-104981187D01*
X123035285Y-104953450D01*
X123066018Y-104925708D01*
X123096311Y-104891967D01*
X123120718Y-104856688D01*
X123139543Y-104819217D01*
X123153087Y-104778903D01*
X123161654Y-104735092D01*
X123163931Y-104714462D01*
X123165328Y-104665106D01*
X123160816Y-104617855D01*
X123158571Y-104608100D01*
X122986119Y-104608100D01*
X122531687Y-104608100D01*
X122533806Y-104599368D01*
X122538653Y-104586890D01*
X122547265Y-104571973D01*
X122558550Y-104556264D01*
X122571411Y-104541412D01*
X122574208Y-104538557D01*
X122592702Y-104522775D01*
X122615178Y-104507722D01*
X122639307Y-104494826D01*
X122658035Y-104487095D01*
X122693927Y-104477426D01*
X122732591Y-104472283D01*
X122772392Y-104471649D01*
X122811697Y-104475505D01*
X122848871Y-104483835D01*
X122865138Y-104489289D01*
X122894353Y-104502735D01*
X122921047Y-104519822D01*
X122944358Y-104539766D01*
X122963424Y-104561780D01*
X122977383Y-104585079D01*
X122981691Y-104595550D01*
X122986119Y-104608100D01*
X123158571Y-104608100D01*
X123150468Y-104572893D01*
X123134358Y-104530405D01*
X123112559Y-104490576D01*
X123085146Y-104453593D01*
X123052191Y-104419639D01*
X123043694Y-104412157D01*
X123010335Y-104385885D01*
X122977100Y-104364583D01*
X122942131Y-104347187D01*
X122905982Y-104333435D01*
X122861349Y-104321313D01*
X122814633Y-104313818D01*
X122766818Y-104310869D01*
X122718884Y-104312384D01*
X122718884Y-104312384D01*
G37*
X122718884Y-104312384D02*
X122671811Y-104318283D01*
X122626582Y-104328483D01*
X122584176Y-104342904D01*
X122545576Y-104361462D01*
X122541663Y-104363718D01*
X122503234Y-104389249D01*
X122468048Y-104418595D01*
X122436801Y-104450997D01*
X122410187Y-104485699D01*
X122388901Y-104521945D01*
X122381275Y-104538486D01*
X122369737Y-104569800D01*
X122361198Y-104602397D01*
X122355448Y-104637499D01*
X122352278Y-104676327D01*
X122351456Y-104712081D01*
X122351400Y-104750975D01*
X122670828Y-104750975D01*
X122722944Y-104750979D01*
X122769072Y-104750996D01*
X122809572Y-104751032D01*
X122844805Y-104751093D01*
X122875133Y-104751186D01*
X122900917Y-104751317D01*
X122922518Y-104751492D01*
X122940298Y-104751718D01*
X122954616Y-104752001D01*
X122965836Y-104752347D01*
X122974317Y-104752763D01*
X122980421Y-104753255D01*
X122984509Y-104753829D01*
X122986942Y-104754491D01*
X122988082Y-104755249D01*
X122988289Y-104756107D01*
X122988174Y-104756531D01*
X122981496Y-104770203D01*
X122971311Y-104786052D01*
X122958966Y-104802159D01*
X122946229Y-104816189D01*
X122920802Y-104837167D01*
X122890554Y-104854372D01*
X122855825Y-104867727D01*
X122816959Y-104877153D01*
X122774296Y-104882574D01*
X122728179Y-104883913D01*
X122678950Y-104881091D01*
X122665706Y-104879669D01*
X122644965Y-104877020D01*
X122624825Y-104873943D01*
X122604033Y-104870189D01*
X122581337Y-104865512D01*
X122555483Y-104859662D01*
X122525219Y-104852390D01*
X122513325Y-104849456D01*
X122483700Y-104842452D01*
X122459278Y-104837560D01*
X122439268Y-104834795D01*
X122422882Y-104834171D01*
X122409328Y-104835705D01*
X122397817Y-104839409D01*
X122387558Y-104845300D01*
X122379331Y-104851947D01*
X122365379Y-104867442D01*
X122356986Y-104884322D01*
X122353442Y-104904167D01*
X122353226Y-104910242D01*
X122353464Y-104922597D01*
X122354994Y-104931271D01*
X122358528Y-104938904D01*
X122362647Y-104945143D01*
X122373306Y-104957692D01*
X122387153Y-104969173D01*
X122404791Y-104979897D01*
X122426823Y-104990176D01*
X122453853Y-105000320D01*
X122486484Y-105010640D01*
X122493825Y-105012778D01*
X122533396Y-105022649D01*
X122577301Y-105030885D01*
X122623665Y-105037163D01*
X122650817Y-105039769D01*
X122666393Y-105040740D01*
X122685934Y-105041511D01*
X122708094Y-105042072D01*
X122731527Y-105042415D01*
X122754888Y-105042531D01*
X122776831Y-105042410D01*
X122796011Y-105042045D01*
X122811080Y-105041425D01*
X122818125Y-105040873D01*
X122826117Y-105039732D01*
X122838291Y-105037660D01*
X122852611Y-105035013D01*
X122860106Y-105033552D01*
X122909358Y-105021004D01*
X122954675Y-105003627D01*
X122996502Y-104981187D01*
X123035285Y-104953450D01*
X123066018Y-104925708D01*
X123096311Y-104891967D01*
X123120718Y-104856688D01*
X123139543Y-104819217D01*
X123153087Y-104778903D01*
X123161654Y-104735092D01*
X123163931Y-104714462D01*
X123165328Y-104665106D01*
X123160816Y-104617855D01*
X123158571Y-104608100D01*
X122986119Y-104608100D01*
X122531687Y-104608100D01*
X122533806Y-104599368D01*
X122538653Y-104586890D01*
X122547265Y-104571973D01*
X122558550Y-104556264D01*
X122571411Y-104541412D01*
X122574208Y-104538557D01*
X122592702Y-104522775D01*
X122615178Y-104507722D01*
X122639307Y-104494826D01*
X122658035Y-104487095D01*
X122693927Y-104477426D01*
X122732591Y-104472283D01*
X122772392Y-104471649D01*
X122811697Y-104475505D01*
X122848871Y-104483835D01*
X122865138Y-104489289D01*
X122894353Y-104502735D01*
X122921047Y-104519822D01*
X122944358Y-104539766D01*
X122963424Y-104561780D01*
X122977383Y-104585079D01*
X122981691Y-104595550D01*
X122986119Y-104608100D01*
X123158571Y-104608100D01*
X123150468Y-104572893D01*
X123134358Y-104530405D01*
X123112559Y-104490576D01*
X123085146Y-104453593D01*
X123052191Y-104419639D01*
X123043694Y-104412157D01*
X123010335Y-104385885D01*
X122977100Y-104364583D01*
X122942131Y-104347187D01*
X122905982Y-104333435D01*
X122861349Y-104321313D01*
X122814633Y-104313818D01*
X122766818Y-104310869D01*
X122718884Y-104312384D01*
G36*
X119011466Y-104311660D02*
X118994432Y-104311945D01*
X118981101Y-104312554D01*
X118970150Y-104313605D01*
X118960255Y-104315219D01*
X118950093Y-104317514D01*
X118940797Y-104319944D01*
X118906204Y-104331379D01*
X118872598Y-104346439D01*
X118842354Y-104364029D01*
X118836675Y-104367925D01*
X118816038Y-104382529D01*
X118814194Y-104331875D01*
X118708116Y-104331875D01*
X118678729Y-104331979D01*
X118652114Y-104332282D01*
X118628961Y-104332762D01*
X118609963Y-104333401D01*
X118595811Y-104334180D01*
X118587197Y-104335079D01*
X118586319Y-104335246D01*
X118564957Y-104342648D01*
X118547766Y-104354507D01*
X118535189Y-104370295D01*
X118527666Y-104389483D01*
X118525574Y-104408075D01*
X118527154Y-104428860D01*
X118532262Y-104445593D01*
X118541402Y-104459804D01*
X118543226Y-104461895D01*
X118556023Y-104473228D01*
X118571515Y-104481364D01*
X118590750Y-104486683D01*
X118614775Y-104489570D01*
X118619857Y-104489869D01*
X118652525Y-104491536D01*
X118652528Y-104768099D01*
X118652550Y-104821492D01*
X118652625Y-104868947D01*
X118652766Y-104910873D01*
X118652990Y-104947681D01*
X118653310Y-104979784D01*
X118653741Y-105007591D01*
X118654298Y-105031513D01*
X118654996Y-105051962D01*
X118655849Y-105069348D01*
X118656872Y-105084082D01*
X118658079Y-105096575D01*
X118659486Y-105107238D01*
X118661107Y-105116482D01*
X118662956Y-105124717D01*
X118665048Y-105132355D01*
X118665597Y-105134174D01*
X118680456Y-105172047D01*
X118700699Y-105206917D01*
X118725932Y-105238414D01*
X118755760Y-105266170D01*
X118789789Y-105289814D01*
X118827625Y-105308978D01*
X118866838Y-105322725D01*
X118873291Y-105324473D01*
X118879525Y-105325916D01*
X118886215Y-105327089D01*
X118894037Y-105328026D01*
X118903667Y-105328759D01*
X118915778Y-105329324D01*
X118931047Y-105329753D01*
X118950148Y-105330080D01*
X118973758Y-105330339D01*
X119002549Y-105330564D01*
X119027175Y-105330725D01*
X119056634Y-105330841D01*
X119084373Y-105330817D01*
X119109677Y-105330662D01*
X119131827Y-105330387D01*
X119150108Y-105330002D01*
X119163802Y-105329517D01*
X119172192Y-105328942D01*
X119174069Y-105328652D01*
X119196200Y-105320639D01*
X119213641Y-105308692D01*
X119226127Y-105293059D01*
X119233394Y-105273986D01*
X119233589Y-105273074D01*
X119235983Y-105250178D01*
X119233650Y-105228890D01*
X119226857Y-105210308D01*
X119215866Y-105195533D01*
X119214688Y-105194434D01*
X119208419Y-105189288D01*
X119201628Y-105185037D01*
X119193666Y-105181596D01*
X119183889Y-105178884D01*
X119171649Y-105176816D01*
X119156302Y-105175310D01*
X119137200Y-105174281D01*
X119113697Y-105173646D01*
X119085148Y-105173322D01*
X119050906Y-105173226D01*
X119050361Y-105173226D01*
X119016419Y-105173140D01*
X118988103Y-105172854D01*
X118964692Y-105172301D01*
X118945465Y-105171413D01*
X118929700Y-105170124D01*
X118916676Y-105168367D01*
X118905669Y-105166074D01*
X118895960Y-105163178D01*
X118886826Y-105159611D01*
X118882321Y-105157589D01*
X118859564Y-105144346D01*
X118841724Y-105127734D01*
X118827871Y-105106860D01*
X118826387Y-105103936D01*
X118816038Y-105082930D01*
X118813938Y-104966290D01*
X118833649Y-104979675D01*
X118857580Y-104994131D01*
X118885304Y-105007949D01*
X118914283Y-105019972D01*
X118941562Y-105028924D01*
X118973038Y-105035460D01*
X119008351Y-105039053D01*
X119045726Y-105039732D01*
X119083388Y-105037527D01*
X119119562Y-105032466D01*
X119149413Y-105025485D01*
X119191940Y-105010021D01*
X119232004Y-104989181D01*
X119269084Y-104963493D01*
X119302660Y-104933488D01*
X119332214Y-104899695D01*
X119357225Y-104862643D01*
X119377173Y-104822861D01*
X119391540Y-104780880D01*
X119392275Y-104778060D01*
X119401740Y-104729106D01*
X119405239Y-104680127D01*
X119404973Y-104674775D01*
X119244046Y-104674775D01*
X119241142Y-104710612D01*
X119232492Y-104743789D01*
X119218022Y-104774503D01*
X119197654Y-104802953D01*
X119193261Y-104807954D01*
X119165770Y-104833816D01*
X119135282Y-104854214D01*
X119102295Y-104868986D01*
X119067305Y-104877971D01*
X119030808Y-104881008D01*
X118993300Y-104877936D01*
X118983385Y-104876105D01*
X118949390Y-104866076D01*
X118917812Y-104850813D01*
X118889278Y-104830909D01*
X118864415Y-104806957D01*
X118843850Y-104779549D01*
X118828210Y-104749279D01*
X118818985Y-104720607D01*
X118815305Y-104695339D01*
X118815006Y-104667443D01*
X118817946Y-104639575D01*
X118823982Y-104614388D01*
X118824832Y-104611888D01*
X118839281Y-104580068D01*
X118858799Y-104551332D01*
X118882670Y-104526136D01*
X118910182Y-104504937D01*
X118940622Y-104488192D01*
X118973274Y-104476358D01*
X119007427Y-104469892D01*
X119042366Y-104469250D01*
X119047032Y-104469628D01*
X119067146Y-104472031D01*
X119084291Y-104475536D01*
X119100900Y-104480833D01*
X119119405Y-104488616D01*
X119128091Y-104492679D01*
X119143278Y-104500409D01*
X119155642Y-104508102D01*
X119167310Y-104517292D01*
X119180408Y-104529511D01*
X119183752Y-104532817D01*
X119207030Y-104559171D01*
X119224325Y-104586252D01*
X119236004Y-104614923D01*
X119242434Y-104646046D01*
X119244046Y-104674775D01*
X119404973Y-104674775D01*
X119402825Y-104631724D01*
X119394552Y-104584499D01*
X119380473Y-104539051D01*
X119368483Y-104511262D01*
X119355394Y-104486145D01*
X119341588Y-104464162D01*
X119325791Y-104443610D01*
X119306726Y-104422784D01*
X119290016Y-104406433D01*
X119254871Y-104376996D01*
X119217324Y-104353064D01*
X119176658Y-104334257D01*
X119132156Y-104320192D01*
X119124202Y-104318256D01*
X119112618Y-104315781D01*
X119101325Y-104313983D01*
X119088983Y-104312762D01*
X119074251Y-104312021D01*
X119055788Y-104311660D01*
X119033525Y-104311579D01*
X119011466Y-104311660D01*
X119011466Y-104311660D01*
G37*
X119011466Y-104311660D02*
X118994432Y-104311945D01*
X118981101Y-104312554D01*
X118970150Y-104313605D01*
X118960255Y-104315219D01*
X118950093Y-104317514D01*
X118940797Y-104319944D01*
X118906204Y-104331379D01*
X118872598Y-104346439D01*
X118842354Y-104364029D01*
X118836675Y-104367925D01*
X118816038Y-104382529D01*
X118814194Y-104331875D01*
X118708116Y-104331875D01*
X118678729Y-104331979D01*
X118652114Y-104332282D01*
X118628961Y-104332762D01*
X118609963Y-104333401D01*
X118595811Y-104334180D01*
X118587197Y-104335079D01*
X118586319Y-104335246D01*
X118564957Y-104342648D01*
X118547766Y-104354507D01*
X118535189Y-104370295D01*
X118527666Y-104389483D01*
X118525574Y-104408075D01*
X118527154Y-104428860D01*
X118532262Y-104445593D01*
X118541402Y-104459804D01*
X118543226Y-104461895D01*
X118556023Y-104473228D01*
X118571515Y-104481364D01*
X118590750Y-104486683D01*
X118614775Y-104489570D01*
X118619857Y-104489869D01*
X118652525Y-104491536D01*
X118652528Y-104768099D01*
X118652550Y-104821492D01*
X118652625Y-104868947D01*
X118652766Y-104910873D01*
X118652990Y-104947681D01*
X118653310Y-104979784D01*
X118653741Y-105007591D01*
X118654298Y-105031513D01*
X118654996Y-105051962D01*
X118655849Y-105069348D01*
X118656872Y-105084082D01*
X118658079Y-105096575D01*
X118659486Y-105107238D01*
X118661107Y-105116482D01*
X118662956Y-105124717D01*
X118665048Y-105132355D01*
X118665597Y-105134174D01*
X118680456Y-105172047D01*
X118700699Y-105206917D01*
X118725932Y-105238414D01*
X118755760Y-105266170D01*
X118789789Y-105289814D01*
X118827625Y-105308978D01*
X118866838Y-105322725D01*
X118873291Y-105324473D01*
X118879525Y-105325916D01*
X118886215Y-105327089D01*
X118894037Y-105328026D01*
X118903667Y-105328759D01*
X118915778Y-105329324D01*
X118931047Y-105329753D01*
X118950148Y-105330080D01*
X118973758Y-105330339D01*
X119002549Y-105330564D01*
X119027175Y-105330725D01*
X119056634Y-105330841D01*
X119084373Y-105330817D01*
X119109677Y-105330662D01*
X119131827Y-105330387D01*
X119150108Y-105330002D01*
X119163802Y-105329517D01*
X119172192Y-105328942D01*
X119174069Y-105328652D01*
X119196200Y-105320639D01*
X119213641Y-105308692D01*
X119226127Y-105293059D01*
X119233394Y-105273986D01*
X119233589Y-105273074D01*
X119235983Y-105250178D01*
X119233650Y-105228890D01*
X119226857Y-105210308D01*
X119215866Y-105195533D01*
X119214688Y-105194434D01*
X119208419Y-105189288D01*
X119201628Y-105185037D01*
X119193666Y-105181596D01*
X119183889Y-105178884D01*
X119171649Y-105176816D01*
X119156302Y-105175310D01*
X119137200Y-105174281D01*
X119113697Y-105173646D01*
X119085148Y-105173322D01*
X119050906Y-105173226D01*
X119050361Y-105173226D01*
X119016419Y-105173140D01*
X118988103Y-105172854D01*
X118964692Y-105172301D01*
X118945465Y-105171413D01*
X118929700Y-105170124D01*
X118916676Y-105168367D01*
X118905669Y-105166074D01*
X118895960Y-105163178D01*
X118886826Y-105159611D01*
X118882321Y-105157589D01*
X118859564Y-105144346D01*
X118841724Y-105127734D01*
X118827871Y-105106860D01*
X118826387Y-105103936D01*
X118816038Y-105082930D01*
X118813938Y-104966290D01*
X118833649Y-104979675D01*
X118857580Y-104994131D01*
X118885304Y-105007949D01*
X118914283Y-105019972D01*
X118941562Y-105028924D01*
X118973038Y-105035460D01*
X119008351Y-105039053D01*
X119045726Y-105039732D01*
X119083388Y-105037527D01*
X119119562Y-105032466D01*
X119149413Y-105025485D01*
X119191940Y-105010021D01*
X119232004Y-104989181D01*
X119269084Y-104963493D01*
X119302660Y-104933488D01*
X119332214Y-104899695D01*
X119357225Y-104862643D01*
X119377173Y-104822861D01*
X119391540Y-104780880D01*
X119392275Y-104778060D01*
X119401740Y-104729106D01*
X119405239Y-104680127D01*
X119404973Y-104674775D01*
X119244046Y-104674775D01*
X119241142Y-104710612D01*
X119232492Y-104743789D01*
X119218022Y-104774503D01*
X119197654Y-104802953D01*
X119193261Y-104807954D01*
X119165770Y-104833816D01*
X119135282Y-104854214D01*
X119102295Y-104868986D01*
X119067305Y-104877971D01*
X119030808Y-104881008D01*
X118993300Y-104877936D01*
X118983385Y-104876105D01*
X118949390Y-104866076D01*
X118917812Y-104850813D01*
X118889278Y-104830909D01*
X118864415Y-104806957D01*
X118843850Y-104779549D01*
X118828210Y-104749279D01*
X118818985Y-104720607D01*
X118815305Y-104695339D01*
X118815006Y-104667443D01*
X118817946Y-104639575D01*
X118823982Y-104614388D01*
X118824832Y-104611888D01*
X118839281Y-104580068D01*
X118858799Y-104551332D01*
X118882670Y-104526136D01*
X118910182Y-104504937D01*
X118940622Y-104488192D01*
X118973274Y-104476358D01*
X119007427Y-104469892D01*
X119042366Y-104469250D01*
X119047032Y-104469628D01*
X119067146Y-104472031D01*
X119084291Y-104475536D01*
X119100900Y-104480833D01*
X119119405Y-104488616D01*
X119128091Y-104492679D01*
X119143278Y-104500409D01*
X119155642Y-104508102D01*
X119167310Y-104517292D01*
X119180408Y-104529511D01*
X119183752Y-104532817D01*
X119207030Y-104559171D01*
X119224325Y-104586252D01*
X119236004Y-104614923D01*
X119242434Y-104646046D01*
X119244046Y-104674775D01*
X119404973Y-104674775D01*
X119402825Y-104631724D01*
X119394552Y-104584499D01*
X119380473Y-104539051D01*
X119368483Y-104511262D01*
X119355394Y-104486145D01*
X119341588Y-104464162D01*
X119325791Y-104443610D01*
X119306726Y-104422784D01*
X119290016Y-104406433D01*
X119254871Y-104376996D01*
X119217324Y-104353064D01*
X119176658Y-104334257D01*
X119132156Y-104320192D01*
X119124202Y-104318256D01*
X119112618Y-104315781D01*
X119101325Y-104313983D01*
X119088983Y-104312762D01*
X119074251Y-104312021D01*
X119055788Y-104311660D01*
X119033525Y-104311579D01*
X119011466Y-104311660D01*
G36*
X122003250Y-104332113D02*
X121988291Y-104332309D01*
X121976640Y-104332718D01*
X121967538Y-104333373D01*
X121960225Y-104334307D01*
X121953940Y-104335551D01*
X121947923Y-104337141D01*
X121944635Y-104338118D01*
X121925263Y-104345920D01*
X121910966Y-104356361D01*
X121901350Y-104370073D01*
X121896023Y-104387690D01*
X121894591Y-104409847D01*
X121894904Y-104418222D01*
X121896199Y-104432670D01*
X121898509Y-104443070D01*
X121902441Y-104451715D01*
X121904707Y-104455353D01*
X121917869Y-104469556D01*
X121936089Y-104480279D01*
X121958974Y-104487293D01*
X121960875Y-104487665D01*
X121971479Y-104489736D01*
X121979231Y-104491386D01*
X121982399Y-104492240D01*
X121981249Y-104495162D01*
X121977473Y-104503119D01*
X121971377Y-104515514D01*
X121963269Y-104531751D01*
X121953454Y-104551232D01*
X121942240Y-104573360D01*
X121929933Y-104597539D01*
X121916840Y-104623171D01*
X121903268Y-104649659D01*
X121889523Y-104676407D01*
X121875912Y-104702818D01*
X121862742Y-104728294D01*
X121850319Y-104752239D01*
X121838951Y-104774056D01*
X121828943Y-104793148D01*
X121820604Y-104808918D01*
X121814238Y-104820768D01*
X121810153Y-104828103D01*
X121808679Y-104830350D01*
X121806798Y-104827630D01*
X121802187Y-104819795D01*
X121795113Y-104807325D01*
X121785841Y-104790703D01*
X121774639Y-104770411D01*
X121761772Y-104746931D01*
X121747506Y-104720747D01*
X121732108Y-104692339D01*
X121715844Y-104662191D01*
X121715354Y-104661281D01*
X121624371Y-104492212D01*
X121642491Y-104489860D01*
X121668579Y-104484269D01*
X121689576Y-104474963D01*
X121705432Y-104461998D01*
X121716098Y-104445428D01*
X121721524Y-104425311D01*
X121721660Y-104401700D01*
X121721596Y-104401071D01*
X121718557Y-104383772D01*
X121712880Y-104370231D01*
X121703456Y-104358045D01*
X121700298Y-104354843D01*
X121694691Y-104349618D01*
X121689135Y-104345330D01*
X121682953Y-104341881D01*
X121675468Y-104339169D01*
X121666001Y-104337094D01*
X121653874Y-104335556D01*
X121638412Y-104334455D01*
X121618935Y-104333689D01*
X121594765Y-104333160D01*
X121565227Y-104332766D01*
X121550113Y-104332608D01*
X121520450Y-104332328D01*
X121496384Y-104332166D01*
X121477164Y-104332154D01*
X121462035Y-104332323D01*
X121450247Y-104332703D01*
X121441048Y-104333328D01*
X121433684Y-104334226D01*
X121427403Y-104335431D01*
X121421454Y-104336973D01*
X121417577Y-104338120D01*
X121397593Y-104346421D01*
X121382998Y-104357704D01*
X121373402Y-104372319D01*
X121370490Y-104380499D01*
X121367849Y-104396390D01*
X121367623Y-104414484D01*
X121369639Y-104432279D01*
X121373724Y-104447270D01*
X121375373Y-104450937D01*
X121385174Y-104463978D01*
X121399612Y-104475335D01*
X121416996Y-104483878D01*
X121430123Y-104487599D01*
X121448306Y-104491176D01*
X121626803Y-104830292D01*
X121649526Y-104873472D01*
X121671409Y-104915083D01*
X121692275Y-104954779D01*
X121711941Y-104992217D01*
X121730228Y-105027053D01*
X121746955Y-105058941D01*
X121761942Y-105087539D01*
X121775008Y-105112502D01*
X121785973Y-105133486D01*
X121794657Y-105150145D01*
X121800879Y-105162137D01*
X121804458Y-105169117D01*
X121805300Y-105170858D01*
X121802386Y-105171767D01*
X121794656Y-105172876D01*
X121783634Y-105173978D01*
X121780694Y-105174216D01*
X121755380Y-105177588D01*
X121735401Y-105183522D01*
X121720170Y-105192294D01*
X121709097Y-105204182D01*
X121705922Y-105209453D01*
X121702339Y-105217473D01*
X121700203Y-105226276D01*
X121699188Y-105237818D01*
X121698961Y-105251037D01*
X121699162Y-105265451D01*
X121700064Y-105275540D01*
X121702069Y-105283320D01*
X121705582Y-105290809D01*
X121707641Y-105294417D01*
X121717008Y-105307082D01*
X121728946Y-105316565D01*
X121744978Y-105323927D01*
X121754283Y-105326934D01*
X121758437Y-105327968D01*
X121763651Y-105328853D01*
X121770409Y-105329599D01*
X121779197Y-105330217D01*
X121790499Y-105330719D01*
X121804801Y-105331114D01*
X121822589Y-105331414D01*
X121844346Y-105331629D01*
X121870558Y-105331770D01*
X121901710Y-105331848D01*
X121938288Y-105331873D01*
X121976533Y-105331860D01*
X122019158Y-105331810D01*
X122055879Y-105331714D01*
X122087139Y-105331563D01*
X122113384Y-105331349D01*
X122135059Y-105331061D01*
X122152608Y-105330690D01*
X122166477Y-105330227D01*
X122177111Y-105329662D01*
X122184954Y-105328987D01*
X122190452Y-105328190D01*
X122194049Y-105327264D01*
X122194054Y-105327262D01*
X122209387Y-105320138D01*
X122221383Y-105310220D01*
X122232125Y-105295776D01*
X122232338Y-105295435D01*
X122237404Y-105286379D01*
X122240457Y-105277817D01*
X122242106Y-105267391D01*
X122242890Y-105254466D01*
X122243160Y-105240583D01*
X122242391Y-105230777D01*
X122240214Y-105222813D01*
X122236296Y-105214525D01*
X122228956Y-105203894D01*
X122219612Y-105194233D01*
X122216219Y-105191585D01*
X122208427Y-105186644D01*
X122200239Y-105182661D01*
X122190892Y-105179537D01*
X122179620Y-105177172D01*
X122165659Y-105175466D01*
X122148244Y-105174321D01*
X122126611Y-105173637D01*
X122099994Y-105173314D01*
X122075147Y-105173250D01*
X121984378Y-105173250D01*
X121941670Y-105093265D01*
X121930721Y-105072659D01*
X121920854Y-105053898D01*
X121912440Y-105037703D01*
X121905850Y-105024793D01*
X121901454Y-105015889D01*
X121899623Y-105011713D01*
X121899598Y-105011509D01*
X121901112Y-105008490D01*
X121905331Y-105000224D01*
X121912049Y-104987111D01*
X121921062Y-104969548D01*
X121932165Y-104947933D01*
X121945153Y-104922665D01*
X121959822Y-104894141D01*
X121975967Y-104862760D01*
X121993383Y-104828921D01*
X122011865Y-104793021D01*
X122031210Y-104755459D01*
X122033520Y-104750975D01*
X122166807Y-104492212D01*
X122180523Y-104488580D01*
X122203313Y-104480745D01*
X122220496Y-104470493D01*
X122232541Y-104457244D01*
X122239919Y-104440420D01*
X122243101Y-104419441D01*
X122243311Y-104411250D01*
X122241657Y-104389293D01*
X122236294Y-104371885D01*
X122226623Y-104358039D01*
X122212046Y-104346767D01*
X122200548Y-104340761D01*
X122196107Y-104338803D01*
X122191683Y-104337223D01*
X122186557Y-104335972D01*
X122180009Y-104335003D01*
X122171320Y-104334268D01*
X122159769Y-104333719D01*
X122144637Y-104333309D01*
X122125204Y-104332989D01*
X122100750Y-104332712D01*
X122075583Y-104332476D01*
X122046136Y-104332230D01*
X122022278Y-104332097D01*
X122003250Y-104332113D01*
X122003250Y-104332113D01*
G37*
X122003250Y-104332113D02*
X121988291Y-104332309D01*
X121976640Y-104332718D01*
X121967538Y-104333373D01*
X121960225Y-104334307D01*
X121953940Y-104335551D01*
X121947923Y-104337141D01*
X121944635Y-104338118D01*
X121925263Y-104345920D01*
X121910966Y-104356361D01*
X121901350Y-104370073D01*
X121896023Y-104387690D01*
X121894591Y-104409847D01*
X121894904Y-104418222D01*
X121896199Y-104432670D01*
X121898509Y-104443070D01*
X121902441Y-104451715D01*
X121904707Y-104455353D01*
X121917869Y-104469556D01*
X121936089Y-104480279D01*
X121958974Y-104487293D01*
X121960875Y-104487665D01*
X121971479Y-104489736D01*
X121979231Y-104491386D01*
X121982399Y-104492240D01*
X121981249Y-104495162D01*
X121977473Y-104503119D01*
X121971377Y-104515514D01*
X121963269Y-104531751D01*
X121953454Y-104551232D01*
X121942240Y-104573360D01*
X121929933Y-104597539D01*
X121916840Y-104623171D01*
X121903268Y-104649659D01*
X121889523Y-104676407D01*
X121875912Y-104702818D01*
X121862742Y-104728294D01*
X121850319Y-104752239D01*
X121838951Y-104774056D01*
X121828943Y-104793148D01*
X121820604Y-104808918D01*
X121814238Y-104820768D01*
X121810153Y-104828103D01*
X121808679Y-104830350D01*
X121806798Y-104827630D01*
X121802187Y-104819795D01*
X121795113Y-104807325D01*
X121785841Y-104790703D01*
X121774639Y-104770411D01*
X121761772Y-104746931D01*
X121747506Y-104720747D01*
X121732108Y-104692339D01*
X121715844Y-104662191D01*
X121715354Y-104661281D01*
X121624371Y-104492212D01*
X121642491Y-104489860D01*
X121668579Y-104484269D01*
X121689576Y-104474963D01*
X121705432Y-104461998D01*
X121716098Y-104445428D01*
X121721524Y-104425311D01*
X121721660Y-104401700D01*
X121721596Y-104401071D01*
X121718557Y-104383772D01*
X121712880Y-104370231D01*
X121703456Y-104358045D01*
X121700298Y-104354843D01*
X121694691Y-104349618D01*
X121689135Y-104345330D01*
X121682953Y-104341881D01*
X121675468Y-104339169D01*
X121666001Y-104337094D01*
X121653874Y-104335556D01*
X121638412Y-104334455D01*
X121618935Y-104333689D01*
X121594765Y-104333160D01*
X121565227Y-104332766D01*
X121550113Y-104332608D01*
X121520450Y-104332328D01*
X121496384Y-104332166D01*
X121477164Y-104332154D01*
X121462035Y-104332323D01*
X121450247Y-104332703D01*
X121441048Y-104333328D01*
X121433684Y-104334226D01*
X121427403Y-104335431D01*
X121421454Y-104336973D01*
X121417577Y-104338120D01*
X121397593Y-104346421D01*
X121382998Y-104357704D01*
X121373402Y-104372319D01*
X121370490Y-104380499D01*
X121367849Y-104396390D01*
X121367623Y-104414484D01*
X121369639Y-104432279D01*
X121373724Y-104447270D01*
X121375373Y-104450937D01*
X121385174Y-104463978D01*
X121399612Y-104475335D01*
X121416996Y-104483878D01*
X121430123Y-104487599D01*
X121448306Y-104491176D01*
X121626803Y-104830292D01*
X121649526Y-104873472D01*
X121671409Y-104915083D01*
X121692275Y-104954779D01*
X121711941Y-104992217D01*
X121730228Y-105027053D01*
X121746955Y-105058941D01*
X121761942Y-105087539D01*
X121775008Y-105112502D01*
X121785973Y-105133486D01*
X121794657Y-105150145D01*
X121800879Y-105162137D01*
X121804458Y-105169117D01*
X121805300Y-105170858D01*
X121802386Y-105171767D01*
X121794656Y-105172876D01*
X121783634Y-105173978D01*
X121780694Y-105174216D01*
X121755380Y-105177588D01*
X121735401Y-105183522D01*
X121720170Y-105192294D01*
X121709097Y-105204182D01*
X121705922Y-105209453D01*
X121702339Y-105217473D01*
X121700203Y-105226276D01*
X121699188Y-105237818D01*
X121698961Y-105251037D01*
X121699162Y-105265451D01*
X121700064Y-105275540D01*
X121702069Y-105283320D01*
X121705582Y-105290809D01*
X121707641Y-105294417D01*
X121717008Y-105307082D01*
X121728946Y-105316565D01*
X121744978Y-105323927D01*
X121754283Y-105326934D01*
X121758437Y-105327968D01*
X121763651Y-105328853D01*
X121770409Y-105329599D01*
X121779197Y-105330217D01*
X121790499Y-105330719D01*
X121804801Y-105331114D01*
X121822589Y-105331414D01*
X121844346Y-105331629D01*
X121870558Y-105331770D01*
X121901710Y-105331848D01*
X121938288Y-105331873D01*
X121976533Y-105331860D01*
X122019158Y-105331810D01*
X122055879Y-105331714D01*
X122087139Y-105331563D01*
X122113384Y-105331349D01*
X122135059Y-105331061D01*
X122152608Y-105330690D01*
X122166477Y-105330227D01*
X122177111Y-105329662D01*
X122184954Y-105328987D01*
X122190452Y-105328190D01*
X122194049Y-105327264D01*
X122194054Y-105327262D01*
X122209387Y-105320138D01*
X122221383Y-105310220D01*
X122232125Y-105295776D01*
X122232338Y-105295435D01*
X122237404Y-105286379D01*
X122240457Y-105277817D01*
X122242106Y-105267391D01*
X122242890Y-105254466D01*
X122243160Y-105240583D01*
X122242391Y-105230777D01*
X122240214Y-105222813D01*
X122236296Y-105214525D01*
X122228956Y-105203894D01*
X122219612Y-105194233D01*
X122216219Y-105191585D01*
X122208427Y-105186644D01*
X122200239Y-105182661D01*
X122190892Y-105179537D01*
X122179620Y-105177172D01*
X122165659Y-105175466D01*
X122148244Y-105174321D01*
X122126611Y-105173637D01*
X122099994Y-105173314D01*
X122075147Y-105173250D01*
X121984378Y-105173250D01*
X121941670Y-105093265D01*
X121930721Y-105072659D01*
X121920854Y-105053898D01*
X121912440Y-105037703D01*
X121905850Y-105024793D01*
X121901454Y-105015889D01*
X121899623Y-105011713D01*
X121899598Y-105011509D01*
X121901112Y-105008490D01*
X121905331Y-105000224D01*
X121912049Y-104987111D01*
X121921062Y-104969548D01*
X121932165Y-104947933D01*
X121945153Y-104922665D01*
X121959822Y-104894141D01*
X121975967Y-104862760D01*
X121993383Y-104828921D01*
X122011865Y-104793021D01*
X122031210Y-104755459D01*
X122033520Y-104750975D01*
X122166807Y-104492212D01*
X122180523Y-104488580D01*
X122203313Y-104480745D01*
X122220496Y-104470493D01*
X122232541Y-104457244D01*
X122239919Y-104440420D01*
X122243101Y-104419441D01*
X122243311Y-104411250D01*
X122241657Y-104389293D01*
X122236294Y-104371885D01*
X122226623Y-104358039D01*
X122212046Y-104346767D01*
X122200548Y-104340761D01*
X122196107Y-104338803D01*
X122191683Y-104337223D01*
X122186557Y-104335972D01*
X122180009Y-104335003D01*
X122171320Y-104334268D01*
X122159769Y-104333719D01*
X122144637Y-104333309D01*
X122125204Y-104332989D01*
X122100750Y-104332712D01*
X122075583Y-104332476D01*
X122046136Y-104332230D01*
X122022278Y-104332097D01*
X122003250Y-104332113D01*
D11*
G36*
X131832300Y-135222681D02*
X132087062Y-135274977D01*
X132326829Y-135375765D01*
X132542445Y-135521200D01*
X132725707Y-135705745D01*
X132869632Y-135922372D01*
X132968742Y-136162828D01*
X133019189Y-136417610D01*
X133019189Y-136417615D01*
X133019257Y-136417959D01*
X133015109Y-136715021D01*
X133015032Y-136715359D01*
X133015032Y-136715368D01*
X132957490Y-136968643D01*
X132851707Y-137206235D01*
X132701786Y-137418760D01*
X132513442Y-137598118D01*
X132293847Y-137737478D01*
X132051367Y-137831529D01*
X131795239Y-137876692D01*
X131535213Y-137871245D01*
X131281197Y-137815396D01*
X131042867Y-137711272D01*
X130829304Y-137562842D01*
X130648636Y-137375755D01*
X130507747Y-137157138D01*
X130412003Y-136915315D01*
X130365055Y-136659513D01*
X130368685Y-136399456D01*
X130422760Y-136145055D01*
X130525216Y-135906006D01*
X130672155Y-135691409D01*
X130857974Y-135509440D01*
X131075603Y-135367028D01*
X131316748Y-135269599D01*
X131572219Y-135220866D01*
X131832300Y-135222681D01*
X131832300Y-135222681D01*
G37*
G36*
X111192300Y-132540681D02*
X111447062Y-132592977D01*
X111686829Y-132693765D01*
X111902445Y-132839200D01*
X112085707Y-133023745D01*
X112229632Y-133240372D01*
X112328742Y-133480828D01*
X112379189Y-133735610D01*
X112379189Y-133735615D01*
X112379257Y-133735959D01*
X112375109Y-134033021D01*
X112375032Y-134033359D01*
X112375032Y-134033368D01*
X112317490Y-134286643D01*
X112211707Y-134524235D01*
X112061786Y-134736760D01*
X111873442Y-134916118D01*
X111653847Y-135055478D01*
X111411367Y-135149529D01*
X111155239Y-135194692D01*
X110895213Y-135189245D01*
X110641197Y-135133396D01*
X110402867Y-135029272D01*
X110189304Y-134880842D01*
X110008636Y-134693755D01*
X109867747Y-134475138D01*
X109772003Y-134233315D01*
X109725055Y-133977513D01*
X109728685Y-133717456D01*
X109782760Y-133463055D01*
X109885216Y-133224006D01*
X110032155Y-133009409D01*
X110217974Y-132827440D01*
X110435603Y-132685028D01*
X110676748Y-132587599D01*
X110932219Y-132538866D01*
X111192300Y-132540681D01*
X111192300Y-132540681D01*
G37*
G36*
X130979300Y-123868681D02*
X131234062Y-123920977D01*
X131473829Y-124021765D01*
X131689445Y-124167200D01*
X131872707Y-124351745D01*
X132016632Y-124568372D01*
X132115742Y-124808828D01*
X132166189Y-125063610D01*
X132166189Y-125063615D01*
X132166257Y-125063959D01*
X132162109Y-125361021D01*
X132162032Y-125361359D01*
X132162032Y-125361368D01*
X132104490Y-125614643D01*
X131998707Y-125852235D01*
X131848786Y-126064760D01*
X131660442Y-126244118D01*
X131440847Y-126383478D01*
X131198367Y-126477529D01*
X130942239Y-126522692D01*
X130682213Y-126517245D01*
X130428197Y-126461396D01*
X130189867Y-126357272D01*
X129976304Y-126208842D01*
X129795636Y-126021755D01*
X129654747Y-125803138D01*
X129559003Y-125561315D01*
X129512055Y-125305513D01*
X129515685Y-125045456D01*
X129569760Y-124791055D01*
X129672216Y-124552006D01*
X129819155Y-124337409D01*
X130004974Y-124155440D01*
X130222603Y-124013028D01*
X130463748Y-123915599D01*
X130719219Y-123866866D01*
X130979300Y-123868681D01*
X130979300Y-123868681D01*
G37*
G36*
X104233300Y-121283681D02*
X104488062Y-121335977D01*
X104727829Y-121436765D01*
X104943445Y-121582200D01*
X105126707Y-121766745D01*
X105270632Y-121983372D01*
X105369742Y-122223828D01*
X105420189Y-122478610D01*
X105420189Y-122478615D01*
X105420257Y-122478959D01*
X105416109Y-122776021D01*
X105416032Y-122776359D01*
X105416032Y-122776368D01*
X105358490Y-123029643D01*
X105252707Y-123267235D01*
X105102786Y-123479760D01*
X104914442Y-123659118D01*
X104694847Y-123798478D01*
X104452367Y-123892529D01*
X104196239Y-123937692D01*
X103936213Y-123932245D01*
X103682197Y-123876396D01*
X103443867Y-123772272D01*
X103230304Y-123623842D01*
X103049636Y-123436755D01*
X102908747Y-123218138D01*
X102813003Y-122976315D01*
X102766055Y-122720513D01*
X102769685Y-122460456D01*
X102823760Y-122206055D01*
X102926216Y-121967006D01*
X103073155Y-121752409D01*
X103258974Y-121570440D01*
X103476603Y-121428028D01*
X103717748Y-121330599D01*
X103973219Y-121281866D01*
X104233300Y-121283681D01*
X104233300Y-121283681D01*
G37*
G36*
X156922300Y-116213681D02*
X157177062Y-116265977D01*
X157416829Y-116366765D01*
X157632445Y-116512200D01*
X157815707Y-116696745D01*
X157959632Y-116913372D01*
X158058742Y-117153828D01*
X158109189Y-117408610D01*
X158109189Y-117408615D01*
X158109257Y-117408959D01*
X158105109Y-117706021D01*
X158105032Y-117706359D01*
X158105032Y-117706368D01*
X158047490Y-117959643D01*
X157941707Y-118197235D01*
X157791786Y-118409760D01*
X157603442Y-118589118D01*
X157383847Y-118728478D01*
X157141367Y-118822529D01*
X156885239Y-118867692D01*
X156625213Y-118862245D01*
X156371197Y-118806396D01*
X156132867Y-118702272D01*
X155919304Y-118553842D01*
X155738636Y-118366755D01*
X155597747Y-118148138D01*
X155502003Y-117906315D01*
X155455055Y-117650513D01*
X155458685Y-117390456D01*
X155512760Y-117136055D01*
X155615216Y-116897006D01*
X155762155Y-116682409D01*
X155947974Y-116500440D01*
X156165603Y-116358028D01*
X156406748Y-116260599D01*
X156662219Y-116211866D01*
X156922300Y-116213681D01*
X156922300Y-116213681D01*
G37*
G36*
X148921300Y-115024681D02*
X149176062Y-115076977D01*
X149415829Y-115177765D01*
X149631445Y-115323200D01*
X149814707Y-115507745D01*
X149958632Y-115724372D01*
X150057742Y-115964828D01*
X150108189Y-116219610D01*
X150108189Y-116219615D01*
X150108257Y-116219959D01*
X150104109Y-116517021D01*
X150104032Y-116517359D01*
X150104032Y-116517368D01*
X150046490Y-116770643D01*
X149940707Y-117008235D01*
X149790786Y-117220760D01*
X149602442Y-117400118D01*
X149382847Y-117539478D01*
X149140367Y-117633529D01*
X148884239Y-117678692D01*
X148624213Y-117673245D01*
X148370197Y-117617396D01*
X148131867Y-117513272D01*
X147918304Y-117364842D01*
X147737636Y-117177755D01*
X147596747Y-116959138D01*
X147501003Y-116717315D01*
X147454055Y-116461513D01*
X147457685Y-116201456D01*
X147511760Y-115947055D01*
X147614216Y-115708006D01*
X147761155Y-115493409D01*
X147946974Y-115311440D01*
X148164603Y-115169028D01*
X148405748Y-115071599D01*
X148661219Y-115022866D01*
X148921300Y-115024681D01*
X148921300Y-115024681D01*
G37*
G36*
X105111300Y-113398681D02*
X105366062Y-113450977D01*
X105605829Y-113551765D01*
X105821445Y-113697200D01*
X106004707Y-113881745D01*
X106148632Y-114098372D01*
X106247742Y-114338828D01*
X106298189Y-114593610D01*
X106298189Y-114593615D01*
X106298257Y-114593959D01*
X106294109Y-114891021D01*
X106294032Y-114891359D01*
X106294032Y-114891368D01*
X106236490Y-115144643D01*
X106130707Y-115382235D01*
X105980786Y-115594760D01*
X105792442Y-115774118D01*
X105572847Y-115913478D01*
X105330367Y-116007529D01*
X105074239Y-116052692D01*
X104814213Y-116047245D01*
X104560197Y-115991396D01*
X104321867Y-115887272D01*
X104108304Y-115738842D01*
X103927636Y-115551755D01*
X103786747Y-115333138D01*
X103691003Y-115091315D01*
X103644055Y-114835513D01*
X103647685Y-114575456D01*
X103701760Y-114321055D01*
X103804216Y-114082006D01*
X103951155Y-113867409D01*
X104136974Y-113685440D01*
X104354603Y-113543028D01*
X104595748Y-113445599D01*
X104851219Y-113396866D01*
X105111300Y-113398681D01*
X105111300Y-113398681D01*
G37*
G36*
X170034300Y-103000681D02*
X170289062Y-103052977D01*
X170528829Y-103153765D01*
X170744445Y-103299200D01*
X170927707Y-103483745D01*
X171071632Y-103700372D01*
X171170742Y-103940828D01*
X171221189Y-104195610D01*
X171221189Y-104195615D01*
X171221257Y-104195959D01*
X171217109Y-104493021D01*
X171217032Y-104493359D01*
X171217032Y-104493368D01*
X171159490Y-104746643D01*
X171053707Y-104984235D01*
X170903786Y-105196760D01*
X170715442Y-105376118D01*
X170495847Y-105515478D01*
X170253367Y-105609529D01*
X169997239Y-105654692D01*
X169737213Y-105649245D01*
X169483197Y-105593396D01*
X169244867Y-105489272D01*
X169031304Y-105340842D01*
X168850636Y-105153755D01*
X168709747Y-104935138D01*
X168614003Y-104693315D01*
X168567055Y-104437513D01*
X168570685Y-104177456D01*
X168624760Y-103923055D01*
X168727216Y-103684006D01*
X168874155Y-103469409D01*
X169059974Y-103287440D01*
X169277603Y-103145028D01*
X169518748Y-103047599D01*
X169774219Y-102998866D01*
X170034300Y-103000681D01*
X170034300Y-103000681D01*
G37*
G36*
X150483394Y-102372993D02*
X150712721Y-102420068D01*
X150928551Y-102510794D01*
X151122638Y-102641708D01*
X151287610Y-102807834D01*
X151417164Y-103002831D01*
X151506379Y-103219281D01*
X151551783Y-103448593D01*
X151551783Y-103448598D01*
X151551851Y-103448942D01*
X151548117Y-103716347D01*
X151548040Y-103716685D01*
X151548040Y-103716693D01*
X151496250Y-103944649D01*
X151401028Y-104158521D01*
X151266075Y-104349829D01*
X151096534Y-104511281D01*
X150898863Y-104636726D01*
X150680588Y-104721389D01*
X150450033Y-104762043D01*
X150215965Y-104757140D01*
X149987309Y-104706866D01*
X149772772Y-104613138D01*
X149580534Y-104479529D01*
X149417898Y-104311114D01*
X149291076Y-104114325D01*
X149204890Y-103896644D01*
X149162629Y-103666380D01*
X149165897Y-103432286D01*
X149214574Y-103203283D01*
X149306801Y-102988099D01*
X149439070Y-102794926D01*
X149606338Y-102631124D01*
X149802241Y-102502929D01*
X150019311Y-102415227D01*
X150249277Y-102371359D01*
X150483394Y-102372993D01*
X150483394Y-102372993D01*
G37*
G36*
X134737280Y-103439420D02*
X133084880Y-103439420D01*
X133084880Y-99887020D01*
X134737280Y-99887020D01*
X134737280Y-103439420D01*
X134737280Y-103439420D01*
G37*
G36*
X128037280Y-103439420D02*
X126384880Y-103439420D01*
X126384880Y-99887020D01*
X128037280Y-99887020D01*
X128037280Y-103439420D01*
X128037280Y-103439420D01*
G37*
G36*
X114048394Y-100708993D02*
X114277721Y-100756068D01*
X114493551Y-100846794D01*
X114687638Y-100977708D01*
X114852610Y-101143834D01*
X114982164Y-101338831D01*
X115071379Y-101555281D01*
X115116783Y-101784593D01*
X115116783Y-101784598D01*
X115116851Y-101784942D01*
X115113117Y-102052347D01*
X115113040Y-102052685D01*
X115113040Y-102052693D01*
X115061250Y-102280649D01*
X114966028Y-102494521D01*
X114831075Y-102685829D01*
X114661534Y-102847281D01*
X114463863Y-102972726D01*
X114245588Y-103057389D01*
X114015033Y-103098043D01*
X113780965Y-103093140D01*
X113552309Y-103042866D01*
X113337772Y-102949138D01*
X113145534Y-102815529D01*
X112982898Y-102647114D01*
X112856076Y-102450325D01*
X112769890Y-102232644D01*
X112727629Y-102002380D01*
X112730897Y-101768286D01*
X112779574Y-101539283D01*
X112871801Y-101324099D01*
X113004070Y-101130926D01*
X113171338Y-100967124D01*
X113367241Y-100838929D01*
X113584311Y-100751227D01*
X113814277Y-100707359D01*
X114048394Y-100708993D01*
X114048394Y-100708993D01*
G37*
G36*
X148353394Y-100132993D02*
X148582721Y-100180068D01*
X148798551Y-100270794D01*
X148992638Y-100401708D01*
X149157610Y-100567834D01*
X149287164Y-100762831D01*
X149376379Y-100979281D01*
X149421783Y-101208593D01*
X149421783Y-101208598D01*
X149421851Y-101208942D01*
X149418117Y-101476347D01*
X149418040Y-101476685D01*
X149418040Y-101476693D01*
X149366250Y-101704649D01*
X149271028Y-101918521D01*
X149136075Y-102109829D01*
X148966534Y-102271281D01*
X148768863Y-102396726D01*
X148550588Y-102481389D01*
X148320033Y-102522043D01*
X148085965Y-102517140D01*
X147857309Y-102466866D01*
X147642772Y-102373138D01*
X147450534Y-102239529D01*
X147287898Y-102071114D01*
X147161076Y-101874325D01*
X147074890Y-101656644D01*
X147032629Y-101426380D01*
X147035897Y-101192286D01*
X147084574Y-100963283D01*
X147176801Y-100748099D01*
X147309070Y-100554926D01*
X147476338Y-100391124D01*
X147672241Y-100262929D01*
X147889311Y-100175227D01*
X148119277Y-100131359D01*
X148353394Y-100132993D01*
X148353394Y-100132993D01*
G37*
G36*
X115938394Y-98245693D02*
X116167721Y-98292768D01*
X116383551Y-98383494D01*
X116577638Y-98514408D01*
X116742610Y-98680534D01*
X116872164Y-98875531D01*
X116961379Y-99091981D01*
X117006783Y-99321293D01*
X117006783Y-99321298D01*
X117006851Y-99321642D01*
X117003117Y-99589047D01*
X117003040Y-99589385D01*
X117003040Y-99589393D01*
X116951250Y-99817349D01*
X116856028Y-100031221D01*
X116721075Y-100222529D01*
X116551534Y-100383981D01*
X116353863Y-100509426D01*
X116135588Y-100594089D01*
X115905033Y-100634743D01*
X115670965Y-100629840D01*
X115442309Y-100579566D01*
X115227772Y-100485838D01*
X115035534Y-100352229D01*
X114872898Y-100183814D01*
X114746076Y-99987025D01*
X114659890Y-99769344D01*
X114617629Y-99539080D01*
X114620897Y-99304986D01*
X114669574Y-99075983D01*
X114761801Y-98860799D01*
X114894070Y-98667626D01*
X115061338Y-98503824D01*
X115257241Y-98375629D01*
X115474311Y-98287927D01*
X115704277Y-98244059D01*
X115938394Y-98245693D01*
X115938394Y-98245693D01*
G37*
G36*
X146383394Y-97783193D02*
X146612721Y-97830268D01*
X146828551Y-97920994D01*
X147022638Y-98051908D01*
X147187610Y-98218034D01*
X147317164Y-98413031D01*
X147406379Y-98629481D01*
X147451783Y-98858793D01*
X147451783Y-98858798D01*
X147451851Y-98859142D01*
X147448117Y-99126547D01*
X147448040Y-99126885D01*
X147448040Y-99126893D01*
X147396250Y-99354849D01*
X147301028Y-99568721D01*
X147166075Y-99760029D01*
X146996534Y-99921481D01*
X146798863Y-100046926D01*
X146580588Y-100131589D01*
X146350033Y-100172243D01*
X146115965Y-100167340D01*
X145887309Y-100117066D01*
X145672772Y-100023338D01*
X145480534Y-99889729D01*
X145317898Y-99721314D01*
X145191076Y-99524525D01*
X145104890Y-99306844D01*
X145062629Y-99076580D01*
X145065897Y-98842486D01*
X145114574Y-98613483D01*
X145206801Y-98398299D01*
X145339070Y-98205126D01*
X145506338Y-98041324D01*
X145702241Y-97913129D01*
X145919311Y-97825427D01*
X146149277Y-97781559D01*
X146383394Y-97783193D01*
X146383394Y-97783193D01*
G37*
G36*
X136712360Y-99039440D02*
X135059960Y-99039440D01*
X135059960Y-97587040D01*
X136712360Y-97587040D01*
X136712360Y-99039440D01*
X136712360Y-99039440D01*
G37*
G36*
X139412360Y-99039440D02*
X137759960Y-99039440D01*
X137759960Y-97587040D01*
X139412360Y-97587040D01*
X139412360Y-99039440D01*
X139412360Y-99039440D01*
G37*
G36*
X117589394Y-95609193D02*
X117818721Y-95656268D01*
X118034551Y-95746994D01*
X118228638Y-95877908D01*
X118393610Y-96044034D01*
X118523164Y-96239031D01*
X118612379Y-96455481D01*
X118657783Y-96684793D01*
X118657783Y-96684798D01*
X118657851Y-96685142D01*
X118654117Y-96952547D01*
X118654040Y-96952885D01*
X118654040Y-96952893D01*
X118602250Y-97180849D01*
X118507028Y-97394721D01*
X118372075Y-97586029D01*
X118202534Y-97747481D01*
X118004863Y-97872926D01*
X117786588Y-97957589D01*
X117556033Y-97998243D01*
X117321965Y-97993340D01*
X117093309Y-97943066D01*
X116878772Y-97849338D01*
X116686534Y-97715729D01*
X116523898Y-97547314D01*
X116397076Y-97350525D01*
X116310890Y-97132844D01*
X116268629Y-96902580D01*
X116271897Y-96668486D01*
X116320574Y-96439483D01*
X116412801Y-96224299D01*
X116545070Y-96031126D01*
X116712338Y-95867324D01*
X116908241Y-95739129D01*
X117125311Y-95651427D01*
X117355277Y-95607559D01*
X117589394Y-95609193D01*
X117589394Y-95609193D01*
G37*
G36*
X144429394Y-95377993D02*
X144658721Y-95425068D01*
X144874551Y-95515794D01*
X145068638Y-95646708D01*
X145233610Y-95812834D01*
X145363164Y-96007831D01*
X145452379Y-96224281D01*
X145497783Y-96453593D01*
X145497783Y-96453598D01*
X145497851Y-96453942D01*
X145494117Y-96721347D01*
X145494040Y-96721685D01*
X145494040Y-96721693D01*
X145442250Y-96949649D01*
X145347028Y-97163521D01*
X145212075Y-97354829D01*
X145042534Y-97516281D01*
X144844863Y-97641726D01*
X144626588Y-97726389D01*
X144396033Y-97767043D01*
X144161965Y-97762140D01*
X143933309Y-97711866D01*
X143718772Y-97618138D01*
X143526534Y-97484529D01*
X143363898Y-97316114D01*
X143237076Y-97119325D01*
X143150890Y-96901644D01*
X143108629Y-96671380D01*
X143111897Y-96437286D01*
X143160574Y-96208283D01*
X143252801Y-95993099D01*
X143385070Y-95799926D01*
X143552338Y-95636124D01*
X143748241Y-95507929D01*
X143965311Y-95420227D01*
X144195277Y-95376359D01*
X144429394Y-95377993D01*
X144429394Y-95377993D01*
G37*
G36*
X132137280Y-97739420D02*
X130984880Y-97739420D01*
X130984880Y-94087020D01*
X132137280Y-94087020D01*
X132137280Y-97739420D01*
X132137280Y-97739420D01*
G37*
G36*
X130137280Y-97739420D02*
X128984880Y-97739420D01*
X128984880Y-94087020D01*
X130137280Y-94087020D01*
X130137280Y-97739420D01*
X130137280Y-97739420D01*
G37*
G36*
X119098394Y-92926893D02*
X119327721Y-92973968D01*
X119543551Y-93064694D01*
X119737638Y-93195608D01*
X119902610Y-93361734D01*
X120032164Y-93556731D01*
X120121379Y-93773181D01*
X120166783Y-94002493D01*
X120166783Y-94002498D01*
X120166851Y-94002842D01*
X120163117Y-94270247D01*
X120163040Y-94270585D01*
X120163040Y-94270593D01*
X120111250Y-94498549D01*
X120016028Y-94712421D01*
X119881075Y-94903729D01*
X119711534Y-95065181D01*
X119513863Y-95190626D01*
X119295588Y-95275289D01*
X119065033Y-95315943D01*
X118830965Y-95311040D01*
X118602309Y-95260766D01*
X118387772Y-95167038D01*
X118195534Y-95033429D01*
X118032898Y-94865014D01*
X117906076Y-94668225D01*
X117819890Y-94450544D01*
X117777629Y-94220280D01*
X117780897Y-93986186D01*
X117829574Y-93757183D01*
X117921801Y-93541999D01*
X118054070Y-93348826D01*
X118221338Y-93185024D01*
X118417241Y-93056829D01*
X118634311Y-92969127D01*
X118864277Y-92925259D01*
X119098394Y-92926893D01*
X119098394Y-92926893D01*
G37*
G36*
X142595394Y-92891393D02*
X142824721Y-92938468D01*
X143040551Y-93029194D01*
X143234638Y-93160108D01*
X143399610Y-93326234D01*
X143529164Y-93521231D01*
X143618379Y-93737681D01*
X143663783Y-93966993D01*
X143663783Y-93966998D01*
X143663851Y-93967342D01*
X143660117Y-94234747D01*
X143660040Y-94235085D01*
X143660040Y-94235093D01*
X143608250Y-94463049D01*
X143513028Y-94676921D01*
X143378075Y-94868229D01*
X143208534Y-95029681D01*
X143010863Y-95155126D01*
X142792588Y-95239789D01*
X142562033Y-95280443D01*
X142327965Y-95275540D01*
X142099309Y-95225266D01*
X141884772Y-95131538D01*
X141692534Y-94997929D01*
X141529898Y-94829514D01*
X141403076Y-94632725D01*
X141316890Y-94415044D01*
X141274629Y-94184780D01*
X141277897Y-93950686D01*
X141326574Y-93721683D01*
X141418801Y-93506499D01*
X141551070Y-93313326D01*
X141718338Y-93149524D01*
X141914241Y-93021329D01*
X142131311Y-92933627D01*
X142361277Y-92889759D01*
X142595394Y-92891393D01*
X142595394Y-92891393D01*
G37*
G36*
X140772394Y-90407193D02*
X141001721Y-90454268D01*
X141217551Y-90544994D01*
X141411638Y-90675908D01*
X141576610Y-90842034D01*
X141706164Y-91037031D01*
X141795379Y-91253481D01*
X141840783Y-91482793D01*
X141840783Y-91482798D01*
X141840851Y-91483142D01*
X141837117Y-91750547D01*
X141837040Y-91750885D01*
X141837040Y-91750893D01*
X141785250Y-91978849D01*
X141690028Y-92192721D01*
X141555075Y-92384029D01*
X141385534Y-92545481D01*
X141187863Y-92670926D01*
X140969588Y-92755589D01*
X140739033Y-92796243D01*
X140504965Y-92791340D01*
X140276309Y-92741066D01*
X140061772Y-92647338D01*
X139869534Y-92513729D01*
X139706898Y-92345314D01*
X139580076Y-92148525D01*
X139493890Y-91930844D01*
X139451629Y-91700580D01*
X139454897Y-91466486D01*
X139503574Y-91237483D01*
X139595801Y-91022299D01*
X139728070Y-90829126D01*
X139895338Y-90665324D01*
X140091241Y-90537129D01*
X140308311Y-90449427D01*
X140538277Y-90405559D01*
X140772394Y-90407193D01*
X140772394Y-90407193D01*
G37*
G36*
X120515394Y-90178593D02*
X120744721Y-90225668D01*
X120960551Y-90316394D01*
X121154638Y-90447308D01*
X121319610Y-90613434D01*
X121449164Y-90808431D01*
X121538379Y-91024881D01*
X121583783Y-91254193D01*
X121583783Y-91254198D01*
X121583851Y-91254542D01*
X121580117Y-91521947D01*
X121580040Y-91522285D01*
X121580040Y-91522293D01*
X121528250Y-91750249D01*
X121433028Y-91964121D01*
X121298075Y-92155429D01*
X121128534Y-92316881D01*
X120930863Y-92442326D01*
X120712588Y-92526989D01*
X120482033Y-92567643D01*
X120247965Y-92562740D01*
X120019309Y-92512466D01*
X119804772Y-92418738D01*
X119612534Y-92285129D01*
X119449898Y-92116714D01*
X119323076Y-91919925D01*
X119236890Y-91702244D01*
X119194629Y-91471980D01*
X119197897Y-91237886D01*
X119246574Y-91008883D01*
X119338801Y-90793699D01*
X119471070Y-90600526D01*
X119638338Y-90436724D01*
X119834241Y-90308529D01*
X120051311Y-90220827D01*
X120281277Y-90176959D01*
X120515394Y-90178593D01*
X120515394Y-90178593D01*
G37*
G36*
X133178200Y-92342500D02*
X132125800Y-92342500D01*
X132125800Y-90990100D01*
X133178200Y-90990100D01*
X133178200Y-92342500D01*
X133178200Y-92342500D01*
G37*
G36*
X129878200Y-92342500D02*
X128825800Y-92342500D01*
X128825800Y-90990100D01*
X129878200Y-90990100D01*
X129878200Y-92342500D01*
X129878200Y-92342500D01*
G37*
G36*
X128147200Y-90672600D02*
X126694800Y-90672600D01*
X126694800Y-89020200D01*
X128147200Y-89020200D01*
X128147200Y-90672600D01*
X128147200Y-90672600D01*
G37*
G36*
X134650200Y-90669100D02*
X133247800Y-90669100D01*
X133247800Y-89016700D01*
X134650200Y-89016700D01*
X134650200Y-90669100D01*
X134650200Y-90669100D01*
G37*
G36*
X138984394Y-87892593D02*
X139213721Y-87939668D01*
X139429551Y-88030394D01*
X139623638Y-88161308D01*
X139788610Y-88327434D01*
X139918164Y-88522431D01*
X140007379Y-88738881D01*
X140052783Y-88968193D01*
X140052783Y-88968198D01*
X140052851Y-88968542D01*
X140049117Y-89235947D01*
X140049040Y-89236285D01*
X140049040Y-89236293D01*
X139997250Y-89464249D01*
X139902028Y-89678121D01*
X139767075Y-89869429D01*
X139597534Y-90030881D01*
X139399863Y-90156326D01*
X139181588Y-90240989D01*
X138951033Y-90281643D01*
X138716965Y-90276740D01*
X138488309Y-90226466D01*
X138273772Y-90132738D01*
X138081534Y-89999129D01*
X137918898Y-89830714D01*
X137792076Y-89633925D01*
X137705890Y-89416244D01*
X137663629Y-89185980D01*
X137666897Y-88951886D01*
X137715574Y-88722883D01*
X137807801Y-88507699D01*
X137940070Y-88314526D01*
X138107338Y-88150724D01*
X138303241Y-88022529D01*
X138520311Y-87934827D01*
X138750277Y-87890959D01*
X138984394Y-87892593D01*
X138984394Y-87892593D01*
G37*
G36*
X121882394Y-87420193D02*
X122111721Y-87467268D01*
X122327551Y-87557994D01*
X122521638Y-87688908D01*
X122686610Y-87855034D01*
X122816164Y-88050031D01*
X122905379Y-88266481D01*
X122950783Y-88495793D01*
X122950783Y-88495798D01*
X122950851Y-88496142D01*
X122947117Y-88763547D01*
X122947040Y-88763885D01*
X122947040Y-88763893D01*
X122895250Y-88991849D01*
X122800028Y-89205721D01*
X122665075Y-89397029D01*
X122495534Y-89558481D01*
X122297863Y-89683926D01*
X122079588Y-89768589D01*
X121849033Y-89809243D01*
X121614965Y-89804340D01*
X121386309Y-89754066D01*
X121171772Y-89660338D01*
X120979534Y-89526729D01*
X120816898Y-89358314D01*
X120690076Y-89161525D01*
X120603890Y-88943844D01*
X120561629Y-88713580D01*
X120564897Y-88479486D01*
X120613574Y-88250483D01*
X120705801Y-88035299D01*
X120838070Y-87842126D01*
X121005338Y-87678324D01*
X121201241Y-87550129D01*
X121418311Y-87462427D01*
X121648277Y-87418559D01*
X121882394Y-87420193D01*
X121882394Y-87420193D01*
G37*
G36*
X132049200Y-88868700D02*
X131246800Y-88868700D01*
X131246800Y-87156300D01*
X132049200Y-87156300D01*
X132049200Y-88868700D01*
X132049200Y-88868700D01*
G37*
G36*
X130149200Y-88868700D02*
X129346800Y-88868700D01*
X129346800Y-87156300D01*
X130149200Y-87156300D01*
X130149200Y-88868700D01*
X130149200Y-88868700D01*
G37*
G36*
X131099200Y-88868700D02*
X130296800Y-88868700D01*
X130296800Y-87156300D01*
X131099200Y-87156300D01*
X131099200Y-88868700D01*
X131099200Y-88868700D01*
G37*
G36*
X134650200Y-88169100D02*
X133247800Y-88169100D01*
X133247800Y-86516700D01*
X134650200Y-86516700D01*
X134650200Y-88169100D01*
X134650200Y-88169100D01*
G37*
G36*
X128147200Y-87972600D02*
X126694800Y-87972600D01*
X126694800Y-86320200D01*
X128147200Y-86320200D01*
X128147200Y-87972600D01*
X128147200Y-87972600D01*
G37*
G36*
X132049200Y-86168700D02*
X131246800Y-86168700D01*
X131246800Y-84456300D01*
X132049200Y-84456300D01*
X132049200Y-86168700D01*
X132049200Y-86168700D01*
G37*
G36*
X130149200Y-86168700D02*
X129346800Y-86168700D01*
X129346800Y-84456300D01*
X130149200Y-84456300D01*
X130149200Y-86168700D01*
X130149200Y-86168700D01*
G37*
G36*
X126169200Y-85169100D02*
X124516800Y-85169100D01*
X124516800Y-83766700D01*
X126169200Y-83766700D01*
X126169200Y-85169100D01*
X126169200Y-85169100D01*
G37*
G36*
X128669200Y-85169100D02*
X127016800Y-85169100D01*
X127016800Y-83766700D01*
X128669200Y-83766700D01*
X128669200Y-85169100D01*
X128669200Y-85169100D01*
G37*
G36*
X118113394Y-82763193D02*
X118342721Y-82810268D01*
X118558551Y-82900994D01*
X118752638Y-83031908D01*
X118917610Y-83198034D01*
X119047164Y-83393031D01*
X119136379Y-83609481D01*
X119181783Y-83838793D01*
X119181783Y-83838798D01*
X119181851Y-83839142D01*
X119178117Y-84106547D01*
X119178040Y-84106885D01*
X119178040Y-84106893D01*
X119126250Y-84334849D01*
X119031028Y-84548721D01*
X118896075Y-84740029D01*
X118726534Y-84901481D01*
X118528863Y-85026926D01*
X118310588Y-85111589D01*
X118080033Y-85152243D01*
X117845965Y-85147340D01*
X117617309Y-85097066D01*
X117402772Y-85003338D01*
X117210534Y-84869729D01*
X117047898Y-84701314D01*
X116921076Y-84504525D01*
X116834890Y-84286844D01*
X116792629Y-84056580D01*
X116795897Y-83822486D01*
X116844574Y-83593483D01*
X116936801Y-83378299D01*
X117069070Y-83185126D01*
X117236338Y-83021324D01*
X117432241Y-82893129D01*
X117649311Y-82805427D01*
X117879277Y-82761559D01*
X118113394Y-82763193D01*
X118113394Y-82763193D01*
G37*
G36*
X137552180Y-84980940D02*
X135899780Y-84980940D01*
X135899780Y-83578540D01*
X137552180Y-83578540D01*
X137552180Y-84980940D01*
X137552180Y-84980940D01*
G37*
G36*
X135052180Y-84980940D02*
X133399780Y-84980940D01*
X133399780Y-83578540D01*
X135052180Y-83578540D01*
X135052180Y-84980940D01*
X135052180Y-84980940D01*
G37*
G36*
X143920200Y-84027900D02*
X142467800Y-84027900D01*
X142467800Y-82375500D01*
X143920200Y-82375500D01*
X143920200Y-84027900D01*
X143920200Y-84027900D01*
G37*
G36*
X115923394Y-80643193D02*
X116152721Y-80690268D01*
X116368551Y-80780994D01*
X116562638Y-80911908D01*
X116727610Y-81078034D01*
X116857164Y-81273031D01*
X116946379Y-81489481D01*
X116991783Y-81718793D01*
X116991783Y-81718798D01*
X116991851Y-81719142D01*
X116988117Y-81986547D01*
X116988040Y-81986885D01*
X116988040Y-81986893D01*
X116936250Y-82214849D01*
X116841028Y-82428721D01*
X116706075Y-82620029D01*
X116536534Y-82781481D01*
X116338863Y-82906926D01*
X116120588Y-82991589D01*
X115890033Y-83032243D01*
X115655965Y-83027340D01*
X115427309Y-82977066D01*
X115212772Y-82883338D01*
X115020534Y-82749729D01*
X114857898Y-82581314D01*
X114731076Y-82384525D01*
X114644890Y-82166844D01*
X114602629Y-81936580D01*
X114605897Y-81702486D01*
X114654574Y-81473483D01*
X114746801Y-81258299D01*
X114879070Y-81065126D01*
X115046338Y-80901324D01*
X115242241Y-80773129D01*
X115459311Y-80685427D01*
X115689277Y-80641559D01*
X115923394Y-80643193D01*
X115923394Y-80643193D01*
G37*
G36*
X138963104Y-80209046D02*
X138963110Y-80209047D01*
X138965160Y-80209061D01*
X139086611Y-80222684D01*
X139203103Y-80259637D01*
X139310199Y-80318514D01*
X139403820Y-80397071D01*
X139480399Y-80492316D01*
X139537020Y-80600621D01*
X139571525Y-80717862D01*
X139571528Y-80717896D01*
X139571531Y-80717906D01*
X139582604Y-80839569D01*
X139569833Y-80961068D01*
X139569831Y-80961073D01*
X139569827Y-80961115D01*
X139533688Y-81077862D01*
X139475560Y-81185367D01*
X139397659Y-81279533D01*
X139302951Y-81356775D01*
X139195043Y-81414151D01*
X139078047Y-81449474D01*
X138956417Y-81461400D01*
X137543549Y-81461400D01*
X137536896Y-81461354D01*
X137536890Y-81461353D01*
X137534840Y-81461339D01*
X137413389Y-81447716D01*
X137296897Y-81410763D01*
X137189801Y-81351886D01*
X137096180Y-81273329D01*
X137019601Y-81178084D01*
X136962980Y-81069779D01*
X136928475Y-80952538D01*
X136928472Y-80952504D01*
X136928469Y-80952494D01*
X136917396Y-80830831D01*
X136930167Y-80709332D01*
X136930169Y-80709327D01*
X136930173Y-80709285D01*
X136966312Y-80592538D01*
X137024440Y-80485033D01*
X137102341Y-80390867D01*
X137197049Y-80313625D01*
X137304957Y-80256249D01*
X137421953Y-80220926D01*
X137543583Y-80209000D01*
X138956451Y-80209000D01*
X138963104Y-80209046D01*
X138963104Y-80209046D01*
G37*
G36*
X123563104Y-80209046D02*
X123563110Y-80209047D01*
X123565160Y-80209061D01*
X123686611Y-80222684D01*
X123803103Y-80259637D01*
X123910199Y-80318514D01*
X124003820Y-80397071D01*
X124080399Y-80492316D01*
X124137020Y-80600621D01*
X124171525Y-80717862D01*
X124171528Y-80717896D01*
X124171531Y-80717906D01*
X124182604Y-80839569D01*
X124169833Y-80961068D01*
X124169831Y-80961073D01*
X124169827Y-80961115D01*
X124133688Y-81077862D01*
X124075560Y-81185367D01*
X123997659Y-81279533D01*
X123902951Y-81356775D01*
X123795043Y-81414151D01*
X123678047Y-81449474D01*
X123556417Y-81461400D01*
X122143549Y-81461400D01*
X122136896Y-81461354D01*
X122136890Y-81461353D01*
X122134840Y-81461339D01*
X122013389Y-81447716D01*
X121896897Y-81410763D01*
X121789801Y-81351886D01*
X121696180Y-81273329D01*
X121619601Y-81178084D01*
X121562980Y-81069779D01*
X121528475Y-80952538D01*
X121528472Y-80952504D01*
X121528469Y-80952494D01*
X121517396Y-80830831D01*
X121530167Y-80709332D01*
X121530169Y-80709327D01*
X121530173Y-80709285D01*
X121566312Y-80592538D01*
X121624440Y-80485033D01*
X121702341Y-80390867D01*
X121797049Y-80313625D01*
X121904957Y-80256249D01*
X122021953Y-80220926D01*
X122143583Y-80209000D01*
X123556451Y-80209000D01*
X123563104Y-80209046D01*
X123563104Y-80209046D01*
G37*
G36*
X143920200Y-81327900D02*
X142467800Y-81327900D01*
X142467800Y-79675500D01*
X143920200Y-79675500D01*
X143920200Y-81327900D01*
X143920200Y-81327900D01*
G37*
G36*
X138963104Y-78209046D02*
X138963110Y-78209047D01*
X138965160Y-78209061D01*
X139086611Y-78222684D01*
X139203103Y-78259637D01*
X139310199Y-78318514D01*
X139403820Y-78397071D01*
X139480399Y-78492316D01*
X139537020Y-78600621D01*
X139571525Y-78717862D01*
X139571528Y-78717896D01*
X139571531Y-78717906D01*
X139582604Y-78839569D01*
X139569833Y-78961068D01*
X139569831Y-78961073D01*
X139569827Y-78961115D01*
X139533688Y-79077862D01*
X139475560Y-79185367D01*
X139397659Y-79279533D01*
X139302951Y-79356775D01*
X139195043Y-79414151D01*
X139078047Y-79449474D01*
X138956417Y-79461400D01*
X137543549Y-79461400D01*
X137536896Y-79461354D01*
X137536890Y-79461353D01*
X137534840Y-79461339D01*
X137413389Y-79447716D01*
X137296897Y-79410763D01*
X137189801Y-79351886D01*
X137096180Y-79273329D01*
X137019601Y-79178084D01*
X136962980Y-79069779D01*
X136928475Y-78952538D01*
X136928472Y-78952504D01*
X136928469Y-78952494D01*
X136917396Y-78830831D01*
X136930167Y-78709332D01*
X136930169Y-78709327D01*
X136930173Y-78709285D01*
X136966312Y-78592538D01*
X137024440Y-78485033D01*
X137102341Y-78390867D01*
X137197049Y-78313625D01*
X137304957Y-78256249D01*
X137421953Y-78220926D01*
X137543583Y-78209000D01*
X138956451Y-78209000D01*
X138963104Y-78209046D01*
X138963104Y-78209046D01*
G37*
G36*
X123663104Y-78209046D02*
X123663110Y-78209047D01*
X123665160Y-78209061D01*
X123786611Y-78222684D01*
X123903103Y-78259637D01*
X124010199Y-78318514D01*
X124103820Y-78397071D01*
X124180399Y-78492316D01*
X124237020Y-78600621D01*
X124271525Y-78717862D01*
X124271528Y-78717896D01*
X124271531Y-78717906D01*
X124282604Y-78839569D01*
X124269833Y-78961068D01*
X124269831Y-78961073D01*
X124269827Y-78961115D01*
X124233688Y-79077862D01*
X124175560Y-79185367D01*
X124097659Y-79279533D01*
X124002951Y-79356775D01*
X123895043Y-79414151D01*
X123778047Y-79449474D01*
X123656417Y-79461400D01*
X122243549Y-79461400D01*
X122236896Y-79461354D01*
X122236890Y-79461353D01*
X122234840Y-79461339D01*
X122113389Y-79447716D01*
X121996897Y-79410763D01*
X121889801Y-79351886D01*
X121796180Y-79273329D01*
X121719601Y-79178084D01*
X121662980Y-79069779D01*
X121628475Y-78952538D01*
X121628472Y-78952504D01*
X121628469Y-78952494D01*
X121617396Y-78830831D01*
X121630167Y-78709332D01*
X121630169Y-78709327D01*
X121630173Y-78709285D01*
X121666312Y-78592538D01*
X121724440Y-78485033D01*
X121802341Y-78390867D01*
X121897049Y-78313625D01*
X122004957Y-78256249D01*
X122121953Y-78220926D01*
X122243583Y-78209000D01*
X123656451Y-78209000D01*
X123663104Y-78209046D01*
X123663104Y-78209046D01*
G37*
G36*
X119077500Y-78570520D02*
X117625100Y-78570520D01*
X117625100Y-76918120D01*
X119077500Y-76918120D01*
X119077500Y-78570520D01*
X119077500Y-78570520D01*
G37*
G36*
X123563104Y-76209046D02*
X123563110Y-76209047D01*
X123565160Y-76209061D01*
X123686611Y-76222684D01*
X123803103Y-76259637D01*
X123910199Y-76318514D01*
X124003820Y-76397071D01*
X124080399Y-76492316D01*
X124137020Y-76600621D01*
X124171525Y-76717862D01*
X124171528Y-76717896D01*
X124171531Y-76717906D01*
X124182604Y-76839569D01*
X124169833Y-76961068D01*
X124169831Y-76961073D01*
X124169827Y-76961115D01*
X124133688Y-77077862D01*
X124075560Y-77185367D01*
X123997659Y-77279533D01*
X123902951Y-77356775D01*
X123795043Y-77414151D01*
X123678047Y-77449474D01*
X123556417Y-77461400D01*
X122143549Y-77461400D01*
X122136896Y-77461354D01*
X122136890Y-77461353D01*
X122134840Y-77461339D01*
X122013389Y-77447716D01*
X121896897Y-77410763D01*
X121789801Y-77351886D01*
X121696180Y-77273329D01*
X121619601Y-77178084D01*
X121562980Y-77069779D01*
X121528475Y-76952538D01*
X121528472Y-76952504D01*
X121528469Y-76952494D01*
X121517396Y-76830831D01*
X121530167Y-76709332D01*
X121530169Y-76709327D01*
X121530173Y-76709285D01*
X121566312Y-76592538D01*
X121624440Y-76485033D01*
X121702341Y-76390867D01*
X121797049Y-76313625D01*
X121904957Y-76256249D01*
X122021953Y-76220926D01*
X122143583Y-76209000D01*
X123556451Y-76209000D01*
X123563104Y-76209046D01*
X123563104Y-76209046D01*
G37*
G36*
X138963104Y-76209046D02*
X138963110Y-76209047D01*
X138965160Y-76209061D01*
X139086611Y-76222684D01*
X139203103Y-76259637D01*
X139310199Y-76318514D01*
X139403820Y-76397071D01*
X139480399Y-76492316D01*
X139537020Y-76600621D01*
X139571525Y-76717862D01*
X139571528Y-76717896D01*
X139571531Y-76717906D01*
X139582604Y-76839569D01*
X139569833Y-76961068D01*
X139569831Y-76961073D01*
X139569827Y-76961115D01*
X139533688Y-77077862D01*
X139475560Y-77185367D01*
X139397659Y-77279533D01*
X139302951Y-77356775D01*
X139195043Y-77414151D01*
X139078047Y-77449474D01*
X138956417Y-77461400D01*
X137543549Y-77461400D01*
X137536896Y-77461354D01*
X137536890Y-77461353D01*
X137534840Y-77461339D01*
X137413389Y-77447716D01*
X137296897Y-77410763D01*
X137189801Y-77351886D01*
X137096180Y-77273329D01*
X137019601Y-77178084D01*
X136962980Y-77069779D01*
X136928475Y-76952538D01*
X136928472Y-76952504D01*
X136928469Y-76952494D01*
X136917396Y-76830831D01*
X136930167Y-76709332D01*
X136930169Y-76709327D01*
X136930173Y-76709285D01*
X136966312Y-76592538D01*
X137024440Y-76485033D01*
X137102341Y-76390867D01*
X137197049Y-76313625D01*
X137304957Y-76256249D01*
X137421953Y-76220926D01*
X137543583Y-76209000D01*
X138956451Y-76209000D01*
X138963104Y-76209046D01*
X138963104Y-76209046D01*
G37*
G36*
X119077500Y-75870520D02*
X117625100Y-75870520D01*
X117625100Y-74218120D01*
X119077500Y-74218120D01*
X119077500Y-75870520D01*
X119077500Y-75870520D01*
G37*
G36*
X123563104Y-74209046D02*
X123563110Y-74209047D01*
X123565160Y-74209061D01*
X123686611Y-74222684D01*
X123803103Y-74259637D01*
X123910199Y-74318514D01*
X124003820Y-74397071D01*
X124080399Y-74492316D01*
X124137020Y-74600621D01*
X124171525Y-74717862D01*
X124171528Y-74717896D01*
X124171531Y-74717906D01*
X124182604Y-74839569D01*
X124169833Y-74961068D01*
X124169831Y-74961073D01*
X124169827Y-74961115D01*
X124133688Y-75077862D01*
X124075560Y-75185367D01*
X123997659Y-75279533D01*
X123902951Y-75356775D01*
X123795043Y-75414151D01*
X123678047Y-75449474D01*
X123556417Y-75461400D01*
X122143549Y-75461400D01*
X122136896Y-75461354D01*
X122136890Y-75461353D01*
X122134840Y-75461339D01*
X122013389Y-75447716D01*
X121896897Y-75410763D01*
X121789801Y-75351886D01*
X121696180Y-75273329D01*
X121619601Y-75178084D01*
X121562980Y-75069779D01*
X121528475Y-74952538D01*
X121528472Y-74952504D01*
X121528469Y-74952494D01*
X121517396Y-74830831D01*
X121530167Y-74709332D01*
X121530169Y-74709327D01*
X121530173Y-74709285D01*
X121566312Y-74592538D01*
X121624440Y-74485033D01*
X121702341Y-74390867D01*
X121797049Y-74313625D01*
X121904957Y-74256249D01*
X122021953Y-74220926D01*
X122143583Y-74209000D01*
X123556451Y-74209000D01*
X123563104Y-74209046D01*
X123563104Y-74209046D01*
G37*
G36*
X138963104Y-74209046D02*
X138963110Y-74209047D01*
X138965160Y-74209061D01*
X139086611Y-74222684D01*
X139203103Y-74259637D01*
X139310199Y-74318514D01*
X139403820Y-74397071D01*
X139480399Y-74492316D01*
X139537020Y-74600621D01*
X139571525Y-74717862D01*
X139571528Y-74717896D01*
X139571531Y-74717906D01*
X139582604Y-74839569D01*
X139569833Y-74961068D01*
X139569831Y-74961073D01*
X139569827Y-74961115D01*
X139533688Y-75077862D01*
X139475560Y-75185367D01*
X139397659Y-75279533D01*
X139302951Y-75356775D01*
X139195043Y-75414151D01*
X139078047Y-75449474D01*
X138956417Y-75461400D01*
X137543549Y-75461400D01*
X137536896Y-75461354D01*
X137536890Y-75461353D01*
X137534840Y-75461339D01*
X137413389Y-75447716D01*
X137296897Y-75410763D01*
X137189801Y-75351886D01*
X137096180Y-75273329D01*
X137019601Y-75178084D01*
X136962980Y-75069779D01*
X136928475Y-74952538D01*
X136928472Y-74952504D01*
X136928469Y-74952494D01*
X136917396Y-74830831D01*
X136930167Y-74709332D01*
X136930169Y-74709327D01*
X136930173Y-74709285D01*
X136966312Y-74592538D01*
X137024440Y-74485033D01*
X137102341Y-74390867D01*
X137197049Y-74313625D01*
X137304957Y-74256249D01*
X137421953Y-74220926D01*
X137543583Y-74209000D01*
X138956451Y-74209000D01*
X138963104Y-74209046D01*
X138963104Y-74209046D01*
G37*
G36*
X116565200Y-73603800D02*
X115112800Y-73603800D01*
X115112800Y-71951400D01*
X116565200Y-71951400D01*
X116565200Y-73603800D01*
X116565200Y-73603800D01*
G37*
G36*
X144393200Y-73532600D02*
X142940800Y-73532600D01*
X142940800Y-71880200D01*
X144393200Y-71880200D01*
X144393200Y-73532600D01*
X144393200Y-73532600D01*
G37*
G36*
X123563104Y-72209046D02*
X123563110Y-72209047D01*
X123565160Y-72209061D01*
X123686611Y-72222684D01*
X123803103Y-72259637D01*
X123910199Y-72318514D01*
X124003820Y-72397071D01*
X124080399Y-72492316D01*
X124137020Y-72600621D01*
X124171525Y-72717862D01*
X124171528Y-72717896D01*
X124171531Y-72717906D01*
X124182604Y-72839569D01*
X124169833Y-72961068D01*
X124169831Y-72961073D01*
X124169827Y-72961115D01*
X124133688Y-73077862D01*
X124075560Y-73185367D01*
X123997659Y-73279533D01*
X123902951Y-73356775D01*
X123795043Y-73414151D01*
X123678047Y-73449474D01*
X123556417Y-73461400D01*
X122143549Y-73461400D01*
X122136896Y-73461354D01*
X122136890Y-73461353D01*
X122134840Y-73461339D01*
X122013389Y-73447716D01*
X121896897Y-73410763D01*
X121789801Y-73351886D01*
X121696180Y-73273329D01*
X121619601Y-73178084D01*
X121562980Y-73069779D01*
X121528475Y-72952538D01*
X121528472Y-72952504D01*
X121528469Y-72952494D01*
X121517396Y-72830831D01*
X121530167Y-72709332D01*
X121530169Y-72709327D01*
X121530173Y-72709285D01*
X121566312Y-72592538D01*
X121624440Y-72485033D01*
X121702341Y-72390867D01*
X121797049Y-72313625D01*
X121904957Y-72256249D01*
X122021953Y-72220926D01*
X122143583Y-72209000D01*
X123556451Y-72209000D01*
X123563104Y-72209046D01*
X123563104Y-72209046D01*
G37*
G36*
X138963104Y-72209046D02*
X138963110Y-72209047D01*
X138965160Y-72209061D01*
X139086611Y-72222684D01*
X139203103Y-72259637D01*
X139310199Y-72318514D01*
X139403820Y-72397071D01*
X139480399Y-72492316D01*
X139537020Y-72600621D01*
X139571525Y-72717862D01*
X139571528Y-72717896D01*
X139571531Y-72717906D01*
X139582604Y-72839569D01*
X139569833Y-72961068D01*
X139569831Y-72961073D01*
X139569827Y-72961115D01*
X139533688Y-73077862D01*
X139475560Y-73185367D01*
X139397659Y-73279533D01*
X139302951Y-73356775D01*
X139195043Y-73414151D01*
X139078047Y-73449474D01*
X138956417Y-73461400D01*
X137543549Y-73461400D01*
X137536896Y-73461354D01*
X137536890Y-73461353D01*
X137534840Y-73461339D01*
X137413389Y-73447716D01*
X137296897Y-73410763D01*
X137189801Y-73351886D01*
X137096180Y-73273329D01*
X137019601Y-73178084D01*
X136962980Y-73069779D01*
X136928475Y-72952538D01*
X136928472Y-72952504D01*
X136928469Y-72952494D01*
X136917396Y-72830831D01*
X136930167Y-72709332D01*
X136930169Y-72709327D01*
X136930173Y-72709285D01*
X136966312Y-72592538D01*
X137024440Y-72485033D01*
X137102341Y-72390867D01*
X137197049Y-72313625D01*
X137304957Y-72256249D01*
X137421953Y-72220926D01*
X137543583Y-72209000D01*
X138956451Y-72209000D01*
X138963104Y-72209046D01*
X138963104Y-72209046D01*
G37*
G36*
X113684200Y-72034000D02*
X112231800Y-72034000D01*
X112231800Y-70381600D01*
X113684200Y-70381600D01*
X113684200Y-72034000D01*
X113684200Y-72034000D01*
G37*
G36*
X147538200Y-71781600D02*
X146135800Y-71781600D01*
X146135800Y-70129200D01*
X147538200Y-70129200D01*
X147538200Y-71781600D01*
X147538200Y-71781600D01*
G37*
G36*
X138963104Y-70209046D02*
X138963110Y-70209047D01*
X138965160Y-70209061D01*
X139086611Y-70222684D01*
X139203103Y-70259637D01*
X139310199Y-70318514D01*
X139403820Y-70397071D01*
X139480399Y-70492316D01*
X139537020Y-70600621D01*
X139571525Y-70717862D01*
X139571528Y-70717896D01*
X139571531Y-70717906D01*
X139582604Y-70839569D01*
X139569833Y-70961068D01*
X139569831Y-70961073D01*
X139569827Y-70961115D01*
X139533688Y-71077862D01*
X139475560Y-71185367D01*
X139397659Y-71279533D01*
X139302951Y-71356775D01*
X139195043Y-71414151D01*
X139078047Y-71449474D01*
X138956417Y-71461400D01*
X137543549Y-71461400D01*
X137536896Y-71461354D01*
X137536890Y-71461353D01*
X137534840Y-71461339D01*
X137413389Y-71447716D01*
X137296897Y-71410763D01*
X137189801Y-71351886D01*
X137096180Y-71273329D01*
X137019601Y-71178084D01*
X136962980Y-71069779D01*
X136928475Y-70952538D01*
X136928472Y-70952504D01*
X136928469Y-70952494D01*
X136917396Y-70830831D01*
X136930167Y-70709332D01*
X136930169Y-70709327D01*
X136930173Y-70709285D01*
X136966312Y-70592538D01*
X137024440Y-70485033D01*
X137102341Y-70390867D01*
X137197049Y-70313625D01*
X137304957Y-70256249D01*
X137421953Y-70220926D01*
X137543583Y-70209000D01*
X138956451Y-70209000D01*
X138963104Y-70209046D01*
X138963104Y-70209046D01*
G37*
G36*
X123563104Y-70209046D02*
X123563110Y-70209047D01*
X123565160Y-70209061D01*
X123686611Y-70222684D01*
X123803103Y-70259637D01*
X123910199Y-70318514D01*
X124003820Y-70397071D01*
X124080399Y-70492316D01*
X124137020Y-70600621D01*
X124171525Y-70717862D01*
X124171528Y-70717896D01*
X124171531Y-70717906D01*
X124182604Y-70839569D01*
X124169833Y-70961068D01*
X124169831Y-70961073D01*
X124169827Y-70961115D01*
X124133688Y-71077862D01*
X124075560Y-71185367D01*
X123997659Y-71279533D01*
X123902951Y-71356775D01*
X123795043Y-71414151D01*
X123678047Y-71449474D01*
X123556417Y-71461400D01*
X122143549Y-71461400D01*
X122136896Y-71461354D01*
X122136890Y-71461353D01*
X122134840Y-71461339D01*
X122013389Y-71447716D01*
X121896897Y-71410763D01*
X121789801Y-71351886D01*
X121696180Y-71273329D01*
X121619601Y-71178084D01*
X121562980Y-71069779D01*
X121528475Y-70952538D01*
X121528472Y-70952504D01*
X121528469Y-70952494D01*
X121517396Y-70830831D01*
X121530167Y-70709332D01*
X121530169Y-70709327D01*
X121530173Y-70709285D01*
X121566312Y-70592538D01*
X121624440Y-70485033D01*
X121702341Y-70390867D01*
X121797049Y-70313625D01*
X121904957Y-70256249D01*
X122021953Y-70220926D01*
X122143583Y-70209000D01*
X123556451Y-70209000D01*
X123563104Y-70209046D01*
X123563104Y-70209046D01*
G37*
G36*
X116565200Y-70903800D02*
X115112800Y-70903800D01*
X115112800Y-69251400D01*
X116565200Y-69251400D01*
X116565200Y-70903800D01*
X116565200Y-70903800D01*
G37*
G36*
X144393200Y-70832600D02*
X142940800Y-70832600D01*
X142940800Y-69180200D01*
X144393200Y-69180200D01*
X144393200Y-70832600D01*
X144393200Y-70832600D01*
G37*
G36*
X138963104Y-68209046D02*
X138963110Y-68209047D01*
X138965160Y-68209061D01*
X139086611Y-68222684D01*
X139203103Y-68259637D01*
X139310199Y-68318514D01*
X139403820Y-68397071D01*
X139480399Y-68492316D01*
X139537020Y-68600621D01*
X139571525Y-68717862D01*
X139571528Y-68717896D01*
X139571531Y-68717906D01*
X139582604Y-68839569D01*
X139569833Y-68961068D01*
X139569831Y-68961073D01*
X139569827Y-68961115D01*
X139533688Y-69077862D01*
X139475560Y-69185367D01*
X139397659Y-69279533D01*
X139302951Y-69356775D01*
X139195043Y-69414151D01*
X139078047Y-69449474D01*
X138956417Y-69461400D01*
X137543549Y-69461400D01*
X137536896Y-69461354D01*
X137536890Y-69461353D01*
X137534840Y-69461339D01*
X137413389Y-69447716D01*
X137296897Y-69410763D01*
X137189801Y-69351886D01*
X137096180Y-69273329D01*
X137019601Y-69178084D01*
X136962980Y-69069779D01*
X136928475Y-68952538D01*
X136928472Y-68952504D01*
X136928469Y-68952494D01*
X136917396Y-68830831D01*
X136930167Y-68709332D01*
X136930169Y-68709327D01*
X136930173Y-68709285D01*
X136966312Y-68592538D01*
X137024440Y-68485033D01*
X137102341Y-68390867D01*
X137197049Y-68313625D01*
X137304957Y-68256249D01*
X137421953Y-68220926D01*
X137543583Y-68209000D01*
X138956451Y-68209000D01*
X138963104Y-68209046D01*
X138963104Y-68209046D01*
G37*
G36*
X123563104Y-68209046D02*
X123563110Y-68209047D01*
X123565160Y-68209061D01*
X123686611Y-68222684D01*
X123803103Y-68259637D01*
X123910199Y-68318514D01*
X124003820Y-68397071D01*
X124080399Y-68492316D01*
X124137020Y-68600621D01*
X124171525Y-68717862D01*
X124171528Y-68717896D01*
X124171531Y-68717906D01*
X124182604Y-68839569D01*
X124169833Y-68961068D01*
X124169831Y-68961073D01*
X124169827Y-68961115D01*
X124133688Y-69077862D01*
X124075560Y-69185367D01*
X123997659Y-69279533D01*
X123902951Y-69356775D01*
X123795043Y-69414151D01*
X123678047Y-69449474D01*
X123556417Y-69461400D01*
X122143549Y-69461400D01*
X122136896Y-69461354D01*
X122136890Y-69461353D01*
X122134840Y-69461339D01*
X122013389Y-69447716D01*
X121896897Y-69410763D01*
X121789801Y-69351886D01*
X121696180Y-69273329D01*
X121619601Y-69178084D01*
X121562980Y-69069779D01*
X121528475Y-68952538D01*
X121528472Y-68952504D01*
X121528469Y-68952494D01*
X121517396Y-68830831D01*
X121530167Y-68709332D01*
X121530169Y-68709327D01*
X121530173Y-68709285D01*
X121566312Y-68592538D01*
X121624440Y-68485033D01*
X121702341Y-68390867D01*
X121797049Y-68313625D01*
X121904957Y-68256249D01*
X122021953Y-68220926D01*
X122143583Y-68209000D01*
X123556451Y-68209000D01*
X123563104Y-68209046D01*
X123563104Y-68209046D01*
G37*
G36*
X113684200Y-69334000D02*
X112231800Y-69334000D01*
X112231800Y-67681600D01*
X113684200Y-67681600D01*
X113684200Y-69334000D01*
X113684200Y-69334000D01*
G37*
G36*
X147538200Y-69281600D02*
X146135800Y-69281600D01*
X146135800Y-67629200D01*
X147538200Y-67629200D01*
X147538200Y-69281600D01*
X147538200Y-69281600D01*
G37*
G36*
X139576200Y-67461400D02*
X136923800Y-67461400D01*
X136923800Y-66209000D01*
X139576200Y-66209000D01*
X139576200Y-67461400D01*
X139576200Y-67461400D01*
G37*
G36*
X123563104Y-66209046D02*
X123563110Y-66209047D01*
X123565160Y-66209061D01*
X123686611Y-66222684D01*
X123803103Y-66259637D01*
X123910199Y-66318514D01*
X124003820Y-66397071D01*
X124080399Y-66492316D01*
X124137020Y-66600621D01*
X124171525Y-66717862D01*
X124171528Y-66717896D01*
X124171531Y-66717906D01*
X124182604Y-66839569D01*
X124169833Y-66961068D01*
X124169831Y-66961073D01*
X124169827Y-66961115D01*
X124133688Y-67077862D01*
X124075560Y-67185367D01*
X123997659Y-67279533D01*
X123902951Y-67356775D01*
X123795043Y-67414151D01*
X123678047Y-67449474D01*
X123556417Y-67461400D01*
X122143549Y-67461400D01*
X122136896Y-67461354D01*
X122136890Y-67461353D01*
X122134840Y-67461339D01*
X122013389Y-67447716D01*
X121896897Y-67410763D01*
X121789801Y-67351886D01*
X121696180Y-67273329D01*
X121619601Y-67178084D01*
X121562980Y-67069779D01*
X121528475Y-66952538D01*
X121528472Y-66952504D01*
X121528469Y-66952494D01*
X121517396Y-66830831D01*
X121530167Y-66709332D01*
X121530169Y-66709327D01*
X121530173Y-66709285D01*
X121566312Y-66592538D01*
X121624440Y-66485033D01*
X121702341Y-66390867D01*
X121797049Y-66313625D01*
X121904957Y-66256249D01*
X122021953Y-66220926D01*
X122143583Y-66209000D01*
X123556451Y-66209000D01*
X123563104Y-66209046D01*
X123563104Y-66209046D01*
G37*
G36*
X130817463Y-43407053D02*
X131369988Y-43520471D01*
X131889973Y-43739052D01*
X132357593Y-44054466D01*
X132755043Y-44454700D01*
X133067183Y-44924510D01*
X133282127Y-45446001D01*
X133391616Y-45998965D01*
X133391616Y-45998970D01*
X133391684Y-45999314D01*
X133382688Y-46643568D01*
X133382611Y-46643906D01*
X133382611Y-46643914D01*
X133257724Y-47193606D01*
X133028305Y-47708890D01*
X132703166Y-48169803D01*
X132294695Y-48558785D01*
X131818450Y-48861019D01*
X131292568Y-49064995D01*
X130737089Y-49162942D01*
X130173159Y-49151128D01*
X129622263Y-49030006D01*
X129105385Y-48804188D01*
X128642218Y-48482278D01*
X128250394Y-48076533D01*
X127944841Y-47602408D01*
X127737198Y-47077960D01*
X127635377Y-46523181D01*
X127643252Y-45959183D01*
X127760526Y-45407454D01*
X127982728Y-44889015D01*
X128301400Y-44423607D01*
X128704399Y-44028961D01*
X129176380Y-43720106D01*
X129699361Y-43508807D01*
X130253419Y-43403116D01*
X130817463Y-43407053D01*
X130817463Y-43407053D01*
G37*
M02*
