<?xml version="1.0" encoding="UTF-8" standalone="no"?>
<!-- Created with Inkscape (http://www.inkscape.org/) -->

<svg
   xmlns:dc="http://purl.org/dc/elements/1.1/"
   xmlns:cc="http://creativecommons.org/ns#"
   xmlns:rdf="http://www.w3.org/1999/02/22-rdf-syntax-ns#"
   xmlns:svg="http://www.w3.org/2000/svg"
   xmlns="http://www.w3.org/2000/svg"
   xmlns:sodipodi="http://sodipodi.sourceforge.net/DTD/sodipodi-0.dtd"
   xmlns:inkscape="http://www.inkscape.org/namespaces/inkscape"
   width="25mm"
   height="17mm"
   id="svg3274"
   version="1.1"
   inkscape:version="0.91 r13725"
   sodipodi:docname="004_eyes.svg"
   inkscape:export-filename="/home/salvari/work/graphicsResources/BL/oshwi.png"
   inkscape:export-xdpi="90"
   inkscape:export-ydpi="90">
  <defs
     id="defs3276" />
  <sodipodi:namedview
     id="base"
     pagecolor="#ffffff"
     bordercolor="#666666"
     borderopacity="1.0"
     inkscape:pageopacity="1"
     inkscape:pageshadow="2"
     inkscape:zoom="8"
     inkscape:cx="53.117627"
     inkscape:cy="23.207548"
     inkscape:document-units="px"
     inkscape:current-layer="layer1"
     showgrid="false"
     inkscape:window-width="1920"
     inkscape:window-height="1017"
     inkscape:window-x="-8"
     inkscape:window-y="-8"
     inkscape:window-maximized="1"
     units="mm" />
  <metadata
     id="metadata3279">
    <rdf:RDF>
      <cc:Work
         rdf:about="">
        <dc:format>image/svg+xml</dc:format>
        <dc:type
           rdf:resource="http://purl.org/dc/dcmitype/StillImage" />
        <dc:title></dc:title>
      </cc:Work>
    </rdf:RDF>
  </metadata>
  <g
     inkscape:label="Layer 1"
     inkscape:groupmode="layer"
     id="layer1"
     transform="translate(0,-992.12606)">
    <path
       d="m 176.11879,774.5795 c 8.8989,11.8165 13.16525,27.06425 10.1115,42.30951"
       id="path33"
       inkscape:connector-curvature="0"
       style="fill:none" />
    <path
       d="m 135.70758,752.66448 c 12.47458,0.65173 23.88927,5.77777 32.75392,13.62781"
       id="path35"
       inkscape:connector-curvature="0"
       style="fill:none" />
    <path
       style="fill:none;stroke:#010202;stroke-width:0.03396736;stroke-miterlimit:10"
       inkscape:connector-curvature="0"
       id="path42"
       d="M 142.4113,874.84754"
       stroke-miterlimit="10" />
    <path
       style="fill:none;stroke:#010202;stroke-width:0.03396736;stroke-miterlimit:10"
       inkscape:connector-curvature="0"
       id="path44"
       d="M 154.18334,874.5457"
       stroke-miterlimit="10" />
    <path
       style="fill:none;stroke:#010202;stroke-width:0.03396736;stroke-miterlimit:10"
       inkscape:connector-curvature="0"
       id="path46"
       d="M 142.4113,874.51974"
       stroke-miterlimit="10" />
    <path
       style="fill:none;stroke:#010202;stroke-width:0.03396736;stroke-miterlimit:10"
       inkscape:connector-curvature="0"
       id="path48"
       d="M 153.99445,879.15891"
       stroke-miterlimit="10" />
    <path
       style="fill:none;stroke:#010202;stroke-width:0.03396736;stroke-miterlimit:10"
       inkscape:connector-curvature="0"
       id="path50"
       d="M 142.22213,879.13295"
       stroke-miterlimit="10" />
    <g
       id="g4853"
       transform="translate(-86.50768,176.46279)"
       style="fill:#000000;fill-opacity:1"
       inkscape:export-xdpi="90"
       inkscape:export-ydpi="90">
      <g
         id="g4849"
         style="fill:#000000;fill-opacity:1" />
      <path
         id="path22"
         style="fill:#000000;fill-opacity:1;stroke:#010202;stroke-width:0.05664472;stroke-miterlimit:10"
         d="m 115.10484,866.79619 c 1.04995,-0.3989 2.77675,-1.28269 3.83808,-1.9637 l 1.93041,-1.23886 -0.72595,-1.02999 c -1.80836,-2.56426 -3.91797,-7.93996 -4.5227,-11.52478 l -0.26186,-1.55288 -0.73927,1.51931 c -1.00335,2.06329 -1.71792,2.78536 -3.71214,3.75043 l -1.69796,0.82165 0,6.23647 0,6.23619 1.99145,-0.26436 c 1.09544,-0.14536 2.85026,-0.59058 3.89994,-0.98948 l 0,0 z m -9.00213,-5.06224 0,-6.21483 -1.45246,-0.60723 c -3.28772,-1.37312 -4.929918,-4.10743 -4.694409,-7.81292 0.128159,-2.01474 0.365609,-2.7074 1.341779,-3.91964 0.65216,-0.80972 1.86911,-1.87299 2.70408,-2.36343 3.25526,-1.90878 8.61182,-0.37865 10.23266,2.92295 0.81333,1.6569 1.19781,1.59781 1.20557,-0.18503 0.0197,-4.16569 2.63251,-11.15418 5.62647,-15.04719 l 1.48075,-1.92653 -1.67604,-1.44441 c -2.03915,-1.75538 -5.0037,-3.24695 -8.01569,-4.03115 -6.257,-1.62999 -12.70429,0.33482 -17.849749,5.4395 -7.601267,7.54079 -9.358307,19.48501 -4.366527,29.68022 0.861321,1.75843 2.203931,3.5274 4.186219,5.51579 3.66027,3.67137 5.497477,4.6872 11.180537,6.18321 0.0535,0.0144 0.0968,-2.77066 0.0968,-6.18931 l 0,0 z m 37.3231,6.61955 0,-6.20595 -1.65218,-0.43607 c -6.35326,-1.67466 -10.64183,-8.23596 -9.60353,-14.69351 1.43137,-8.89699 10.88899,-13.71401 18.92882,-9.63987 2.316,1.17368 4.95849,3.97679 6.02759,6.39265 0.96063,2.17119 1.32069,6.28334 0.73843,8.43346 -1.10599,4.08275 -4.76209,8.02069 -8.53332,9.19048 l -1.82306,0.56672 -0.10791,6.35298 -0.0155,6.29888 2.05413,-0.19723 c 1.17977,-0.13842 3.50853,-0.74925 5.17487,-1.35703 8.98353,-3.27913 15.69713,-10.60937 18.20952,-19.8828 0.93095,-3.43807 0.93289,-10.54973 0.004,-13.99585 -2.22058,-8.22902 -7.99102,-15.20919 -15.59811,-18.86835 -3.90133,-1.87632 -7.42622,-2.63417 -12.24713,-2.63279 -5.04865,10e-4 -7.94746,0.70182 -12.82967,3.09799 -3.12378,1.53401 -4.23559,2.35788 -7.20764,5.34574 -5.84505,5.87363 -8.34996,11.89012 -8.33747,20.02039 0.0139,8.44594 3.04389,15.32791 9.2981,21.11832 4.30079,3.98205 11.42215,7.20764 16.06358,7.27533 l 1.45801,0.0222 0,-6.20567 -0.002,0 z"
         inkscape:connector-curvature="0" />
    </g>
    <path
       d="m 150.32498,778.30199 c 8.93888,11.8696 13.2244,27.18586 10.15693,42.49963"
       id="path33-9"
       inkscape:connector-curvature="0"
       style="fill:none" />
    <path
       d="m 109.73219,756.2885 c 12.53063,0.65466 23.99661,5.80373 32.90109,13.68905"
       id="path35-2"
       inkscape:connector-curvature="0"
       style="fill:none" />
    <path
       style="fill:none;stroke:#010202;stroke-width:0.03411999;stroke-miterlimit:10"
       inkscape:connector-curvature="0"
       id="path42-8"
       d="M 116.46603,879.02057"
       stroke-miterlimit="10" />
    <path
       style="fill:none;stroke:#010202;stroke-width:0.03411999;stroke-miterlimit:10"
       inkscape:connector-curvature="0"
       id="path44-8"
       d="M 128.29096,878.71738"
       stroke-miterlimit="10" />
    <path
       style="fill:none;stroke:#010202;stroke-width:0.03411999;stroke-miterlimit:10"
       inkscape:connector-curvature="0"
       id="path46-5"
       d="M 116.46603,878.6913"
       stroke-miterlimit="10" />
    <path
       style="fill:none;stroke:#010202;stroke-width:0.03411999;stroke-miterlimit:10"
       inkscape:connector-curvature="0"
       id="path48-7"
       d="M 128.10122,883.35132"
       stroke-miterlimit="10" />
    <path
       style="fill:none;stroke:#010202;stroke-width:0.03411999;stroke-miterlimit:10"
       inkscape:connector-curvature="0"
       id="path50-8"
       d="M 116.27601,883.32524"
       stroke-miterlimit="10" />
  </g>
</svg>
