<?xml version="1.0" standalone="no"?>
 <!DOCTYPE svg PUBLIC "-//W3C//DTD SVG 1.1//EN" 
 "http://www.w3.org/Graphics/SVG/1.1/DTD/svg11.dtd"> 
<svg xmlns="http://www.w3.org/2000/svg" version="1.1" 
    width="27.94cm" height="21.59cm" viewBox="0 0 110000 85000 ">
<title>SVG Picture created as 001-B.Mask.svg date 2018/03/02 20:01:40 </title>
  <desc>Picture generated by PCBNEW </desc>
<g style="fill:#000000; fill-opacity:1;stroke:#000000; stroke-opacity:1;
stroke-linecap:round; stroke-linejoin:round; "
 transform="translate(0 0) scale(1 1)">
</g>
<g style="fill:#000000; fill-opacity:0.0; 
stroke:#000000; stroke-width:-0.000393701; stroke-opacity:1; 
stroke-linecap:round; stroke-linejoin:round;">
</g>
<g style="fill:#000000; fill-opacity:1.0; 
stroke:#000000; stroke-width:3.93701; stroke-opacity:1; 
stroke-linecap:round; stroke-linejoin:round;">
<polyline style="fill-rule:evenodd;"
points="48412,40142
48406,40142
48402,40142
48398,40143
48395,40143
48393,40143
48390,40144
48389,40144
48381,40148
48376,40152
48372,40157
48370,40164
48369,40173
48370,40176
48370,40182
48371,40186
48373,40189
48373,40191
48379,40196
48386,40200
48395,40203
48396,40203
48400,40204
48403,40205
48404,40205
48404,40206
48402,40209
48400,40214
48396,40221
48393,40228
48388,40237
48383,40247
48378,40257
48373,40267
48367,40278
48362,40288
48357,40298
48352,40307
48348,40316
48344,40324
48340,40330
48338,40334
48336,40337
48336,40338
48335,40337
48333,40334
48330,40329
48327,40323
48322,40315
48317,40305
48312,40295
48305,40284
48299,40272
48299,40272
48263,40205
48270,40204
48280,40202
48289,40198
48295,40193
48299,40187
48301,40179
48301,40169
48301,40169
48300,40162
48298,40157
48294,40152
48293,40151
48291,40149
48289,40147
48286,40146
48283,40145
48279,40144
48275,40143
48269,40143
48261,40143
48251,40142
48240,40142
48234,40142
48222,40142
48213,40142
48205,40142
48199,40142
48194,40142
48191,40143
48188,40143
48185,40143
48183,40144
48182,40144
48174,40148
48168,40152
48164,40158
48163,40161
48162,40167
48162,40174
48163,40181
48164,40187
48165,40189
48169,40194
48175,40198
48181,40202
48187,40203
48194,40205
48264,40338
48273,40355
48282,40372
48290,40387
48298,40402
48305,40416
48311,40428
48317,40439
48322,40449
48327,40458
48330,40464
48333,40469
48334,40472
48334,40472
48333,40473
48330,40473
48326,40474
48325,40474
48315,40475
48307,40477
48301,40481
48296,40485
48295,40487
48294,40491
48293,40494
48292,40499
48292,40504
48292,40510
48293,40513
48294,40517
48295,40520
48296,40521
48300,40526
48304,40530
48311,40533
48314,40534
48316,40534
48318,40534
48321,40535
48324,40535
48328,40535
48334,40535
48341,40535
48350,40536
48360,40536
48372,40536
48387,40536
48402,40536
48418,40536
48433,40536
48445,40536
48456,40535
48464,40535
48471,40535
48476,40535
48481,40535
48484,40535
48486,40534
48487,40534
48487,40534
48493,40531
48498,40527
48502,40521
48502,40521
48504,40518
48506,40514
48506,40510
48507,40505
48507,40500
48506,40496
48505,40493
48504,40489
48501,40485
48497,40481
48496,40480
48493,40478
48490,40477
48486,40476
48482,40475
48476,40474
48469,40474
48461,40473
48450,40473
48441,40473
48405,40473
48388,40442
48384,40434
48380,40426
48376,40420
48374,40415
48372,40411
48371,40410
48371,40410
48372,40408
48374,40405
48376,40400
48380,40393
48384,40385
48389,40375
48395,40363
48401,40351
48408,40338
48416,40324
48423,40309
48424,40307
48477,40205
48482,40204
48491,40201
48498,40197
48502,40191
48505,40185
48507,40176
48507,40173
48506,40165
48504,40158
48500,40152
48494,40148
48490,40145
48488,40145
48486,40144
48484,40144
48482,40143
48478,40143
48474,40143
48468,40143
48460,40142
48451,40142
48441,40142
48429,40142
48420,40142
48412,40142
" /> 
<polyline style="fill-rule:evenodd;"
points="47234,40134
47228,40134
47222,40134
47218,40135
47214,40135
47210,40136
47207,40137
47193,40142
47180,40148
47168,40155
47166,40156
47157,40162
47157,40142
47115,40142
47103,40142
47093,40142
47084,40142
47076,40143
47071,40143
47067,40143
47067,40143
47059,40146
47052,40151
47047,40157
47044,40165
47043,40172
47044,40180
47046,40187
47049,40192
47050,40193
47055,40198
47061,40201
47069,40203
47078,40204
47080,40204
47093,40205
47093,40314
47093,40335
47093,40353
47093,40370
47093,40384
47093,40397
47093,40408
47094,40417
47094,40425
47094,40432
47095,40438
47095,40443
47096,40447
47096,40451
47097,40454
47098,40457
47098,40458
47104,40473
47112,40486
47122,40499
47134,40510
47147,40519
47162,40527
47177,40532
47180,40533
47182,40533
47185,40534
47188,40534
47192,40534
47197,40535
47203,40535
47210,40535
47219,40535
47231,40535
47241,40535
47252,40535
47263,40535
47273,40535
47282,40535
47289,40535
47294,40535
47298,40535
47298,40534
47307,40531
47314,40527
47319,40520
47322,40513
47322,40513
47323,40504
47322,40495
47319,40488
47315,40482
47314,40482
47312,40480
47309,40478
47306,40477
47302,40475
47297,40475
47291,40474
47284,40474
47275,40473
47263,40473
47250,40473
47250,40473
47236,40473
47225,40473
47216,40473
47208,40472
47202,40472
47197,40471
47193,40470
47189,40469
47185,40468
47183,40467
47175,40462
47168,40455
47162,40447
47161,40446
47157,40438
47157,40392
47164,40397
47174,40403
47185,40408
47196,40413
47207,40416
47219,40419
47233,40420
47248,40421
47263,40420
47277,40418
47289,40415
47305,40409
47321,40401
47336,40391
47349,40379
47361,40366
47370,40351
47378,40335
47384,40319
47384,40318
47388,40298
47389,40279
47389,40277
47326,40277
47325,40291
47321,40304
47316,40316
47308,40327
47306,40329
47295,40340
47283,40348
47270,40353
47256,40357
47242,40358
47227,40357
47223,40356
47210,40352
47197,40346
47186,40338
47176,40329
47168,40318
47162,40306
47159,40295
47157,40285
47157,40274
47158,40263
47161,40253
47161,40252
47167,40240
47174,40228
47184,40218
47194,40210
47206,40204
47219,40199
47233,40196
47246,40196
47248,40196
47256,40197
47263,40199
47270,40201
47277,40204
47280,40205
47286,40208
47291,40211
47296,40215
47301,40220
47302,40221
47311,40231
47318,40242
47323,40253
47325,40266
47326,40277
47389,40277
47388,40260
47385,40241
47380,40224
47375,40213
47370,40203
47364,40194
47358,40186
47351,40178
47344,40171
47330,40160
47315,40150
47299,40143
47282,40137
47279,40137
47274,40136
47270,40135
47265,40134
47259,40134
47252,40134
47243,40134
47234,40134
" /> 
<polyline style="fill-rule:evenodd;"
points="48694,40134
48675,40137
48658,40141
48641,40146
48626,40154
48624,40155
48609,40165
48595,40176
48583,40189
48572,40203
48564,40217
48561,40223
48556,40236
48553,40248
48551,40262
48550,40278
48549,40292
48549,40307
48675,40307
48696,40307
48714,40307
48730,40307
48744,40307
48755,40307
48766,40307
48774,40307
48781,40307
48787,40307
48791,40308
48795,40308
48797,40308
48799,40308
48799,40308
48800,40309
48800,40309
48800,40309
48797,40315
48793,40321
48788,40327
48783,40333
48773,40341
48762,40348
48748,40353
48733,40357
48716,40359
48698,40359
48678,40358
48673,40358
48665,40357
48657,40355
48649,40354
48640,40352
48630,40350
48618,40347
48613,40346
48601,40343
48592,40341
48584,40340
48577,40340
48572,40340
48568,40342
48563,40344
48560,40347
48555,40353
48551,40359
48550,40367
48550,40370
48550,40375
48551,40378
48552,40381
48554,40383
48558,40388
48563,40393
48570,40397
48579,40401
48590,40405
48602,40409
48605,40410
48621,40414
48638,40417
48656,40420
48667,40421
48673,40421
48681,40421
48690,40422
48699,40422
48708,40422
48717,40422
48724,40422
48730,40421
48733,40421
48736,40421
48741,40420
48747,40419
48750,40418
48769,40413
48787,40406
48803,40398
48819,40387
48831,40376
48843,40362
48852,40349
48860,40334
48865,40318
48868,40301
48869,40293
48870,40273
48868,40255
48867,40251
48799,40251
48620,40251
48621,40247
48623,40242
48626,40236
48631,40230
48636,40224
48637,40223
48644,40217
48653,40211
48663,40206
48670,40203
48684,40199
48699,40197
48715,40197
48730,40199
48745,40202
48752,40204
48763,40209
48774,40216
48783,40224
48790,40232
48796,40242
48797,40246
48799,40251
48867,40251
48864,40237
48858,40220
48849,40204
48838,40190
48825,40177
48822,40174
48809,40163
48796,40155
48782,40148
48768,40143
48750,40138
48732,40135
48713,40134
48694,40134
" /> 
<polyline style="fill-rule:evenodd;"
points="47577,40135
47558,40137
47541,40142
47525,40148
47513,40155
47503,40164
47494,40173
47487,40184
47485,40186
47484,40190
47482,40193
47481,40197
47480,40200
47479,40205
47478,40209
47478,40215
47477,40222
47477,40230
47477,40240
47477,40251
47477,40265
47477,40280
47477,40283
47477,40349
47469,40349
47457,40350
47447,40352
47439,40356
47433,40361
47429,40368
47427,40375
47426,40384
47428,40392
47432,40399
47437,40405
47444,40409
47447,40410
47449,40411
47452,40411
47456,40411
47461,40412
47467,40412
47476,40412
47486,40412
47497,40412
47541,40412
47541,40406
47541,40402
47541,40400
47541,40399
47543,40400
47545,40401
47548,40402
47557,40407
47569,40411
47581,40414
47594,40418
47607,40420
47608,40420
47615,40421
47622,40421
47631,40422
47640,40422
47649,40422
47657,40422
47663,40421
47667,40421
47684,40417
47699,40411
47714,40403
47726,40394
47733,40387
47741,40378
47747,40369
47751,40359
47753,40349
47753,40337
47753,40335
47687,40335
47686,40341
47682,40347
47676,40351
47668,40355
47659,40358
47653,40358
47646,40359
47637,40359
47628,40359
47619,40358
47611,40357
47609,40356
47591,40352
47573,40345
47557,40338
47540,40329
47540,40314
47539,40308
47540,40303
47540,40300
47540,40298
47540,40298
47542,40298
47545,40298
47550,40297
47552,40296
47570,40294
47587,40293
47603,40292
47617,40292
47630,40294
47641,40296
47641,40296
47653,40300
47663,40306
47672,40311
47679,40318
47684,40324
47686,40331
47687,40335
47753,40335
47753,40330
47753,40325
47752,40320
47750,40315
47750,40313
47744,40301
47737,40289
47727,40278
47724,40275
47710,40263
47695,40254
47678,40246
47660,40240
47640,40236
47637,40236
47628,40235
47618,40234
47606,40234
47593,40234
47580,40235
47568,40236
47556,40237
47546,40239
47544,40239
47540,40240
47541,40229
47541,40223
47541,40219
47542,40217
47544,40214
47545,40212
47551,40207
47558,40203
47567,40200
47579,40198
47592,40197
47597,40197
47604,40197
47611,40197
47617,40198
47624,40199
47631,40200
47640,40201
47650,40203
47657,40205
47671,40207
47682,40209
47691,40210
47698,40210
47704,40209
47708,40208
47715,40203
47720,40196
47723,40188
47724,40182
47724,40174
47722,40166
47718,40160
47716,40159
47714,40157
47711,40155
47708,40153
47703,40152
47697,40149
47694,40149
47680,40144
47666,40141
47654,40138
47641,40136
47626,40135
47619,40134
47597,40134
47577,40135
" /> 
<polyline style="fill-rule:evenodd;"
points="46842,40134
46824,40136
46807,40140
46800,40142
46787,40148
46774,40154
46763,40163
46754,40172
46747,40182
46745,40186
46743,40190
46742,40193
46741,40196
46740,40199
46739,40203
46738,40208
46738,40213
46737,40219
46737,40227
46737,40236
46737,40247
46737,40260
46737,40275
46737,40281
46737,40349
46724,40350
46713,40351
46705,40353
46698,40356
46693,40361
46689,40366
46687,40370
46687,40373
46686,40378
46686,40381
46686,40387
46687,40391
46688,40394
46689,40397
46690,40398
46693,40402
46697,40405
46701,40408
46708,40411
46754,40412
46801,40412
46801,40400
46808,40403
46818,40407
46830,40411
46843,40415
46854,40418
46862,40419
46872,40420
46883,40421
46894,40422
46904,40422
46915,40421
46923,40421
46930,40420
46945,40416
46960,40411
46973,40403
46985,40395
46995,40385
47003,40375
47009,40363
47011,40356
47013,40349
47013,40341
47013,40336
46947,40336
46946,40341
46942,40346
46937,40350
46930,40354
46922,40357
46919,40358
46912,40359
46904,40359
46894,40359
46884,40358
46874,40357
46865,40355
46864,40355
46851,40352
46838,40347
46826,40342
46815,40337
46800,40329
46800,40314
46799,40298
46807,40297
46822,40295
46837,40293
46852,40292
46866,40292
46878,40293
46890,40294
46899,40296
46910,40299
46921,40304
46930,40310
46937,40316
46942,40323
46946,40330
46947,40336
47013,40336
47013,40331
47012,40322
47010,40314
47009,40312
47005,40302
47000,40293
46993,40285
46987,40279
46974,40267
46960,40257
46945,40249
46928,40243
46910,40238
46903,40237
46893,40235
46881,40235
46868,40234
46854,40234
46840,40235
46827,40236
46815,40237
46804,40239
46804,40239
46801,40240
46801,40230
46801,40223
46802,40218
46804,40214
46807,40210
46809,40208
46815,40204
46822,40201
46831,40199
46842,40197
46856,40197
46857,40197
46865,40197
46872,40197
46880,40198
46888,40199
46897,40201
46908,40203
46919,40205
46931,40207
46940,40209
46948,40210
46954,40210
46960,40210
46964,40209
46968,40207
46971,40205
46974,40203
46979,40197
46982,40190
46984,40182
46984,40174
46981,40166
46978,40161
46976,40158
46972,40156
46967,40153
46960,40150
46951,40148
46947,40146
46925,40141
46904,40137
46882,40135
46862,40134
46842,40134
" /> 
<polyline style="fill-rule:evenodd;"
points="49311,40044
49304,40046
49300,40049
49298,40052
49295,40056
49291,40064
49291,40105
49291,40116
49291,40126
49291,40134
49291,40140
49291,40144
49291,40148
49292,40150
49292,40152
49295,40160
49300,40166
49305,40170
49312,40173
49321,40173
49326,40173
49331,40172
49335,40172
49335,40172
49339,40169
49343,40165
49346,40159
49350,40151
49353,40140
49353,40140
49356,40133
49361,40127
49368,40121
49377,40117
49388,40113
49399,40109
49412,40107
49425,40106
49439,40106
49453,40107
49456,40108
49472,40111
49487,40117
49501,40124
49513,40134
49524,40145
49532,40157
49539,40171
49544,40186
49545,40191
49545,40196
49546,40203
49546,40212
49547,40222
49547,40232
49547,40243
49547,40253
49546,40263
49546,40271
49545,40278
49545,40283
49541,40298
49535,40311
49527,40323
49517,40332
49506,40341
49493,40347
49477,40353
49460,40356
49454,40357
49437,40358
49419,40358
49401,40356
49384,40353
49368,40348
49363,40347
49353,40343
49353,40302
49390,40302
49402,40301
49412,40301
49420,40301
49426,40300
49431,40300
49435,40299
49438,40298
49441,40296
49444,40294
49444,40294
49449,40289
49453,40283
49455,40275
49455,40266
49454,40260
49452,40254
49448,40248
49442,40244
49437,40242
49430,40239
49361,40239
49346,40239
49333,40239
49323,40239
49314,40239
49307,40239
49301,40239
49296,40239
49293,40240
49290,40240
49288,40240
49286,40241
49285,40241
49277,40245
49271,40250
49267,40257
49265,40264
49264,40269
49265,40278
49268,40286
49273,40292
49279,40297
49283,40299
49291,40302
49291,40383
49308,40392
49324,40399
49338,40405
49352,40410
49365,40414
49379,40417
49382,40418
49387,40418
49394,40419
49402,40420
49412,40420
49422,40420
49432,40420
49442,40420
49451,40420
49458,40420
49462,40419
49478,40417
49494,40413
49510,40408
49524,40403
49534,40398
49549,40389
49563,40377
49575,40364
49586,40349
49595,40333
49602,40316
49607,40297
49609,40281
49610,40275
49610,40266
49610,40256
49610,40246
49610,40235
49610,40224
49610,40214
49610,40205
49609,40197
49609,40196
49606,40178
49602,40160
49595,40143
49594,40140
49588,40128
49581,40118
49574,40109
49566,40099
49560,40093
49546,40080
49532,40069
49516,40061
49500,40054
49482,40048
49475,40047
49471,40046
49466,40045
49462,40045
49456,40044
49450,40044
49442,40044
49434,40044
49424,40044
49415,40044
49408,40044
49402,40045
49397,40046
49394,40046
49384,40048
49373,40051
49362,40055
49353,40059
49352,40059
49348,40061
49345,40061
49344,40061
49343,40058
49340,40054
49336,40050
49332,40047
49331,40046
49325,40044
49318,40043
49311,40044
" /> 
<polyline style="fill-rule:evenodd;"
points="49091,40052
49080,40052
49072,40052
49065,40053
49058,40053
49053,40053
49048,40054
49044,40055
49040,40055
49036,40056
49031,40057
49030,40058
49015,40063
49000,40070
48986,40079
48974,40089
48964,40100
48956,40112
48952,40120
48947,40133
48944,40147
48943,40162
48944,40175
48947,40189
48953,40202
48960,40214
48970,40226
48974,40230
48978,40234
48984,40238
48989,40242
48995,40246
49000,40250
49004,40252
49007,40254
49008,40254
49008,40255
49006,40257
49003,40261
48999,40265
48999,40265
48981,40284
48964,40304
48948,40325
48940,40338
48932,40349
48925,40349
48917,40350
48909,40351
48901,40354
48896,40356
48895,40357
48889,40362
48886,40368
48884,40376
48884,40381
48885,40390
48887,40397
48892,40403
48898,40408
48905,40410
48908,40411
48912,40411
48917,40412
48924,40412
48932,40412
48943,40412
48974,40412
48981,40399
48988,40387
48997,40374
49005,40361
49015,40348
49024,40336
49034,40324
49044,40313
49053,40303
49062,40294
49070,40287
49077,40281
49080,40279
49086,40276
49116,40276
49146,40276
49146,40349
49131,40349
49119,40350
49109,40351
49101,40354
49094,40357
49089,40362
49087,40366
49085,40369
49084,40373
49084,40378
49084,40381
49085,40390
49087,40397
49091,40403
49094,40405
49096,40407
49099,40408
49101,40409
49104,40410
49107,40410
49111,40411
49116,40411
49122,40412
49130,40412
49140,40412
49152,40412
49165,40412
49172,40412
49186,40412
49197,40412
49207,40412
49215,40412
49221,40412
49226,40411
49230,40411
49233,40411
49236,40411
49237,40410
49239,40410
49247,40406
49253,40400
49256,40393
49258,40385
49258,40376
49258,40374
49255,40367
49251,40360
49245,40355
49236,40352
49226,40350
49217,40349
49209,40349
49209,40213
49146,40213
49126,40213
49117,40213
49108,40213
49098,40212
49090,40212
49089,40212
49076,40211
49064,40209
49054,40206
49044,40202
49042,40201
49033,40196
49026,40190
49019,40183
49014,40177
49013,40175
49011,40168
49010,40161
49011,40153
49013,40146
49013,40146
49018,40138
49025,40131
49034,40125
49044,40120
49049,40119
49051,40118
49054,40117
49056,40116
49059,40116
49063,40116
49067,40115
49073,40115
49080,40115
49089,40115
49100,40115
49102,40115
49146,40114
49146,40213
49209,40213
49209,40115
49221,40114
49233,40113
49242,40110
49248,40107
49253,40101
49257,40095
49258,40087
49258,40083
49258,40074
49256,40067
49252,40062
49247,40058
49243,40056
49236,40053
49150,40052
49132,40052
49116,40052
49102,40052
49091,40052
" /> 
<polyline style="fill-rule:evenodd;"
points="47926,40135
47910,40138
47895,40142
47882,40148
47870,40157
47861,40165
47856,40171
47852,40176
47848,40181
47845,40187
47843,40192
47841,40196
47839,40200
47838,40204
47837,40209
47836,40214
47835,40220
47835,40227
47835,40235
47834,40246
47834,40257
47834,40271
47834,40286
47834,40349
47826,40350
47817,40352
47809,40355
47803,40360
47799,40367
47797,40375
47797,40381
47797,40389
47800,40396
47803,40402
47805,40404
47808,40406
47810,40407
47812,40408
47815,40409
47818,40410
47822,40411
47827,40411
47833,40411
47841,40411
47852,40411
47864,40411
47911,40411
47919,40408
47925,40403
47930,40399
47933,40393
47934,40385
47934,40384
47934,40375
47932,40367
47928,40360
47922,40356
47915,40352
47906,40350
47897,40349
47897,40292
47897,40277
47897,40265
47897,40254
47897,40246
47897,40239
47898,40233
47898,40229
47899,40225
47900,40222
47901,40219
47903,40217
47904,40215
47909,40210
47916,40205
47923,40201
47927,40200
47931,40199
47935,40198
47941,40198
47949,40198
47952,40198
47959,40198
47965,40198
47969,40198
47972,40199
47976,40200
47979,40201
47989,40205
47999,40211
48009,40220
48017,40226
48028,40237
48028,40349
48023,40349
48017,40350
48011,40351
48004,40353
47999,40354
47999,40354
47993,40359
47988,40365
47985,40373
47984,40382
47985,40390
47987,40397
47992,40402
47998,40407
48001,40408
48003,40409
48004,40410
48006,40410
48008,40411
48012,40411
48016,40411
48021,40411
48028,40411
48036,40411
48047,40412
48058,40412
48072,40412
48083,40412
48092,40412
48100,40411
48105,40411
48109,40411
48112,40411
48114,40410
48122,40407
48128,40402
48132,40397
48135,40390
48136,40381
48136,40380
48134,40372
48131,40364
48126,40358
48120,40354
48116,40353
48110,40351
48103,40350
48097,40349
48097,40349
48092,40349
48092,40205
48101,40203
48106,40202
48111,40201
48114,40199
48121,40195
48125,40189
48128,40181
48129,40173
48128,40164
48127,40162
48124,40156
48119,40150
48111,40145
48109,40145
48107,40144
48105,40144
48103,40143
48099,40143
48094,40143
48088,40142
48079,40142
48069,40142
48066,40142
48028,40142
48028,40170
48020,40163
48012,40156
48005,40151
47998,40147
47990,40143
47982,40140
47974,40137
47965,40135
47955,40134
47944,40134
47926,40135
" /> 
</g>
<g style="fill:#000000; fill-opacity:1.0; 
stroke:#000000; stroke-width:0; stroke-opacity:1; 
stroke-linecap:round; stroke-linejoin:round;">
<polyline style="fill-rule:evenodd;"
points="51999,53256
52094,53296
52180,53353
52253,53426
52310,53511
52349,53606
52369,53707
52369,53810
52349,53911
52310,54006
52253,54091
52180,54164
52094,54221
51999,54261
51899,54281
51796,54281
51695,54261
51600,54221
51514,54164
51442,54091
51384,54006
51345,53911
51325,53810
51325,53707
51345,53606
51384,53511
51442,53426
51514,53353
51600,53296
51695,53256
51796,53236
51899,53236
51999,53256
" /> 
<polyline style="fill-rule:evenodd;"
points="43873,52201
43968,52240
44054,52297
44127,52370
44184,52455
44223,52550
44243,52651
44243,52754
44223,52855
44184,52950
44127,53035
44054,53108
43968,53165
43873,53205
43773,53225
43670,53225
43569,53205
43474,53165
43388,53108
43316,53035
43258,52950
43219,52855
43199,52754
43199,52651
43219,52550
43258,52455
43316,52370
43388,52297
43474,52240
43569,52201
43670,52181
43773,52181
43873,52201
" /> 
<polyline style="fill-rule:evenodd;"
points="51664,48786
51759,48826
51844,48883
51917,48956
51974,49041
52013,49136
52033,49237
52033,49340
52013,49441
51974,49536
51917,49621
51844,49694
51759,49751
51664,49791
51563,49811
51460,49811
51359,49791
51264,49751
51178,49694
51106,49621
51049,49536
51009,49441
50989,49340
50989,49237
51009,49136
51049,49041
51106,48956
51178,48883
51264,48826
51359,48786
51460,48766
51563,48766
51664,48786
" /> 
<polyline style="fill-rule:evenodd;"
points="41134,47769
41229,47808
41314,47865
41387,47938
41444,48023
41483,48118
41504,48219
41504,48322
41483,48423
41444,48518
41387,48604
41314,48676
41229,48733
41134,48773
41033,48793
40930,48793
40829,48773
40734,48733
40649,48676
40576,48604
40519,48518
40479,48423
40459,48322
40459,48219
40479,48118
40519,48023
40576,47938
40649,47865
40734,47808
40829,47769
40930,47749
41033,47749
41134,47769
" /> 
<polyline style="fill-rule:evenodd;"
points="61877,45773
61972,45812
62058,45869
62131,45942
62188,46027
62227,46122
62247,46223
62247,46326
62227,46427
62188,46522
62131,46608
62058,46680
61972,46737
61877,46777
61777,46797
61674,46797
61573,46777
61478,46737
61392,46680
61320,46608
61262,46522
61223,46427
61203,46326
61203,46223
61223,46122
61262,46027
61320,45942
61392,45869
61478,45812
61573,45773
61674,45753
61777,45753
61877,45773
" /> 
<polyline style="fill-rule:evenodd;"
points="58727,45305
58822,45344
58908,45401
58981,45474
59038,45559
59077,45654
59097,45755
59097,45858
59077,45959
59038,46054
58981,46139
58908,46212
58822,46269
58727,46309
58627,46329
58524,46329
58423,46309
58328,46269
58242,46212
58170,46139
58112,46054
58073,45959
58053,45858
58053,45755
58073,45654
58112,45559
58170,45474
58242,45401
58328,45344
58423,45305
58524,45284
58627,45284
58727,45305
" /> 
<polyline style="fill-rule:evenodd;"
points="41479,44664
41574,44704
41660,44761
41733,44834
41790,44919
41829,45014
41849,45115
41849,45218
41829,45319
41790,45414
41733,45499
41660,45572
41574,45629
41479,45668
41378,45689
41276,45689
41175,45668
41080,45629
40994,45572
40921,45499
40864,45414
40825,45319
40805,45218
40805,45115
40825,45014
40864,44919
40921,44834
40994,44761
41080,44704
41175,44664
41276,44644
41378,44644
41479,44664
" /> 
<polyline style="fill-rule:evenodd;"
points="67040,40571
67135,40610
67220,40667
67293,40740
67350,40825
67389,40920
67409,41021
67409,41124
67389,41225
67350,41320
67293,41406
67220,41478
67135,41535
67040,41575
66939,41595
66836,41595
66735,41575
66640,41535
66554,41478
66482,41406
66425,41320
66385,41225
66365,41124
66365,41021
66385,40920
66425,40825
66482,40740
66554,40667
66640,40610
66735,40571
66836,40551
66939,40551
67040,40571
" /> 
<polyline style="fill-rule:evenodd;"
points="59287,40313
59333,40322
59418,40357
59418,40357
59495,40408
59561,40474
59567,40483
59612,40551
59648,40636
59666,40727
59666,40820
59648,40911
59612,40996
59612,40996
59561,41073
59495,41139
59418,41190
59418,41190
59418,41190
59333,41225
59287,41234
59242,41244
59149,41244
59104,41234
59058,41225
58973,41190
58973,41190
58973,41190
58896,41139
58830,41073
58779,40996
58779,40996
58744,40911
58726,40820
58726,40727
58744,40636
58779,40551
58824,40483
58830,40474
58896,40408
58973,40357
58973,40357
59058,40322
59104,40313
59149,40304
59242,40304
59287,40313
" /> 
<polyline style="fill-rule:evenodd;"
points="44943,39657
44988,39666
45074,39702
45074,39702
45151,39753
45216,39819
45268,39896
45285,39938
45303,39981
45321,40072
45321,40165
45316,40191
45303,40255
45303,40257
45268,40341
45216,40418
45151,40483
45074,40535
45074,40535
45074,40535
44988,40570
44943,40579
44897,40588
44805,40588
44759,40579
44714,40570
44628,40535
44628,40535
44628,40535
44551,40483
44486,40418
44435,40341
44400,40257
44399,40255
44386,40191
44381,40165
44381,40072
44399,39981
44417,39938
44435,39896
44486,39819
44551,39753
44628,39702
44628,39702
44714,39666
44759,39657
44805,39648
44897,39648
44943,39657
" /> 
<polyline style="fill-rule:evenodd;"
points="58449,39431
58494,39440
58580,39475
58580,39475
58637,39514
58657,39527
58722,39592
58773,39669
58808,39753
58809,39755
58822,39819
58827,39845
58827,39938
58809,40029
58773,40114
58773,40114
58722,40191
58657,40257
58580,40308
58580,40308
58580,40308
58494,40344
58449,40353
58403,40362
58311,40362
58265,40353
58220,40344
58134,40308
58134,40308
58134,40308
58057,40257
57992,40191
57940,40114
57940,40114
57905,40029
57887,39938
57887,39845
57892,39819
57905,39755
57906,39753
57940,39669
57992,39592
58057,39527
58077,39514
58134,39475
58134,39475
58220,39440
58265,39431
58311,39422
58403,39422
58449,39431
" /> 
<polyline style="fill-rule:evenodd;"
points="53565,40335
52914,40335
52914,39763
53565,39763
53565,40335
" /> 
<polyline style="fill-rule:evenodd;"
points="54628,40335
53977,40335
53977,39763
54628,39763
54628,40335
" /> 
<polyline style="fill-rule:evenodd;"
points="45687,38688
45732,38697
45818,38732
45818,38732
45895,38784
45960,38849
46012,38926
46047,39012
46065,39102
46065,39195
46047,39286
46012,39371
45960,39448
45895,39514
45818,39565
45818,39565
45818,39565
45732,39601
45687,39610
45641,39619
45549,39619
45503,39610
45458,39601
45373,39565
45373,39565
45373,39565
45296,39514
45230,39448
45179,39371
45143,39286
45125,39195
45125,39102
45143,39012
45179,38926
45230,38849
45296,38784
45373,38732
45373,38732
45458,38697
45503,38688
45549,38679
45641,38679
45687,38688
" /> 
<polyline style="fill-rule:evenodd;"
points="57673,38506
57718,38515
57804,38550
57804,38550
57881,38601
57946,38667
57998,38744
58033,38829
58051,38920
58051,39013
58033,39104
57998,39189
57946,39266
57881,39332
57804,39383
57804,39383
57804,39383
57718,39418
57673,39427
57628,39437
57535,39437
57490,39427
57444,39418
57359,39383
57359,39383
57359,39383
57282,39332
57216,39266
57165,39189
57129,39104
57111,39013
57111,38920
57129,38829
57165,38744
57216,38667
57282,38601
57359,38550
57359,38550
57444,38515
57490,38506
57535,38497
57628,38497
57673,38506
" /> 
<polyline style="fill-rule:evenodd;"
points="53233,39070
52307,39070
52307,37789
53233,37789
53233,39070
" /> 
<polyline style="fill-rule:evenodd;"
points="50772,39070
49846,39070
49846,37789
50772,37789
50772,39070
" /> 
<polyline style="fill-rule:evenodd;"
points="46337,37650
46382,37659
46468,37694
46468,37694
46545,37746
46610,37811
46658,37882
46662,37888
46697,37974
46715,38064
46715,38157
46698,38242
46697,38248
46662,38333
46610,38410
46545,38476
46468,38527
46468,38527
46468,38527
46382,38563
46337,38572
46291,38581
46199,38581
46153,38572
46108,38563
46023,38527
46023,38527
46023,38527
45946,38476
45880,38410
45829,38333
45793,38248
45792,38242
45775,38157
45775,38064
45793,37974
45829,37888
45832,37882
45880,37811
45946,37746
46023,37694
46023,37694
46108,37659
46153,37650
46199,37641
46291,37641
46337,37650
" /> 
<polyline style="fill-rule:evenodd;"
points="56904,37559
56949,37568
57035,37603
57035,37603
57112,37655
57177,37720
57223,37789
57229,37797
57264,37882
57282,37973
57282,38066
57264,38157
57264,38157
57229,38242
57177,38319
57112,38385
57035,38436
57035,38436
57035,38436
56949,38472
56904,38481
56858,38490
56766,38490
56720,38481
56675,38472
56589,38436
56589,38436
56589,38436
56512,38385
56447,38319
56396,38242
56360,38157
56360,38157
56342,38066
56342,37973
56360,37882
56396,37797
56401,37789
56447,37720
56512,37655
56589,37603
56589,37603
56675,37568
56720,37559
56766,37550
56858,37550
56904,37559
" /> 
<polyline style="fill-rule:evenodd;"
points="55423,38400
54981,38400
54981,37840
55423,37840
55423,38400
" /> 
<polyline style="fill-rule:evenodd;"
points="54919,38400
54477,38400
54477,37840
54919,37840
54919,38400
" /> 
<polyline style="fill-rule:evenodd;"
points="51973,37652
51598,37652
51598,36923
51973,36923
51973,37652
" /> 
<polyline style="fill-rule:evenodd;"
points="51481,37652
51106,37652
51106,36923
51481,36923
51481,37652
" /> 
<polyline style="fill-rule:evenodd;"
points="46931,36594
46976,36603
47028,36624
47062,36638
47139,36690
47204,36755
47246,36818
47256,36832
47291,36917
47300,36963
47306,36994
47309,37008
47309,37101
47291,37192
47262,37263
47256,37277
47204,37354
47139,37420
47062,37471
47062,37471
47062,37471
46976,37507
46931,37516
46886,37525
46793,37525
46748,37516
46702,37507
46617,37471
46617,37471
46617,37471
46540,37420
46474,37354
46423,37277
46417,37263
46387,37192
46369,37101
46369,37008
46372,36994
46378,36963
46387,36917
46423,36832
46432,36818
46474,36755
46540,36690
46617,36638
46650,36624
46702,36603
46748,36594
46793,36585
46886,36585
46931,36594
" /> 
<polyline style="fill-rule:evenodd;"
points="56182,36580
56227,36589
56313,36624
56313,36624
56390,36676
56455,36741
56464,36755
56507,36818
56542,36904
56546,36923
56560,36994
56560,37087
56551,37132
56542,37178
56536,37192
56507,37263
56455,37340
56390,37406
56313,37457
56313,37457
56313,37457
56227,37493
56182,37502
56136,37511
56044,37511
55998,37502
55953,37493
55867,37457
55867,37457
55867,37457
55790,37406
55725,37340
55674,37263
55644,37192
55638,37178
55629,37132
55620,37087
55620,36994
55634,36923
55638,36904
55674,36818
55716,36755
55725,36741
55790,36676
55867,36624
55867,36624
55953,36589
55998,36580
56044,36571
56136,36571
56182,36580
" /> 
<polyline style="fill-rule:evenodd;"
points="55464,35602
55509,35611
55595,35646
55595,35646
55672,35697
55737,35763
55789,35840
55824,35925
55842,36016
55842,36109
55824,36200
55794,36272
55789,36285
55737,36362
55672,36428
55595,36479
55595,36479
55595,36479
55509,36515
55464,36524
55419,36533
55326,36533
55281,36524
55235,36515
55150,36479
55150,36479
55150,36479
55073,36428
55007,36362
54956,36285
54950,36272
54920,36200
54902,36109
54902,36016
54920,35925
54956,35840
55007,35763
55073,35697
55150,35646
55150,35646
55235,35611
55281,35602
55326,35593
55419,35593
55464,35602
" /> 
<polyline style="fill-rule:evenodd;"
points="47489,35512
47534,35521
47620,35556
47620,35556
47697,35607
47762,35673
47779,35697
47814,35750
47819,35763
47849,35835
47867,35926
47867,36019
47849,36110
47814,36195
47762,36272
47697,36338
47620,36389
47620,36389
47620,36389
47534,36425
47489,36434
47443,36443
47351,36443
47305,36434
47260,36425
47175,36389
47175,36389
47175,36389
47098,36338
47032,36272
46981,36195
46945,36110
46927,36019
46927,35926
46945,35835
46975,35763
46981,35750
47016,35697
47032,35673
47098,35607
47175,35556
47175,35556
47260,35521
47305,35512
47351,35503
47443,35503
47489,35512
" /> 
<polyline style="fill-rule:evenodd;"
points="51133,36355
50718,36355
50718,35822
51133,35822
51133,36355
" /> 
<polyline style="fill-rule:evenodd;"
points="52432,36355
52018,36355
52018,35822
52432,35822
52432,36355
" /> 
<polyline style="fill-rule:evenodd;"
points="50451,35697
49879,35697
49879,35047
50451,35047
50451,35697
" /> 
<polyline style="fill-rule:evenodd;"
points="53011,35696
52459,35696
52459,35045
53011,35045
53011,35696
" /> 
<polyline style="fill-rule:evenodd;"
points="54760,34612
54805,34621
54891,34656
54891,34656
54968,34707
55033,34773
55078,34840
55085,34850
55120,34935
55138,35026
55138,35119
55120,35210
55085,35295
55085,35295
55033,35372
54968,35438
54891,35489
54891,35489
54891,35489
54805,35525
54760,35534
54715,35543
54622,35543
54577,35534
54531,35525
54446,35489
54446,35489
54446,35489
54369,35438
54303,35372
54252,35295
54252,35295
54216,35210
54198,35119
54198,35026
54216,34935
54252,34850
54258,34840
54303,34773
54369,34707
54446,34656
54446,34656
54531,34621
54577,34612
54622,34603
54715,34603
54760,34612
" /> 
<polyline style="fill-rule:evenodd;"
points="48027,34426
48072,34435
48158,34470
48158,34470
48235,34522
48300,34587
48332,34634
48352,34664
48387,34749
48405,34840
48405,34933
48387,35024
48386,35026
48352,35109
48300,35186
48235,35252
48158,35303
48158,35303
48158,35303
48072,35339
48027,35348
47982,35357
47889,35357
47844,35348
47798,35339
47713,35303
47713,35303
47713,35303
47636,35252
47570,35186
47519,35109
47484,35026
47483,35024
47465,34933
47465,34840
47483,34749
47519,34664
47539,34634
47570,34587
47636,34522
47713,34470
47713,34470
47798,34435
47844,34426
47889,34417
47982,34417
48027,34426
" /> 
<polyline style="fill-rule:evenodd;"
points="51987,34987
51671,34987
51671,34313
51987,34313
51987,34987
" /> 
<polyline style="fill-rule:evenodd;"
points="51613,34987
51297,34987
51297,34313
51613,34313
51613,34987
" /> 
<polyline style="fill-rule:evenodd;"
points="51239,34987
50923,34987
50923,34313
51239,34313
51239,34987
" /> 
<polyline style="fill-rule:evenodd;"
points="53011,34712
52459,34712
52459,34061
53011,34061
53011,34712
" /> 
<polyline style="fill-rule:evenodd;"
points="50451,34634
49879,34634
49879,33984
50451,33984
50451,34634
" /> 
<polyline style="fill-rule:evenodd;"
points="51987,33924
51671,33924
51671,33250
51987,33250
51987,33924
" /> 
<polyline style="fill-rule:evenodd;"
points="51239,33924
50923,33924
50923,33250
51239,33250
51239,33924
" /> 
<polyline style="fill-rule:evenodd;"
points="49672,33531
49022,33531
49022,32979
49672,32979
49672,33531
" /> 
<polyline style="fill-rule:evenodd;"
points="50657,33531
50006,33531
50006,32979
50657,32979
50657,33531
" /> 
<polyline style="fill-rule:evenodd;"
points="46543,32592
46589,32601
46674,32637
46674,32637
46751,32688
46817,32754
46868,32830
46903,32916
46921,33007
46921,33099
46903,33190
46868,33276
46817,33353
46751,33418
46674,33470
46674,33470
46674,33470
46589,33505
46543,33514
46498,33523
46405,33523
46360,33514
46314,33505
46229,33470
46229,33470
46229,33470
46152,33418
46086,33353
46035,33276
46000,33190
45981,33099
45981,33007
46000,32916
46035,32830
46086,32754
46152,32688
46229,32637
46229,32637
46314,32601
46360,32592
46405,32583
46498,32583
46543,32592
" /> 
<polyline style="fill-rule:evenodd;"
points="52902,33479
52252,33479
52252,32927
52902,32927
52902,33479
" /> 
<polyline style="fill-rule:evenodd;"
points="53887,33479
53236,33479
53236,32927
53887,32927
53887,33479
" /> 
<polyline style="fill-rule:evenodd;"
points="56661,33081
56089,33081
56089,32431
56661,32431
56661,33081
" /> 
<polyline style="fill-rule:evenodd;"
points="45681,31758
45726,31767
45812,31802
45812,31802
45889,31853
45954,31919
45983,31962
46006,31996
46041,32081
46059,32172
46059,32265
46041,32356
46006,32441
46006,32441
45954,32518
45889,32584
45812,32635
45812,32635
45812,32635
45726,32670
45681,32679
45636,32688
45543,32688
45498,32679
45452,32670
45367,32635
45367,32635
45367,32635
45290,32584
45224,32518
45173,32441
45173,32441
45137,32356
45119,32265
45119,32172
45137,32081
45173,31996
45195,31962
45224,31919
45290,31853
45367,31802
45367,31802
45452,31767
45498,31758
45543,31748
45636,31748
45681,31758
" /> 
<polyline style="fill-rule:evenodd;"
points="48690,31581
48690,31581
48690,31581
48736,31596
48776,31617
48779,31618
48816,31649
48847,31687
48847,31687
48870,31730
48876,31748
48884,31776
48889,31824
48884,31873
48884,31873
48884,31873
48870,31919
48849,31959
48847,31962
48816,32000
48779,32030
48779,32030
48736,32053
48690,32067
48690,32067
48690,32067
48653,32071
48078,32071
48042,32067
48042,32067
48042,32067
47995,32053
47952,32030
47952,32030
47915,32000
47884,31962
47883,31959
47861,31919
47847,31873
47847,31873
47847,31873
47842,31824
47847,31776
47855,31748
47861,31730
47884,31687
47884,31687
47915,31649
47952,31618
47955,31617
47995,31596
48042,31581
48042,31581
48042,31581
48078,31578
48653,31578
48690,31581
" /> 
<polyline style="fill-rule:evenodd;"
points="54753,31581
54753,31581
54753,31581
54799,31596
54839,31617
54842,31618
54879,31649
54910,31687
54910,31687
54933,31730
54939,31748
54947,31776
54952,31824
54947,31873
54947,31873
54947,31873
54933,31919
54912,31959
54910,31962
54879,32000
54842,32030
54842,32030
54799,32053
54753,32067
54753,32067
54753,32067
54716,32071
54141,32071
54105,32067
54105,32067
54105,32067
54058,32053
54015,32030
54015,32030
53978,32000
53947,31962
53946,31959
53924,31919
53910,31873
53910,31873
53910,31873
53905,31824
53910,31776
53918,31748
53924,31730
53947,31687
53947,31687
53978,31649
54015,31618
54018,31617
54058,31596
54105,31581
54105,31581
54105,31581
54141,31578
54716,31578
54753,31581
" /> 
<polyline style="fill-rule:evenodd;"
points="56661,32018
56089,32018
56089,31368
56661,31368
56661,32018
" /> 
<polyline style="fill-rule:evenodd;"
points="54753,30794
54753,30794
54753,30794
54799,30808
54839,30830
54842,30831
54879,30862
54910,30899
54910,30899
54933,30942
54947,30989
54947,30989
54952,31037
54947,31085
54947,31085
54947,31085
54933,31132
54912,31172
54910,31175
54879,31212
54842,31243
54842,31243
54799,31266
54753,31280
54753,31280
54753,31280
54716,31284
54141,31284
54105,31280
54105,31280
54105,31280
54058,31266
54015,31243
54015,31243
53978,31212
53947,31175
53946,31172
53924,31132
53910,31085
53910,31085
53910,31085
53905,31037
53910,30989
53910,30989
53924,30942
53947,30899
53947,30899
53978,30862
54015,30831
54018,30830
54058,30808
54105,30794
54105,30794
54105,30794
54141,30790
54716,30790
54753,30794
" /> 
<polyline style="fill-rule:evenodd;"
points="48729,30794
48729,30794
48729,30794
48775,30808
48815,30830
48818,30831
48856,30862
48887,30899
48887,30899
48909,30942
48924,30989
48924,30989
48928,31037
48924,31085
48924,31085
48924,31085
48909,31132
48888,31172
48887,31175
48856,31212
48818,31243
48818,31243
48775,31266
48729,31280
48729,31280
48729,31280
48693,31284
48117,31284
48081,31280
48081,31280
48081,31280
48035,31266
47992,31243
47992,31243
47954,31212
47923,31175
47922,31172
47901,31132
47886,31085
47886,31085
47886,31085
47882,31037
47886,30989
47886,30989
47901,30942
47923,30899
47923,30899
47954,30862
47992,30831
47995,30830
48035,30808
48081,30794
48081,30794
48081,30794
48117,30790
48693,30790
48729,30794
" /> 
<polyline style="fill-rule:evenodd;"
points="47077,31063
46505,31063
46505,30412
47077,30412
47077,31063
" /> 
<polyline style="fill-rule:evenodd;"
points="54753,30007
54753,30007
54753,30007
54799,30021
54839,30042
54842,30044
54879,30074
54910,30112
54910,30112
54933,30155
54947,30201
54947,30201
54952,30250
54947,30298
54947,30298
54947,30298
54933,30344
54912,30384
54910,30387
54879,30425
54842,30456
54842,30456
54799,30478
54753,30493
54753,30493
54753,30493
54716,30496
54141,30496
54105,30493
54105,30493
54105,30493
54058,30478
54015,30456
54015,30456
53978,30425
53947,30387
53946,30384
53924,30344
53910,30298
53910,30298
53910,30298
53905,30250
53910,30201
53910,30201
53924,30155
53947,30112
53947,30112
53978,30074
54015,30044
54018,30042
54058,30021
54105,30007
54105,30007
54105,30007
54141,30003
54716,30003
54753,30007
" /> 
<polyline style="fill-rule:evenodd;"
points="48690,30007
48690,30007
48690,30007
48736,30021
48776,30042
48779,30044
48816,30074
48847,30112
48847,30112
48870,30155
48884,30201
48884,30201
48889,30250
48884,30298
48884,30298
48884,30298
48870,30344
48849,30384
48847,30387
48816,30425
48779,30456
48779,30456
48736,30478
48690,30493
48690,30493
48690,30493
48653,30496
48078,30496
48042,30493
48042,30493
48042,30493
47995,30478
47952,30456
47952,30456
47915,30425
47884,30387
47883,30384
47861,30344
47847,30298
47847,30298
47847,30298
47842,30250
47847,30201
47847,30201
47861,30155
47884,30112
47884,30112
47915,30074
47952,30044
47955,30042
47995,30021
48042,30007
48042,30007
48042,30007
48078,30003
48653,30003
48690,30007
" /> 
<polyline style="fill-rule:evenodd;"
points="47077,30000
46505,30000
46505,29349
47077,29349
47077,30000
" /> 
<polyline style="fill-rule:evenodd;"
points="54753,29219
54753,29219
54753,29219
54799,29233
54839,29255
54842,29256
54879,29287
54910,29325
54910,29325
54933,29367
54947,29414
54947,29414
54952,29462
54947,29511
54947,29511
54947,29511
54933,29557
54912,29597
54910,29600
54879,29637
54842,29668
54842,29668
54799,29691
54753,29705
54753,29705
54753,29705
54716,29709
54141,29709
54105,29705
54105,29705
54105,29705
54058,29691
54015,29668
54015,29668
53978,29637
53947,29600
53946,29597
53924,29557
53910,29511
53910,29511
53910,29511
53905,29462
53910,29414
53910,29414
53924,29367
53947,29325
53947,29325
53978,29287
54015,29256
54018,29255
54058,29233
54105,29219
54105,29219
54105,29219
54141,29216
54716,29216
54753,29219
" /> 
<polyline style="fill-rule:evenodd;"
points="48690,29219
48690,29219
48690,29219
48736,29233
48776,29255
48779,29256
48816,29287
48847,29325
48847,29325
48870,29367
48884,29414
48884,29414
48889,29462
48884,29511
48884,29511
48884,29511
48870,29557
48849,29597
48847,29600
48816,29637
48779,29668
48779,29668
48736,29691
48690,29705
48690,29705
48690,29705
48653,29709
48078,29709
48042,29705
48042,29705
48042,29705
47995,29691
47952,29668
47952,29668
47915,29637
47884,29600
47883,29597
47861,29557
47847,29511
47847,29511
47847,29511
47842,29462
47847,29414
47847,29414
47861,29367
47884,29325
47884,29325
47915,29287
47952,29256
47955,29255
47995,29233
48042,29219
48042,29219
48042,29219
48078,29216
48653,29216
48690,29219
" /> 
<polyline style="fill-rule:evenodd;"
points="45891,28977
45320,28977
45320,28327
45891,28327
45891,28977
" /> 
<polyline style="fill-rule:evenodd;"
points="56847,28949
56275,28949
56275,28299
56847,28299
56847,28949
" /> 
<polyline style="fill-rule:evenodd;"
points="54753,28432
54753,28432
54753,28432
54799,28446
54839,28467
54842,28469
54879,28500
54910,28537
54910,28537
54933,28580
54947,28626
54947,28626
54952,28675
54947,28723
54947,28723
54947,28723
54933,28770
54912,28810
54910,28812
54879,28850
54842,28881
54842,28881
54799,28904
54753,28918
54753,28918
54753,28918
54716,28921
54141,28921
54105,28918
54105,28918
54105,28918
54058,28904
54015,28881
54015,28881
53978,28850
53947,28812
53946,28810
53924,28770
53910,28723
53910,28723
53910,28723
53905,28675
53910,28626
53910,28626
53924,28580
53947,28537
53947,28537
53978,28500
54015,28469
54018,28467
54058,28446
54105,28432
54105,28432
54105,28432
54141,28428
54716,28428
54753,28432
" /> 
<polyline style="fill-rule:evenodd;"
points="48690,28432
48690,28432
48690,28432
48736,28446
48776,28467
48779,28469
48816,28500
48847,28537
48847,28537
48870,28580
48884,28626
48884,28626
48889,28675
48884,28723
48884,28723
48884,28723
48870,28770
48849,28810
48847,28812
48816,28850
48779,28881
48779,28881
48736,28904
48690,28918
48690,28918
48690,28918
48653,28921
48078,28921
48042,28918
48042,28918
48042,28918
47995,28904
47952,28881
47952,28881
47915,28850
47884,28812
47883,28810
47861,28770
47847,28723
47847,28723
47847,28723
47842,28675
47847,28626
47847,28626
47861,28580
47884,28537
47884,28537
47915,28500
47952,28469
47955,28467
47995,28446
48042,28432
48042,28432
48042,28432
48078,28428
48653,28428
48690,28432
" /> 
<polyline style="fill-rule:evenodd;"
points="44757,28359
44185,28359
44185,27709
44757,27709
44757,28359
" /> 
<polyline style="fill-rule:evenodd;"
points="58085,28260
57533,28260
57533,27609
58085,27609
58085,28260
" /> 
<polyline style="fill-rule:evenodd;"
points="54753,27644
54753,27644
54753,27644
54799,27659
54839,27680
54842,27681
54879,27712
54910,27750
54910,27750
54933,27793
54947,27839
54947,27839
54952,27887
54947,27936
54947,27936
54947,27936
54933,27982
54912,28022
54910,28025
54879,28063
54842,28093
54842,28093
54799,28116
54753,28130
54753,28130
54753,28130
54716,28134
54141,28134
54105,28130
54105,28130
54105,28130
54058,28116
54015,28093
54015,28093
53978,28063
53947,28025
53946,28022
53924,27982
53910,27936
53910,27936
53910,27936
53905,27887
53910,27839
53910,27839
53924,27793
53947,27750
53947,27750
53978,27712
54015,27681
54018,27680
54058,27659
54105,27644
54105,27644
54105,27644
54141,27641
54716,27641
54753,27644
" /> 
<polyline style="fill-rule:evenodd;"
points="48690,27644
48690,27644
48690,27644
48736,27659
48776,27680
48779,27681
48816,27712
48847,27750
48847,27750
48870,27793
48884,27839
48884,27839
48889,27887
48884,27936
48884,27936
48884,27936
48870,27982
48849,28022
48847,28025
48816,28063
48779,28093
48779,28093
48736,28116
48690,28130
48690,28130
48690,28130
48653,28134
48078,28134
48042,28130
48042,28130
48042,28130
47995,28116
47952,28093
47952,28093
47915,28063
47884,28025
47883,28022
47861,27982
47847,27936
47847,27936
47847,27936
47842,27887
47847,27839
47847,27839
47861,27793
47884,27750
47884,27750
47915,27712
47952,27681
47955,27680
47995,27659
48042,27644
48042,27644
48042,27644
48078,27641
48653,27641
48690,27644
" /> 
<polyline style="fill-rule:evenodd;"
points="45891,27914
45320,27914
45320,27264
45891,27264
45891,27914
" /> 
<polyline style="fill-rule:evenodd;"
points="56847,27886
56275,27886
56275,27236
56847,27236
56847,27886
" /> 
<polyline style="fill-rule:evenodd;"
points="54753,26857
54753,26857
54753,26857
54799,26871
54839,26893
54842,26894
54879,26925
54910,26962
54910,26962
54933,27005
54947,27052
54947,27052
54952,27100
54947,27148
54947,27148
54947,27148
54933,27195
54912,27235
54910,27238
54879,27275
54842,27306
54842,27306
54799,27329
54753,27343
54753,27343
54753,27343
54716,27347
54141,27347
54105,27343
54105,27343
54105,27343
54058,27329
54015,27306
54015,27306
53978,27275
53947,27238
53946,27235
53924,27195
53910,27148
53910,27148
53910,27148
53905,27100
53910,27052
53910,27052
53924,27005
53947,26962
53947,26962
53978,26925
54015,26894
54018,26893
54058,26871
54105,26857
54105,26857
54105,26857
54141,26853
54716,26853
54753,26857
" /> 
<polyline style="fill-rule:evenodd;"
points="48690,26857
48690,26857
48690,26857
48736,26871
48776,26893
48779,26894
48816,26925
48847,26962
48847,26962
48870,27005
48884,27052
48884,27052
48889,27100
48884,27148
48884,27148
48884,27148
48870,27195
48849,27235
48847,27238
48816,27275
48779,27306
48779,27306
48736,27329
48690,27343
48690,27343
48690,27343
48653,27347
48078,27347
48042,27343
48042,27343
48042,27343
47995,27329
47952,27306
47952,27306
47915,27275
47884,27238
47883,27235
47861,27195
47847,27148
47847,27148
47847,27148
47842,27100
47847,27052
47847,27052
47861,27005
47884,26962
47884,26962
47915,26925
47952,26894
47955,26893
47995,26871
48042,26857
48042,26857
48042,26857
48078,26853
48653,26853
48690,26857
" /> 
<polyline style="fill-rule:evenodd;"
points="44757,27296
44185,27296
44185,26646
44757,26646
44757,27296
" /> 
<polyline style="fill-rule:evenodd;"
points="58085,27276
57533,27276
57533,26625
58085,26625
58085,27276
" /> 
<polyline style="fill-rule:evenodd;"
points="54951,26559
53907,26559
53907,26066
54951,26066
54951,26559
" /> 
<polyline style="fill-rule:evenodd;"
points="48690,26070
48690,26070
48690,26070
48736,26084
48776,26105
48779,26107
48816,26137
48847,26175
48847,26175
48870,26218
48884,26264
48884,26264
48889,26313
48884,26361
48884,26361
48884,26361
48870,26407
48849,26447
48847,26450
48816,26488
48779,26519
48779,26519
48736,26541
48690,26556
48690,26556
48690,26556
48653,26559
48078,26559
48042,26556
48042,26556
48042,26556
47995,26541
47952,26519
47952,26519
47915,26488
47884,26450
47883,26447
47861,26407
47847,26361
47847,26361
47847,26361
47842,26313
47847,26264
47847,26264
47861,26218
47884,26175
47884,26175
47915,26137
47952,26107
47955,26105
47995,26084
48042,26070
48042,26070
48042,26070
48078,26066
48653,26066
48690,26070
" /> 
<polyline style="fill-rule:evenodd;"
points="51714,17150
51920,17235
51920,17235
52105,17359
52263,17517
52387,17702
52472,17908
52516,18127
52516,18350
52472,18569
52387,18775
52263,18960
52105,19118
51920,19242
51920,19242
51920,19242
51714,19327
51495,19371
51272,19371
51053,19327
50847,19242
50847,19242
50847,19242
50662,19118
50504,18960
50380,18775
50295,18569
50251,18350
50251,18127
50295,17908
50380,17702
50504,17517
50662,17359
50847,17235
50847,17235
51053,17150
51272,17106
51495,17106
51714,17150
" /> 
</g> 
</svg>
